%TF.GenerationSoftware,KiCad,Pcbnew,8.0.8*%
%TF.CreationDate,2025-04-02T15:42:23+05:30*%
%TF.ProjectId,STHDAQ_B1,53544844-4151-45f4-9231-2e6b69636164,rev?*%
%TF.SameCoordinates,Original*%
%TF.FileFunction,Other,User*%
%FSLAX46Y46*%
G04 Gerber Fmt 4.6, Leading zero omitted, Abs format (unit mm)*
G04 Created by KiCad (PCBNEW 8.0.8) date 2025-04-02 15:42:23*
%MOMM*%
%LPD*%
G01*
G04 APERTURE LIST*
%ADD10C,0.050000*%
%ADD11C,0.152400*%
%ADD12C,0.127000*%
G04 APERTURE END LIST*
D10*
%TO.C,R11*%
X148203834Y-72866000D02*
X144903834Y-72866000D01*
X148203834Y-71406000D02*
X148203834Y-72866000D01*
X144903834Y-72866000D02*
X144903834Y-71406000D01*
X144903834Y-71406000D02*
X148203834Y-71406000D01*
%TO.C,R10*%
X148208000Y-75152000D02*
X144908000Y-75152000D01*
X148208000Y-73692000D02*
X148208000Y-75152000D01*
X144908000Y-75152000D02*
X144908000Y-73692000D01*
X144908000Y-73692000D02*
X148208000Y-73692000D01*
%TO.C,R9*%
X148216332Y-70580000D02*
X144916332Y-70580000D01*
X148216332Y-69120000D02*
X148216332Y-70580000D01*
X144916332Y-70580000D02*
X144916332Y-69120000D01*
X144916332Y-69120000D02*
X148216332Y-69120000D01*
%TO.C,R8*%
X161258000Y-81408000D02*
X161258000Y-84708000D01*
X159798000Y-81408000D02*
X161258000Y-81408000D01*
X161258000Y-84708000D02*
X159798000Y-84708000D01*
X159798000Y-84708000D02*
X159798000Y-81408000D01*
%TO.C,R7*%
X157792000Y-91327000D02*
X157792000Y-88027000D01*
X159252000Y-91327000D02*
X157792000Y-91327000D01*
X157792000Y-88027000D02*
X159252000Y-88027000D01*
X159252000Y-88027000D02*
X159252000Y-91327000D01*
%TO.C,R6*%
X159544000Y-91312000D02*
X159544000Y-88012000D01*
X161004000Y-91312000D02*
X159544000Y-91312000D01*
X159544000Y-88012000D02*
X161004000Y-88012000D01*
X161004000Y-88012000D02*
X161004000Y-91312000D01*
%TO.C,R5*%
X156940000Y-53575666D02*
X156940000Y-56875666D01*
X155480000Y-53575666D02*
X156940000Y-53575666D01*
X156940000Y-56875666D02*
X155480000Y-56875666D01*
X155480000Y-56875666D02*
X155480000Y-53575666D01*
%TO.C,R4*%
X159226000Y-53567334D02*
X159226000Y-56867334D01*
X157766000Y-53567334D02*
X159226000Y-53567334D01*
X159226000Y-56867334D02*
X157766000Y-56867334D01*
X157766000Y-56867334D02*
X157766000Y-53567334D01*
%TO.C,R3*%
X161512000Y-53554836D02*
X161512000Y-56854836D01*
X160052000Y-53554836D02*
X161512000Y-53554836D01*
X161512000Y-56854836D02*
X160052000Y-56854836D01*
X160052000Y-56854836D02*
X160052000Y-53554836D01*
%TO.C,R2*%
X163798000Y-53571500D02*
X163798000Y-56871500D01*
X162338000Y-53571500D02*
X163798000Y-53571500D01*
X163798000Y-56871500D02*
X162338000Y-56871500D01*
X162338000Y-56871500D02*
X162338000Y-53571500D01*
%TO.C,R1*%
X144757500Y-84614000D02*
X148057500Y-84614000D01*
X144757500Y-86074000D02*
X144757500Y-84614000D01*
X148057500Y-84614000D02*
X148057500Y-86074000D01*
X148057500Y-86074000D02*
X144757500Y-86074000D01*
%TO.C,L1*%
X148972000Y-82836000D02*
X152272000Y-82836000D01*
X148972000Y-84296000D02*
X148972000Y-82836000D01*
X152272000Y-82836000D02*
X152272000Y-84296000D01*
X152272000Y-84296000D02*
X148972000Y-84296000D01*
%TO.C,D5*%
X161322000Y-91312000D02*
X161322000Y-88012000D01*
X162782000Y-91312000D02*
X161322000Y-91312000D01*
X161322000Y-88012000D02*
X162782000Y-88012000D01*
X162782000Y-88012000D02*
X162782000Y-91312000D01*
%TO.C,D4*%
X150242000Y-90456000D02*
X153542000Y-90456000D01*
X150242000Y-91916000D02*
X150242000Y-90456000D01*
X153542000Y-90456000D02*
X153542000Y-91916000D01*
X153542000Y-91916000D02*
X150242000Y-91916000D01*
%TO.C,D3*%
X146432000Y-90456000D02*
X149732000Y-90456000D01*
X146432000Y-91916000D02*
X146432000Y-90456000D01*
X149732000Y-90456000D02*
X149732000Y-91916000D01*
X149732000Y-91916000D02*
X146432000Y-91916000D01*
%TO.C,D2*%
X146272000Y-86488000D02*
X146272000Y-89788000D01*
X144812000Y-86488000D02*
X146272000Y-86488000D01*
X146272000Y-89788000D02*
X144812000Y-89788000D01*
X144812000Y-89788000D02*
X144812000Y-86488000D01*
%TO.C,D1*%
X146590000Y-89788000D02*
X146590000Y-86488000D01*
X148050000Y-89788000D02*
X146590000Y-89788000D01*
X146590000Y-86488000D02*
X148050000Y-86488000D01*
X148050000Y-86488000D02*
X148050000Y-89788000D01*
%TO.C,C7*%
X158020000Y-84713000D02*
X158020000Y-81413000D01*
X159480000Y-84713000D02*
X158020000Y-84713000D01*
X158020000Y-81413000D02*
X159480000Y-81413000D01*
X159480000Y-81413000D02*
X159480000Y-84713000D01*
%TO.C,C6*%
X144757500Y-77502000D02*
X148057500Y-77502000D01*
X144757500Y-78962000D02*
X144757500Y-77502000D01*
X148057500Y-77502000D02*
X148057500Y-78962000D01*
X148057500Y-78962000D02*
X144757500Y-78962000D01*
%TO.C,C5*%
X156242000Y-84713000D02*
X156242000Y-81413000D01*
X157702000Y-84713000D02*
X156242000Y-84713000D01*
X156242000Y-81413000D02*
X157702000Y-81413000D01*
X157702000Y-81413000D02*
X157702000Y-84713000D01*
%TO.C,C4*%
X144742500Y-75724000D02*
X148042500Y-75724000D01*
X144742500Y-77184000D02*
X144742500Y-75724000D01*
X148042500Y-75724000D02*
X148042500Y-77184000D01*
X148042500Y-77184000D02*
X144742500Y-77184000D01*
%TO.C,C3*%
X144757500Y-79280000D02*
X148057500Y-79280000D01*
X144757500Y-80740000D02*
X144757500Y-79280000D01*
X148057500Y-79280000D02*
X148057500Y-80740000D01*
X148057500Y-80740000D02*
X144757500Y-80740000D01*
%TO.C,C2*%
X145416000Y-82932000D02*
X148716000Y-82932000D01*
X145416000Y-84392000D02*
X145416000Y-82932000D01*
X148716000Y-82932000D02*
X148716000Y-84392000D01*
X148716000Y-84392000D02*
X145416000Y-84392000D01*
%TO.C,C1*%
X148146000Y-82665000D02*
X144846000Y-82665000D01*
X148146000Y-81205000D02*
X148146000Y-82665000D01*
X144846000Y-82665000D02*
X144846000Y-81205000D01*
X144846000Y-81205000D02*
X148146000Y-81205000D01*
%TO.C,U2*%
X148593000Y-58662500D02*
X172093000Y-58662500D01*
X148593000Y-79162500D02*
X148593000Y-58662500D01*
X172093000Y-58662500D02*
X172093000Y-79162500D01*
X172093000Y-79162500D02*
X148593000Y-79162500D01*
%TO.C,H1*%
X171530000Y-54705000D02*
G75*
G02*
X165530000Y-54705000I-3000000J0D01*
G01*
X165530000Y-54705000D02*
G75*
G02*
X171530000Y-54705000I3000000J0D01*
G01*
%TO.C,H2*%
X144030000Y-54705000D02*
G75*
G02*
X138030000Y-54705000I-3000000J0D01*
G01*
X138030000Y-54705000D02*
G75*
G02*
X144030000Y-54705000I3000000J0D01*
G01*
D11*
%TO.C,J1*%
X138002000Y-70887100D02*
X138002000Y-89954900D01*
X138002000Y-89954900D02*
X144360900Y-89954900D01*
X144360900Y-70887100D02*
X138002000Y-70887100D01*
X144360900Y-89954900D02*
X144360900Y-70887100D01*
D10*
%TO.C,SW1*%
X164174000Y-91992000D02*
X156374000Y-91992000D01*
X164174000Y-97492000D02*
X164174000Y-91992000D01*
X164174000Y-97492000D02*
X156374000Y-97492000D01*
X156374000Y-97492000D02*
X156374000Y-91992000D01*
D12*
%TO.C,P2*%
X137877000Y-58492000D02*
X146627000Y-58492000D01*
X137877000Y-67492000D02*
X137877000Y-58492000D01*
X146627000Y-58492000D02*
X146627000Y-60742000D01*
X146627000Y-60742000D02*
X148127000Y-60742000D01*
X146627000Y-65242000D02*
X146627000Y-67492000D01*
X146627000Y-67492000D02*
X137877000Y-67492000D01*
X148127000Y-60742000D02*
X148127000Y-65242000D01*
X148127000Y-65242000D02*
X146627000Y-65242000D01*
D10*
%TO.C,S1*%
X145614000Y-92746000D02*
X154614000Y-92746000D01*
X145614000Y-97246000D02*
X145614000Y-92746000D01*
X154614000Y-92746000D02*
X154614000Y-97246000D01*
X154614000Y-97246000D02*
X145614000Y-97246000D01*
%TO.C,H4*%
X171530000Y-94705000D02*
G75*
G02*
X165530000Y-94705000I-3000000J0D01*
G01*
X165530000Y-94705000D02*
G75*
G02*
X171530000Y-94705000I3000000J0D01*
G01*
D12*
%TO.C,P1*%
X161753000Y-82640000D02*
X163253000Y-82640000D01*
X161753000Y-87140000D02*
X161753000Y-82640000D01*
X163253000Y-80390000D02*
X172003000Y-80390000D01*
X163253000Y-82640000D02*
X163253000Y-80390000D01*
X163253000Y-87140000D02*
X161753000Y-87140000D01*
X163253000Y-89390000D02*
X163253000Y-87140000D01*
X172003000Y-80390000D02*
X172003000Y-89390000D01*
X172003000Y-89390000D02*
X163253000Y-89390000D01*
D10*
%TO.C,H3*%
X144030000Y-94705000D02*
G75*
G02*
X138030000Y-94705000I-3000000J0D01*
G01*
X138030000Y-94705000D02*
G75*
G02*
X144030000Y-94705000I3000000J0D01*
G01*
%TD*%
M02*
