%TF.GenerationSoftware,KiCad,Pcbnew,8.0.8*%
%TF.CreationDate,2025-04-02T15:42:16+05:30*%
%TF.ProjectId,STHDAQ_B1,53544844-4151-45f4-9231-2e6b69636164,rev?*%
%TF.SameCoordinates,Original*%
%TF.FileFunction,Drillmap*%
%TF.FilePolarity,Positive*%
%FSLAX45Y45*%
G04 Gerber Fmt 4.5, Leading zero omitted, Abs format (unit mm)*
G04 Created by KiCad (PCBNEW 8.0.8) date 2025-04-02 15:42:16*
%MOMM*%
%LPD*%
G01*
G04 APERTURE LIST*
%ADD10C,0.050000*%
%ADD11C,0.200000*%
G04 APERTURE END LIST*
D10*
X16921200Y-5135600D02*
G75*
G02*
X17221200Y-5435600I0J-300000D01*
G01*
X16921200Y-9790668D02*
X14066800Y-9790668D01*
X14066800Y-9790668D02*
G75*
G02*
X13766800Y-9490668I0J300000D01*
G01*
X17221200Y-5435600D02*
X17221200Y-9490668D01*
X17221200Y-9490668D02*
G75*
G02*
X16921200Y-9790668I-300000J0D01*
G01*
X13766800Y-9490668D02*
X13766800Y-5435600D01*
X14066800Y-5135600D02*
X16921200Y-5135600D01*
X13766800Y-5435600D02*
G75*
G02*
X14066800Y-5135600I300000J0D01*
G01*
D11*
X14025077Y-10104652D02*
X14025077Y-9904652D01*
X14025077Y-9904652D02*
X14072696Y-9904652D01*
X14072696Y-9904652D02*
X14101267Y-9914176D01*
X14101267Y-9914176D02*
X14120315Y-9933223D01*
X14120315Y-9933223D02*
X14129839Y-9952271D01*
X14129839Y-9952271D02*
X14139362Y-9990366D01*
X14139362Y-9990366D02*
X14139362Y-10018938D01*
X14139362Y-10018938D02*
X14129839Y-10057033D01*
X14129839Y-10057033D02*
X14120315Y-10076080D01*
X14120315Y-10076080D02*
X14101267Y-10095128D01*
X14101267Y-10095128D02*
X14072696Y-10104652D01*
X14072696Y-10104652D02*
X14025077Y-10104652D01*
X14225077Y-10104652D02*
X14225077Y-9971318D01*
X14225077Y-10009414D02*
X14234601Y-9990366D01*
X14234601Y-9990366D02*
X14244124Y-9980842D01*
X14244124Y-9980842D02*
X14263172Y-9971318D01*
X14263172Y-9971318D02*
X14282220Y-9971318D01*
X14348886Y-10104652D02*
X14348886Y-9971318D01*
X14348886Y-9904652D02*
X14339362Y-9914176D01*
X14339362Y-9914176D02*
X14348886Y-9923699D01*
X14348886Y-9923699D02*
X14358410Y-9914176D01*
X14358410Y-9914176D02*
X14348886Y-9904652D01*
X14348886Y-9904652D02*
X14348886Y-9923699D01*
X14472696Y-10104652D02*
X14453648Y-10095128D01*
X14453648Y-10095128D02*
X14444124Y-10076080D01*
X14444124Y-10076080D02*
X14444124Y-9904652D01*
X14577458Y-10104652D02*
X14558410Y-10095128D01*
X14558410Y-10095128D02*
X14548886Y-10076080D01*
X14548886Y-10076080D02*
X14548886Y-9904652D01*
X14806029Y-10104652D02*
X14806029Y-9904652D01*
X14806029Y-9904652D02*
X14872696Y-10047509D01*
X14872696Y-10047509D02*
X14939362Y-9904652D01*
X14939362Y-9904652D02*
X14939362Y-10104652D01*
X15120315Y-10104652D02*
X15120315Y-9999890D01*
X15120315Y-9999890D02*
X15110791Y-9980842D01*
X15110791Y-9980842D02*
X15091743Y-9971318D01*
X15091743Y-9971318D02*
X15053648Y-9971318D01*
X15053648Y-9971318D02*
X15034601Y-9980842D01*
X15120315Y-10095128D02*
X15101267Y-10104652D01*
X15101267Y-10104652D02*
X15053648Y-10104652D01*
X15053648Y-10104652D02*
X15034601Y-10095128D01*
X15034601Y-10095128D02*
X15025077Y-10076080D01*
X15025077Y-10076080D02*
X15025077Y-10057033D01*
X15025077Y-10057033D02*
X15034601Y-10037985D01*
X15034601Y-10037985D02*
X15053648Y-10028461D01*
X15053648Y-10028461D02*
X15101267Y-10028461D01*
X15101267Y-10028461D02*
X15120315Y-10018938D01*
X15215553Y-9971318D02*
X15215553Y-10171318D01*
X15215553Y-9980842D02*
X15234601Y-9971318D01*
X15234601Y-9971318D02*
X15272696Y-9971318D01*
X15272696Y-9971318D02*
X15291743Y-9980842D01*
X15291743Y-9980842D02*
X15301267Y-9990366D01*
X15301267Y-9990366D02*
X15310791Y-10009414D01*
X15310791Y-10009414D02*
X15310791Y-10066557D01*
X15310791Y-10066557D02*
X15301267Y-10085604D01*
X15301267Y-10085604D02*
X15291743Y-10095128D01*
X15291743Y-10095128D02*
X15272696Y-10104652D01*
X15272696Y-10104652D02*
X15234601Y-10104652D01*
X15234601Y-10104652D02*
X15215553Y-10095128D01*
X15396505Y-10085604D02*
X15406029Y-10095128D01*
X15406029Y-10095128D02*
X15396505Y-10104652D01*
X15396505Y-10104652D02*
X15386982Y-10095128D01*
X15386982Y-10095128D02*
X15396505Y-10085604D01*
X15396505Y-10085604D02*
X15396505Y-10104652D01*
X15396505Y-9980842D02*
X15406029Y-9990366D01*
X15406029Y-9990366D02*
X15396505Y-9999890D01*
X15396505Y-9999890D02*
X15386982Y-9990366D01*
X15386982Y-9990366D02*
X15396505Y-9980842D01*
X15396505Y-9980842D02*
X15396505Y-9999890D01*
M02*
