%TF.GenerationSoftware,KiCad,Pcbnew,8.0.8*%
%TF.CreationDate,2025-04-02T15:42:16+05:30*%
%TF.ProjectId,STHDAQ_B1,53544844-4151-45f4-9231-2e6b69636164,rev?*%
%TF.SameCoordinates,Original*%
%TF.FileFunction,Plated,1,2,PTH,Drill*%
%TF.FilePolarity,Positive*%
%FSLAX46Y46*%
G04 Gerber Fmt 4.6, Leading zero omitted, Abs format (unit mm)*
G04 Created by KiCad (PCBNEW 8.0.8) date 2025-04-02 15:42:16*
%MOMM*%
%LPD*%
G01*
G04 APERTURE LIST*
%TA.AperFunction,ViaDrill*%
%ADD10C,0.300000*%
%TD*%
%TA.AperFunction,ViaDrill*%
%ADD11C,0.500000*%
%TD*%
%TA.AperFunction,ComponentDrill*%
%ADD12C,3.200000*%
%TD*%
G04 APERTURE END LIST*
D10*
X143256000Y-84796000D03*
X145530000Y-76454000D03*
X145545000Y-78232000D03*
X145545000Y-80010000D03*
X145796000Y-63992000D03*
X146203500Y-83662000D03*
X147358500Y-81925000D03*
X152654000Y-87376000D03*
X156972000Y-82200500D03*
X157649000Y-96092000D03*
X158750000Y-82200500D03*
X162052000Y-90537000D03*
X162814000Y-96012000D03*
X164290000Y-83790000D03*
X165180000Y-77700000D03*
D11*
X139816000Y-80772000D03*
X140970000Y-82296000D03*
X141224000Y-62992000D03*
X141224000Y-78994000D03*
X143256000Y-75946000D03*
X143256000Y-77296000D03*
X143256000Y-78546000D03*
X145288000Y-74676000D03*
X145288000Y-92964000D03*
X145641334Y-72136000D03*
X147320000Y-85344000D03*
X147574000Y-71882000D03*
X147574000Y-74422000D03*
X150368000Y-82042000D03*
X151384000Y-81026000D03*
X151892000Y-71374000D03*
X152008000Y-74422000D03*
X152146000Y-67056000D03*
X153162000Y-95250000D03*
X153416000Y-80264000D03*
X153924000Y-70104000D03*
X154240500Y-77412500D03*
X155448000Y-89408000D03*
X155455397Y-86739603D03*
X155702000Y-88138000D03*
X155956000Y-91694000D03*
X156972000Y-83925500D03*
X157238397Y-90944397D03*
X158496000Y-54304834D03*
X160782000Y-54356000D03*
X162814000Y-54356000D03*
D12*
%TO.C,H2*%
X141030000Y-54705000D03*
%TO.C,H3*%
X141030000Y-94705000D03*
%TO.C,H1*%
X168530000Y-54705000D03*
%TO.C,H4*%
X168530000Y-94705000D03*
M02*
