%TF.GenerationSoftware,KiCad,Pcbnew,8.0.8*%
%TF.CreationDate,2025-04-02T15:42:23+05:30*%
%TF.ProjectId,STHDAQ_B1,53544844-4151-45f4-9231-2e6b69636164,rev?*%
%TF.SameCoordinates,Original*%
%TF.FileFunction,AssemblyDrawing,Top*%
%FSLAX46Y46*%
G04 Gerber Fmt 4.6, Leading zero omitted, Abs format (unit mm)*
G04 Created by KiCad (PCBNEW 8.0.8) date 2025-04-02 15:42:23*
%MOMM*%
%LPD*%
G01*
G04 APERTURE LIST*
%ADD10C,0.150000*%
%ADD11C,0.060000*%
%ADD12C,0.100000*%
%ADD13C,0.127000*%
%ADD14C,0.200000*%
%ADD15C,0.025400*%
%ADD16C,0.508000*%
%ADD17C,0.203200*%
%ADD18C,0.010000*%
G04 APERTURE END LIST*
D10*
X145887167Y-71160819D02*
X145315739Y-71160819D01*
X145601453Y-71160819D02*
X145601453Y-70160819D01*
X145601453Y-70160819D02*
X145506215Y-70303676D01*
X145506215Y-70303676D02*
X145410977Y-70398914D01*
X145410977Y-70398914D02*
X145315739Y-70446533D01*
X146506215Y-70160819D02*
X146601453Y-70160819D01*
X146601453Y-70160819D02*
X146696691Y-70208438D01*
X146696691Y-70208438D02*
X146744310Y-70256057D01*
X146744310Y-70256057D02*
X146791929Y-70351295D01*
X146791929Y-70351295D02*
X146839548Y-70541771D01*
X146839548Y-70541771D02*
X146839548Y-70779866D01*
X146839548Y-70779866D02*
X146791929Y-70970342D01*
X146791929Y-70970342D02*
X146744310Y-71065580D01*
X146744310Y-71065580D02*
X146696691Y-71113200D01*
X146696691Y-71113200D02*
X146601453Y-71160819D01*
X146601453Y-71160819D02*
X146506215Y-71160819D01*
X146506215Y-71160819D02*
X146410977Y-71113200D01*
X146410977Y-71113200D02*
X146363358Y-71065580D01*
X146363358Y-71065580D02*
X146315739Y-70970342D01*
X146315739Y-70970342D02*
X146268120Y-70779866D01*
X146268120Y-70779866D02*
X146268120Y-70541771D01*
X146268120Y-70541771D02*
X146315739Y-70351295D01*
X146315739Y-70351295D02*
X146363358Y-70256057D01*
X146363358Y-70256057D02*
X146410977Y-70208438D01*
X146410977Y-70208438D02*
X146506215Y-70160819D01*
X147458596Y-70160819D02*
X147553834Y-70160819D01*
X147553834Y-70160819D02*
X147649072Y-70208438D01*
X147649072Y-70208438D02*
X147696691Y-70256057D01*
X147696691Y-70256057D02*
X147744310Y-70351295D01*
X147744310Y-70351295D02*
X147791929Y-70541771D01*
X147791929Y-70541771D02*
X147791929Y-70779866D01*
X147791929Y-70779866D02*
X147744310Y-70970342D01*
X147744310Y-70970342D02*
X147696691Y-71065580D01*
X147696691Y-71065580D02*
X147649072Y-71113200D01*
X147649072Y-71113200D02*
X147553834Y-71160819D01*
X147553834Y-71160819D02*
X147458596Y-71160819D01*
X147458596Y-71160819D02*
X147363358Y-71113200D01*
X147363358Y-71113200D02*
X147315739Y-71065580D01*
X147315739Y-71065580D02*
X147268120Y-70970342D01*
X147268120Y-70970342D02*
X147220501Y-70779866D01*
X147220501Y-70779866D02*
X147220501Y-70541771D01*
X147220501Y-70541771D02*
X147268120Y-70351295D01*
X147268120Y-70351295D02*
X147315739Y-70256057D01*
X147315739Y-70256057D02*
X147363358Y-70208438D01*
X147363358Y-70208438D02*
X147458596Y-70160819D01*
D11*
X146296691Y-72317927D02*
X146163358Y-72127451D01*
X146068120Y-72317927D02*
X146068120Y-71917927D01*
X146068120Y-71917927D02*
X146220501Y-71917927D01*
X146220501Y-71917927D02*
X146258596Y-71936975D01*
X146258596Y-71936975D02*
X146277643Y-71956022D01*
X146277643Y-71956022D02*
X146296691Y-71994118D01*
X146296691Y-71994118D02*
X146296691Y-72051260D01*
X146296691Y-72051260D02*
X146277643Y-72089356D01*
X146277643Y-72089356D02*
X146258596Y-72108403D01*
X146258596Y-72108403D02*
X146220501Y-72127451D01*
X146220501Y-72127451D02*
X146068120Y-72127451D01*
X146677643Y-72317927D02*
X146449072Y-72317927D01*
X146563358Y-72317927D02*
X146563358Y-71917927D01*
X146563358Y-71917927D02*
X146525262Y-71975070D01*
X146525262Y-71975070D02*
X146487167Y-72013165D01*
X146487167Y-72013165D02*
X146449072Y-72032213D01*
X147058595Y-72317927D02*
X146830024Y-72317927D01*
X146944310Y-72317927D02*
X146944310Y-71917927D01*
X146944310Y-71917927D02*
X146906214Y-71975070D01*
X146906214Y-71975070D02*
X146868119Y-72013165D01*
X146868119Y-72013165D02*
X146830024Y-72032213D01*
D10*
X145891333Y-73446819D02*
X145319905Y-73446819D01*
X145605619Y-73446819D02*
X145605619Y-72446819D01*
X145605619Y-72446819D02*
X145510381Y-72589676D01*
X145510381Y-72589676D02*
X145415143Y-72684914D01*
X145415143Y-72684914D02*
X145319905Y-72732533D01*
X146510381Y-72446819D02*
X146605619Y-72446819D01*
X146605619Y-72446819D02*
X146700857Y-72494438D01*
X146700857Y-72494438D02*
X146748476Y-72542057D01*
X146748476Y-72542057D02*
X146796095Y-72637295D01*
X146796095Y-72637295D02*
X146843714Y-72827771D01*
X146843714Y-72827771D02*
X146843714Y-73065866D01*
X146843714Y-73065866D02*
X146796095Y-73256342D01*
X146796095Y-73256342D02*
X146748476Y-73351580D01*
X146748476Y-73351580D02*
X146700857Y-73399200D01*
X146700857Y-73399200D02*
X146605619Y-73446819D01*
X146605619Y-73446819D02*
X146510381Y-73446819D01*
X146510381Y-73446819D02*
X146415143Y-73399200D01*
X146415143Y-73399200D02*
X146367524Y-73351580D01*
X146367524Y-73351580D02*
X146319905Y-73256342D01*
X146319905Y-73256342D02*
X146272286Y-73065866D01*
X146272286Y-73065866D02*
X146272286Y-72827771D01*
X146272286Y-72827771D02*
X146319905Y-72637295D01*
X146319905Y-72637295D02*
X146367524Y-72542057D01*
X146367524Y-72542057D02*
X146415143Y-72494438D01*
X146415143Y-72494438D02*
X146510381Y-72446819D01*
X147462762Y-72446819D02*
X147558000Y-72446819D01*
X147558000Y-72446819D02*
X147653238Y-72494438D01*
X147653238Y-72494438D02*
X147700857Y-72542057D01*
X147700857Y-72542057D02*
X147748476Y-72637295D01*
X147748476Y-72637295D02*
X147796095Y-72827771D01*
X147796095Y-72827771D02*
X147796095Y-73065866D01*
X147796095Y-73065866D02*
X147748476Y-73256342D01*
X147748476Y-73256342D02*
X147700857Y-73351580D01*
X147700857Y-73351580D02*
X147653238Y-73399200D01*
X147653238Y-73399200D02*
X147558000Y-73446819D01*
X147558000Y-73446819D02*
X147462762Y-73446819D01*
X147462762Y-73446819D02*
X147367524Y-73399200D01*
X147367524Y-73399200D02*
X147319905Y-73351580D01*
X147319905Y-73351580D02*
X147272286Y-73256342D01*
X147272286Y-73256342D02*
X147224667Y-73065866D01*
X147224667Y-73065866D02*
X147224667Y-72827771D01*
X147224667Y-72827771D02*
X147272286Y-72637295D01*
X147272286Y-72637295D02*
X147319905Y-72542057D01*
X147319905Y-72542057D02*
X147367524Y-72494438D01*
X147367524Y-72494438D02*
X147462762Y-72446819D01*
D11*
X146300857Y-74603927D02*
X146167524Y-74413451D01*
X146072286Y-74603927D02*
X146072286Y-74203927D01*
X146072286Y-74203927D02*
X146224667Y-74203927D01*
X146224667Y-74203927D02*
X146262762Y-74222975D01*
X146262762Y-74222975D02*
X146281809Y-74242022D01*
X146281809Y-74242022D02*
X146300857Y-74280118D01*
X146300857Y-74280118D02*
X146300857Y-74337260D01*
X146300857Y-74337260D02*
X146281809Y-74375356D01*
X146281809Y-74375356D02*
X146262762Y-74394403D01*
X146262762Y-74394403D02*
X146224667Y-74413451D01*
X146224667Y-74413451D02*
X146072286Y-74413451D01*
X146681809Y-74603927D02*
X146453238Y-74603927D01*
X146567524Y-74603927D02*
X146567524Y-74203927D01*
X146567524Y-74203927D02*
X146529428Y-74261070D01*
X146529428Y-74261070D02*
X146491333Y-74299165D01*
X146491333Y-74299165D02*
X146453238Y-74318213D01*
X146929428Y-74203927D02*
X146967523Y-74203927D01*
X146967523Y-74203927D02*
X147005619Y-74222975D01*
X147005619Y-74222975D02*
X147024666Y-74242022D01*
X147024666Y-74242022D02*
X147043714Y-74280118D01*
X147043714Y-74280118D02*
X147062761Y-74356308D01*
X147062761Y-74356308D02*
X147062761Y-74451546D01*
X147062761Y-74451546D02*
X147043714Y-74527737D01*
X147043714Y-74527737D02*
X147024666Y-74565832D01*
X147024666Y-74565832D02*
X147005619Y-74584880D01*
X147005619Y-74584880D02*
X146967523Y-74603927D01*
X146967523Y-74603927D02*
X146929428Y-74603927D01*
X146929428Y-74603927D02*
X146891333Y-74584880D01*
X146891333Y-74584880D02*
X146872285Y-74565832D01*
X146872285Y-74565832D02*
X146853238Y-74527737D01*
X146853238Y-74527737D02*
X146834190Y-74451546D01*
X146834190Y-74451546D02*
X146834190Y-74356308D01*
X146834190Y-74356308D02*
X146853238Y-74280118D01*
X146853238Y-74280118D02*
X146872285Y-74242022D01*
X146872285Y-74242022D02*
X146891333Y-74222975D01*
X146891333Y-74222975D02*
X146929428Y-74203927D01*
D10*
X145899665Y-68874819D02*
X145328237Y-68874819D01*
X145613951Y-68874819D02*
X145613951Y-67874819D01*
X145613951Y-67874819D02*
X145518713Y-68017676D01*
X145518713Y-68017676D02*
X145423475Y-68112914D01*
X145423475Y-68112914D02*
X145328237Y-68160533D01*
X146518713Y-67874819D02*
X146613951Y-67874819D01*
X146613951Y-67874819D02*
X146709189Y-67922438D01*
X146709189Y-67922438D02*
X146756808Y-67970057D01*
X146756808Y-67970057D02*
X146804427Y-68065295D01*
X146804427Y-68065295D02*
X146852046Y-68255771D01*
X146852046Y-68255771D02*
X146852046Y-68493866D01*
X146852046Y-68493866D02*
X146804427Y-68684342D01*
X146804427Y-68684342D02*
X146756808Y-68779580D01*
X146756808Y-68779580D02*
X146709189Y-68827200D01*
X146709189Y-68827200D02*
X146613951Y-68874819D01*
X146613951Y-68874819D02*
X146518713Y-68874819D01*
X146518713Y-68874819D02*
X146423475Y-68827200D01*
X146423475Y-68827200D02*
X146375856Y-68779580D01*
X146375856Y-68779580D02*
X146328237Y-68684342D01*
X146328237Y-68684342D02*
X146280618Y-68493866D01*
X146280618Y-68493866D02*
X146280618Y-68255771D01*
X146280618Y-68255771D02*
X146328237Y-68065295D01*
X146328237Y-68065295D02*
X146375856Y-67970057D01*
X146375856Y-67970057D02*
X146423475Y-67922438D01*
X146423475Y-67922438D02*
X146518713Y-67874819D01*
X147471094Y-67874819D02*
X147566332Y-67874819D01*
X147566332Y-67874819D02*
X147661570Y-67922438D01*
X147661570Y-67922438D02*
X147709189Y-67970057D01*
X147709189Y-67970057D02*
X147756808Y-68065295D01*
X147756808Y-68065295D02*
X147804427Y-68255771D01*
X147804427Y-68255771D02*
X147804427Y-68493866D01*
X147804427Y-68493866D02*
X147756808Y-68684342D01*
X147756808Y-68684342D02*
X147709189Y-68779580D01*
X147709189Y-68779580D02*
X147661570Y-68827200D01*
X147661570Y-68827200D02*
X147566332Y-68874819D01*
X147566332Y-68874819D02*
X147471094Y-68874819D01*
X147471094Y-68874819D02*
X147375856Y-68827200D01*
X147375856Y-68827200D02*
X147328237Y-68779580D01*
X147328237Y-68779580D02*
X147280618Y-68684342D01*
X147280618Y-68684342D02*
X147232999Y-68493866D01*
X147232999Y-68493866D02*
X147232999Y-68255771D01*
X147232999Y-68255771D02*
X147280618Y-68065295D01*
X147280618Y-68065295D02*
X147328237Y-67970057D01*
X147328237Y-67970057D02*
X147375856Y-67922438D01*
X147375856Y-67922438D02*
X147471094Y-67874819D01*
D11*
X146499665Y-70031927D02*
X146366332Y-69841451D01*
X146271094Y-70031927D02*
X146271094Y-69631927D01*
X146271094Y-69631927D02*
X146423475Y-69631927D01*
X146423475Y-69631927D02*
X146461570Y-69650975D01*
X146461570Y-69650975D02*
X146480617Y-69670022D01*
X146480617Y-69670022D02*
X146499665Y-69708118D01*
X146499665Y-69708118D02*
X146499665Y-69765260D01*
X146499665Y-69765260D02*
X146480617Y-69803356D01*
X146480617Y-69803356D02*
X146461570Y-69822403D01*
X146461570Y-69822403D02*
X146423475Y-69841451D01*
X146423475Y-69841451D02*
X146271094Y-69841451D01*
X146690141Y-70031927D02*
X146766332Y-70031927D01*
X146766332Y-70031927D02*
X146804427Y-70012880D01*
X146804427Y-70012880D02*
X146823475Y-69993832D01*
X146823475Y-69993832D02*
X146861570Y-69936689D01*
X146861570Y-69936689D02*
X146880617Y-69860499D01*
X146880617Y-69860499D02*
X146880617Y-69708118D01*
X146880617Y-69708118D02*
X146861570Y-69670022D01*
X146861570Y-69670022D02*
X146842522Y-69650975D01*
X146842522Y-69650975D02*
X146804427Y-69631927D01*
X146804427Y-69631927D02*
X146728236Y-69631927D01*
X146728236Y-69631927D02*
X146690141Y-69650975D01*
X146690141Y-69650975D02*
X146671094Y-69670022D01*
X146671094Y-69670022D02*
X146652046Y-69708118D01*
X146652046Y-69708118D02*
X146652046Y-69803356D01*
X146652046Y-69803356D02*
X146671094Y-69841451D01*
X146671094Y-69841451D02*
X146690141Y-69860499D01*
X146690141Y-69860499D02*
X146728236Y-69879546D01*
X146728236Y-69879546D02*
X146804427Y-69879546D01*
X146804427Y-69879546D02*
X146842522Y-69860499D01*
X146842522Y-69860499D02*
X146861570Y-69841451D01*
X146861570Y-69841451D02*
X146880617Y-69803356D01*
D10*
X159552819Y-83748476D02*
X159552819Y-84319904D01*
X159552819Y-84034190D02*
X158552819Y-84034190D01*
X158552819Y-84034190D02*
X158695676Y-84129428D01*
X158695676Y-84129428D02*
X158790914Y-84224666D01*
X158790914Y-84224666D02*
X158838533Y-84319904D01*
X158552819Y-83129428D02*
X158552819Y-83034190D01*
X158552819Y-83034190D02*
X158600438Y-82938952D01*
X158600438Y-82938952D02*
X158648057Y-82891333D01*
X158648057Y-82891333D02*
X158743295Y-82843714D01*
X158743295Y-82843714D02*
X158933771Y-82796095D01*
X158933771Y-82796095D02*
X159171866Y-82796095D01*
X159171866Y-82796095D02*
X159362342Y-82843714D01*
X159362342Y-82843714D02*
X159457580Y-82891333D01*
X159457580Y-82891333D02*
X159505200Y-82938952D01*
X159505200Y-82938952D02*
X159552819Y-83034190D01*
X159552819Y-83034190D02*
X159552819Y-83129428D01*
X159552819Y-83129428D02*
X159505200Y-83224666D01*
X159505200Y-83224666D02*
X159457580Y-83272285D01*
X159457580Y-83272285D02*
X159362342Y-83319904D01*
X159362342Y-83319904D02*
X159171866Y-83367523D01*
X159171866Y-83367523D02*
X158933771Y-83367523D01*
X158933771Y-83367523D02*
X158743295Y-83319904D01*
X158743295Y-83319904D02*
X158648057Y-83272285D01*
X158648057Y-83272285D02*
X158600438Y-83224666D01*
X158600438Y-83224666D02*
X158552819Y-83129428D01*
X159552819Y-82367523D02*
X158552819Y-82367523D01*
X159552819Y-81796095D02*
X158981390Y-82224666D01*
X158552819Y-81796095D02*
X159124247Y-82367523D01*
D11*
X160709927Y-83124666D02*
X160519451Y-83257999D01*
X160709927Y-83353237D02*
X160309927Y-83353237D01*
X160309927Y-83353237D02*
X160309927Y-83200856D01*
X160309927Y-83200856D02*
X160328975Y-83162761D01*
X160328975Y-83162761D02*
X160348022Y-83143714D01*
X160348022Y-83143714D02*
X160386118Y-83124666D01*
X160386118Y-83124666D02*
X160443260Y-83124666D01*
X160443260Y-83124666D02*
X160481356Y-83143714D01*
X160481356Y-83143714D02*
X160500403Y-83162761D01*
X160500403Y-83162761D02*
X160519451Y-83200856D01*
X160519451Y-83200856D02*
X160519451Y-83353237D01*
X160481356Y-82896095D02*
X160462308Y-82934190D01*
X160462308Y-82934190D02*
X160443260Y-82953237D01*
X160443260Y-82953237D02*
X160405165Y-82972285D01*
X160405165Y-82972285D02*
X160386118Y-82972285D01*
X160386118Y-82972285D02*
X160348022Y-82953237D01*
X160348022Y-82953237D02*
X160328975Y-82934190D01*
X160328975Y-82934190D02*
X160309927Y-82896095D01*
X160309927Y-82896095D02*
X160309927Y-82819904D01*
X160309927Y-82819904D02*
X160328975Y-82781809D01*
X160328975Y-82781809D02*
X160348022Y-82762761D01*
X160348022Y-82762761D02*
X160386118Y-82743714D01*
X160386118Y-82743714D02*
X160405165Y-82743714D01*
X160405165Y-82743714D02*
X160443260Y-82762761D01*
X160443260Y-82762761D02*
X160462308Y-82781809D01*
X160462308Y-82781809D02*
X160481356Y-82819904D01*
X160481356Y-82819904D02*
X160481356Y-82896095D01*
X160481356Y-82896095D02*
X160500403Y-82934190D01*
X160500403Y-82934190D02*
X160519451Y-82953237D01*
X160519451Y-82953237D02*
X160557546Y-82972285D01*
X160557546Y-82972285D02*
X160633737Y-82972285D01*
X160633737Y-82972285D02*
X160671832Y-82953237D01*
X160671832Y-82953237D02*
X160690880Y-82934190D01*
X160690880Y-82934190D02*
X160709927Y-82896095D01*
X160709927Y-82896095D02*
X160709927Y-82819904D01*
X160709927Y-82819904D02*
X160690880Y-82781809D01*
X160690880Y-82781809D02*
X160671832Y-82762761D01*
X160671832Y-82762761D02*
X160633737Y-82743714D01*
X160633737Y-82743714D02*
X160557546Y-82743714D01*
X160557546Y-82743714D02*
X160519451Y-82762761D01*
X160519451Y-82762761D02*
X160500403Y-82781809D01*
X160500403Y-82781809D02*
X160481356Y-82819904D01*
D10*
X160406819Y-90367476D02*
X160406819Y-90938904D01*
X160406819Y-90653190D02*
X159406819Y-90653190D01*
X159406819Y-90653190D02*
X159549676Y-90748428D01*
X159549676Y-90748428D02*
X159644914Y-90843666D01*
X159644914Y-90843666D02*
X159692533Y-90938904D01*
X159406819Y-89748428D02*
X159406819Y-89653190D01*
X159406819Y-89653190D02*
X159454438Y-89557952D01*
X159454438Y-89557952D02*
X159502057Y-89510333D01*
X159502057Y-89510333D02*
X159597295Y-89462714D01*
X159597295Y-89462714D02*
X159787771Y-89415095D01*
X159787771Y-89415095D02*
X160025866Y-89415095D01*
X160025866Y-89415095D02*
X160216342Y-89462714D01*
X160216342Y-89462714D02*
X160311580Y-89510333D01*
X160311580Y-89510333D02*
X160359200Y-89557952D01*
X160359200Y-89557952D02*
X160406819Y-89653190D01*
X160406819Y-89653190D02*
X160406819Y-89748428D01*
X160406819Y-89748428D02*
X160359200Y-89843666D01*
X160359200Y-89843666D02*
X160311580Y-89891285D01*
X160311580Y-89891285D02*
X160216342Y-89938904D01*
X160216342Y-89938904D02*
X160025866Y-89986523D01*
X160025866Y-89986523D02*
X159787771Y-89986523D01*
X159787771Y-89986523D02*
X159597295Y-89938904D01*
X159597295Y-89938904D02*
X159502057Y-89891285D01*
X159502057Y-89891285D02*
X159454438Y-89843666D01*
X159454438Y-89843666D02*
X159406819Y-89748428D01*
X160406819Y-88986523D02*
X159406819Y-88986523D01*
X160406819Y-88415095D02*
X159835390Y-88843666D01*
X159406819Y-88415095D02*
X159978247Y-88986523D01*
D11*
X158703927Y-89743666D02*
X158513451Y-89876999D01*
X158703927Y-89972237D02*
X158303927Y-89972237D01*
X158303927Y-89972237D02*
X158303927Y-89819856D01*
X158303927Y-89819856D02*
X158322975Y-89781761D01*
X158322975Y-89781761D02*
X158342022Y-89762714D01*
X158342022Y-89762714D02*
X158380118Y-89743666D01*
X158380118Y-89743666D02*
X158437260Y-89743666D01*
X158437260Y-89743666D02*
X158475356Y-89762714D01*
X158475356Y-89762714D02*
X158494403Y-89781761D01*
X158494403Y-89781761D02*
X158513451Y-89819856D01*
X158513451Y-89819856D02*
X158513451Y-89972237D01*
X158303927Y-89610333D02*
X158303927Y-89343666D01*
X158303927Y-89343666D02*
X158703927Y-89515095D01*
D10*
X162158819Y-90352476D02*
X162158819Y-90923904D01*
X162158819Y-90638190D02*
X161158819Y-90638190D01*
X161158819Y-90638190D02*
X161301676Y-90733428D01*
X161301676Y-90733428D02*
X161396914Y-90828666D01*
X161396914Y-90828666D02*
X161444533Y-90923904D01*
X161158819Y-89733428D02*
X161158819Y-89638190D01*
X161158819Y-89638190D02*
X161206438Y-89542952D01*
X161206438Y-89542952D02*
X161254057Y-89495333D01*
X161254057Y-89495333D02*
X161349295Y-89447714D01*
X161349295Y-89447714D02*
X161539771Y-89400095D01*
X161539771Y-89400095D02*
X161777866Y-89400095D01*
X161777866Y-89400095D02*
X161968342Y-89447714D01*
X161968342Y-89447714D02*
X162063580Y-89495333D01*
X162063580Y-89495333D02*
X162111200Y-89542952D01*
X162111200Y-89542952D02*
X162158819Y-89638190D01*
X162158819Y-89638190D02*
X162158819Y-89733428D01*
X162158819Y-89733428D02*
X162111200Y-89828666D01*
X162111200Y-89828666D02*
X162063580Y-89876285D01*
X162063580Y-89876285D02*
X161968342Y-89923904D01*
X161968342Y-89923904D02*
X161777866Y-89971523D01*
X161777866Y-89971523D02*
X161539771Y-89971523D01*
X161539771Y-89971523D02*
X161349295Y-89923904D01*
X161349295Y-89923904D02*
X161254057Y-89876285D01*
X161254057Y-89876285D02*
X161206438Y-89828666D01*
X161206438Y-89828666D02*
X161158819Y-89733428D01*
X162158819Y-88971523D02*
X161158819Y-88971523D01*
X162158819Y-88400095D02*
X161587390Y-88828666D01*
X161158819Y-88400095D02*
X161730247Y-88971523D01*
D11*
X160455927Y-89728666D02*
X160265451Y-89861999D01*
X160455927Y-89957237D02*
X160055927Y-89957237D01*
X160055927Y-89957237D02*
X160055927Y-89804856D01*
X160055927Y-89804856D02*
X160074975Y-89766761D01*
X160074975Y-89766761D02*
X160094022Y-89747714D01*
X160094022Y-89747714D02*
X160132118Y-89728666D01*
X160132118Y-89728666D02*
X160189260Y-89728666D01*
X160189260Y-89728666D02*
X160227356Y-89747714D01*
X160227356Y-89747714D02*
X160246403Y-89766761D01*
X160246403Y-89766761D02*
X160265451Y-89804856D01*
X160265451Y-89804856D02*
X160265451Y-89957237D01*
X160055927Y-89385809D02*
X160055927Y-89461999D01*
X160055927Y-89461999D02*
X160074975Y-89500095D01*
X160074975Y-89500095D02*
X160094022Y-89519142D01*
X160094022Y-89519142D02*
X160151165Y-89557237D01*
X160151165Y-89557237D02*
X160227356Y-89576285D01*
X160227356Y-89576285D02*
X160379737Y-89576285D01*
X160379737Y-89576285D02*
X160417832Y-89557237D01*
X160417832Y-89557237D02*
X160436880Y-89538190D01*
X160436880Y-89538190D02*
X160455927Y-89500095D01*
X160455927Y-89500095D02*
X160455927Y-89423904D01*
X160455927Y-89423904D02*
X160436880Y-89385809D01*
X160436880Y-89385809D02*
X160417832Y-89366761D01*
X160417832Y-89366761D02*
X160379737Y-89347714D01*
X160379737Y-89347714D02*
X160284499Y-89347714D01*
X160284499Y-89347714D02*
X160246403Y-89366761D01*
X160246403Y-89366761D02*
X160227356Y-89385809D01*
X160227356Y-89385809D02*
X160208308Y-89423904D01*
X160208308Y-89423904D02*
X160208308Y-89500095D01*
X160208308Y-89500095D02*
X160227356Y-89538190D01*
X160227356Y-89538190D02*
X160246403Y-89557237D01*
X160246403Y-89557237D02*
X160284499Y-89576285D01*
D10*
X155234819Y-55892332D02*
X155234819Y-56463760D01*
X155234819Y-56178046D02*
X154234819Y-56178046D01*
X154234819Y-56178046D02*
X154377676Y-56273284D01*
X154377676Y-56273284D02*
X154472914Y-56368522D01*
X154472914Y-56368522D02*
X154520533Y-56463760D01*
X154234819Y-55273284D02*
X154234819Y-55178046D01*
X154234819Y-55178046D02*
X154282438Y-55082808D01*
X154282438Y-55082808D02*
X154330057Y-55035189D01*
X154330057Y-55035189D02*
X154425295Y-54987570D01*
X154425295Y-54987570D02*
X154615771Y-54939951D01*
X154615771Y-54939951D02*
X154853866Y-54939951D01*
X154853866Y-54939951D02*
X155044342Y-54987570D01*
X155044342Y-54987570D02*
X155139580Y-55035189D01*
X155139580Y-55035189D02*
X155187200Y-55082808D01*
X155187200Y-55082808D02*
X155234819Y-55178046D01*
X155234819Y-55178046D02*
X155234819Y-55273284D01*
X155234819Y-55273284D02*
X155187200Y-55368522D01*
X155187200Y-55368522D02*
X155139580Y-55416141D01*
X155139580Y-55416141D02*
X155044342Y-55463760D01*
X155044342Y-55463760D02*
X154853866Y-55511379D01*
X154853866Y-55511379D02*
X154615771Y-55511379D01*
X154615771Y-55511379D02*
X154425295Y-55463760D01*
X154425295Y-55463760D02*
X154330057Y-55416141D01*
X154330057Y-55416141D02*
X154282438Y-55368522D01*
X154282438Y-55368522D02*
X154234819Y-55273284D01*
X154234819Y-54320903D02*
X154234819Y-54225665D01*
X154234819Y-54225665D02*
X154282438Y-54130427D01*
X154282438Y-54130427D02*
X154330057Y-54082808D01*
X154330057Y-54082808D02*
X154425295Y-54035189D01*
X154425295Y-54035189D02*
X154615771Y-53987570D01*
X154615771Y-53987570D02*
X154853866Y-53987570D01*
X154853866Y-53987570D02*
X155044342Y-54035189D01*
X155044342Y-54035189D02*
X155139580Y-54082808D01*
X155139580Y-54082808D02*
X155187200Y-54130427D01*
X155187200Y-54130427D02*
X155234819Y-54225665D01*
X155234819Y-54225665D02*
X155234819Y-54320903D01*
X155234819Y-54320903D02*
X155187200Y-54416141D01*
X155187200Y-54416141D02*
X155139580Y-54463760D01*
X155139580Y-54463760D02*
X155044342Y-54511379D01*
X155044342Y-54511379D02*
X154853866Y-54558998D01*
X154853866Y-54558998D02*
X154615771Y-54558998D01*
X154615771Y-54558998D02*
X154425295Y-54511379D01*
X154425295Y-54511379D02*
X154330057Y-54463760D01*
X154330057Y-54463760D02*
X154282438Y-54416141D01*
X154282438Y-54416141D02*
X154234819Y-54320903D01*
D11*
X156391927Y-55292332D02*
X156201451Y-55425665D01*
X156391927Y-55520903D02*
X155991927Y-55520903D01*
X155991927Y-55520903D02*
X155991927Y-55368522D01*
X155991927Y-55368522D02*
X156010975Y-55330427D01*
X156010975Y-55330427D02*
X156030022Y-55311380D01*
X156030022Y-55311380D02*
X156068118Y-55292332D01*
X156068118Y-55292332D02*
X156125260Y-55292332D01*
X156125260Y-55292332D02*
X156163356Y-55311380D01*
X156163356Y-55311380D02*
X156182403Y-55330427D01*
X156182403Y-55330427D02*
X156201451Y-55368522D01*
X156201451Y-55368522D02*
X156201451Y-55520903D01*
X155991927Y-54930427D02*
X155991927Y-55120903D01*
X155991927Y-55120903D02*
X156182403Y-55139951D01*
X156182403Y-55139951D02*
X156163356Y-55120903D01*
X156163356Y-55120903D02*
X156144308Y-55082808D01*
X156144308Y-55082808D02*
X156144308Y-54987570D01*
X156144308Y-54987570D02*
X156163356Y-54949475D01*
X156163356Y-54949475D02*
X156182403Y-54930427D01*
X156182403Y-54930427D02*
X156220499Y-54911380D01*
X156220499Y-54911380D02*
X156315737Y-54911380D01*
X156315737Y-54911380D02*
X156353832Y-54930427D01*
X156353832Y-54930427D02*
X156372880Y-54949475D01*
X156372880Y-54949475D02*
X156391927Y-54987570D01*
X156391927Y-54987570D02*
X156391927Y-55082808D01*
X156391927Y-55082808D02*
X156372880Y-55120903D01*
X156372880Y-55120903D02*
X156353832Y-55139951D01*
D10*
X157520819Y-55884000D02*
X157520819Y-56455428D01*
X157520819Y-56169714D02*
X156520819Y-56169714D01*
X156520819Y-56169714D02*
X156663676Y-56264952D01*
X156663676Y-56264952D02*
X156758914Y-56360190D01*
X156758914Y-56360190D02*
X156806533Y-56455428D01*
X156520819Y-55264952D02*
X156520819Y-55169714D01*
X156520819Y-55169714D02*
X156568438Y-55074476D01*
X156568438Y-55074476D02*
X156616057Y-55026857D01*
X156616057Y-55026857D02*
X156711295Y-54979238D01*
X156711295Y-54979238D02*
X156901771Y-54931619D01*
X156901771Y-54931619D02*
X157139866Y-54931619D01*
X157139866Y-54931619D02*
X157330342Y-54979238D01*
X157330342Y-54979238D02*
X157425580Y-55026857D01*
X157425580Y-55026857D02*
X157473200Y-55074476D01*
X157473200Y-55074476D02*
X157520819Y-55169714D01*
X157520819Y-55169714D02*
X157520819Y-55264952D01*
X157520819Y-55264952D02*
X157473200Y-55360190D01*
X157473200Y-55360190D02*
X157425580Y-55407809D01*
X157425580Y-55407809D02*
X157330342Y-55455428D01*
X157330342Y-55455428D02*
X157139866Y-55503047D01*
X157139866Y-55503047D02*
X156901771Y-55503047D01*
X156901771Y-55503047D02*
X156711295Y-55455428D01*
X156711295Y-55455428D02*
X156616057Y-55407809D01*
X156616057Y-55407809D02*
X156568438Y-55360190D01*
X156568438Y-55360190D02*
X156520819Y-55264952D01*
X156520819Y-54312571D02*
X156520819Y-54217333D01*
X156520819Y-54217333D02*
X156568438Y-54122095D01*
X156568438Y-54122095D02*
X156616057Y-54074476D01*
X156616057Y-54074476D02*
X156711295Y-54026857D01*
X156711295Y-54026857D02*
X156901771Y-53979238D01*
X156901771Y-53979238D02*
X157139866Y-53979238D01*
X157139866Y-53979238D02*
X157330342Y-54026857D01*
X157330342Y-54026857D02*
X157425580Y-54074476D01*
X157425580Y-54074476D02*
X157473200Y-54122095D01*
X157473200Y-54122095D02*
X157520819Y-54217333D01*
X157520819Y-54217333D02*
X157520819Y-54312571D01*
X157520819Y-54312571D02*
X157473200Y-54407809D01*
X157473200Y-54407809D02*
X157425580Y-54455428D01*
X157425580Y-54455428D02*
X157330342Y-54503047D01*
X157330342Y-54503047D02*
X157139866Y-54550666D01*
X157139866Y-54550666D02*
X156901771Y-54550666D01*
X156901771Y-54550666D02*
X156711295Y-54503047D01*
X156711295Y-54503047D02*
X156616057Y-54455428D01*
X156616057Y-54455428D02*
X156568438Y-54407809D01*
X156568438Y-54407809D02*
X156520819Y-54312571D01*
D11*
X158677927Y-55284000D02*
X158487451Y-55417333D01*
X158677927Y-55512571D02*
X158277927Y-55512571D01*
X158277927Y-55512571D02*
X158277927Y-55360190D01*
X158277927Y-55360190D02*
X158296975Y-55322095D01*
X158296975Y-55322095D02*
X158316022Y-55303048D01*
X158316022Y-55303048D02*
X158354118Y-55284000D01*
X158354118Y-55284000D02*
X158411260Y-55284000D01*
X158411260Y-55284000D02*
X158449356Y-55303048D01*
X158449356Y-55303048D02*
X158468403Y-55322095D01*
X158468403Y-55322095D02*
X158487451Y-55360190D01*
X158487451Y-55360190D02*
X158487451Y-55512571D01*
X158411260Y-54941143D02*
X158677927Y-54941143D01*
X158258880Y-55036381D02*
X158544594Y-55131619D01*
X158544594Y-55131619D02*
X158544594Y-54884000D01*
D10*
X159806819Y-55871502D02*
X159806819Y-56442930D01*
X159806819Y-56157216D02*
X158806819Y-56157216D01*
X158806819Y-56157216D02*
X158949676Y-56252454D01*
X158949676Y-56252454D02*
X159044914Y-56347692D01*
X159044914Y-56347692D02*
X159092533Y-56442930D01*
X158806819Y-55252454D02*
X158806819Y-55157216D01*
X158806819Y-55157216D02*
X158854438Y-55061978D01*
X158854438Y-55061978D02*
X158902057Y-55014359D01*
X158902057Y-55014359D02*
X158997295Y-54966740D01*
X158997295Y-54966740D02*
X159187771Y-54919121D01*
X159187771Y-54919121D02*
X159425866Y-54919121D01*
X159425866Y-54919121D02*
X159616342Y-54966740D01*
X159616342Y-54966740D02*
X159711580Y-55014359D01*
X159711580Y-55014359D02*
X159759200Y-55061978D01*
X159759200Y-55061978D02*
X159806819Y-55157216D01*
X159806819Y-55157216D02*
X159806819Y-55252454D01*
X159806819Y-55252454D02*
X159759200Y-55347692D01*
X159759200Y-55347692D02*
X159711580Y-55395311D01*
X159711580Y-55395311D02*
X159616342Y-55442930D01*
X159616342Y-55442930D02*
X159425866Y-55490549D01*
X159425866Y-55490549D02*
X159187771Y-55490549D01*
X159187771Y-55490549D02*
X158997295Y-55442930D01*
X158997295Y-55442930D02*
X158902057Y-55395311D01*
X158902057Y-55395311D02*
X158854438Y-55347692D01*
X158854438Y-55347692D02*
X158806819Y-55252454D01*
X158806819Y-54300073D02*
X158806819Y-54204835D01*
X158806819Y-54204835D02*
X158854438Y-54109597D01*
X158854438Y-54109597D02*
X158902057Y-54061978D01*
X158902057Y-54061978D02*
X158997295Y-54014359D01*
X158997295Y-54014359D02*
X159187771Y-53966740D01*
X159187771Y-53966740D02*
X159425866Y-53966740D01*
X159425866Y-53966740D02*
X159616342Y-54014359D01*
X159616342Y-54014359D02*
X159711580Y-54061978D01*
X159711580Y-54061978D02*
X159759200Y-54109597D01*
X159759200Y-54109597D02*
X159806819Y-54204835D01*
X159806819Y-54204835D02*
X159806819Y-54300073D01*
X159806819Y-54300073D02*
X159759200Y-54395311D01*
X159759200Y-54395311D02*
X159711580Y-54442930D01*
X159711580Y-54442930D02*
X159616342Y-54490549D01*
X159616342Y-54490549D02*
X159425866Y-54538168D01*
X159425866Y-54538168D02*
X159187771Y-54538168D01*
X159187771Y-54538168D02*
X158997295Y-54490549D01*
X158997295Y-54490549D02*
X158902057Y-54442930D01*
X158902057Y-54442930D02*
X158854438Y-54395311D01*
X158854438Y-54395311D02*
X158806819Y-54300073D01*
D11*
X160963927Y-55271502D02*
X160773451Y-55404835D01*
X160963927Y-55500073D02*
X160563927Y-55500073D01*
X160563927Y-55500073D02*
X160563927Y-55347692D01*
X160563927Y-55347692D02*
X160582975Y-55309597D01*
X160582975Y-55309597D02*
X160602022Y-55290550D01*
X160602022Y-55290550D02*
X160640118Y-55271502D01*
X160640118Y-55271502D02*
X160697260Y-55271502D01*
X160697260Y-55271502D02*
X160735356Y-55290550D01*
X160735356Y-55290550D02*
X160754403Y-55309597D01*
X160754403Y-55309597D02*
X160773451Y-55347692D01*
X160773451Y-55347692D02*
X160773451Y-55500073D01*
X160563927Y-55138169D02*
X160563927Y-54890550D01*
X160563927Y-54890550D02*
X160716308Y-55023883D01*
X160716308Y-55023883D02*
X160716308Y-54966740D01*
X160716308Y-54966740D02*
X160735356Y-54928645D01*
X160735356Y-54928645D02*
X160754403Y-54909597D01*
X160754403Y-54909597D02*
X160792499Y-54890550D01*
X160792499Y-54890550D02*
X160887737Y-54890550D01*
X160887737Y-54890550D02*
X160925832Y-54909597D01*
X160925832Y-54909597D02*
X160944880Y-54928645D01*
X160944880Y-54928645D02*
X160963927Y-54966740D01*
X160963927Y-54966740D02*
X160963927Y-55081026D01*
X160963927Y-55081026D02*
X160944880Y-55119121D01*
X160944880Y-55119121D02*
X160925832Y-55138169D01*
D10*
X162092819Y-55888166D02*
X162092819Y-56459594D01*
X162092819Y-56173880D02*
X161092819Y-56173880D01*
X161092819Y-56173880D02*
X161235676Y-56269118D01*
X161235676Y-56269118D02*
X161330914Y-56364356D01*
X161330914Y-56364356D02*
X161378533Y-56459594D01*
X161092819Y-55269118D02*
X161092819Y-55173880D01*
X161092819Y-55173880D02*
X161140438Y-55078642D01*
X161140438Y-55078642D02*
X161188057Y-55031023D01*
X161188057Y-55031023D02*
X161283295Y-54983404D01*
X161283295Y-54983404D02*
X161473771Y-54935785D01*
X161473771Y-54935785D02*
X161711866Y-54935785D01*
X161711866Y-54935785D02*
X161902342Y-54983404D01*
X161902342Y-54983404D02*
X161997580Y-55031023D01*
X161997580Y-55031023D02*
X162045200Y-55078642D01*
X162045200Y-55078642D02*
X162092819Y-55173880D01*
X162092819Y-55173880D02*
X162092819Y-55269118D01*
X162092819Y-55269118D02*
X162045200Y-55364356D01*
X162045200Y-55364356D02*
X161997580Y-55411975D01*
X161997580Y-55411975D02*
X161902342Y-55459594D01*
X161902342Y-55459594D02*
X161711866Y-55507213D01*
X161711866Y-55507213D02*
X161473771Y-55507213D01*
X161473771Y-55507213D02*
X161283295Y-55459594D01*
X161283295Y-55459594D02*
X161188057Y-55411975D01*
X161188057Y-55411975D02*
X161140438Y-55364356D01*
X161140438Y-55364356D02*
X161092819Y-55269118D01*
X161092819Y-54316737D02*
X161092819Y-54221499D01*
X161092819Y-54221499D02*
X161140438Y-54126261D01*
X161140438Y-54126261D02*
X161188057Y-54078642D01*
X161188057Y-54078642D02*
X161283295Y-54031023D01*
X161283295Y-54031023D02*
X161473771Y-53983404D01*
X161473771Y-53983404D02*
X161711866Y-53983404D01*
X161711866Y-53983404D02*
X161902342Y-54031023D01*
X161902342Y-54031023D02*
X161997580Y-54078642D01*
X161997580Y-54078642D02*
X162045200Y-54126261D01*
X162045200Y-54126261D02*
X162092819Y-54221499D01*
X162092819Y-54221499D02*
X162092819Y-54316737D01*
X162092819Y-54316737D02*
X162045200Y-54411975D01*
X162045200Y-54411975D02*
X161997580Y-54459594D01*
X161997580Y-54459594D02*
X161902342Y-54507213D01*
X161902342Y-54507213D02*
X161711866Y-54554832D01*
X161711866Y-54554832D02*
X161473771Y-54554832D01*
X161473771Y-54554832D02*
X161283295Y-54507213D01*
X161283295Y-54507213D02*
X161188057Y-54459594D01*
X161188057Y-54459594D02*
X161140438Y-54411975D01*
X161140438Y-54411975D02*
X161092819Y-54316737D01*
D11*
X163249927Y-55288166D02*
X163059451Y-55421499D01*
X163249927Y-55516737D02*
X162849927Y-55516737D01*
X162849927Y-55516737D02*
X162849927Y-55364356D01*
X162849927Y-55364356D02*
X162868975Y-55326261D01*
X162868975Y-55326261D02*
X162888022Y-55307214D01*
X162888022Y-55307214D02*
X162926118Y-55288166D01*
X162926118Y-55288166D02*
X162983260Y-55288166D01*
X162983260Y-55288166D02*
X163021356Y-55307214D01*
X163021356Y-55307214D02*
X163040403Y-55326261D01*
X163040403Y-55326261D02*
X163059451Y-55364356D01*
X163059451Y-55364356D02*
X163059451Y-55516737D01*
X162888022Y-55135785D02*
X162868975Y-55116737D01*
X162868975Y-55116737D02*
X162849927Y-55078642D01*
X162849927Y-55078642D02*
X162849927Y-54983404D01*
X162849927Y-54983404D02*
X162868975Y-54945309D01*
X162868975Y-54945309D02*
X162888022Y-54926261D01*
X162888022Y-54926261D02*
X162926118Y-54907214D01*
X162926118Y-54907214D02*
X162964213Y-54907214D01*
X162964213Y-54907214D02*
X163021356Y-54926261D01*
X163021356Y-54926261D02*
X163249927Y-55154833D01*
X163249927Y-55154833D02*
X163249927Y-54907214D01*
D10*
X145717023Y-84368819D02*
X145145595Y-84368819D01*
X145431309Y-84368819D02*
X145431309Y-83368819D01*
X145431309Y-83368819D02*
X145336071Y-83511676D01*
X145336071Y-83511676D02*
X145240833Y-83606914D01*
X145240833Y-83606914D02*
X145145595Y-83654533D01*
X146336071Y-83368819D02*
X146431309Y-83368819D01*
X146431309Y-83368819D02*
X146526547Y-83416438D01*
X146526547Y-83416438D02*
X146574166Y-83464057D01*
X146574166Y-83464057D02*
X146621785Y-83559295D01*
X146621785Y-83559295D02*
X146669404Y-83749771D01*
X146669404Y-83749771D02*
X146669404Y-83987866D01*
X146669404Y-83987866D02*
X146621785Y-84178342D01*
X146621785Y-84178342D02*
X146574166Y-84273580D01*
X146574166Y-84273580D02*
X146526547Y-84321200D01*
X146526547Y-84321200D02*
X146431309Y-84368819D01*
X146431309Y-84368819D02*
X146336071Y-84368819D01*
X146336071Y-84368819D02*
X146240833Y-84321200D01*
X146240833Y-84321200D02*
X146193214Y-84273580D01*
X146193214Y-84273580D02*
X146145595Y-84178342D01*
X146145595Y-84178342D02*
X146097976Y-83987866D01*
X146097976Y-83987866D02*
X146097976Y-83749771D01*
X146097976Y-83749771D02*
X146145595Y-83559295D01*
X146145595Y-83559295D02*
X146193214Y-83464057D01*
X146193214Y-83464057D02*
X146240833Y-83416438D01*
X146240833Y-83416438D02*
X146336071Y-83368819D01*
X147097976Y-84368819D02*
X147097976Y-83368819D01*
X147669404Y-84368819D02*
X147240833Y-83797390D01*
X147669404Y-83368819D02*
X147097976Y-83940247D01*
D11*
X146340833Y-85525927D02*
X146207500Y-85335451D01*
X146112262Y-85525927D02*
X146112262Y-85125927D01*
X146112262Y-85125927D02*
X146264643Y-85125927D01*
X146264643Y-85125927D02*
X146302738Y-85144975D01*
X146302738Y-85144975D02*
X146321785Y-85164022D01*
X146321785Y-85164022D02*
X146340833Y-85202118D01*
X146340833Y-85202118D02*
X146340833Y-85259260D01*
X146340833Y-85259260D02*
X146321785Y-85297356D01*
X146321785Y-85297356D02*
X146302738Y-85316403D01*
X146302738Y-85316403D02*
X146264643Y-85335451D01*
X146264643Y-85335451D02*
X146112262Y-85335451D01*
X146721785Y-85525927D02*
X146493214Y-85525927D01*
X146607500Y-85525927D02*
X146607500Y-85125927D01*
X146607500Y-85125927D02*
X146569404Y-85183070D01*
X146569404Y-85183070D02*
X146531309Y-85221165D01*
X146531309Y-85221165D02*
X146493214Y-85240213D01*
D10*
X149931523Y-85450819D02*
X149360095Y-85450819D01*
X149645809Y-85450819D02*
X149645809Y-84450819D01*
X149645809Y-84450819D02*
X149550571Y-84593676D01*
X149550571Y-84593676D02*
X149455333Y-84688914D01*
X149455333Y-84688914D02*
X149360095Y-84736533D01*
X150788666Y-84784152D02*
X150788666Y-85450819D01*
X150360095Y-84784152D02*
X150360095Y-85307961D01*
X150360095Y-85307961D02*
X150407714Y-85403200D01*
X150407714Y-85403200D02*
X150502952Y-85450819D01*
X150502952Y-85450819D02*
X150645809Y-85450819D01*
X150645809Y-85450819D02*
X150741047Y-85403200D01*
X150741047Y-85403200D02*
X150788666Y-85355580D01*
X151264857Y-85450819D02*
X151264857Y-84450819D01*
X151264857Y-84927009D02*
X151836285Y-84927009D01*
X151836285Y-85450819D02*
X151836285Y-84450819D01*
D11*
X150555333Y-83747927D02*
X150364857Y-83747927D01*
X150364857Y-83747927D02*
X150364857Y-83347927D01*
X150898190Y-83747927D02*
X150669619Y-83747927D01*
X150783905Y-83747927D02*
X150783905Y-83347927D01*
X150783905Y-83347927D02*
X150745809Y-83405070D01*
X150745809Y-83405070D02*
X150707714Y-83443165D01*
X150707714Y-83443165D02*
X150669619Y-83462213D01*
D10*
X163936819Y-90304857D02*
X163936819Y-90781047D01*
X163936819Y-90781047D02*
X162936819Y-90781047D01*
X163413009Y-89971523D02*
X163413009Y-89638190D01*
X163936819Y-89495333D02*
X163936819Y-89971523D01*
X163936819Y-89971523D02*
X162936819Y-89971523D01*
X162936819Y-89971523D02*
X162936819Y-89495333D01*
X163936819Y-89066761D02*
X162936819Y-89066761D01*
X162936819Y-89066761D02*
X162936819Y-88828666D01*
X162936819Y-88828666D02*
X162984438Y-88685809D01*
X162984438Y-88685809D02*
X163079676Y-88590571D01*
X163079676Y-88590571D02*
X163174914Y-88542952D01*
X163174914Y-88542952D02*
X163365390Y-88495333D01*
X163365390Y-88495333D02*
X163508247Y-88495333D01*
X163508247Y-88495333D02*
X163698723Y-88542952D01*
X163698723Y-88542952D02*
X163793961Y-88590571D01*
X163793961Y-88590571D02*
X163889200Y-88685809D01*
X163889200Y-88685809D02*
X163936819Y-88828666D01*
X163936819Y-88828666D02*
X163936819Y-89066761D01*
D11*
X162233927Y-89957237D02*
X161833927Y-89957237D01*
X161833927Y-89957237D02*
X161833927Y-89861999D01*
X161833927Y-89861999D02*
X161852975Y-89804856D01*
X161852975Y-89804856D02*
X161891070Y-89766761D01*
X161891070Y-89766761D02*
X161929165Y-89747714D01*
X161929165Y-89747714D02*
X162005356Y-89728666D01*
X162005356Y-89728666D02*
X162062499Y-89728666D01*
X162062499Y-89728666D02*
X162138689Y-89747714D01*
X162138689Y-89747714D02*
X162176784Y-89766761D01*
X162176784Y-89766761D02*
X162214880Y-89804856D01*
X162214880Y-89804856D02*
X162233927Y-89861999D01*
X162233927Y-89861999D02*
X162233927Y-89957237D01*
X161833927Y-89366761D02*
X161833927Y-89557237D01*
X161833927Y-89557237D02*
X162024403Y-89576285D01*
X162024403Y-89576285D02*
X162005356Y-89557237D01*
X162005356Y-89557237D02*
X161986308Y-89519142D01*
X161986308Y-89519142D02*
X161986308Y-89423904D01*
X161986308Y-89423904D02*
X162005356Y-89385809D01*
X162005356Y-89385809D02*
X162024403Y-89366761D01*
X162024403Y-89366761D02*
X162062499Y-89347714D01*
X162062499Y-89347714D02*
X162157737Y-89347714D01*
X162157737Y-89347714D02*
X162195832Y-89366761D01*
X162195832Y-89366761D02*
X162214880Y-89385809D01*
X162214880Y-89385809D02*
X162233927Y-89423904D01*
X162233927Y-89423904D02*
X162233927Y-89519142D01*
X162233927Y-89519142D02*
X162214880Y-89557237D01*
X162214880Y-89557237D02*
X162195832Y-89576285D01*
D10*
X150653904Y-93070819D02*
X150082476Y-93070819D01*
X150368190Y-93070819D02*
X150368190Y-92070819D01*
X150368190Y-92070819D02*
X150272952Y-92213676D01*
X150272952Y-92213676D02*
X150177714Y-92308914D01*
X150177714Y-92308914D02*
X150082476Y-92356533D01*
X151272952Y-92070819D02*
X151368190Y-92070819D01*
X151368190Y-92070819D02*
X151463428Y-92118438D01*
X151463428Y-92118438D02*
X151511047Y-92166057D01*
X151511047Y-92166057D02*
X151558666Y-92261295D01*
X151558666Y-92261295D02*
X151606285Y-92451771D01*
X151606285Y-92451771D02*
X151606285Y-92689866D01*
X151606285Y-92689866D02*
X151558666Y-92880342D01*
X151558666Y-92880342D02*
X151511047Y-92975580D01*
X151511047Y-92975580D02*
X151463428Y-93023200D01*
X151463428Y-93023200D02*
X151368190Y-93070819D01*
X151368190Y-93070819D02*
X151272952Y-93070819D01*
X151272952Y-93070819D02*
X151177714Y-93023200D01*
X151177714Y-93023200D02*
X151130095Y-92975580D01*
X151130095Y-92975580D02*
X151082476Y-92880342D01*
X151082476Y-92880342D02*
X151034857Y-92689866D01*
X151034857Y-92689866D02*
X151034857Y-92451771D01*
X151034857Y-92451771D02*
X151082476Y-92261295D01*
X151082476Y-92261295D02*
X151130095Y-92166057D01*
X151130095Y-92166057D02*
X151177714Y-92118438D01*
X151177714Y-92118438D02*
X151272952Y-92070819D01*
X152225333Y-92070819D02*
X152320571Y-92070819D01*
X152320571Y-92070819D02*
X152415809Y-92118438D01*
X152415809Y-92118438D02*
X152463428Y-92166057D01*
X152463428Y-92166057D02*
X152511047Y-92261295D01*
X152511047Y-92261295D02*
X152558666Y-92451771D01*
X152558666Y-92451771D02*
X152558666Y-92689866D01*
X152558666Y-92689866D02*
X152511047Y-92880342D01*
X152511047Y-92880342D02*
X152463428Y-92975580D01*
X152463428Y-92975580D02*
X152415809Y-93023200D01*
X152415809Y-93023200D02*
X152320571Y-93070819D01*
X152320571Y-93070819D02*
X152225333Y-93070819D01*
X152225333Y-93070819D02*
X152130095Y-93023200D01*
X152130095Y-93023200D02*
X152082476Y-92975580D01*
X152082476Y-92975580D02*
X152034857Y-92880342D01*
X152034857Y-92880342D02*
X151987238Y-92689866D01*
X151987238Y-92689866D02*
X151987238Y-92451771D01*
X151987238Y-92451771D02*
X152034857Y-92261295D01*
X152034857Y-92261295D02*
X152082476Y-92166057D01*
X152082476Y-92166057D02*
X152130095Y-92118438D01*
X152130095Y-92118438D02*
X152225333Y-92070819D01*
X152939619Y-93070819D02*
X153701523Y-92070819D01*
X153082476Y-92070819D02*
X153177714Y-92118438D01*
X153177714Y-92118438D02*
X153225333Y-92213676D01*
X153225333Y-92213676D02*
X153177714Y-92308914D01*
X153177714Y-92308914D02*
X153082476Y-92356533D01*
X153082476Y-92356533D02*
X152987238Y-92308914D01*
X152987238Y-92308914D02*
X152939619Y-92213676D01*
X152939619Y-92213676D02*
X152987238Y-92118438D01*
X152987238Y-92118438D02*
X153082476Y-92070819D01*
X153653904Y-93023200D02*
X153701523Y-92927961D01*
X153701523Y-92927961D02*
X153653904Y-92832723D01*
X153653904Y-92832723D02*
X153558666Y-92785104D01*
X153558666Y-92785104D02*
X153463428Y-92832723D01*
X153463428Y-92832723D02*
X153415809Y-92927961D01*
X153415809Y-92927961D02*
X153463428Y-93023200D01*
X153463428Y-93023200D02*
X153558666Y-93070819D01*
X153558666Y-93070819D02*
X153653904Y-93023200D01*
D11*
X151596762Y-91367927D02*
X151596762Y-90967927D01*
X151596762Y-90967927D02*
X151692000Y-90967927D01*
X151692000Y-90967927D02*
X151749143Y-90986975D01*
X151749143Y-90986975D02*
X151787238Y-91025070D01*
X151787238Y-91025070D02*
X151806285Y-91063165D01*
X151806285Y-91063165D02*
X151825333Y-91139356D01*
X151825333Y-91139356D02*
X151825333Y-91196499D01*
X151825333Y-91196499D02*
X151806285Y-91272689D01*
X151806285Y-91272689D02*
X151787238Y-91310784D01*
X151787238Y-91310784D02*
X151749143Y-91348880D01*
X151749143Y-91348880D02*
X151692000Y-91367927D01*
X151692000Y-91367927D02*
X151596762Y-91367927D01*
X152168190Y-91101260D02*
X152168190Y-91367927D01*
X152072952Y-90948880D02*
X151977714Y-91234594D01*
X151977714Y-91234594D02*
X152225333Y-91234594D01*
D10*
X146701048Y-92070819D02*
X147367714Y-92070819D01*
X147367714Y-92070819D02*
X146939143Y-93070819D01*
X148224857Y-92070819D02*
X147748667Y-92070819D01*
X147748667Y-92070819D02*
X147701048Y-92547009D01*
X147701048Y-92547009D02*
X147748667Y-92499390D01*
X147748667Y-92499390D02*
X147843905Y-92451771D01*
X147843905Y-92451771D02*
X148082000Y-92451771D01*
X148082000Y-92451771D02*
X148177238Y-92499390D01*
X148177238Y-92499390D02*
X148224857Y-92547009D01*
X148224857Y-92547009D02*
X148272476Y-92642247D01*
X148272476Y-92642247D02*
X148272476Y-92880342D01*
X148272476Y-92880342D02*
X148224857Y-92975580D01*
X148224857Y-92975580D02*
X148177238Y-93023200D01*
X148177238Y-93023200D02*
X148082000Y-93070819D01*
X148082000Y-93070819D02*
X147843905Y-93070819D01*
X147843905Y-93070819D02*
X147748667Y-93023200D01*
X147748667Y-93023200D02*
X147701048Y-92975580D01*
X148653429Y-93070819D02*
X149415333Y-92070819D01*
X148796286Y-92070819D02*
X148891524Y-92118438D01*
X148891524Y-92118438D02*
X148939143Y-92213676D01*
X148939143Y-92213676D02*
X148891524Y-92308914D01*
X148891524Y-92308914D02*
X148796286Y-92356533D01*
X148796286Y-92356533D02*
X148701048Y-92308914D01*
X148701048Y-92308914D02*
X148653429Y-92213676D01*
X148653429Y-92213676D02*
X148701048Y-92118438D01*
X148701048Y-92118438D02*
X148796286Y-92070819D01*
X149367714Y-93023200D02*
X149415333Y-92927961D01*
X149415333Y-92927961D02*
X149367714Y-92832723D01*
X149367714Y-92832723D02*
X149272476Y-92785104D01*
X149272476Y-92785104D02*
X149177238Y-92832723D01*
X149177238Y-92832723D02*
X149129619Y-92927961D01*
X149129619Y-92927961D02*
X149177238Y-93023200D01*
X149177238Y-93023200D02*
X149272476Y-93070819D01*
X149272476Y-93070819D02*
X149367714Y-93023200D01*
D11*
X147786762Y-91367927D02*
X147786762Y-90967927D01*
X147786762Y-90967927D02*
X147882000Y-90967927D01*
X147882000Y-90967927D02*
X147939143Y-90986975D01*
X147939143Y-90986975D02*
X147977238Y-91025070D01*
X147977238Y-91025070D02*
X147996285Y-91063165D01*
X147996285Y-91063165D02*
X148015333Y-91139356D01*
X148015333Y-91139356D02*
X148015333Y-91196499D01*
X148015333Y-91196499D02*
X147996285Y-91272689D01*
X147996285Y-91272689D02*
X147977238Y-91310784D01*
X147977238Y-91310784D02*
X147939143Y-91348880D01*
X147939143Y-91348880D02*
X147882000Y-91367927D01*
X147882000Y-91367927D02*
X147786762Y-91367927D01*
X148148666Y-90967927D02*
X148396285Y-90967927D01*
X148396285Y-90967927D02*
X148262952Y-91120308D01*
X148262952Y-91120308D02*
X148320095Y-91120308D01*
X148320095Y-91120308D02*
X148358190Y-91139356D01*
X148358190Y-91139356D02*
X148377238Y-91158403D01*
X148377238Y-91158403D02*
X148396285Y-91196499D01*
X148396285Y-91196499D02*
X148396285Y-91291737D01*
X148396285Y-91291737D02*
X148377238Y-91329832D01*
X148377238Y-91329832D02*
X148358190Y-91348880D01*
X148358190Y-91348880D02*
X148320095Y-91367927D01*
X148320095Y-91367927D02*
X148205809Y-91367927D01*
X148205809Y-91367927D02*
X148167714Y-91348880D01*
X148167714Y-91348880D02*
X148148666Y-91329832D01*
D10*
X143566819Y-88947523D02*
X143566819Y-89423713D01*
X143566819Y-89423713D02*
X144043009Y-89471332D01*
X144043009Y-89471332D02*
X143995390Y-89423713D01*
X143995390Y-89423713D02*
X143947771Y-89328475D01*
X143947771Y-89328475D02*
X143947771Y-89090380D01*
X143947771Y-89090380D02*
X143995390Y-88995142D01*
X143995390Y-88995142D02*
X144043009Y-88947523D01*
X144043009Y-88947523D02*
X144138247Y-88899904D01*
X144138247Y-88899904D02*
X144376342Y-88899904D01*
X144376342Y-88899904D02*
X144471580Y-88947523D01*
X144471580Y-88947523D02*
X144519200Y-88995142D01*
X144519200Y-88995142D02*
X144566819Y-89090380D01*
X144566819Y-89090380D02*
X144566819Y-89328475D01*
X144566819Y-89328475D02*
X144519200Y-89423713D01*
X144519200Y-89423713D02*
X144471580Y-89471332D01*
X143566819Y-88280856D02*
X143566819Y-88185618D01*
X143566819Y-88185618D02*
X143614438Y-88090380D01*
X143614438Y-88090380D02*
X143662057Y-88042761D01*
X143662057Y-88042761D02*
X143757295Y-87995142D01*
X143757295Y-87995142D02*
X143947771Y-87947523D01*
X143947771Y-87947523D02*
X144185866Y-87947523D01*
X144185866Y-87947523D02*
X144376342Y-87995142D01*
X144376342Y-87995142D02*
X144471580Y-88042761D01*
X144471580Y-88042761D02*
X144519200Y-88090380D01*
X144519200Y-88090380D02*
X144566819Y-88185618D01*
X144566819Y-88185618D02*
X144566819Y-88280856D01*
X144566819Y-88280856D02*
X144519200Y-88376094D01*
X144519200Y-88376094D02*
X144471580Y-88423713D01*
X144471580Y-88423713D02*
X144376342Y-88471332D01*
X144376342Y-88471332D02*
X144185866Y-88518951D01*
X144185866Y-88518951D02*
X143947771Y-88518951D01*
X143947771Y-88518951D02*
X143757295Y-88471332D01*
X143757295Y-88471332D02*
X143662057Y-88423713D01*
X143662057Y-88423713D02*
X143614438Y-88376094D01*
X143614438Y-88376094D02*
X143566819Y-88280856D01*
X144566819Y-87566570D02*
X143566819Y-86804666D01*
X143566819Y-87423713D02*
X143614438Y-87328475D01*
X143614438Y-87328475D02*
X143709676Y-87280856D01*
X143709676Y-87280856D02*
X143804914Y-87328475D01*
X143804914Y-87328475D02*
X143852533Y-87423713D01*
X143852533Y-87423713D02*
X143804914Y-87518951D01*
X143804914Y-87518951D02*
X143709676Y-87566570D01*
X143709676Y-87566570D02*
X143614438Y-87518951D01*
X143614438Y-87518951D02*
X143566819Y-87423713D01*
X144519200Y-86852285D02*
X144423961Y-86804666D01*
X144423961Y-86804666D02*
X144328723Y-86852285D01*
X144328723Y-86852285D02*
X144281104Y-86947523D01*
X144281104Y-86947523D02*
X144328723Y-87042761D01*
X144328723Y-87042761D02*
X144423961Y-87090380D01*
X144423961Y-87090380D02*
X144519200Y-87042761D01*
X144519200Y-87042761D02*
X144566819Y-86947523D01*
X144566819Y-86947523D02*
X144519200Y-86852285D01*
D11*
X145723927Y-88433237D02*
X145323927Y-88433237D01*
X145323927Y-88433237D02*
X145323927Y-88337999D01*
X145323927Y-88337999D02*
X145342975Y-88280856D01*
X145342975Y-88280856D02*
X145381070Y-88242761D01*
X145381070Y-88242761D02*
X145419165Y-88223714D01*
X145419165Y-88223714D02*
X145495356Y-88204666D01*
X145495356Y-88204666D02*
X145552499Y-88204666D01*
X145552499Y-88204666D02*
X145628689Y-88223714D01*
X145628689Y-88223714D02*
X145666784Y-88242761D01*
X145666784Y-88242761D02*
X145704880Y-88280856D01*
X145704880Y-88280856D02*
X145723927Y-88337999D01*
X145723927Y-88337999D02*
X145723927Y-88433237D01*
X145362022Y-88052285D02*
X145342975Y-88033237D01*
X145342975Y-88033237D02*
X145323927Y-87995142D01*
X145323927Y-87995142D02*
X145323927Y-87899904D01*
X145323927Y-87899904D02*
X145342975Y-87861809D01*
X145342975Y-87861809D02*
X145362022Y-87842761D01*
X145362022Y-87842761D02*
X145400118Y-87823714D01*
X145400118Y-87823714D02*
X145438213Y-87823714D01*
X145438213Y-87823714D02*
X145495356Y-87842761D01*
X145495356Y-87842761D02*
X145723927Y-88071333D01*
X145723927Y-88071333D02*
X145723927Y-87823714D01*
D10*
X148300057Y-89471332D02*
X148252438Y-89423713D01*
X148252438Y-89423713D02*
X148204819Y-89328475D01*
X148204819Y-89328475D02*
X148204819Y-89090380D01*
X148204819Y-89090380D02*
X148252438Y-88995142D01*
X148252438Y-88995142D02*
X148300057Y-88947523D01*
X148300057Y-88947523D02*
X148395295Y-88899904D01*
X148395295Y-88899904D02*
X148490533Y-88899904D01*
X148490533Y-88899904D02*
X148633390Y-88947523D01*
X148633390Y-88947523D02*
X149204819Y-89518951D01*
X149204819Y-89518951D02*
X149204819Y-88899904D01*
X148204819Y-87995142D02*
X148204819Y-88471332D01*
X148204819Y-88471332D02*
X148681009Y-88518951D01*
X148681009Y-88518951D02*
X148633390Y-88471332D01*
X148633390Y-88471332D02*
X148585771Y-88376094D01*
X148585771Y-88376094D02*
X148585771Y-88137999D01*
X148585771Y-88137999D02*
X148633390Y-88042761D01*
X148633390Y-88042761D02*
X148681009Y-87995142D01*
X148681009Y-87995142D02*
X148776247Y-87947523D01*
X148776247Y-87947523D02*
X149014342Y-87947523D01*
X149014342Y-87947523D02*
X149109580Y-87995142D01*
X149109580Y-87995142D02*
X149157200Y-88042761D01*
X149157200Y-88042761D02*
X149204819Y-88137999D01*
X149204819Y-88137999D02*
X149204819Y-88376094D01*
X149204819Y-88376094D02*
X149157200Y-88471332D01*
X149157200Y-88471332D02*
X149109580Y-88518951D01*
X149204819Y-87566570D02*
X148204819Y-86804666D01*
X148204819Y-87423713D02*
X148252438Y-87328475D01*
X148252438Y-87328475D02*
X148347676Y-87280856D01*
X148347676Y-87280856D02*
X148442914Y-87328475D01*
X148442914Y-87328475D02*
X148490533Y-87423713D01*
X148490533Y-87423713D02*
X148442914Y-87518951D01*
X148442914Y-87518951D02*
X148347676Y-87566570D01*
X148347676Y-87566570D02*
X148252438Y-87518951D01*
X148252438Y-87518951D02*
X148204819Y-87423713D01*
X149157200Y-86852285D02*
X149061961Y-86804666D01*
X149061961Y-86804666D02*
X148966723Y-86852285D01*
X148966723Y-86852285D02*
X148919104Y-86947523D01*
X148919104Y-86947523D02*
X148966723Y-87042761D01*
X148966723Y-87042761D02*
X149061961Y-87090380D01*
X149061961Y-87090380D02*
X149157200Y-87042761D01*
X149157200Y-87042761D02*
X149204819Y-86947523D01*
X149204819Y-86947523D02*
X149157200Y-86852285D01*
D11*
X147501927Y-88433237D02*
X147101927Y-88433237D01*
X147101927Y-88433237D02*
X147101927Y-88337999D01*
X147101927Y-88337999D02*
X147120975Y-88280856D01*
X147120975Y-88280856D02*
X147159070Y-88242761D01*
X147159070Y-88242761D02*
X147197165Y-88223714D01*
X147197165Y-88223714D02*
X147273356Y-88204666D01*
X147273356Y-88204666D02*
X147330499Y-88204666D01*
X147330499Y-88204666D02*
X147406689Y-88223714D01*
X147406689Y-88223714D02*
X147444784Y-88242761D01*
X147444784Y-88242761D02*
X147482880Y-88280856D01*
X147482880Y-88280856D02*
X147501927Y-88337999D01*
X147501927Y-88337999D02*
X147501927Y-88433237D01*
X147501927Y-87823714D02*
X147501927Y-88052285D01*
X147501927Y-87937999D02*
X147101927Y-87937999D01*
X147101927Y-87937999D02*
X147159070Y-87976095D01*
X147159070Y-87976095D02*
X147197165Y-88014190D01*
X147197165Y-88014190D02*
X147216213Y-88052285D01*
D10*
X160634819Y-83705857D02*
X160634819Y-84277285D01*
X160634819Y-83991571D02*
X159634819Y-83991571D01*
X159634819Y-83991571D02*
X159777676Y-84086809D01*
X159777676Y-84086809D02*
X159872914Y-84182047D01*
X159872914Y-84182047D02*
X159920533Y-84277285D01*
X159634819Y-83086809D02*
X159634819Y-82991571D01*
X159634819Y-82991571D02*
X159682438Y-82896333D01*
X159682438Y-82896333D02*
X159730057Y-82848714D01*
X159730057Y-82848714D02*
X159825295Y-82801095D01*
X159825295Y-82801095D02*
X160015771Y-82753476D01*
X160015771Y-82753476D02*
X160253866Y-82753476D01*
X160253866Y-82753476D02*
X160444342Y-82801095D01*
X160444342Y-82801095D02*
X160539580Y-82848714D01*
X160539580Y-82848714D02*
X160587200Y-82896333D01*
X160587200Y-82896333D02*
X160634819Y-82991571D01*
X160634819Y-82991571D02*
X160634819Y-83086809D01*
X160634819Y-83086809D02*
X160587200Y-83182047D01*
X160587200Y-83182047D02*
X160539580Y-83229666D01*
X160539580Y-83229666D02*
X160444342Y-83277285D01*
X160444342Y-83277285D02*
X160253866Y-83324904D01*
X160253866Y-83324904D02*
X160015771Y-83324904D01*
X160015771Y-83324904D02*
X159825295Y-83277285D01*
X159825295Y-83277285D02*
X159730057Y-83229666D01*
X159730057Y-83229666D02*
X159682438Y-83182047D01*
X159682438Y-83182047D02*
X159634819Y-83086809D01*
X159968152Y-81896333D02*
X160634819Y-81896333D01*
X159968152Y-82324904D02*
X160491961Y-82324904D01*
X160491961Y-82324904D02*
X160587200Y-82277285D01*
X160587200Y-82277285D02*
X160634819Y-82182047D01*
X160634819Y-82182047D02*
X160634819Y-82039190D01*
X160634819Y-82039190D02*
X160587200Y-81943952D01*
X160587200Y-81943952D02*
X160539580Y-81896333D01*
D11*
X158893832Y-83129666D02*
X158912880Y-83148714D01*
X158912880Y-83148714D02*
X158931927Y-83205856D01*
X158931927Y-83205856D02*
X158931927Y-83243952D01*
X158931927Y-83243952D02*
X158912880Y-83301095D01*
X158912880Y-83301095D02*
X158874784Y-83339190D01*
X158874784Y-83339190D02*
X158836689Y-83358237D01*
X158836689Y-83358237D02*
X158760499Y-83377285D01*
X158760499Y-83377285D02*
X158703356Y-83377285D01*
X158703356Y-83377285D02*
X158627165Y-83358237D01*
X158627165Y-83358237D02*
X158589070Y-83339190D01*
X158589070Y-83339190D02*
X158550975Y-83301095D01*
X158550975Y-83301095D02*
X158531927Y-83243952D01*
X158531927Y-83243952D02*
X158531927Y-83205856D01*
X158531927Y-83205856D02*
X158550975Y-83148714D01*
X158550975Y-83148714D02*
X158570022Y-83129666D01*
X158531927Y-82996333D02*
X158531927Y-82729666D01*
X158531927Y-82729666D02*
X158931927Y-82901095D01*
D10*
X145193214Y-76352057D02*
X145240833Y-76304438D01*
X145240833Y-76304438D02*
X145336071Y-76256819D01*
X145336071Y-76256819D02*
X145574166Y-76256819D01*
X145574166Y-76256819D02*
X145669404Y-76304438D01*
X145669404Y-76304438D02*
X145717023Y-76352057D01*
X145717023Y-76352057D02*
X145764642Y-76447295D01*
X145764642Y-76447295D02*
X145764642Y-76542533D01*
X145764642Y-76542533D02*
X145717023Y-76685390D01*
X145717023Y-76685390D02*
X145145595Y-77256819D01*
X145145595Y-77256819D02*
X145764642Y-77256819D01*
X146145595Y-76352057D02*
X146193214Y-76304438D01*
X146193214Y-76304438D02*
X146288452Y-76256819D01*
X146288452Y-76256819D02*
X146526547Y-76256819D01*
X146526547Y-76256819D02*
X146621785Y-76304438D01*
X146621785Y-76304438D02*
X146669404Y-76352057D01*
X146669404Y-76352057D02*
X146717023Y-76447295D01*
X146717023Y-76447295D02*
X146717023Y-76542533D01*
X146717023Y-76542533D02*
X146669404Y-76685390D01*
X146669404Y-76685390D02*
X146097976Y-77256819D01*
X146097976Y-77256819D02*
X146717023Y-77256819D01*
X147574166Y-76590152D02*
X147574166Y-77256819D01*
X147145595Y-76590152D02*
X147145595Y-77113961D01*
X147145595Y-77113961D02*
X147193214Y-77209200D01*
X147193214Y-77209200D02*
X147288452Y-77256819D01*
X147288452Y-77256819D02*
X147431309Y-77256819D01*
X147431309Y-77256819D02*
X147526547Y-77209200D01*
X147526547Y-77209200D02*
X147574166Y-77161580D01*
D11*
X146340833Y-78375832D02*
X146321785Y-78394880D01*
X146321785Y-78394880D02*
X146264643Y-78413927D01*
X146264643Y-78413927D02*
X146226547Y-78413927D01*
X146226547Y-78413927D02*
X146169404Y-78394880D01*
X146169404Y-78394880D02*
X146131309Y-78356784D01*
X146131309Y-78356784D02*
X146112262Y-78318689D01*
X146112262Y-78318689D02*
X146093214Y-78242499D01*
X146093214Y-78242499D02*
X146093214Y-78185356D01*
X146093214Y-78185356D02*
X146112262Y-78109165D01*
X146112262Y-78109165D02*
X146131309Y-78071070D01*
X146131309Y-78071070D02*
X146169404Y-78032975D01*
X146169404Y-78032975D02*
X146226547Y-78013927D01*
X146226547Y-78013927D02*
X146264643Y-78013927D01*
X146264643Y-78013927D02*
X146321785Y-78032975D01*
X146321785Y-78032975D02*
X146340833Y-78052022D01*
X146683690Y-78013927D02*
X146607500Y-78013927D01*
X146607500Y-78013927D02*
X146569404Y-78032975D01*
X146569404Y-78032975D02*
X146550357Y-78052022D01*
X146550357Y-78052022D02*
X146512262Y-78109165D01*
X146512262Y-78109165D02*
X146493214Y-78185356D01*
X146493214Y-78185356D02*
X146493214Y-78337737D01*
X146493214Y-78337737D02*
X146512262Y-78375832D01*
X146512262Y-78375832D02*
X146531309Y-78394880D01*
X146531309Y-78394880D02*
X146569404Y-78413927D01*
X146569404Y-78413927D02*
X146645595Y-78413927D01*
X146645595Y-78413927D02*
X146683690Y-78394880D01*
X146683690Y-78394880D02*
X146702738Y-78375832D01*
X146702738Y-78375832D02*
X146721785Y-78337737D01*
X146721785Y-78337737D02*
X146721785Y-78242499D01*
X146721785Y-78242499D02*
X146702738Y-78204403D01*
X146702738Y-78204403D02*
X146683690Y-78185356D01*
X146683690Y-78185356D02*
X146645595Y-78166308D01*
X146645595Y-78166308D02*
X146569404Y-78166308D01*
X146569404Y-78166308D02*
X146531309Y-78185356D01*
X146531309Y-78185356D02*
X146512262Y-78204403D01*
X146512262Y-78204403D02*
X146493214Y-78242499D01*
D10*
X158856819Y-83705857D02*
X158856819Y-84277285D01*
X158856819Y-83991571D02*
X157856819Y-83991571D01*
X157856819Y-83991571D02*
X157999676Y-84086809D01*
X157999676Y-84086809D02*
X158094914Y-84182047D01*
X158094914Y-84182047D02*
X158142533Y-84277285D01*
X157856819Y-83086809D02*
X157856819Y-82991571D01*
X157856819Y-82991571D02*
X157904438Y-82896333D01*
X157904438Y-82896333D02*
X157952057Y-82848714D01*
X157952057Y-82848714D02*
X158047295Y-82801095D01*
X158047295Y-82801095D02*
X158237771Y-82753476D01*
X158237771Y-82753476D02*
X158475866Y-82753476D01*
X158475866Y-82753476D02*
X158666342Y-82801095D01*
X158666342Y-82801095D02*
X158761580Y-82848714D01*
X158761580Y-82848714D02*
X158809200Y-82896333D01*
X158809200Y-82896333D02*
X158856819Y-82991571D01*
X158856819Y-82991571D02*
X158856819Y-83086809D01*
X158856819Y-83086809D02*
X158809200Y-83182047D01*
X158809200Y-83182047D02*
X158761580Y-83229666D01*
X158761580Y-83229666D02*
X158666342Y-83277285D01*
X158666342Y-83277285D02*
X158475866Y-83324904D01*
X158475866Y-83324904D02*
X158237771Y-83324904D01*
X158237771Y-83324904D02*
X158047295Y-83277285D01*
X158047295Y-83277285D02*
X157952057Y-83229666D01*
X157952057Y-83229666D02*
X157904438Y-83182047D01*
X157904438Y-83182047D02*
X157856819Y-83086809D01*
X158190152Y-81896333D02*
X158856819Y-81896333D01*
X158190152Y-82324904D02*
X158713961Y-82324904D01*
X158713961Y-82324904D02*
X158809200Y-82277285D01*
X158809200Y-82277285D02*
X158856819Y-82182047D01*
X158856819Y-82182047D02*
X158856819Y-82039190D01*
X158856819Y-82039190D02*
X158809200Y-81943952D01*
X158809200Y-81943952D02*
X158761580Y-81896333D01*
D11*
X157115832Y-83129666D02*
X157134880Y-83148714D01*
X157134880Y-83148714D02*
X157153927Y-83205856D01*
X157153927Y-83205856D02*
X157153927Y-83243952D01*
X157153927Y-83243952D02*
X157134880Y-83301095D01*
X157134880Y-83301095D02*
X157096784Y-83339190D01*
X157096784Y-83339190D02*
X157058689Y-83358237D01*
X157058689Y-83358237D02*
X156982499Y-83377285D01*
X156982499Y-83377285D02*
X156925356Y-83377285D01*
X156925356Y-83377285D02*
X156849165Y-83358237D01*
X156849165Y-83358237D02*
X156811070Y-83339190D01*
X156811070Y-83339190D02*
X156772975Y-83301095D01*
X156772975Y-83301095D02*
X156753927Y-83243952D01*
X156753927Y-83243952D02*
X156753927Y-83205856D01*
X156753927Y-83205856D02*
X156772975Y-83148714D01*
X156772975Y-83148714D02*
X156792022Y-83129666D01*
X156753927Y-82767761D02*
X156753927Y-82958237D01*
X156753927Y-82958237D02*
X156944403Y-82977285D01*
X156944403Y-82977285D02*
X156925356Y-82958237D01*
X156925356Y-82958237D02*
X156906308Y-82920142D01*
X156906308Y-82920142D02*
X156906308Y-82824904D01*
X156906308Y-82824904D02*
X156925356Y-82786809D01*
X156925356Y-82786809D02*
X156944403Y-82767761D01*
X156944403Y-82767761D02*
X156982499Y-82748714D01*
X156982499Y-82748714D02*
X157077737Y-82748714D01*
X157077737Y-82748714D02*
X157115832Y-82767761D01*
X157115832Y-82767761D02*
X157134880Y-82786809D01*
X157134880Y-82786809D02*
X157153927Y-82824904D01*
X157153927Y-82824904D02*
X157153927Y-82920142D01*
X157153927Y-82920142D02*
X157134880Y-82958237D01*
X157134880Y-82958237D02*
X157115832Y-82977285D01*
D10*
X145178214Y-74574057D02*
X145225833Y-74526438D01*
X145225833Y-74526438D02*
X145321071Y-74478819D01*
X145321071Y-74478819D02*
X145559166Y-74478819D01*
X145559166Y-74478819D02*
X145654404Y-74526438D01*
X145654404Y-74526438D02*
X145702023Y-74574057D01*
X145702023Y-74574057D02*
X145749642Y-74669295D01*
X145749642Y-74669295D02*
X145749642Y-74764533D01*
X145749642Y-74764533D02*
X145702023Y-74907390D01*
X145702023Y-74907390D02*
X145130595Y-75478819D01*
X145130595Y-75478819D02*
X145749642Y-75478819D01*
X146130595Y-74574057D02*
X146178214Y-74526438D01*
X146178214Y-74526438D02*
X146273452Y-74478819D01*
X146273452Y-74478819D02*
X146511547Y-74478819D01*
X146511547Y-74478819D02*
X146606785Y-74526438D01*
X146606785Y-74526438D02*
X146654404Y-74574057D01*
X146654404Y-74574057D02*
X146702023Y-74669295D01*
X146702023Y-74669295D02*
X146702023Y-74764533D01*
X146702023Y-74764533D02*
X146654404Y-74907390D01*
X146654404Y-74907390D02*
X146082976Y-75478819D01*
X146082976Y-75478819D02*
X146702023Y-75478819D01*
X147559166Y-74812152D02*
X147559166Y-75478819D01*
X147130595Y-74812152D02*
X147130595Y-75335961D01*
X147130595Y-75335961D02*
X147178214Y-75431200D01*
X147178214Y-75431200D02*
X147273452Y-75478819D01*
X147273452Y-75478819D02*
X147416309Y-75478819D01*
X147416309Y-75478819D02*
X147511547Y-75431200D01*
X147511547Y-75431200D02*
X147559166Y-75383580D01*
D11*
X146325833Y-76597832D02*
X146306785Y-76616880D01*
X146306785Y-76616880D02*
X146249643Y-76635927D01*
X146249643Y-76635927D02*
X146211547Y-76635927D01*
X146211547Y-76635927D02*
X146154404Y-76616880D01*
X146154404Y-76616880D02*
X146116309Y-76578784D01*
X146116309Y-76578784D02*
X146097262Y-76540689D01*
X146097262Y-76540689D02*
X146078214Y-76464499D01*
X146078214Y-76464499D02*
X146078214Y-76407356D01*
X146078214Y-76407356D02*
X146097262Y-76331165D01*
X146097262Y-76331165D02*
X146116309Y-76293070D01*
X146116309Y-76293070D02*
X146154404Y-76254975D01*
X146154404Y-76254975D02*
X146211547Y-76235927D01*
X146211547Y-76235927D02*
X146249643Y-76235927D01*
X146249643Y-76235927D02*
X146306785Y-76254975D01*
X146306785Y-76254975D02*
X146325833Y-76274022D01*
X146668690Y-76369260D02*
X146668690Y-76635927D01*
X146573452Y-76216880D02*
X146478214Y-76502594D01*
X146478214Y-76502594D02*
X146725833Y-76502594D01*
D10*
X145193214Y-78130057D02*
X145240833Y-78082438D01*
X145240833Y-78082438D02*
X145336071Y-78034819D01*
X145336071Y-78034819D02*
X145574166Y-78034819D01*
X145574166Y-78034819D02*
X145669404Y-78082438D01*
X145669404Y-78082438D02*
X145717023Y-78130057D01*
X145717023Y-78130057D02*
X145764642Y-78225295D01*
X145764642Y-78225295D02*
X145764642Y-78320533D01*
X145764642Y-78320533D02*
X145717023Y-78463390D01*
X145717023Y-78463390D02*
X145145595Y-79034819D01*
X145145595Y-79034819D02*
X145764642Y-79034819D01*
X146145595Y-78130057D02*
X146193214Y-78082438D01*
X146193214Y-78082438D02*
X146288452Y-78034819D01*
X146288452Y-78034819D02*
X146526547Y-78034819D01*
X146526547Y-78034819D02*
X146621785Y-78082438D01*
X146621785Y-78082438D02*
X146669404Y-78130057D01*
X146669404Y-78130057D02*
X146717023Y-78225295D01*
X146717023Y-78225295D02*
X146717023Y-78320533D01*
X146717023Y-78320533D02*
X146669404Y-78463390D01*
X146669404Y-78463390D02*
X146097976Y-79034819D01*
X146097976Y-79034819D02*
X146717023Y-79034819D01*
X147574166Y-78368152D02*
X147574166Y-79034819D01*
X147145595Y-78368152D02*
X147145595Y-78891961D01*
X147145595Y-78891961D02*
X147193214Y-78987200D01*
X147193214Y-78987200D02*
X147288452Y-79034819D01*
X147288452Y-79034819D02*
X147431309Y-79034819D01*
X147431309Y-79034819D02*
X147526547Y-78987200D01*
X147526547Y-78987200D02*
X147574166Y-78939580D01*
D11*
X146340833Y-80153832D02*
X146321785Y-80172880D01*
X146321785Y-80172880D02*
X146264643Y-80191927D01*
X146264643Y-80191927D02*
X146226547Y-80191927D01*
X146226547Y-80191927D02*
X146169404Y-80172880D01*
X146169404Y-80172880D02*
X146131309Y-80134784D01*
X146131309Y-80134784D02*
X146112262Y-80096689D01*
X146112262Y-80096689D02*
X146093214Y-80020499D01*
X146093214Y-80020499D02*
X146093214Y-79963356D01*
X146093214Y-79963356D02*
X146112262Y-79887165D01*
X146112262Y-79887165D02*
X146131309Y-79849070D01*
X146131309Y-79849070D02*
X146169404Y-79810975D01*
X146169404Y-79810975D02*
X146226547Y-79791927D01*
X146226547Y-79791927D02*
X146264643Y-79791927D01*
X146264643Y-79791927D02*
X146321785Y-79810975D01*
X146321785Y-79810975D02*
X146340833Y-79830022D01*
X146474166Y-79791927D02*
X146721785Y-79791927D01*
X146721785Y-79791927D02*
X146588452Y-79944308D01*
X146588452Y-79944308D02*
X146645595Y-79944308D01*
X146645595Y-79944308D02*
X146683690Y-79963356D01*
X146683690Y-79963356D02*
X146702738Y-79982403D01*
X146702738Y-79982403D02*
X146721785Y-80020499D01*
X146721785Y-80020499D02*
X146721785Y-80115737D01*
X146721785Y-80115737D02*
X146702738Y-80153832D01*
X146702738Y-80153832D02*
X146683690Y-80172880D01*
X146683690Y-80172880D02*
X146645595Y-80191927D01*
X146645595Y-80191927D02*
X146531309Y-80191927D01*
X146531309Y-80191927D02*
X146493214Y-80172880D01*
X146493214Y-80172880D02*
X146474166Y-80153832D01*
D10*
X146423142Y-82686819D02*
X145851714Y-82686819D01*
X146137428Y-82686819D02*
X146137428Y-81686819D01*
X146137428Y-81686819D02*
X146042190Y-81829676D01*
X146042190Y-81829676D02*
X145946952Y-81924914D01*
X145946952Y-81924914D02*
X145851714Y-81972533D01*
X147042190Y-81686819D02*
X147137428Y-81686819D01*
X147137428Y-81686819D02*
X147232666Y-81734438D01*
X147232666Y-81734438D02*
X147280285Y-81782057D01*
X147280285Y-81782057D02*
X147327904Y-81877295D01*
X147327904Y-81877295D02*
X147375523Y-82067771D01*
X147375523Y-82067771D02*
X147375523Y-82305866D01*
X147375523Y-82305866D02*
X147327904Y-82496342D01*
X147327904Y-82496342D02*
X147280285Y-82591580D01*
X147280285Y-82591580D02*
X147232666Y-82639200D01*
X147232666Y-82639200D02*
X147137428Y-82686819D01*
X147137428Y-82686819D02*
X147042190Y-82686819D01*
X147042190Y-82686819D02*
X146946952Y-82639200D01*
X146946952Y-82639200D02*
X146899333Y-82591580D01*
X146899333Y-82591580D02*
X146851714Y-82496342D01*
X146851714Y-82496342D02*
X146804095Y-82305866D01*
X146804095Y-82305866D02*
X146804095Y-82067771D01*
X146804095Y-82067771D02*
X146851714Y-81877295D01*
X146851714Y-81877295D02*
X146899333Y-81782057D01*
X146899333Y-81782057D02*
X146946952Y-81734438D01*
X146946952Y-81734438D02*
X147042190Y-81686819D01*
X148232666Y-82020152D02*
X148232666Y-82686819D01*
X147804095Y-82020152D02*
X147804095Y-82543961D01*
X147804095Y-82543961D02*
X147851714Y-82639200D01*
X147851714Y-82639200D02*
X147946952Y-82686819D01*
X147946952Y-82686819D02*
X148089809Y-82686819D01*
X148089809Y-82686819D02*
X148185047Y-82639200D01*
X148185047Y-82639200D02*
X148232666Y-82591580D01*
D11*
X146999333Y-83805832D02*
X146980285Y-83824880D01*
X146980285Y-83824880D02*
X146923143Y-83843927D01*
X146923143Y-83843927D02*
X146885047Y-83843927D01*
X146885047Y-83843927D02*
X146827904Y-83824880D01*
X146827904Y-83824880D02*
X146789809Y-83786784D01*
X146789809Y-83786784D02*
X146770762Y-83748689D01*
X146770762Y-83748689D02*
X146751714Y-83672499D01*
X146751714Y-83672499D02*
X146751714Y-83615356D01*
X146751714Y-83615356D02*
X146770762Y-83539165D01*
X146770762Y-83539165D02*
X146789809Y-83501070D01*
X146789809Y-83501070D02*
X146827904Y-83462975D01*
X146827904Y-83462975D02*
X146885047Y-83443927D01*
X146885047Y-83443927D02*
X146923143Y-83443927D01*
X146923143Y-83443927D02*
X146980285Y-83462975D01*
X146980285Y-83462975D02*
X146999333Y-83482022D01*
X147151714Y-83482022D02*
X147170762Y-83462975D01*
X147170762Y-83462975D02*
X147208857Y-83443927D01*
X147208857Y-83443927D02*
X147304095Y-83443927D01*
X147304095Y-83443927D02*
X147342190Y-83462975D01*
X147342190Y-83462975D02*
X147361238Y-83482022D01*
X147361238Y-83482022D02*
X147380285Y-83520118D01*
X147380285Y-83520118D02*
X147380285Y-83558213D01*
X147380285Y-83558213D02*
X147361238Y-83615356D01*
X147361238Y-83615356D02*
X147132666Y-83843927D01*
X147132666Y-83843927D02*
X147380285Y-83843927D01*
D10*
X145853142Y-83819819D02*
X145281714Y-83819819D01*
X145567428Y-83819819D02*
X145567428Y-82819819D01*
X145567428Y-82819819D02*
X145472190Y-82962676D01*
X145472190Y-82962676D02*
X145376952Y-83057914D01*
X145376952Y-83057914D02*
X145281714Y-83105533D01*
X146472190Y-82819819D02*
X146567428Y-82819819D01*
X146567428Y-82819819D02*
X146662666Y-82867438D01*
X146662666Y-82867438D02*
X146710285Y-82915057D01*
X146710285Y-82915057D02*
X146757904Y-83010295D01*
X146757904Y-83010295D02*
X146805523Y-83200771D01*
X146805523Y-83200771D02*
X146805523Y-83438866D01*
X146805523Y-83438866D02*
X146757904Y-83629342D01*
X146757904Y-83629342D02*
X146710285Y-83724580D01*
X146710285Y-83724580D02*
X146662666Y-83772200D01*
X146662666Y-83772200D02*
X146567428Y-83819819D01*
X146567428Y-83819819D02*
X146472190Y-83819819D01*
X146472190Y-83819819D02*
X146376952Y-83772200D01*
X146376952Y-83772200D02*
X146329333Y-83724580D01*
X146329333Y-83724580D02*
X146281714Y-83629342D01*
X146281714Y-83629342D02*
X146234095Y-83438866D01*
X146234095Y-83438866D02*
X146234095Y-83200771D01*
X146234095Y-83200771D02*
X146281714Y-83010295D01*
X146281714Y-83010295D02*
X146329333Y-82915057D01*
X146329333Y-82915057D02*
X146376952Y-82867438D01*
X146376952Y-82867438D02*
X146472190Y-82819819D01*
X147662666Y-83153152D02*
X147662666Y-83819819D01*
X147234095Y-83153152D02*
X147234095Y-83676961D01*
X147234095Y-83676961D02*
X147281714Y-83772200D01*
X147281714Y-83772200D02*
X147376952Y-83819819D01*
X147376952Y-83819819D02*
X147519809Y-83819819D01*
X147519809Y-83819819D02*
X147615047Y-83772200D01*
X147615047Y-83772200D02*
X147662666Y-83724580D01*
D11*
X146429333Y-82078832D02*
X146410285Y-82097880D01*
X146410285Y-82097880D02*
X146353143Y-82116927D01*
X146353143Y-82116927D02*
X146315047Y-82116927D01*
X146315047Y-82116927D02*
X146257904Y-82097880D01*
X146257904Y-82097880D02*
X146219809Y-82059784D01*
X146219809Y-82059784D02*
X146200762Y-82021689D01*
X146200762Y-82021689D02*
X146181714Y-81945499D01*
X146181714Y-81945499D02*
X146181714Y-81888356D01*
X146181714Y-81888356D02*
X146200762Y-81812165D01*
X146200762Y-81812165D02*
X146219809Y-81774070D01*
X146219809Y-81774070D02*
X146257904Y-81735975D01*
X146257904Y-81735975D02*
X146315047Y-81716927D01*
X146315047Y-81716927D02*
X146353143Y-81716927D01*
X146353143Y-81716927D02*
X146410285Y-81735975D01*
X146410285Y-81735975D02*
X146429333Y-81755022D01*
X146810285Y-82116927D02*
X146581714Y-82116927D01*
X146696000Y-82116927D02*
X146696000Y-81716927D01*
X146696000Y-81716927D02*
X146657904Y-81774070D01*
X146657904Y-81774070D02*
X146619809Y-81812165D01*
X146619809Y-81812165D02*
X146581714Y-81831213D01*
D10*
X148160319Y-73846309D02*
X148160319Y-74417737D01*
X148160319Y-74132023D02*
X147160319Y-74132023D01*
X147160319Y-74132023D02*
X147303176Y-74227261D01*
X147303176Y-74227261D02*
X147398414Y-74322499D01*
X147398414Y-74322499D02*
X147446033Y-74417737D01*
X147160319Y-73227261D02*
X147160319Y-73132023D01*
X147160319Y-73132023D02*
X147207938Y-73036785D01*
X147207938Y-73036785D02*
X147255557Y-72989166D01*
X147255557Y-72989166D02*
X147350795Y-72941547D01*
X147350795Y-72941547D02*
X147541271Y-72893928D01*
X147541271Y-72893928D02*
X147779366Y-72893928D01*
X147779366Y-72893928D02*
X147969842Y-72941547D01*
X147969842Y-72941547D02*
X148065080Y-72989166D01*
X148065080Y-72989166D02*
X148112700Y-73036785D01*
X148112700Y-73036785D02*
X148160319Y-73132023D01*
X148160319Y-73132023D02*
X148160319Y-73227261D01*
X148160319Y-73227261D02*
X148112700Y-73322499D01*
X148112700Y-73322499D02*
X148065080Y-73370118D01*
X148065080Y-73370118D02*
X147969842Y-73417737D01*
X147969842Y-73417737D02*
X147779366Y-73465356D01*
X147779366Y-73465356D02*
X147541271Y-73465356D01*
X147541271Y-73465356D02*
X147350795Y-73417737D01*
X147350795Y-73417737D02*
X147255557Y-73370118D01*
X147255557Y-73370118D02*
X147207938Y-73322499D01*
X147207938Y-73322499D02*
X147160319Y-73227261D01*
X147255557Y-72512975D02*
X147207938Y-72465356D01*
X147207938Y-72465356D02*
X147160319Y-72370118D01*
X147160319Y-72370118D02*
X147160319Y-72132023D01*
X147160319Y-72132023D02*
X147207938Y-72036785D01*
X147207938Y-72036785D02*
X147255557Y-71989166D01*
X147255557Y-71989166D02*
X147350795Y-71941547D01*
X147350795Y-71941547D02*
X147446033Y-71941547D01*
X147446033Y-71941547D02*
X147588890Y-71989166D01*
X147588890Y-71989166D02*
X148160319Y-72560594D01*
X148160319Y-72560594D02*
X148160319Y-71941547D01*
X147160319Y-71322499D02*
X147160319Y-71227261D01*
X147160319Y-71227261D02*
X147207938Y-71132023D01*
X147207938Y-71132023D02*
X147255557Y-71084404D01*
X147255557Y-71084404D02*
X147350795Y-71036785D01*
X147350795Y-71036785D02*
X147541271Y-70989166D01*
X147541271Y-70989166D02*
X147779366Y-70989166D01*
X147779366Y-70989166D02*
X147969842Y-71036785D01*
X147969842Y-71036785D02*
X148065080Y-71084404D01*
X148065080Y-71084404D02*
X148112700Y-71132023D01*
X148112700Y-71132023D02*
X148160319Y-71227261D01*
X148160319Y-71227261D02*
X148160319Y-71322499D01*
X148160319Y-71322499D02*
X148112700Y-71417737D01*
X148112700Y-71417737D02*
X148065080Y-71465356D01*
X148065080Y-71465356D02*
X147969842Y-71512975D01*
X147969842Y-71512975D02*
X147779366Y-71560594D01*
X147779366Y-71560594D02*
X147541271Y-71560594D01*
X147541271Y-71560594D02*
X147350795Y-71512975D01*
X147350795Y-71512975D02*
X147255557Y-71465356D01*
X147255557Y-71465356D02*
X147207938Y-71417737D01*
X147207938Y-71417737D02*
X147160319Y-71322499D01*
X148160319Y-70036785D02*
X148160319Y-70608213D01*
X148160319Y-70322499D02*
X147160319Y-70322499D01*
X147160319Y-70322499D02*
X147303176Y-70417737D01*
X147303176Y-70417737D02*
X147398414Y-70512975D01*
X147398414Y-70512975D02*
X147446033Y-70608213D01*
X147160319Y-69417737D02*
X147160319Y-69322499D01*
X147160319Y-69322499D02*
X147207938Y-69227261D01*
X147207938Y-69227261D02*
X147255557Y-69179642D01*
X147255557Y-69179642D02*
X147350795Y-69132023D01*
X147350795Y-69132023D02*
X147541271Y-69084404D01*
X147541271Y-69084404D02*
X147779366Y-69084404D01*
X147779366Y-69084404D02*
X147969842Y-69132023D01*
X147969842Y-69132023D02*
X148065080Y-69179642D01*
X148065080Y-69179642D02*
X148112700Y-69227261D01*
X148112700Y-69227261D02*
X148160319Y-69322499D01*
X148160319Y-69322499D02*
X148160319Y-69417737D01*
X148160319Y-69417737D02*
X148112700Y-69512975D01*
X148112700Y-69512975D02*
X148065080Y-69560594D01*
X148065080Y-69560594D02*
X147969842Y-69608213D01*
X147969842Y-69608213D02*
X147779366Y-69655832D01*
X147779366Y-69655832D02*
X147541271Y-69655832D01*
X147541271Y-69655832D02*
X147350795Y-69608213D01*
X147350795Y-69608213D02*
X147255557Y-69560594D01*
X147255557Y-69560594D02*
X147207938Y-69512975D01*
X147207938Y-69512975D02*
X147160319Y-69417737D01*
X147493652Y-68227261D02*
X148160319Y-68227261D01*
X147112700Y-68465356D02*
X147826985Y-68703451D01*
X147826985Y-68703451D02*
X147826985Y-68084404D01*
X147493652Y-67274880D02*
X148160319Y-67274880D01*
X147112700Y-67512975D02*
X147826985Y-67751070D01*
X147826985Y-67751070D02*
X147826985Y-67132023D01*
X147588890Y-66608213D02*
X147541271Y-66703451D01*
X147541271Y-66703451D02*
X147493652Y-66751070D01*
X147493652Y-66751070D02*
X147398414Y-66798689D01*
X147398414Y-66798689D02*
X147350795Y-66798689D01*
X147350795Y-66798689D02*
X147255557Y-66751070D01*
X147255557Y-66751070D02*
X147207938Y-66703451D01*
X147207938Y-66703451D02*
X147160319Y-66608213D01*
X147160319Y-66608213D02*
X147160319Y-66417737D01*
X147160319Y-66417737D02*
X147207938Y-66322499D01*
X147207938Y-66322499D02*
X147255557Y-66274880D01*
X147255557Y-66274880D02*
X147350795Y-66227261D01*
X147350795Y-66227261D02*
X147398414Y-66227261D01*
X147398414Y-66227261D02*
X147493652Y-66274880D01*
X147493652Y-66274880D02*
X147541271Y-66322499D01*
X147541271Y-66322499D02*
X147588890Y-66417737D01*
X147588890Y-66417737D02*
X147588890Y-66608213D01*
X147588890Y-66608213D02*
X147636509Y-66703451D01*
X147636509Y-66703451D02*
X147684128Y-66751070D01*
X147684128Y-66751070D02*
X147779366Y-66798689D01*
X147779366Y-66798689D02*
X147969842Y-66798689D01*
X147969842Y-66798689D02*
X148065080Y-66751070D01*
X148065080Y-66751070D02*
X148112700Y-66703451D01*
X148112700Y-66703451D02*
X148160319Y-66608213D01*
X148160319Y-66608213D02*
X148160319Y-66417737D01*
X148160319Y-66417737D02*
X148112700Y-66322499D01*
X148112700Y-66322499D02*
X148065080Y-66274880D01*
X148065080Y-66274880D02*
X147969842Y-66227261D01*
X147969842Y-66227261D02*
X147779366Y-66227261D01*
X147779366Y-66227261D02*
X147684128Y-66274880D01*
X147684128Y-66274880D02*
X147636509Y-66322499D01*
X147636509Y-66322499D02*
X147588890Y-66417737D01*
X167768095Y-55159819D02*
X167768095Y-54159819D01*
X167768095Y-54636009D02*
X168339523Y-54636009D01*
X168339523Y-55159819D02*
X168339523Y-54159819D01*
X169339523Y-55159819D02*
X168768095Y-55159819D01*
X169053809Y-55159819D02*
X169053809Y-54159819D01*
X169053809Y-54159819D02*
X168958571Y-54302676D01*
X168958571Y-54302676D02*
X168863333Y-54397914D01*
X168863333Y-54397914D02*
X168768095Y-54445533D01*
X140268095Y-55159819D02*
X140268095Y-54159819D01*
X140268095Y-54636009D02*
X140839523Y-54636009D01*
X140839523Y-55159819D02*
X140839523Y-54159819D01*
X141268095Y-54255057D02*
X141315714Y-54207438D01*
X141315714Y-54207438D02*
X141410952Y-54159819D01*
X141410952Y-54159819D02*
X141649047Y-54159819D01*
X141649047Y-54159819D02*
X141744285Y-54207438D01*
X141744285Y-54207438D02*
X141791904Y-54255057D01*
X141791904Y-54255057D02*
X141839523Y-54350295D01*
X141839523Y-54350295D02*
X141839523Y-54445533D01*
X141839523Y-54445533D02*
X141791904Y-54588390D01*
X141791904Y-54588390D02*
X141220476Y-55159819D01*
X141220476Y-55159819D02*
X141839523Y-55159819D01*
X142710819Y-83992428D02*
X142710819Y-84468618D01*
X142710819Y-84468618D02*
X143187009Y-84516237D01*
X143187009Y-84516237D02*
X143139390Y-84468618D01*
X143139390Y-84468618D02*
X143091771Y-84373380D01*
X143091771Y-84373380D02*
X143091771Y-84135285D01*
X143091771Y-84135285D02*
X143139390Y-84040047D01*
X143139390Y-84040047D02*
X143187009Y-83992428D01*
X143187009Y-83992428D02*
X143282247Y-83944809D01*
X143282247Y-83944809D02*
X143520342Y-83944809D01*
X143520342Y-83944809D02*
X143615580Y-83992428D01*
X143615580Y-83992428D02*
X143663200Y-84040047D01*
X143663200Y-84040047D02*
X143710819Y-84135285D01*
X143710819Y-84135285D02*
X143710819Y-84373380D01*
X143710819Y-84373380D02*
X143663200Y-84468618D01*
X143663200Y-84468618D02*
X143615580Y-84516237D01*
X142710819Y-83611475D02*
X142710819Y-82992428D01*
X142710819Y-82992428D02*
X143091771Y-83325761D01*
X143091771Y-83325761D02*
X143091771Y-83182904D01*
X143091771Y-83182904D02*
X143139390Y-83087666D01*
X143139390Y-83087666D02*
X143187009Y-83040047D01*
X143187009Y-83040047D02*
X143282247Y-82992428D01*
X143282247Y-82992428D02*
X143520342Y-82992428D01*
X143520342Y-82992428D02*
X143615580Y-83040047D01*
X143615580Y-83040047D02*
X143663200Y-83087666D01*
X143663200Y-83087666D02*
X143710819Y-83182904D01*
X143710819Y-83182904D02*
X143710819Y-83468618D01*
X143710819Y-83468618D02*
X143663200Y-83563856D01*
X143663200Y-83563856D02*
X143615580Y-83611475D01*
X142806057Y-82611475D02*
X142758438Y-82563856D01*
X142758438Y-82563856D02*
X142710819Y-82468618D01*
X142710819Y-82468618D02*
X142710819Y-82230523D01*
X142710819Y-82230523D02*
X142758438Y-82135285D01*
X142758438Y-82135285D02*
X142806057Y-82087666D01*
X142806057Y-82087666D02*
X142901295Y-82040047D01*
X142901295Y-82040047D02*
X142996533Y-82040047D01*
X142996533Y-82040047D02*
X143139390Y-82087666D01*
X143139390Y-82087666D02*
X143710819Y-82659094D01*
X143710819Y-82659094D02*
X143710819Y-82040047D01*
X142710819Y-81182904D02*
X142710819Y-81373380D01*
X142710819Y-81373380D02*
X142758438Y-81468618D01*
X142758438Y-81468618D02*
X142806057Y-81516237D01*
X142806057Y-81516237D02*
X142948914Y-81611475D01*
X142948914Y-81611475D02*
X143139390Y-81659094D01*
X143139390Y-81659094D02*
X143520342Y-81659094D01*
X143520342Y-81659094D02*
X143615580Y-81611475D01*
X143615580Y-81611475D02*
X143663200Y-81563856D01*
X143663200Y-81563856D02*
X143710819Y-81468618D01*
X143710819Y-81468618D02*
X143710819Y-81278142D01*
X143710819Y-81278142D02*
X143663200Y-81182904D01*
X143663200Y-81182904D02*
X143615580Y-81135285D01*
X143615580Y-81135285D02*
X143520342Y-81087666D01*
X143520342Y-81087666D02*
X143282247Y-81087666D01*
X143282247Y-81087666D02*
X143187009Y-81135285D01*
X143187009Y-81135285D02*
X143139390Y-81182904D01*
X143139390Y-81182904D02*
X143091771Y-81278142D01*
X143091771Y-81278142D02*
X143091771Y-81468618D01*
X143091771Y-81468618D02*
X143139390Y-81563856D01*
X143139390Y-81563856D02*
X143187009Y-81611475D01*
X143187009Y-81611475D02*
X143282247Y-81659094D01*
X143710819Y-80135285D02*
X143710819Y-80706713D01*
X143710819Y-80420999D02*
X142710819Y-80420999D01*
X142710819Y-80420999D02*
X142853676Y-80516237D01*
X142853676Y-80516237D02*
X142948914Y-80611475D01*
X142948914Y-80611475D02*
X142996533Y-80706713D01*
X143710819Y-79182904D02*
X143710819Y-79754332D01*
X143710819Y-79468618D02*
X142710819Y-79468618D01*
X142710819Y-79468618D02*
X142853676Y-79563856D01*
X142853676Y-79563856D02*
X142948914Y-79659094D01*
X142948914Y-79659094D02*
X142996533Y-79754332D01*
X142710819Y-78563856D02*
X142710819Y-78468618D01*
X142710819Y-78468618D02*
X142758438Y-78373380D01*
X142758438Y-78373380D02*
X142806057Y-78325761D01*
X142806057Y-78325761D02*
X142901295Y-78278142D01*
X142901295Y-78278142D02*
X143091771Y-78230523D01*
X143091771Y-78230523D02*
X143329866Y-78230523D01*
X143329866Y-78230523D02*
X143520342Y-78278142D01*
X143520342Y-78278142D02*
X143615580Y-78325761D01*
X143615580Y-78325761D02*
X143663200Y-78373380D01*
X143663200Y-78373380D02*
X143710819Y-78468618D01*
X143710819Y-78468618D02*
X143710819Y-78563856D01*
X143710819Y-78563856D02*
X143663200Y-78659094D01*
X143663200Y-78659094D02*
X143615580Y-78706713D01*
X143615580Y-78706713D02*
X143520342Y-78754332D01*
X143520342Y-78754332D02*
X143329866Y-78801951D01*
X143329866Y-78801951D02*
X143091771Y-78801951D01*
X143091771Y-78801951D02*
X142901295Y-78754332D01*
X142901295Y-78754332D02*
X142806057Y-78706713D01*
X142806057Y-78706713D02*
X142758438Y-78659094D01*
X142758438Y-78659094D02*
X142710819Y-78563856D01*
X142710819Y-77897189D02*
X142710819Y-77230523D01*
X142710819Y-77230523D02*
X143710819Y-77659094D01*
X143710819Y-76325761D02*
X143710819Y-76897189D01*
X143710819Y-76611475D02*
X142710819Y-76611475D01*
X142710819Y-76611475D02*
X142853676Y-76706713D01*
X142853676Y-76706713D02*
X142948914Y-76801951D01*
X142948914Y-76801951D02*
X142996533Y-76897189D01*
X142710819Y-80754333D02*
X143425104Y-80754333D01*
X143425104Y-80754333D02*
X143567961Y-80801952D01*
X143567961Y-80801952D02*
X143663200Y-80897190D01*
X143663200Y-80897190D02*
X143710819Y-81040047D01*
X143710819Y-81040047D02*
X143710819Y-81135285D01*
X143710819Y-79754333D02*
X143710819Y-80325761D01*
X143710819Y-80040047D02*
X142710819Y-80040047D01*
X142710819Y-80040047D02*
X142853676Y-80135285D01*
X142853676Y-80135285D02*
X142948914Y-80230523D01*
X142948914Y-80230523D02*
X142996533Y-80325761D01*
X154159295Y-92474809D02*
X153359295Y-92474809D01*
X154159295Y-92093857D02*
X153359295Y-92093857D01*
X153359295Y-92093857D02*
X153359295Y-91789095D01*
X153359295Y-91789095D02*
X153397390Y-91712905D01*
X153397390Y-91712905D02*
X153435485Y-91674810D01*
X153435485Y-91674810D02*
X153511676Y-91636714D01*
X153511676Y-91636714D02*
X153625961Y-91636714D01*
X153625961Y-91636714D02*
X153702152Y-91674810D01*
X153702152Y-91674810D02*
X153740247Y-91712905D01*
X153740247Y-91712905D02*
X153778342Y-91789095D01*
X153778342Y-91789095D02*
X153778342Y-92093857D01*
X153359295Y-90912905D02*
X153359295Y-91293857D01*
X153359295Y-91293857D02*
X153740247Y-91331953D01*
X153740247Y-91331953D02*
X153702152Y-91293857D01*
X153702152Y-91293857D02*
X153664057Y-91217667D01*
X153664057Y-91217667D02*
X153664057Y-91027191D01*
X153664057Y-91027191D02*
X153702152Y-90951000D01*
X153702152Y-90951000D02*
X153740247Y-90912905D01*
X153740247Y-90912905D02*
X153816438Y-90874810D01*
X153816438Y-90874810D02*
X154006914Y-90874810D01*
X154006914Y-90874810D02*
X154083104Y-90912905D01*
X154083104Y-90912905D02*
X154121200Y-90951000D01*
X154121200Y-90951000D02*
X154159295Y-91027191D01*
X154159295Y-91027191D02*
X154159295Y-91217667D01*
X154159295Y-91217667D02*
X154121200Y-91293857D01*
X154121200Y-91293857D02*
X154083104Y-91331953D01*
X153359295Y-90608143D02*
X153359295Y-90112905D01*
X153359295Y-90112905D02*
X153664057Y-90379571D01*
X153664057Y-90379571D02*
X153664057Y-90265286D01*
X153664057Y-90265286D02*
X153702152Y-90189095D01*
X153702152Y-90189095D02*
X153740247Y-90151000D01*
X153740247Y-90151000D02*
X153816438Y-90112905D01*
X153816438Y-90112905D02*
X154006914Y-90112905D01*
X154006914Y-90112905D02*
X154083104Y-90151000D01*
X154083104Y-90151000D02*
X154121200Y-90189095D01*
X154121200Y-90189095D02*
X154159295Y-90265286D01*
X154159295Y-90265286D02*
X154159295Y-90493857D01*
X154159295Y-90493857D02*
X154121200Y-90570048D01*
X154121200Y-90570048D02*
X154083104Y-90608143D01*
X153359295Y-89617666D02*
X153359295Y-89541476D01*
X153359295Y-89541476D02*
X153397390Y-89465285D01*
X153397390Y-89465285D02*
X153435485Y-89427190D01*
X153435485Y-89427190D02*
X153511676Y-89389095D01*
X153511676Y-89389095D02*
X153664057Y-89351000D01*
X153664057Y-89351000D02*
X153854533Y-89351000D01*
X153854533Y-89351000D02*
X154006914Y-89389095D01*
X154006914Y-89389095D02*
X154083104Y-89427190D01*
X154083104Y-89427190D02*
X154121200Y-89465285D01*
X154121200Y-89465285D02*
X154159295Y-89541476D01*
X154159295Y-89541476D02*
X154159295Y-89617666D01*
X154159295Y-89617666D02*
X154121200Y-89693857D01*
X154121200Y-89693857D02*
X154083104Y-89731952D01*
X154083104Y-89731952D02*
X154006914Y-89770047D01*
X154006914Y-89770047D02*
X153854533Y-89808143D01*
X153854533Y-89808143D02*
X153664057Y-89808143D01*
X153664057Y-89808143D02*
X153511676Y-89770047D01*
X153511676Y-89770047D02*
X153435485Y-89731952D01*
X153435485Y-89731952D02*
X153397390Y-89693857D01*
X153397390Y-89693857D02*
X153359295Y-89617666D01*
X153359295Y-88665285D02*
X153359295Y-88817666D01*
X153359295Y-88817666D02*
X153397390Y-88893857D01*
X153397390Y-88893857D02*
X153435485Y-88931952D01*
X153435485Y-88931952D02*
X153549771Y-89008142D01*
X153549771Y-89008142D02*
X153702152Y-89046238D01*
X153702152Y-89046238D02*
X154006914Y-89046238D01*
X154006914Y-89046238D02*
X154083104Y-89008142D01*
X154083104Y-89008142D02*
X154121200Y-88970047D01*
X154121200Y-88970047D02*
X154159295Y-88893857D01*
X154159295Y-88893857D02*
X154159295Y-88741476D01*
X154159295Y-88741476D02*
X154121200Y-88665285D01*
X154121200Y-88665285D02*
X154083104Y-88627190D01*
X154083104Y-88627190D02*
X154006914Y-88589095D01*
X154006914Y-88589095D02*
X153816438Y-88589095D01*
X153816438Y-88589095D02*
X153740247Y-88627190D01*
X153740247Y-88627190D02*
X153702152Y-88665285D01*
X153702152Y-88665285D02*
X153664057Y-88741476D01*
X153664057Y-88741476D02*
X153664057Y-88893857D01*
X153664057Y-88893857D02*
X153702152Y-88970047D01*
X153702152Y-88970047D02*
X153740247Y-89008142D01*
X153740247Y-89008142D02*
X153816438Y-89046238D01*
X157226381Y-99149200D02*
X157369238Y-99196819D01*
X157369238Y-99196819D02*
X157607333Y-99196819D01*
X157607333Y-99196819D02*
X157702571Y-99149200D01*
X157702571Y-99149200D02*
X157750190Y-99101580D01*
X157750190Y-99101580D02*
X157797809Y-99006342D01*
X157797809Y-99006342D02*
X157797809Y-98911104D01*
X157797809Y-98911104D02*
X157750190Y-98815866D01*
X157750190Y-98815866D02*
X157702571Y-98768247D01*
X157702571Y-98768247D02*
X157607333Y-98720628D01*
X157607333Y-98720628D02*
X157416857Y-98673009D01*
X157416857Y-98673009D02*
X157321619Y-98625390D01*
X157321619Y-98625390D02*
X157274000Y-98577771D01*
X157274000Y-98577771D02*
X157226381Y-98482533D01*
X157226381Y-98482533D02*
X157226381Y-98387295D01*
X157226381Y-98387295D02*
X157274000Y-98292057D01*
X157274000Y-98292057D02*
X157321619Y-98244438D01*
X157321619Y-98244438D02*
X157416857Y-98196819D01*
X157416857Y-98196819D02*
X157654952Y-98196819D01*
X157654952Y-98196819D02*
X157797809Y-98244438D01*
X158131143Y-98196819D02*
X158369238Y-99196819D01*
X158369238Y-99196819D02*
X158559714Y-98482533D01*
X158559714Y-98482533D02*
X158750190Y-99196819D01*
X158750190Y-99196819D02*
X158988286Y-98196819D01*
X159131143Y-99292057D02*
X159893047Y-99292057D01*
X160131143Y-99196819D02*
X160131143Y-98196819D01*
X160131143Y-98196819D02*
X160512095Y-98196819D01*
X160512095Y-98196819D02*
X160607333Y-98244438D01*
X160607333Y-98244438D02*
X160654952Y-98292057D01*
X160654952Y-98292057D02*
X160702571Y-98387295D01*
X160702571Y-98387295D02*
X160702571Y-98530152D01*
X160702571Y-98530152D02*
X160654952Y-98625390D01*
X160654952Y-98625390D02*
X160607333Y-98673009D01*
X160607333Y-98673009D02*
X160512095Y-98720628D01*
X160512095Y-98720628D02*
X160131143Y-98720628D01*
X161559714Y-98530152D02*
X161559714Y-99196819D01*
X161131143Y-98530152D02*
X161131143Y-99053961D01*
X161131143Y-99053961D02*
X161178762Y-99149200D01*
X161178762Y-99149200D02*
X161274000Y-99196819D01*
X161274000Y-99196819D02*
X161416857Y-99196819D01*
X161416857Y-99196819D02*
X161512095Y-99149200D01*
X161512095Y-99149200D02*
X161559714Y-99101580D01*
X161988286Y-99149200D02*
X162083524Y-99196819D01*
X162083524Y-99196819D02*
X162274000Y-99196819D01*
X162274000Y-99196819D02*
X162369238Y-99149200D01*
X162369238Y-99149200D02*
X162416857Y-99053961D01*
X162416857Y-99053961D02*
X162416857Y-99006342D01*
X162416857Y-99006342D02*
X162369238Y-98911104D01*
X162369238Y-98911104D02*
X162274000Y-98863485D01*
X162274000Y-98863485D02*
X162131143Y-98863485D01*
X162131143Y-98863485D02*
X162035905Y-98815866D01*
X162035905Y-98815866D02*
X161988286Y-98720628D01*
X161988286Y-98720628D02*
X161988286Y-98673009D01*
X161988286Y-98673009D02*
X162035905Y-98577771D01*
X162035905Y-98577771D02*
X162131143Y-98530152D01*
X162131143Y-98530152D02*
X162274000Y-98530152D01*
X162274000Y-98530152D02*
X162369238Y-98577771D01*
X162845429Y-99196819D02*
X162845429Y-98196819D01*
X163274000Y-99196819D02*
X163274000Y-98673009D01*
X163274000Y-98673009D02*
X163226381Y-98577771D01*
X163226381Y-98577771D02*
X163131143Y-98530152D01*
X163131143Y-98530152D02*
X162988286Y-98530152D01*
X162988286Y-98530152D02*
X162893048Y-98577771D01*
X162893048Y-98577771D02*
X162845429Y-98625390D01*
X158940667Y-95649200D02*
X159083524Y-95696819D01*
X159083524Y-95696819D02*
X159321619Y-95696819D01*
X159321619Y-95696819D02*
X159416857Y-95649200D01*
X159416857Y-95649200D02*
X159464476Y-95601580D01*
X159464476Y-95601580D02*
X159512095Y-95506342D01*
X159512095Y-95506342D02*
X159512095Y-95411104D01*
X159512095Y-95411104D02*
X159464476Y-95315866D01*
X159464476Y-95315866D02*
X159416857Y-95268247D01*
X159416857Y-95268247D02*
X159321619Y-95220628D01*
X159321619Y-95220628D02*
X159131143Y-95173009D01*
X159131143Y-95173009D02*
X159035905Y-95125390D01*
X159035905Y-95125390D02*
X158988286Y-95077771D01*
X158988286Y-95077771D02*
X158940667Y-94982533D01*
X158940667Y-94982533D02*
X158940667Y-94887295D01*
X158940667Y-94887295D02*
X158988286Y-94792057D01*
X158988286Y-94792057D02*
X159035905Y-94744438D01*
X159035905Y-94744438D02*
X159131143Y-94696819D01*
X159131143Y-94696819D02*
X159369238Y-94696819D01*
X159369238Y-94696819D02*
X159512095Y-94744438D01*
X159845429Y-94696819D02*
X160083524Y-95696819D01*
X160083524Y-95696819D02*
X160274000Y-94982533D01*
X160274000Y-94982533D02*
X160464476Y-95696819D01*
X160464476Y-95696819D02*
X160702572Y-94696819D01*
X161607333Y-95696819D02*
X161035905Y-95696819D01*
X161321619Y-95696819D02*
X161321619Y-94696819D01*
X161321619Y-94696819D02*
X161226381Y-94839676D01*
X161226381Y-94839676D02*
X161131143Y-94934914D01*
X161131143Y-94934914D02*
X161035905Y-94982533D01*
X149400132Y-63244672D02*
X149447763Y-63101777D01*
X149447763Y-63101777D02*
X149447763Y-62863618D01*
X149447763Y-62863618D02*
X149400132Y-62768354D01*
X149400132Y-62768354D02*
X149352500Y-62720722D01*
X149352500Y-62720722D02*
X149257236Y-62673091D01*
X149257236Y-62673091D02*
X149161972Y-62673091D01*
X149161972Y-62673091D02*
X149066709Y-62720722D01*
X149066709Y-62720722D02*
X149019077Y-62768354D01*
X149019077Y-62768354D02*
X148971445Y-62863618D01*
X148971445Y-62863618D02*
X148923813Y-63054145D01*
X148923813Y-63054145D02*
X148876182Y-63149409D01*
X148876182Y-63149409D02*
X148828550Y-63197040D01*
X148828550Y-63197040D02*
X148733286Y-63244672D01*
X148733286Y-63244672D02*
X148638023Y-63244672D01*
X148638023Y-63244672D02*
X148542759Y-63197040D01*
X148542759Y-63197040D02*
X148495127Y-63149409D01*
X148495127Y-63149409D02*
X148447495Y-63054145D01*
X148447495Y-63054145D02*
X148447495Y-62815986D01*
X148447495Y-62815986D02*
X148495127Y-62673091D01*
X148542759Y-62292036D02*
X148495127Y-62244404D01*
X148495127Y-62244404D02*
X148447495Y-62149141D01*
X148447495Y-62149141D02*
X148447495Y-61910982D01*
X148447495Y-61910982D02*
X148495127Y-61815718D01*
X148495127Y-61815718D02*
X148542759Y-61768086D01*
X148542759Y-61768086D02*
X148638023Y-61720455D01*
X148638023Y-61720455D02*
X148733286Y-61720455D01*
X148733286Y-61720455D02*
X148876182Y-61768086D01*
X148876182Y-61768086D02*
X149447763Y-62339668D01*
X149447763Y-62339668D02*
X149447763Y-61720455D01*
X148923813Y-60958346D02*
X148971445Y-60815450D01*
X148971445Y-60815450D02*
X149019077Y-60767819D01*
X149019077Y-60767819D02*
X149114341Y-60720187D01*
X149114341Y-60720187D02*
X149257236Y-60720187D01*
X149257236Y-60720187D02*
X149352500Y-60767819D01*
X149352500Y-60767819D02*
X149400132Y-60815450D01*
X149400132Y-60815450D02*
X149447763Y-60910714D01*
X149447763Y-60910714D02*
X149447763Y-61291768D01*
X149447763Y-61291768D02*
X148447495Y-61291768D01*
X148447495Y-61291768D02*
X148447495Y-60958346D01*
X148447495Y-60958346D02*
X148495127Y-60863082D01*
X148495127Y-60863082D02*
X148542759Y-60815450D01*
X148542759Y-60815450D02*
X148638023Y-60767819D01*
X148638023Y-60767819D02*
X148733286Y-60767819D01*
X148733286Y-60767819D02*
X148828550Y-60815450D01*
X148828550Y-60815450D02*
X148876182Y-60863082D01*
X148876182Y-60863082D02*
X148923813Y-60958346D01*
X148923813Y-60958346D02*
X148923813Y-61291768D01*
X149066709Y-60291500D02*
X149066709Y-59529392D01*
X149447763Y-59053073D02*
X148447495Y-59053073D01*
X148447495Y-59053073D02*
X148447495Y-58672019D01*
X148447495Y-58672019D02*
X148495127Y-58576755D01*
X148495127Y-58576755D02*
X148542759Y-58529124D01*
X148542759Y-58529124D02*
X148638023Y-58481492D01*
X148638023Y-58481492D02*
X148780918Y-58481492D01*
X148780918Y-58481492D02*
X148876182Y-58529124D01*
X148876182Y-58529124D02*
X148923813Y-58576755D01*
X148923813Y-58576755D02*
X148971445Y-58672019D01*
X148971445Y-58672019D02*
X148971445Y-59053073D01*
X149447763Y-58052805D02*
X148447495Y-58052805D01*
X148923813Y-58052805D02*
X148923813Y-57481224D01*
X149447763Y-57481224D02*
X148447495Y-57481224D01*
X149066709Y-57004905D02*
X149066709Y-56242797D01*
X149400132Y-55814110D02*
X149447763Y-55671215D01*
X149447763Y-55671215D02*
X149447763Y-55433056D01*
X149447763Y-55433056D02*
X149400132Y-55337792D01*
X149400132Y-55337792D02*
X149352500Y-55290160D01*
X149352500Y-55290160D02*
X149257236Y-55242529D01*
X149257236Y-55242529D02*
X149161972Y-55242529D01*
X149161972Y-55242529D02*
X149066709Y-55290160D01*
X149066709Y-55290160D02*
X149019077Y-55337792D01*
X149019077Y-55337792D02*
X148971445Y-55433056D01*
X148971445Y-55433056D02*
X148923813Y-55623583D01*
X148923813Y-55623583D02*
X148876182Y-55718847D01*
X148876182Y-55718847D02*
X148828550Y-55766478D01*
X148828550Y-55766478D02*
X148733286Y-55814110D01*
X148733286Y-55814110D02*
X148638023Y-55814110D01*
X148638023Y-55814110D02*
X148542759Y-55766478D01*
X148542759Y-55766478D02*
X148495127Y-55718847D01*
X148495127Y-55718847D02*
X148447495Y-55623583D01*
X148447495Y-55623583D02*
X148447495Y-55385424D01*
X148447495Y-55385424D02*
X148495127Y-55242529D01*
X149447763Y-54813842D02*
X148447495Y-54813842D01*
X148447495Y-54813842D02*
X149161972Y-54480420D01*
X149161972Y-54480420D02*
X148447495Y-54146997D01*
X148447495Y-54146997D02*
X149447763Y-54146997D01*
X148780918Y-53241993D02*
X149447763Y-53241993D01*
X148399864Y-53480152D02*
X149114341Y-53718311D01*
X149114341Y-53718311D02*
X149114341Y-53099098D01*
X149066709Y-52718043D02*
X149066709Y-51955935D01*
X148447495Y-51622512D02*
X148447495Y-51050930D01*
X149447763Y-51336721D02*
X148447495Y-51336721D01*
X148923813Y-50384085D02*
X148971445Y-50241189D01*
X148971445Y-50241189D02*
X149019077Y-50193558D01*
X149019077Y-50193558D02*
X149114341Y-50145926D01*
X149114341Y-50145926D02*
X149257236Y-50145926D01*
X149257236Y-50145926D02*
X149352500Y-50193558D01*
X149352500Y-50193558D02*
X149400132Y-50241189D01*
X149400132Y-50241189D02*
X149447763Y-50336453D01*
X149447763Y-50336453D02*
X149447763Y-50717507D01*
X149447763Y-50717507D02*
X148447495Y-50717507D01*
X148447495Y-50717507D02*
X148447495Y-50384085D01*
X148447495Y-50384085D02*
X148495127Y-50288821D01*
X148495127Y-50288821D02*
X148542759Y-50241189D01*
X148542759Y-50241189D02*
X148638023Y-50193558D01*
X148638023Y-50193558D02*
X148733286Y-50193558D01*
X148733286Y-50193558D02*
X148828550Y-50241189D01*
X148828550Y-50241189D02*
X148876182Y-50288821D01*
X148876182Y-50288821D02*
X148923813Y-50384085D01*
X148923813Y-50384085D02*
X148923813Y-50717507D01*
X150219992Y-98116872D02*
X150219992Y-98831400D01*
X150219992Y-98831400D02*
X150172356Y-98974305D01*
X150172356Y-98974305D02*
X150077086Y-99069576D01*
X150077086Y-99069576D02*
X149934180Y-99117211D01*
X149934180Y-99117211D02*
X149838910Y-99117211D01*
X150648708Y-99069576D02*
X150791614Y-99117211D01*
X150791614Y-99117211D02*
X151029790Y-99117211D01*
X151029790Y-99117211D02*
X151125060Y-99069576D01*
X151125060Y-99069576D02*
X151172695Y-99021940D01*
X151172695Y-99021940D02*
X151220331Y-98926670D01*
X151220331Y-98926670D02*
X151220331Y-98831400D01*
X151220331Y-98831400D02*
X151172695Y-98736129D01*
X151172695Y-98736129D02*
X151125060Y-98688494D01*
X151125060Y-98688494D02*
X151029790Y-98640859D01*
X151029790Y-98640859D02*
X150839249Y-98593224D01*
X150839249Y-98593224D02*
X150743979Y-98545588D01*
X150743979Y-98545588D02*
X150696343Y-98497953D01*
X150696343Y-98497953D02*
X150648708Y-98402683D01*
X150648708Y-98402683D02*
X150648708Y-98307412D01*
X150648708Y-98307412D02*
X150696343Y-98212142D01*
X150696343Y-98212142D02*
X150743979Y-98164507D01*
X150743979Y-98164507D02*
X150839249Y-98116872D01*
X150839249Y-98116872D02*
X151077425Y-98116872D01*
X151077425Y-98116872D02*
X151220331Y-98164507D01*
X152173035Y-99117211D02*
X151601412Y-99117211D01*
X151887223Y-99117211D02*
X151887223Y-98116872D01*
X151887223Y-98116872D02*
X151791953Y-98259777D01*
X151791953Y-98259777D02*
X151696683Y-98355048D01*
X151696683Y-98355048D02*
X151601412Y-98402683D01*
X152792292Y-98116872D02*
X152887563Y-98116872D01*
X152887563Y-98116872D02*
X152982833Y-98164507D01*
X152982833Y-98164507D02*
X153030468Y-98212142D01*
X153030468Y-98212142D02*
X153078103Y-98307412D01*
X153078103Y-98307412D02*
X153125739Y-98497953D01*
X153125739Y-98497953D02*
X153125739Y-98736129D01*
X153125739Y-98736129D02*
X153078103Y-98926670D01*
X153078103Y-98926670D02*
X153030468Y-99021940D01*
X153030468Y-99021940D02*
X152982833Y-99069576D01*
X152982833Y-99069576D02*
X152887563Y-99117211D01*
X152887563Y-99117211D02*
X152792292Y-99117211D01*
X152792292Y-99117211D02*
X152697022Y-99069576D01*
X152697022Y-99069576D02*
X152649387Y-99021940D01*
X152649387Y-99021940D02*
X152601751Y-98926670D01*
X152601751Y-98926670D02*
X152554116Y-98736129D01*
X152554116Y-98736129D02*
X152554116Y-98497953D01*
X152554116Y-98497953D02*
X152601751Y-98307412D01*
X152601751Y-98307412D02*
X152649387Y-98212142D01*
X152649387Y-98212142D02*
X152697022Y-98164507D01*
X152697022Y-98164507D02*
X152792292Y-98116872D01*
X153506820Y-98212142D02*
X153554455Y-98164507D01*
X153554455Y-98164507D02*
X153649726Y-98116872D01*
X153649726Y-98116872D02*
X153887902Y-98116872D01*
X153887902Y-98116872D02*
X153983172Y-98164507D01*
X153983172Y-98164507D02*
X154030807Y-98212142D01*
X154030807Y-98212142D02*
X154078443Y-98307412D01*
X154078443Y-98307412D02*
X154078443Y-98402683D01*
X154078443Y-98402683D02*
X154030807Y-98545588D01*
X154030807Y-98545588D02*
X153459185Y-99117211D01*
X153459185Y-99117211D02*
X154078443Y-99117211D01*
X154697700Y-98116872D02*
X154792971Y-98116872D01*
X154792971Y-98116872D02*
X154888241Y-98164507D01*
X154888241Y-98164507D02*
X154935876Y-98212142D01*
X154935876Y-98212142D02*
X154983511Y-98307412D01*
X154983511Y-98307412D02*
X155031147Y-98497953D01*
X155031147Y-98497953D02*
X155031147Y-98736129D01*
X155031147Y-98736129D02*
X154983511Y-98926670D01*
X154983511Y-98926670D02*
X154935876Y-99021940D01*
X154935876Y-99021940D02*
X154888241Y-99069576D01*
X154888241Y-99069576D02*
X154792971Y-99117211D01*
X154792971Y-99117211D02*
X154697700Y-99117211D01*
X154697700Y-99117211D02*
X154602430Y-99069576D01*
X154602430Y-99069576D02*
X154554795Y-99021940D01*
X154554795Y-99021940D02*
X154507159Y-98926670D01*
X154507159Y-98926670D02*
X154459524Y-98736129D01*
X154459524Y-98736129D02*
X154459524Y-98497953D01*
X154459524Y-98497953D02*
X154507159Y-98307412D01*
X154507159Y-98307412D02*
X154554795Y-98212142D01*
X154554795Y-98212142D02*
X154602430Y-98164507D01*
X154602430Y-98164507D02*
X154697700Y-98116872D01*
X155983851Y-99117211D02*
X155412228Y-99117211D01*
X155698039Y-99117211D02*
X155698039Y-98116872D01*
X155698039Y-98116872D02*
X155602769Y-98259777D01*
X155602769Y-98259777D02*
X155507499Y-98355048D01*
X155507499Y-98355048D02*
X155412228Y-98402683D01*
X156936555Y-99117211D02*
X156364932Y-99117211D01*
X156650743Y-99117211D02*
X156650743Y-98116872D01*
X156650743Y-98116872D02*
X156555473Y-98259777D01*
X156555473Y-98259777D02*
X156460203Y-98355048D01*
X156460203Y-98355048D02*
X156364932Y-98402683D01*
X157651083Y-98116872D02*
X157651083Y-98831400D01*
X157651083Y-98831400D02*
X157603447Y-98974305D01*
X157603447Y-98974305D02*
X157508177Y-99069576D01*
X157508177Y-99069576D02*
X157365271Y-99117211D01*
X157365271Y-99117211D02*
X157270001Y-99117211D01*
X158699057Y-99021940D02*
X158651422Y-99069576D01*
X158651422Y-99069576D02*
X158508516Y-99117211D01*
X158508516Y-99117211D02*
X158413246Y-99117211D01*
X158413246Y-99117211D02*
X158270340Y-99069576D01*
X158270340Y-99069576D02*
X158175070Y-98974305D01*
X158175070Y-98974305D02*
X158127434Y-98879035D01*
X158127434Y-98879035D02*
X158079799Y-98688494D01*
X158079799Y-98688494D02*
X158079799Y-98545588D01*
X158079799Y-98545588D02*
X158127434Y-98355048D01*
X158127434Y-98355048D02*
X158175070Y-98259777D01*
X158175070Y-98259777D02*
X158270340Y-98164507D01*
X158270340Y-98164507D02*
X158413246Y-98116872D01*
X158413246Y-98116872D02*
X158508516Y-98116872D01*
X158508516Y-98116872D02*
X158651422Y-98164507D01*
X158651422Y-98164507D02*
X158699057Y-98212142D01*
X159794666Y-99212481D02*
X159699396Y-99164846D01*
X159699396Y-99164846D02*
X159604125Y-99069576D01*
X159604125Y-99069576D02*
X159461220Y-98926670D01*
X159461220Y-98926670D02*
X159365949Y-98879035D01*
X159365949Y-98879035D02*
X159270679Y-98879035D01*
X159318314Y-99117211D02*
X159223044Y-99069576D01*
X159223044Y-99069576D02*
X159127773Y-98974305D01*
X159127773Y-98974305D02*
X159080138Y-98783764D01*
X159080138Y-98783764D02*
X159080138Y-98450318D01*
X159080138Y-98450318D02*
X159127773Y-98259777D01*
X159127773Y-98259777D02*
X159223044Y-98164507D01*
X159223044Y-98164507D02*
X159318314Y-98116872D01*
X159318314Y-98116872D02*
X159508855Y-98116872D01*
X159508855Y-98116872D02*
X159604125Y-98164507D01*
X159604125Y-98164507D02*
X159699396Y-98259777D01*
X159699396Y-98259777D02*
X159747031Y-98450318D01*
X159747031Y-98450318D02*
X159747031Y-98783764D01*
X159747031Y-98783764D02*
X159699396Y-98974305D01*
X159699396Y-98974305D02*
X159604125Y-99069576D01*
X159604125Y-99069576D02*
X159508855Y-99117211D01*
X159508855Y-99117211D02*
X159318314Y-99117211D01*
X160175747Y-99117211D02*
X160175747Y-98116872D01*
X160175747Y-98116872D02*
X160747370Y-99117211D01*
X160747370Y-99117211D02*
X160747370Y-98116872D01*
X167768095Y-95159819D02*
X167768095Y-94159819D01*
X167768095Y-94636009D02*
X168339523Y-94636009D01*
X168339523Y-95159819D02*
X168339523Y-94159819D01*
X169244285Y-94493152D02*
X169244285Y-95159819D01*
X169006190Y-94112200D02*
X168768095Y-94826485D01*
X168768095Y-94826485D02*
X169387142Y-94826485D01*
X161294492Y-97736072D02*
X161342123Y-97593177D01*
X161342123Y-97593177D02*
X161342123Y-97355018D01*
X161342123Y-97355018D02*
X161294492Y-97259754D01*
X161294492Y-97259754D02*
X161246860Y-97212122D01*
X161246860Y-97212122D02*
X161151596Y-97164491D01*
X161151596Y-97164491D02*
X161056332Y-97164491D01*
X161056332Y-97164491D02*
X160961069Y-97212122D01*
X160961069Y-97212122D02*
X160913437Y-97259754D01*
X160913437Y-97259754D02*
X160865805Y-97355018D01*
X160865805Y-97355018D02*
X160818173Y-97545545D01*
X160818173Y-97545545D02*
X160770542Y-97640809D01*
X160770542Y-97640809D02*
X160722910Y-97688440D01*
X160722910Y-97688440D02*
X160627646Y-97736072D01*
X160627646Y-97736072D02*
X160532383Y-97736072D01*
X160532383Y-97736072D02*
X160437119Y-97688440D01*
X160437119Y-97688440D02*
X160389487Y-97640809D01*
X160389487Y-97640809D02*
X160341855Y-97545545D01*
X160341855Y-97545545D02*
X160341855Y-97307386D01*
X160341855Y-97307386D02*
X160389487Y-97164491D01*
X160437119Y-96783436D02*
X160389487Y-96735804D01*
X160389487Y-96735804D02*
X160341855Y-96640541D01*
X160341855Y-96640541D02*
X160341855Y-96402382D01*
X160341855Y-96402382D02*
X160389487Y-96307118D01*
X160389487Y-96307118D02*
X160437119Y-96259486D01*
X160437119Y-96259486D02*
X160532383Y-96211855D01*
X160532383Y-96211855D02*
X160627646Y-96211855D01*
X160627646Y-96211855D02*
X160770542Y-96259486D01*
X160770542Y-96259486D02*
X161342123Y-96831068D01*
X161342123Y-96831068D02*
X161342123Y-96211855D01*
X160818173Y-95449746D02*
X160865805Y-95306850D01*
X160865805Y-95306850D02*
X160913437Y-95259219D01*
X160913437Y-95259219D02*
X161008701Y-95211587D01*
X161008701Y-95211587D02*
X161151596Y-95211587D01*
X161151596Y-95211587D02*
X161246860Y-95259219D01*
X161246860Y-95259219D02*
X161294492Y-95306850D01*
X161294492Y-95306850D02*
X161342123Y-95402114D01*
X161342123Y-95402114D02*
X161342123Y-95783168D01*
X161342123Y-95783168D02*
X160341855Y-95783168D01*
X160341855Y-95783168D02*
X160341855Y-95449746D01*
X160341855Y-95449746D02*
X160389487Y-95354482D01*
X160389487Y-95354482D02*
X160437119Y-95306850D01*
X160437119Y-95306850D02*
X160532383Y-95259219D01*
X160532383Y-95259219D02*
X160627646Y-95259219D01*
X160627646Y-95259219D02*
X160722910Y-95306850D01*
X160722910Y-95306850D02*
X160770542Y-95354482D01*
X160770542Y-95354482D02*
X160818173Y-95449746D01*
X160818173Y-95449746D02*
X160818173Y-95783168D01*
X160961069Y-94782900D02*
X160961069Y-94020792D01*
X161342123Y-93544473D02*
X160341855Y-93544473D01*
X160341855Y-93544473D02*
X160341855Y-93163419D01*
X160341855Y-93163419D02*
X160389487Y-93068155D01*
X160389487Y-93068155D02*
X160437119Y-93020524D01*
X160437119Y-93020524D02*
X160532383Y-92972892D01*
X160532383Y-92972892D02*
X160675278Y-92972892D01*
X160675278Y-92972892D02*
X160770542Y-93020524D01*
X160770542Y-93020524D02*
X160818173Y-93068155D01*
X160818173Y-93068155D02*
X160865805Y-93163419D01*
X160865805Y-93163419D02*
X160865805Y-93544473D01*
X161342123Y-92544205D02*
X160341855Y-92544205D01*
X160818173Y-92544205D02*
X160818173Y-91972624D01*
X161342123Y-91972624D02*
X160341855Y-91972624D01*
X160961069Y-91496305D02*
X160961069Y-90734197D01*
X161294492Y-90305510D02*
X161342123Y-90162615D01*
X161342123Y-90162615D02*
X161342123Y-89924456D01*
X161342123Y-89924456D02*
X161294492Y-89829192D01*
X161294492Y-89829192D02*
X161246860Y-89781560D01*
X161246860Y-89781560D02*
X161151596Y-89733929D01*
X161151596Y-89733929D02*
X161056332Y-89733929D01*
X161056332Y-89733929D02*
X160961069Y-89781560D01*
X160961069Y-89781560D02*
X160913437Y-89829192D01*
X160913437Y-89829192D02*
X160865805Y-89924456D01*
X160865805Y-89924456D02*
X160818173Y-90114983D01*
X160818173Y-90114983D02*
X160770542Y-90210247D01*
X160770542Y-90210247D02*
X160722910Y-90257878D01*
X160722910Y-90257878D02*
X160627646Y-90305510D01*
X160627646Y-90305510D02*
X160532383Y-90305510D01*
X160532383Y-90305510D02*
X160437119Y-90257878D01*
X160437119Y-90257878D02*
X160389487Y-90210247D01*
X160389487Y-90210247D02*
X160341855Y-90114983D01*
X160341855Y-90114983D02*
X160341855Y-89876824D01*
X160341855Y-89876824D02*
X160389487Y-89733929D01*
X161342123Y-89305242D02*
X160341855Y-89305242D01*
X160341855Y-89305242D02*
X161056332Y-88971820D01*
X161056332Y-88971820D02*
X160341855Y-88638397D01*
X160341855Y-88638397D02*
X161342123Y-88638397D01*
X160675278Y-87733393D02*
X161342123Y-87733393D01*
X160294224Y-87971552D02*
X161008701Y-88209711D01*
X161008701Y-88209711D02*
X161008701Y-87590498D01*
X160961069Y-87209443D02*
X160961069Y-86447335D01*
X160341855Y-86113912D02*
X160341855Y-85542330D01*
X161342123Y-85828121D02*
X160341855Y-85828121D01*
X160818173Y-84875485D02*
X160865805Y-84732589D01*
X160865805Y-84732589D02*
X160913437Y-84684958D01*
X160913437Y-84684958D02*
X161008701Y-84637326D01*
X161008701Y-84637326D02*
X161151596Y-84637326D01*
X161151596Y-84637326D02*
X161246860Y-84684958D01*
X161246860Y-84684958D02*
X161294492Y-84732589D01*
X161294492Y-84732589D02*
X161342123Y-84827853D01*
X161342123Y-84827853D02*
X161342123Y-85208907D01*
X161342123Y-85208907D02*
X160341855Y-85208907D01*
X160341855Y-85208907D02*
X160341855Y-84875485D01*
X160341855Y-84875485D02*
X160389487Y-84780221D01*
X160389487Y-84780221D02*
X160437119Y-84732589D01*
X160437119Y-84732589D02*
X160532383Y-84684958D01*
X160532383Y-84684958D02*
X160627646Y-84684958D01*
X160627646Y-84684958D02*
X160722910Y-84732589D01*
X160722910Y-84732589D02*
X160770542Y-84780221D01*
X160770542Y-84780221D02*
X160818173Y-84875485D01*
X160818173Y-84875485D02*
X160818173Y-85208907D01*
X140268095Y-95159819D02*
X140268095Y-94159819D01*
X140268095Y-94636009D02*
X140839523Y-94636009D01*
X140839523Y-95159819D02*
X140839523Y-94159819D01*
X141220476Y-94159819D02*
X141839523Y-94159819D01*
X141839523Y-94159819D02*
X141506190Y-94540771D01*
X141506190Y-94540771D02*
X141649047Y-94540771D01*
X141649047Y-94540771D02*
X141744285Y-94588390D01*
X141744285Y-94588390D02*
X141791904Y-94636009D01*
X141791904Y-94636009D02*
X141839523Y-94731247D01*
X141839523Y-94731247D02*
X141839523Y-94969342D01*
X141839523Y-94969342D02*
X141791904Y-95064580D01*
X141791904Y-95064580D02*
X141744285Y-95112200D01*
X141744285Y-95112200D02*
X141649047Y-95159819D01*
X141649047Y-95159819D02*
X141363333Y-95159819D01*
X141363333Y-95159819D02*
X141268095Y-95112200D01*
X141268095Y-95112200D02*
X141220476Y-95064580D01*
D12*
%TO.C,R11*%
X147353834Y-72548500D02*
X145753834Y-72548500D01*
X147353834Y-71723500D02*
X147353834Y-72548500D01*
X145753834Y-72548500D02*
X145753834Y-71723500D01*
X145753834Y-71723500D02*
X147353834Y-71723500D01*
%TO.C,R10*%
X147358000Y-74834500D02*
X145758000Y-74834500D01*
X147358000Y-74009500D02*
X147358000Y-74834500D01*
X145758000Y-74834500D02*
X145758000Y-74009500D01*
X145758000Y-74009500D02*
X147358000Y-74009500D01*
%TO.C,R9*%
X147366332Y-70262500D02*
X145766332Y-70262500D01*
X147366332Y-69437500D02*
X147366332Y-70262500D01*
X145766332Y-70262500D02*
X145766332Y-69437500D01*
X145766332Y-69437500D02*
X147366332Y-69437500D01*
%TO.C,R8*%
X160940500Y-82258000D02*
X160940500Y-83858000D01*
X160115500Y-82258000D02*
X160940500Y-82258000D01*
X160940500Y-83858000D02*
X160115500Y-83858000D01*
X160115500Y-83858000D02*
X160115500Y-82258000D01*
%TO.C,R7*%
X158109500Y-90477000D02*
X158109500Y-88877000D01*
X158934500Y-90477000D02*
X158109500Y-90477000D01*
X158109500Y-88877000D02*
X158934500Y-88877000D01*
X158934500Y-88877000D02*
X158934500Y-90477000D01*
%TO.C,R6*%
X159861500Y-90462000D02*
X159861500Y-88862000D01*
X160686500Y-90462000D02*
X159861500Y-90462000D01*
X159861500Y-88862000D02*
X160686500Y-88862000D01*
X160686500Y-88862000D02*
X160686500Y-90462000D01*
%TO.C,R5*%
X156622500Y-54425666D02*
X156622500Y-56025666D01*
X155797500Y-54425666D02*
X156622500Y-54425666D01*
X156622500Y-56025666D02*
X155797500Y-56025666D01*
X155797500Y-56025666D02*
X155797500Y-54425666D01*
%TO.C,R4*%
X158908500Y-54417334D02*
X158908500Y-56017334D01*
X158083500Y-54417334D02*
X158908500Y-54417334D01*
X158908500Y-56017334D02*
X158083500Y-56017334D01*
X158083500Y-56017334D02*
X158083500Y-54417334D01*
%TO.C,R3*%
X161194500Y-54404836D02*
X161194500Y-56004836D01*
X160369500Y-54404836D02*
X161194500Y-54404836D01*
X161194500Y-56004836D02*
X160369500Y-56004836D01*
X160369500Y-56004836D02*
X160369500Y-54404836D01*
%TO.C,R2*%
X163480500Y-54421500D02*
X163480500Y-56021500D01*
X162655500Y-54421500D02*
X163480500Y-54421500D01*
X163480500Y-56021500D02*
X162655500Y-56021500D01*
X162655500Y-56021500D02*
X162655500Y-54421500D01*
%TO.C,R1*%
X145607500Y-84931500D02*
X147207500Y-84931500D01*
X145607500Y-85756500D02*
X145607500Y-84931500D01*
X147207500Y-84931500D02*
X147207500Y-85756500D01*
X147207500Y-85756500D02*
X145607500Y-85756500D01*
%TO.C,L1*%
X149822000Y-83166000D02*
X151422000Y-83166000D01*
X149822000Y-83966000D02*
X149822000Y-83166000D01*
X151422000Y-83166000D02*
X151422000Y-83966000D01*
X151422000Y-83966000D02*
X149822000Y-83966000D01*
%TO.C,D5*%
X161952000Y-90462000D02*
X162452000Y-90462000D01*
X162452000Y-90462000D02*
X162452000Y-88862000D01*
X161652000Y-90162000D02*
X161952000Y-90462000D01*
X161652000Y-88862000D02*
X161652000Y-90162000D01*
X162452000Y-88862000D02*
X161652000Y-88862000D01*
%TO.C,D4*%
X151092000Y-91086000D02*
X151092000Y-91586000D01*
X151092000Y-91586000D02*
X152692000Y-91586000D01*
X151392000Y-90786000D02*
X151092000Y-91086000D01*
X152692000Y-90786000D02*
X151392000Y-90786000D01*
X152692000Y-91586000D02*
X152692000Y-90786000D01*
%TO.C,D3*%
X147282000Y-91086000D02*
X147282000Y-91586000D01*
X147282000Y-91586000D02*
X148882000Y-91586000D01*
X147582000Y-90786000D02*
X147282000Y-91086000D01*
X148882000Y-90786000D02*
X147582000Y-90786000D01*
X148882000Y-91586000D02*
X148882000Y-90786000D01*
%TO.C,D2*%
X145642000Y-87338000D02*
X145142000Y-87338000D01*
X145142000Y-87338000D02*
X145142000Y-88938000D01*
X145942000Y-87638000D02*
X145642000Y-87338000D01*
X145942000Y-88938000D02*
X145942000Y-87638000D01*
X145142000Y-88938000D02*
X145942000Y-88938000D01*
%TO.C,D1*%
X147220000Y-88938000D02*
X147720000Y-88938000D01*
X147720000Y-88938000D02*
X147720000Y-87338000D01*
X146920000Y-88638000D02*
X147220000Y-88938000D01*
X146920000Y-87338000D02*
X146920000Y-88638000D01*
X147720000Y-87338000D02*
X146920000Y-87338000D01*
%TO.C,C7*%
X158350000Y-83863000D02*
X158350000Y-82263000D01*
X159150000Y-83863000D02*
X158350000Y-83863000D01*
X158350000Y-82263000D02*
X159150000Y-82263000D01*
X159150000Y-82263000D02*
X159150000Y-83863000D01*
%TO.C,C6*%
X145607500Y-77832000D02*
X147207500Y-77832000D01*
X145607500Y-78632000D02*
X145607500Y-77832000D01*
X147207500Y-77832000D02*
X147207500Y-78632000D01*
X147207500Y-78632000D02*
X145607500Y-78632000D01*
%TO.C,C5*%
X156572000Y-83863000D02*
X156572000Y-82263000D01*
X157372000Y-83863000D02*
X156572000Y-83863000D01*
X156572000Y-82263000D02*
X157372000Y-82263000D01*
X157372000Y-82263000D02*
X157372000Y-83863000D01*
%TO.C,C4*%
X145592500Y-76054000D02*
X147192500Y-76054000D01*
X145592500Y-76854000D02*
X145592500Y-76054000D01*
X147192500Y-76054000D02*
X147192500Y-76854000D01*
X147192500Y-76854000D02*
X145592500Y-76854000D01*
%TO.C,C3*%
X145607500Y-79610000D02*
X147207500Y-79610000D01*
X145607500Y-80410000D02*
X145607500Y-79610000D01*
X147207500Y-79610000D02*
X147207500Y-80410000D01*
X147207500Y-80410000D02*
X145607500Y-80410000D01*
%TO.C,C2*%
X146266000Y-83262000D02*
X147866000Y-83262000D01*
X146266000Y-84062000D02*
X146266000Y-83262000D01*
X147866000Y-83262000D02*
X147866000Y-84062000D01*
X147866000Y-84062000D02*
X146266000Y-84062000D01*
%TO.C,C1*%
X147296000Y-82335000D02*
X145696000Y-82335000D01*
X147296000Y-81535000D02*
X147296000Y-82335000D01*
X145696000Y-82335000D02*
X145696000Y-81535000D01*
X145696000Y-81535000D02*
X147296000Y-81535000D01*
D13*
%TO.C,U2*%
X148843000Y-75896200D02*
X148843000Y-61928800D01*
X150749300Y-60022500D02*
X167891700Y-60022500D01*
X167891700Y-77802500D02*
X150749300Y-77802500D01*
X169798000Y-61928800D02*
X169798000Y-64442500D01*
X169798000Y-64442500D02*
X171843000Y-64442500D01*
X169798000Y-73382500D02*
X169798000Y-75896200D01*
X171843000Y-64442500D02*
X171843000Y-73382500D01*
X171843000Y-73382500D02*
X169798000Y-73382500D01*
X148843000Y-61928800D02*
G75*
G02*
X150749300Y-60022500I1906299J1D01*
G01*
X150749300Y-77802500D02*
G75*
G02*
X148843000Y-75896200I0J1906300D01*
G01*
X167891700Y-60022500D02*
G75*
G02*
X169798000Y-61928800I1J-1906299D01*
G01*
X169798000Y-75896200D02*
G75*
G02*
X167891700Y-77802500I-1906300J0D01*
G01*
D14*
X167040500Y-57912500D02*
G75*
G02*
X166840500Y-57912500I-100000J0D01*
G01*
X166840500Y-57912500D02*
G75*
G02*
X167040500Y-57912500I100000J0D01*
G01*
D15*
%TO.C,J1*%
X138256000Y-71797700D02*
X138256000Y-89044300D01*
X138256000Y-89044300D02*
X142447000Y-89044300D01*
X142447000Y-71797700D02*
X138256000Y-71797700D01*
X142447000Y-89044300D02*
X142447000Y-71797700D01*
D16*
X145542000Y-74796000D02*
G75*
G02*
X144780000Y-74796000I-381000J0D01*
G01*
X144780000Y-74796000D02*
G75*
G02*
X145542000Y-74796000I381000J0D01*
G01*
D17*
%TO.C,U1*%
X154554000Y-84976000D02*
X154554000Y-89776000D01*
X151254000Y-84976000D02*
X154554000Y-84976000D01*
X150754000Y-84976000D02*
X151254000Y-84976000D01*
X154554000Y-89776000D02*
X151254000Y-89776000D01*
X151254000Y-89776000D02*
X151254000Y-84976000D01*
X151254000Y-89776000D02*
X150754000Y-89776000D01*
X150754000Y-89776000D02*
X150754000Y-84976000D01*
D18*
X155754100Y-85716100D02*
X154654000Y-85716100D01*
X154654000Y-85225900D01*
X155754100Y-85225900D01*
X155754100Y-85716100D01*
G36*
X155754100Y-85716100D02*
G01*
X154654000Y-85716100D01*
X154654000Y-85225900D01*
X155754100Y-85225900D01*
X155754100Y-85716100D01*
G37*
X150654000Y-85716100D02*
X149553900Y-85716100D01*
X149553900Y-85225900D01*
X150654000Y-85225900D01*
X150654000Y-85716100D01*
G36*
X150654000Y-85716100D02*
G01*
X149553900Y-85716100D01*
X149553900Y-85225900D01*
X150654000Y-85225900D01*
X150654000Y-85716100D01*
G37*
X155754100Y-86986100D02*
X154654000Y-86986100D01*
X154654000Y-86495900D01*
X155754100Y-86495900D01*
X155754100Y-86986100D01*
G36*
X155754100Y-86986100D02*
G01*
X154654000Y-86986100D01*
X154654000Y-86495900D01*
X155754100Y-86495900D01*
X155754100Y-86986100D01*
G37*
X150654000Y-86986100D02*
X149553900Y-86986100D01*
X149553900Y-86495900D01*
X150654000Y-86495900D01*
X150654000Y-86986100D01*
G36*
X150654000Y-86986100D02*
G01*
X149553900Y-86986100D01*
X149553900Y-86495900D01*
X150654000Y-86495900D01*
X150654000Y-86986100D01*
G37*
X155754100Y-88256100D02*
X154654000Y-88256100D01*
X154654000Y-87765900D01*
X155754100Y-87765900D01*
X155754100Y-88256100D01*
G36*
X155754100Y-88256100D02*
G01*
X154654000Y-88256100D01*
X154654000Y-87765900D01*
X155754100Y-87765900D01*
X155754100Y-88256100D01*
G37*
X150654000Y-88256100D02*
X149553900Y-88256100D01*
X149553900Y-87765900D01*
X150654000Y-87765900D01*
X150654000Y-88256100D01*
G36*
X150654000Y-88256100D02*
G01*
X149553900Y-88256100D01*
X149553900Y-87765900D01*
X150654000Y-87765900D01*
X150654000Y-88256100D01*
G37*
X150654000Y-89526100D02*
X149553900Y-89526100D01*
X149553900Y-89035900D01*
X150654000Y-89035900D01*
X150654000Y-89526100D01*
G36*
X150654000Y-89526100D02*
G01*
X149553900Y-89526100D01*
X149553900Y-89035900D01*
X150654000Y-89035900D01*
X150654000Y-89526100D01*
G37*
D12*
%TO.C,SW1*%
X161574000Y-92492000D02*
X158974000Y-92492000D01*
X161574000Y-92492000D02*
X161574000Y-93492000D01*
X158974000Y-92492000D02*
X158974000Y-93492000D01*
X162624000Y-93492000D02*
X157924000Y-93492000D01*
X162624000Y-96992000D02*
X162624000Y-93492000D01*
X162624000Y-96992000D02*
X157924000Y-96992000D01*
X157924000Y-96992000D02*
X157924000Y-93492000D01*
D13*
%TO.C,P2*%
X138627000Y-59042000D02*
X138627000Y-66942000D01*
X138627000Y-66942000D02*
X146227000Y-66942000D01*
X146227000Y-59042000D02*
X138627000Y-59042000D01*
X146227000Y-66942000D02*
X146227000Y-59042000D01*
%TO.C,S1*%
X145864000Y-93196000D02*
X154364000Y-93196000D01*
X145864000Y-96796000D02*
X145864000Y-93196000D01*
X154364000Y-93196000D02*
X154364000Y-96796000D01*
X154364000Y-96796000D02*
X145864000Y-96796000D01*
%TO.C,P1*%
X163653000Y-80940000D02*
X163653000Y-88840000D01*
X163653000Y-88840000D02*
X171253000Y-88840000D01*
X171253000Y-80940000D02*
X163653000Y-80940000D01*
X171253000Y-88840000D02*
X171253000Y-80940000D01*
%TD*%
M02*
