%TF.GenerationSoftware,KiCad,Pcbnew,8.0.8*%
%TF.CreationDate,2025-04-02T15:42:23+05:30*%
%TF.ProjectId,STHDAQ_B1,53544844-4151-45f4-9231-2e6b69636164,rev?*%
%TF.SameCoordinates,Original*%
%TF.FileFunction,Soldermask,Top*%
%TF.FilePolarity,Negative*%
%FSLAX46Y46*%
G04 Gerber Fmt 4.6, Leading zero omitted, Abs format (unit mm)*
G04 Created by KiCad (PCBNEW 8.0.8) date 2025-04-02 15:42:23*
%MOMM*%
%LPD*%
G01*
G04 APERTURE LIST*
G04 Aperture macros list*
%AMRoundRect*
0 Rectangle with rounded corners*
0 $1 Rounding radius*
0 $2 $3 $4 $5 $6 $7 $8 $9 X,Y pos of 4 corners*
0 Add a 4 corners polygon primitive as box body*
4,1,4,$2,$3,$4,$5,$6,$7,$8,$9,$2,$3,0*
0 Add four circle primitives for the rounded corners*
1,1,$1+$1,$2,$3*
1,1,$1+$1,$4,$5*
1,1,$1+$1,$6,$7*
1,1,$1+$1,$8,$9*
0 Add four rect primitives between the rounded corners*
20,1,$1+$1,$2,$3,$4,$5,0*
20,1,$1+$1,$4,$5,$6,$7,0*
20,1,$1+$1,$6,$7,$8,$9,0*
20,1,$1+$1,$8,$9,$2,$3,0*%
G04 Aperture macros list end*
%ADD10RoundRect,0.237500X0.250000X0.237500X-0.250000X0.237500X-0.250000X-0.237500X0.250000X-0.237500X0*%
%ADD11RoundRect,0.237500X-0.237500X0.250000X-0.237500X-0.250000X0.237500X-0.250000X0.237500X0.250000X0*%
%ADD12RoundRect,0.237500X0.237500X-0.250000X0.237500X0.250000X-0.237500X0.250000X-0.237500X-0.250000X0*%
%ADD13RoundRect,0.237500X-0.287500X-0.237500X0.287500X-0.237500X0.287500X0.237500X-0.287500X0.237500X0*%
%ADD14RoundRect,0.237500X0.237500X-0.287500X0.237500X0.287500X-0.237500X0.287500X-0.237500X-0.287500X0*%
%ADD15RoundRect,0.237500X-0.237500X0.287500X-0.237500X-0.287500X0.237500X-0.287500X0.237500X0.287500X0*%
%ADD16RoundRect,0.237500X0.237500X-0.300000X0.237500X0.300000X-0.237500X0.300000X-0.237500X-0.300000X0*%
%ADD17RoundRect,0.237500X0.300000X0.237500X-0.300000X0.237500X-0.300000X-0.237500X0.300000X-0.237500X0*%
%ADD18RoundRect,0.237500X-0.300000X-0.237500X0.300000X-0.237500X0.300000X0.237500X-0.300000X0.237500X0*%
%ADD19RoundRect,0.033060X-1.068940X1.568940X-1.068940X-1.568940X1.068940X-1.568940X1.068940X1.568940X0*%
%ADD20RoundRect,0.030080X-0.721920X1.221920X-0.721920X-1.221920X0.721920X-1.221920X0.721920X1.221920X0*%
%ADD21RoundRect,0.030080X-1.221920X0.721920X-1.221920X-0.721920X1.221920X-0.721920X1.221920X0.721920X0*%
%ADD22C,1.704000*%
%ADD23C,3.600000*%
%ADD24C,5.500000*%
%ADD25R,1.701800X0.812800*%
%ADD26R,3.098800X2.209800*%
%ADD27RoundRect,0.102000X-0.875000X0.300000X-0.875000X-0.300000X0.875000X-0.300000X0.875000X0.300000X0*%
%ADD28RoundRect,0.102000X-1.205000X1.650000X-1.205000X-1.650000X1.205000X-1.650000X1.205000X1.650000X0*%
%ADD29R,1.550000X1.000000*%
%ADD30RoundRect,0.102000X1.700000X-0.750000X1.700000X0.750000X-1.700000X0.750000X-1.700000X-0.750000X0*%
%ADD31RoundRect,0.102000X1.750000X-0.500000X1.750000X0.500000X-1.750000X0.500000X-1.750000X-0.500000X0*%
%ADD32RoundRect,0.102000X-0.500000X-0.800000X0.500000X-0.800000X0.500000X0.800000X-0.500000X0.800000X0*%
%ADD33RoundRect,0.102000X-1.750000X0.500000X-1.750000X-0.500000X1.750000X-0.500000X1.750000X0.500000X0*%
%ADD34RoundRect,0.102000X-1.700000X0.750000X-1.700000X-0.750000X1.700000X-0.750000X1.700000X0.750000X0*%
G04 APERTURE END LIST*
D10*
%TO.C,R11*%
X147466334Y-72136000D03*
X145641334Y-72136000D03*
%TD*%
%TO.C,R10*%
X147470500Y-74422000D03*
X145645500Y-74422000D03*
%TD*%
%TO.C,R9*%
X147478832Y-69850000D03*
X145653832Y-69850000D03*
%TD*%
D11*
%TO.C,R8*%
X160528000Y-82145500D03*
X160528000Y-83970500D03*
%TD*%
D12*
%TO.C,R7*%
X158522000Y-90589500D03*
X158522000Y-88764500D03*
%TD*%
%TO.C,R6*%
X160274000Y-90574500D03*
X160274000Y-88749500D03*
%TD*%
D11*
%TO.C,R5*%
X156210000Y-54313166D03*
X156210000Y-56138166D03*
%TD*%
%TO.C,R4*%
X158496000Y-54304834D03*
X158496000Y-56129834D03*
%TD*%
%TO.C,R3*%
X160782000Y-54292336D03*
X160782000Y-56117336D03*
%TD*%
%TO.C,R2*%
X163068000Y-54309000D03*
X163068000Y-56134000D03*
%TD*%
D10*
%TO.C,R1*%
X145495000Y-85344000D03*
X147320000Y-85344000D03*
%TD*%
D13*
%TO.C,L1*%
X149747000Y-83566000D03*
X151497000Y-83566000D03*
%TD*%
D14*
%TO.C,D5*%
X162052000Y-90537000D03*
X162052000Y-88787000D03*
%TD*%
D13*
%TO.C,D4*%
X151017000Y-91186000D03*
X152767000Y-91186000D03*
%TD*%
%TO.C,D3*%
X147207000Y-91186000D03*
X148957000Y-91186000D03*
%TD*%
D15*
%TO.C,D2*%
X145542000Y-87263000D03*
X145542000Y-89013000D03*
%TD*%
D14*
%TO.C,D1*%
X147320000Y-89013000D03*
X147320000Y-87263000D03*
%TD*%
D16*
%TO.C,C7*%
X158750000Y-83925500D03*
X158750000Y-82200500D03*
%TD*%
D17*
%TO.C,C6*%
X145545000Y-78232000D03*
X147270000Y-78232000D03*
%TD*%
D16*
%TO.C,C5*%
X156972000Y-83925500D03*
X156972000Y-82200500D03*
%TD*%
D17*
%TO.C,C4*%
X145530000Y-76454000D03*
X147255000Y-76454000D03*
%TD*%
%TO.C,C3*%
X145545000Y-80010000D03*
X147270000Y-80010000D03*
%TD*%
%TO.C,C2*%
X146203500Y-83662000D03*
X147928500Y-83662000D03*
%TD*%
D18*
%TO.C,C1*%
X147358500Y-81935000D03*
X145633500Y-81935000D03*
%TD*%
D19*
%TO.C,U2*%
X166940500Y-60412500D03*
X164400500Y-60412500D03*
X161860500Y-60412500D03*
X159320500Y-60412500D03*
X161860500Y-77412500D03*
X156780500Y-60412500D03*
X154240500Y-60412500D03*
X151700500Y-60412500D03*
X151700500Y-77412500D03*
X154240500Y-77412500D03*
X156780500Y-77412500D03*
X159320500Y-77412500D03*
D20*
X161520500Y-64412500D03*
X159620500Y-64412500D03*
D19*
X164400500Y-77412500D03*
D21*
X150070500Y-72712500D03*
X150070500Y-74612500D03*
D22*
X165170500Y-70182500D03*
X165170500Y-67642500D03*
X167710500Y-70182500D03*
X167710500Y-67642500D03*
D19*
X166940500Y-77412500D03*
%TD*%
D23*
%TO.C,H1*%
X168530000Y-54705000D03*
D24*
X168530000Y-54705000D03*
%TD*%
D23*
%TO.C,H2*%
X141030000Y-54705000D03*
D24*
X141030000Y-54705000D03*
%TD*%
D25*
%TO.C,J1*%
X143256000Y-74796000D03*
X143256000Y-76046000D03*
X143256000Y-77296000D03*
X143256000Y-78546000D03*
X143256000Y-79796000D03*
X143256000Y-81046000D03*
X143256000Y-82296000D03*
X143256000Y-83546000D03*
X143256000Y-84796000D03*
X143256000Y-86046000D03*
D26*
X140356001Y-88596000D03*
X140356001Y-72246000D03*
%TD*%
D27*
%TO.C,U1*%
X149854000Y-85471000D03*
X149854000Y-86741000D03*
X149854000Y-88011000D03*
X149854000Y-89281000D03*
X155454000Y-89281000D03*
X155454000Y-88011000D03*
X155454000Y-86741000D03*
X155454000Y-85471000D03*
D28*
X152654000Y-87376000D03*
%TD*%
D29*
%TO.C,SW1*%
X157649000Y-94392000D03*
X162899000Y-94392000D03*
X157649000Y-96092000D03*
X162899000Y-96092000D03*
%TD*%
D30*
%TO.C,P2*%
X140127000Y-66342000D03*
X140127000Y-59642000D03*
D31*
X145877000Y-63992000D03*
X145877000Y-61992000D03*
%TD*%
D32*
%TO.C,S1*%
X147614000Y-96196000D03*
X150114000Y-93796000D03*
X152614000Y-96196000D03*
%TD*%
D23*
%TO.C,H4*%
X168530000Y-94705000D03*
D24*
X168530000Y-94705000D03*
%TD*%
D33*
%TO.C,P1*%
X164003000Y-85890000D03*
X164003000Y-83890000D03*
D34*
X169753000Y-88240000D03*
X169753000Y-81540000D03*
%TD*%
D23*
%TO.C,H3*%
X141030000Y-94705000D03*
D24*
X141030000Y-94705000D03*
%TD*%
M02*
