%TF.GenerationSoftware,KiCad,Pcbnew,8.0.8*%
%TF.CreationDate,2025-04-02T15:42:16+05:30*%
%TF.ProjectId,STHDAQ_B1,53544844-4151-45f4-9231-2e6b69636164,rev?*%
%TF.SameCoordinates,Original*%
%TF.FileFunction,Drillmap*%
%TF.FilePolarity,Positive*%
%FSLAX45Y45*%
G04 Gerber Fmt 4.5, Leading zero omitted, Abs format (unit mm)*
G04 Created by KiCad (PCBNEW 8.0.8) date 2025-04-02 15:42:16*
%MOMM*%
%LPD*%
G01*
G04 APERTURE LIST*
%ADD10C,0.050000*%
%ADD11C,0.200000*%
%ADD12C,0.100000*%
%ADD13C,0.320000*%
G04 APERTURE END LIST*
D10*
X16921200Y-5135600D02*
G75*
G02*
X17221200Y-5435600I0J-300000D01*
G01*
X16921200Y-9790668D02*
X14066800Y-9790668D01*
X14066800Y-9790668D02*
G75*
G02*
X13766800Y-9490668I0J300000D01*
G01*
X17221200Y-5435600D02*
X17221200Y-9490668D01*
X17221200Y-9490668D02*
G75*
G02*
X16921200Y-9790668I-300000J0D01*
G01*
X13766800Y-9490668D02*
X13766800Y-5435600D01*
X14066800Y-5135600D02*
X16921200Y-5135600D01*
X13766800Y-5435600D02*
G75*
G02*
X14066800Y-5135600I300000J0D01*
G01*
D11*
D12*
X14310600Y-8464600D02*
X14340600Y-8494600D01*
X14340600Y-8464600D02*
X14310600Y-8494600D01*
X14538000Y-7630400D02*
X14568000Y-7660400D01*
X14568000Y-7630400D02*
X14538000Y-7660400D01*
X14539500Y-7808200D02*
X14569500Y-7838200D01*
X14569500Y-7808200D02*
X14539500Y-7838200D01*
X14539500Y-7986000D02*
X14569500Y-8016000D01*
X14569500Y-7986000D02*
X14539500Y-8016000D01*
X14564600Y-6384200D02*
X14594600Y-6414200D01*
X14594600Y-6384200D02*
X14564600Y-6414200D01*
X14605350Y-8351200D02*
X14635350Y-8381200D01*
X14635350Y-8351200D02*
X14605350Y-8381200D01*
X14720850Y-8177500D02*
X14750850Y-8207500D01*
X14750850Y-8177500D02*
X14720850Y-8207500D01*
X15250400Y-8722600D02*
X15280400Y-8752600D01*
X15280400Y-8722600D02*
X15250400Y-8752600D01*
X15682200Y-8205050D02*
X15712200Y-8235050D01*
X15712200Y-8205050D02*
X15682200Y-8235050D01*
X15749900Y-9594200D02*
X15779900Y-9624200D01*
X15779900Y-9594200D02*
X15749900Y-9624200D01*
X15860000Y-8205050D02*
X15890000Y-8235050D01*
X15890000Y-8205050D02*
X15860000Y-8235050D01*
X16190200Y-9038700D02*
X16220200Y-9068700D01*
X16220200Y-9038700D02*
X16190200Y-9068700D01*
X16266400Y-9586200D02*
X16296400Y-9616200D01*
X16296400Y-9586200D02*
X16266400Y-9616200D01*
X16414000Y-8364000D02*
X16444000Y-8394000D01*
X16444000Y-8364000D02*
X16414000Y-8394000D01*
X16503000Y-7755000D02*
X16533000Y-7785000D01*
X16533000Y-7755000D02*
X16503000Y-7785000D01*
X14006600Y-8077200D02*
G75*
G02*
X13956600Y-8077200I-25000J0D01*
G01*
X13956600Y-8077200D02*
G75*
G02*
X14006600Y-8077200I25000J0D01*
G01*
X14122000Y-8229600D02*
G75*
G02*
X14072000Y-8229600I-25000J0D01*
G01*
X14072000Y-8229600D02*
G75*
G02*
X14122000Y-8229600I25000J0D01*
G01*
X14147400Y-6299200D02*
G75*
G02*
X14097400Y-6299200I-25000J0D01*
G01*
X14097400Y-6299200D02*
G75*
G02*
X14147400Y-6299200I25000J0D01*
G01*
X14147400Y-7899400D02*
G75*
G02*
X14097400Y-7899400I-25000J0D01*
G01*
X14097400Y-7899400D02*
G75*
G02*
X14147400Y-7899400I25000J0D01*
G01*
X14350600Y-7594600D02*
G75*
G02*
X14300600Y-7594600I-25000J0D01*
G01*
X14300600Y-7594600D02*
G75*
G02*
X14350600Y-7594600I25000J0D01*
G01*
X14350600Y-7729600D02*
G75*
G02*
X14300600Y-7729600I-25000J0D01*
G01*
X14300600Y-7729600D02*
G75*
G02*
X14350600Y-7729600I25000J0D01*
G01*
X14350600Y-7854600D02*
G75*
G02*
X14300600Y-7854600I-25000J0D01*
G01*
X14300600Y-7854600D02*
G75*
G02*
X14350600Y-7854600I25000J0D01*
G01*
X14553800Y-7467600D02*
G75*
G02*
X14503800Y-7467600I-25000J0D01*
G01*
X14503800Y-7467600D02*
G75*
G02*
X14553800Y-7467600I25000J0D01*
G01*
X14553800Y-9296400D02*
G75*
G02*
X14503800Y-9296400I-25000J0D01*
G01*
X14503800Y-9296400D02*
G75*
G02*
X14553800Y-9296400I25000J0D01*
G01*
X14589133Y-7213600D02*
G75*
G02*
X14539133Y-7213600I-25000J0D01*
G01*
X14539133Y-7213600D02*
G75*
G02*
X14589133Y-7213600I25000J0D01*
G01*
X14757000Y-8534400D02*
G75*
G02*
X14707000Y-8534400I-25000J0D01*
G01*
X14707000Y-8534400D02*
G75*
G02*
X14757000Y-8534400I25000J0D01*
G01*
X14782400Y-7188200D02*
G75*
G02*
X14732400Y-7188200I-25000J0D01*
G01*
X14732400Y-7188200D02*
G75*
G02*
X14782400Y-7188200I25000J0D01*
G01*
X14782400Y-7442200D02*
G75*
G02*
X14732400Y-7442200I-25000J0D01*
G01*
X14732400Y-7442200D02*
G75*
G02*
X14782400Y-7442200I25000J0D01*
G01*
X15061800Y-8204200D02*
G75*
G02*
X15011800Y-8204200I-25000J0D01*
G01*
X15011800Y-8204200D02*
G75*
G02*
X15061800Y-8204200I25000J0D01*
G01*
X15163400Y-8102600D02*
G75*
G02*
X15113400Y-8102600I-25000J0D01*
G01*
X15113400Y-8102600D02*
G75*
G02*
X15163400Y-8102600I25000J0D01*
G01*
X15214200Y-7137400D02*
G75*
G02*
X15164200Y-7137400I-25000J0D01*
G01*
X15164200Y-7137400D02*
G75*
G02*
X15214200Y-7137400I25000J0D01*
G01*
X15225800Y-7442200D02*
G75*
G02*
X15175800Y-7442200I-25000J0D01*
G01*
X15175800Y-7442200D02*
G75*
G02*
X15225800Y-7442200I25000J0D01*
G01*
X15239600Y-6705600D02*
G75*
G02*
X15189600Y-6705600I-25000J0D01*
G01*
X15189600Y-6705600D02*
G75*
G02*
X15239600Y-6705600I25000J0D01*
G01*
X15341200Y-9525000D02*
G75*
G02*
X15291200Y-9525000I-25000J0D01*
G01*
X15291200Y-9525000D02*
G75*
G02*
X15341200Y-9525000I25000J0D01*
G01*
X15366600Y-8026400D02*
G75*
G02*
X15316600Y-8026400I-25000J0D01*
G01*
X15316600Y-8026400D02*
G75*
G02*
X15366600Y-8026400I25000J0D01*
G01*
X15417400Y-7010400D02*
G75*
G02*
X15367400Y-7010400I-25000J0D01*
G01*
X15367400Y-7010400D02*
G75*
G02*
X15417400Y-7010400I25000J0D01*
G01*
X15449050Y-7741250D02*
G75*
G02*
X15399050Y-7741250I-25000J0D01*
G01*
X15399050Y-7741250D02*
G75*
G02*
X15449050Y-7741250I25000J0D01*
G01*
X15569800Y-8940800D02*
G75*
G02*
X15519800Y-8940800I-25000J0D01*
G01*
X15519800Y-8940800D02*
G75*
G02*
X15569800Y-8940800I25000J0D01*
G01*
X15570540Y-8673960D02*
G75*
G02*
X15520540Y-8673960I-25000J0D01*
G01*
X15520540Y-8673960D02*
G75*
G02*
X15570540Y-8673960I25000J0D01*
G01*
X15595200Y-8813800D02*
G75*
G02*
X15545200Y-8813800I-25000J0D01*
G01*
X15545200Y-8813800D02*
G75*
G02*
X15595200Y-8813800I25000J0D01*
G01*
X15620600Y-9169400D02*
G75*
G02*
X15570600Y-9169400I-25000J0D01*
G01*
X15570600Y-9169400D02*
G75*
G02*
X15620600Y-9169400I25000J0D01*
G01*
X15722200Y-8392550D02*
G75*
G02*
X15672200Y-8392550I-25000J0D01*
G01*
X15672200Y-8392550D02*
G75*
G02*
X15722200Y-8392550I25000J0D01*
G01*
X15748840Y-9094440D02*
G75*
G02*
X15698840Y-9094440I-25000J0D01*
G01*
X15698840Y-9094440D02*
G75*
G02*
X15748840Y-9094440I25000J0D01*
G01*
X15874600Y-5430483D02*
G75*
G02*
X15824600Y-5430483I-25000J0D01*
G01*
X15824600Y-5430483D02*
G75*
G02*
X15874600Y-5430483I25000J0D01*
G01*
X16103200Y-5435600D02*
G75*
G02*
X16053200Y-5435600I-25000J0D01*
G01*
X16053200Y-5435600D02*
G75*
G02*
X16103200Y-5435600I25000J0D01*
G01*
X16306400Y-5435600D02*
G75*
G02*
X16256400Y-5435600I-25000J0D01*
G01*
X16256400Y-5435600D02*
G75*
G02*
X16306400Y-5435600I25000J0D01*
G01*
D13*
X14103000Y-5310500D02*
X14103000Y-5630500D01*
X13943000Y-5470500D02*
X14263000Y-5470500D01*
X14103000Y-9310500D02*
X14103000Y-9630500D01*
X13943000Y-9470500D02*
X14263000Y-9470500D01*
X16853000Y-5310500D02*
X16853000Y-5630500D01*
X16693000Y-5470500D02*
X17013000Y-5470500D01*
X16853000Y-9310500D02*
X16853000Y-9630500D01*
X16693000Y-9470500D02*
X17013000Y-9470500D01*
D11*
X14025077Y-10104652D02*
X14025077Y-9904652D01*
X14025077Y-9904652D02*
X14072696Y-9904652D01*
X14072696Y-9904652D02*
X14101267Y-9914176D01*
X14101267Y-9914176D02*
X14120315Y-9933223D01*
X14120315Y-9933223D02*
X14129839Y-9952271D01*
X14129839Y-9952271D02*
X14139362Y-9990366D01*
X14139362Y-9990366D02*
X14139362Y-10018938D01*
X14139362Y-10018938D02*
X14129839Y-10057033D01*
X14129839Y-10057033D02*
X14120315Y-10076080D01*
X14120315Y-10076080D02*
X14101267Y-10095128D01*
X14101267Y-10095128D02*
X14072696Y-10104652D01*
X14072696Y-10104652D02*
X14025077Y-10104652D01*
X14225077Y-10104652D02*
X14225077Y-9971318D01*
X14225077Y-10009414D02*
X14234601Y-9990366D01*
X14234601Y-9990366D02*
X14244124Y-9980842D01*
X14244124Y-9980842D02*
X14263172Y-9971318D01*
X14263172Y-9971318D02*
X14282220Y-9971318D01*
X14348886Y-10104652D02*
X14348886Y-9971318D01*
X14348886Y-9904652D02*
X14339362Y-9914176D01*
X14339362Y-9914176D02*
X14348886Y-9923699D01*
X14348886Y-9923699D02*
X14358410Y-9914176D01*
X14358410Y-9914176D02*
X14348886Y-9904652D01*
X14348886Y-9904652D02*
X14348886Y-9923699D01*
X14472696Y-10104652D02*
X14453648Y-10095128D01*
X14453648Y-10095128D02*
X14444124Y-10076080D01*
X14444124Y-10076080D02*
X14444124Y-9904652D01*
X14577458Y-10104652D02*
X14558410Y-10095128D01*
X14558410Y-10095128D02*
X14548886Y-10076080D01*
X14548886Y-10076080D02*
X14548886Y-9904652D01*
X14806029Y-10104652D02*
X14806029Y-9904652D01*
X14806029Y-9904652D02*
X14872696Y-10047509D01*
X14872696Y-10047509D02*
X14939362Y-9904652D01*
X14939362Y-9904652D02*
X14939362Y-10104652D01*
X15120315Y-10104652D02*
X15120315Y-9999890D01*
X15120315Y-9999890D02*
X15110791Y-9980842D01*
X15110791Y-9980842D02*
X15091743Y-9971318D01*
X15091743Y-9971318D02*
X15053648Y-9971318D01*
X15053648Y-9971318D02*
X15034601Y-9980842D01*
X15120315Y-10095128D02*
X15101267Y-10104652D01*
X15101267Y-10104652D02*
X15053648Y-10104652D01*
X15053648Y-10104652D02*
X15034601Y-10095128D01*
X15034601Y-10095128D02*
X15025077Y-10076080D01*
X15025077Y-10076080D02*
X15025077Y-10057033D01*
X15025077Y-10057033D02*
X15034601Y-10037985D01*
X15034601Y-10037985D02*
X15053648Y-10028461D01*
X15053648Y-10028461D02*
X15101267Y-10028461D01*
X15101267Y-10028461D02*
X15120315Y-10018938D01*
X15215553Y-9971318D02*
X15215553Y-10171318D01*
X15215553Y-9980842D02*
X15234601Y-9971318D01*
X15234601Y-9971318D02*
X15272696Y-9971318D01*
X15272696Y-9971318D02*
X15291743Y-9980842D01*
X15291743Y-9980842D02*
X15301267Y-9990366D01*
X15301267Y-9990366D02*
X15310791Y-10009414D01*
X15310791Y-10009414D02*
X15310791Y-10066557D01*
X15310791Y-10066557D02*
X15301267Y-10085604D01*
X15301267Y-10085604D02*
X15291743Y-10095128D01*
X15291743Y-10095128D02*
X15272696Y-10104652D01*
X15272696Y-10104652D02*
X15234601Y-10104652D01*
X15234601Y-10104652D02*
X15215553Y-10095128D01*
X15396505Y-10085604D02*
X15406029Y-10095128D01*
X15406029Y-10095128D02*
X15396505Y-10104652D01*
X15396505Y-10104652D02*
X15386982Y-10095128D01*
X15386982Y-10095128D02*
X15396505Y-10085604D01*
X15396505Y-10085604D02*
X15396505Y-10104652D01*
X15396505Y-9980842D02*
X15406029Y-9990366D01*
X15406029Y-9990366D02*
X15396505Y-9999890D01*
X15396505Y-9999890D02*
X15386982Y-9990366D01*
X15386982Y-9990366D02*
X15396505Y-9980842D01*
X15396505Y-9980842D02*
X15396505Y-9999890D01*
D12*
X13734300Y-10418168D02*
X13764300Y-10448168D01*
X13764300Y-10418168D02*
X13734300Y-10448168D01*
D11*
X14063172Y-10324652D02*
X14082220Y-10324652D01*
X14082220Y-10324652D02*
X14101267Y-10334176D01*
X14101267Y-10334176D02*
X14110791Y-10343699D01*
X14110791Y-10343699D02*
X14120315Y-10362747D01*
X14120315Y-10362747D02*
X14129839Y-10400842D01*
X14129839Y-10400842D02*
X14129839Y-10448461D01*
X14129839Y-10448461D02*
X14120315Y-10486557D01*
X14120315Y-10486557D02*
X14110791Y-10505604D01*
X14110791Y-10505604D02*
X14101267Y-10515128D01*
X14101267Y-10515128D02*
X14082220Y-10524652D01*
X14082220Y-10524652D02*
X14063172Y-10524652D01*
X14063172Y-10524652D02*
X14044124Y-10515128D01*
X14044124Y-10515128D02*
X14034601Y-10505604D01*
X14034601Y-10505604D02*
X14025077Y-10486557D01*
X14025077Y-10486557D02*
X14015553Y-10448461D01*
X14015553Y-10448461D02*
X14015553Y-10400842D01*
X14015553Y-10400842D02*
X14025077Y-10362747D01*
X14025077Y-10362747D02*
X14034601Y-10343699D01*
X14034601Y-10343699D02*
X14044124Y-10334176D01*
X14044124Y-10334176D02*
X14063172Y-10324652D01*
X14215553Y-10505604D02*
X14225077Y-10515128D01*
X14225077Y-10515128D02*
X14215553Y-10524652D01*
X14215553Y-10524652D02*
X14206029Y-10515128D01*
X14206029Y-10515128D02*
X14215553Y-10505604D01*
X14215553Y-10505604D02*
X14215553Y-10524652D01*
X14291743Y-10324652D02*
X14415553Y-10324652D01*
X14415553Y-10324652D02*
X14348886Y-10400842D01*
X14348886Y-10400842D02*
X14377458Y-10400842D01*
X14377458Y-10400842D02*
X14396505Y-10410366D01*
X14396505Y-10410366D02*
X14406029Y-10419890D01*
X14406029Y-10419890D02*
X14415553Y-10438938D01*
X14415553Y-10438938D02*
X14415553Y-10486557D01*
X14415553Y-10486557D02*
X14406029Y-10505604D01*
X14406029Y-10505604D02*
X14396505Y-10515128D01*
X14396505Y-10515128D02*
X14377458Y-10524652D01*
X14377458Y-10524652D02*
X14320315Y-10524652D01*
X14320315Y-10524652D02*
X14301267Y-10515128D01*
X14301267Y-10515128D02*
X14291743Y-10505604D01*
X14539362Y-10324652D02*
X14558410Y-10324652D01*
X14558410Y-10324652D02*
X14577458Y-10334176D01*
X14577458Y-10334176D02*
X14586982Y-10343699D01*
X14586982Y-10343699D02*
X14596505Y-10362747D01*
X14596505Y-10362747D02*
X14606029Y-10400842D01*
X14606029Y-10400842D02*
X14606029Y-10448461D01*
X14606029Y-10448461D02*
X14596505Y-10486557D01*
X14596505Y-10486557D02*
X14586982Y-10505604D01*
X14586982Y-10505604D02*
X14577458Y-10515128D01*
X14577458Y-10515128D02*
X14558410Y-10524652D01*
X14558410Y-10524652D02*
X14539362Y-10524652D01*
X14539362Y-10524652D02*
X14520315Y-10515128D01*
X14520315Y-10515128D02*
X14510791Y-10505604D01*
X14510791Y-10505604D02*
X14501267Y-10486557D01*
X14501267Y-10486557D02*
X14491743Y-10448461D01*
X14491743Y-10448461D02*
X14491743Y-10400842D01*
X14491743Y-10400842D02*
X14501267Y-10362747D01*
X14501267Y-10362747D02*
X14510791Y-10343699D01*
X14510791Y-10343699D02*
X14520315Y-10334176D01*
X14520315Y-10334176D02*
X14539362Y-10324652D01*
X14729839Y-10324652D02*
X14748886Y-10324652D01*
X14748886Y-10324652D02*
X14767934Y-10334176D01*
X14767934Y-10334176D02*
X14777458Y-10343699D01*
X14777458Y-10343699D02*
X14786982Y-10362747D01*
X14786982Y-10362747D02*
X14796505Y-10400842D01*
X14796505Y-10400842D02*
X14796505Y-10448461D01*
X14796505Y-10448461D02*
X14786982Y-10486557D01*
X14786982Y-10486557D02*
X14777458Y-10505604D01*
X14777458Y-10505604D02*
X14767934Y-10515128D01*
X14767934Y-10515128D02*
X14748886Y-10524652D01*
X14748886Y-10524652D02*
X14729839Y-10524652D01*
X14729839Y-10524652D02*
X14710791Y-10515128D01*
X14710791Y-10515128D02*
X14701267Y-10505604D01*
X14701267Y-10505604D02*
X14691743Y-10486557D01*
X14691743Y-10486557D02*
X14682220Y-10448461D01*
X14682220Y-10448461D02*
X14682220Y-10400842D01*
X14682220Y-10400842D02*
X14691743Y-10362747D01*
X14691743Y-10362747D02*
X14701267Y-10343699D01*
X14701267Y-10343699D02*
X14710791Y-10334176D01*
X14710791Y-10334176D02*
X14729839Y-10324652D01*
X14882220Y-10524652D02*
X14882220Y-10391318D01*
X14882220Y-10410366D02*
X14891743Y-10400842D01*
X14891743Y-10400842D02*
X14910791Y-10391318D01*
X14910791Y-10391318D02*
X14939363Y-10391318D01*
X14939363Y-10391318D02*
X14958410Y-10400842D01*
X14958410Y-10400842D02*
X14967934Y-10419890D01*
X14967934Y-10419890D02*
X14967934Y-10524652D01*
X14967934Y-10419890D02*
X14977458Y-10400842D01*
X14977458Y-10400842D02*
X14996505Y-10391318D01*
X14996505Y-10391318D02*
X15025077Y-10391318D01*
X15025077Y-10391318D02*
X15044124Y-10400842D01*
X15044124Y-10400842D02*
X15053648Y-10419890D01*
X15053648Y-10419890D02*
X15053648Y-10524652D01*
X15148886Y-10524652D02*
X15148886Y-10391318D01*
X15148886Y-10410366D02*
X15158410Y-10400842D01*
X15158410Y-10400842D02*
X15177458Y-10391318D01*
X15177458Y-10391318D02*
X15206029Y-10391318D01*
X15206029Y-10391318D02*
X15225077Y-10400842D01*
X15225077Y-10400842D02*
X15234601Y-10419890D01*
X15234601Y-10419890D02*
X15234601Y-10524652D01*
X15234601Y-10419890D02*
X15244124Y-10400842D01*
X15244124Y-10400842D02*
X15263172Y-10391318D01*
X15263172Y-10391318D02*
X15291743Y-10391318D01*
X15291743Y-10391318D02*
X15310791Y-10400842D01*
X15310791Y-10400842D02*
X15320315Y-10419890D01*
X15320315Y-10419890D02*
X15320315Y-10524652D01*
X15710791Y-10315128D02*
X15539363Y-10572271D01*
X15967934Y-10324652D02*
X15986982Y-10324652D01*
X15986982Y-10324652D02*
X16006029Y-10334176D01*
X16006029Y-10334176D02*
X16015553Y-10343699D01*
X16015553Y-10343699D02*
X16025077Y-10362747D01*
X16025077Y-10362747D02*
X16034601Y-10400842D01*
X16034601Y-10400842D02*
X16034601Y-10448461D01*
X16034601Y-10448461D02*
X16025077Y-10486557D01*
X16025077Y-10486557D02*
X16015553Y-10505604D01*
X16015553Y-10505604D02*
X16006029Y-10515128D01*
X16006029Y-10515128D02*
X15986982Y-10524652D01*
X15986982Y-10524652D02*
X15967934Y-10524652D01*
X15967934Y-10524652D02*
X15948886Y-10515128D01*
X15948886Y-10515128D02*
X15939363Y-10505604D01*
X15939363Y-10505604D02*
X15929839Y-10486557D01*
X15929839Y-10486557D02*
X15920315Y-10448461D01*
X15920315Y-10448461D02*
X15920315Y-10400842D01*
X15920315Y-10400842D02*
X15929839Y-10362747D01*
X15929839Y-10362747D02*
X15939363Y-10343699D01*
X15939363Y-10343699D02*
X15948886Y-10334176D01*
X15948886Y-10334176D02*
X15967934Y-10324652D01*
X16120315Y-10505604D02*
X16129839Y-10515128D01*
X16129839Y-10515128D02*
X16120315Y-10524652D01*
X16120315Y-10524652D02*
X16110791Y-10515128D01*
X16110791Y-10515128D02*
X16120315Y-10505604D01*
X16120315Y-10505604D02*
X16120315Y-10524652D01*
X16253648Y-10324652D02*
X16272696Y-10324652D01*
X16272696Y-10324652D02*
X16291744Y-10334176D01*
X16291744Y-10334176D02*
X16301267Y-10343699D01*
X16301267Y-10343699D02*
X16310791Y-10362747D01*
X16310791Y-10362747D02*
X16320315Y-10400842D01*
X16320315Y-10400842D02*
X16320315Y-10448461D01*
X16320315Y-10448461D02*
X16310791Y-10486557D01*
X16310791Y-10486557D02*
X16301267Y-10505604D01*
X16301267Y-10505604D02*
X16291744Y-10515128D01*
X16291744Y-10515128D02*
X16272696Y-10524652D01*
X16272696Y-10524652D02*
X16253648Y-10524652D01*
X16253648Y-10524652D02*
X16234601Y-10515128D01*
X16234601Y-10515128D02*
X16225077Y-10505604D01*
X16225077Y-10505604D02*
X16215553Y-10486557D01*
X16215553Y-10486557D02*
X16206029Y-10448461D01*
X16206029Y-10448461D02*
X16206029Y-10400842D01*
X16206029Y-10400842D02*
X16215553Y-10362747D01*
X16215553Y-10362747D02*
X16225077Y-10343699D01*
X16225077Y-10343699D02*
X16234601Y-10334176D01*
X16234601Y-10334176D02*
X16253648Y-10324652D01*
X16510791Y-10524652D02*
X16396506Y-10524652D01*
X16453648Y-10524652D02*
X16453648Y-10324652D01*
X16453648Y-10324652D02*
X16434601Y-10353223D01*
X16434601Y-10353223D02*
X16415553Y-10372271D01*
X16415553Y-10372271D02*
X16396506Y-10381795D01*
X16701267Y-10524652D02*
X16586982Y-10524652D01*
X16644125Y-10524652D02*
X16644125Y-10324652D01*
X16644125Y-10324652D02*
X16625077Y-10353223D01*
X16625077Y-10353223D02*
X16606029Y-10372271D01*
X16606029Y-10372271D02*
X16586982Y-10381795D01*
X16815553Y-10410366D02*
X16796506Y-10400842D01*
X16796506Y-10400842D02*
X16786982Y-10391318D01*
X16786982Y-10391318D02*
X16777458Y-10372271D01*
X16777458Y-10372271D02*
X16777458Y-10362747D01*
X16777458Y-10362747D02*
X16786982Y-10343699D01*
X16786982Y-10343699D02*
X16796506Y-10334176D01*
X16796506Y-10334176D02*
X16815553Y-10324652D01*
X16815553Y-10324652D02*
X16853649Y-10324652D01*
X16853649Y-10324652D02*
X16872696Y-10334176D01*
X16872696Y-10334176D02*
X16882220Y-10343699D01*
X16882220Y-10343699D02*
X16891744Y-10362747D01*
X16891744Y-10362747D02*
X16891744Y-10372271D01*
X16891744Y-10372271D02*
X16882220Y-10391318D01*
X16882220Y-10391318D02*
X16872696Y-10400842D01*
X16872696Y-10400842D02*
X16853649Y-10410366D01*
X16853649Y-10410366D02*
X16815553Y-10410366D01*
X16815553Y-10410366D02*
X16796506Y-10419890D01*
X16796506Y-10419890D02*
X16786982Y-10429414D01*
X16786982Y-10429414D02*
X16777458Y-10448461D01*
X16777458Y-10448461D02*
X16777458Y-10486557D01*
X16777458Y-10486557D02*
X16786982Y-10505604D01*
X16786982Y-10505604D02*
X16796506Y-10515128D01*
X16796506Y-10515128D02*
X16815553Y-10524652D01*
X16815553Y-10524652D02*
X16853649Y-10524652D01*
X16853649Y-10524652D02*
X16872696Y-10515128D01*
X16872696Y-10515128D02*
X16882220Y-10505604D01*
X16882220Y-10505604D02*
X16891744Y-10486557D01*
X16891744Y-10486557D02*
X16891744Y-10448461D01*
X16891744Y-10448461D02*
X16882220Y-10429414D01*
X16882220Y-10429414D02*
X16872696Y-10419890D01*
X16872696Y-10419890D02*
X16853649Y-10410366D01*
X16967934Y-10324652D02*
X16967934Y-10362747D01*
X17044125Y-10324652D02*
X17044125Y-10362747D01*
X17339363Y-10600842D02*
X17329839Y-10591318D01*
X17329839Y-10591318D02*
X17310791Y-10562747D01*
X17310791Y-10562747D02*
X17301268Y-10543699D01*
X17301268Y-10543699D02*
X17291744Y-10515128D01*
X17291744Y-10515128D02*
X17282220Y-10467509D01*
X17282220Y-10467509D02*
X17282220Y-10429414D01*
X17282220Y-10429414D02*
X17291744Y-10381795D01*
X17291744Y-10381795D02*
X17301268Y-10353223D01*
X17301268Y-10353223D02*
X17310791Y-10334176D01*
X17310791Y-10334176D02*
X17329839Y-10305604D01*
X17329839Y-10305604D02*
X17339363Y-10296080D01*
X17520315Y-10524652D02*
X17406030Y-10524652D01*
X17463172Y-10524652D02*
X17463172Y-10324652D01*
X17463172Y-10324652D02*
X17444125Y-10353223D01*
X17444125Y-10353223D02*
X17425077Y-10372271D01*
X17425077Y-10372271D02*
X17406030Y-10381795D01*
X17701268Y-10324652D02*
X17606030Y-10324652D01*
X17606030Y-10324652D02*
X17596506Y-10419890D01*
X17596506Y-10419890D02*
X17606030Y-10410366D01*
X17606030Y-10410366D02*
X17625077Y-10400842D01*
X17625077Y-10400842D02*
X17672696Y-10400842D01*
X17672696Y-10400842D02*
X17691744Y-10410366D01*
X17691744Y-10410366D02*
X17701268Y-10419890D01*
X17701268Y-10419890D02*
X17710791Y-10438938D01*
X17710791Y-10438938D02*
X17710791Y-10486557D01*
X17710791Y-10486557D02*
X17701268Y-10505604D01*
X17701268Y-10505604D02*
X17691744Y-10515128D01*
X17691744Y-10515128D02*
X17672696Y-10524652D01*
X17672696Y-10524652D02*
X17625077Y-10524652D01*
X17625077Y-10524652D02*
X17606030Y-10515128D01*
X17606030Y-10515128D02*
X17596506Y-10505604D01*
X17948887Y-10524652D02*
X17948887Y-10324652D01*
X18034601Y-10524652D02*
X18034601Y-10419890D01*
X18034601Y-10419890D02*
X18025077Y-10400842D01*
X18025077Y-10400842D02*
X18006030Y-10391318D01*
X18006030Y-10391318D02*
X17977458Y-10391318D01*
X17977458Y-10391318D02*
X17958411Y-10400842D01*
X17958411Y-10400842D02*
X17948887Y-10410366D01*
X18158411Y-10524652D02*
X18139363Y-10515128D01*
X18139363Y-10515128D02*
X18129839Y-10505604D01*
X18129839Y-10505604D02*
X18120315Y-10486557D01*
X18120315Y-10486557D02*
X18120315Y-10429414D01*
X18120315Y-10429414D02*
X18129839Y-10410366D01*
X18129839Y-10410366D02*
X18139363Y-10400842D01*
X18139363Y-10400842D02*
X18158411Y-10391318D01*
X18158411Y-10391318D02*
X18186982Y-10391318D01*
X18186982Y-10391318D02*
X18206030Y-10400842D01*
X18206030Y-10400842D02*
X18215553Y-10410366D01*
X18215553Y-10410366D02*
X18225077Y-10429414D01*
X18225077Y-10429414D02*
X18225077Y-10486557D01*
X18225077Y-10486557D02*
X18215553Y-10505604D01*
X18215553Y-10505604D02*
X18206030Y-10515128D01*
X18206030Y-10515128D02*
X18186982Y-10524652D01*
X18186982Y-10524652D02*
X18158411Y-10524652D01*
X18339363Y-10524652D02*
X18320315Y-10515128D01*
X18320315Y-10515128D02*
X18310792Y-10496080D01*
X18310792Y-10496080D02*
X18310792Y-10324652D01*
X18491744Y-10515128D02*
X18472696Y-10524652D01*
X18472696Y-10524652D02*
X18434601Y-10524652D01*
X18434601Y-10524652D02*
X18415553Y-10515128D01*
X18415553Y-10515128D02*
X18406030Y-10496080D01*
X18406030Y-10496080D02*
X18406030Y-10419890D01*
X18406030Y-10419890D02*
X18415553Y-10400842D01*
X18415553Y-10400842D02*
X18434601Y-10391318D01*
X18434601Y-10391318D02*
X18472696Y-10391318D01*
X18472696Y-10391318D02*
X18491744Y-10400842D01*
X18491744Y-10400842D02*
X18501268Y-10419890D01*
X18501268Y-10419890D02*
X18501268Y-10438938D01*
X18501268Y-10438938D02*
X18406030Y-10457985D01*
X18577458Y-10515128D02*
X18596506Y-10524652D01*
X18596506Y-10524652D02*
X18634601Y-10524652D01*
X18634601Y-10524652D02*
X18653649Y-10515128D01*
X18653649Y-10515128D02*
X18663173Y-10496080D01*
X18663173Y-10496080D02*
X18663173Y-10486557D01*
X18663173Y-10486557D02*
X18653649Y-10467509D01*
X18653649Y-10467509D02*
X18634601Y-10457985D01*
X18634601Y-10457985D02*
X18606030Y-10457985D01*
X18606030Y-10457985D02*
X18586982Y-10448461D01*
X18586982Y-10448461D02*
X18577458Y-10429414D01*
X18577458Y-10429414D02*
X18577458Y-10419890D01*
X18577458Y-10419890D02*
X18586982Y-10400842D01*
X18586982Y-10400842D02*
X18606030Y-10391318D01*
X18606030Y-10391318D02*
X18634601Y-10391318D01*
X18634601Y-10391318D02*
X18653649Y-10400842D01*
X18729839Y-10600842D02*
X18739363Y-10591318D01*
X18739363Y-10591318D02*
X18758411Y-10562747D01*
X18758411Y-10562747D02*
X18767934Y-10543699D01*
X18767934Y-10543699D02*
X18777458Y-10515128D01*
X18777458Y-10515128D02*
X18786982Y-10467509D01*
X18786982Y-10467509D02*
X18786982Y-10429414D01*
X18786982Y-10429414D02*
X18777458Y-10381795D01*
X18777458Y-10381795D02*
X18767934Y-10353223D01*
X18767934Y-10353223D02*
X18758411Y-10334176D01*
X18758411Y-10334176D02*
X18739363Y-10305604D01*
X18739363Y-10305604D02*
X18729839Y-10296080D01*
D12*
X13764300Y-10697168D02*
G75*
G02*
X13714300Y-10697168I-25000J0D01*
G01*
X13714300Y-10697168D02*
G75*
G02*
X13764300Y-10697168I25000J0D01*
G01*
D11*
X14063172Y-10588652D02*
X14082220Y-10588652D01*
X14082220Y-10588652D02*
X14101267Y-10598176D01*
X14101267Y-10598176D02*
X14110791Y-10607699D01*
X14110791Y-10607699D02*
X14120315Y-10626747D01*
X14120315Y-10626747D02*
X14129839Y-10664842D01*
X14129839Y-10664842D02*
X14129839Y-10712461D01*
X14129839Y-10712461D02*
X14120315Y-10750557D01*
X14120315Y-10750557D02*
X14110791Y-10769604D01*
X14110791Y-10769604D02*
X14101267Y-10779128D01*
X14101267Y-10779128D02*
X14082220Y-10788652D01*
X14082220Y-10788652D02*
X14063172Y-10788652D01*
X14063172Y-10788652D02*
X14044124Y-10779128D01*
X14044124Y-10779128D02*
X14034601Y-10769604D01*
X14034601Y-10769604D02*
X14025077Y-10750557D01*
X14025077Y-10750557D02*
X14015553Y-10712461D01*
X14015553Y-10712461D02*
X14015553Y-10664842D01*
X14015553Y-10664842D02*
X14025077Y-10626747D01*
X14025077Y-10626747D02*
X14034601Y-10607699D01*
X14034601Y-10607699D02*
X14044124Y-10598176D01*
X14044124Y-10598176D02*
X14063172Y-10588652D01*
X14215553Y-10769604D02*
X14225077Y-10779128D01*
X14225077Y-10779128D02*
X14215553Y-10788652D01*
X14215553Y-10788652D02*
X14206029Y-10779128D01*
X14206029Y-10779128D02*
X14215553Y-10769604D01*
X14215553Y-10769604D02*
X14215553Y-10788652D01*
X14406029Y-10588652D02*
X14310791Y-10588652D01*
X14310791Y-10588652D02*
X14301267Y-10683890D01*
X14301267Y-10683890D02*
X14310791Y-10674366D01*
X14310791Y-10674366D02*
X14329839Y-10664842D01*
X14329839Y-10664842D02*
X14377458Y-10664842D01*
X14377458Y-10664842D02*
X14396505Y-10674366D01*
X14396505Y-10674366D02*
X14406029Y-10683890D01*
X14406029Y-10683890D02*
X14415553Y-10702938D01*
X14415553Y-10702938D02*
X14415553Y-10750557D01*
X14415553Y-10750557D02*
X14406029Y-10769604D01*
X14406029Y-10769604D02*
X14396505Y-10779128D01*
X14396505Y-10779128D02*
X14377458Y-10788652D01*
X14377458Y-10788652D02*
X14329839Y-10788652D01*
X14329839Y-10788652D02*
X14310791Y-10779128D01*
X14310791Y-10779128D02*
X14301267Y-10769604D01*
X14539362Y-10588652D02*
X14558410Y-10588652D01*
X14558410Y-10588652D02*
X14577458Y-10598176D01*
X14577458Y-10598176D02*
X14586982Y-10607699D01*
X14586982Y-10607699D02*
X14596505Y-10626747D01*
X14596505Y-10626747D02*
X14606029Y-10664842D01*
X14606029Y-10664842D02*
X14606029Y-10712461D01*
X14606029Y-10712461D02*
X14596505Y-10750557D01*
X14596505Y-10750557D02*
X14586982Y-10769604D01*
X14586982Y-10769604D02*
X14577458Y-10779128D01*
X14577458Y-10779128D02*
X14558410Y-10788652D01*
X14558410Y-10788652D02*
X14539362Y-10788652D01*
X14539362Y-10788652D02*
X14520315Y-10779128D01*
X14520315Y-10779128D02*
X14510791Y-10769604D01*
X14510791Y-10769604D02*
X14501267Y-10750557D01*
X14501267Y-10750557D02*
X14491743Y-10712461D01*
X14491743Y-10712461D02*
X14491743Y-10664842D01*
X14491743Y-10664842D02*
X14501267Y-10626747D01*
X14501267Y-10626747D02*
X14510791Y-10607699D01*
X14510791Y-10607699D02*
X14520315Y-10598176D01*
X14520315Y-10598176D02*
X14539362Y-10588652D01*
X14729839Y-10588652D02*
X14748886Y-10588652D01*
X14748886Y-10588652D02*
X14767934Y-10598176D01*
X14767934Y-10598176D02*
X14777458Y-10607699D01*
X14777458Y-10607699D02*
X14786982Y-10626747D01*
X14786982Y-10626747D02*
X14796505Y-10664842D01*
X14796505Y-10664842D02*
X14796505Y-10712461D01*
X14796505Y-10712461D02*
X14786982Y-10750557D01*
X14786982Y-10750557D02*
X14777458Y-10769604D01*
X14777458Y-10769604D02*
X14767934Y-10779128D01*
X14767934Y-10779128D02*
X14748886Y-10788652D01*
X14748886Y-10788652D02*
X14729839Y-10788652D01*
X14729839Y-10788652D02*
X14710791Y-10779128D01*
X14710791Y-10779128D02*
X14701267Y-10769604D01*
X14701267Y-10769604D02*
X14691743Y-10750557D01*
X14691743Y-10750557D02*
X14682220Y-10712461D01*
X14682220Y-10712461D02*
X14682220Y-10664842D01*
X14682220Y-10664842D02*
X14691743Y-10626747D01*
X14691743Y-10626747D02*
X14701267Y-10607699D01*
X14701267Y-10607699D02*
X14710791Y-10598176D01*
X14710791Y-10598176D02*
X14729839Y-10588652D01*
X14882220Y-10788652D02*
X14882220Y-10655318D01*
X14882220Y-10674366D02*
X14891743Y-10664842D01*
X14891743Y-10664842D02*
X14910791Y-10655318D01*
X14910791Y-10655318D02*
X14939363Y-10655318D01*
X14939363Y-10655318D02*
X14958410Y-10664842D01*
X14958410Y-10664842D02*
X14967934Y-10683890D01*
X14967934Y-10683890D02*
X14967934Y-10788652D01*
X14967934Y-10683890D02*
X14977458Y-10664842D01*
X14977458Y-10664842D02*
X14996505Y-10655318D01*
X14996505Y-10655318D02*
X15025077Y-10655318D01*
X15025077Y-10655318D02*
X15044124Y-10664842D01*
X15044124Y-10664842D02*
X15053648Y-10683890D01*
X15053648Y-10683890D02*
X15053648Y-10788652D01*
X15148886Y-10788652D02*
X15148886Y-10655318D01*
X15148886Y-10674366D02*
X15158410Y-10664842D01*
X15158410Y-10664842D02*
X15177458Y-10655318D01*
X15177458Y-10655318D02*
X15206029Y-10655318D01*
X15206029Y-10655318D02*
X15225077Y-10664842D01*
X15225077Y-10664842D02*
X15234601Y-10683890D01*
X15234601Y-10683890D02*
X15234601Y-10788652D01*
X15234601Y-10683890D02*
X15244124Y-10664842D01*
X15244124Y-10664842D02*
X15263172Y-10655318D01*
X15263172Y-10655318D02*
X15291743Y-10655318D01*
X15291743Y-10655318D02*
X15310791Y-10664842D01*
X15310791Y-10664842D02*
X15320315Y-10683890D01*
X15320315Y-10683890D02*
X15320315Y-10788652D01*
X15710791Y-10579128D02*
X15539363Y-10836271D01*
X15967934Y-10588652D02*
X15986982Y-10588652D01*
X15986982Y-10588652D02*
X16006029Y-10598176D01*
X16006029Y-10598176D02*
X16015553Y-10607699D01*
X16015553Y-10607699D02*
X16025077Y-10626747D01*
X16025077Y-10626747D02*
X16034601Y-10664842D01*
X16034601Y-10664842D02*
X16034601Y-10712461D01*
X16034601Y-10712461D02*
X16025077Y-10750557D01*
X16025077Y-10750557D02*
X16015553Y-10769604D01*
X16015553Y-10769604D02*
X16006029Y-10779128D01*
X16006029Y-10779128D02*
X15986982Y-10788652D01*
X15986982Y-10788652D02*
X15967934Y-10788652D01*
X15967934Y-10788652D02*
X15948886Y-10779128D01*
X15948886Y-10779128D02*
X15939363Y-10769604D01*
X15939363Y-10769604D02*
X15929839Y-10750557D01*
X15929839Y-10750557D02*
X15920315Y-10712461D01*
X15920315Y-10712461D02*
X15920315Y-10664842D01*
X15920315Y-10664842D02*
X15929839Y-10626747D01*
X15929839Y-10626747D02*
X15939363Y-10607699D01*
X15939363Y-10607699D02*
X15948886Y-10598176D01*
X15948886Y-10598176D02*
X15967934Y-10588652D01*
X16120315Y-10769604D02*
X16129839Y-10779128D01*
X16129839Y-10779128D02*
X16120315Y-10788652D01*
X16120315Y-10788652D02*
X16110791Y-10779128D01*
X16110791Y-10779128D02*
X16120315Y-10769604D01*
X16120315Y-10769604D02*
X16120315Y-10788652D01*
X16253648Y-10588652D02*
X16272696Y-10588652D01*
X16272696Y-10588652D02*
X16291744Y-10598176D01*
X16291744Y-10598176D02*
X16301267Y-10607699D01*
X16301267Y-10607699D02*
X16310791Y-10626747D01*
X16310791Y-10626747D02*
X16320315Y-10664842D01*
X16320315Y-10664842D02*
X16320315Y-10712461D01*
X16320315Y-10712461D02*
X16310791Y-10750557D01*
X16310791Y-10750557D02*
X16301267Y-10769604D01*
X16301267Y-10769604D02*
X16291744Y-10779128D01*
X16291744Y-10779128D02*
X16272696Y-10788652D01*
X16272696Y-10788652D02*
X16253648Y-10788652D01*
X16253648Y-10788652D02*
X16234601Y-10779128D01*
X16234601Y-10779128D02*
X16225077Y-10769604D01*
X16225077Y-10769604D02*
X16215553Y-10750557D01*
X16215553Y-10750557D02*
X16206029Y-10712461D01*
X16206029Y-10712461D02*
X16206029Y-10664842D01*
X16206029Y-10664842D02*
X16215553Y-10626747D01*
X16215553Y-10626747D02*
X16225077Y-10607699D01*
X16225077Y-10607699D02*
X16234601Y-10598176D01*
X16234601Y-10598176D02*
X16253648Y-10588652D01*
X16510791Y-10788652D02*
X16396506Y-10788652D01*
X16453648Y-10788652D02*
X16453648Y-10588652D01*
X16453648Y-10588652D02*
X16434601Y-10617223D01*
X16434601Y-10617223D02*
X16415553Y-10636271D01*
X16415553Y-10636271D02*
X16396506Y-10645795D01*
X16606029Y-10788652D02*
X16644125Y-10788652D01*
X16644125Y-10788652D02*
X16663172Y-10779128D01*
X16663172Y-10779128D02*
X16672696Y-10769604D01*
X16672696Y-10769604D02*
X16691744Y-10741033D01*
X16691744Y-10741033D02*
X16701267Y-10702938D01*
X16701267Y-10702938D02*
X16701267Y-10626747D01*
X16701267Y-10626747D02*
X16691744Y-10607699D01*
X16691744Y-10607699D02*
X16682220Y-10598176D01*
X16682220Y-10598176D02*
X16663172Y-10588652D01*
X16663172Y-10588652D02*
X16625077Y-10588652D01*
X16625077Y-10588652D02*
X16606029Y-10598176D01*
X16606029Y-10598176D02*
X16596506Y-10607699D01*
X16596506Y-10607699D02*
X16586982Y-10626747D01*
X16586982Y-10626747D02*
X16586982Y-10674366D01*
X16586982Y-10674366D02*
X16596506Y-10693414D01*
X16596506Y-10693414D02*
X16606029Y-10702938D01*
X16606029Y-10702938D02*
X16625077Y-10712461D01*
X16625077Y-10712461D02*
X16663172Y-10712461D01*
X16663172Y-10712461D02*
X16682220Y-10702938D01*
X16682220Y-10702938D02*
X16691744Y-10693414D01*
X16691744Y-10693414D02*
X16701267Y-10674366D01*
X16767934Y-10588652D02*
X16901268Y-10588652D01*
X16901268Y-10588652D02*
X16815553Y-10788652D01*
X16967934Y-10588652D02*
X16967934Y-10626747D01*
X17044125Y-10588652D02*
X17044125Y-10626747D01*
X17339363Y-10864842D02*
X17329839Y-10855318D01*
X17329839Y-10855318D02*
X17310791Y-10826747D01*
X17310791Y-10826747D02*
X17301268Y-10807699D01*
X17301268Y-10807699D02*
X17291744Y-10779128D01*
X17291744Y-10779128D02*
X17282220Y-10731509D01*
X17282220Y-10731509D02*
X17282220Y-10693414D01*
X17282220Y-10693414D02*
X17291744Y-10645795D01*
X17291744Y-10645795D02*
X17301268Y-10617223D01*
X17301268Y-10617223D02*
X17310791Y-10598176D01*
X17310791Y-10598176D02*
X17329839Y-10569604D01*
X17329839Y-10569604D02*
X17339363Y-10560080D01*
X17396506Y-10588652D02*
X17520315Y-10588652D01*
X17520315Y-10588652D02*
X17453649Y-10664842D01*
X17453649Y-10664842D02*
X17482220Y-10664842D01*
X17482220Y-10664842D02*
X17501268Y-10674366D01*
X17501268Y-10674366D02*
X17510791Y-10683890D01*
X17510791Y-10683890D02*
X17520315Y-10702938D01*
X17520315Y-10702938D02*
X17520315Y-10750557D01*
X17520315Y-10750557D02*
X17510791Y-10769604D01*
X17510791Y-10769604D02*
X17501268Y-10779128D01*
X17501268Y-10779128D02*
X17482220Y-10788652D01*
X17482220Y-10788652D02*
X17425077Y-10788652D01*
X17425077Y-10788652D02*
X17406030Y-10779128D01*
X17406030Y-10779128D02*
X17396506Y-10769604D01*
X17710791Y-10788652D02*
X17596506Y-10788652D01*
X17653649Y-10788652D02*
X17653649Y-10588652D01*
X17653649Y-10588652D02*
X17634601Y-10617223D01*
X17634601Y-10617223D02*
X17615553Y-10636271D01*
X17615553Y-10636271D02*
X17596506Y-10645795D01*
X17948887Y-10788652D02*
X17948887Y-10588652D01*
X18034601Y-10788652D02*
X18034601Y-10683890D01*
X18034601Y-10683890D02*
X18025077Y-10664842D01*
X18025077Y-10664842D02*
X18006030Y-10655318D01*
X18006030Y-10655318D02*
X17977458Y-10655318D01*
X17977458Y-10655318D02*
X17958411Y-10664842D01*
X17958411Y-10664842D02*
X17948887Y-10674366D01*
X18158411Y-10788652D02*
X18139363Y-10779128D01*
X18139363Y-10779128D02*
X18129839Y-10769604D01*
X18129839Y-10769604D02*
X18120315Y-10750557D01*
X18120315Y-10750557D02*
X18120315Y-10693414D01*
X18120315Y-10693414D02*
X18129839Y-10674366D01*
X18129839Y-10674366D02*
X18139363Y-10664842D01*
X18139363Y-10664842D02*
X18158411Y-10655318D01*
X18158411Y-10655318D02*
X18186982Y-10655318D01*
X18186982Y-10655318D02*
X18206030Y-10664842D01*
X18206030Y-10664842D02*
X18215553Y-10674366D01*
X18215553Y-10674366D02*
X18225077Y-10693414D01*
X18225077Y-10693414D02*
X18225077Y-10750557D01*
X18225077Y-10750557D02*
X18215553Y-10769604D01*
X18215553Y-10769604D02*
X18206030Y-10779128D01*
X18206030Y-10779128D02*
X18186982Y-10788652D01*
X18186982Y-10788652D02*
X18158411Y-10788652D01*
X18339363Y-10788652D02*
X18320315Y-10779128D01*
X18320315Y-10779128D02*
X18310792Y-10760080D01*
X18310792Y-10760080D02*
X18310792Y-10588652D01*
X18491744Y-10779128D02*
X18472696Y-10788652D01*
X18472696Y-10788652D02*
X18434601Y-10788652D01*
X18434601Y-10788652D02*
X18415553Y-10779128D01*
X18415553Y-10779128D02*
X18406030Y-10760080D01*
X18406030Y-10760080D02*
X18406030Y-10683890D01*
X18406030Y-10683890D02*
X18415553Y-10664842D01*
X18415553Y-10664842D02*
X18434601Y-10655318D01*
X18434601Y-10655318D02*
X18472696Y-10655318D01*
X18472696Y-10655318D02*
X18491744Y-10664842D01*
X18491744Y-10664842D02*
X18501268Y-10683890D01*
X18501268Y-10683890D02*
X18501268Y-10702938D01*
X18501268Y-10702938D02*
X18406030Y-10721985D01*
X18577458Y-10779128D02*
X18596506Y-10788652D01*
X18596506Y-10788652D02*
X18634601Y-10788652D01*
X18634601Y-10788652D02*
X18653649Y-10779128D01*
X18653649Y-10779128D02*
X18663173Y-10760080D01*
X18663173Y-10760080D02*
X18663173Y-10750557D01*
X18663173Y-10750557D02*
X18653649Y-10731509D01*
X18653649Y-10731509D02*
X18634601Y-10721985D01*
X18634601Y-10721985D02*
X18606030Y-10721985D01*
X18606030Y-10721985D02*
X18586982Y-10712461D01*
X18586982Y-10712461D02*
X18577458Y-10693414D01*
X18577458Y-10693414D02*
X18577458Y-10683890D01*
X18577458Y-10683890D02*
X18586982Y-10664842D01*
X18586982Y-10664842D02*
X18606030Y-10655318D01*
X18606030Y-10655318D02*
X18634601Y-10655318D01*
X18634601Y-10655318D02*
X18653649Y-10664842D01*
X18729839Y-10864842D02*
X18739363Y-10855318D01*
X18739363Y-10855318D02*
X18758411Y-10826747D01*
X18758411Y-10826747D02*
X18767934Y-10807699D01*
X18767934Y-10807699D02*
X18777458Y-10779128D01*
X18777458Y-10779128D02*
X18786982Y-10731509D01*
X18786982Y-10731509D02*
X18786982Y-10693414D01*
X18786982Y-10693414D02*
X18777458Y-10645795D01*
X18777458Y-10645795D02*
X18767934Y-10617223D01*
X18767934Y-10617223D02*
X18758411Y-10598176D01*
X18758411Y-10598176D02*
X18739363Y-10569604D01*
X18739363Y-10569604D02*
X18729839Y-10560080D01*
X13664300Y-10861168D02*
X13664300Y-11061168D01*
X13564300Y-10961168D02*
X13764300Y-10961168D01*
X14006029Y-10852652D02*
X14129839Y-10852652D01*
X14129839Y-10852652D02*
X14063172Y-10928842D01*
X14063172Y-10928842D02*
X14091743Y-10928842D01*
X14091743Y-10928842D02*
X14110791Y-10938366D01*
X14110791Y-10938366D02*
X14120315Y-10947890D01*
X14120315Y-10947890D02*
X14129839Y-10966938D01*
X14129839Y-10966938D02*
X14129839Y-11014557D01*
X14129839Y-11014557D02*
X14120315Y-11033604D01*
X14120315Y-11033604D02*
X14110791Y-11043128D01*
X14110791Y-11043128D02*
X14091743Y-11052652D01*
X14091743Y-11052652D02*
X14034601Y-11052652D01*
X14034601Y-11052652D02*
X14015553Y-11043128D01*
X14015553Y-11043128D02*
X14006029Y-11033604D01*
X14215553Y-11033604D02*
X14225077Y-11043128D01*
X14225077Y-11043128D02*
X14215553Y-11052652D01*
X14215553Y-11052652D02*
X14206029Y-11043128D01*
X14206029Y-11043128D02*
X14215553Y-11033604D01*
X14215553Y-11033604D02*
X14215553Y-11052652D01*
X14301267Y-10871699D02*
X14310791Y-10862176D01*
X14310791Y-10862176D02*
X14329839Y-10852652D01*
X14329839Y-10852652D02*
X14377458Y-10852652D01*
X14377458Y-10852652D02*
X14396505Y-10862176D01*
X14396505Y-10862176D02*
X14406029Y-10871699D01*
X14406029Y-10871699D02*
X14415553Y-10890747D01*
X14415553Y-10890747D02*
X14415553Y-10909795D01*
X14415553Y-10909795D02*
X14406029Y-10938366D01*
X14406029Y-10938366D02*
X14291743Y-11052652D01*
X14291743Y-11052652D02*
X14415553Y-11052652D01*
X14539362Y-10852652D02*
X14558410Y-10852652D01*
X14558410Y-10852652D02*
X14577458Y-10862176D01*
X14577458Y-10862176D02*
X14586982Y-10871699D01*
X14586982Y-10871699D02*
X14596505Y-10890747D01*
X14596505Y-10890747D02*
X14606029Y-10928842D01*
X14606029Y-10928842D02*
X14606029Y-10976461D01*
X14606029Y-10976461D02*
X14596505Y-11014557D01*
X14596505Y-11014557D02*
X14586982Y-11033604D01*
X14586982Y-11033604D02*
X14577458Y-11043128D01*
X14577458Y-11043128D02*
X14558410Y-11052652D01*
X14558410Y-11052652D02*
X14539362Y-11052652D01*
X14539362Y-11052652D02*
X14520315Y-11043128D01*
X14520315Y-11043128D02*
X14510791Y-11033604D01*
X14510791Y-11033604D02*
X14501267Y-11014557D01*
X14501267Y-11014557D02*
X14491743Y-10976461D01*
X14491743Y-10976461D02*
X14491743Y-10928842D01*
X14491743Y-10928842D02*
X14501267Y-10890747D01*
X14501267Y-10890747D02*
X14510791Y-10871699D01*
X14510791Y-10871699D02*
X14520315Y-10862176D01*
X14520315Y-10862176D02*
X14539362Y-10852652D01*
X14729839Y-10852652D02*
X14748886Y-10852652D01*
X14748886Y-10852652D02*
X14767934Y-10862176D01*
X14767934Y-10862176D02*
X14777458Y-10871699D01*
X14777458Y-10871699D02*
X14786982Y-10890747D01*
X14786982Y-10890747D02*
X14796505Y-10928842D01*
X14796505Y-10928842D02*
X14796505Y-10976461D01*
X14796505Y-10976461D02*
X14786982Y-11014557D01*
X14786982Y-11014557D02*
X14777458Y-11033604D01*
X14777458Y-11033604D02*
X14767934Y-11043128D01*
X14767934Y-11043128D02*
X14748886Y-11052652D01*
X14748886Y-11052652D02*
X14729839Y-11052652D01*
X14729839Y-11052652D02*
X14710791Y-11043128D01*
X14710791Y-11043128D02*
X14701267Y-11033604D01*
X14701267Y-11033604D02*
X14691743Y-11014557D01*
X14691743Y-11014557D02*
X14682220Y-10976461D01*
X14682220Y-10976461D02*
X14682220Y-10928842D01*
X14682220Y-10928842D02*
X14691743Y-10890747D01*
X14691743Y-10890747D02*
X14701267Y-10871699D01*
X14701267Y-10871699D02*
X14710791Y-10862176D01*
X14710791Y-10862176D02*
X14729839Y-10852652D01*
X14882220Y-11052652D02*
X14882220Y-10919318D01*
X14882220Y-10938366D02*
X14891743Y-10928842D01*
X14891743Y-10928842D02*
X14910791Y-10919318D01*
X14910791Y-10919318D02*
X14939363Y-10919318D01*
X14939363Y-10919318D02*
X14958410Y-10928842D01*
X14958410Y-10928842D02*
X14967934Y-10947890D01*
X14967934Y-10947890D02*
X14967934Y-11052652D01*
X14967934Y-10947890D02*
X14977458Y-10928842D01*
X14977458Y-10928842D02*
X14996505Y-10919318D01*
X14996505Y-10919318D02*
X15025077Y-10919318D01*
X15025077Y-10919318D02*
X15044124Y-10928842D01*
X15044124Y-10928842D02*
X15053648Y-10947890D01*
X15053648Y-10947890D02*
X15053648Y-11052652D01*
X15148886Y-11052652D02*
X15148886Y-10919318D01*
X15148886Y-10938366D02*
X15158410Y-10928842D01*
X15158410Y-10928842D02*
X15177458Y-10919318D01*
X15177458Y-10919318D02*
X15206029Y-10919318D01*
X15206029Y-10919318D02*
X15225077Y-10928842D01*
X15225077Y-10928842D02*
X15234601Y-10947890D01*
X15234601Y-10947890D02*
X15234601Y-11052652D01*
X15234601Y-10947890D02*
X15244124Y-10928842D01*
X15244124Y-10928842D02*
X15263172Y-10919318D01*
X15263172Y-10919318D02*
X15291743Y-10919318D01*
X15291743Y-10919318D02*
X15310791Y-10928842D01*
X15310791Y-10928842D02*
X15320315Y-10947890D01*
X15320315Y-10947890D02*
X15320315Y-11052652D01*
X15710791Y-10843128D02*
X15539363Y-11100271D01*
X15967934Y-10852652D02*
X15986982Y-10852652D01*
X15986982Y-10852652D02*
X16006029Y-10862176D01*
X16006029Y-10862176D02*
X16015553Y-10871699D01*
X16015553Y-10871699D02*
X16025077Y-10890747D01*
X16025077Y-10890747D02*
X16034601Y-10928842D01*
X16034601Y-10928842D02*
X16034601Y-10976461D01*
X16034601Y-10976461D02*
X16025077Y-11014557D01*
X16025077Y-11014557D02*
X16015553Y-11033604D01*
X16015553Y-11033604D02*
X16006029Y-11043128D01*
X16006029Y-11043128D02*
X15986982Y-11052652D01*
X15986982Y-11052652D02*
X15967934Y-11052652D01*
X15967934Y-11052652D02*
X15948886Y-11043128D01*
X15948886Y-11043128D02*
X15939363Y-11033604D01*
X15939363Y-11033604D02*
X15929839Y-11014557D01*
X15929839Y-11014557D02*
X15920315Y-10976461D01*
X15920315Y-10976461D02*
X15920315Y-10928842D01*
X15920315Y-10928842D02*
X15929839Y-10890747D01*
X15929839Y-10890747D02*
X15939363Y-10871699D01*
X15939363Y-10871699D02*
X15948886Y-10862176D01*
X15948886Y-10862176D02*
X15967934Y-10852652D01*
X16120315Y-11033604D02*
X16129839Y-11043128D01*
X16129839Y-11043128D02*
X16120315Y-11052652D01*
X16120315Y-11052652D02*
X16110791Y-11043128D01*
X16110791Y-11043128D02*
X16120315Y-11033604D01*
X16120315Y-11033604D02*
X16120315Y-11052652D01*
X16320315Y-11052652D02*
X16206029Y-11052652D01*
X16263172Y-11052652D02*
X16263172Y-10852652D01*
X16263172Y-10852652D02*
X16244125Y-10881223D01*
X16244125Y-10881223D02*
X16225077Y-10900271D01*
X16225077Y-10900271D02*
X16206029Y-10909795D01*
X16396506Y-10871699D02*
X16406029Y-10862176D01*
X16406029Y-10862176D02*
X16425077Y-10852652D01*
X16425077Y-10852652D02*
X16472696Y-10852652D01*
X16472696Y-10852652D02*
X16491744Y-10862176D01*
X16491744Y-10862176D02*
X16501267Y-10871699D01*
X16501267Y-10871699D02*
X16510791Y-10890747D01*
X16510791Y-10890747D02*
X16510791Y-10909795D01*
X16510791Y-10909795D02*
X16501267Y-10938366D01*
X16501267Y-10938366D02*
X16386982Y-11052652D01*
X16386982Y-11052652D02*
X16510791Y-11052652D01*
X16682220Y-10852652D02*
X16644125Y-10852652D01*
X16644125Y-10852652D02*
X16625077Y-10862176D01*
X16625077Y-10862176D02*
X16615553Y-10871699D01*
X16615553Y-10871699D02*
X16596506Y-10900271D01*
X16596506Y-10900271D02*
X16586982Y-10938366D01*
X16586982Y-10938366D02*
X16586982Y-11014557D01*
X16586982Y-11014557D02*
X16596506Y-11033604D01*
X16596506Y-11033604D02*
X16606029Y-11043128D01*
X16606029Y-11043128D02*
X16625077Y-11052652D01*
X16625077Y-11052652D02*
X16663172Y-11052652D01*
X16663172Y-11052652D02*
X16682220Y-11043128D01*
X16682220Y-11043128D02*
X16691744Y-11033604D01*
X16691744Y-11033604D02*
X16701267Y-11014557D01*
X16701267Y-11014557D02*
X16701267Y-10966938D01*
X16701267Y-10966938D02*
X16691744Y-10947890D01*
X16691744Y-10947890D02*
X16682220Y-10938366D01*
X16682220Y-10938366D02*
X16663172Y-10928842D01*
X16663172Y-10928842D02*
X16625077Y-10928842D01*
X16625077Y-10928842D02*
X16606029Y-10938366D01*
X16606029Y-10938366D02*
X16596506Y-10947890D01*
X16596506Y-10947890D02*
X16586982Y-10966938D01*
X16825077Y-10852652D02*
X16844125Y-10852652D01*
X16844125Y-10852652D02*
X16863172Y-10862176D01*
X16863172Y-10862176D02*
X16872696Y-10871699D01*
X16872696Y-10871699D02*
X16882220Y-10890747D01*
X16882220Y-10890747D02*
X16891744Y-10928842D01*
X16891744Y-10928842D02*
X16891744Y-10976461D01*
X16891744Y-10976461D02*
X16882220Y-11014557D01*
X16882220Y-11014557D02*
X16872696Y-11033604D01*
X16872696Y-11033604D02*
X16863172Y-11043128D01*
X16863172Y-11043128D02*
X16844125Y-11052652D01*
X16844125Y-11052652D02*
X16825077Y-11052652D01*
X16825077Y-11052652D02*
X16806029Y-11043128D01*
X16806029Y-11043128D02*
X16796506Y-11033604D01*
X16796506Y-11033604D02*
X16786982Y-11014557D01*
X16786982Y-11014557D02*
X16777458Y-10976461D01*
X16777458Y-10976461D02*
X16777458Y-10928842D01*
X16777458Y-10928842D02*
X16786982Y-10890747D01*
X16786982Y-10890747D02*
X16796506Y-10871699D01*
X16796506Y-10871699D02*
X16806029Y-10862176D01*
X16806029Y-10862176D02*
X16825077Y-10852652D01*
X16967934Y-10852652D02*
X16967934Y-10890747D01*
X17044125Y-10852652D02*
X17044125Y-10890747D01*
X17339363Y-11128842D02*
X17329839Y-11119318D01*
X17329839Y-11119318D02*
X17310791Y-11090747D01*
X17310791Y-11090747D02*
X17301268Y-11071699D01*
X17301268Y-11071699D02*
X17291744Y-11043128D01*
X17291744Y-11043128D02*
X17282220Y-10995509D01*
X17282220Y-10995509D02*
X17282220Y-10957414D01*
X17282220Y-10957414D02*
X17291744Y-10909795D01*
X17291744Y-10909795D02*
X17301268Y-10881223D01*
X17301268Y-10881223D02*
X17310791Y-10862176D01*
X17310791Y-10862176D02*
X17329839Y-10833604D01*
X17329839Y-10833604D02*
X17339363Y-10824080D01*
X17501268Y-10919318D02*
X17501268Y-11052652D01*
X17453649Y-10843128D02*
X17406030Y-10985985D01*
X17406030Y-10985985D02*
X17529839Y-10985985D01*
X17758411Y-11052652D02*
X17758411Y-10852652D01*
X17844125Y-11052652D02*
X17844125Y-10947890D01*
X17844125Y-10947890D02*
X17834601Y-10928842D01*
X17834601Y-10928842D02*
X17815553Y-10919318D01*
X17815553Y-10919318D02*
X17786982Y-10919318D01*
X17786982Y-10919318D02*
X17767934Y-10928842D01*
X17767934Y-10928842D02*
X17758411Y-10938366D01*
X17967934Y-11052652D02*
X17948887Y-11043128D01*
X17948887Y-11043128D02*
X17939363Y-11033604D01*
X17939363Y-11033604D02*
X17929839Y-11014557D01*
X17929839Y-11014557D02*
X17929839Y-10957414D01*
X17929839Y-10957414D02*
X17939363Y-10938366D01*
X17939363Y-10938366D02*
X17948887Y-10928842D01*
X17948887Y-10928842D02*
X17967934Y-10919318D01*
X17967934Y-10919318D02*
X17996506Y-10919318D01*
X17996506Y-10919318D02*
X18015553Y-10928842D01*
X18015553Y-10928842D02*
X18025077Y-10938366D01*
X18025077Y-10938366D02*
X18034601Y-10957414D01*
X18034601Y-10957414D02*
X18034601Y-11014557D01*
X18034601Y-11014557D02*
X18025077Y-11033604D01*
X18025077Y-11033604D02*
X18015553Y-11043128D01*
X18015553Y-11043128D02*
X17996506Y-11052652D01*
X17996506Y-11052652D02*
X17967934Y-11052652D01*
X18148887Y-11052652D02*
X18129839Y-11043128D01*
X18129839Y-11043128D02*
X18120315Y-11024080D01*
X18120315Y-11024080D02*
X18120315Y-10852652D01*
X18301268Y-11043128D02*
X18282220Y-11052652D01*
X18282220Y-11052652D02*
X18244125Y-11052652D01*
X18244125Y-11052652D02*
X18225077Y-11043128D01*
X18225077Y-11043128D02*
X18215553Y-11024080D01*
X18215553Y-11024080D02*
X18215553Y-10947890D01*
X18215553Y-10947890D02*
X18225077Y-10928842D01*
X18225077Y-10928842D02*
X18244125Y-10919318D01*
X18244125Y-10919318D02*
X18282220Y-10919318D01*
X18282220Y-10919318D02*
X18301268Y-10928842D01*
X18301268Y-10928842D02*
X18310792Y-10947890D01*
X18310792Y-10947890D02*
X18310792Y-10966938D01*
X18310792Y-10966938D02*
X18215553Y-10985985D01*
X18386982Y-11043128D02*
X18406030Y-11052652D01*
X18406030Y-11052652D02*
X18444125Y-11052652D01*
X18444125Y-11052652D02*
X18463173Y-11043128D01*
X18463173Y-11043128D02*
X18472696Y-11024080D01*
X18472696Y-11024080D02*
X18472696Y-11014557D01*
X18472696Y-11014557D02*
X18463173Y-10995509D01*
X18463173Y-10995509D02*
X18444125Y-10985985D01*
X18444125Y-10985985D02*
X18415553Y-10985985D01*
X18415553Y-10985985D02*
X18396506Y-10976461D01*
X18396506Y-10976461D02*
X18386982Y-10957414D01*
X18386982Y-10957414D02*
X18386982Y-10947890D01*
X18386982Y-10947890D02*
X18396506Y-10928842D01*
X18396506Y-10928842D02*
X18415553Y-10919318D01*
X18415553Y-10919318D02*
X18444125Y-10919318D01*
X18444125Y-10919318D02*
X18463173Y-10928842D01*
X18539363Y-11128842D02*
X18548887Y-11119318D01*
X18548887Y-11119318D02*
X18567934Y-11090747D01*
X18567934Y-11090747D02*
X18577458Y-11071699D01*
X18577458Y-11071699D02*
X18586982Y-11043128D01*
X18586982Y-11043128D02*
X18596506Y-10995509D01*
X18596506Y-10995509D02*
X18596506Y-10957414D01*
X18596506Y-10957414D02*
X18586982Y-10909795D01*
X18586982Y-10909795D02*
X18577458Y-10881223D01*
X18577458Y-10881223D02*
X18567934Y-10862176D01*
X18567934Y-10862176D02*
X18548887Y-10833604D01*
X18548887Y-10833604D02*
X18539363Y-10824080D01*
M02*
