%TF.GenerationSoftware,KiCad,Pcbnew,8.0.7*%
%TF.CreationDate,2025-01-15T11:33:52+05:30*%
%TF.ProjectId,STHDAQ_B1,53544844-4151-45f4-9231-2e6b69636164,rev?*%
%TF.SameCoordinates,Original*%
%TF.FileFunction,Drillmap*%
%TF.FilePolarity,Positive*%
%FSLAX45Y45*%
G04 Gerber Fmt 4.5, Leading zero omitted, Abs format (unit mm)*
G04 Created by KiCad (PCBNEW 8.0.7) date 2025-01-15 11:33:52*
%MOMM*%
%LPD*%
G01*
G04 APERTURE LIST*
%ADD10C,0.050000*%
%ADD11C,0.200000*%
G04 APERTURE END LIST*
D10*
X17003000Y-5050500D02*
G75*
G02*
X17303000Y-5350500I0J-300000D01*
G01*
X17003000Y-10650500D02*
X14003000Y-10650500D01*
X14003000Y-10650500D02*
G75*
G02*
X13703000Y-10350500I0J300000D01*
G01*
X17303000Y-5350500D02*
X17303000Y-10350500D01*
X17303000Y-10350500D02*
G75*
G02*
X17003000Y-10650500I-300000J0D01*
G01*
X13703000Y-10350500D02*
X13703000Y-5350500D01*
X14003000Y-5050500D02*
X17003000Y-5050500D01*
X13703000Y-5350500D02*
G75*
G02*
X14003000Y-5050500I300000J0D01*
G01*
D11*
X13961277Y-10964484D02*
X13961277Y-10764484D01*
X13961277Y-10764484D02*
X14008896Y-10764484D01*
X14008896Y-10764484D02*
X14037467Y-10774008D01*
X14037467Y-10774008D02*
X14056515Y-10793055D01*
X14056515Y-10793055D02*
X14066039Y-10812103D01*
X14066039Y-10812103D02*
X14075562Y-10850198D01*
X14075562Y-10850198D02*
X14075562Y-10878770D01*
X14075562Y-10878770D02*
X14066039Y-10916865D01*
X14066039Y-10916865D02*
X14056515Y-10935912D01*
X14056515Y-10935912D02*
X14037467Y-10954960D01*
X14037467Y-10954960D02*
X14008896Y-10964484D01*
X14008896Y-10964484D02*
X13961277Y-10964484D01*
X14161277Y-10964484D02*
X14161277Y-10831150D01*
X14161277Y-10869246D02*
X14170801Y-10850198D01*
X14170801Y-10850198D02*
X14180324Y-10840674D01*
X14180324Y-10840674D02*
X14199372Y-10831150D01*
X14199372Y-10831150D02*
X14218420Y-10831150D01*
X14285086Y-10964484D02*
X14285086Y-10831150D01*
X14285086Y-10764484D02*
X14275562Y-10774008D01*
X14275562Y-10774008D02*
X14285086Y-10783531D01*
X14285086Y-10783531D02*
X14294610Y-10774008D01*
X14294610Y-10774008D02*
X14285086Y-10764484D01*
X14285086Y-10764484D02*
X14285086Y-10783531D01*
X14408896Y-10964484D02*
X14389848Y-10954960D01*
X14389848Y-10954960D02*
X14380324Y-10935912D01*
X14380324Y-10935912D02*
X14380324Y-10764484D01*
X14513658Y-10964484D02*
X14494610Y-10954960D01*
X14494610Y-10954960D02*
X14485086Y-10935912D01*
X14485086Y-10935912D02*
X14485086Y-10764484D01*
X14742229Y-10964484D02*
X14742229Y-10764484D01*
X14742229Y-10764484D02*
X14808896Y-10907341D01*
X14808896Y-10907341D02*
X14875562Y-10764484D01*
X14875562Y-10764484D02*
X14875562Y-10964484D01*
X15056515Y-10964484D02*
X15056515Y-10859722D01*
X15056515Y-10859722D02*
X15046991Y-10840674D01*
X15046991Y-10840674D02*
X15027943Y-10831150D01*
X15027943Y-10831150D02*
X14989848Y-10831150D01*
X14989848Y-10831150D02*
X14970801Y-10840674D01*
X15056515Y-10954960D02*
X15037467Y-10964484D01*
X15037467Y-10964484D02*
X14989848Y-10964484D01*
X14989848Y-10964484D02*
X14970801Y-10954960D01*
X14970801Y-10954960D02*
X14961277Y-10935912D01*
X14961277Y-10935912D02*
X14961277Y-10916865D01*
X14961277Y-10916865D02*
X14970801Y-10897817D01*
X14970801Y-10897817D02*
X14989848Y-10888293D01*
X14989848Y-10888293D02*
X15037467Y-10888293D01*
X15037467Y-10888293D02*
X15056515Y-10878770D01*
X15151753Y-10831150D02*
X15151753Y-11031150D01*
X15151753Y-10840674D02*
X15170801Y-10831150D01*
X15170801Y-10831150D02*
X15208896Y-10831150D01*
X15208896Y-10831150D02*
X15227943Y-10840674D01*
X15227943Y-10840674D02*
X15237467Y-10850198D01*
X15237467Y-10850198D02*
X15246991Y-10869246D01*
X15246991Y-10869246D02*
X15246991Y-10926389D01*
X15246991Y-10926389D02*
X15237467Y-10945436D01*
X15237467Y-10945436D02*
X15227943Y-10954960D01*
X15227943Y-10954960D02*
X15208896Y-10964484D01*
X15208896Y-10964484D02*
X15170801Y-10964484D01*
X15170801Y-10964484D02*
X15151753Y-10954960D01*
X15332705Y-10945436D02*
X15342229Y-10954960D01*
X15342229Y-10954960D02*
X15332705Y-10964484D01*
X15332705Y-10964484D02*
X15323182Y-10954960D01*
X15323182Y-10954960D02*
X15332705Y-10945436D01*
X15332705Y-10945436D02*
X15332705Y-10964484D01*
X15332705Y-10840674D02*
X15342229Y-10850198D01*
X15342229Y-10850198D02*
X15332705Y-10859722D01*
X15332705Y-10859722D02*
X15323182Y-10850198D01*
X15323182Y-10850198D02*
X15332705Y-10840674D01*
X15332705Y-10840674D02*
X15332705Y-10859722D01*
M02*
