%TF.GenerationSoftware,KiCad,Pcbnew,8.0.7*%
%TF.CreationDate,2025-01-15T11:33:58+05:30*%
%TF.ProjectId,STHDAQ_B1,53544844-4151-45f4-9231-2e6b69636164,rev?*%
%TF.SameCoordinates,Original*%
%TF.FileFunction,Paste,Top*%
%TF.FilePolarity,Positive*%
%FSLAX46Y46*%
G04 Gerber Fmt 4.6, Leading zero omitted, Abs format (unit mm)*
G04 Created by KiCad (PCBNEW 8.0.7) date 2025-01-15 11:33:58*
%MOMM*%
%LPD*%
G01*
G04 APERTURE LIST*
G04 Aperture macros list*
%AMRoundRect*
0 Rectangle with rounded corners*
0 $1 Rounding radius*
0 $2 $3 $4 $5 $6 $7 $8 $9 X,Y pos of 4 corners*
0 Add a 4 corners polygon primitive as box body*
4,1,4,$2,$3,$4,$5,$6,$7,$8,$9,$2,$3,0*
0 Add four circle primitives for the rounded corners*
1,1,$1+$1,$2,$3*
1,1,$1+$1,$4,$5*
1,1,$1+$1,$6,$7*
1,1,$1+$1,$8,$9*
0 Add four rect primitives between the rounded corners*
20,1,$1+$1,$2,$3,$4,$5,0*
20,1,$1+$1,$4,$5,$6,$7,0*
20,1,$1+$1,$6,$7,$8,$9,0*
20,1,$1+$1,$8,$9,$2,$3,0*%
G04 Aperture macros list end*
%ADD10C,0.010000*%
%ADD11RoundRect,0.079500X-0.079500X-0.100500X0.079500X-0.100500X0.079500X0.100500X-0.079500X0.100500X0*%
%ADD12RoundRect,0.079500X0.079500X0.100500X-0.079500X0.100500X-0.079500X-0.100500X0.079500X-0.100500X0*%
%ADD13RoundRect,0.030000X-0.970000X1.470000X-0.970000X-1.470000X0.970000X-1.470000X0.970000X1.470000X0*%
%ADD14RoundRect,0.026000X-0.624000X1.124000X-0.624000X-1.124000X0.624000X-1.124000X0.624000X1.124000X0*%
%ADD15RoundRect,0.026000X-1.124000X0.624000X-1.124000X-0.624000X1.124000X-0.624000X1.124000X0.624000X0*%
%ADD16C,1.500000*%
%ADD17RoundRect,0.079500X-0.100500X0.079500X-0.100500X-0.079500X0.100500X-0.079500X0.100500X0.079500X0*%
%ADD18R,1.701800X0.812800*%
%ADD19R,3.098800X2.209800*%
%ADD20R,0.600000X1.750000*%
%ADD21R,1.000000X1.550000*%
%ADD22R,3.500000X1.000000*%
%ADD23R,3.400000X1.500000*%
%ADD24RoundRect,0.079500X0.100500X-0.079500X0.100500X0.079500X-0.100500X0.079500X-0.100500X-0.079500X0*%
%ADD25R,1.000000X1.600000*%
G04 APERTURE END LIST*
D10*
%TO.C,U1*%
X152840000Y-89765000D02*
X152240000Y-89765000D01*
X152240000Y-89165000D01*
X152840000Y-89165000D01*
X152840000Y-89765000D01*
G36*
X152840000Y-89765000D02*
G01*
X152240000Y-89765000D01*
X152240000Y-89165000D01*
X152840000Y-89165000D01*
X152840000Y-89765000D01*
G37*
%TD*%
D11*
%TO.C,C1*%
X148545000Y-91220000D03*
X149235000Y-91220000D03*
%TD*%
D12*
%TO.C,C4*%
X149325000Y-85910000D03*
X148635000Y-85910000D03*
%TD*%
D11*
%TO.C,R4*%
X146960000Y-65810000D03*
X147650000Y-65810000D03*
%TD*%
D13*
%TO.C,U2*%
X167627500Y-60412500D03*
X165087500Y-60412500D03*
X162547500Y-60412500D03*
X160007500Y-60412500D03*
X162547500Y-77412500D03*
X157467500Y-60412500D03*
X154927500Y-60412500D03*
X152387500Y-60412500D03*
X152387500Y-77412500D03*
X154927500Y-77412500D03*
X157467500Y-77412500D03*
X160007500Y-77412500D03*
D14*
X162207500Y-64412500D03*
X160307500Y-64412500D03*
D13*
X165087500Y-77412500D03*
D15*
X150757500Y-72712500D03*
X150757500Y-74612500D03*
D16*
X165857500Y-70182500D03*
X165857500Y-67642500D03*
X168397500Y-70182500D03*
X168397500Y-67642500D03*
D13*
X167627500Y-77412500D03*
%TD*%
D12*
%TO.C,C6*%
X149345000Y-86820000D03*
X148655000Y-86820000D03*
%TD*%
%TO.C,D1*%
X153775000Y-95000000D03*
X153085000Y-95000000D03*
%TD*%
D11*
%TO.C,R6*%
X156450000Y-86245000D03*
X157140000Y-86245000D03*
%TD*%
D12*
%TO.C,C2*%
X149280000Y-92185000D03*
X148590000Y-92185000D03*
%TD*%
D11*
%TO.C,D3*%
X153797500Y-96925000D03*
X153107500Y-96925000D03*
%TD*%
D17*
%TO.C,C7*%
X154210000Y-83570000D03*
X154210000Y-84260000D03*
%TD*%
D11*
%TO.C,R2*%
X146960000Y-69310000D03*
X147650000Y-69310000D03*
%TD*%
D18*
%TO.C,J1*%
X143014500Y-83150000D03*
X143014500Y-84400000D03*
X143014500Y-85650000D03*
X143014500Y-86900000D03*
X143014500Y-88150000D03*
X143014500Y-89400000D03*
X143014500Y-90650000D03*
X143014500Y-91900000D03*
X143014500Y-93150000D03*
X143014500Y-94400000D03*
D19*
X140114501Y-96950000D03*
X140114501Y-80600000D03*
%TD*%
D20*
%TO.C,U1*%
X150635000Y-92265000D03*
X151905000Y-92265000D03*
X153175000Y-92265000D03*
X154445000Y-92265000D03*
X154445000Y-86665000D03*
X153175000Y-86665000D03*
X151905000Y-86665000D03*
X150635000Y-86665000D03*
%TD*%
D12*
%TO.C,R1*%
X149250000Y-93105000D03*
X148560000Y-93105000D03*
%TD*%
D11*
%TO.C,D5*%
X156445000Y-87255000D03*
X157135000Y-87255000D03*
%TD*%
D17*
%TO.C,L1*%
X151580000Y-83590000D03*
X151580000Y-84280000D03*
%TD*%
D12*
%TO.C,D4*%
X153105000Y-97810000D03*
X153795000Y-97810000D03*
%TD*%
D11*
%TO.C,R3*%
X146960000Y-67560000D03*
X147650000Y-67560000D03*
%TD*%
%TO.C,D2*%
X153085000Y-95890000D03*
X153775000Y-95890000D03*
%TD*%
D21*
%TO.C,SW1*%
X158090000Y-95270000D03*
X158090000Y-90020000D03*
X159790000Y-95270000D03*
X159790000Y-90020000D03*
%TD*%
D22*
%TO.C,P2*%
X164635000Y-95200000D03*
X164635000Y-93200000D03*
D23*
X170385000Y-97550000D03*
X170385000Y-90850000D03*
%TD*%
D24*
%TO.C,C5*%
X152470000Y-84280000D03*
X152470000Y-83590000D03*
%TD*%
D12*
%TO.C,R9*%
X147625000Y-74510000D03*
X146935000Y-74510000D03*
%TD*%
D25*
%TO.C,S1*%
X152090000Y-103823691D03*
X154590000Y-101423691D03*
X157090000Y-103823691D03*
%TD*%
D11*
%TO.C,R5*%
X147650000Y-64060000D03*
X146960000Y-64060000D03*
%TD*%
D12*
%TO.C,R10*%
X147625000Y-72760000D03*
X146935000Y-72760000D03*
%TD*%
D24*
%TO.C,R8*%
X153340000Y-84265000D03*
X153340000Y-83575000D03*
%TD*%
D22*
%TO.C,P1*%
X164690000Y-85890000D03*
X164690000Y-83890000D03*
D23*
X170440000Y-88240000D03*
X170440000Y-81540000D03*
%TD*%
D11*
%TO.C,R7*%
X156435000Y-85255000D03*
X157125000Y-85255000D03*
%TD*%
D12*
%TO.C,R11*%
X147625000Y-71010000D03*
X146935000Y-71010000D03*
%TD*%
%TO.C,C3*%
X149340000Y-87775000D03*
X148650000Y-87775000D03*
%TD*%
M02*
