%TF.GenerationSoftware,KiCad,Pcbnew,8.0.7*%
%TF.CreationDate,2025-01-15T11:33:58+05:30*%
%TF.ProjectId,STHDAQ_B1,53544844-4151-45f4-9231-2e6b69636164,rev?*%
%TF.SameCoordinates,Original*%
%TF.FileFunction,Soldermask,Top*%
%TF.FilePolarity,Negative*%
%FSLAX46Y46*%
G04 Gerber Fmt 4.6, Leading zero omitted, Abs format (unit mm)*
G04 Created by KiCad (PCBNEW 8.0.7) date 2025-01-15 11:33:58*
%MOMM*%
%LPD*%
G01*
G04 APERTURE LIST*
G04 Aperture macros list*
%AMRoundRect*
0 Rectangle with rounded corners*
0 $1 Rounding radius*
0 $2 $3 $4 $5 $6 $7 $8 $9 X,Y pos of 4 corners*
0 Add a 4 corners polygon primitive as box body*
4,1,4,$2,$3,$4,$5,$6,$7,$8,$9,$2,$3,0*
0 Add four circle primitives for the rounded corners*
1,1,$1+$1,$2,$3*
1,1,$1+$1,$4,$5*
1,1,$1+$1,$6,$7*
1,1,$1+$1,$8,$9*
0 Add four rect primitives between the rounded corners*
20,1,$1+$1,$2,$3,$4,$5,0*
20,1,$1+$1,$4,$5,$6,$7,0*
20,1,$1+$1,$6,$7,$8,$9,0*
20,1,$1+$1,$8,$9,$2,$3,0*%
G04 Aperture macros list end*
%ADD10RoundRect,0.100000X-0.130000X-0.100000X0.130000X-0.100000X0.130000X0.100000X-0.130000X0.100000X0*%
%ADD11RoundRect,0.100000X0.130000X0.100000X-0.130000X0.100000X-0.130000X-0.100000X0.130000X-0.100000X0*%
%ADD12RoundRect,0.033060X-1.068940X1.568940X-1.068940X-1.568940X1.068940X-1.568940X1.068940X1.568940X0*%
%ADD13RoundRect,0.030080X-0.721920X1.221920X-0.721920X-1.221920X0.721920X-1.221920X0.721920X1.221920X0*%
%ADD14RoundRect,0.030080X-1.221920X0.721920X-1.221920X-0.721920X1.221920X-0.721920X1.221920X0.721920X0*%
%ADD15C,1.704000*%
%ADD16C,3.600000*%
%ADD17C,5.500000*%
%ADD18RoundRect,0.100000X-0.100000X0.130000X-0.100000X-0.130000X0.100000X-0.130000X0.100000X0.130000X0*%
%ADD19R,1.701800X0.812800*%
%ADD20R,3.098800X2.209800*%
%ADD21RoundRect,0.102000X-0.300000X-0.875000X0.300000X-0.875000X0.300000X0.875000X-0.300000X0.875000X0*%
%ADD22RoundRect,0.102000X-1.650000X-1.205000X1.650000X-1.205000X1.650000X1.205000X-1.650000X1.205000X0*%
%ADD23R,1.000000X1.550000*%
%ADD24RoundRect,0.102000X-1.750000X0.500000X-1.750000X-0.500000X1.750000X-0.500000X1.750000X0.500000X0*%
%ADD25RoundRect,0.102000X-1.700000X0.750000X-1.700000X-0.750000X1.700000X-0.750000X1.700000X0.750000X0*%
%ADD26RoundRect,0.100000X0.100000X-0.130000X0.100000X0.130000X-0.100000X0.130000X-0.100000X-0.130000X0*%
%ADD27RoundRect,0.102000X-0.500000X-0.800000X0.500000X-0.800000X0.500000X0.800000X-0.500000X0.800000X0*%
G04 APERTURE END LIST*
D10*
%TO.C,C1*%
X148570000Y-91220000D03*
X149210000Y-91220000D03*
%TD*%
D11*
%TO.C,C4*%
X149300000Y-85910000D03*
X148660000Y-85910000D03*
%TD*%
D10*
%TO.C,R4*%
X146985000Y-65810000D03*
X147625000Y-65810000D03*
%TD*%
D12*
%TO.C,U2*%
X167627500Y-60412500D03*
X165087500Y-60412500D03*
X162547500Y-60412500D03*
X160007500Y-60412500D03*
X162547500Y-77412500D03*
X157467500Y-60412500D03*
X154927500Y-60412500D03*
X152387500Y-60412500D03*
X152387500Y-77412500D03*
X154927500Y-77412500D03*
X157467500Y-77412500D03*
X160007500Y-77412500D03*
D13*
X162207500Y-64412500D03*
X160307500Y-64412500D03*
D12*
X165087500Y-77412500D03*
D14*
X150757500Y-72712500D03*
X150757500Y-74612500D03*
D15*
X165857500Y-70182500D03*
X165857500Y-67642500D03*
X168397500Y-70182500D03*
X168397500Y-67642500D03*
D12*
X167627500Y-77412500D03*
%TD*%
D11*
%TO.C,C6*%
X149320000Y-86820000D03*
X148680000Y-86820000D03*
%TD*%
D16*
%TO.C,H1*%
X168930000Y-54605000D03*
D17*
X168930000Y-54605000D03*
%TD*%
D11*
%TO.C,D1*%
X153750000Y-95000000D03*
X153110000Y-95000000D03*
%TD*%
D10*
%TO.C,R6*%
X156475000Y-86245000D03*
X157115000Y-86245000D03*
%TD*%
D11*
%TO.C,C2*%
X149255000Y-92185000D03*
X148615000Y-92185000D03*
%TD*%
D10*
%TO.C,D3*%
X153772500Y-96925000D03*
X153132500Y-96925000D03*
%TD*%
D18*
%TO.C,C7*%
X154210000Y-83595000D03*
X154210000Y-84235000D03*
%TD*%
D10*
%TO.C,R2*%
X146985000Y-69310000D03*
X147625000Y-69310000D03*
%TD*%
D16*
%TO.C,H2*%
X141030000Y-54705000D03*
D17*
X141030000Y-54705000D03*
%TD*%
D19*
%TO.C,J1*%
X143014500Y-83150000D03*
X143014500Y-84400000D03*
X143014500Y-85650000D03*
X143014500Y-86900000D03*
X143014500Y-88150000D03*
X143014500Y-89400000D03*
X143014500Y-90650000D03*
X143014500Y-91900000D03*
X143014500Y-93150000D03*
X143014500Y-94400000D03*
D20*
X140114501Y-96950000D03*
X140114501Y-80600000D03*
%TD*%
D21*
%TO.C,U1*%
X150635000Y-92265000D03*
X151905000Y-92265000D03*
X153175000Y-92265000D03*
X154445000Y-92265000D03*
X154445000Y-86665000D03*
X153175000Y-86665000D03*
X151905000Y-86665000D03*
X150635000Y-86665000D03*
D22*
X152540000Y-89465000D03*
%TD*%
D11*
%TO.C,R1*%
X149225000Y-93105000D03*
X148585000Y-93105000D03*
%TD*%
D10*
%TO.C,D5*%
X156470000Y-87255000D03*
X157110000Y-87255000D03*
%TD*%
D18*
%TO.C,L1*%
X151580000Y-83615000D03*
X151580000Y-84255000D03*
%TD*%
D11*
%TO.C,D4*%
X153130000Y-97810000D03*
X153770000Y-97810000D03*
%TD*%
D10*
%TO.C,R3*%
X146985000Y-67560000D03*
X147625000Y-67560000D03*
%TD*%
%TO.C,D2*%
X153110000Y-95890000D03*
X153750000Y-95890000D03*
%TD*%
D23*
%TO.C,SW1*%
X158090000Y-95270000D03*
X158090000Y-90020000D03*
X159790000Y-95270000D03*
X159790000Y-90020000D03*
%TD*%
D24*
%TO.C,P2*%
X164635000Y-95200000D03*
X164635000Y-93200000D03*
D25*
X170385000Y-97550000D03*
X170385000Y-90850000D03*
%TD*%
D26*
%TO.C,C5*%
X152470000Y-84255000D03*
X152470000Y-83615000D03*
%TD*%
D11*
%TO.C,R9*%
X147600000Y-74510000D03*
X146960000Y-74510000D03*
%TD*%
D27*
%TO.C,S1*%
X152090000Y-103823691D03*
X154590000Y-101423691D03*
X157090000Y-103823691D03*
%TD*%
D10*
%TO.C,R5*%
X147625000Y-64060000D03*
X146985000Y-64060000D03*
%TD*%
D11*
%TO.C,R10*%
X147600000Y-72760000D03*
X146960000Y-72760000D03*
%TD*%
D26*
%TO.C,R8*%
X153340000Y-84240000D03*
X153340000Y-83600000D03*
%TD*%
D16*
%TO.C,H4*%
X168930000Y-102405000D03*
D17*
X168930000Y-102405000D03*
%TD*%
D24*
%TO.C,P1*%
X164690000Y-85890000D03*
X164690000Y-83890000D03*
D25*
X170440000Y-88240000D03*
X170440000Y-81540000D03*
%TD*%
D16*
%TO.C,H3*%
X141030000Y-102505000D03*
D17*
X141030000Y-102505000D03*
%TD*%
D10*
%TO.C,R7*%
X156460000Y-85255000D03*
X157100000Y-85255000D03*
%TD*%
D11*
%TO.C,R11*%
X147600000Y-71010000D03*
X146960000Y-71010000D03*
%TD*%
%TO.C,C3*%
X149315000Y-87775000D03*
X148675000Y-87775000D03*
%TD*%
M02*
