%TF.GenerationSoftware,KiCad,Pcbnew,8.0.7*%
%TF.CreationDate,2025-01-15T11:33:58+05:30*%
%TF.ProjectId,STHDAQ_B1,53544844-4151-45f4-9231-2e6b69636164,rev?*%
%TF.SameCoordinates,Original*%
%TF.FileFunction,Copper,L2,Bot*%
%TF.FilePolarity,Positive*%
%FSLAX46Y46*%
G04 Gerber Fmt 4.6, Leading zero omitted, Abs format (unit mm)*
G04 Created by KiCad (PCBNEW 8.0.7) date 2025-01-15 11:33:58*
%MOMM*%
%LPD*%
G01*
G04 APERTURE LIST*
%TA.AperFunction,ComponentPad*%
%ADD10C,3.600000*%
%TD*%
%TA.AperFunction,ConnectorPad*%
%ADD11C,5.500000*%
%TD*%
%TA.AperFunction,ViaPad*%
%ADD12C,0.600000*%
%TD*%
%TA.AperFunction,Conductor*%
%ADD13C,0.200000*%
%TD*%
G04 APERTURE END LIST*
D10*
%TO.P,H1,1*%
%TO.N,N/C*%
X168930000Y-54605000D03*
D11*
X168930000Y-54605000D03*
%TD*%
D10*
%TO.P,H2,1*%
%TO.N,N/C*%
X141030000Y-54705000D03*
D11*
X141030000Y-54705000D03*
%TD*%
D10*
%TO.P,H4,1*%
%TO.N,N/C*%
X168930000Y-102405000D03*
D11*
X168930000Y-102405000D03*
%TD*%
D10*
%TO.P,H3,1*%
%TO.N,N/C*%
X141030000Y-102505000D03*
D11*
X141030000Y-102505000D03*
%TD*%
D12*
%TO.N,Earth*%
X165180000Y-77700000D03*
X164290000Y-83790000D03*
X159690000Y-90050000D03*
X164490000Y-93290000D03*
X159890000Y-95210000D03*
X143170000Y-93090000D03*
X152540000Y-89465000D03*
%TO.N,B_VIN*%
X151720000Y-99800000D03*
X152625000Y-98755000D03*
%TO.N,Net-(D3-A)*%
X153250000Y-94150000D03*
X154480000Y-96290000D03*
%TO.N,BAT*%
X167400000Y-92510000D03*
X165820000Y-86860000D03*
%TO.N,/DOUT*%
X143680000Y-74570000D03*
X143960000Y-73530000D03*
%TO.N,/DIN*%
X141880000Y-84310000D03*
X142041433Y-78897147D03*
%TO.N,/DRDY*%
X141860000Y-86880000D03*
X141370003Y-79095098D03*
%TO.N,/CS*%
X141730000Y-88010000D03*
X140670000Y-79095098D03*
%TO.N,/SYNC{slash}PDWN*%
X141810000Y-90710000D03*
X139776428Y-79070652D03*
%TO.N,/RESET*%
X140260000Y-89350000D03*
X139080000Y-79000000D03*
%TO.N,Earth*%
X152470000Y-83365000D03*
X154250000Y-84315000D03*
X156450000Y-87335000D03*
X148610000Y-92275000D03*
X149250000Y-91235000D03*
X148630000Y-87865000D03*
X148630000Y-86870000D03*
X148590000Y-85890000D03*
%TD*%
D13*
%TO.N,/DOUT*%
X143680000Y-73810000D02*
X143960000Y-73530000D01*
X143680000Y-74570000D02*
X143680000Y-73810000D01*
%TO.N,/RESET*%
X139080000Y-79081331D02*
X139080000Y-79000000D01*
X140390000Y-80391331D02*
X139080000Y-79081331D01*
X140390000Y-89220000D02*
X140390000Y-80391331D01*
X140260000Y-89350000D02*
X140390000Y-89220000D01*
%TO.N,/SYNC{slash}PDWN*%
X140720000Y-80014224D02*
X139776428Y-79070652D01*
X141810000Y-90192893D02*
X140720000Y-89102893D01*
X140720000Y-89102893D02*
X140720000Y-80014224D01*
X141810000Y-90710000D02*
X141810000Y-90192893D01*
%TO.N,/CS*%
X140870003Y-79302205D02*
X140870003Y-79295101D01*
X141020000Y-79452202D02*
X140870003Y-79302205D01*
X141020000Y-87300000D02*
X141020000Y-79452202D01*
X141730000Y-88010000D02*
X141020000Y-87300000D01*
X140870003Y-79295101D02*
X140670000Y-79095098D01*
%TO.N,/DRDY*%
X141380000Y-79105095D02*
X141370003Y-79095098D01*
X141380000Y-86400000D02*
X141380000Y-79105095D01*
X141860000Y-86880000D02*
X141380000Y-86400000D01*
%TO.N,/DIN*%
X142041433Y-79130775D02*
X142041433Y-78897147D01*
X141880000Y-79292208D02*
X142041433Y-79130775D01*
X141880000Y-84310000D02*
X141880000Y-79292208D01*
%TO.N,B_VIN*%
X152625000Y-98755000D02*
X152625000Y-98895000D01*
X152625000Y-98895000D02*
X151720000Y-99800000D01*
%TO.N,Net-(D3-A)*%
X153250000Y-94150000D02*
X154480000Y-95380000D01*
X154480000Y-95380000D02*
X154480000Y-96290000D01*
%TO.N,BAT*%
X167210000Y-92320000D02*
X167210000Y-88250000D01*
X167210000Y-88250000D02*
X165820000Y-86860000D01*
X167400000Y-92510000D02*
X167210000Y-92320000D01*
%TD*%
%TA.AperFunction,Conductor*%
%TO.N,Earth*%
G36*
X170033736Y-51005726D02*
G01*
X170323796Y-51023271D01*
X170338659Y-51025076D01*
X170620798Y-51076780D01*
X170635335Y-51080363D01*
X170909172Y-51165695D01*
X170923163Y-51171000D01*
X171184743Y-51288727D01*
X171197989Y-51295680D01*
X171443465Y-51444075D01*
X171455776Y-51452573D01*
X171506879Y-51492609D01*
X171681573Y-51629473D01*
X171692781Y-51639403D01*
X171895596Y-51842218D01*
X171905526Y-51853426D01*
X172025481Y-52006538D01*
X172082422Y-52079217D01*
X172090928Y-52091540D01*
X172239316Y-52337004D01*
X172246275Y-52350263D01*
X172363997Y-52611831D01*
X172369306Y-52625832D01*
X172454635Y-52899663D01*
X172458219Y-52914201D01*
X172509923Y-53196340D01*
X172511728Y-53211205D01*
X172529274Y-53501263D01*
X172529500Y-53508750D01*
X172529500Y-103501249D01*
X172529274Y-103508736D01*
X172511728Y-103798794D01*
X172509923Y-103813659D01*
X172458219Y-104095798D01*
X172454635Y-104110336D01*
X172369306Y-104384167D01*
X172363997Y-104398168D01*
X172246275Y-104659736D01*
X172239316Y-104672995D01*
X172090928Y-104918459D01*
X172082422Y-104930782D01*
X171905526Y-105156573D01*
X171895596Y-105167781D01*
X171692781Y-105370596D01*
X171681573Y-105380526D01*
X171455782Y-105557422D01*
X171443459Y-105565928D01*
X171197995Y-105714316D01*
X171184736Y-105721275D01*
X170923168Y-105838997D01*
X170909167Y-105844306D01*
X170635336Y-105929635D01*
X170620798Y-105933219D01*
X170338659Y-105984923D01*
X170323794Y-105986728D01*
X170033736Y-106004274D01*
X170026249Y-106004500D01*
X140033751Y-106004500D01*
X140026264Y-106004274D01*
X139736205Y-105986728D01*
X139721340Y-105984923D01*
X139439201Y-105933219D01*
X139424663Y-105929635D01*
X139150832Y-105844306D01*
X139136831Y-105838997D01*
X138875263Y-105721275D01*
X138862004Y-105714316D01*
X138764709Y-105655499D01*
X138616537Y-105565926D01*
X138604217Y-105557422D01*
X138568033Y-105529074D01*
X138440388Y-105429070D01*
X138378426Y-105380526D01*
X138367218Y-105370596D01*
X138164403Y-105167781D01*
X138154473Y-105156573D01*
X138109645Y-105099354D01*
X137977573Y-104930776D01*
X137969075Y-104918465D01*
X137820680Y-104672989D01*
X137813727Y-104659743D01*
X137696000Y-104398163D01*
X137690693Y-104384167D01*
X137687841Y-104375016D01*
X137605363Y-104110335D01*
X137601780Y-104095798D01*
X137550076Y-103813659D01*
X137548271Y-103798794D01*
X137546641Y-103771854D01*
X137530726Y-103508736D01*
X137530500Y-103501249D01*
X137530500Y-102577963D01*
X137550185Y-102510924D01*
X137553729Y-102507853D01*
X137750871Y-102507853D01*
X137773477Y-102543028D01*
X137778318Y-102571250D01*
X137793808Y-102856954D01*
X137850833Y-103204793D01*
X137850834Y-103204796D01*
X137945126Y-103544408D01*
X137945127Y-103544410D01*
X138075588Y-103871844D01*
X138075597Y-103871862D01*
X138187678Y-104083269D01*
X138240695Y-104183269D01*
X138381767Y-104391335D01*
X138438498Y-104475006D01*
X138438505Y-104475016D01*
X138606671Y-104672995D01*
X138666686Y-104743650D01*
X138922580Y-104986046D01*
X139203182Y-105199354D01*
X139505202Y-105381074D01*
X139505206Y-105381075D01*
X139505210Y-105381078D01*
X139825088Y-105529070D01*
X139825092Y-105529070D01*
X139825099Y-105529074D01*
X140159122Y-105641619D01*
X140503355Y-105717391D01*
X140853763Y-105755500D01*
X140853769Y-105755500D01*
X141206231Y-105755500D01*
X141206237Y-105755500D01*
X141556645Y-105717391D01*
X141900878Y-105641619D01*
X142234901Y-105529074D01*
X142234908Y-105529070D01*
X142234911Y-105529070D01*
X142554789Y-105381078D01*
X142554798Y-105381074D01*
X142856818Y-105199354D01*
X143137420Y-104986046D01*
X143393314Y-104743650D01*
X143621501Y-104475008D01*
X143819305Y-104183269D01*
X143984407Y-103871854D01*
X144114871Y-103544414D01*
X144209168Y-103204788D01*
X144266191Y-102856957D01*
X144285274Y-102505000D01*
X144279852Y-102404997D01*
X165674726Y-102404997D01*
X165674726Y-102405002D01*
X165693808Y-102756954D01*
X165750833Y-103104793D01*
X165750834Y-103104796D01*
X165845126Y-103444408D01*
X165845127Y-103444410D01*
X165975588Y-103771844D01*
X165975597Y-103771862D01*
X166140695Y-104083269D01*
X166338498Y-104375006D01*
X166338505Y-104375016D01*
X166566685Y-104643649D01*
X166566686Y-104643650D01*
X166822580Y-104886046D01*
X167103182Y-105099354D01*
X167405202Y-105281074D01*
X167405206Y-105281075D01*
X167405210Y-105281078D01*
X167725088Y-105429070D01*
X167725092Y-105429070D01*
X167725099Y-105429074D01*
X168059122Y-105541619D01*
X168403355Y-105617391D01*
X168753763Y-105655500D01*
X168753769Y-105655500D01*
X169106231Y-105655500D01*
X169106237Y-105655500D01*
X169456645Y-105617391D01*
X169800878Y-105541619D01*
X170134901Y-105429074D01*
X170134908Y-105429070D01*
X170134911Y-105429070D01*
X170454789Y-105281078D01*
X170454798Y-105281074D01*
X170756818Y-105099354D01*
X171037420Y-104886046D01*
X171293314Y-104643650D01*
X171521501Y-104375008D01*
X171719305Y-104083269D01*
X171884407Y-103771854D01*
X172014871Y-103444414D01*
X172016345Y-103439108D01*
X172043180Y-103342453D01*
X172109168Y-103104788D01*
X172166191Y-102756957D01*
X172185274Y-102405000D01*
X172166191Y-102053043D01*
X172109168Y-101705212D01*
X172066704Y-101552271D01*
X172014873Y-101365591D01*
X172014872Y-101365589D01*
X171884411Y-101038155D01*
X171884402Y-101038137D01*
X171719305Y-100726731D01*
X171521501Y-100434992D01*
X171521497Y-100434987D01*
X171521494Y-100434983D01*
X171293314Y-100166350D01*
X171275548Y-100149521D01*
X171037420Y-99923954D01*
X171037413Y-99923948D01*
X171037410Y-99923946D01*
X170756815Y-99710644D01*
X170454802Y-99528928D01*
X170454789Y-99528921D01*
X170134911Y-99380929D01*
X170134906Y-99380928D01*
X170134903Y-99380927D01*
X170134901Y-99380926D01*
X170028432Y-99345052D01*
X169800880Y-99268381D01*
X169456643Y-99192608D01*
X169106238Y-99154500D01*
X169106237Y-99154500D01*
X168753763Y-99154500D01*
X168753761Y-99154500D01*
X168403356Y-99192608D01*
X168059119Y-99268381D01*
X167725093Y-99380928D01*
X167725088Y-99380929D01*
X167405210Y-99528921D01*
X167405197Y-99528928D01*
X167103184Y-99710644D01*
X166822589Y-99923946D01*
X166822580Y-99923954D01*
X166566685Y-100166350D01*
X166338505Y-100434983D01*
X166338498Y-100434993D01*
X166140695Y-100726730D01*
X165975597Y-101038137D01*
X165975588Y-101038155D01*
X165845127Y-101365589D01*
X165845126Y-101365591D01*
X165750834Y-101705203D01*
X165750833Y-101705206D01*
X165693808Y-102053045D01*
X165674726Y-102404997D01*
X144279852Y-102404997D01*
X144266191Y-102153043D01*
X144209168Y-101805212D01*
X144166704Y-101652271D01*
X144114873Y-101465591D01*
X144114872Y-101465589D01*
X143984411Y-101138155D01*
X143984402Y-101138137D01*
X143931390Y-101038146D01*
X143819305Y-100826731D01*
X143621501Y-100534992D01*
X143621497Y-100534987D01*
X143621494Y-100534983D01*
X143393314Y-100266350D01*
X143269979Y-100149521D01*
X143137420Y-100023954D01*
X143137413Y-100023948D01*
X143137410Y-100023946D01*
X142964275Y-99892333D01*
X142856818Y-99810646D01*
X142856815Y-99810644D01*
X142839118Y-99799996D01*
X150914435Y-99799996D01*
X150914435Y-99800003D01*
X150934630Y-99979249D01*
X150934631Y-99979254D01*
X150994211Y-100149523D01*
X151067619Y-100266350D01*
X151090184Y-100302262D01*
X151217738Y-100429816D01*
X151370478Y-100525789D01*
X151396779Y-100534992D01*
X151540745Y-100585368D01*
X151540750Y-100585369D01*
X151719996Y-100605565D01*
X151720000Y-100605565D01*
X151720004Y-100605565D01*
X151899249Y-100585369D01*
X151899252Y-100585368D01*
X151899255Y-100585368D01*
X152069522Y-100525789D01*
X152222262Y-100429816D01*
X152349816Y-100302262D01*
X152445789Y-100149522D01*
X152505368Y-99979255D01*
X152515161Y-99892329D01*
X152542226Y-99827918D01*
X152550690Y-99818543D01*
X152822102Y-99547131D01*
X152868826Y-99517773D01*
X152974522Y-99480789D01*
X153127262Y-99384816D01*
X153254816Y-99257262D01*
X153350789Y-99104522D01*
X153410368Y-98934255D01*
X153419742Y-98851057D01*
X153430565Y-98755003D01*
X153430565Y-98754996D01*
X153410369Y-98575750D01*
X153410368Y-98575745D01*
X153350788Y-98405476D01*
X153254815Y-98252737D01*
X153127262Y-98125184D01*
X152974523Y-98029211D01*
X152804254Y-97969631D01*
X152804249Y-97969630D01*
X152625004Y-97949435D01*
X152624996Y-97949435D01*
X152445750Y-97969630D01*
X152445745Y-97969631D01*
X152275476Y-98029211D01*
X152122737Y-98125184D01*
X151995184Y-98252737D01*
X151899211Y-98405476D01*
X151839631Y-98575745D01*
X151839630Y-98575750D01*
X151819435Y-98754996D01*
X151819435Y-98755004D01*
X151822503Y-98782236D01*
X151810448Y-98851057D01*
X151786964Y-98883799D01*
X151701465Y-98969298D01*
X151640142Y-99002783D01*
X151627668Y-99004837D01*
X151540750Y-99014630D01*
X151370478Y-99074210D01*
X151217737Y-99170184D01*
X151090184Y-99297737D01*
X150994211Y-99450476D01*
X150934631Y-99620745D01*
X150934630Y-99620750D01*
X150914435Y-99799996D01*
X142839118Y-99799996D01*
X142554802Y-99628928D01*
X142554789Y-99628921D01*
X142234911Y-99480929D01*
X142234906Y-99480928D01*
X142234903Y-99480927D01*
X142234901Y-99480926D01*
X142128432Y-99445052D01*
X141900880Y-99368381D01*
X141556643Y-99292608D01*
X141206238Y-99254500D01*
X141206237Y-99254500D01*
X140853763Y-99254500D01*
X140853761Y-99254500D01*
X140503356Y-99292608D01*
X140159119Y-99368381D01*
X139825093Y-99480928D01*
X139825088Y-99480929D01*
X139505210Y-99628921D01*
X139505197Y-99628928D01*
X139203184Y-99810644D01*
X138922589Y-100023946D01*
X138922580Y-100023954D01*
X138666685Y-100266350D01*
X138438505Y-100534983D01*
X138438498Y-100534993D01*
X138240695Y-100826730D01*
X138075597Y-101138137D01*
X138075588Y-101138155D01*
X137945127Y-101465589D01*
X137945126Y-101465591D01*
X137850834Y-101805203D01*
X137850833Y-101805206D01*
X137793808Y-102153045D01*
X137778318Y-102438749D01*
X137755033Y-102504625D01*
X137750871Y-102507853D01*
X137553729Y-102507853D01*
X137558429Y-102503780D01*
X137533806Y-102460478D01*
X137530500Y-102432036D01*
X137530500Y-94149996D01*
X152444435Y-94149996D01*
X152444435Y-94150003D01*
X152464630Y-94329249D01*
X152464631Y-94329254D01*
X152524211Y-94499523D01*
X152620184Y-94652262D01*
X152747738Y-94779816D01*
X152900478Y-94875789D01*
X153070745Y-94935368D01*
X153157669Y-94945161D01*
X153222080Y-94972226D01*
X153231465Y-94980700D01*
X153843181Y-95592416D01*
X153876666Y-95653739D01*
X153879500Y-95680097D01*
X153879500Y-95707587D01*
X153859815Y-95774626D01*
X153852450Y-95784896D01*
X153850186Y-95787734D01*
X153754211Y-95940476D01*
X153694631Y-96110745D01*
X153694630Y-96110750D01*
X153674435Y-96289996D01*
X153674435Y-96290003D01*
X153694630Y-96469249D01*
X153694631Y-96469254D01*
X153754211Y-96639523D01*
X153850184Y-96792262D01*
X153977738Y-96919816D01*
X154130478Y-97015789D01*
X154300745Y-97075368D01*
X154300750Y-97075369D01*
X154479996Y-97095565D01*
X154480000Y-97095565D01*
X154480004Y-97095565D01*
X154659249Y-97075369D01*
X154659252Y-97075368D01*
X154659255Y-97075368D01*
X154829522Y-97015789D01*
X154982262Y-96919816D01*
X155109816Y-96792262D01*
X155205789Y-96639522D01*
X155265368Y-96469255D01*
X155285565Y-96290000D01*
X155265368Y-96110745D01*
X155205789Y-95940478D01*
X155109816Y-95787738D01*
X155109814Y-95787736D01*
X155109813Y-95787734D01*
X155107550Y-95784896D01*
X155106659Y-95782715D01*
X155106111Y-95781842D01*
X155106264Y-95781745D01*
X155081144Y-95720209D01*
X155080500Y-95707587D01*
X155080500Y-95469060D01*
X155080501Y-95469047D01*
X155080501Y-95300944D01*
X155039576Y-95148214D01*
X155039573Y-95148209D01*
X154960524Y-95011290D01*
X154960518Y-95011282D01*
X154080700Y-94131465D01*
X154047215Y-94070142D01*
X154045163Y-94057686D01*
X154035368Y-93970745D01*
X153975789Y-93800478D01*
X153879816Y-93647738D01*
X153752262Y-93520184D01*
X153599523Y-93424211D01*
X153429254Y-93364631D01*
X153429249Y-93364630D01*
X153250004Y-93344435D01*
X153249996Y-93344435D01*
X153070750Y-93364630D01*
X153070745Y-93364631D01*
X152900476Y-93424211D01*
X152747737Y-93520184D01*
X152620184Y-93647737D01*
X152524211Y-93800476D01*
X152464631Y-93970745D01*
X152464630Y-93970750D01*
X152444435Y-94149996D01*
X137530500Y-94149996D01*
X137530500Y-78999996D01*
X138274435Y-78999996D01*
X138274435Y-79000003D01*
X138294630Y-79179249D01*
X138294631Y-79179254D01*
X138354211Y-79349523D01*
X138385557Y-79399409D01*
X138450184Y-79502262D01*
X138577738Y-79629816D01*
X138730478Y-79725789D01*
X138900745Y-79785368D01*
X138900749Y-79785368D01*
X138907533Y-79786917D01*
X138906958Y-79789435D01*
X138960421Y-79811899D01*
X138969808Y-79820374D01*
X139753181Y-80603747D01*
X139786666Y-80665070D01*
X139789500Y-80691428D01*
X139789500Y-88637060D01*
X139769815Y-88704099D01*
X139753181Y-88724741D01*
X139630184Y-88847737D01*
X139534211Y-89000476D01*
X139474631Y-89170745D01*
X139474630Y-89170750D01*
X139454435Y-89349996D01*
X139454435Y-89350003D01*
X139474630Y-89529249D01*
X139474631Y-89529254D01*
X139534211Y-89699523D01*
X139612536Y-89824175D01*
X139630184Y-89852262D01*
X139757738Y-89979816D01*
X139766687Y-89985439D01*
X139877968Y-90055362D01*
X139910478Y-90075789D01*
X140019210Y-90113836D01*
X140080745Y-90135368D01*
X140080750Y-90135369D01*
X140259996Y-90155565D01*
X140260000Y-90155565D01*
X140260004Y-90155565D01*
X140439249Y-90135369D01*
X140439252Y-90135368D01*
X140439255Y-90135368D01*
X140609522Y-90075789D01*
X140669585Y-90038048D01*
X140736815Y-90019049D01*
X140803651Y-90039415D01*
X140823234Y-90055362D01*
X141040558Y-90272686D01*
X141074043Y-90334009D01*
X141069919Y-90401322D01*
X141024631Y-90530745D01*
X141024630Y-90530750D01*
X141004435Y-90709996D01*
X141004435Y-90710003D01*
X141024630Y-90889249D01*
X141024631Y-90889254D01*
X141084211Y-91059523D01*
X141180184Y-91212262D01*
X141307738Y-91339816D01*
X141460478Y-91435789D01*
X141630745Y-91495368D01*
X141630750Y-91495369D01*
X141809996Y-91515565D01*
X141810000Y-91515565D01*
X141810004Y-91515565D01*
X141989249Y-91495369D01*
X141989252Y-91495368D01*
X141989255Y-91495368D01*
X142159522Y-91435789D01*
X142312262Y-91339816D01*
X142439816Y-91212262D01*
X142535789Y-91059522D01*
X142595368Y-90889255D01*
X142615565Y-90710000D01*
X142595368Y-90530745D01*
X142535789Y-90360478D01*
X142519157Y-90334009D01*
X142496582Y-90298080D01*
X142439816Y-90207738D01*
X142439815Y-90207737D01*
X142437555Y-90204903D01*
X142436665Y-90202724D01*
X142436111Y-90201842D01*
X142436265Y-90201744D01*
X142411146Y-90140216D01*
X142410501Y-90127589D01*
X142410501Y-90113837D01*
X142400306Y-90075788D01*
X142369577Y-89961109D01*
X142306735Y-89852262D01*
X142290524Y-89824183D01*
X142290518Y-89824175D01*
X141475587Y-89009244D01*
X141442102Y-88947921D01*
X141447086Y-88878229D01*
X141488958Y-88822296D01*
X141554422Y-88797879D01*
X141577148Y-88798342D01*
X141652267Y-88806806D01*
X141729997Y-88815565D01*
X141730000Y-88815565D01*
X141730004Y-88815565D01*
X141909249Y-88795369D01*
X141909252Y-88795368D01*
X141909255Y-88795368D01*
X142079522Y-88735789D01*
X142232262Y-88639816D01*
X142359816Y-88512262D01*
X142455789Y-88359522D01*
X142515368Y-88189255D01*
X142517431Y-88170945D01*
X142535565Y-88010003D01*
X142535565Y-88009996D01*
X142515369Y-87830750D01*
X142515368Y-87830745D01*
X142466364Y-87690700D01*
X142455789Y-87660478D01*
X142414172Y-87594245D01*
X142395172Y-87527009D01*
X142415540Y-87460173D01*
X142431476Y-87440601D01*
X142489816Y-87382262D01*
X142585789Y-87229522D01*
X142645368Y-87059255D01*
X142645369Y-87059249D01*
X142665565Y-86880003D01*
X142665565Y-86879996D01*
X142663312Y-86859996D01*
X165014435Y-86859996D01*
X165014435Y-86860003D01*
X165034630Y-87039249D01*
X165034631Y-87039254D01*
X165094211Y-87209523D01*
X165106778Y-87229523D01*
X165190184Y-87362262D01*
X165317738Y-87489816D01*
X165470478Y-87585789D01*
X165640745Y-87645368D01*
X165727669Y-87655161D01*
X165792080Y-87682226D01*
X165801465Y-87690700D01*
X166573181Y-88462416D01*
X166606666Y-88523739D01*
X166609500Y-88550097D01*
X166609500Y-92233330D01*
X166609499Y-92233348D01*
X166609499Y-92369341D01*
X166608719Y-92383225D01*
X166594435Y-92509997D01*
X166594435Y-92510003D01*
X166614630Y-92689249D01*
X166614631Y-92689254D01*
X166674211Y-92859523D01*
X166770184Y-93012262D01*
X166897738Y-93139816D01*
X167050478Y-93235789D01*
X167220745Y-93295368D01*
X167220750Y-93295369D01*
X167399996Y-93315565D01*
X167400000Y-93315565D01*
X167400004Y-93315565D01*
X167579249Y-93295369D01*
X167579252Y-93295368D01*
X167579255Y-93295368D01*
X167749522Y-93235789D01*
X167902262Y-93139816D01*
X168029816Y-93012262D01*
X168125789Y-92859522D01*
X168185368Y-92689255D01*
X168205565Y-92510000D01*
X168185368Y-92330745D01*
X168125789Y-92160478D01*
X168029816Y-92007738D01*
X167902262Y-91880184D01*
X167868526Y-91858986D01*
X167822236Y-91806651D01*
X167810500Y-91753993D01*
X167810500Y-88339059D01*
X167810501Y-88339046D01*
X167810501Y-88170945D01*
X167810501Y-88170943D01*
X167769577Y-88018215D01*
X167719190Y-87930943D01*
X167690520Y-87881284D01*
X167578716Y-87769480D01*
X167578715Y-87769479D01*
X167574385Y-87765149D01*
X167574374Y-87765139D01*
X166650700Y-86841465D01*
X166617215Y-86780142D01*
X166615163Y-86767686D01*
X166605368Y-86680745D01*
X166545789Y-86510478D01*
X166449816Y-86357738D01*
X166322262Y-86230184D01*
X166169523Y-86134211D01*
X165999254Y-86074631D01*
X165999249Y-86074630D01*
X165820004Y-86054435D01*
X165819996Y-86054435D01*
X165640750Y-86074630D01*
X165640745Y-86074631D01*
X165470476Y-86134211D01*
X165317737Y-86230184D01*
X165190184Y-86357737D01*
X165094211Y-86510476D01*
X165034631Y-86680745D01*
X165034630Y-86680750D01*
X165014435Y-86859996D01*
X142663312Y-86859996D01*
X142645369Y-86700750D01*
X142645368Y-86700745D01*
X142585788Y-86530476D01*
X142489815Y-86377737D01*
X142362262Y-86250184D01*
X142209521Y-86154210D01*
X142099379Y-86115670D01*
X142063545Y-86103131D01*
X142006770Y-86062410D01*
X141981022Y-85997458D01*
X141980500Y-85986090D01*
X141980500Y-85210908D01*
X142000185Y-85143869D01*
X142052989Y-85098114D01*
X142063536Y-85093869D01*
X142229522Y-85035789D01*
X142382262Y-84939816D01*
X142509816Y-84812262D01*
X142605789Y-84659522D01*
X142665368Y-84489255D01*
X142685565Y-84310000D01*
X142665368Y-84130745D01*
X142605789Y-83960478D01*
X142509816Y-83807738D01*
X142509814Y-83807736D01*
X142509813Y-83807734D01*
X142507550Y-83804896D01*
X142506659Y-83802715D01*
X142506111Y-83801842D01*
X142506264Y-83801745D01*
X142481144Y-83740209D01*
X142480500Y-83727587D01*
X142480500Y-79635203D01*
X142500185Y-79568164D01*
X142538528Y-79530209D01*
X142543695Y-79526963D01*
X142671249Y-79399409D01*
X142767222Y-79246669D01*
X142826801Y-79076402D01*
X142835409Y-79000003D01*
X142846998Y-78897150D01*
X142846998Y-78897143D01*
X142826802Y-78717897D01*
X142826801Y-78717892D01*
X142767221Y-78547623D01*
X142671248Y-78394884D01*
X142543695Y-78267331D01*
X142390956Y-78171358D01*
X142220687Y-78111778D01*
X142220682Y-78111777D01*
X142041437Y-78091582D01*
X142041429Y-78091582D01*
X141862183Y-78111777D01*
X141862178Y-78111778D01*
X141691909Y-78171358D01*
X141539163Y-78267335D01*
X141533984Y-78271466D01*
X141469296Y-78297870D01*
X141442795Y-78297734D01*
X141370007Y-78289533D01*
X141369999Y-78289533D01*
X141190753Y-78309728D01*
X141190745Y-78309730D01*
X141060955Y-78355146D01*
X140991177Y-78358707D01*
X140979046Y-78355145D01*
X140849262Y-78309731D01*
X140849249Y-78309728D01*
X140670004Y-78289533D01*
X140669996Y-78289533D01*
X140490750Y-78309728D01*
X140490737Y-78309731D01*
X140320478Y-78369308D01*
X140308634Y-78376750D01*
X140241397Y-78395748D01*
X140176693Y-78376747D01*
X140125952Y-78344863D01*
X139955682Y-78285283D01*
X139955677Y-78285282D01*
X139776432Y-78265087D01*
X139776424Y-78265087D01*
X139597174Y-78285283D01*
X139597170Y-78285284D01*
X139557170Y-78299280D01*
X139487392Y-78302841D01*
X139450247Y-78287233D01*
X139429522Y-78274211D01*
X139259254Y-78214631D01*
X139259249Y-78214630D01*
X139080004Y-78194435D01*
X139079996Y-78194435D01*
X138900750Y-78214630D01*
X138900745Y-78214631D01*
X138730476Y-78274211D01*
X138577737Y-78370184D01*
X138450184Y-78497737D01*
X138354211Y-78650476D01*
X138294631Y-78820745D01*
X138294630Y-78820750D01*
X138274435Y-78999996D01*
X137530500Y-78999996D01*
X137530500Y-74569996D01*
X142874435Y-74569996D01*
X142874435Y-74570003D01*
X142894630Y-74749249D01*
X142894631Y-74749254D01*
X142954211Y-74919523D01*
X143050184Y-75072262D01*
X143177738Y-75199816D01*
X143330478Y-75295789D01*
X143500745Y-75355368D01*
X143500750Y-75355369D01*
X143679996Y-75375565D01*
X143680000Y-75375565D01*
X143680004Y-75375565D01*
X143859249Y-75355369D01*
X143859252Y-75355368D01*
X143859255Y-75355368D01*
X144029522Y-75295789D01*
X144182262Y-75199816D01*
X144309816Y-75072262D01*
X144405789Y-74919522D01*
X144465368Y-74749255D01*
X144485565Y-74570000D01*
X144465368Y-74390745D01*
X144465367Y-74390743D01*
X144465366Y-74390737D01*
X144430437Y-74290916D01*
X144426875Y-74221137D01*
X144459797Y-74162279D01*
X144462256Y-74159819D01*
X144462262Y-74159816D01*
X144589816Y-74032262D01*
X144685789Y-73879522D01*
X144745368Y-73709255D01*
X144765565Y-73530000D01*
X144765350Y-73528095D01*
X144745369Y-73350750D01*
X144745368Y-73350745D01*
X144685788Y-73180476D01*
X144589815Y-73027737D01*
X144462262Y-72900184D01*
X144309523Y-72804211D01*
X144139254Y-72744631D01*
X144139249Y-72744630D01*
X143960004Y-72724435D01*
X143959996Y-72724435D01*
X143780750Y-72744630D01*
X143780745Y-72744631D01*
X143610476Y-72804211D01*
X143457737Y-72900184D01*
X143330184Y-73027737D01*
X143234210Y-73180478D01*
X143174630Y-73350750D01*
X143158828Y-73491002D01*
X143142995Y-73539118D01*
X143120424Y-73578211D01*
X143120423Y-73578215D01*
X143079499Y-73730943D01*
X143079499Y-73730945D01*
X143079499Y-73899046D01*
X143079500Y-73899059D01*
X143079500Y-73987587D01*
X143059815Y-74054626D01*
X143052450Y-74064896D01*
X143050186Y-74067734D01*
X142954211Y-74220476D01*
X142894631Y-74390745D01*
X142894630Y-74390750D01*
X142874435Y-74569996D01*
X137530500Y-74569996D01*
X137530500Y-54777963D01*
X137550185Y-54710924D01*
X137553729Y-54707853D01*
X137750871Y-54707853D01*
X137773477Y-54743028D01*
X137778318Y-54771250D01*
X137793808Y-55056954D01*
X137850833Y-55404793D01*
X137850834Y-55404796D01*
X137945126Y-55744408D01*
X137945127Y-55744410D01*
X138075588Y-56071844D01*
X138075593Y-56071854D01*
X138240695Y-56383269D01*
X138370697Y-56575008D01*
X138438498Y-56675006D01*
X138438505Y-56675016D01*
X138581744Y-56843649D01*
X138666686Y-56943650D01*
X138922580Y-57186046D01*
X139203182Y-57399354D01*
X139505202Y-57581074D01*
X139505206Y-57581075D01*
X139505210Y-57581078D01*
X139825088Y-57729070D01*
X139825092Y-57729070D01*
X139825099Y-57729074D01*
X140159122Y-57841619D01*
X140503355Y-57917391D01*
X140853763Y-57955500D01*
X140853769Y-57955500D01*
X141206231Y-57955500D01*
X141206237Y-57955500D01*
X141556645Y-57917391D01*
X141900878Y-57841619D01*
X142234901Y-57729074D01*
X142234908Y-57729070D01*
X142234911Y-57729070D01*
X142554789Y-57581078D01*
X142554798Y-57581074D01*
X142856818Y-57399354D01*
X143137420Y-57186046D01*
X143393314Y-56943650D01*
X143621501Y-56675008D01*
X143819305Y-56383269D01*
X143984407Y-56071854D01*
X144114871Y-55744414D01*
X144209168Y-55404788D01*
X144266191Y-55056957D01*
X144285274Y-54705000D01*
X144279852Y-54604997D01*
X165674726Y-54604997D01*
X165674726Y-54605002D01*
X165693808Y-54956954D01*
X165750833Y-55304793D01*
X165750834Y-55304796D01*
X165845126Y-55644408D01*
X165845127Y-55644410D01*
X165975588Y-55971844D01*
X165975597Y-55971862D01*
X166140695Y-56283269D01*
X166338498Y-56575006D01*
X166338505Y-56575016D01*
X166566685Y-56843649D01*
X166566686Y-56843650D01*
X166822580Y-57086046D01*
X167103182Y-57299354D01*
X167405202Y-57481074D01*
X167405206Y-57481075D01*
X167405210Y-57481078D01*
X167725088Y-57629070D01*
X167725092Y-57629070D01*
X167725099Y-57629074D01*
X168059122Y-57741619D01*
X168403355Y-57817391D01*
X168753763Y-57855500D01*
X168753769Y-57855500D01*
X169106231Y-57855500D01*
X169106237Y-57855500D01*
X169456645Y-57817391D01*
X169800878Y-57741619D01*
X170134901Y-57629074D01*
X170134908Y-57629070D01*
X170134911Y-57629070D01*
X170454789Y-57481078D01*
X170454798Y-57481074D01*
X170756818Y-57299354D01*
X171037420Y-57086046D01*
X171293314Y-56843650D01*
X171521501Y-56575008D01*
X171719305Y-56283269D01*
X171884407Y-55971854D01*
X172014871Y-55644414D01*
X172109168Y-55304788D01*
X172166191Y-54956957D01*
X172185274Y-54605000D01*
X172166191Y-54253043D01*
X172109168Y-53905212D01*
X172066704Y-53752271D01*
X172014873Y-53565591D01*
X172014872Y-53565589D01*
X171884411Y-53238155D01*
X171884402Y-53238137D01*
X171862243Y-53196340D01*
X171719305Y-52926731D01*
X171521501Y-52634992D01*
X171521497Y-52634987D01*
X171521494Y-52634983D01*
X171293314Y-52366350D01*
X171248917Y-52324295D01*
X171037420Y-52123954D01*
X171037413Y-52123948D01*
X171037410Y-52123946D01*
X170756815Y-51910644D01*
X170454802Y-51728928D01*
X170454789Y-51728921D01*
X170134911Y-51580929D01*
X170134906Y-51580928D01*
X170134903Y-51580927D01*
X170134901Y-51580926D01*
X170028432Y-51545052D01*
X169800880Y-51468381D01*
X169456643Y-51392608D01*
X169106238Y-51354500D01*
X169106237Y-51354500D01*
X168753763Y-51354500D01*
X168753761Y-51354500D01*
X168403356Y-51392608D01*
X168059119Y-51468381D01*
X167725093Y-51580928D01*
X167725088Y-51580929D01*
X167405210Y-51728921D01*
X167405197Y-51728928D01*
X167103184Y-51910644D01*
X166822589Y-52123946D01*
X166822580Y-52123954D01*
X166566685Y-52366350D01*
X166338505Y-52634983D01*
X166338498Y-52634993D01*
X166140695Y-52926730D01*
X165975597Y-53238137D01*
X165975588Y-53238155D01*
X165845127Y-53565589D01*
X165845126Y-53565591D01*
X165750834Y-53905203D01*
X165750833Y-53905206D01*
X165693808Y-54253045D01*
X165674726Y-54604997D01*
X144279852Y-54604997D01*
X144266191Y-54353043D01*
X144209168Y-54005212D01*
X144166704Y-53852271D01*
X144114873Y-53665591D01*
X144114872Y-53665589D01*
X143984411Y-53338155D01*
X143984402Y-53338137D01*
X143931390Y-53238146D01*
X143819305Y-53026731D01*
X143621501Y-52734992D01*
X143621497Y-52734987D01*
X143621494Y-52734983D01*
X143393314Y-52466350D01*
X143287745Y-52366350D01*
X143137420Y-52223954D01*
X143137413Y-52223948D01*
X143137410Y-52223946D01*
X142963232Y-52091540D01*
X142856818Y-52010646D01*
X142856815Y-52010644D01*
X142554802Y-51828928D01*
X142554789Y-51828921D01*
X142234911Y-51680929D01*
X142234906Y-51680928D01*
X142234903Y-51680927D01*
X142234901Y-51680926D01*
X142095917Y-51634097D01*
X141900880Y-51568381D01*
X141556643Y-51492608D01*
X141206238Y-51454500D01*
X141206237Y-51454500D01*
X140853763Y-51454500D01*
X140853761Y-51454500D01*
X140503356Y-51492608D01*
X140159119Y-51568381D01*
X139825093Y-51680928D01*
X139825088Y-51680929D01*
X139505210Y-51828921D01*
X139505197Y-51828928D01*
X139203184Y-52010644D01*
X138922589Y-52223946D01*
X138922580Y-52223954D01*
X138666685Y-52466350D01*
X138438505Y-52734983D01*
X138438498Y-52734993D01*
X138240695Y-53026730D01*
X138075597Y-53338137D01*
X138075588Y-53338155D01*
X137945127Y-53665589D01*
X137945126Y-53665591D01*
X137850834Y-54005203D01*
X137850833Y-54005206D01*
X137793808Y-54353045D01*
X137778318Y-54638749D01*
X137755033Y-54704625D01*
X137750871Y-54707853D01*
X137553729Y-54707853D01*
X137558429Y-54703780D01*
X137533806Y-54660478D01*
X137530500Y-54632036D01*
X137530500Y-53508750D01*
X137530726Y-53501263D01*
X137546641Y-53238155D01*
X137548271Y-53211201D01*
X137550076Y-53196340D01*
X137601780Y-52914201D01*
X137605364Y-52899663D01*
X137690696Y-52625822D01*
X137695998Y-52611841D01*
X137813731Y-52350249D01*
X137820676Y-52337016D01*
X137969080Y-52091526D01*
X137977567Y-52079230D01*
X138154480Y-51853417D01*
X138164395Y-51842226D01*
X138367226Y-51639395D01*
X138378417Y-51629480D01*
X138604230Y-51452567D01*
X138616526Y-51444080D01*
X138862016Y-51295676D01*
X138875249Y-51288731D01*
X139136841Y-51170998D01*
X139150822Y-51165696D01*
X139424668Y-51080362D01*
X139439197Y-51076780D01*
X139721344Y-51025075D01*
X139736201Y-51023271D01*
X140026264Y-51005726D01*
X140033751Y-51005500D01*
X140095892Y-51005500D01*
X169964108Y-51005500D01*
X170026249Y-51005500D01*
X170033736Y-51005726D01*
G37*
%TD.AperFunction*%
%TD*%
M02*
