%TF.GenerationSoftware,KiCad,Pcbnew,8.0.7*%
%TF.CreationDate,2025-01-15T11:33:58+05:30*%
%TF.ProjectId,STHDAQ_B1,53544844-4151-45f4-9231-2e6b69636164,rev?*%
%TF.SameCoordinates,Original*%
%TF.FileFunction,Other,User*%
%FSLAX46Y46*%
G04 Gerber Fmt 4.6, Leading zero omitted, Abs format (unit mm)*
G04 Created by KiCad (PCBNEW 8.0.7) date 2025-01-15 11:33:58*
%MOMM*%
%LPD*%
G01*
G04 APERTURE LIST*
%ADD10C,0.050000*%
%ADD11C,0.152400*%
%ADD12C,0.127000*%
G04 APERTURE END LIST*
D10*
%TO.C,C1*%
X148190000Y-90870000D02*
X149590000Y-90870000D01*
X148190000Y-91570000D02*
X148190000Y-90870000D01*
X149590000Y-90870000D02*
X149590000Y-91570000D01*
X149590000Y-91570000D02*
X148190000Y-91570000D01*
%TO.C,C4*%
X148280000Y-85560000D02*
X149680000Y-85560000D01*
X148280000Y-86260000D02*
X148280000Y-85560000D01*
X149680000Y-85560000D02*
X149680000Y-86260000D01*
X149680000Y-86260000D02*
X148280000Y-86260000D01*
%TO.C,R4*%
X148005000Y-66160000D02*
X146605000Y-66160000D01*
X148005000Y-65460000D02*
X148005000Y-66160000D01*
X146605000Y-66160000D02*
X146605000Y-65460000D01*
X146605000Y-65460000D02*
X148005000Y-65460000D01*
%TO.C,U2*%
X149280000Y-58662500D02*
X172780000Y-58662500D01*
X149280000Y-79162500D02*
X149280000Y-58662500D01*
X172780000Y-58662500D02*
X172780000Y-79162500D01*
X172780000Y-79162500D02*
X149280000Y-79162500D01*
%TO.C,C6*%
X148300000Y-86470000D02*
X149700000Y-86470000D01*
X148300000Y-87170000D02*
X148300000Y-86470000D01*
X149700000Y-86470000D02*
X149700000Y-87170000D01*
X149700000Y-87170000D02*
X148300000Y-87170000D01*
%TO.C,H1*%
X171930000Y-54605000D02*
G75*
G02*
X165930000Y-54605000I-3000000J0D01*
G01*
X165930000Y-54605000D02*
G75*
G02*
X171930000Y-54605000I3000000J0D01*
G01*
%TO.C,D1*%
X152730000Y-94650000D02*
X154130000Y-94650000D01*
X152730000Y-95350000D02*
X152730000Y-94650000D01*
X154130000Y-94650000D02*
X154130000Y-95350000D01*
X154130000Y-95350000D02*
X152730000Y-95350000D01*
%TO.C,R6*%
X156095000Y-85895000D02*
X157495000Y-85895000D01*
X156095000Y-86595000D02*
X156095000Y-85895000D01*
X157495000Y-85895000D02*
X157495000Y-86595000D01*
X157495000Y-86595000D02*
X156095000Y-86595000D01*
%TO.C,C2*%
X148235000Y-91835000D02*
X149635000Y-91835000D01*
X148235000Y-92535000D02*
X148235000Y-91835000D01*
X149635000Y-91835000D02*
X149635000Y-92535000D01*
X149635000Y-92535000D02*
X148235000Y-92535000D01*
%TO.C,D3*%
X152752500Y-96575000D02*
X154152500Y-96575000D01*
X152752500Y-97275000D02*
X152752500Y-96575000D01*
X154152500Y-96575000D02*
X154152500Y-97275000D01*
X154152500Y-97275000D02*
X152752500Y-97275000D01*
%TO.C,C7*%
X153860000Y-83215000D02*
X154560000Y-83215000D01*
X153860000Y-84615000D02*
X153860000Y-83215000D01*
X154560000Y-83215000D02*
X154560000Y-84615000D01*
X154560000Y-84615000D02*
X153860000Y-84615000D01*
%TO.C,R2*%
X148005000Y-69660000D02*
X146605000Y-69660000D01*
X148005000Y-68960000D02*
X148005000Y-69660000D01*
X146605000Y-69660000D02*
X146605000Y-68960000D01*
X146605000Y-68960000D02*
X148005000Y-68960000D01*
%TO.C,H2*%
X144030000Y-54705000D02*
G75*
G02*
X138030000Y-54705000I-3000000J0D01*
G01*
X138030000Y-54705000D02*
G75*
G02*
X144030000Y-54705000I3000000J0D01*
G01*
D11*
%TO.C,J1*%
X137760500Y-79241100D02*
X137760500Y-98308900D01*
X137760500Y-98308900D02*
X144119400Y-98308900D01*
X144119400Y-79241100D02*
X137760500Y-79241100D01*
X144119400Y-98308900D02*
X144119400Y-79241100D01*
D10*
%TO.C,R1*%
X148205000Y-92755000D02*
X149605000Y-92755000D01*
X148205000Y-93455000D02*
X148205000Y-92755000D01*
X149605000Y-92755000D02*
X149605000Y-93455000D01*
X149605000Y-93455000D02*
X148205000Y-93455000D01*
%TO.C,D5*%
X156090000Y-86905000D02*
X157490000Y-86905000D01*
X156090000Y-87605000D02*
X156090000Y-86905000D01*
X157490000Y-86905000D02*
X157490000Y-87605000D01*
X157490000Y-87605000D02*
X156090000Y-87605000D01*
%TO.C,L1*%
X151230000Y-83235000D02*
X151930000Y-83235000D01*
X151230000Y-84635000D02*
X151230000Y-83235000D01*
X151930000Y-83235000D02*
X151930000Y-84635000D01*
X151930000Y-84635000D02*
X151230000Y-84635000D01*
%TO.C,D4*%
X152750000Y-97460000D02*
X154150000Y-97460000D01*
X152750000Y-98160000D02*
X152750000Y-97460000D01*
X154150000Y-97460000D02*
X154150000Y-98160000D01*
X154150000Y-98160000D02*
X152750000Y-98160000D01*
%TO.C,R3*%
X148005000Y-67910000D02*
X146605000Y-67910000D01*
X148005000Y-67210000D02*
X148005000Y-67910000D01*
X146605000Y-67910000D02*
X146605000Y-67210000D01*
X146605000Y-67210000D02*
X148005000Y-67210000D01*
%TO.C,D2*%
X152730000Y-95540000D02*
X154130000Y-95540000D01*
X152730000Y-96240000D02*
X152730000Y-95540000D01*
X154130000Y-95540000D02*
X154130000Y-96240000D01*
X154130000Y-96240000D02*
X152730000Y-96240000D01*
%TO.C,SW1*%
X155690000Y-88745000D02*
X155690000Y-96545000D01*
X161190000Y-88745000D02*
X155690000Y-88745000D01*
X161190000Y-88745000D02*
X161190000Y-96545000D01*
X161190000Y-96545000D02*
X155690000Y-96545000D01*
D12*
%TO.C,P2*%
X162385000Y-91950000D02*
X163885000Y-91950000D01*
X162385000Y-96450000D02*
X162385000Y-91950000D01*
X163885000Y-89700000D02*
X172635000Y-89700000D01*
X163885000Y-91950000D02*
X163885000Y-89700000D01*
X163885000Y-96450000D02*
X162385000Y-96450000D01*
X163885000Y-98700000D02*
X163885000Y-96450000D01*
X172635000Y-89700000D02*
X172635000Y-98700000D01*
X172635000Y-98700000D02*
X163885000Y-98700000D01*
D10*
%TO.C,C5*%
X152120000Y-83235000D02*
X152820000Y-83235000D01*
X152120000Y-84635000D02*
X152120000Y-83235000D01*
X152820000Y-83235000D02*
X152820000Y-84635000D01*
X152820000Y-84635000D02*
X152120000Y-84635000D01*
%TO.C,R9*%
X147980000Y-74860000D02*
X146580000Y-74860000D01*
X147980000Y-74160000D02*
X147980000Y-74860000D01*
X146580000Y-74860000D02*
X146580000Y-74160000D01*
X146580000Y-74160000D02*
X147980000Y-74160000D01*
%TO.C,S1*%
X150090000Y-100373691D02*
X159090000Y-100373691D01*
X150090000Y-104873691D02*
X150090000Y-100373691D01*
X159090000Y-100373691D02*
X159090000Y-104873691D01*
X159090000Y-104873691D02*
X150090000Y-104873691D01*
%TO.C,R5*%
X146605000Y-63710000D02*
X148005000Y-63710000D01*
X146605000Y-64410000D02*
X146605000Y-63710000D01*
X148005000Y-63710000D02*
X148005000Y-64410000D01*
X148005000Y-64410000D02*
X146605000Y-64410000D01*
%TO.C,R10*%
X147980000Y-73110000D02*
X146580000Y-73110000D01*
X147980000Y-72410000D02*
X147980000Y-73110000D01*
X146580000Y-73110000D02*
X146580000Y-72410000D01*
X146580000Y-72410000D02*
X147980000Y-72410000D01*
%TO.C,R8*%
X152990000Y-83220000D02*
X153690000Y-83220000D01*
X152990000Y-84620000D02*
X152990000Y-83220000D01*
X153690000Y-83220000D02*
X153690000Y-84620000D01*
X153690000Y-84620000D02*
X152990000Y-84620000D01*
%TO.C,H4*%
X171930000Y-102405000D02*
G75*
G02*
X165930000Y-102405000I-3000000J0D01*
G01*
X165930000Y-102405000D02*
G75*
G02*
X171930000Y-102405000I3000000J0D01*
G01*
D12*
%TO.C,P1*%
X162440000Y-82640000D02*
X163940000Y-82640000D01*
X162440000Y-87140000D02*
X162440000Y-82640000D01*
X163940000Y-80390000D02*
X172690000Y-80390000D01*
X163940000Y-82640000D02*
X163940000Y-80390000D01*
X163940000Y-87140000D02*
X162440000Y-87140000D01*
X163940000Y-89390000D02*
X163940000Y-87140000D01*
X172690000Y-80390000D02*
X172690000Y-89390000D01*
X172690000Y-89390000D02*
X163940000Y-89390000D01*
D10*
%TO.C,H3*%
X144030000Y-102505000D02*
G75*
G02*
X138030000Y-102505000I-3000000J0D01*
G01*
X138030000Y-102505000D02*
G75*
G02*
X144030000Y-102505000I3000000J0D01*
G01*
%TO.C,R7*%
X156080000Y-84905000D02*
X157480000Y-84905000D01*
X156080000Y-85605000D02*
X156080000Y-84905000D01*
X157480000Y-84905000D02*
X157480000Y-85605000D01*
X157480000Y-85605000D02*
X156080000Y-85605000D01*
%TO.C,R11*%
X147980000Y-71360000D02*
X146580000Y-71360000D01*
X147980000Y-70660000D02*
X147980000Y-71360000D01*
X146580000Y-71360000D02*
X146580000Y-70660000D01*
X146580000Y-70660000D02*
X147980000Y-70660000D01*
%TO.C,C3*%
X148295000Y-87425000D02*
X149695000Y-87425000D01*
X148295000Y-88125000D02*
X148295000Y-87425000D01*
X149695000Y-87425000D02*
X149695000Y-88125000D01*
X149695000Y-88125000D02*
X148295000Y-88125000D01*
%TD*%
M02*
