%TF.GenerationSoftware,KiCad,Pcbnew,8.0.7*%
%TF.CreationDate,2025-01-13T12:12:35+05:30*%
%TF.ProjectId,STHDAQ_BX,53544844-4151-45f4-9258-2e6b69636164,rev?*%
%TF.SameCoordinates,Original*%
%TF.FileFunction,Drillmap*%
%TF.FilePolarity,Positive*%
%FSLAX45Y45*%
G04 Gerber Fmt 4.5, Leading zero omitted, Abs format (unit mm)*
G04 Created by KiCad (PCBNEW 8.0.7) date 2025-01-13 12:12:35*
%MOMM*%
%LPD*%
G01*
G04 APERTURE LIST*
%ADD10C,0.050000*%
%ADD11C,0.200000*%
G04 APERTURE END LIST*
D10*
X17300000Y-13600000D02*
G75*
G02*
X17000000Y-13300000I0J300000D01*
G01*
X20600000Y-8300000D02*
X20600000Y-13300000D01*
X17300000Y-8000000D02*
X20300000Y-8000000D01*
X20300000Y-13600000D02*
X17300000Y-13600000D01*
X20300000Y-8000000D02*
G75*
G02*
X20600000Y-8300000I0J-300000D01*
G01*
X17000000Y-13300000D02*
X17000000Y-8300000D01*
X17000000Y-8300000D02*
G75*
G02*
X17300000Y-8000000I300000J0D01*
G01*
X20600000Y-13300000D02*
G75*
G02*
X20300000Y-13600000I-300000J0D01*
G01*
D11*
X17258277Y-13913984D02*
X17258277Y-13713984D01*
X17258277Y-13713984D02*
X17305896Y-13713984D01*
X17305896Y-13713984D02*
X17334467Y-13723508D01*
X17334467Y-13723508D02*
X17353515Y-13742555D01*
X17353515Y-13742555D02*
X17363039Y-13761603D01*
X17363039Y-13761603D02*
X17372563Y-13799698D01*
X17372563Y-13799698D02*
X17372563Y-13828269D01*
X17372563Y-13828269D02*
X17363039Y-13866365D01*
X17363039Y-13866365D02*
X17353515Y-13885412D01*
X17353515Y-13885412D02*
X17334467Y-13904460D01*
X17334467Y-13904460D02*
X17305896Y-13913984D01*
X17305896Y-13913984D02*
X17258277Y-13913984D01*
X17458277Y-13913984D02*
X17458277Y-13780650D01*
X17458277Y-13818746D02*
X17467801Y-13799698D01*
X17467801Y-13799698D02*
X17477324Y-13790174D01*
X17477324Y-13790174D02*
X17496372Y-13780650D01*
X17496372Y-13780650D02*
X17515420Y-13780650D01*
X17582086Y-13913984D02*
X17582086Y-13780650D01*
X17582086Y-13713984D02*
X17572563Y-13723508D01*
X17572563Y-13723508D02*
X17582086Y-13733031D01*
X17582086Y-13733031D02*
X17591610Y-13723508D01*
X17591610Y-13723508D02*
X17582086Y-13713984D01*
X17582086Y-13713984D02*
X17582086Y-13733031D01*
X17705896Y-13913984D02*
X17686848Y-13904460D01*
X17686848Y-13904460D02*
X17677324Y-13885412D01*
X17677324Y-13885412D02*
X17677324Y-13713984D01*
X17810658Y-13913984D02*
X17791610Y-13904460D01*
X17791610Y-13904460D02*
X17782086Y-13885412D01*
X17782086Y-13885412D02*
X17782086Y-13713984D01*
X18039229Y-13913984D02*
X18039229Y-13713984D01*
X18039229Y-13713984D02*
X18105896Y-13856841D01*
X18105896Y-13856841D02*
X18172563Y-13713984D01*
X18172563Y-13713984D02*
X18172563Y-13913984D01*
X18353515Y-13913984D02*
X18353515Y-13809222D01*
X18353515Y-13809222D02*
X18343991Y-13790174D01*
X18343991Y-13790174D02*
X18324944Y-13780650D01*
X18324944Y-13780650D02*
X18286848Y-13780650D01*
X18286848Y-13780650D02*
X18267801Y-13790174D01*
X18353515Y-13904460D02*
X18334467Y-13913984D01*
X18334467Y-13913984D02*
X18286848Y-13913984D01*
X18286848Y-13913984D02*
X18267801Y-13904460D01*
X18267801Y-13904460D02*
X18258277Y-13885412D01*
X18258277Y-13885412D02*
X18258277Y-13866365D01*
X18258277Y-13866365D02*
X18267801Y-13847317D01*
X18267801Y-13847317D02*
X18286848Y-13837793D01*
X18286848Y-13837793D02*
X18334467Y-13837793D01*
X18334467Y-13837793D02*
X18353515Y-13828269D01*
X18448753Y-13780650D02*
X18448753Y-13980650D01*
X18448753Y-13790174D02*
X18467801Y-13780650D01*
X18467801Y-13780650D02*
X18505896Y-13780650D01*
X18505896Y-13780650D02*
X18524944Y-13790174D01*
X18524944Y-13790174D02*
X18534467Y-13799698D01*
X18534467Y-13799698D02*
X18543991Y-13818746D01*
X18543991Y-13818746D02*
X18543991Y-13875888D01*
X18543991Y-13875888D02*
X18534467Y-13894936D01*
X18534467Y-13894936D02*
X18524944Y-13904460D01*
X18524944Y-13904460D02*
X18505896Y-13913984D01*
X18505896Y-13913984D02*
X18467801Y-13913984D01*
X18467801Y-13913984D02*
X18448753Y-13904460D01*
X18629705Y-13894936D02*
X18639229Y-13904460D01*
X18639229Y-13904460D02*
X18629705Y-13913984D01*
X18629705Y-13913984D02*
X18620182Y-13904460D01*
X18620182Y-13904460D02*
X18629705Y-13894936D01*
X18629705Y-13894936D02*
X18629705Y-13913984D01*
X18629705Y-13790174D02*
X18639229Y-13799698D01*
X18639229Y-13799698D02*
X18629705Y-13809222D01*
X18629705Y-13809222D02*
X18620182Y-13799698D01*
X18620182Y-13799698D02*
X18629705Y-13790174D01*
X18629705Y-13790174D02*
X18629705Y-13809222D01*
M02*
