%TF.GenerationSoftware,KiCad,Pcbnew,8.0.7*%
%TF.CreationDate,2025-01-13T12:12:35+05:30*%
%TF.ProjectId,STHDAQ_BX,53544844-4151-45f4-9258-2e6b69636164,rev?*%
%TF.SameCoordinates,Original*%
%TF.FileFunction,Plated,1,2,PTH,Drill*%
%TF.FilePolarity,Positive*%
%FSLAX46Y46*%
G04 Gerber Fmt 4.6, Leading zero omitted, Abs format (unit mm)*
G04 Created by KiCad (PCBNEW 8.0.7) date 2025-01-13 12:12:35*
%MOMM*%
%LPD*%
G01*
G04 APERTURE LIST*
%TA.AperFunction,ViaDrill*%
%ADD10C,0.300000*%
%TD*%
%TA.AperFunction,ComponentDrill*%
%ADD11C,3.200000*%
%TD*%
G04 APERTURE END LIST*
D10*
X174970000Y-122160000D03*
X175230000Y-123480000D03*
X175910000Y-100530000D03*
X175970000Y-98590000D03*
X176030000Y-90080000D03*
X177260000Y-106000000D03*
X178400000Y-127810000D03*
X178600000Y-97480000D03*
X179460000Y-107700000D03*
X179520000Y-88510000D03*
X179948554Y-110631446D03*
X181110000Y-84403900D03*
X181280000Y-107550000D03*
X181540000Y-116120000D03*
X181552500Y-117460000D03*
X181590000Y-114890000D03*
X181619039Y-120409428D03*
X181672500Y-121880000D03*
X181672500Y-123290000D03*
X181702500Y-118730000D03*
X181722500Y-124930000D03*
X183490000Y-115820000D03*
X184832500Y-115180000D03*
X184840000Y-106880000D03*
X184857500Y-116260000D03*
X185720000Y-109550000D03*
X186990000Y-110040000D03*
X187380000Y-82400000D03*
X188070000Y-119300000D03*
X188240000Y-127020000D03*
X188300000Y-109810000D03*
X189510000Y-83880000D03*
X189920000Y-119020000D03*
X190240000Y-125280000D03*
X191100000Y-113210000D03*
X192720000Y-127250000D03*
X193530000Y-114960000D03*
X194390000Y-125820000D03*
X194900000Y-90600000D03*
X196780000Y-124160000D03*
X196820000Y-125040000D03*
X197310000Y-127150000D03*
X197330000Y-126240000D03*
X197440000Y-90600000D03*
X198250000Y-113350000D03*
X199390000Y-125490000D03*
X199930000Y-107600000D03*
X199980000Y-90600000D03*
X202310000Y-123500000D03*
X202520000Y-90600000D03*
X203870000Y-121290000D03*
D11*
%TO.C,H2*%
X174000000Y-84200000D03*
%TO.C,H3*%
X174000000Y-132000000D03*
%TO.C,H1*%
X201900000Y-84100000D03*
%TO.C,H4*%
X201900000Y-131900000D03*
M02*
