%TF.GenerationSoftware,KiCad,Pcbnew,8.0.7*%
%TF.CreationDate,2025-01-13T12:12:40+05:30*%
%TF.ProjectId,STHDAQ_BX,53544844-4151-45f4-9258-2e6b69636164,rev?*%
%TF.SameCoordinates,Original*%
%TF.FileFunction,AssemblyDrawing,Top*%
%FSLAX46Y46*%
G04 Gerber Fmt 4.6, Leading zero omitted, Abs format (unit mm)*
G04 Created by KiCad (PCBNEW 8.0.7) date 2025-01-13 12:12:40*
%MOMM*%
%LPD*%
G01*
G04 APERTURE LIST*
%ADD10C,0.150000*%
%ADD11C,0.040000*%
%ADD12C,0.100000*%
%ADD13C,0.127000*%
%ADD14C,0.025400*%
%ADD15C,0.508000*%
%ADD16C,0.200000*%
G04 APERTURE END LIST*
D10*
X195206492Y-127906072D02*
X195254123Y-127763177D01*
X195254123Y-127763177D02*
X195254123Y-127525018D01*
X195254123Y-127525018D02*
X195206492Y-127429754D01*
X195206492Y-127429754D02*
X195158860Y-127382122D01*
X195158860Y-127382122D02*
X195063596Y-127334491D01*
X195063596Y-127334491D02*
X194968332Y-127334491D01*
X194968332Y-127334491D02*
X194873069Y-127382122D01*
X194873069Y-127382122D02*
X194825437Y-127429754D01*
X194825437Y-127429754D02*
X194777805Y-127525018D01*
X194777805Y-127525018D02*
X194730173Y-127715545D01*
X194730173Y-127715545D02*
X194682542Y-127810809D01*
X194682542Y-127810809D02*
X194634910Y-127858440D01*
X194634910Y-127858440D02*
X194539646Y-127906072D01*
X194539646Y-127906072D02*
X194444383Y-127906072D01*
X194444383Y-127906072D02*
X194349119Y-127858440D01*
X194349119Y-127858440D02*
X194301487Y-127810809D01*
X194301487Y-127810809D02*
X194253855Y-127715545D01*
X194253855Y-127715545D02*
X194253855Y-127477386D01*
X194253855Y-127477386D02*
X194301487Y-127334491D01*
X194349119Y-126953436D02*
X194301487Y-126905804D01*
X194301487Y-126905804D02*
X194253855Y-126810541D01*
X194253855Y-126810541D02*
X194253855Y-126572382D01*
X194253855Y-126572382D02*
X194301487Y-126477118D01*
X194301487Y-126477118D02*
X194349119Y-126429486D01*
X194349119Y-126429486D02*
X194444383Y-126381855D01*
X194444383Y-126381855D02*
X194539646Y-126381855D01*
X194539646Y-126381855D02*
X194682542Y-126429486D01*
X194682542Y-126429486D02*
X195254123Y-127001068D01*
X195254123Y-127001068D02*
X195254123Y-126381855D01*
X194730173Y-125619746D02*
X194777805Y-125476850D01*
X194777805Y-125476850D02*
X194825437Y-125429219D01*
X194825437Y-125429219D02*
X194920701Y-125381587D01*
X194920701Y-125381587D02*
X195063596Y-125381587D01*
X195063596Y-125381587D02*
X195158860Y-125429219D01*
X195158860Y-125429219D02*
X195206492Y-125476850D01*
X195206492Y-125476850D02*
X195254123Y-125572114D01*
X195254123Y-125572114D02*
X195254123Y-125953168D01*
X195254123Y-125953168D02*
X194253855Y-125953168D01*
X194253855Y-125953168D02*
X194253855Y-125619746D01*
X194253855Y-125619746D02*
X194301487Y-125524482D01*
X194301487Y-125524482D02*
X194349119Y-125476850D01*
X194349119Y-125476850D02*
X194444383Y-125429219D01*
X194444383Y-125429219D02*
X194539646Y-125429219D01*
X194539646Y-125429219D02*
X194634910Y-125476850D01*
X194634910Y-125476850D02*
X194682542Y-125524482D01*
X194682542Y-125524482D02*
X194730173Y-125619746D01*
X194730173Y-125619746D02*
X194730173Y-125953168D01*
X194873069Y-124952900D02*
X194873069Y-124190792D01*
X195254123Y-123714473D02*
X194253855Y-123714473D01*
X194253855Y-123714473D02*
X194253855Y-123333419D01*
X194253855Y-123333419D02*
X194301487Y-123238155D01*
X194301487Y-123238155D02*
X194349119Y-123190524D01*
X194349119Y-123190524D02*
X194444383Y-123142892D01*
X194444383Y-123142892D02*
X194587278Y-123142892D01*
X194587278Y-123142892D02*
X194682542Y-123190524D01*
X194682542Y-123190524D02*
X194730173Y-123238155D01*
X194730173Y-123238155D02*
X194777805Y-123333419D01*
X194777805Y-123333419D02*
X194777805Y-123714473D01*
X195254123Y-122714205D02*
X194253855Y-122714205D01*
X194730173Y-122714205D02*
X194730173Y-122142624D01*
X195254123Y-122142624D02*
X194253855Y-122142624D01*
X194873069Y-121666305D02*
X194873069Y-120904197D01*
X195206492Y-120475510D02*
X195254123Y-120332615D01*
X195254123Y-120332615D02*
X195254123Y-120094456D01*
X195254123Y-120094456D02*
X195206492Y-119999192D01*
X195206492Y-119999192D02*
X195158860Y-119951560D01*
X195158860Y-119951560D02*
X195063596Y-119903929D01*
X195063596Y-119903929D02*
X194968332Y-119903929D01*
X194968332Y-119903929D02*
X194873069Y-119951560D01*
X194873069Y-119951560D02*
X194825437Y-119999192D01*
X194825437Y-119999192D02*
X194777805Y-120094456D01*
X194777805Y-120094456D02*
X194730173Y-120284983D01*
X194730173Y-120284983D02*
X194682542Y-120380247D01*
X194682542Y-120380247D02*
X194634910Y-120427878D01*
X194634910Y-120427878D02*
X194539646Y-120475510D01*
X194539646Y-120475510D02*
X194444383Y-120475510D01*
X194444383Y-120475510D02*
X194349119Y-120427878D01*
X194349119Y-120427878D02*
X194301487Y-120380247D01*
X194301487Y-120380247D02*
X194253855Y-120284983D01*
X194253855Y-120284983D02*
X194253855Y-120046824D01*
X194253855Y-120046824D02*
X194301487Y-119903929D01*
X195254123Y-119475242D02*
X194253855Y-119475242D01*
X194253855Y-119475242D02*
X194968332Y-119141820D01*
X194968332Y-119141820D02*
X194253855Y-118808397D01*
X194253855Y-118808397D02*
X195254123Y-118808397D01*
X194587278Y-117903393D02*
X195254123Y-117903393D01*
X194206224Y-118141552D02*
X194920701Y-118379711D01*
X194920701Y-118379711D02*
X194920701Y-117760498D01*
X194873069Y-117379443D02*
X194873069Y-116617335D01*
X194253855Y-116283912D02*
X194253855Y-115712330D01*
X195254123Y-115998121D02*
X194253855Y-115998121D01*
X194730173Y-115045485D02*
X194777805Y-114902589D01*
X194777805Y-114902589D02*
X194825437Y-114854958D01*
X194825437Y-114854958D02*
X194920701Y-114807326D01*
X194920701Y-114807326D02*
X195063596Y-114807326D01*
X195063596Y-114807326D02*
X195158860Y-114854958D01*
X195158860Y-114854958D02*
X195206492Y-114902589D01*
X195206492Y-114902589D02*
X195254123Y-114997853D01*
X195254123Y-114997853D02*
X195254123Y-115378907D01*
X195254123Y-115378907D02*
X194253855Y-115378907D01*
X194253855Y-115378907D02*
X194253855Y-115045485D01*
X194253855Y-115045485D02*
X194301487Y-114950221D01*
X194301487Y-114950221D02*
X194349119Y-114902589D01*
X194349119Y-114902589D02*
X194444383Y-114854958D01*
X194444383Y-114854958D02*
X194539646Y-114854958D01*
X194539646Y-114854958D02*
X194634910Y-114902589D01*
X194634910Y-114902589D02*
X194682542Y-114950221D01*
X194682542Y-114950221D02*
X194730173Y-115045485D01*
X194730173Y-115045485D02*
X194730173Y-115378907D01*
X201138095Y-132354819D02*
X201138095Y-131354819D01*
X201138095Y-131831009D02*
X201709523Y-131831009D01*
X201709523Y-132354819D02*
X201709523Y-131354819D01*
X202614285Y-131688152D02*
X202614285Y-132354819D01*
X202376190Y-131307200D02*
X202138095Y-132021485D01*
X202138095Y-132021485D02*
X202757142Y-132021485D01*
X173238095Y-132454819D02*
X173238095Y-131454819D01*
X173238095Y-131931009D02*
X173809523Y-131931009D01*
X173809523Y-132454819D02*
X173809523Y-131454819D01*
X174190476Y-131454819D02*
X174809523Y-131454819D01*
X174809523Y-131454819D02*
X174476190Y-131835771D01*
X174476190Y-131835771D02*
X174619047Y-131835771D01*
X174619047Y-131835771D02*
X174714285Y-131883390D01*
X174714285Y-131883390D02*
X174761904Y-131931009D01*
X174761904Y-131931009D02*
X174809523Y-132026247D01*
X174809523Y-132026247D02*
X174809523Y-132264342D01*
X174809523Y-132264342D02*
X174761904Y-132359580D01*
X174761904Y-132359580D02*
X174714285Y-132407200D01*
X174714285Y-132407200D02*
X174619047Y-132454819D01*
X174619047Y-132454819D02*
X174333333Y-132454819D01*
X174333333Y-132454819D02*
X174238095Y-132407200D01*
X174238095Y-132407200D02*
X174190476Y-132359580D01*
X173238095Y-84654819D02*
X173238095Y-83654819D01*
X173238095Y-84131009D02*
X173809523Y-84131009D01*
X173809523Y-84654819D02*
X173809523Y-83654819D01*
X174238095Y-83750057D02*
X174285714Y-83702438D01*
X174285714Y-83702438D02*
X174380952Y-83654819D01*
X174380952Y-83654819D02*
X174619047Y-83654819D01*
X174619047Y-83654819D02*
X174714285Y-83702438D01*
X174714285Y-83702438D02*
X174761904Y-83750057D01*
X174761904Y-83750057D02*
X174809523Y-83845295D01*
X174809523Y-83845295D02*
X174809523Y-83940533D01*
X174809523Y-83940533D02*
X174761904Y-84083390D01*
X174761904Y-84083390D02*
X174190476Y-84654819D01*
X174190476Y-84654819D02*
X174809523Y-84654819D01*
X201138095Y-84554819D02*
X201138095Y-83554819D01*
X201138095Y-84031009D02*
X201709523Y-84031009D01*
X201709523Y-84554819D02*
X201709523Y-83554819D01*
X202709523Y-84554819D02*
X202138095Y-84554819D01*
X202423809Y-84554819D02*
X202423809Y-83554819D01*
X202423809Y-83554819D02*
X202328571Y-83697676D01*
X202328571Y-83697676D02*
X202233333Y-83792914D01*
X202233333Y-83792914D02*
X202138095Y-83840533D01*
X201566099Y-125610980D02*
X201566099Y-125372885D01*
X201804194Y-125468123D02*
X201566099Y-125372885D01*
X201566099Y-125372885D02*
X201328004Y-125468123D01*
X201708956Y-125182409D02*
X201566099Y-125372885D01*
X201566099Y-125372885D02*
X201423242Y-125182409D01*
X202508353Y-125125181D02*
X202508353Y-124315658D01*
X202508353Y-124315658D02*
X202460734Y-124220420D01*
X202460734Y-124220420D02*
X202413115Y-124172801D01*
X202413115Y-124172801D02*
X202317877Y-124125181D01*
X202317877Y-124125181D02*
X202127401Y-124125181D01*
X202127401Y-124125181D02*
X202032163Y-124172801D01*
X202032163Y-124172801D02*
X201984544Y-124220420D01*
X201984544Y-124220420D02*
X201936925Y-124315658D01*
X201936925Y-124315658D02*
X201936925Y-125125181D01*
X201508353Y-125029943D02*
X201460734Y-125077562D01*
X201460734Y-125077562D02*
X201365496Y-125125181D01*
X201365496Y-125125181D02*
X201127401Y-125125181D01*
X201127401Y-125125181D02*
X201032163Y-125077562D01*
X201032163Y-125077562D02*
X200984544Y-125029943D01*
X200984544Y-125029943D02*
X200936925Y-124934705D01*
X200936925Y-124934705D02*
X200936925Y-124839467D01*
X200936925Y-124839467D02*
X200984544Y-124696610D01*
X200984544Y-124696610D02*
X201555972Y-124125181D01*
X201555972Y-124125181D02*
X200936925Y-124125181D01*
X201566100Y-124520619D02*
X201566100Y-124758714D01*
X201328005Y-124663476D02*
X201566100Y-124758714D01*
X201566100Y-124758714D02*
X201804195Y-124663476D01*
X201423243Y-124949190D02*
X201566100Y-124758714D01*
X201566100Y-124758714D02*
X201708957Y-124949190D01*
X184274819Y-111476666D02*
X184274819Y-112048094D01*
X184274819Y-111762380D02*
X183274819Y-111762380D01*
X183274819Y-111762380D02*
X183417676Y-111857618D01*
X183417676Y-111857618D02*
X183512914Y-111952856D01*
X183512914Y-111952856D02*
X183560533Y-112048094D01*
X183274819Y-110857618D02*
X183274819Y-110762380D01*
X183274819Y-110762380D02*
X183322438Y-110667142D01*
X183322438Y-110667142D02*
X183370057Y-110619523D01*
X183370057Y-110619523D02*
X183465295Y-110571904D01*
X183465295Y-110571904D02*
X183655771Y-110524285D01*
X183655771Y-110524285D02*
X183893866Y-110524285D01*
X183893866Y-110524285D02*
X184084342Y-110571904D01*
X184084342Y-110571904D02*
X184179580Y-110619523D01*
X184179580Y-110619523D02*
X184227200Y-110667142D01*
X184227200Y-110667142D02*
X184274819Y-110762380D01*
X184274819Y-110762380D02*
X184274819Y-110857618D01*
X184274819Y-110857618D02*
X184227200Y-110952856D01*
X184227200Y-110952856D02*
X184179580Y-111000475D01*
X184179580Y-111000475D02*
X184084342Y-111048094D01*
X184084342Y-111048094D02*
X183893866Y-111095713D01*
X183893866Y-111095713D02*
X183655771Y-111095713D01*
X183655771Y-111095713D02*
X183465295Y-111048094D01*
X183465295Y-111048094D02*
X183370057Y-111000475D01*
X183370057Y-111000475D02*
X183322438Y-110952856D01*
X183322438Y-110952856D02*
X183274819Y-110857618D01*
X183274819Y-109905237D02*
X183274819Y-109809999D01*
X183274819Y-109809999D02*
X183322438Y-109714761D01*
X183322438Y-109714761D02*
X183370057Y-109667142D01*
X183370057Y-109667142D02*
X183465295Y-109619523D01*
X183465295Y-109619523D02*
X183655771Y-109571904D01*
X183655771Y-109571904D02*
X183893866Y-109571904D01*
X183893866Y-109571904D02*
X184084342Y-109619523D01*
X184084342Y-109619523D02*
X184179580Y-109667142D01*
X184179580Y-109667142D02*
X184227200Y-109714761D01*
X184227200Y-109714761D02*
X184274819Y-109809999D01*
X184274819Y-109809999D02*
X184274819Y-109905237D01*
X184274819Y-109905237D02*
X184227200Y-110000475D01*
X184227200Y-110000475D02*
X184179580Y-110048094D01*
X184179580Y-110048094D02*
X184084342Y-110095713D01*
X184084342Y-110095713D02*
X183893866Y-110143332D01*
X183893866Y-110143332D02*
X183655771Y-110143332D01*
X183655771Y-110143332D02*
X183465295Y-110095713D01*
X183465295Y-110095713D02*
X183370057Y-110048094D01*
X183370057Y-110048094D02*
X183322438Y-110000475D01*
X183322438Y-110000475D02*
X183274819Y-109905237D01*
D11*
X182203574Y-110970714D02*
X182084527Y-111054047D01*
X182203574Y-111113571D02*
X181953574Y-111113571D01*
X181953574Y-111113571D02*
X181953574Y-111018333D01*
X181953574Y-111018333D02*
X181965479Y-110994523D01*
X181965479Y-110994523D02*
X181977384Y-110982618D01*
X181977384Y-110982618D02*
X182001193Y-110970714D01*
X182001193Y-110970714D02*
X182036908Y-110970714D01*
X182036908Y-110970714D02*
X182060717Y-110982618D01*
X182060717Y-110982618D02*
X182072622Y-110994523D01*
X182072622Y-110994523D02*
X182084527Y-111018333D01*
X182084527Y-111018333D02*
X182084527Y-111113571D01*
X182203574Y-110732618D02*
X182203574Y-110875475D01*
X182203574Y-110804047D02*
X181953574Y-110804047D01*
X181953574Y-110804047D02*
X181989289Y-110827856D01*
X181989289Y-110827856D02*
X182013098Y-110851666D01*
X182013098Y-110851666D02*
X182025003Y-110875475D01*
X181953574Y-110649285D02*
X181953574Y-110494523D01*
X181953574Y-110494523D02*
X182048812Y-110577857D01*
X182048812Y-110577857D02*
X182048812Y-110542142D01*
X182048812Y-110542142D02*
X182060717Y-110518333D01*
X182060717Y-110518333D02*
X182072622Y-110506428D01*
X182072622Y-110506428D02*
X182096431Y-110494523D01*
X182096431Y-110494523D02*
X182155955Y-110494523D01*
X182155955Y-110494523D02*
X182179765Y-110506428D01*
X182179765Y-110506428D02*
X182191670Y-110518333D01*
X182191670Y-110518333D02*
X182203574Y-110542142D01*
X182203574Y-110542142D02*
X182203574Y-110613571D01*
X182203574Y-110613571D02*
X182191670Y-110637380D01*
X182191670Y-110637380D02*
X182179765Y-110649285D01*
D10*
X178270952Y-120394819D02*
X177699524Y-120394819D01*
X177985238Y-120394819D02*
X177985238Y-119394819D01*
X177985238Y-119394819D02*
X177890000Y-119537676D01*
X177890000Y-119537676D02*
X177794762Y-119632914D01*
X177794762Y-119632914D02*
X177699524Y-119680533D01*
X178699524Y-120394819D02*
X178699524Y-119394819D01*
X178794762Y-120013866D02*
X179080476Y-120394819D01*
X179080476Y-119728152D02*
X178699524Y-120109104D01*
D11*
X178348333Y-118323574D02*
X178265000Y-118204527D01*
X178205476Y-118323574D02*
X178205476Y-118073574D01*
X178205476Y-118073574D02*
X178300714Y-118073574D01*
X178300714Y-118073574D02*
X178324524Y-118085479D01*
X178324524Y-118085479D02*
X178336429Y-118097384D01*
X178336429Y-118097384D02*
X178348333Y-118121193D01*
X178348333Y-118121193D02*
X178348333Y-118156908D01*
X178348333Y-118156908D02*
X178336429Y-118180717D01*
X178336429Y-118180717D02*
X178324524Y-118192622D01*
X178324524Y-118192622D02*
X178300714Y-118204527D01*
X178300714Y-118204527D02*
X178205476Y-118204527D01*
X178491191Y-118180717D02*
X178467381Y-118168812D01*
X178467381Y-118168812D02*
X178455476Y-118156908D01*
X178455476Y-118156908D02*
X178443572Y-118133098D01*
X178443572Y-118133098D02*
X178443572Y-118121193D01*
X178443572Y-118121193D02*
X178455476Y-118097384D01*
X178455476Y-118097384D02*
X178467381Y-118085479D01*
X178467381Y-118085479D02*
X178491191Y-118073574D01*
X178491191Y-118073574D02*
X178538810Y-118073574D01*
X178538810Y-118073574D02*
X178562619Y-118085479D01*
X178562619Y-118085479D02*
X178574524Y-118097384D01*
X178574524Y-118097384D02*
X178586429Y-118121193D01*
X178586429Y-118121193D02*
X178586429Y-118133098D01*
X178586429Y-118133098D02*
X178574524Y-118156908D01*
X178574524Y-118156908D02*
X178562619Y-118168812D01*
X178562619Y-118168812D02*
X178538810Y-118180717D01*
X178538810Y-118180717D02*
X178491191Y-118180717D01*
X178491191Y-118180717D02*
X178467381Y-118192622D01*
X178467381Y-118192622D02*
X178455476Y-118204527D01*
X178455476Y-118204527D02*
X178443572Y-118228336D01*
X178443572Y-118228336D02*
X178443572Y-118275955D01*
X178443572Y-118275955D02*
X178455476Y-118299765D01*
X178455476Y-118299765D02*
X178467381Y-118311670D01*
X178467381Y-118311670D02*
X178491191Y-118323574D01*
X178491191Y-118323574D02*
X178538810Y-118323574D01*
X178538810Y-118323574D02*
X178562619Y-118311670D01*
X178562619Y-118311670D02*
X178574524Y-118299765D01*
X178574524Y-118299765D02*
X178586429Y-118275955D01*
X178586429Y-118275955D02*
X178586429Y-118228336D01*
X178586429Y-118228336D02*
X178574524Y-118204527D01*
X178574524Y-118204527D02*
X178562619Y-118192622D01*
X178562619Y-118192622D02*
X178538810Y-118180717D01*
D10*
X176704819Y-98595238D02*
X176704819Y-99166666D01*
X176704819Y-98880952D02*
X175704819Y-98880952D01*
X175704819Y-98880952D02*
X175847676Y-98976190D01*
X175847676Y-98976190D02*
X175942914Y-99071428D01*
X175942914Y-99071428D02*
X175990533Y-99166666D01*
X175704819Y-97976190D02*
X175704819Y-97880952D01*
X175704819Y-97880952D02*
X175752438Y-97785714D01*
X175752438Y-97785714D02*
X175800057Y-97738095D01*
X175800057Y-97738095D02*
X175895295Y-97690476D01*
X175895295Y-97690476D02*
X176085771Y-97642857D01*
X176085771Y-97642857D02*
X176323866Y-97642857D01*
X176323866Y-97642857D02*
X176514342Y-97690476D01*
X176514342Y-97690476D02*
X176609580Y-97738095D01*
X176609580Y-97738095D02*
X176657200Y-97785714D01*
X176657200Y-97785714D02*
X176704819Y-97880952D01*
X176704819Y-97880952D02*
X176704819Y-97976190D01*
X176704819Y-97976190D02*
X176657200Y-98071428D01*
X176657200Y-98071428D02*
X176609580Y-98119047D01*
X176609580Y-98119047D02*
X176514342Y-98166666D01*
X176514342Y-98166666D02*
X176323866Y-98214285D01*
X176323866Y-98214285D02*
X176085771Y-98214285D01*
X176085771Y-98214285D02*
X175895295Y-98166666D01*
X175895295Y-98166666D02*
X175800057Y-98119047D01*
X175800057Y-98119047D02*
X175752438Y-98071428D01*
X175752438Y-98071428D02*
X175704819Y-97976190D01*
X176704819Y-97214285D02*
X175704819Y-97214285D01*
X176323866Y-97119047D02*
X176704819Y-96833333D01*
X176038152Y-96833333D02*
X176419104Y-97214285D01*
D11*
X178093574Y-98041666D02*
X177974527Y-98124999D01*
X178093574Y-98184523D02*
X177843574Y-98184523D01*
X177843574Y-98184523D02*
X177843574Y-98089285D01*
X177843574Y-98089285D02*
X177855479Y-98065475D01*
X177855479Y-98065475D02*
X177867384Y-98053570D01*
X177867384Y-98053570D02*
X177891193Y-98041666D01*
X177891193Y-98041666D02*
X177926908Y-98041666D01*
X177926908Y-98041666D02*
X177950717Y-98053570D01*
X177950717Y-98053570D02*
X177962622Y-98065475D01*
X177962622Y-98065475D02*
X177974527Y-98089285D01*
X177974527Y-98089285D02*
X177974527Y-98184523D01*
X178093574Y-97803570D02*
X178093574Y-97946427D01*
X178093574Y-97874999D02*
X177843574Y-97874999D01*
X177843574Y-97874999D02*
X177879289Y-97898808D01*
X177879289Y-97898808D02*
X177903098Y-97922618D01*
X177903098Y-97922618D02*
X177915003Y-97946427D01*
D10*
X184268452Y-117794819D02*
X183697024Y-117794819D01*
X183982738Y-117794819D02*
X183982738Y-116794819D01*
X183982738Y-116794819D02*
X183887500Y-116937676D01*
X183887500Y-116937676D02*
X183792262Y-117032914D01*
X183792262Y-117032914D02*
X183697024Y-117080533D01*
X184887500Y-116794819D02*
X184982738Y-116794819D01*
X184982738Y-116794819D02*
X185077976Y-116842438D01*
X185077976Y-116842438D02*
X185125595Y-116890057D01*
X185125595Y-116890057D02*
X185173214Y-116985295D01*
X185173214Y-116985295D02*
X185220833Y-117175771D01*
X185220833Y-117175771D02*
X185220833Y-117413866D01*
X185220833Y-117413866D02*
X185173214Y-117604342D01*
X185173214Y-117604342D02*
X185125595Y-117699580D01*
X185125595Y-117699580D02*
X185077976Y-117747200D01*
X185077976Y-117747200D02*
X184982738Y-117794819D01*
X184982738Y-117794819D02*
X184887500Y-117794819D01*
X184887500Y-117794819D02*
X184792262Y-117747200D01*
X184792262Y-117747200D02*
X184744643Y-117699580D01*
X184744643Y-117699580D02*
X184697024Y-117604342D01*
X184697024Y-117604342D02*
X184649405Y-117413866D01*
X184649405Y-117413866D02*
X184649405Y-117175771D01*
X184649405Y-117175771D02*
X184697024Y-116985295D01*
X184697024Y-116985295D02*
X184744643Y-116890057D01*
X184744643Y-116890057D02*
X184792262Y-116842438D01*
X184792262Y-116842438D02*
X184887500Y-116794819D01*
X185839881Y-116794819D02*
X185935119Y-116794819D01*
X185935119Y-116794819D02*
X186030357Y-116842438D01*
X186030357Y-116842438D02*
X186077976Y-116890057D01*
X186077976Y-116890057D02*
X186125595Y-116985295D01*
X186125595Y-116985295D02*
X186173214Y-117175771D01*
X186173214Y-117175771D02*
X186173214Y-117413866D01*
X186173214Y-117413866D02*
X186125595Y-117604342D01*
X186125595Y-117604342D02*
X186077976Y-117699580D01*
X186077976Y-117699580D02*
X186030357Y-117747200D01*
X186030357Y-117747200D02*
X185935119Y-117794819D01*
X185935119Y-117794819D02*
X185839881Y-117794819D01*
X185839881Y-117794819D02*
X185744643Y-117747200D01*
X185744643Y-117747200D02*
X185697024Y-117699580D01*
X185697024Y-117699580D02*
X185649405Y-117604342D01*
X185649405Y-117604342D02*
X185601786Y-117413866D01*
X185601786Y-117413866D02*
X185601786Y-117175771D01*
X185601786Y-117175771D02*
X185649405Y-116985295D01*
X185649405Y-116985295D02*
X185697024Y-116890057D01*
X185697024Y-116890057D02*
X185744643Y-116842438D01*
X185744643Y-116842438D02*
X185839881Y-116794819D01*
X186601786Y-117128152D02*
X186601786Y-117794819D01*
X186601786Y-117223390D02*
X186649405Y-117175771D01*
X186649405Y-117175771D02*
X186744643Y-117128152D01*
X186744643Y-117128152D02*
X186887500Y-117128152D01*
X186887500Y-117128152D02*
X186982738Y-117175771D01*
X186982738Y-117175771D02*
X187030357Y-117271009D01*
X187030357Y-117271009D02*
X187030357Y-117794819D01*
D11*
X185345833Y-115699765D02*
X185333929Y-115711670D01*
X185333929Y-115711670D02*
X185298214Y-115723574D01*
X185298214Y-115723574D02*
X185274405Y-115723574D01*
X185274405Y-115723574D02*
X185238691Y-115711670D01*
X185238691Y-115711670D02*
X185214881Y-115687860D01*
X185214881Y-115687860D02*
X185202976Y-115664050D01*
X185202976Y-115664050D02*
X185191072Y-115616431D01*
X185191072Y-115616431D02*
X185191072Y-115580717D01*
X185191072Y-115580717D02*
X185202976Y-115533098D01*
X185202976Y-115533098D02*
X185214881Y-115509289D01*
X185214881Y-115509289D02*
X185238691Y-115485479D01*
X185238691Y-115485479D02*
X185274405Y-115473574D01*
X185274405Y-115473574D02*
X185298214Y-115473574D01*
X185298214Y-115473574D02*
X185333929Y-115485479D01*
X185333929Y-115485479D02*
X185345833Y-115497384D01*
X185464881Y-115723574D02*
X185512500Y-115723574D01*
X185512500Y-115723574D02*
X185536310Y-115711670D01*
X185536310Y-115711670D02*
X185548214Y-115699765D01*
X185548214Y-115699765D02*
X185572024Y-115664050D01*
X185572024Y-115664050D02*
X185583929Y-115616431D01*
X185583929Y-115616431D02*
X185583929Y-115521193D01*
X185583929Y-115521193D02*
X185572024Y-115497384D01*
X185572024Y-115497384D02*
X185560119Y-115485479D01*
X185560119Y-115485479D02*
X185536310Y-115473574D01*
X185536310Y-115473574D02*
X185488691Y-115473574D01*
X185488691Y-115473574D02*
X185464881Y-115485479D01*
X185464881Y-115485479D02*
X185452976Y-115497384D01*
X185452976Y-115497384D02*
X185441072Y-115521193D01*
X185441072Y-115521193D02*
X185441072Y-115580717D01*
X185441072Y-115580717D02*
X185452976Y-115604527D01*
X185452976Y-115604527D02*
X185464881Y-115616431D01*
X185464881Y-115616431D02*
X185488691Y-115628336D01*
X185488691Y-115628336D02*
X185536310Y-115628336D01*
X185536310Y-115628336D02*
X185560119Y-115616431D01*
X185560119Y-115616431D02*
X185572024Y-115604527D01*
X185572024Y-115604527D02*
X185583929Y-115580717D01*
D10*
X203153333Y-120784819D02*
X202581905Y-120784819D01*
X202867619Y-120784819D02*
X202867619Y-119784819D01*
X202867619Y-119784819D02*
X202772381Y-119927676D01*
X202772381Y-119927676D02*
X202677143Y-120022914D01*
X202677143Y-120022914D02*
X202581905Y-120070533D01*
X204010476Y-120118152D02*
X204010476Y-120784819D01*
X203581905Y-120118152D02*
X203581905Y-120641961D01*
X203581905Y-120641961D02*
X203629524Y-120737200D01*
X203629524Y-120737200D02*
X203724762Y-120784819D01*
X203724762Y-120784819D02*
X203867619Y-120784819D01*
X203867619Y-120784819D02*
X203962857Y-120737200D01*
X203962857Y-120737200D02*
X204010476Y-120689580D01*
D11*
X203278333Y-122149765D02*
X203266429Y-122161670D01*
X203266429Y-122161670D02*
X203230714Y-122173574D01*
X203230714Y-122173574D02*
X203206905Y-122173574D01*
X203206905Y-122173574D02*
X203171191Y-122161670D01*
X203171191Y-122161670D02*
X203147381Y-122137860D01*
X203147381Y-122137860D02*
X203135476Y-122114050D01*
X203135476Y-122114050D02*
X203123572Y-122066431D01*
X203123572Y-122066431D02*
X203123572Y-122030717D01*
X203123572Y-122030717D02*
X203135476Y-121983098D01*
X203135476Y-121983098D02*
X203147381Y-121959289D01*
X203147381Y-121959289D02*
X203171191Y-121935479D01*
X203171191Y-121935479D02*
X203206905Y-121923574D01*
X203206905Y-121923574D02*
X203230714Y-121923574D01*
X203230714Y-121923574D02*
X203266429Y-121935479D01*
X203266429Y-121935479D02*
X203278333Y-121947384D01*
X203516429Y-122173574D02*
X203373572Y-122173574D01*
X203445000Y-122173574D02*
X203445000Y-121923574D01*
X203445000Y-121923574D02*
X203421191Y-121959289D01*
X203421191Y-121959289D02*
X203397381Y-121983098D01*
X203397381Y-121983098D02*
X203373572Y-121995003D01*
D10*
X177880952Y-107004819D02*
X177309524Y-107004819D01*
X177595238Y-107004819D02*
X177595238Y-106004819D01*
X177595238Y-106004819D02*
X177500000Y-106147676D01*
X177500000Y-106147676D02*
X177404762Y-106242914D01*
X177404762Y-106242914D02*
X177309524Y-106290533D01*
X178500000Y-106004819D02*
X178595238Y-106004819D01*
X178595238Y-106004819D02*
X178690476Y-106052438D01*
X178690476Y-106052438D02*
X178738095Y-106100057D01*
X178738095Y-106100057D02*
X178785714Y-106195295D01*
X178785714Y-106195295D02*
X178833333Y-106385771D01*
X178833333Y-106385771D02*
X178833333Y-106623866D01*
X178833333Y-106623866D02*
X178785714Y-106814342D01*
X178785714Y-106814342D02*
X178738095Y-106909580D01*
X178738095Y-106909580D02*
X178690476Y-106957200D01*
X178690476Y-106957200D02*
X178595238Y-107004819D01*
X178595238Y-107004819D02*
X178500000Y-107004819D01*
X178500000Y-107004819D02*
X178404762Y-106957200D01*
X178404762Y-106957200D02*
X178357143Y-106909580D01*
X178357143Y-106909580D02*
X178309524Y-106814342D01*
X178309524Y-106814342D02*
X178261905Y-106623866D01*
X178261905Y-106623866D02*
X178261905Y-106385771D01*
X178261905Y-106385771D02*
X178309524Y-106195295D01*
X178309524Y-106195295D02*
X178357143Y-106100057D01*
X178357143Y-106100057D02*
X178404762Y-106052438D01*
X178404762Y-106052438D02*
X178500000Y-106004819D01*
X179452381Y-106004819D02*
X179547619Y-106004819D01*
X179547619Y-106004819D02*
X179642857Y-106052438D01*
X179642857Y-106052438D02*
X179690476Y-106100057D01*
X179690476Y-106100057D02*
X179738095Y-106195295D01*
X179738095Y-106195295D02*
X179785714Y-106385771D01*
X179785714Y-106385771D02*
X179785714Y-106623866D01*
X179785714Y-106623866D02*
X179738095Y-106814342D01*
X179738095Y-106814342D02*
X179690476Y-106909580D01*
X179690476Y-106909580D02*
X179642857Y-106957200D01*
X179642857Y-106957200D02*
X179547619Y-107004819D01*
X179547619Y-107004819D02*
X179452381Y-107004819D01*
X179452381Y-107004819D02*
X179357143Y-106957200D01*
X179357143Y-106957200D02*
X179309524Y-106909580D01*
X179309524Y-106909580D02*
X179261905Y-106814342D01*
X179261905Y-106814342D02*
X179214286Y-106623866D01*
X179214286Y-106623866D02*
X179214286Y-106385771D01*
X179214286Y-106385771D02*
X179261905Y-106195295D01*
X179261905Y-106195295D02*
X179309524Y-106100057D01*
X179309524Y-106100057D02*
X179357143Y-106052438D01*
X179357143Y-106052438D02*
X179452381Y-106004819D01*
X180214286Y-106338152D02*
X180214286Y-107004819D01*
X180214286Y-106433390D02*
X180261905Y-106385771D01*
X180261905Y-106385771D02*
X180357143Y-106338152D01*
X180357143Y-106338152D02*
X180500000Y-106338152D01*
X180500000Y-106338152D02*
X180595238Y-106385771D01*
X180595238Y-106385771D02*
X180642857Y-106481009D01*
X180642857Y-106481009D02*
X180642857Y-107004819D01*
D11*
X178958333Y-108369765D02*
X178946429Y-108381670D01*
X178946429Y-108381670D02*
X178910714Y-108393574D01*
X178910714Y-108393574D02*
X178886905Y-108393574D01*
X178886905Y-108393574D02*
X178851191Y-108381670D01*
X178851191Y-108381670D02*
X178827381Y-108357860D01*
X178827381Y-108357860D02*
X178815476Y-108334050D01*
X178815476Y-108334050D02*
X178803572Y-108286431D01*
X178803572Y-108286431D02*
X178803572Y-108250717D01*
X178803572Y-108250717D02*
X178815476Y-108203098D01*
X178815476Y-108203098D02*
X178827381Y-108179289D01*
X178827381Y-108179289D02*
X178851191Y-108155479D01*
X178851191Y-108155479D02*
X178886905Y-108143574D01*
X178886905Y-108143574D02*
X178910714Y-108143574D01*
X178910714Y-108143574D02*
X178946429Y-108155479D01*
X178946429Y-108155479D02*
X178958333Y-108167384D01*
X179041667Y-108143574D02*
X179208333Y-108143574D01*
X179208333Y-108143574D02*
X179101191Y-108393574D01*
D10*
X184779642Y-116644819D02*
X184208214Y-116644819D01*
X184493928Y-116644819D02*
X184493928Y-115644819D01*
X184493928Y-115644819D02*
X184398690Y-115787676D01*
X184398690Y-115787676D02*
X184303452Y-115882914D01*
X184303452Y-115882914D02*
X184208214Y-115930533D01*
X185398690Y-115644819D02*
X185493928Y-115644819D01*
X185493928Y-115644819D02*
X185589166Y-115692438D01*
X185589166Y-115692438D02*
X185636785Y-115740057D01*
X185636785Y-115740057D02*
X185684404Y-115835295D01*
X185684404Y-115835295D02*
X185732023Y-116025771D01*
X185732023Y-116025771D02*
X185732023Y-116263866D01*
X185732023Y-116263866D02*
X185684404Y-116454342D01*
X185684404Y-116454342D02*
X185636785Y-116549580D01*
X185636785Y-116549580D02*
X185589166Y-116597200D01*
X185589166Y-116597200D02*
X185493928Y-116644819D01*
X185493928Y-116644819D02*
X185398690Y-116644819D01*
X185398690Y-116644819D02*
X185303452Y-116597200D01*
X185303452Y-116597200D02*
X185255833Y-116549580D01*
X185255833Y-116549580D02*
X185208214Y-116454342D01*
X185208214Y-116454342D02*
X185160595Y-116263866D01*
X185160595Y-116263866D02*
X185160595Y-116025771D01*
X185160595Y-116025771D02*
X185208214Y-115835295D01*
X185208214Y-115835295D02*
X185255833Y-115740057D01*
X185255833Y-115740057D02*
X185303452Y-115692438D01*
X185303452Y-115692438D02*
X185398690Y-115644819D01*
X186589166Y-115978152D02*
X186589166Y-116644819D01*
X186160595Y-115978152D02*
X186160595Y-116501961D01*
X186160595Y-116501961D02*
X186208214Y-116597200D01*
X186208214Y-116597200D02*
X186303452Y-116644819D01*
X186303452Y-116644819D02*
X186446309Y-116644819D01*
X186446309Y-116644819D02*
X186541547Y-116597200D01*
X186541547Y-116597200D02*
X186589166Y-116549580D01*
D11*
X185380833Y-114549765D02*
X185368929Y-114561670D01*
X185368929Y-114561670D02*
X185333214Y-114573574D01*
X185333214Y-114573574D02*
X185309405Y-114573574D01*
X185309405Y-114573574D02*
X185273691Y-114561670D01*
X185273691Y-114561670D02*
X185249881Y-114537860D01*
X185249881Y-114537860D02*
X185237976Y-114514050D01*
X185237976Y-114514050D02*
X185226072Y-114466431D01*
X185226072Y-114466431D02*
X185226072Y-114430717D01*
X185226072Y-114430717D02*
X185237976Y-114383098D01*
X185237976Y-114383098D02*
X185249881Y-114359289D01*
X185249881Y-114359289D02*
X185273691Y-114335479D01*
X185273691Y-114335479D02*
X185309405Y-114323574D01*
X185309405Y-114323574D02*
X185333214Y-114323574D01*
X185333214Y-114323574D02*
X185368929Y-114335479D01*
X185368929Y-114335479D02*
X185380833Y-114347384D01*
X185523691Y-114430717D02*
X185499881Y-114418812D01*
X185499881Y-114418812D02*
X185487976Y-114406908D01*
X185487976Y-114406908D02*
X185476072Y-114383098D01*
X185476072Y-114383098D02*
X185476072Y-114371193D01*
X185476072Y-114371193D02*
X185487976Y-114347384D01*
X185487976Y-114347384D02*
X185499881Y-114335479D01*
X185499881Y-114335479D02*
X185523691Y-114323574D01*
X185523691Y-114323574D02*
X185571310Y-114323574D01*
X185571310Y-114323574D02*
X185595119Y-114335479D01*
X185595119Y-114335479D02*
X185607024Y-114347384D01*
X185607024Y-114347384D02*
X185618929Y-114371193D01*
X185618929Y-114371193D02*
X185618929Y-114383098D01*
X185618929Y-114383098D02*
X185607024Y-114406908D01*
X185607024Y-114406908D02*
X185595119Y-114418812D01*
X185595119Y-114418812D02*
X185571310Y-114430717D01*
X185571310Y-114430717D02*
X185523691Y-114430717D01*
X185523691Y-114430717D02*
X185499881Y-114442622D01*
X185499881Y-114442622D02*
X185487976Y-114454527D01*
X185487976Y-114454527D02*
X185476072Y-114478336D01*
X185476072Y-114478336D02*
X185476072Y-114525955D01*
X185476072Y-114525955D02*
X185487976Y-114549765D01*
X185487976Y-114549765D02*
X185499881Y-114561670D01*
X185499881Y-114561670D02*
X185523691Y-114573574D01*
X185523691Y-114573574D02*
X185571310Y-114573574D01*
X185571310Y-114573574D02*
X185595119Y-114561670D01*
X185595119Y-114561670D02*
X185607024Y-114549765D01*
X185607024Y-114549765D02*
X185618929Y-114525955D01*
X185618929Y-114525955D02*
X185618929Y-114478336D01*
X185618929Y-114478336D02*
X185607024Y-114454527D01*
X185607024Y-114454527D02*
X185595119Y-114442622D01*
X185595119Y-114442622D02*
X185571310Y-114430717D01*
D10*
X192664819Y-111566666D02*
X192664819Y-112138094D01*
X192664819Y-111852380D02*
X191664819Y-111852380D01*
X191664819Y-111852380D02*
X191807676Y-111947618D01*
X191807676Y-111947618D02*
X191902914Y-112042856D01*
X191902914Y-112042856D02*
X191950533Y-112138094D01*
X191664819Y-110947618D02*
X191664819Y-110852380D01*
X191664819Y-110852380D02*
X191712438Y-110757142D01*
X191712438Y-110757142D02*
X191760057Y-110709523D01*
X191760057Y-110709523D02*
X191855295Y-110661904D01*
X191855295Y-110661904D02*
X192045771Y-110614285D01*
X192045771Y-110614285D02*
X192283866Y-110614285D01*
X192283866Y-110614285D02*
X192474342Y-110661904D01*
X192474342Y-110661904D02*
X192569580Y-110709523D01*
X192569580Y-110709523D02*
X192617200Y-110757142D01*
X192617200Y-110757142D02*
X192664819Y-110852380D01*
X192664819Y-110852380D02*
X192664819Y-110947618D01*
X192664819Y-110947618D02*
X192617200Y-111042856D01*
X192617200Y-111042856D02*
X192569580Y-111090475D01*
X192569580Y-111090475D02*
X192474342Y-111138094D01*
X192474342Y-111138094D02*
X192283866Y-111185713D01*
X192283866Y-111185713D02*
X192045771Y-111185713D01*
X192045771Y-111185713D02*
X191855295Y-111138094D01*
X191855295Y-111138094D02*
X191760057Y-111090475D01*
X191760057Y-111090475D02*
X191712438Y-111042856D01*
X191712438Y-111042856D02*
X191664819Y-110947618D01*
X191664819Y-109995237D02*
X191664819Y-109899999D01*
X191664819Y-109899999D02*
X191712438Y-109804761D01*
X191712438Y-109804761D02*
X191760057Y-109757142D01*
X191760057Y-109757142D02*
X191855295Y-109709523D01*
X191855295Y-109709523D02*
X192045771Y-109661904D01*
X192045771Y-109661904D02*
X192283866Y-109661904D01*
X192283866Y-109661904D02*
X192474342Y-109709523D01*
X192474342Y-109709523D02*
X192569580Y-109757142D01*
X192569580Y-109757142D02*
X192617200Y-109804761D01*
X192617200Y-109804761D02*
X192664819Y-109899999D01*
X192664819Y-109899999D02*
X192664819Y-109995237D01*
X192664819Y-109995237D02*
X192617200Y-110090475D01*
X192617200Y-110090475D02*
X192569580Y-110138094D01*
X192569580Y-110138094D02*
X192474342Y-110185713D01*
X192474342Y-110185713D02*
X192283866Y-110233332D01*
X192283866Y-110233332D02*
X192045771Y-110233332D01*
X192045771Y-110233332D02*
X191855295Y-110185713D01*
X191855295Y-110185713D02*
X191760057Y-110138094D01*
X191760057Y-110138094D02*
X191712438Y-110090475D01*
X191712438Y-110090475D02*
X191664819Y-109995237D01*
D11*
X194053574Y-111060714D02*
X193934527Y-111144047D01*
X194053574Y-111203571D02*
X193803574Y-111203571D01*
X193803574Y-111203571D02*
X193803574Y-111108333D01*
X193803574Y-111108333D02*
X193815479Y-111084523D01*
X193815479Y-111084523D02*
X193827384Y-111072618D01*
X193827384Y-111072618D02*
X193851193Y-111060714D01*
X193851193Y-111060714D02*
X193886908Y-111060714D01*
X193886908Y-111060714D02*
X193910717Y-111072618D01*
X193910717Y-111072618D02*
X193922622Y-111084523D01*
X193922622Y-111084523D02*
X193934527Y-111108333D01*
X193934527Y-111108333D02*
X193934527Y-111203571D01*
X194053574Y-110822618D02*
X194053574Y-110965475D01*
X194053574Y-110894047D02*
X193803574Y-110894047D01*
X193803574Y-110894047D02*
X193839289Y-110917856D01*
X193839289Y-110917856D02*
X193863098Y-110941666D01*
X193863098Y-110941666D02*
X193875003Y-110965475D01*
X193803574Y-110608333D02*
X193803574Y-110655952D01*
X193803574Y-110655952D02*
X193815479Y-110679761D01*
X193815479Y-110679761D02*
X193827384Y-110691666D01*
X193827384Y-110691666D02*
X193863098Y-110715476D01*
X193863098Y-110715476D02*
X193910717Y-110727380D01*
X193910717Y-110727380D02*
X194005955Y-110727380D01*
X194005955Y-110727380D02*
X194029765Y-110715476D01*
X194029765Y-110715476D02*
X194041670Y-110703571D01*
X194041670Y-110703571D02*
X194053574Y-110679761D01*
X194053574Y-110679761D02*
X194053574Y-110632142D01*
X194053574Y-110632142D02*
X194041670Y-110608333D01*
X194041670Y-110608333D02*
X194029765Y-110596428D01*
X194029765Y-110596428D02*
X194005955Y-110584523D01*
X194005955Y-110584523D02*
X193946431Y-110584523D01*
X193946431Y-110584523D02*
X193922622Y-110596428D01*
X193922622Y-110596428D02*
X193910717Y-110608333D01*
X193910717Y-110608333D02*
X193898812Y-110632142D01*
X193898812Y-110632142D02*
X193898812Y-110679761D01*
X193898812Y-110679761D02*
X193910717Y-110703571D01*
X193910717Y-110703571D02*
X193922622Y-110715476D01*
X193922622Y-110715476D02*
X193946431Y-110727380D01*
D10*
X178833333Y-87904819D02*
X178261905Y-87904819D01*
X178547619Y-87904819D02*
X178547619Y-86904819D01*
X178547619Y-86904819D02*
X178452381Y-87047676D01*
X178452381Y-87047676D02*
X178357143Y-87142914D01*
X178357143Y-87142914D02*
X178261905Y-87190533D01*
X179690476Y-87238152D02*
X179690476Y-87904819D01*
X179261905Y-87238152D02*
X179261905Y-87761961D01*
X179261905Y-87761961D02*
X179309524Y-87857200D01*
X179309524Y-87857200D02*
X179404762Y-87904819D01*
X179404762Y-87904819D02*
X179547619Y-87904819D01*
X179547619Y-87904819D02*
X179642857Y-87857200D01*
X179642857Y-87857200D02*
X179690476Y-87809580D01*
D11*
X178958333Y-89269765D02*
X178946429Y-89281670D01*
X178946429Y-89281670D02*
X178910714Y-89293574D01*
X178910714Y-89293574D02*
X178886905Y-89293574D01*
X178886905Y-89293574D02*
X178851191Y-89281670D01*
X178851191Y-89281670D02*
X178827381Y-89257860D01*
X178827381Y-89257860D02*
X178815476Y-89234050D01*
X178815476Y-89234050D02*
X178803572Y-89186431D01*
X178803572Y-89186431D02*
X178803572Y-89150717D01*
X178803572Y-89150717D02*
X178815476Y-89103098D01*
X178815476Y-89103098D02*
X178827381Y-89079289D01*
X178827381Y-89079289D02*
X178851191Y-89055479D01*
X178851191Y-89055479D02*
X178886905Y-89043574D01*
X178886905Y-89043574D02*
X178910714Y-89043574D01*
X178910714Y-89043574D02*
X178946429Y-89055479D01*
X178946429Y-89055479D02*
X178958333Y-89067384D01*
X179041667Y-89043574D02*
X179196429Y-89043574D01*
X179196429Y-89043574D02*
X179113095Y-89138812D01*
X179113095Y-89138812D02*
X179148810Y-89138812D01*
X179148810Y-89138812D02*
X179172619Y-89150717D01*
X179172619Y-89150717D02*
X179184524Y-89162622D01*
X179184524Y-89162622D02*
X179196429Y-89186431D01*
X179196429Y-89186431D02*
X179196429Y-89245955D01*
X179196429Y-89245955D02*
X179184524Y-89269765D01*
X179184524Y-89269765D02*
X179172619Y-89281670D01*
X179172619Y-89281670D02*
X179148810Y-89293574D01*
X179148810Y-89293574D02*
X179077381Y-89293574D01*
X179077381Y-89293574D02*
X179053572Y-89281670D01*
X179053572Y-89281670D02*
X179041667Y-89269765D01*
D10*
X180865880Y-101665752D02*
X180627785Y-101665752D01*
X180723023Y-101427657D02*
X180627785Y-101665752D01*
X180627785Y-101665752D02*
X180723023Y-101903847D01*
X180437309Y-101522895D02*
X180627785Y-101665752D01*
X180627785Y-101665752D02*
X180437309Y-101808609D01*
X178440180Y-102516747D02*
X177630657Y-102516747D01*
X177630657Y-102516747D02*
X177535419Y-102564366D01*
X177535419Y-102564366D02*
X177487800Y-102611985D01*
X177487800Y-102611985D02*
X177440180Y-102707223D01*
X177440180Y-102707223D02*
X177440180Y-102897699D01*
X177440180Y-102897699D02*
X177487800Y-102992937D01*
X177487800Y-102992937D02*
X177535419Y-103040556D01*
X177535419Y-103040556D02*
X177630657Y-103088175D01*
X177630657Y-103088175D02*
X178440180Y-103088175D01*
X178440180Y-103469128D02*
X178440180Y-104088175D01*
X178440180Y-104088175D02*
X178059228Y-103754842D01*
X178059228Y-103754842D02*
X178059228Y-103897699D01*
X178059228Y-103897699D02*
X178011609Y-103992937D01*
X178011609Y-103992937D02*
X177963990Y-104040556D01*
X177963990Y-104040556D02*
X177868752Y-104088175D01*
X177868752Y-104088175D02*
X177630657Y-104088175D01*
X177630657Y-104088175D02*
X177535419Y-104040556D01*
X177535419Y-104040556D02*
X177487800Y-103992937D01*
X177487800Y-103992937D02*
X177440180Y-103897699D01*
X177440180Y-103897699D02*
X177440180Y-103611985D01*
X177440180Y-103611985D02*
X177487800Y-103516747D01*
X177487800Y-103516747D02*
X177535419Y-103469128D01*
X179775519Y-101665751D02*
X180013614Y-101665751D01*
X179918376Y-101903846D02*
X180013614Y-101665751D01*
X180013614Y-101665751D02*
X179918376Y-101427656D01*
X180204090Y-101808608D02*
X180013614Y-101665751D01*
X180013614Y-101665751D02*
X180204090Y-101522894D01*
X174759319Y-121371428D02*
X174759319Y-121847618D01*
X174759319Y-121847618D02*
X175235509Y-121895237D01*
X175235509Y-121895237D02*
X175187890Y-121847618D01*
X175187890Y-121847618D02*
X175140271Y-121752380D01*
X175140271Y-121752380D02*
X175140271Y-121514285D01*
X175140271Y-121514285D02*
X175187890Y-121419047D01*
X175187890Y-121419047D02*
X175235509Y-121371428D01*
X175235509Y-121371428D02*
X175330747Y-121323809D01*
X175330747Y-121323809D02*
X175568842Y-121323809D01*
X175568842Y-121323809D02*
X175664080Y-121371428D01*
X175664080Y-121371428D02*
X175711700Y-121419047D01*
X175711700Y-121419047D02*
X175759319Y-121514285D01*
X175759319Y-121514285D02*
X175759319Y-121752380D01*
X175759319Y-121752380D02*
X175711700Y-121847618D01*
X175711700Y-121847618D02*
X175664080Y-121895237D01*
X174759319Y-120990475D02*
X174759319Y-120371428D01*
X174759319Y-120371428D02*
X175140271Y-120704761D01*
X175140271Y-120704761D02*
X175140271Y-120561904D01*
X175140271Y-120561904D02*
X175187890Y-120466666D01*
X175187890Y-120466666D02*
X175235509Y-120419047D01*
X175235509Y-120419047D02*
X175330747Y-120371428D01*
X175330747Y-120371428D02*
X175568842Y-120371428D01*
X175568842Y-120371428D02*
X175664080Y-120419047D01*
X175664080Y-120419047D02*
X175711700Y-120466666D01*
X175711700Y-120466666D02*
X175759319Y-120561904D01*
X175759319Y-120561904D02*
X175759319Y-120847618D01*
X175759319Y-120847618D02*
X175711700Y-120942856D01*
X175711700Y-120942856D02*
X175664080Y-120990475D01*
X174854557Y-119990475D02*
X174806938Y-119942856D01*
X174806938Y-119942856D02*
X174759319Y-119847618D01*
X174759319Y-119847618D02*
X174759319Y-119609523D01*
X174759319Y-119609523D02*
X174806938Y-119514285D01*
X174806938Y-119514285D02*
X174854557Y-119466666D01*
X174854557Y-119466666D02*
X174949795Y-119419047D01*
X174949795Y-119419047D02*
X175045033Y-119419047D01*
X175045033Y-119419047D02*
X175187890Y-119466666D01*
X175187890Y-119466666D02*
X175759319Y-120038094D01*
X175759319Y-120038094D02*
X175759319Y-119419047D01*
X174759319Y-118561904D02*
X174759319Y-118752380D01*
X174759319Y-118752380D02*
X174806938Y-118847618D01*
X174806938Y-118847618D02*
X174854557Y-118895237D01*
X174854557Y-118895237D02*
X174997414Y-118990475D01*
X174997414Y-118990475D02*
X175187890Y-119038094D01*
X175187890Y-119038094D02*
X175568842Y-119038094D01*
X175568842Y-119038094D02*
X175664080Y-118990475D01*
X175664080Y-118990475D02*
X175711700Y-118942856D01*
X175711700Y-118942856D02*
X175759319Y-118847618D01*
X175759319Y-118847618D02*
X175759319Y-118657142D01*
X175759319Y-118657142D02*
X175711700Y-118561904D01*
X175711700Y-118561904D02*
X175664080Y-118514285D01*
X175664080Y-118514285D02*
X175568842Y-118466666D01*
X175568842Y-118466666D02*
X175330747Y-118466666D01*
X175330747Y-118466666D02*
X175235509Y-118514285D01*
X175235509Y-118514285D02*
X175187890Y-118561904D01*
X175187890Y-118561904D02*
X175140271Y-118657142D01*
X175140271Y-118657142D02*
X175140271Y-118847618D01*
X175140271Y-118847618D02*
X175187890Y-118942856D01*
X175187890Y-118942856D02*
X175235509Y-118990475D01*
X175235509Y-118990475D02*
X175330747Y-119038094D01*
X175759319Y-117514285D02*
X175759319Y-118085713D01*
X175759319Y-117799999D02*
X174759319Y-117799999D01*
X174759319Y-117799999D02*
X174902176Y-117895237D01*
X174902176Y-117895237D02*
X174997414Y-117990475D01*
X174997414Y-117990475D02*
X175045033Y-118085713D01*
X175759319Y-116561904D02*
X175759319Y-117133332D01*
X175759319Y-116847618D02*
X174759319Y-116847618D01*
X174759319Y-116847618D02*
X174902176Y-116942856D01*
X174902176Y-116942856D02*
X174997414Y-117038094D01*
X174997414Y-117038094D02*
X175045033Y-117133332D01*
X174759319Y-115942856D02*
X174759319Y-115847618D01*
X174759319Y-115847618D02*
X174806938Y-115752380D01*
X174806938Y-115752380D02*
X174854557Y-115704761D01*
X174854557Y-115704761D02*
X174949795Y-115657142D01*
X174949795Y-115657142D02*
X175140271Y-115609523D01*
X175140271Y-115609523D02*
X175378366Y-115609523D01*
X175378366Y-115609523D02*
X175568842Y-115657142D01*
X175568842Y-115657142D02*
X175664080Y-115704761D01*
X175664080Y-115704761D02*
X175711700Y-115752380D01*
X175711700Y-115752380D02*
X175759319Y-115847618D01*
X175759319Y-115847618D02*
X175759319Y-115942856D01*
X175759319Y-115942856D02*
X175711700Y-116038094D01*
X175711700Y-116038094D02*
X175664080Y-116085713D01*
X175664080Y-116085713D02*
X175568842Y-116133332D01*
X175568842Y-116133332D02*
X175378366Y-116180951D01*
X175378366Y-116180951D02*
X175140271Y-116180951D01*
X175140271Y-116180951D02*
X174949795Y-116133332D01*
X174949795Y-116133332D02*
X174854557Y-116085713D01*
X174854557Y-116085713D02*
X174806938Y-116038094D01*
X174806938Y-116038094D02*
X174759319Y-115942856D01*
X174759319Y-115276189D02*
X174759319Y-114609523D01*
X174759319Y-114609523D02*
X175759319Y-115038094D01*
X175759319Y-113704761D02*
X175759319Y-114276189D01*
X175759319Y-113990475D02*
X174759319Y-113990475D01*
X174759319Y-113990475D02*
X174902176Y-114085713D01*
X174902176Y-114085713D02*
X174997414Y-114180951D01*
X174997414Y-114180951D02*
X175045033Y-114276189D01*
X174759319Y-118133333D02*
X175473604Y-118133333D01*
X175473604Y-118133333D02*
X175616461Y-118180952D01*
X175616461Y-118180952D02*
X175711700Y-118276190D01*
X175711700Y-118276190D02*
X175759319Y-118419047D01*
X175759319Y-118419047D02*
X175759319Y-118514285D01*
X175759319Y-117133333D02*
X175759319Y-117704761D01*
X175759319Y-117419047D02*
X174759319Y-117419047D01*
X174759319Y-117419047D02*
X174902176Y-117514285D01*
X174902176Y-117514285D02*
X174997414Y-117609523D01*
X174997414Y-117609523D02*
X175045033Y-117704761D01*
X177633333Y-127304819D02*
X177061905Y-127304819D01*
X177347619Y-127304819D02*
X177347619Y-126304819D01*
X177347619Y-126304819D02*
X177252381Y-126447676D01*
X177252381Y-126447676D02*
X177157143Y-126542914D01*
X177157143Y-126542914D02*
X177061905Y-126590533D01*
X178490476Y-126638152D02*
X178490476Y-127304819D01*
X178061905Y-126638152D02*
X178061905Y-127161961D01*
X178061905Y-127161961D02*
X178109524Y-127257200D01*
X178109524Y-127257200D02*
X178204762Y-127304819D01*
X178204762Y-127304819D02*
X178347619Y-127304819D01*
X178347619Y-127304819D02*
X178442857Y-127257200D01*
X178442857Y-127257200D02*
X178490476Y-127209580D01*
D11*
X177639285Y-128669765D02*
X177627381Y-128681670D01*
X177627381Y-128681670D02*
X177591666Y-128693574D01*
X177591666Y-128693574D02*
X177567857Y-128693574D01*
X177567857Y-128693574D02*
X177532143Y-128681670D01*
X177532143Y-128681670D02*
X177508333Y-128657860D01*
X177508333Y-128657860D02*
X177496428Y-128634050D01*
X177496428Y-128634050D02*
X177484524Y-128586431D01*
X177484524Y-128586431D02*
X177484524Y-128550717D01*
X177484524Y-128550717D02*
X177496428Y-128503098D01*
X177496428Y-128503098D02*
X177508333Y-128479289D01*
X177508333Y-128479289D02*
X177532143Y-128455479D01*
X177532143Y-128455479D02*
X177567857Y-128443574D01*
X177567857Y-128443574D02*
X177591666Y-128443574D01*
X177591666Y-128443574D02*
X177627381Y-128455479D01*
X177627381Y-128455479D02*
X177639285Y-128467384D01*
X177734524Y-128467384D02*
X177746428Y-128455479D01*
X177746428Y-128455479D02*
X177770238Y-128443574D01*
X177770238Y-128443574D02*
X177829762Y-128443574D01*
X177829762Y-128443574D02*
X177853571Y-128455479D01*
X177853571Y-128455479D02*
X177865476Y-128467384D01*
X177865476Y-128467384D02*
X177877381Y-128491193D01*
X177877381Y-128491193D02*
X177877381Y-128515003D01*
X177877381Y-128515003D02*
X177865476Y-128550717D01*
X177865476Y-128550717D02*
X177722619Y-128693574D01*
X177722619Y-128693574D02*
X177877381Y-128693574D01*
X177960714Y-128443574D02*
X178115476Y-128443574D01*
X178115476Y-128443574D02*
X178032142Y-128538812D01*
X178032142Y-128538812D02*
X178067857Y-128538812D01*
X178067857Y-128538812D02*
X178091666Y-128550717D01*
X178091666Y-128550717D02*
X178103571Y-128562622D01*
X178103571Y-128562622D02*
X178115476Y-128586431D01*
X178115476Y-128586431D02*
X178115476Y-128645955D01*
X178115476Y-128645955D02*
X178103571Y-128669765D01*
X178103571Y-128669765D02*
X178091666Y-128681670D01*
X178091666Y-128681670D02*
X178067857Y-128693574D01*
X178067857Y-128693574D02*
X177996428Y-128693574D01*
X177996428Y-128693574D02*
X177972619Y-128681670D01*
X177972619Y-128681670D02*
X177960714Y-128669765D01*
D10*
X181103333Y-126464819D02*
X180531905Y-126464819D01*
X180817619Y-126464819D02*
X180817619Y-125464819D01*
X180817619Y-125464819D02*
X180722381Y-125607676D01*
X180722381Y-125607676D02*
X180627143Y-125702914D01*
X180627143Y-125702914D02*
X180531905Y-125750533D01*
X181960476Y-125798152D02*
X181960476Y-126464819D01*
X181531905Y-125798152D02*
X181531905Y-126321961D01*
X181531905Y-126321961D02*
X181579524Y-126417200D01*
X181579524Y-126417200D02*
X181674762Y-126464819D01*
X181674762Y-126464819D02*
X181817619Y-126464819D01*
X181817619Y-126464819D02*
X181912857Y-126417200D01*
X181912857Y-126417200D02*
X181960476Y-126369580D01*
D11*
X181109285Y-124369765D02*
X181097381Y-124381670D01*
X181097381Y-124381670D02*
X181061666Y-124393574D01*
X181061666Y-124393574D02*
X181037857Y-124393574D01*
X181037857Y-124393574D02*
X181002143Y-124381670D01*
X181002143Y-124381670D02*
X180978333Y-124357860D01*
X180978333Y-124357860D02*
X180966428Y-124334050D01*
X180966428Y-124334050D02*
X180954524Y-124286431D01*
X180954524Y-124286431D02*
X180954524Y-124250717D01*
X180954524Y-124250717D02*
X180966428Y-124203098D01*
X180966428Y-124203098D02*
X180978333Y-124179289D01*
X180978333Y-124179289D02*
X181002143Y-124155479D01*
X181002143Y-124155479D02*
X181037857Y-124143574D01*
X181037857Y-124143574D02*
X181061666Y-124143574D01*
X181061666Y-124143574D02*
X181097381Y-124155479D01*
X181097381Y-124155479D02*
X181109285Y-124167384D01*
X181204524Y-124167384D02*
X181216428Y-124155479D01*
X181216428Y-124155479D02*
X181240238Y-124143574D01*
X181240238Y-124143574D02*
X181299762Y-124143574D01*
X181299762Y-124143574D02*
X181323571Y-124155479D01*
X181323571Y-124155479D02*
X181335476Y-124167384D01*
X181335476Y-124167384D02*
X181347381Y-124191193D01*
X181347381Y-124191193D02*
X181347381Y-124215003D01*
X181347381Y-124215003D02*
X181335476Y-124250717D01*
X181335476Y-124250717D02*
X181192619Y-124393574D01*
X181192619Y-124393574D02*
X181347381Y-124393574D01*
X181585476Y-124393574D02*
X181442619Y-124393574D01*
X181514047Y-124393574D02*
X181514047Y-124143574D01*
X181514047Y-124143574D02*
X181490238Y-124179289D01*
X181490238Y-124179289D02*
X181466428Y-124203098D01*
X181466428Y-124203098D02*
X181442619Y-124215003D01*
D10*
X178278452Y-119694819D02*
X177707024Y-119694819D01*
X177992738Y-119694819D02*
X177992738Y-118694819D01*
X177992738Y-118694819D02*
X177897500Y-118837676D01*
X177897500Y-118837676D02*
X177802262Y-118932914D01*
X177802262Y-118932914D02*
X177707024Y-118980533D01*
X178707024Y-119694819D02*
X178707024Y-118694819D01*
X178802262Y-119313866D02*
X179087976Y-119694819D01*
X179087976Y-119028152D02*
X178707024Y-119409104D01*
D11*
X178348333Y-117123574D02*
X178265000Y-117004527D01*
X178205476Y-117123574D02*
X178205476Y-116873574D01*
X178205476Y-116873574D02*
X178300714Y-116873574D01*
X178300714Y-116873574D02*
X178324524Y-116885479D01*
X178324524Y-116885479D02*
X178336429Y-116897384D01*
X178336429Y-116897384D02*
X178348333Y-116921193D01*
X178348333Y-116921193D02*
X178348333Y-116956908D01*
X178348333Y-116956908D02*
X178336429Y-116980717D01*
X178336429Y-116980717D02*
X178324524Y-116992622D01*
X178324524Y-116992622D02*
X178300714Y-117004527D01*
X178300714Y-117004527D02*
X178205476Y-117004527D01*
X178431667Y-116873574D02*
X178598333Y-116873574D01*
X178598333Y-116873574D02*
X178491191Y-117123574D01*
D10*
X189334819Y-111516666D02*
X189334819Y-112088094D01*
X189334819Y-111802380D02*
X188334819Y-111802380D01*
X188334819Y-111802380D02*
X188477676Y-111897618D01*
X188477676Y-111897618D02*
X188572914Y-111992856D01*
X188572914Y-111992856D02*
X188620533Y-112088094D01*
X188334819Y-110897618D02*
X188334819Y-110802380D01*
X188334819Y-110802380D02*
X188382438Y-110707142D01*
X188382438Y-110707142D02*
X188430057Y-110659523D01*
X188430057Y-110659523D02*
X188525295Y-110611904D01*
X188525295Y-110611904D02*
X188715771Y-110564285D01*
X188715771Y-110564285D02*
X188953866Y-110564285D01*
X188953866Y-110564285D02*
X189144342Y-110611904D01*
X189144342Y-110611904D02*
X189239580Y-110659523D01*
X189239580Y-110659523D02*
X189287200Y-110707142D01*
X189287200Y-110707142D02*
X189334819Y-110802380D01*
X189334819Y-110802380D02*
X189334819Y-110897618D01*
X189334819Y-110897618D02*
X189287200Y-110992856D01*
X189287200Y-110992856D02*
X189239580Y-111040475D01*
X189239580Y-111040475D02*
X189144342Y-111088094D01*
X189144342Y-111088094D02*
X188953866Y-111135713D01*
X188953866Y-111135713D02*
X188715771Y-111135713D01*
X188715771Y-111135713D02*
X188525295Y-111088094D01*
X188525295Y-111088094D02*
X188430057Y-111040475D01*
X188430057Y-111040475D02*
X188382438Y-110992856D01*
X188382438Y-110992856D02*
X188334819Y-110897618D01*
X188334819Y-109945237D02*
X188334819Y-109849999D01*
X188334819Y-109849999D02*
X188382438Y-109754761D01*
X188382438Y-109754761D02*
X188430057Y-109707142D01*
X188430057Y-109707142D02*
X188525295Y-109659523D01*
X188525295Y-109659523D02*
X188715771Y-109611904D01*
X188715771Y-109611904D02*
X188953866Y-109611904D01*
X188953866Y-109611904D02*
X189144342Y-109659523D01*
X189144342Y-109659523D02*
X189239580Y-109707142D01*
X189239580Y-109707142D02*
X189287200Y-109754761D01*
X189287200Y-109754761D02*
X189334819Y-109849999D01*
X189334819Y-109849999D02*
X189334819Y-109945237D01*
X189334819Y-109945237D02*
X189287200Y-110040475D01*
X189287200Y-110040475D02*
X189239580Y-110088094D01*
X189239580Y-110088094D02*
X189144342Y-110135713D01*
X189144342Y-110135713D02*
X188953866Y-110183332D01*
X188953866Y-110183332D02*
X188715771Y-110183332D01*
X188715771Y-110183332D02*
X188525295Y-110135713D01*
X188525295Y-110135713D02*
X188430057Y-110088094D01*
X188430057Y-110088094D02*
X188382438Y-110040475D01*
X188382438Y-110040475D02*
X188334819Y-109945237D01*
D11*
X190723574Y-111010714D02*
X190604527Y-111094047D01*
X190723574Y-111153571D02*
X190473574Y-111153571D01*
X190473574Y-111153571D02*
X190473574Y-111058333D01*
X190473574Y-111058333D02*
X190485479Y-111034523D01*
X190485479Y-111034523D02*
X190497384Y-111022618D01*
X190497384Y-111022618D02*
X190521193Y-111010714D01*
X190521193Y-111010714D02*
X190556908Y-111010714D01*
X190556908Y-111010714D02*
X190580717Y-111022618D01*
X190580717Y-111022618D02*
X190592622Y-111034523D01*
X190592622Y-111034523D02*
X190604527Y-111058333D01*
X190604527Y-111058333D02*
X190604527Y-111153571D01*
X190723574Y-110772618D02*
X190723574Y-110915475D01*
X190723574Y-110844047D02*
X190473574Y-110844047D01*
X190473574Y-110844047D02*
X190509289Y-110867856D01*
X190509289Y-110867856D02*
X190533098Y-110891666D01*
X190533098Y-110891666D02*
X190545003Y-110915475D01*
X190556908Y-110558333D02*
X190723574Y-110558333D01*
X190461670Y-110617857D02*
X190640241Y-110677380D01*
X190640241Y-110677380D02*
X190640241Y-110522619D01*
D10*
X196189642Y-126474819D02*
X195618214Y-126474819D01*
X195903928Y-126474819D02*
X195903928Y-125474819D01*
X195903928Y-125474819D02*
X195808690Y-125617676D01*
X195808690Y-125617676D02*
X195713452Y-125712914D01*
X195713452Y-125712914D02*
X195618214Y-125760533D01*
X196808690Y-125474819D02*
X196903928Y-125474819D01*
X196903928Y-125474819D02*
X196999166Y-125522438D01*
X196999166Y-125522438D02*
X197046785Y-125570057D01*
X197046785Y-125570057D02*
X197094404Y-125665295D01*
X197094404Y-125665295D02*
X197142023Y-125855771D01*
X197142023Y-125855771D02*
X197142023Y-126093866D01*
X197142023Y-126093866D02*
X197094404Y-126284342D01*
X197094404Y-126284342D02*
X197046785Y-126379580D01*
X197046785Y-126379580D02*
X196999166Y-126427200D01*
X196999166Y-126427200D02*
X196903928Y-126474819D01*
X196903928Y-126474819D02*
X196808690Y-126474819D01*
X196808690Y-126474819D02*
X196713452Y-126427200D01*
X196713452Y-126427200D02*
X196665833Y-126379580D01*
X196665833Y-126379580D02*
X196618214Y-126284342D01*
X196618214Y-126284342D02*
X196570595Y-126093866D01*
X196570595Y-126093866D02*
X196570595Y-125855771D01*
X196570595Y-125855771D02*
X196618214Y-125665295D01*
X196618214Y-125665295D02*
X196665833Y-125570057D01*
X196665833Y-125570057D02*
X196713452Y-125522438D01*
X196713452Y-125522438D02*
X196808690Y-125474819D01*
X197999166Y-125808152D02*
X197999166Y-126474819D01*
X197570595Y-125808152D02*
X197570595Y-126331961D01*
X197570595Y-126331961D02*
X197618214Y-126427200D01*
X197618214Y-126427200D02*
X197713452Y-126474819D01*
X197713452Y-126474819D02*
X197856309Y-126474819D01*
X197856309Y-126474819D02*
X197951547Y-126427200D01*
X197951547Y-126427200D02*
X197999166Y-126379580D01*
D11*
X196671785Y-127839765D02*
X196659881Y-127851670D01*
X196659881Y-127851670D02*
X196624166Y-127863574D01*
X196624166Y-127863574D02*
X196600357Y-127863574D01*
X196600357Y-127863574D02*
X196564643Y-127851670D01*
X196564643Y-127851670D02*
X196540833Y-127827860D01*
X196540833Y-127827860D02*
X196528928Y-127804050D01*
X196528928Y-127804050D02*
X196517024Y-127756431D01*
X196517024Y-127756431D02*
X196517024Y-127720717D01*
X196517024Y-127720717D02*
X196528928Y-127673098D01*
X196528928Y-127673098D02*
X196540833Y-127649289D01*
X196540833Y-127649289D02*
X196564643Y-127625479D01*
X196564643Y-127625479D02*
X196600357Y-127613574D01*
X196600357Y-127613574D02*
X196624166Y-127613574D01*
X196624166Y-127613574D02*
X196659881Y-127625479D01*
X196659881Y-127625479D02*
X196671785Y-127637384D01*
X196909881Y-127863574D02*
X196767024Y-127863574D01*
X196838452Y-127863574D02*
X196838452Y-127613574D01*
X196838452Y-127613574D02*
X196814643Y-127649289D01*
X196814643Y-127649289D02*
X196790833Y-127673098D01*
X196790833Y-127673098D02*
X196767024Y-127685003D01*
X197064642Y-127613574D02*
X197088452Y-127613574D01*
X197088452Y-127613574D02*
X197112261Y-127625479D01*
X197112261Y-127625479D02*
X197124166Y-127637384D01*
X197124166Y-127637384D02*
X197136071Y-127661193D01*
X197136071Y-127661193D02*
X197147976Y-127708812D01*
X197147976Y-127708812D02*
X197147976Y-127768336D01*
X197147976Y-127768336D02*
X197136071Y-127815955D01*
X197136071Y-127815955D02*
X197124166Y-127839765D01*
X197124166Y-127839765D02*
X197112261Y-127851670D01*
X197112261Y-127851670D02*
X197088452Y-127863574D01*
X197088452Y-127863574D02*
X197064642Y-127863574D01*
X197064642Y-127863574D02*
X197040833Y-127851670D01*
X197040833Y-127851670D02*
X197028928Y-127839765D01*
X197028928Y-127839765D02*
X197017023Y-127815955D01*
X197017023Y-127815955D02*
X197005119Y-127768336D01*
X197005119Y-127768336D02*
X197005119Y-127708812D01*
X197005119Y-127708812D02*
X197017023Y-127661193D01*
X197017023Y-127661193D02*
X197028928Y-127637384D01*
X197028928Y-127637384D02*
X197040833Y-127625479D01*
X197040833Y-127625479D02*
X197064642Y-127613574D01*
D10*
X181113333Y-120354819D02*
X180541905Y-120354819D01*
X180827619Y-120354819D02*
X180827619Y-119354819D01*
X180827619Y-119354819D02*
X180732381Y-119497676D01*
X180732381Y-119497676D02*
X180637143Y-119592914D01*
X180637143Y-119592914D02*
X180541905Y-119640533D01*
X181970476Y-119688152D02*
X181970476Y-120354819D01*
X181541905Y-119688152D02*
X181541905Y-120211961D01*
X181541905Y-120211961D02*
X181589524Y-120307200D01*
X181589524Y-120307200D02*
X181684762Y-120354819D01*
X181684762Y-120354819D02*
X181827619Y-120354819D01*
X181827619Y-120354819D02*
X181922857Y-120307200D01*
X181922857Y-120307200D02*
X181970476Y-120259580D01*
D11*
X181119285Y-118259765D02*
X181107381Y-118271670D01*
X181107381Y-118271670D02*
X181071666Y-118283574D01*
X181071666Y-118283574D02*
X181047857Y-118283574D01*
X181047857Y-118283574D02*
X181012143Y-118271670D01*
X181012143Y-118271670D02*
X180988333Y-118247860D01*
X180988333Y-118247860D02*
X180976428Y-118224050D01*
X180976428Y-118224050D02*
X180964524Y-118176431D01*
X180964524Y-118176431D02*
X180964524Y-118140717D01*
X180964524Y-118140717D02*
X180976428Y-118093098D01*
X180976428Y-118093098D02*
X180988333Y-118069289D01*
X180988333Y-118069289D02*
X181012143Y-118045479D01*
X181012143Y-118045479D02*
X181047857Y-118033574D01*
X181047857Y-118033574D02*
X181071666Y-118033574D01*
X181071666Y-118033574D02*
X181107381Y-118045479D01*
X181107381Y-118045479D02*
X181119285Y-118057384D01*
X181357381Y-118283574D02*
X181214524Y-118283574D01*
X181285952Y-118283574D02*
X181285952Y-118033574D01*
X181285952Y-118033574D02*
X181262143Y-118069289D01*
X181262143Y-118069289D02*
X181238333Y-118093098D01*
X181238333Y-118093098D02*
X181214524Y-118105003D01*
X181440714Y-118033574D02*
X181607380Y-118033574D01*
X181607380Y-118033574D02*
X181500238Y-118283574D01*
D10*
X195723452Y-125514819D02*
X195152024Y-125514819D01*
X195437738Y-125514819D02*
X195437738Y-124514819D01*
X195437738Y-124514819D02*
X195342500Y-124657676D01*
X195342500Y-124657676D02*
X195247262Y-124752914D01*
X195247262Y-124752914D02*
X195152024Y-124800533D01*
X196342500Y-124514819D02*
X196437738Y-124514819D01*
X196437738Y-124514819D02*
X196532976Y-124562438D01*
X196532976Y-124562438D02*
X196580595Y-124610057D01*
X196580595Y-124610057D02*
X196628214Y-124705295D01*
X196628214Y-124705295D02*
X196675833Y-124895771D01*
X196675833Y-124895771D02*
X196675833Y-125133866D01*
X196675833Y-125133866D02*
X196628214Y-125324342D01*
X196628214Y-125324342D02*
X196580595Y-125419580D01*
X196580595Y-125419580D02*
X196532976Y-125467200D01*
X196532976Y-125467200D02*
X196437738Y-125514819D01*
X196437738Y-125514819D02*
X196342500Y-125514819D01*
X196342500Y-125514819D02*
X196247262Y-125467200D01*
X196247262Y-125467200D02*
X196199643Y-125419580D01*
X196199643Y-125419580D02*
X196152024Y-125324342D01*
X196152024Y-125324342D02*
X196104405Y-125133866D01*
X196104405Y-125133866D02*
X196104405Y-124895771D01*
X196104405Y-124895771D02*
X196152024Y-124705295D01*
X196152024Y-124705295D02*
X196199643Y-124610057D01*
X196199643Y-124610057D02*
X196247262Y-124562438D01*
X196247262Y-124562438D02*
X196342500Y-124514819D01*
X197294881Y-124514819D02*
X197390119Y-124514819D01*
X197390119Y-124514819D02*
X197485357Y-124562438D01*
X197485357Y-124562438D02*
X197532976Y-124610057D01*
X197532976Y-124610057D02*
X197580595Y-124705295D01*
X197580595Y-124705295D02*
X197628214Y-124895771D01*
X197628214Y-124895771D02*
X197628214Y-125133866D01*
X197628214Y-125133866D02*
X197580595Y-125324342D01*
X197580595Y-125324342D02*
X197532976Y-125419580D01*
X197532976Y-125419580D02*
X197485357Y-125467200D01*
X197485357Y-125467200D02*
X197390119Y-125514819D01*
X197390119Y-125514819D02*
X197294881Y-125514819D01*
X197294881Y-125514819D02*
X197199643Y-125467200D01*
X197199643Y-125467200D02*
X197152024Y-125419580D01*
X197152024Y-125419580D02*
X197104405Y-125324342D01*
X197104405Y-125324342D02*
X197056786Y-125133866D01*
X197056786Y-125133866D02*
X197056786Y-124895771D01*
X197056786Y-124895771D02*
X197104405Y-124705295D01*
X197104405Y-124705295D02*
X197152024Y-124610057D01*
X197152024Y-124610057D02*
X197199643Y-124562438D01*
X197199643Y-124562438D02*
X197294881Y-124514819D01*
X198056786Y-124848152D02*
X198056786Y-125514819D01*
X198056786Y-124943390D02*
X198104405Y-124895771D01*
X198104405Y-124895771D02*
X198199643Y-124848152D01*
X198199643Y-124848152D02*
X198342500Y-124848152D01*
X198342500Y-124848152D02*
X198437738Y-124895771D01*
X198437738Y-124895771D02*
X198485357Y-124991009D01*
X198485357Y-124991009D02*
X198485357Y-125514819D01*
D11*
X196681785Y-126879765D02*
X196669881Y-126891670D01*
X196669881Y-126891670D02*
X196634166Y-126903574D01*
X196634166Y-126903574D02*
X196610357Y-126903574D01*
X196610357Y-126903574D02*
X196574643Y-126891670D01*
X196574643Y-126891670D02*
X196550833Y-126867860D01*
X196550833Y-126867860D02*
X196538928Y-126844050D01*
X196538928Y-126844050D02*
X196527024Y-126796431D01*
X196527024Y-126796431D02*
X196527024Y-126760717D01*
X196527024Y-126760717D02*
X196538928Y-126713098D01*
X196538928Y-126713098D02*
X196550833Y-126689289D01*
X196550833Y-126689289D02*
X196574643Y-126665479D01*
X196574643Y-126665479D02*
X196610357Y-126653574D01*
X196610357Y-126653574D02*
X196634166Y-126653574D01*
X196634166Y-126653574D02*
X196669881Y-126665479D01*
X196669881Y-126665479D02*
X196681785Y-126677384D01*
X196919881Y-126903574D02*
X196777024Y-126903574D01*
X196848452Y-126903574D02*
X196848452Y-126653574D01*
X196848452Y-126653574D02*
X196824643Y-126689289D01*
X196824643Y-126689289D02*
X196800833Y-126713098D01*
X196800833Y-126713098D02*
X196777024Y-126725003D01*
X197157976Y-126903574D02*
X197015119Y-126903574D01*
X197086547Y-126903574D02*
X197086547Y-126653574D01*
X197086547Y-126653574D02*
X197062738Y-126689289D01*
X197062738Y-126689289D02*
X197038928Y-126713098D01*
X197038928Y-126713098D02*
X197015119Y-126725003D01*
D10*
X178270952Y-121594819D02*
X177699524Y-121594819D01*
X177985238Y-121594819D02*
X177985238Y-120594819D01*
X177985238Y-120594819D02*
X177890000Y-120737676D01*
X177890000Y-120737676D02*
X177794762Y-120832914D01*
X177794762Y-120832914D02*
X177699524Y-120880533D01*
X178699524Y-121594819D02*
X178699524Y-120594819D01*
X178794762Y-121213866D02*
X179080476Y-121594819D01*
X179080476Y-120928152D02*
X178699524Y-121309104D01*
D11*
X178348333Y-119523574D02*
X178265000Y-119404527D01*
X178205476Y-119523574D02*
X178205476Y-119273574D01*
X178205476Y-119273574D02*
X178300714Y-119273574D01*
X178300714Y-119273574D02*
X178324524Y-119285479D01*
X178324524Y-119285479D02*
X178336429Y-119297384D01*
X178336429Y-119297384D02*
X178348333Y-119321193D01*
X178348333Y-119321193D02*
X178348333Y-119356908D01*
X178348333Y-119356908D02*
X178336429Y-119380717D01*
X178336429Y-119380717D02*
X178324524Y-119392622D01*
X178324524Y-119392622D02*
X178300714Y-119404527D01*
X178300714Y-119404527D02*
X178205476Y-119404527D01*
X178467381Y-119523574D02*
X178515000Y-119523574D01*
X178515000Y-119523574D02*
X178538810Y-119511670D01*
X178538810Y-119511670D02*
X178550714Y-119499765D01*
X178550714Y-119499765D02*
X178574524Y-119464050D01*
X178574524Y-119464050D02*
X178586429Y-119416431D01*
X178586429Y-119416431D02*
X178586429Y-119321193D01*
X178586429Y-119321193D02*
X178574524Y-119297384D01*
X178574524Y-119297384D02*
X178562619Y-119285479D01*
X178562619Y-119285479D02*
X178538810Y-119273574D01*
X178538810Y-119273574D02*
X178491191Y-119273574D01*
X178491191Y-119273574D02*
X178467381Y-119285479D01*
X178467381Y-119285479D02*
X178455476Y-119297384D01*
X178455476Y-119297384D02*
X178443572Y-119321193D01*
X178443572Y-119321193D02*
X178443572Y-119380717D01*
X178443572Y-119380717D02*
X178455476Y-119404527D01*
X178455476Y-119404527D02*
X178467381Y-119416431D01*
X178467381Y-119416431D02*
X178491191Y-119428336D01*
X178491191Y-119428336D02*
X178538810Y-119428336D01*
X178538810Y-119428336D02*
X178562619Y-119416431D01*
X178562619Y-119416431D02*
X178574524Y-119404527D01*
X178574524Y-119404527D02*
X178586429Y-119380717D01*
D10*
X181083333Y-124854819D02*
X180511905Y-124854819D01*
X180797619Y-124854819D02*
X180797619Y-123854819D01*
X180797619Y-123854819D02*
X180702381Y-123997676D01*
X180702381Y-123997676D02*
X180607143Y-124092914D01*
X180607143Y-124092914D02*
X180511905Y-124140533D01*
X181940476Y-124188152D02*
X181940476Y-124854819D01*
X181511905Y-124188152D02*
X181511905Y-124711961D01*
X181511905Y-124711961D02*
X181559524Y-124807200D01*
X181559524Y-124807200D02*
X181654762Y-124854819D01*
X181654762Y-124854819D02*
X181797619Y-124854819D01*
X181797619Y-124854819D02*
X181892857Y-124807200D01*
X181892857Y-124807200D02*
X181940476Y-124759580D01*
D11*
X181089285Y-122759765D02*
X181077381Y-122771670D01*
X181077381Y-122771670D02*
X181041666Y-122783574D01*
X181041666Y-122783574D02*
X181017857Y-122783574D01*
X181017857Y-122783574D02*
X180982143Y-122771670D01*
X180982143Y-122771670D02*
X180958333Y-122747860D01*
X180958333Y-122747860D02*
X180946428Y-122724050D01*
X180946428Y-122724050D02*
X180934524Y-122676431D01*
X180934524Y-122676431D02*
X180934524Y-122640717D01*
X180934524Y-122640717D02*
X180946428Y-122593098D01*
X180946428Y-122593098D02*
X180958333Y-122569289D01*
X180958333Y-122569289D02*
X180982143Y-122545479D01*
X180982143Y-122545479D02*
X181017857Y-122533574D01*
X181017857Y-122533574D02*
X181041666Y-122533574D01*
X181041666Y-122533574D02*
X181077381Y-122545479D01*
X181077381Y-122545479D02*
X181089285Y-122557384D01*
X181184524Y-122557384D02*
X181196428Y-122545479D01*
X181196428Y-122545479D02*
X181220238Y-122533574D01*
X181220238Y-122533574D02*
X181279762Y-122533574D01*
X181279762Y-122533574D02*
X181303571Y-122545479D01*
X181303571Y-122545479D02*
X181315476Y-122557384D01*
X181315476Y-122557384D02*
X181327381Y-122581193D01*
X181327381Y-122581193D02*
X181327381Y-122605003D01*
X181327381Y-122605003D02*
X181315476Y-122640717D01*
X181315476Y-122640717D02*
X181172619Y-122783574D01*
X181172619Y-122783574D02*
X181327381Y-122783574D01*
X181482142Y-122533574D02*
X181505952Y-122533574D01*
X181505952Y-122533574D02*
X181529761Y-122545479D01*
X181529761Y-122545479D02*
X181541666Y-122557384D01*
X181541666Y-122557384D02*
X181553571Y-122581193D01*
X181553571Y-122581193D02*
X181565476Y-122628812D01*
X181565476Y-122628812D02*
X181565476Y-122688336D01*
X181565476Y-122688336D02*
X181553571Y-122735955D01*
X181553571Y-122735955D02*
X181541666Y-122759765D01*
X181541666Y-122759765D02*
X181529761Y-122771670D01*
X181529761Y-122771670D02*
X181505952Y-122783574D01*
X181505952Y-122783574D02*
X181482142Y-122783574D01*
X181482142Y-122783574D02*
X181458333Y-122771670D01*
X181458333Y-122771670D02*
X181446428Y-122759765D01*
X181446428Y-122759765D02*
X181434523Y-122735955D01*
X181434523Y-122735955D02*
X181422619Y-122688336D01*
X181422619Y-122688336D02*
X181422619Y-122628812D01*
X181422619Y-122628812D02*
X181434523Y-122581193D01*
X181434523Y-122581193D02*
X181446428Y-122557384D01*
X181446428Y-122557384D02*
X181458333Y-122545479D01*
X181458333Y-122545479D02*
X181482142Y-122533574D01*
D10*
X189714819Y-111496666D02*
X189714819Y-112068094D01*
X189714819Y-111782380D02*
X188714819Y-111782380D01*
X188714819Y-111782380D02*
X188857676Y-111877618D01*
X188857676Y-111877618D02*
X188952914Y-111972856D01*
X188952914Y-111972856D02*
X189000533Y-112068094D01*
X188714819Y-110877618D02*
X188714819Y-110782380D01*
X188714819Y-110782380D02*
X188762438Y-110687142D01*
X188762438Y-110687142D02*
X188810057Y-110639523D01*
X188810057Y-110639523D02*
X188905295Y-110591904D01*
X188905295Y-110591904D02*
X189095771Y-110544285D01*
X189095771Y-110544285D02*
X189333866Y-110544285D01*
X189333866Y-110544285D02*
X189524342Y-110591904D01*
X189524342Y-110591904D02*
X189619580Y-110639523D01*
X189619580Y-110639523D02*
X189667200Y-110687142D01*
X189667200Y-110687142D02*
X189714819Y-110782380D01*
X189714819Y-110782380D02*
X189714819Y-110877618D01*
X189714819Y-110877618D02*
X189667200Y-110972856D01*
X189667200Y-110972856D02*
X189619580Y-111020475D01*
X189619580Y-111020475D02*
X189524342Y-111068094D01*
X189524342Y-111068094D02*
X189333866Y-111115713D01*
X189333866Y-111115713D02*
X189095771Y-111115713D01*
X189095771Y-111115713D02*
X188905295Y-111068094D01*
X188905295Y-111068094D02*
X188810057Y-111020475D01*
X188810057Y-111020475D02*
X188762438Y-110972856D01*
X188762438Y-110972856D02*
X188714819Y-110877618D01*
X188714819Y-109925237D02*
X188714819Y-109829999D01*
X188714819Y-109829999D02*
X188762438Y-109734761D01*
X188762438Y-109734761D02*
X188810057Y-109687142D01*
X188810057Y-109687142D02*
X188905295Y-109639523D01*
X188905295Y-109639523D02*
X189095771Y-109591904D01*
X189095771Y-109591904D02*
X189333866Y-109591904D01*
X189333866Y-109591904D02*
X189524342Y-109639523D01*
X189524342Y-109639523D02*
X189619580Y-109687142D01*
X189619580Y-109687142D02*
X189667200Y-109734761D01*
X189667200Y-109734761D02*
X189714819Y-109829999D01*
X189714819Y-109829999D02*
X189714819Y-109925237D01*
X189714819Y-109925237D02*
X189667200Y-110020475D01*
X189667200Y-110020475D02*
X189619580Y-110068094D01*
X189619580Y-110068094D02*
X189524342Y-110115713D01*
X189524342Y-110115713D02*
X189333866Y-110163332D01*
X189333866Y-110163332D02*
X189095771Y-110163332D01*
X189095771Y-110163332D02*
X188905295Y-110115713D01*
X188905295Y-110115713D02*
X188810057Y-110068094D01*
X188810057Y-110068094D02*
X188762438Y-110020475D01*
X188762438Y-110020475D02*
X188714819Y-109925237D01*
D11*
X187643574Y-110871666D02*
X187524527Y-110954999D01*
X187643574Y-111014523D02*
X187393574Y-111014523D01*
X187393574Y-111014523D02*
X187393574Y-110919285D01*
X187393574Y-110919285D02*
X187405479Y-110895475D01*
X187405479Y-110895475D02*
X187417384Y-110883570D01*
X187417384Y-110883570D02*
X187441193Y-110871666D01*
X187441193Y-110871666D02*
X187476908Y-110871666D01*
X187476908Y-110871666D02*
X187500717Y-110883570D01*
X187500717Y-110883570D02*
X187512622Y-110895475D01*
X187512622Y-110895475D02*
X187524527Y-110919285D01*
X187524527Y-110919285D02*
X187524527Y-111014523D01*
X187417384Y-110776427D02*
X187405479Y-110764523D01*
X187405479Y-110764523D02*
X187393574Y-110740713D01*
X187393574Y-110740713D02*
X187393574Y-110681189D01*
X187393574Y-110681189D02*
X187405479Y-110657380D01*
X187405479Y-110657380D02*
X187417384Y-110645475D01*
X187417384Y-110645475D02*
X187441193Y-110633570D01*
X187441193Y-110633570D02*
X187465003Y-110633570D01*
X187465003Y-110633570D02*
X187500717Y-110645475D01*
X187500717Y-110645475D02*
X187643574Y-110788332D01*
X187643574Y-110788332D02*
X187643574Y-110633570D01*
D10*
X191104819Y-111536666D02*
X191104819Y-112108094D01*
X191104819Y-111822380D02*
X190104819Y-111822380D01*
X190104819Y-111822380D02*
X190247676Y-111917618D01*
X190247676Y-111917618D02*
X190342914Y-112012856D01*
X190342914Y-112012856D02*
X190390533Y-112108094D01*
X190104819Y-110917618D02*
X190104819Y-110822380D01*
X190104819Y-110822380D02*
X190152438Y-110727142D01*
X190152438Y-110727142D02*
X190200057Y-110679523D01*
X190200057Y-110679523D02*
X190295295Y-110631904D01*
X190295295Y-110631904D02*
X190485771Y-110584285D01*
X190485771Y-110584285D02*
X190723866Y-110584285D01*
X190723866Y-110584285D02*
X190914342Y-110631904D01*
X190914342Y-110631904D02*
X191009580Y-110679523D01*
X191009580Y-110679523D02*
X191057200Y-110727142D01*
X191057200Y-110727142D02*
X191104819Y-110822380D01*
X191104819Y-110822380D02*
X191104819Y-110917618D01*
X191104819Y-110917618D02*
X191057200Y-111012856D01*
X191057200Y-111012856D02*
X191009580Y-111060475D01*
X191009580Y-111060475D02*
X190914342Y-111108094D01*
X190914342Y-111108094D02*
X190723866Y-111155713D01*
X190723866Y-111155713D02*
X190485771Y-111155713D01*
X190485771Y-111155713D02*
X190295295Y-111108094D01*
X190295295Y-111108094D02*
X190200057Y-111060475D01*
X190200057Y-111060475D02*
X190152438Y-111012856D01*
X190152438Y-111012856D02*
X190104819Y-110917618D01*
X190104819Y-109965237D02*
X190104819Y-109869999D01*
X190104819Y-109869999D02*
X190152438Y-109774761D01*
X190152438Y-109774761D02*
X190200057Y-109727142D01*
X190200057Y-109727142D02*
X190295295Y-109679523D01*
X190295295Y-109679523D02*
X190485771Y-109631904D01*
X190485771Y-109631904D02*
X190723866Y-109631904D01*
X190723866Y-109631904D02*
X190914342Y-109679523D01*
X190914342Y-109679523D02*
X191009580Y-109727142D01*
X191009580Y-109727142D02*
X191057200Y-109774761D01*
X191057200Y-109774761D02*
X191104819Y-109869999D01*
X191104819Y-109869999D02*
X191104819Y-109965237D01*
X191104819Y-109965237D02*
X191057200Y-110060475D01*
X191057200Y-110060475D02*
X191009580Y-110108094D01*
X191009580Y-110108094D02*
X190914342Y-110155713D01*
X190914342Y-110155713D02*
X190723866Y-110203332D01*
X190723866Y-110203332D02*
X190485771Y-110203332D01*
X190485771Y-110203332D02*
X190295295Y-110155713D01*
X190295295Y-110155713D02*
X190200057Y-110108094D01*
X190200057Y-110108094D02*
X190152438Y-110060475D01*
X190152438Y-110060475D02*
X190104819Y-109965237D01*
D11*
X192493574Y-111030714D02*
X192374527Y-111114047D01*
X192493574Y-111173571D02*
X192243574Y-111173571D01*
X192243574Y-111173571D02*
X192243574Y-111078333D01*
X192243574Y-111078333D02*
X192255479Y-111054523D01*
X192255479Y-111054523D02*
X192267384Y-111042618D01*
X192267384Y-111042618D02*
X192291193Y-111030714D01*
X192291193Y-111030714D02*
X192326908Y-111030714D01*
X192326908Y-111030714D02*
X192350717Y-111042618D01*
X192350717Y-111042618D02*
X192362622Y-111054523D01*
X192362622Y-111054523D02*
X192374527Y-111078333D01*
X192374527Y-111078333D02*
X192374527Y-111173571D01*
X192493574Y-110792618D02*
X192493574Y-110935475D01*
X192493574Y-110864047D02*
X192243574Y-110864047D01*
X192243574Y-110864047D02*
X192279289Y-110887856D01*
X192279289Y-110887856D02*
X192303098Y-110911666D01*
X192303098Y-110911666D02*
X192315003Y-110935475D01*
X192243574Y-110566428D02*
X192243574Y-110685476D01*
X192243574Y-110685476D02*
X192362622Y-110697380D01*
X192362622Y-110697380D02*
X192350717Y-110685476D01*
X192350717Y-110685476D02*
X192338812Y-110661666D01*
X192338812Y-110661666D02*
X192338812Y-110602142D01*
X192338812Y-110602142D02*
X192350717Y-110578333D01*
X192350717Y-110578333D02*
X192362622Y-110566428D01*
X192362622Y-110566428D02*
X192386431Y-110554523D01*
X192386431Y-110554523D02*
X192445955Y-110554523D01*
X192445955Y-110554523D02*
X192469765Y-110566428D01*
X192469765Y-110566428D02*
X192481670Y-110578333D01*
X192481670Y-110578333D02*
X192493574Y-110602142D01*
X192493574Y-110602142D02*
X192493574Y-110661666D01*
X192493574Y-110661666D02*
X192481670Y-110685476D01*
X192481670Y-110685476D02*
X192469765Y-110697380D01*
D10*
X184594819Y-121209047D02*
X184594819Y-121780475D01*
X184594819Y-121494761D02*
X183594819Y-121494761D01*
X183594819Y-121494761D02*
X183737676Y-121589999D01*
X183737676Y-121589999D02*
X183832914Y-121685237D01*
X183832914Y-121685237D02*
X183880533Y-121780475D01*
X183594819Y-120589999D02*
X183594819Y-120494761D01*
X183594819Y-120494761D02*
X183642438Y-120399523D01*
X183642438Y-120399523D02*
X183690057Y-120351904D01*
X183690057Y-120351904D02*
X183785295Y-120304285D01*
X183785295Y-120304285D02*
X183975771Y-120256666D01*
X183975771Y-120256666D02*
X184213866Y-120256666D01*
X184213866Y-120256666D02*
X184404342Y-120304285D01*
X184404342Y-120304285D02*
X184499580Y-120351904D01*
X184499580Y-120351904D02*
X184547200Y-120399523D01*
X184547200Y-120399523D02*
X184594819Y-120494761D01*
X184594819Y-120494761D02*
X184594819Y-120589999D01*
X184594819Y-120589999D02*
X184547200Y-120685237D01*
X184547200Y-120685237D02*
X184499580Y-120732856D01*
X184499580Y-120732856D02*
X184404342Y-120780475D01*
X184404342Y-120780475D02*
X184213866Y-120828094D01*
X184213866Y-120828094D02*
X183975771Y-120828094D01*
X183975771Y-120828094D02*
X183785295Y-120780475D01*
X183785295Y-120780475D02*
X183690057Y-120732856D01*
X183690057Y-120732856D02*
X183642438Y-120685237D01*
X183642438Y-120685237D02*
X183594819Y-120589999D01*
X183594819Y-119637618D02*
X183594819Y-119542380D01*
X183594819Y-119542380D02*
X183642438Y-119447142D01*
X183642438Y-119447142D02*
X183690057Y-119399523D01*
X183690057Y-119399523D02*
X183785295Y-119351904D01*
X183785295Y-119351904D02*
X183975771Y-119304285D01*
X183975771Y-119304285D02*
X184213866Y-119304285D01*
X184213866Y-119304285D02*
X184404342Y-119351904D01*
X184404342Y-119351904D02*
X184499580Y-119399523D01*
X184499580Y-119399523D02*
X184547200Y-119447142D01*
X184547200Y-119447142D02*
X184594819Y-119542380D01*
X184594819Y-119542380D02*
X184594819Y-119637618D01*
X184594819Y-119637618D02*
X184547200Y-119732856D01*
X184547200Y-119732856D02*
X184499580Y-119780475D01*
X184499580Y-119780475D02*
X184404342Y-119828094D01*
X184404342Y-119828094D02*
X184213866Y-119875713D01*
X184213866Y-119875713D02*
X183975771Y-119875713D01*
X183975771Y-119875713D02*
X183785295Y-119828094D01*
X183785295Y-119828094D02*
X183690057Y-119780475D01*
X183690057Y-119780475D02*
X183642438Y-119732856D01*
X183642438Y-119732856D02*
X183594819Y-119637618D01*
X183928152Y-118875713D02*
X184594819Y-118875713D01*
X184023390Y-118875713D02*
X183975771Y-118828094D01*
X183975771Y-118828094D02*
X183928152Y-118732856D01*
X183928152Y-118732856D02*
X183928152Y-118589999D01*
X183928152Y-118589999D02*
X183975771Y-118494761D01*
X183975771Y-118494761D02*
X184071009Y-118447142D01*
X184071009Y-118447142D02*
X184594819Y-118447142D01*
D11*
X185959765Y-120131666D02*
X185971670Y-120143570D01*
X185971670Y-120143570D02*
X185983574Y-120179285D01*
X185983574Y-120179285D02*
X185983574Y-120203094D01*
X185983574Y-120203094D02*
X185971670Y-120238808D01*
X185971670Y-120238808D02*
X185947860Y-120262618D01*
X185947860Y-120262618D02*
X185924050Y-120274523D01*
X185924050Y-120274523D02*
X185876431Y-120286427D01*
X185876431Y-120286427D02*
X185840717Y-120286427D01*
X185840717Y-120286427D02*
X185793098Y-120274523D01*
X185793098Y-120274523D02*
X185769289Y-120262618D01*
X185769289Y-120262618D02*
X185745479Y-120238808D01*
X185745479Y-120238808D02*
X185733574Y-120203094D01*
X185733574Y-120203094D02*
X185733574Y-120179285D01*
X185733574Y-120179285D02*
X185745479Y-120143570D01*
X185745479Y-120143570D02*
X185757384Y-120131666D01*
X185733574Y-119917380D02*
X185733574Y-119964999D01*
X185733574Y-119964999D02*
X185745479Y-119988808D01*
X185745479Y-119988808D02*
X185757384Y-120000713D01*
X185757384Y-120000713D02*
X185793098Y-120024523D01*
X185793098Y-120024523D02*
X185840717Y-120036427D01*
X185840717Y-120036427D02*
X185935955Y-120036427D01*
X185935955Y-120036427D02*
X185959765Y-120024523D01*
X185959765Y-120024523D02*
X185971670Y-120012618D01*
X185971670Y-120012618D02*
X185983574Y-119988808D01*
X185983574Y-119988808D02*
X185983574Y-119941189D01*
X185983574Y-119941189D02*
X185971670Y-119917380D01*
X185971670Y-119917380D02*
X185959765Y-119905475D01*
X185959765Y-119905475D02*
X185935955Y-119893570D01*
X185935955Y-119893570D02*
X185876431Y-119893570D01*
X185876431Y-119893570D02*
X185852622Y-119905475D01*
X185852622Y-119905475D02*
X185840717Y-119917380D01*
X185840717Y-119917380D02*
X185828812Y-119941189D01*
X185828812Y-119941189D02*
X185828812Y-119988808D01*
X185828812Y-119988808D02*
X185840717Y-120012618D01*
X185840717Y-120012618D02*
X185852622Y-120024523D01*
X185852622Y-120024523D02*
X185876431Y-120036427D01*
D10*
X188904819Y-84566666D02*
X188904819Y-85138094D01*
X188904819Y-84852380D02*
X187904819Y-84852380D01*
X187904819Y-84852380D02*
X188047676Y-84947618D01*
X188047676Y-84947618D02*
X188142914Y-85042856D01*
X188142914Y-85042856D02*
X188190533Y-85138094D01*
X188238152Y-83709523D02*
X188904819Y-83709523D01*
X188238152Y-84138094D02*
X188761961Y-84138094D01*
X188761961Y-84138094D02*
X188857200Y-84090475D01*
X188857200Y-84090475D02*
X188904819Y-83995237D01*
X188904819Y-83995237D02*
X188904819Y-83852380D01*
X188904819Y-83852380D02*
X188857200Y-83757142D01*
X188857200Y-83757142D02*
X188809580Y-83709523D01*
D11*
X190269765Y-84560714D02*
X190281670Y-84572618D01*
X190281670Y-84572618D02*
X190293574Y-84608333D01*
X190293574Y-84608333D02*
X190293574Y-84632142D01*
X190293574Y-84632142D02*
X190281670Y-84667856D01*
X190281670Y-84667856D02*
X190257860Y-84691666D01*
X190257860Y-84691666D02*
X190234050Y-84703571D01*
X190234050Y-84703571D02*
X190186431Y-84715475D01*
X190186431Y-84715475D02*
X190150717Y-84715475D01*
X190150717Y-84715475D02*
X190103098Y-84703571D01*
X190103098Y-84703571D02*
X190079289Y-84691666D01*
X190079289Y-84691666D02*
X190055479Y-84667856D01*
X190055479Y-84667856D02*
X190043574Y-84632142D01*
X190043574Y-84632142D02*
X190043574Y-84608333D01*
X190043574Y-84608333D02*
X190055479Y-84572618D01*
X190055479Y-84572618D02*
X190067384Y-84560714D01*
X190067384Y-84465475D02*
X190055479Y-84453571D01*
X190055479Y-84453571D02*
X190043574Y-84429761D01*
X190043574Y-84429761D02*
X190043574Y-84370237D01*
X190043574Y-84370237D02*
X190055479Y-84346428D01*
X190055479Y-84346428D02*
X190067384Y-84334523D01*
X190067384Y-84334523D02*
X190091193Y-84322618D01*
X190091193Y-84322618D02*
X190115003Y-84322618D01*
X190115003Y-84322618D02*
X190150717Y-84334523D01*
X190150717Y-84334523D02*
X190293574Y-84477380D01*
X190293574Y-84477380D02*
X190293574Y-84322618D01*
X190067384Y-84227380D02*
X190055479Y-84215476D01*
X190055479Y-84215476D02*
X190043574Y-84191666D01*
X190043574Y-84191666D02*
X190043574Y-84132142D01*
X190043574Y-84132142D02*
X190055479Y-84108333D01*
X190055479Y-84108333D02*
X190067384Y-84096428D01*
X190067384Y-84096428D02*
X190091193Y-84084523D01*
X190091193Y-84084523D02*
X190115003Y-84084523D01*
X190115003Y-84084523D02*
X190150717Y-84096428D01*
X190150717Y-84096428D02*
X190293574Y-84239285D01*
X190293574Y-84239285D02*
X190293574Y-84084523D01*
D10*
X178255952Y-114394819D02*
X177684524Y-114394819D01*
X177970238Y-114394819D02*
X177970238Y-113394819D01*
X177970238Y-113394819D02*
X177875000Y-113537676D01*
X177875000Y-113537676D02*
X177779762Y-113632914D01*
X177779762Y-113632914D02*
X177684524Y-113680533D01*
X178684524Y-114394819D02*
X178684524Y-113394819D01*
X178779762Y-114013866D02*
X179065476Y-114394819D01*
X179065476Y-113728152D02*
X178684524Y-114109104D01*
D11*
X178333333Y-112323574D02*
X178250000Y-112204527D01*
X178190476Y-112323574D02*
X178190476Y-112073574D01*
X178190476Y-112073574D02*
X178285714Y-112073574D01*
X178285714Y-112073574D02*
X178309524Y-112085479D01*
X178309524Y-112085479D02*
X178321429Y-112097384D01*
X178321429Y-112097384D02*
X178333333Y-112121193D01*
X178333333Y-112121193D02*
X178333333Y-112156908D01*
X178333333Y-112156908D02*
X178321429Y-112180717D01*
X178321429Y-112180717D02*
X178309524Y-112192622D01*
X178309524Y-112192622D02*
X178285714Y-112204527D01*
X178285714Y-112204527D02*
X178190476Y-112204527D01*
X178416667Y-112073574D02*
X178571429Y-112073574D01*
X178571429Y-112073574D02*
X178488095Y-112168812D01*
X178488095Y-112168812D02*
X178523810Y-112168812D01*
X178523810Y-112168812D02*
X178547619Y-112180717D01*
X178547619Y-112180717D02*
X178559524Y-112192622D01*
X178559524Y-112192622D02*
X178571429Y-112216431D01*
X178571429Y-112216431D02*
X178571429Y-112275955D01*
X178571429Y-112275955D02*
X178559524Y-112299765D01*
X178559524Y-112299765D02*
X178547619Y-112311670D01*
X178547619Y-112311670D02*
X178523810Y-112323574D01*
X178523810Y-112323574D02*
X178452381Y-112323574D01*
X178452381Y-112323574D02*
X178428572Y-112311670D01*
X178428572Y-112311670D02*
X178416667Y-112299765D01*
D10*
X180993333Y-119064819D02*
X180421905Y-119064819D01*
X180707619Y-119064819D02*
X180707619Y-118064819D01*
X180707619Y-118064819D02*
X180612381Y-118207676D01*
X180612381Y-118207676D02*
X180517143Y-118302914D01*
X180517143Y-118302914D02*
X180421905Y-118350533D01*
X181850476Y-118398152D02*
X181850476Y-119064819D01*
X181421905Y-118398152D02*
X181421905Y-118921961D01*
X181421905Y-118921961D02*
X181469524Y-119017200D01*
X181469524Y-119017200D02*
X181564762Y-119064819D01*
X181564762Y-119064819D02*
X181707619Y-119064819D01*
X181707619Y-119064819D02*
X181802857Y-119017200D01*
X181802857Y-119017200D02*
X181850476Y-118969580D01*
D11*
X180999285Y-116969765D02*
X180987381Y-116981670D01*
X180987381Y-116981670D02*
X180951666Y-116993574D01*
X180951666Y-116993574D02*
X180927857Y-116993574D01*
X180927857Y-116993574D02*
X180892143Y-116981670D01*
X180892143Y-116981670D02*
X180868333Y-116957860D01*
X180868333Y-116957860D02*
X180856428Y-116934050D01*
X180856428Y-116934050D02*
X180844524Y-116886431D01*
X180844524Y-116886431D02*
X180844524Y-116850717D01*
X180844524Y-116850717D02*
X180856428Y-116803098D01*
X180856428Y-116803098D02*
X180868333Y-116779289D01*
X180868333Y-116779289D02*
X180892143Y-116755479D01*
X180892143Y-116755479D02*
X180927857Y-116743574D01*
X180927857Y-116743574D02*
X180951666Y-116743574D01*
X180951666Y-116743574D02*
X180987381Y-116755479D01*
X180987381Y-116755479D02*
X180999285Y-116767384D01*
X181237381Y-116993574D02*
X181094524Y-116993574D01*
X181165952Y-116993574D02*
X181165952Y-116743574D01*
X181165952Y-116743574D02*
X181142143Y-116779289D01*
X181142143Y-116779289D02*
X181118333Y-116803098D01*
X181118333Y-116803098D02*
X181094524Y-116815003D01*
X181451666Y-116743574D02*
X181404047Y-116743574D01*
X181404047Y-116743574D02*
X181380238Y-116755479D01*
X181380238Y-116755479D02*
X181368333Y-116767384D01*
X181368333Y-116767384D02*
X181344523Y-116803098D01*
X181344523Y-116803098D02*
X181332619Y-116850717D01*
X181332619Y-116850717D02*
X181332619Y-116945955D01*
X181332619Y-116945955D02*
X181344523Y-116969765D01*
X181344523Y-116969765D02*
X181356428Y-116981670D01*
X181356428Y-116981670D02*
X181380238Y-116993574D01*
X181380238Y-116993574D02*
X181427857Y-116993574D01*
X181427857Y-116993574D02*
X181451666Y-116981670D01*
X181451666Y-116981670D02*
X181463571Y-116969765D01*
X181463571Y-116969765D02*
X181475476Y-116945955D01*
X181475476Y-116945955D02*
X181475476Y-116886431D01*
X181475476Y-116886431D02*
X181463571Y-116862622D01*
X181463571Y-116862622D02*
X181451666Y-116850717D01*
X181451666Y-116850717D02*
X181427857Y-116838812D01*
X181427857Y-116838812D02*
X181380238Y-116838812D01*
X181380238Y-116838812D02*
X181356428Y-116850717D01*
X181356428Y-116850717D02*
X181344523Y-116862622D01*
X181344523Y-116862622D02*
X181332619Y-116886431D01*
D10*
X195657142Y-124414819D02*
X195085714Y-124414819D01*
X195371428Y-124414819D02*
X195371428Y-123414819D01*
X195371428Y-123414819D02*
X195276190Y-123557676D01*
X195276190Y-123557676D02*
X195180952Y-123652914D01*
X195180952Y-123652914D02*
X195085714Y-123700533D01*
X196228571Y-123843390D02*
X196133333Y-123795771D01*
X196133333Y-123795771D02*
X196085714Y-123748152D01*
X196085714Y-123748152D02*
X196038095Y-123652914D01*
X196038095Y-123652914D02*
X196038095Y-123605295D01*
X196038095Y-123605295D02*
X196085714Y-123510057D01*
X196085714Y-123510057D02*
X196133333Y-123462438D01*
X196133333Y-123462438D02*
X196228571Y-123414819D01*
X196228571Y-123414819D02*
X196419047Y-123414819D01*
X196419047Y-123414819D02*
X196514285Y-123462438D01*
X196514285Y-123462438D02*
X196561904Y-123510057D01*
X196561904Y-123510057D02*
X196609523Y-123605295D01*
X196609523Y-123605295D02*
X196609523Y-123652914D01*
X196609523Y-123652914D02*
X196561904Y-123748152D01*
X196561904Y-123748152D02*
X196514285Y-123795771D01*
X196514285Y-123795771D02*
X196419047Y-123843390D01*
X196419047Y-123843390D02*
X196228571Y-123843390D01*
X196228571Y-123843390D02*
X196133333Y-123891009D01*
X196133333Y-123891009D02*
X196085714Y-123938628D01*
X196085714Y-123938628D02*
X196038095Y-124033866D01*
X196038095Y-124033866D02*
X196038095Y-124224342D01*
X196038095Y-124224342D02*
X196085714Y-124319580D01*
X196085714Y-124319580D02*
X196133333Y-124367200D01*
X196133333Y-124367200D02*
X196228571Y-124414819D01*
X196228571Y-124414819D02*
X196419047Y-124414819D01*
X196419047Y-124414819D02*
X196514285Y-124367200D01*
X196514285Y-124367200D02*
X196561904Y-124319580D01*
X196561904Y-124319580D02*
X196609523Y-124224342D01*
X196609523Y-124224342D02*
X196609523Y-124033866D01*
X196609523Y-124033866D02*
X196561904Y-123938628D01*
X196561904Y-123938628D02*
X196514285Y-123891009D01*
X196514285Y-123891009D02*
X196419047Y-123843390D01*
X197038095Y-123748152D02*
X197038095Y-124748152D01*
X197038095Y-123795771D02*
X197133333Y-123748152D01*
X197133333Y-123748152D02*
X197323809Y-123748152D01*
X197323809Y-123748152D02*
X197419047Y-123795771D01*
X197419047Y-123795771D02*
X197466666Y-123843390D01*
X197466666Y-123843390D02*
X197514285Y-123938628D01*
X197514285Y-123938628D02*
X197514285Y-124224342D01*
X197514285Y-124224342D02*
X197466666Y-124319580D01*
X197466666Y-124319580D02*
X197419047Y-124367200D01*
X197419047Y-124367200D02*
X197323809Y-124414819D01*
X197323809Y-124414819D02*
X197133333Y-124414819D01*
X197133333Y-124414819D02*
X197038095Y-124367200D01*
D11*
X196139285Y-125779765D02*
X196127381Y-125791670D01*
X196127381Y-125791670D02*
X196091666Y-125803574D01*
X196091666Y-125803574D02*
X196067857Y-125803574D01*
X196067857Y-125803574D02*
X196032143Y-125791670D01*
X196032143Y-125791670D02*
X196008333Y-125767860D01*
X196008333Y-125767860D02*
X195996428Y-125744050D01*
X195996428Y-125744050D02*
X195984524Y-125696431D01*
X195984524Y-125696431D02*
X195984524Y-125660717D01*
X195984524Y-125660717D02*
X195996428Y-125613098D01*
X195996428Y-125613098D02*
X196008333Y-125589289D01*
X196008333Y-125589289D02*
X196032143Y-125565479D01*
X196032143Y-125565479D02*
X196067857Y-125553574D01*
X196067857Y-125553574D02*
X196091666Y-125553574D01*
X196091666Y-125553574D02*
X196127381Y-125565479D01*
X196127381Y-125565479D02*
X196139285Y-125577384D01*
X196377381Y-125803574D02*
X196234524Y-125803574D01*
X196305952Y-125803574D02*
X196305952Y-125553574D01*
X196305952Y-125553574D02*
X196282143Y-125589289D01*
X196282143Y-125589289D02*
X196258333Y-125613098D01*
X196258333Y-125613098D02*
X196234524Y-125625003D01*
X196460714Y-125553574D02*
X196615476Y-125553574D01*
X196615476Y-125553574D02*
X196532142Y-125648812D01*
X196532142Y-125648812D02*
X196567857Y-125648812D01*
X196567857Y-125648812D02*
X196591666Y-125660717D01*
X196591666Y-125660717D02*
X196603571Y-125672622D01*
X196603571Y-125672622D02*
X196615476Y-125696431D01*
X196615476Y-125696431D02*
X196615476Y-125755955D01*
X196615476Y-125755955D02*
X196603571Y-125779765D01*
X196603571Y-125779765D02*
X196591666Y-125791670D01*
X196591666Y-125791670D02*
X196567857Y-125803574D01*
X196567857Y-125803574D02*
X196496428Y-125803574D01*
X196496428Y-125803574D02*
X196472619Y-125791670D01*
X196472619Y-125791670D02*
X196460714Y-125779765D01*
D10*
X178370952Y-115794819D02*
X177799524Y-115794819D01*
X178085238Y-115794819D02*
X178085238Y-114794819D01*
X178085238Y-114794819D02*
X177990000Y-114937676D01*
X177990000Y-114937676D02*
X177894762Y-115032914D01*
X177894762Y-115032914D02*
X177799524Y-115080533D01*
X178799524Y-115794819D02*
X178799524Y-114794819D01*
X178894762Y-115413866D02*
X179180476Y-115794819D01*
X179180476Y-115128152D02*
X178799524Y-115509104D01*
D11*
X178333333Y-113523574D02*
X178250000Y-113404527D01*
X178190476Y-113523574D02*
X178190476Y-113273574D01*
X178190476Y-113273574D02*
X178285714Y-113273574D01*
X178285714Y-113273574D02*
X178309524Y-113285479D01*
X178309524Y-113285479D02*
X178321429Y-113297384D01*
X178321429Y-113297384D02*
X178333333Y-113321193D01*
X178333333Y-113321193D02*
X178333333Y-113356908D01*
X178333333Y-113356908D02*
X178321429Y-113380717D01*
X178321429Y-113380717D02*
X178309524Y-113392622D01*
X178309524Y-113392622D02*
X178285714Y-113404527D01*
X178285714Y-113404527D02*
X178190476Y-113404527D01*
X178547619Y-113356908D02*
X178547619Y-113523574D01*
X178488095Y-113261670D02*
X178428572Y-113440241D01*
X178428572Y-113440241D02*
X178583333Y-113440241D01*
D10*
X181013333Y-121904819D02*
X180441905Y-121904819D01*
X180727619Y-121904819D02*
X180727619Y-120904819D01*
X180727619Y-120904819D02*
X180632381Y-121047676D01*
X180632381Y-121047676D02*
X180537143Y-121142914D01*
X180537143Y-121142914D02*
X180441905Y-121190533D01*
X181870476Y-121238152D02*
X181870476Y-121904819D01*
X181441905Y-121238152D02*
X181441905Y-121761961D01*
X181441905Y-121761961D02*
X181489524Y-121857200D01*
X181489524Y-121857200D02*
X181584762Y-121904819D01*
X181584762Y-121904819D02*
X181727619Y-121904819D01*
X181727619Y-121904819D02*
X181822857Y-121857200D01*
X181822857Y-121857200D02*
X181870476Y-121809580D01*
D11*
X181019285Y-118609765D02*
X181007381Y-118621670D01*
X181007381Y-118621670D02*
X180971666Y-118633574D01*
X180971666Y-118633574D02*
X180947857Y-118633574D01*
X180947857Y-118633574D02*
X180912143Y-118621670D01*
X180912143Y-118621670D02*
X180888333Y-118597860D01*
X180888333Y-118597860D02*
X180876428Y-118574050D01*
X180876428Y-118574050D02*
X180864524Y-118526431D01*
X180864524Y-118526431D02*
X180864524Y-118490717D01*
X180864524Y-118490717D02*
X180876428Y-118443098D01*
X180876428Y-118443098D02*
X180888333Y-118419289D01*
X180888333Y-118419289D02*
X180912143Y-118395479D01*
X180912143Y-118395479D02*
X180947857Y-118383574D01*
X180947857Y-118383574D02*
X180971666Y-118383574D01*
X180971666Y-118383574D02*
X181007381Y-118395479D01*
X181007381Y-118395479D02*
X181019285Y-118407384D01*
X181257381Y-118633574D02*
X181114524Y-118633574D01*
X181185952Y-118633574D02*
X181185952Y-118383574D01*
X181185952Y-118383574D02*
X181162143Y-118419289D01*
X181162143Y-118419289D02*
X181138333Y-118443098D01*
X181138333Y-118443098D02*
X181114524Y-118455003D01*
X181400238Y-118490717D02*
X181376428Y-118478812D01*
X181376428Y-118478812D02*
X181364523Y-118466908D01*
X181364523Y-118466908D02*
X181352619Y-118443098D01*
X181352619Y-118443098D02*
X181352619Y-118431193D01*
X181352619Y-118431193D02*
X181364523Y-118407384D01*
X181364523Y-118407384D02*
X181376428Y-118395479D01*
X181376428Y-118395479D02*
X181400238Y-118383574D01*
X181400238Y-118383574D02*
X181447857Y-118383574D01*
X181447857Y-118383574D02*
X181471666Y-118395479D01*
X181471666Y-118395479D02*
X181483571Y-118407384D01*
X181483571Y-118407384D02*
X181495476Y-118431193D01*
X181495476Y-118431193D02*
X181495476Y-118443098D01*
X181495476Y-118443098D02*
X181483571Y-118466908D01*
X181483571Y-118466908D02*
X181471666Y-118478812D01*
X181471666Y-118478812D02*
X181447857Y-118490717D01*
X181447857Y-118490717D02*
X181400238Y-118490717D01*
X181400238Y-118490717D02*
X181376428Y-118502622D01*
X181376428Y-118502622D02*
X181364523Y-118514527D01*
X181364523Y-118514527D02*
X181352619Y-118538336D01*
X181352619Y-118538336D02*
X181352619Y-118585955D01*
X181352619Y-118585955D02*
X181364523Y-118609765D01*
X181364523Y-118609765D02*
X181376428Y-118621670D01*
X181376428Y-118621670D02*
X181400238Y-118633574D01*
X181400238Y-118633574D02*
X181447857Y-118633574D01*
X181447857Y-118633574D02*
X181471666Y-118621670D01*
X181471666Y-118621670D02*
X181483571Y-118609765D01*
X181483571Y-118609765D02*
X181495476Y-118585955D01*
X181495476Y-118585955D02*
X181495476Y-118538336D01*
X181495476Y-118538336D02*
X181483571Y-118514527D01*
X181483571Y-118514527D02*
X181471666Y-118502622D01*
X181471666Y-118502622D02*
X181447857Y-118490717D01*
D10*
X178270952Y-118494819D02*
X177699524Y-118494819D01*
X177985238Y-118494819D02*
X177985238Y-117494819D01*
X177985238Y-117494819D02*
X177890000Y-117637676D01*
X177890000Y-117637676D02*
X177794762Y-117732914D01*
X177794762Y-117732914D02*
X177699524Y-117780533D01*
X178699524Y-118494819D02*
X178699524Y-117494819D01*
X178794762Y-118113866D02*
X179080476Y-118494819D01*
X179080476Y-117828152D02*
X178699524Y-118209104D01*
D11*
X178340833Y-115923574D02*
X178257500Y-115804527D01*
X178197976Y-115923574D02*
X178197976Y-115673574D01*
X178197976Y-115673574D02*
X178293214Y-115673574D01*
X178293214Y-115673574D02*
X178317024Y-115685479D01*
X178317024Y-115685479D02*
X178328929Y-115697384D01*
X178328929Y-115697384D02*
X178340833Y-115721193D01*
X178340833Y-115721193D02*
X178340833Y-115756908D01*
X178340833Y-115756908D02*
X178328929Y-115780717D01*
X178328929Y-115780717D02*
X178317024Y-115792622D01*
X178317024Y-115792622D02*
X178293214Y-115804527D01*
X178293214Y-115804527D02*
X178197976Y-115804527D01*
X178555119Y-115673574D02*
X178507500Y-115673574D01*
X178507500Y-115673574D02*
X178483691Y-115685479D01*
X178483691Y-115685479D02*
X178471786Y-115697384D01*
X178471786Y-115697384D02*
X178447976Y-115733098D01*
X178447976Y-115733098D02*
X178436072Y-115780717D01*
X178436072Y-115780717D02*
X178436072Y-115875955D01*
X178436072Y-115875955D02*
X178447976Y-115899765D01*
X178447976Y-115899765D02*
X178459881Y-115911670D01*
X178459881Y-115911670D02*
X178483691Y-115923574D01*
X178483691Y-115923574D02*
X178531310Y-115923574D01*
X178531310Y-115923574D02*
X178555119Y-115911670D01*
X178555119Y-115911670D02*
X178567024Y-115899765D01*
X178567024Y-115899765D02*
X178578929Y-115875955D01*
X178578929Y-115875955D02*
X178578929Y-115816431D01*
X178578929Y-115816431D02*
X178567024Y-115792622D01*
X178567024Y-115792622D02*
X178555119Y-115780717D01*
X178555119Y-115780717D02*
X178531310Y-115768812D01*
X178531310Y-115768812D02*
X178483691Y-115768812D01*
X178483691Y-115768812D02*
X178459881Y-115780717D01*
X178459881Y-115780717D02*
X178447976Y-115792622D01*
X178447976Y-115792622D02*
X178436072Y-115816431D01*
D10*
X188034819Y-111476666D02*
X188034819Y-112048094D01*
X188034819Y-111762380D02*
X187034819Y-111762380D01*
X187034819Y-111762380D02*
X187177676Y-111857618D01*
X187177676Y-111857618D02*
X187272914Y-111952856D01*
X187272914Y-111952856D02*
X187320533Y-112048094D01*
X187034819Y-110857618D02*
X187034819Y-110762380D01*
X187034819Y-110762380D02*
X187082438Y-110667142D01*
X187082438Y-110667142D02*
X187130057Y-110619523D01*
X187130057Y-110619523D02*
X187225295Y-110571904D01*
X187225295Y-110571904D02*
X187415771Y-110524285D01*
X187415771Y-110524285D02*
X187653866Y-110524285D01*
X187653866Y-110524285D02*
X187844342Y-110571904D01*
X187844342Y-110571904D02*
X187939580Y-110619523D01*
X187939580Y-110619523D02*
X187987200Y-110667142D01*
X187987200Y-110667142D02*
X188034819Y-110762380D01*
X188034819Y-110762380D02*
X188034819Y-110857618D01*
X188034819Y-110857618D02*
X187987200Y-110952856D01*
X187987200Y-110952856D02*
X187939580Y-111000475D01*
X187939580Y-111000475D02*
X187844342Y-111048094D01*
X187844342Y-111048094D02*
X187653866Y-111095713D01*
X187653866Y-111095713D02*
X187415771Y-111095713D01*
X187415771Y-111095713D02*
X187225295Y-111048094D01*
X187225295Y-111048094D02*
X187130057Y-111000475D01*
X187130057Y-111000475D02*
X187082438Y-110952856D01*
X187082438Y-110952856D02*
X187034819Y-110857618D01*
X187034819Y-109905237D02*
X187034819Y-109809999D01*
X187034819Y-109809999D02*
X187082438Y-109714761D01*
X187082438Y-109714761D02*
X187130057Y-109667142D01*
X187130057Y-109667142D02*
X187225295Y-109619523D01*
X187225295Y-109619523D02*
X187415771Y-109571904D01*
X187415771Y-109571904D02*
X187653866Y-109571904D01*
X187653866Y-109571904D02*
X187844342Y-109619523D01*
X187844342Y-109619523D02*
X187939580Y-109667142D01*
X187939580Y-109667142D02*
X187987200Y-109714761D01*
X187987200Y-109714761D02*
X188034819Y-109809999D01*
X188034819Y-109809999D02*
X188034819Y-109905237D01*
X188034819Y-109905237D02*
X187987200Y-110000475D01*
X187987200Y-110000475D02*
X187939580Y-110048094D01*
X187939580Y-110048094D02*
X187844342Y-110095713D01*
X187844342Y-110095713D02*
X187653866Y-110143332D01*
X187653866Y-110143332D02*
X187415771Y-110143332D01*
X187415771Y-110143332D02*
X187225295Y-110095713D01*
X187225295Y-110095713D02*
X187130057Y-110048094D01*
X187130057Y-110048094D02*
X187082438Y-110000475D01*
X187082438Y-110000475D02*
X187034819Y-109905237D01*
D11*
X185963574Y-110970714D02*
X185844527Y-111054047D01*
X185963574Y-111113571D02*
X185713574Y-111113571D01*
X185713574Y-111113571D02*
X185713574Y-111018333D01*
X185713574Y-111018333D02*
X185725479Y-110994523D01*
X185725479Y-110994523D02*
X185737384Y-110982618D01*
X185737384Y-110982618D02*
X185761193Y-110970714D01*
X185761193Y-110970714D02*
X185796908Y-110970714D01*
X185796908Y-110970714D02*
X185820717Y-110982618D01*
X185820717Y-110982618D02*
X185832622Y-110994523D01*
X185832622Y-110994523D02*
X185844527Y-111018333D01*
X185844527Y-111018333D02*
X185844527Y-111113571D01*
X185963574Y-110732618D02*
X185963574Y-110875475D01*
X185963574Y-110804047D02*
X185713574Y-110804047D01*
X185713574Y-110804047D02*
X185749289Y-110827856D01*
X185749289Y-110827856D02*
X185773098Y-110851666D01*
X185773098Y-110851666D02*
X185785003Y-110875475D01*
X185963574Y-110494523D02*
X185963574Y-110637380D01*
X185963574Y-110565952D02*
X185713574Y-110565952D01*
X185713574Y-110565952D02*
X185749289Y-110589761D01*
X185749289Y-110589761D02*
X185773098Y-110613571D01*
X185773098Y-110613571D02*
X185785003Y-110637380D01*
D10*
X178255952Y-116794819D02*
X177684524Y-116794819D01*
X177970238Y-116794819D02*
X177970238Y-115794819D01*
X177970238Y-115794819D02*
X177875000Y-115937676D01*
X177875000Y-115937676D02*
X177779762Y-116032914D01*
X177779762Y-116032914D02*
X177684524Y-116080533D01*
X178684524Y-116794819D02*
X178684524Y-115794819D01*
X178779762Y-116413866D02*
X179065476Y-116794819D01*
X179065476Y-116128152D02*
X178684524Y-116509104D01*
D11*
X178333333Y-114723574D02*
X178250000Y-114604527D01*
X178190476Y-114723574D02*
X178190476Y-114473574D01*
X178190476Y-114473574D02*
X178285714Y-114473574D01*
X178285714Y-114473574D02*
X178309524Y-114485479D01*
X178309524Y-114485479D02*
X178321429Y-114497384D01*
X178321429Y-114497384D02*
X178333333Y-114521193D01*
X178333333Y-114521193D02*
X178333333Y-114556908D01*
X178333333Y-114556908D02*
X178321429Y-114580717D01*
X178321429Y-114580717D02*
X178309524Y-114592622D01*
X178309524Y-114592622D02*
X178285714Y-114604527D01*
X178285714Y-114604527D02*
X178190476Y-114604527D01*
X178559524Y-114473574D02*
X178440476Y-114473574D01*
X178440476Y-114473574D02*
X178428572Y-114592622D01*
X178428572Y-114592622D02*
X178440476Y-114580717D01*
X178440476Y-114580717D02*
X178464286Y-114568812D01*
X178464286Y-114568812D02*
X178523810Y-114568812D01*
X178523810Y-114568812D02*
X178547619Y-114580717D01*
X178547619Y-114580717D02*
X178559524Y-114592622D01*
X178559524Y-114592622D02*
X178571429Y-114616431D01*
X178571429Y-114616431D02*
X178571429Y-114675955D01*
X178571429Y-114675955D02*
X178559524Y-114699765D01*
X178559524Y-114699765D02*
X178547619Y-114711670D01*
X178547619Y-114711670D02*
X178523810Y-114723574D01*
X178523810Y-114723574D02*
X178464286Y-114723574D01*
X178464286Y-114723574D02*
X178440476Y-114711670D01*
X178440476Y-114711670D02*
X178428572Y-114699765D01*
D10*
X180980833Y-116504819D02*
X180409405Y-116504819D01*
X180695119Y-116504819D02*
X180695119Y-115504819D01*
X180695119Y-115504819D02*
X180599881Y-115647676D01*
X180599881Y-115647676D02*
X180504643Y-115742914D01*
X180504643Y-115742914D02*
X180409405Y-115790533D01*
X181837976Y-115838152D02*
X181837976Y-116504819D01*
X181409405Y-115838152D02*
X181409405Y-116361961D01*
X181409405Y-116361961D02*
X181457024Y-116457200D01*
X181457024Y-116457200D02*
X181552262Y-116504819D01*
X181552262Y-116504819D02*
X181695119Y-116504819D01*
X181695119Y-116504819D02*
X181790357Y-116457200D01*
X181790357Y-116457200D02*
X181837976Y-116409580D01*
D11*
X180986785Y-114409765D02*
X180974881Y-114421670D01*
X180974881Y-114421670D02*
X180939166Y-114433574D01*
X180939166Y-114433574D02*
X180915357Y-114433574D01*
X180915357Y-114433574D02*
X180879643Y-114421670D01*
X180879643Y-114421670D02*
X180855833Y-114397860D01*
X180855833Y-114397860D02*
X180843928Y-114374050D01*
X180843928Y-114374050D02*
X180832024Y-114326431D01*
X180832024Y-114326431D02*
X180832024Y-114290717D01*
X180832024Y-114290717D02*
X180843928Y-114243098D01*
X180843928Y-114243098D02*
X180855833Y-114219289D01*
X180855833Y-114219289D02*
X180879643Y-114195479D01*
X180879643Y-114195479D02*
X180915357Y-114183574D01*
X180915357Y-114183574D02*
X180939166Y-114183574D01*
X180939166Y-114183574D02*
X180974881Y-114195479D01*
X180974881Y-114195479D02*
X180986785Y-114207384D01*
X181224881Y-114433574D02*
X181082024Y-114433574D01*
X181153452Y-114433574D02*
X181153452Y-114183574D01*
X181153452Y-114183574D02*
X181129643Y-114219289D01*
X181129643Y-114219289D02*
X181105833Y-114243098D01*
X181105833Y-114243098D02*
X181082024Y-114255003D01*
X181439166Y-114266908D02*
X181439166Y-114433574D01*
X181379642Y-114171670D02*
X181320119Y-114350241D01*
X181320119Y-114350241D02*
X181474880Y-114350241D01*
D10*
X178440180Y-92016747D02*
X177630657Y-92016747D01*
X177630657Y-92016747D02*
X177535419Y-92064366D01*
X177535419Y-92064366D02*
X177487800Y-92111985D01*
X177487800Y-92111985D02*
X177440180Y-92207223D01*
X177440180Y-92207223D02*
X177440180Y-92397699D01*
X177440180Y-92397699D02*
X177487800Y-92492937D01*
X177487800Y-92492937D02*
X177535419Y-92540556D01*
X177535419Y-92540556D02*
X177630657Y-92588175D01*
X177630657Y-92588175D02*
X178440180Y-92588175D01*
X178106847Y-93492937D02*
X177440180Y-93492937D01*
X178487800Y-93254842D02*
X177773514Y-93016747D01*
X177773514Y-93016747D02*
X177773514Y-93635794D01*
X179775519Y-91165751D02*
X180013614Y-91165751D01*
X179918376Y-91403846D02*
X180013614Y-91165751D01*
X180013614Y-91165751D02*
X179918376Y-90927656D01*
X180204090Y-91308608D02*
X180013614Y-91165751D01*
X180013614Y-91165751D02*
X180204090Y-91022894D01*
X180865880Y-91165752D02*
X180627785Y-91165752D01*
X180723023Y-90927657D02*
X180627785Y-91165752D01*
X180627785Y-91165752D02*
X180723023Y-91403847D01*
X180437309Y-91022895D02*
X180627785Y-91165752D01*
X180627785Y-91165752D02*
X180437309Y-91308609D01*
X178004819Y-98166666D02*
X178004819Y-98738094D01*
X178004819Y-98452380D02*
X177004819Y-98452380D01*
X177004819Y-98452380D02*
X177147676Y-98547618D01*
X177147676Y-98547618D02*
X177242914Y-98642856D01*
X177242914Y-98642856D02*
X177290533Y-98738094D01*
X177338152Y-97309523D02*
X178004819Y-97309523D01*
X177338152Y-97738094D02*
X177861961Y-97738094D01*
X177861961Y-97738094D02*
X177957200Y-97690475D01*
X177957200Y-97690475D02*
X178004819Y-97595237D01*
X178004819Y-97595237D02*
X178004819Y-97452380D01*
X178004819Y-97452380D02*
X177957200Y-97357142D01*
X177957200Y-97357142D02*
X177909580Y-97309523D01*
D11*
X179369765Y-98041666D02*
X179381670Y-98053570D01*
X179381670Y-98053570D02*
X179393574Y-98089285D01*
X179393574Y-98089285D02*
X179393574Y-98113094D01*
X179393574Y-98113094D02*
X179381670Y-98148808D01*
X179381670Y-98148808D02*
X179357860Y-98172618D01*
X179357860Y-98172618D02*
X179334050Y-98184523D01*
X179334050Y-98184523D02*
X179286431Y-98196427D01*
X179286431Y-98196427D02*
X179250717Y-98196427D01*
X179250717Y-98196427D02*
X179203098Y-98184523D01*
X179203098Y-98184523D02*
X179179289Y-98172618D01*
X179179289Y-98172618D02*
X179155479Y-98148808D01*
X179155479Y-98148808D02*
X179143574Y-98113094D01*
X179143574Y-98113094D02*
X179143574Y-98089285D01*
X179143574Y-98089285D02*
X179155479Y-98053570D01*
X179155479Y-98053570D02*
X179167384Y-98041666D01*
X179143574Y-97815475D02*
X179143574Y-97934523D01*
X179143574Y-97934523D02*
X179262622Y-97946427D01*
X179262622Y-97946427D02*
X179250717Y-97934523D01*
X179250717Y-97934523D02*
X179238812Y-97910713D01*
X179238812Y-97910713D02*
X179238812Y-97851189D01*
X179238812Y-97851189D02*
X179250717Y-97827380D01*
X179250717Y-97827380D02*
X179262622Y-97815475D01*
X179262622Y-97815475D02*
X179286431Y-97803570D01*
X179286431Y-97803570D02*
X179345955Y-97803570D01*
X179345955Y-97803570D02*
X179369765Y-97815475D01*
X179369765Y-97815475D02*
X179381670Y-97827380D01*
X179381670Y-97827380D02*
X179393574Y-97851189D01*
X179393574Y-97851189D02*
X179393574Y-97910713D01*
X179393574Y-97910713D02*
X179381670Y-97934523D01*
X179381670Y-97934523D02*
X179369765Y-97946427D01*
D10*
X195677142Y-123574819D02*
X195105714Y-123574819D01*
X195391428Y-123574819D02*
X195391428Y-122574819D01*
X195391428Y-122574819D02*
X195296190Y-122717676D01*
X195296190Y-122717676D02*
X195200952Y-122812914D01*
X195200952Y-122812914D02*
X195105714Y-122860533D01*
X196248571Y-123003390D02*
X196153333Y-122955771D01*
X196153333Y-122955771D02*
X196105714Y-122908152D01*
X196105714Y-122908152D02*
X196058095Y-122812914D01*
X196058095Y-122812914D02*
X196058095Y-122765295D01*
X196058095Y-122765295D02*
X196105714Y-122670057D01*
X196105714Y-122670057D02*
X196153333Y-122622438D01*
X196153333Y-122622438D02*
X196248571Y-122574819D01*
X196248571Y-122574819D02*
X196439047Y-122574819D01*
X196439047Y-122574819D02*
X196534285Y-122622438D01*
X196534285Y-122622438D02*
X196581904Y-122670057D01*
X196581904Y-122670057D02*
X196629523Y-122765295D01*
X196629523Y-122765295D02*
X196629523Y-122812914D01*
X196629523Y-122812914D02*
X196581904Y-122908152D01*
X196581904Y-122908152D02*
X196534285Y-122955771D01*
X196534285Y-122955771D02*
X196439047Y-123003390D01*
X196439047Y-123003390D02*
X196248571Y-123003390D01*
X196248571Y-123003390D02*
X196153333Y-123051009D01*
X196153333Y-123051009D02*
X196105714Y-123098628D01*
X196105714Y-123098628D02*
X196058095Y-123193866D01*
X196058095Y-123193866D02*
X196058095Y-123384342D01*
X196058095Y-123384342D02*
X196105714Y-123479580D01*
X196105714Y-123479580D02*
X196153333Y-123527200D01*
X196153333Y-123527200D02*
X196248571Y-123574819D01*
X196248571Y-123574819D02*
X196439047Y-123574819D01*
X196439047Y-123574819D02*
X196534285Y-123527200D01*
X196534285Y-123527200D02*
X196581904Y-123479580D01*
X196581904Y-123479580D02*
X196629523Y-123384342D01*
X196629523Y-123384342D02*
X196629523Y-123193866D01*
X196629523Y-123193866D02*
X196581904Y-123098628D01*
X196581904Y-123098628D02*
X196534285Y-123051009D01*
X196534285Y-123051009D02*
X196439047Y-123003390D01*
X197058095Y-122908152D02*
X197058095Y-123908152D01*
X197058095Y-122955771D02*
X197153333Y-122908152D01*
X197153333Y-122908152D02*
X197343809Y-122908152D01*
X197343809Y-122908152D02*
X197439047Y-122955771D01*
X197439047Y-122955771D02*
X197486666Y-123003390D01*
X197486666Y-123003390D02*
X197534285Y-123098628D01*
X197534285Y-123098628D02*
X197534285Y-123384342D01*
X197534285Y-123384342D02*
X197486666Y-123479580D01*
X197486666Y-123479580D02*
X197439047Y-123527200D01*
X197439047Y-123527200D02*
X197343809Y-123574819D01*
X197343809Y-123574819D02*
X197153333Y-123574819D01*
X197153333Y-123574819D02*
X197058095Y-123527200D01*
D11*
X196159285Y-124939765D02*
X196147381Y-124951670D01*
X196147381Y-124951670D02*
X196111666Y-124963574D01*
X196111666Y-124963574D02*
X196087857Y-124963574D01*
X196087857Y-124963574D02*
X196052143Y-124951670D01*
X196052143Y-124951670D02*
X196028333Y-124927860D01*
X196028333Y-124927860D02*
X196016428Y-124904050D01*
X196016428Y-124904050D02*
X196004524Y-124856431D01*
X196004524Y-124856431D02*
X196004524Y-124820717D01*
X196004524Y-124820717D02*
X196016428Y-124773098D01*
X196016428Y-124773098D02*
X196028333Y-124749289D01*
X196028333Y-124749289D02*
X196052143Y-124725479D01*
X196052143Y-124725479D02*
X196087857Y-124713574D01*
X196087857Y-124713574D02*
X196111666Y-124713574D01*
X196111666Y-124713574D02*
X196147381Y-124725479D01*
X196147381Y-124725479D02*
X196159285Y-124737384D01*
X196397381Y-124963574D02*
X196254524Y-124963574D01*
X196325952Y-124963574D02*
X196325952Y-124713574D01*
X196325952Y-124713574D02*
X196302143Y-124749289D01*
X196302143Y-124749289D02*
X196278333Y-124773098D01*
X196278333Y-124773098D02*
X196254524Y-124785003D01*
X196492619Y-124737384D02*
X196504523Y-124725479D01*
X196504523Y-124725479D02*
X196528333Y-124713574D01*
X196528333Y-124713574D02*
X196587857Y-124713574D01*
X196587857Y-124713574D02*
X196611666Y-124725479D01*
X196611666Y-124725479D02*
X196623571Y-124737384D01*
X196623571Y-124737384D02*
X196635476Y-124761193D01*
X196635476Y-124761193D02*
X196635476Y-124785003D01*
X196635476Y-124785003D02*
X196623571Y-124820717D01*
X196623571Y-124820717D02*
X196480714Y-124963574D01*
X196480714Y-124963574D02*
X196635476Y-124963574D01*
D10*
X186014819Y-111476666D02*
X186014819Y-112048094D01*
X186014819Y-111762380D02*
X185014819Y-111762380D01*
X185014819Y-111762380D02*
X185157676Y-111857618D01*
X185157676Y-111857618D02*
X185252914Y-111952856D01*
X185252914Y-111952856D02*
X185300533Y-112048094D01*
X185014819Y-110857618D02*
X185014819Y-110762380D01*
X185014819Y-110762380D02*
X185062438Y-110667142D01*
X185062438Y-110667142D02*
X185110057Y-110619523D01*
X185110057Y-110619523D02*
X185205295Y-110571904D01*
X185205295Y-110571904D02*
X185395771Y-110524285D01*
X185395771Y-110524285D02*
X185633866Y-110524285D01*
X185633866Y-110524285D02*
X185824342Y-110571904D01*
X185824342Y-110571904D02*
X185919580Y-110619523D01*
X185919580Y-110619523D02*
X185967200Y-110667142D01*
X185967200Y-110667142D02*
X186014819Y-110762380D01*
X186014819Y-110762380D02*
X186014819Y-110857618D01*
X186014819Y-110857618D02*
X185967200Y-110952856D01*
X185967200Y-110952856D02*
X185919580Y-111000475D01*
X185919580Y-111000475D02*
X185824342Y-111048094D01*
X185824342Y-111048094D02*
X185633866Y-111095713D01*
X185633866Y-111095713D02*
X185395771Y-111095713D01*
X185395771Y-111095713D02*
X185205295Y-111048094D01*
X185205295Y-111048094D02*
X185110057Y-111000475D01*
X185110057Y-111000475D02*
X185062438Y-110952856D01*
X185062438Y-110952856D02*
X185014819Y-110857618D01*
X185014819Y-109905237D02*
X185014819Y-109809999D01*
X185014819Y-109809999D02*
X185062438Y-109714761D01*
X185062438Y-109714761D02*
X185110057Y-109667142D01*
X185110057Y-109667142D02*
X185205295Y-109619523D01*
X185205295Y-109619523D02*
X185395771Y-109571904D01*
X185395771Y-109571904D02*
X185633866Y-109571904D01*
X185633866Y-109571904D02*
X185824342Y-109619523D01*
X185824342Y-109619523D02*
X185919580Y-109667142D01*
X185919580Y-109667142D02*
X185967200Y-109714761D01*
X185967200Y-109714761D02*
X186014819Y-109809999D01*
X186014819Y-109809999D02*
X186014819Y-109905237D01*
X186014819Y-109905237D02*
X185967200Y-110000475D01*
X185967200Y-110000475D02*
X185919580Y-110048094D01*
X185919580Y-110048094D02*
X185824342Y-110095713D01*
X185824342Y-110095713D02*
X185633866Y-110143332D01*
X185633866Y-110143332D02*
X185395771Y-110143332D01*
X185395771Y-110143332D02*
X185205295Y-110095713D01*
X185205295Y-110095713D02*
X185110057Y-110048094D01*
X185110057Y-110048094D02*
X185062438Y-110000475D01*
X185062438Y-110000475D02*
X185014819Y-109905237D01*
D11*
X183943574Y-110970714D02*
X183824527Y-111054047D01*
X183943574Y-111113571D02*
X183693574Y-111113571D01*
X183693574Y-111113571D02*
X183693574Y-111018333D01*
X183693574Y-111018333D02*
X183705479Y-110994523D01*
X183705479Y-110994523D02*
X183717384Y-110982618D01*
X183717384Y-110982618D02*
X183741193Y-110970714D01*
X183741193Y-110970714D02*
X183776908Y-110970714D01*
X183776908Y-110970714D02*
X183800717Y-110982618D01*
X183800717Y-110982618D02*
X183812622Y-110994523D01*
X183812622Y-110994523D02*
X183824527Y-111018333D01*
X183824527Y-111018333D02*
X183824527Y-111113571D01*
X183943574Y-110732618D02*
X183943574Y-110875475D01*
X183943574Y-110804047D02*
X183693574Y-110804047D01*
X183693574Y-110804047D02*
X183729289Y-110827856D01*
X183729289Y-110827856D02*
X183753098Y-110851666D01*
X183753098Y-110851666D02*
X183765003Y-110875475D01*
X183717384Y-110637380D02*
X183705479Y-110625476D01*
X183705479Y-110625476D02*
X183693574Y-110601666D01*
X183693574Y-110601666D02*
X183693574Y-110542142D01*
X183693574Y-110542142D02*
X183705479Y-110518333D01*
X183705479Y-110518333D02*
X183717384Y-110506428D01*
X183717384Y-110506428D02*
X183741193Y-110494523D01*
X183741193Y-110494523D02*
X183765003Y-110494523D01*
X183765003Y-110494523D02*
X183800717Y-110506428D01*
X183800717Y-110506428D02*
X183943574Y-110649285D01*
X183943574Y-110649285D02*
X183943574Y-110494523D01*
D10*
X187987000Y-117185919D02*
X187987000Y-117424014D01*
X187748905Y-117328776D02*
X187987000Y-117424014D01*
X187987000Y-117424014D02*
X188225095Y-117328776D01*
X187844143Y-117614490D02*
X187987000Y-117424014D01*
X187987000Y-117424014D02*
X188129857Y-117614490D01*
X187987000Y-117185919D02*
X187987000Y-117424014D01*
X187748905Y-117328776D02*
X187987000Y-117424014D01*
X187987000Y-117424014D02*
X188225095Y-117328776D01*
X187844143Y-117614490D02*
X187987000Y-117424014D01*
X187987000Y-117424014D02*
X188129857Y-117614490D01*
X191702996Y-125064519D02*
X191702996Y-125874042D01*
X191702996Y-125874042D02*
X191750615Y-125969280D01*
X191750615Y-125969280D02*
X191798234Y-126016900D01*
X191798234Y-126016900D02*
X191893472Y-126064519D01*
X191893472Y-126064519D02*
X192083948Y-126064519D01*
X192083948Y-126064519D02*
X192179186Y-126016900D01*
X192179186Y-126016900D02*
X192226805Y-125969280D01*
X192226805Y-125969280D02*
X192274424Y-125874042D01*
X192274424Y-125874042D02*
X192274424Y-125064519D01*
X193274424Y-126064519D02*
X192702996Y-126064519D01*
X192988710Y-126064519D02*
X192988710Y-125064519D01*
X192988710Y-125064519D02*
X192893472Y-125207376D01*
X192893472Y-125207376D02*
X192798234Y-125302614D01*
X192798234Y-125302614D02*
X192702996Y-125350233D01*
X198743333Y-124944819D02*
X198171905Y-124944819D01*
X198457619Y-124944819D02*
X198457619Y-123944819D01*
X198457619Y-123944819D02*
X198362381Y-124087676D01*
X198362381Y-124087676D02*
X198267143Y-124182914D01*
X198267143Y-124182914D02*
X198171905Y-124230533D01*
X199600476Y-124278152D02*
X199600476Y-124944819D01*
X199171905Y-124278152D02*
X199171905Y-124801961D01*
X199171905Y-124801961D02*
X199219524Y-124897200D01*
X199219524Y-124897200D02*
X199314762Y-124944819D01*
X199314762Y-124944819D02*
X199457619Y-124944819D01*
X199457619Y-124944819D02*
X199552857Y-124897200D01*
X199552857Y-124897200D02*
X199600476Y-124849580D01*
D11*
X198868333Y-126309765D02*
X198856429Y-126321670D01*
X198856429Y-126321670D02*
X198820714Y-126333574D01*
X198820714Y-126333574D02*
X198796905Y-126333574D01*
X198796905Y-126333574D02*
X198761191Y-126321670D01*
X198761191Y-126321670D02*
X198737381Y-126297860D01*
X198737381Y-126297860D02*
X198725476Y-126274050D01*
X198725476Y-126274050D02*
X198713572Y-126226431D01*
X198713572Y-126226431D02*
X198713572Y-126190717D01*
X198713572Y-126190717D02*
X198725476Y-126143098D01*
X198725476Y-126143098D02*
X198737381Y-126119289D01*
X198737381Y-126119289D02*
X198761191Y-126095479D01*
X198761191Y-126095479D02*
X198796905Y-126083574D01*
X198796905Y-126083574D02*
X198820714Y-126083574D01*
X198820714Y-126083574D02*
X198856429Y-126095479D01*
X198856429Y-126095479D02*
X198868333Y-126107384D01*
X198963572Y-126107384D02*
X198975476Y-126095479D01*
X198975476Y-126095479D02*
X198999286Y-126083574D01*
X198999286Y-126083574D02*
X199058810Y-126083574D01*
X199058810Y-126083574D02*
X199082619Y-126095479D01*
X199082619Y-126095479D02*
X199094524Y-126107384D01*
X199094524Y-126107384D02*
X199106429Y-126131193D01*
X199106429Y-126131193D02*
X199106429Y-126155003D01*
X199106429Y-126155003D02*
X199094524Y-126190717D01*
X199094524Y-126190717D02*
X198951667Y-126333574D01*
X198951667Y-126333574D02*
X199106429Y-126333574D01*
D10*
X178270952Y-122794819D02*
X177699524Y-122794819D01*
X177985238Y-122794819D02*
X177985238Y-121794819D01*
X177985238Y-121794819D02*
X177890000Y-121937676D01*
X177890000Y-121937676D02*
X177794762Y-122032914D01*
X177794762Y-122032914D02*
X177699524Y-122080533D01*
X178699524Y-122794819D02*
X178699524Y-121794819D01*
X178794762Y-122413866D02*
X179080476Y-122794819D01*
X179080476Y-122128152D02*
X178699524Y-122509104D01*
D11*
X178229285Y-120723574D02*
X178145952Y-120604527D01*
X178086428Y-120723574D02*
X178086428Y-120473574D01*
X178086428Y-120473574D02*
X178181666Y-120473574D01*
X178181666Y-120473574D02*
X178205476Y-120485479D01*
X178205476Y-120485479D02*
X178217381Y-120497384D01*
X178217381Y-120497384D02*
X178229285Y-120521193D01*
X178229285Y-120521193D02*
X178229285Y-120556908D01*
X178229285Y-120556908D02*
X178217381Y-120580717D01*
X178217381Y-120580717D02*
X178205476Y-120592622D01*
X178205476Y-120592622D02*
X178181666Y-120604527D01*
X178181666Y-120604527D02*
X178086428Y-120604527D01*
X178467381Y-120723574D02*
X178324524Y-120723574D01*
X178395952Y-120723574D02*
X178395952Y-120473574D01*
X178395952Y-120473574D02*
X178372143Y-120509289D01*
X178372143Y-120509289D02*
X178348333Y-120533098D01*
X178348333Y-120533098D02*
X178324524Y-120545003D01*
X178622142Y-120473574D02*
X178645952Y-120473574D01*
X178645952Y-120473574D02*
X178669761Y-120485479D01*
X178669761Y-120485479D02*
X178681666Y-120497384D01*
X178681666Y-120497384D02*
X178693571Y-120521193D01*
X178693571Y-120521193D02*
X178705476Y-120568812D01*
X178705476Y-120568812D02*
X178705476Y-120628336D01*
X178705476Y-120628336D02*
X178693571Y-120675955D01*
X178693571Y-120675955D02*
X178681666Y-120699765D01*
X178681666Y-120699765D02*
X178669761Y-120711670D01*
X178669761Y-120711670D02*
X178645952Y-120723574D01*
X178645952Y-120723574D02*
X178622142Y-120723574D01*
X178622142Y-120723574D02*
X178598333Y-120711670D01*
X178598333Y-120711670D02*
X178586428Y-120699765D01*
X178586428Y-120699765D02*
X178574523Y-120675955D01*
X178574523Y-120675955D02*
X178562619Y-120628336D01*
X178562619Y-120628336D02*
X178562619Y-120568812D01*
X178562619Y-120568812D02*
X178574523Y-120521193D01*
X178574523Y-120521193D02*
X178586428Y-120497384D01*
X178586428Y-120497384D02*
X178598333Y-120485479D01*
X178598333Y-120485479D02*
X178622142Y-120473574D01*
D10*
X177504819Y-98166666D02*
X177504819Y-98738094D01*
X177504819Y-98452380D02*
X176504819Y-98452380D01*
X176504819Y-98452380D02*
X176647676Y-98547618D01*
X176647676Y-98547618D02*
X176742914Y-98642856D01*
X176742914Y-98642856D02*
X176790533Y-98738094D01*
X176838152Y-97309523D02*
X177504819Y-97309523D01*
X176838152Y-97738094D02*
X177361961Y-97738094D01*
X177361961Y-97738094D02*
X177457200Y-97690475D01*
X177457200Y-97690475D02*
X177504819Y-97595237D01*
X177504819Y-97595237D02*
X177504819Y-97452380D01*
X177504819Y-97452380D02*
X177457200Y-97357142D01*
X177457200Y-97357142D02*
X177409580Y-97309523D01*
D11*
X175409765Y-98041666D02*
X175421670Y-98053570D01*
X175421670Y-98053570D02*
X175433574Y-98089285D01*
X175433574Y-98089285D02*
X175433574Y-98113094D01*
X175433574Y-98113094D02*
X175421670Y-98148808D01*
X175421670Y-98148808D02*
X175397860Y-98172618D01*
X175397860Y-98172618D02*
X175374050Y-98184523D01*
X175374050Y-98184523D02*
X175326431Y-98196427D01*
X175326431Y-98196427D02*
X175290717Y-98196427D01*
X175290717Y-98196427D02*
X175243098Y-98184523D01*
X175243098Y-98184523D02*
X175219289Y-98172618D01*
X175219289Y-98172618D02*
X175195479Y-98148808D01*
X175195479Y-98148808D02*
X175183574Y-98113094D01*
X175183574Y-98113094D02*
X175183574Y-98089285D01*
X175183574Y-98089285D02*
X175195479Y-98053570D01*
X175195479Y-98053570D02*
X175207384Y-98041666D01*
X175266908Y-97827380D02*
X175433574Y-97827380D01*
X175171670Y-97886904D02*
X175350241Y-97946427D01*
X175350241Y-97946427D02*
X175350241Y-97791666D01*
D10*
X181063333Y-123444819D02*
X180491905Y-123444819D01*
X180777619Y-123444819D02*
X180777619Y-122444819D01*
X180777619Y-122444819D02*
X180682381Y-122587676D01*
X180682381Y-122587676D02*
X180587143Y-122682914D01*
X180587143Y-122682914D02*
X180491905Y-122730533D01*
X181920476Y-122778152D02*
X181920476Y-123444819D01*
X181491905Y-122778152D02*
X181491905Y-123301961D01*
X181491905Y-123301961D02*
X181539524Y-123397200D01*
X181539524Y-123397200D02*
X181634762Y-123444819D01*
X181634762Y-123444819D02*
X181777619Y-123444819D01*
X181777619Y-123444819D02*
X181872857Y-123397200D01*
X181872857Y-123397200D02*
X181920476Y-123349580D01*
D11*
X181069285Y-121349765D02*
X181057381Y-121361670D01*
X181057381Y-121361670D02*
X181021666Y-121373574D01*
X181021666Y-121373574D02*
X180997857Y-121373574D01*
X180997857Y-121373574D02*
X180962143Y-121361670D01*
X180962143Y-121361670D02*
X180938333Y-121337860D01*
X180938333Y-121337860D02*
X180926428Y-121314050D01*
X180926428Y-121314050D02*
X180914524Y-121266431D01*
X180914524Y-121266431D02*
X180914524Y-121230717D01*
X180914524Y-121230717D02*
X180926428Y-121183098D01*
X180926428Y-121183098D02*
X180938333Y-121159289D01*
X180938333Y-121159289D02*
X180962143Y-121135479D01*
X180962143Y-121135479D02*
X180997857Y-121123574D01*
X180997857Y-121123574D02*
X181021666Y-121123574D01*
X181021666Y-121123574D02*
X181057381Y-121135479D01*
X181057381Y-121135479D02*
X181069285Y-121147384D01*
X181307381Y-121373574D02*
X181164524Y-121373574D01*
X181235952Y-121373574D02*
X181235952Y-121123574D01*
X181235952Y-121123574D02*
X181212143Y-121159289D01*
X181212143Y-121159289D02*
X181188333Y-121183098D01*
X181188333Y-121183098D02*
X181164524Y-121195003D01*
X181426428Y-121373574D02*
X181474047Y-121373574D01*
X181474047Y-121373574D02*
X181497857Y-121361670D01*
X181497857Y-121361670D02*
X181509761Y-121349765D01*
X181509761Y-121349765D02*
X181533571Y-121314050D01*
X181533571Y-121314050D02*
X181545476Y-121266431D01*
X181545476Y-121266431D02*
X181545476Y-121171193D01*
X181545476Y-121171193D02*
X181533571Y-121147384D01*
X181533571Y-121147384D02*
X181521666Y-121135479D01*
X181521666Y-121135479D02*
X181497857Y-121123574D01*
X181497857Y-121123574D02*
X181450238Y-121123574D01*
X181450238Y-121123574D02*
X181426428Y-121135479D01*
X181426428Y-121135479D02*
X181414523Y-121147384D01*
X181414523Y-121147384D02*
X181402619Y-121171193D01*
X181402619Y-121171193D02*
X181402619Y-121230717D01*
X181402619Y-121230717D02*
X181414523Y-121254527D01*
X181414523Y-121254527D02*
X181426428Y-121266431D01*
X181426428Y-121266431D02*
X181450238Y-121278336D01*
X181450238Y-121278336D02*
X181497857Y-121278336D01*
X181497857Y-121278336D02*
X181521666Y-121266431D01*
X181521666Y-121266431D02*
X181533571Y-121254527D01*
X181533571Y-121254527D02*
X181545476Y-121230717D01*
D10*
X180980833Y-117704819D02*
X180409405Y-117704819D01*
X180695119Y-117704819D02*
X180695119Y-116704819D01*
X180695119Y-116704819D02*
X180599881Y-116847676D01*
X180599881Y-116847676D02*
X180504643Y-116942914D01*
X180504643Y-116942914D02*
X180409405Y-116990533D01*
X181837976Y-117038152D02*
X181837976Y-117704819D01*
X181409405Y-117038152D02*
X181409405Y-117561961D01*
X181409405Y-117561961D02*
X181457024Y-117657200D01*
X181457024Y-117657200D02*
X181552262Y-117704819D01*
X181552262Y-117704819D02*
X181695119Y-117704819D01*
X181695119Y-117704819D02*
X181790357Y-117657200D01*
X181790357Y-117657200D02*
X181837976Y-117609580D01*
D11*
X180954285Y-115589765D02*
X180942381Y-115601670D01*
X180942381Y-115601670D02*
X180906666Y-115613574D01*
X180906666Y-115613574D02*
X180882857Y-115613574D01*
X180882857Y-115613574D02*
X180847143Y-115601670D01*
X180847143Y-115601670D02*
X180823333Y-115577860D01*
X180823333Y-115577860D02*
X180811428Y-115554050D01*
X180811428Y-115554050D02*
X180799524Y-115506431D01*
X180799524Y-115506431D02*
X180799524Y-115470717D01*
X180799524Y-115470717D02*
X180811428Y-115423098D01*
X180811428Y-115423098D02*
X180823333Y-115399289D01*
X180823333Y-115399289D02*
X180847143Y-115375479D01*
X180847143Y-115375479D02*
X180882857Y-115363574D01*
X180882857Y-115363574D02*
X180906666Y-115363574D01*
X180906666Y-115363574D02*
X180942381Y-115375479D01*
X180942381Y-115375479D02*
X180954285Y-115387384D01*
X181192381Y-115613574D02*
X181049524Y-115613574D01*
X181120952Y-115613574D02*
X181120952Y-115363574D01*
X181120952Y-115363574D02*
X181097143Y-115399289D01*
X181097143Y-115399289D02*
X181073333Y-115423098D01*
X181073333Y-115423098D02*
X181049524Y-115435003D01*
X181418571Y-115363574D02*
X181299523Y-115363574D01*
X181299523Y-115363574D02*
X181287619Y-115482622D01*
X181287619Y-115482622D02*
X181299523Y-115470717D01*
X181299523Y-115470717D02*
X181323333Y-115458812D01*
X181323333Y-115458812D02*
X181382857Y-115458812D01*
X181382857Y-115458812D02*
X181406666Y-115470717D01*
X181406666Y-115470717D02*
X181418571Y-115482622D01*
X181418571Y-115482622D02*
X181430476Y-115506431D01*
X181430476Y-115506431D02*
X181430476Y-115565955D01*
X181430476Y-115565955D02*
X181418571Y-115589765D01*
X181418571Y-115589765D02*
X181406666Y-115601670D01*
X181406666Y-115601670D02*
X181382857Y-115613574D01*
X181382857Y-115613574D02*
X181323333Y-115613574D01*
X181323333Y-115613574D02*
X181299523Y-115601670D01*
X181299523Y-115601670D02*
X181287619Y-115589765D01*
D12*
%TO.C,U6*%
X186981200Y-85851000D02*
X186981200Y-86359000D01*
X186981200Y-86359000D02*
X188098800Y-86359000D01*
X188098800Y-86359000D02*
X188098800Y-85851000D01*
X188098800Y-85851000D02*
X186981200Y-85851000D01*
X186981200Y-84581000D02*
X186981200Y-85089000D01*
X186981200Y-85089000D02*
X188098800Y-85089000D01*
X188098800Y-85089000D02*
X188098800Y-84581000D01*
X188098800Y-84581000D02*
X186981200Y-84581000D01*
X186981200Y-83311000D02*
X186981200Y-83819000D01*
X186981200Y-83819000D02*
X188098800Y-83819000D01*
X188098800Y-83819000D02*
X188098800Y-83311000D01*
X188098800Y-83311000D02*
X186981200Y-83311000D01*
X186981200Y-82041000D02*
X186981200Y-82549000D01*
X186981200Y-82549000D02*
X188098800Y-82549000D01*
X188098800Y-82549000D02*
X188098800Y-82041000D01*
X188098800Y-82041000D02*
X186981200Y-82041000D01*
X183018800Y-82549000D02*
X183018800Y-82041000D01*
X183018800Y-82041000D02*
X181901200Y-82041000D01*
X181901200Y-82041000D02*
X181901200Y-82549000D01*
X181901200Y-82549000D02*
X183018800Y-82549000D01*
X183018800Y-83819000D02*
X183018800Y-83311000D01*
X183018800Y-83311000D02*
X181901200Y-83311000D01*
X181901200Y-83311000D02*
X181901200Y-83819000D01*
X181901200Y-83819000D02*
X183018800Y-83819000D01*
X183018800Y-85089000D02*
X183018800Y-84581000D01*
X183018800Y-84581000D02*
X181901200Y-84581000D01*
X181901200Y-84581000D02*
X181901200Y-85089000D01*
X181901200Y-85089000D02*
X183018800Y-85089000D01*
X183018800Y-86359000D02*
X183018800Y-85851000D01*
X183018800Y-85851000D02*
X181901200Y-85851000D01*
X181901200Y-85851000D02*
X181901200Y-86359000D01*
X181901200Y-86359000D02*
X183018800Y-86359000D01*
X186981200Y-81685400D02*
X183018800Y-81685400D01*
X183018800Y-81685400D02*
X183018800Y-86714600D01*
X183018800Y-86714600D02*
X184695200Y-86714600D01*
X184695200Y-86714600D02*
X185304800Y-86714600D01*
X185304800Y-86714600D02*
X186981200Y-86714600D01*
X186981200Y-86714600D02*
X186981200Y-81685400D01*
X184695200Y-86714600D02*
G75*
G02*
X185304800Y-86714600I304800J0D01*
G01*
D13*
%TO.C,P1*%
X197565000Y-111110000D02*
X197565000Y-119010000D01*
X197565000Y-119010000D02*
X205165000Y-119010000D01*
X205165000Y-119010000D02*
X205165000Y-111110000D01*
X205165000Y-111110000D02*
X197565000Y-111110000D01*
D14*
%TO.C,U2*%
X200715200Y-124877800D02*
G75*
G02*
X201324800Y-124877800I304800J0D01*
G01*
X202417000Y-124634000D02*
X202417000Y-124126000D01*
X202417000Y-124126000D02*
X201820100Y-124126000D01*
X202417000Y-123684000D02*
X202417000Y-123176000D01*
X202417000Y-123176000D02*
X201820100Y-123176000D01*
X202417000Y-122734000D02*
X202417000Y-122226000D01*
X202417000Y-122226000D02*
X201820100Y-122226000D01*
X201820100Y-124877800D02*
X201820100Y-121982200D01*
X201820100Y-124634000D02*
X202417000Y-124634000D01*
X201820100Y-124126000D02*
X201820100Y-124634000D01*
X201820100Y-123684000D02*
X202417000Y-123684000D01*
X201820100Y-123176000D02*
X201820100Y-123684000D01*
X201820100Y-122734000D02*
X202417000Y-122734000D01*
X201820100Y-122226000D02*
X201820100Y-122734000D01*
X201820100Y-121982200D02*
X200219900Y-121982200D01*
X200219900Y-124877800D02*
X201820100Y-124877800D01*
X200219900Y-124634000D02*
X200219900Y-124126000D01*
X200219900Y-124126000D02*
X199623000Y-124126000D01*
X200219900Y-122734000D02*
X200219900Y-122226000D01*
X200219900Y-122226000D02*
X199623000Y-122226000D01*
X200219900Y-121982200D02*
X200219900Y-124877800D01*
X199623000Y-124634000D02*
X200219900Y-124634000D01*
X199623000Y-124126000D02*
X199623000Y-124634000D01*
X199623000Y-122734000D02*
X200219900Y-122734000D01*
X199623000Y-122226000D02*
X199623000Y-122734000D01*
D12*
%TO.C,R13*%
X182620000Y-111110000D02*
X182620000Y-110510000D01*
X182920000Y-111110000D02*
X182620000Y-111110000D01*
X182620000Y-110510000D02*
X182920000Y-110510000D01*
X182920000Y-110510000D02*
X182920000Y-111110000D01*
%TO.C,R8*%
X178090000Y-118740000D02*
X178690000Y-118740000D01*
X178090000Y-119040000D02*
X178090000Y-118740000D01*
X178690000Y-118740000D02*
X178690000Y-119040000D01*
X178690000Y-119040000D02*
X178090000Y-119040000D01*
%TO.C,R1*%
X177150000Y-97700000D02*
X177450000Y-97700000D01*
X177150000Y-98300000D02*
X177150000Y-97700000D01*
X177450000Y-97700000D02*
X177450000Y-98300000D01*
X177450000Y-98300000D02*
X177150000Y-98300000D01*
%TO.C,C9*%
X185087500Y-116140000D02*
X185687500Y-116140000D01*
X185087500Y-116440000D02*
X185087500Y-116140000D01*
X185687500Y-116140000D02*
X185687500Y-116440000D01*
X185687500Y-116440000D02*
X185087500Y-116440000D01*
%TO.C,C1*%
X203620000Y-121530000D02*
X203020000Y-121530000D01*
X203620000Y-121230000D02*
X203620000Y-121530000D01*
X203020000Y-121530000D02*
X203020000Y-121230000D01*
X203020000Y-121230000D02*
X203620000Y-121230000D01*
D13*
%TO.C,Y1*%
X182200000Y-134750000D02*
X182200000Y-130050000D01*
X193600000Y-130050000D02*
X182200000Y-130050000D01*
X193600000Y-134750000D02*
X182200000Y-134750000D01*
X193600000Y-134750000D02*
X193600000Y-130050000D01*
D12*
%TO.C,C7*%
X178700000Y-107450000D02*
X179300000Y-107450000D01*
X178700000Y-107750000D02*
X178700000Y-107450000D01*
X179300000Y-107450000D02*
X179300000Y-107750000D01*
X179300000Y-107750000D02*
X178700000Y-107750000D01*
%TO.C,C8*%
X185122500Y-114990000D02*
X185722500Y-114990000D01*
X185122500Y-115290000D02*
X185122500Y-114990000D01*
X185722500Y-114990000D02*
X185722500Y-115290000D01*
X185722500Y-115290000D02*
X185122500Y-115290000D01*
%TO.C,R16*%
X193410000Y-110600000D02*
X193410000Y-111200000D01*
X193110000Y-110600000D02*
X193410000Y-110600000D01*
X193410000Y-111200000D02*
X193110000Y-111200000D01*
X193110000Y-111200000D02*
X193110000Y-110600000D01*
%TO.C,C3*%
X178700000Y-88350000D02*
X179300000Y-88350000D01*
X178700000Y-88650000D02*
X178700000Y-88350000D01*
X179300000Y-88350000D02*
X179300000Y-88650000D01*
X179300000Y-88650000D02*
X178700000Y-88650000D01*
D14*
%TO.C,U3*%
X175393100Y-101284752D02*
X175393100Y-105272552D01*
X175393100Y-105272552D02*
X180396900Y-105272552D01*
X175736000Y-100179852D02*
X175736000Y-101284752D01*
X175736000Y-101284752D02*
X176244000Y-101284752D01*
X175736000Y-105272552D02*
X175736000Y-106377452D01*
X175736000Y-106377452D02*
X176244000Y-106377452D01*
X176244000Y-100179852D02*
X175736000Y-100179852D01*
X176244000Y-101284752D02*
X176244000Y-100179852D01*
X176244000Y-105272552D02*
X175736000Y-105272552D01*
X176244000Y-106377452D02*
X176244000Y-105272552D01*
X177006000Y-100179852D02*
X177006000Y-101284752D01*
X177006000Y-101284752D02*
X177514000Y-101284752D01*
X177006000Y-105272552D02*
X177006000Y-106377452D01*
X177006000Y-106377452D02*
X177514000Y-106377452D01*
X177514000Y-100179852D02*
X177006000Y-100179852D01*
X177514000Y-101284752D02*
X177514000Y-100179852D01*
X177514000Y-105272552D02*
X177006000Y-105272552D01*
X177514000Y-106377452D02*
X177514000Y-105272552D01*
X178276000Y-100179852D02*
X178276000Y-101284752D01*
X178276000Y-101284752D02*
X178784000Y-101284752D01*
X178276000Y-105272552D02*
X178276000Y-106377452D01*
X178276000Y-106377452D02*
X178784000Y-106377452D01*
X178784000Y-100179852D02*
X178276000Y-100179852D01*
X178784000Y-101284752D02*
X178784000Y-100179852D01*
X178784000Y-105272552D02*
X178276000Y-105272552D01*
X178784000Y-106377452D02*
X178784000Y-105272552D01*
X179546000Y-100179852D02*
X179546000Y-101284752D01*
X179546000Y-101284752D02*
X180054000Y-101284752D01*
X179546000Y-105272552D02*
X179546000Y-106377452D01*
X179546000Y-106377452D02*
X180054000Y-106377452D01*
X180054000Y-100179852D02*
X179546000Y-100179852D01*
X180054000Y-101284752D02*
X180054000Y-100179852D01*
X180054000Y-105272552D02*
X179546000Y-105272552D01*
X180054000Y-106377452D02*
X180054000Y-105272552D01*
X180396900Y-101284752D02*
X175393100Y-101284752D01*
X180396900Y-105272552D02*
X180396900Y-101284752D01*
X180396900Y-103583452D02*
G75*
G02*
X180396900Y-102973852I0J304800D01*
G01*
%TO.C,J1*%
X170304500Y-109176700D02*
X170304500Y-126423300D01*
X170304500Y-126423300D02*
X174495500Y-126423300D01*
X174495500Y-109176700D02*
X170304500Y-109176700D01*
X174495500Y-126423300D02*
X174495500Y-109176700D01*
D15*
X177590500Y-112175000D02*
G75*
G02*
X176828500Y-112175000I-381000J0D01*
G01*
X176828500Y-112175000D02*
G75*
G02*
X177590500Y-112175000I381000J0D01*
G01*
D12*
%TO.C,C23*%
X177500000Y-127750000D02*
X178100000Y-127750000D01*
X177500000Y-128050000D02*
X177500000Y-127750000D01*
X178100000Y-127750000D02*
X178100000Y-128050000D01*
X178100000Y-128050000D02*
X177500000Y-128050000D01*
%TO.C,C21*%
X180970000Y-124810000D02*
X181570000Y-124810000D01*
X180970000Y-125110000D02*
X180970000Y-124810000D01*
X181570000Y-124810000D02*
X181570000Y-125110000D01*
X181570000Y-125110000D02*
X180970000Y-125110000D01*
%TO.C,R7*%
X178090000Y-117540000D02*
X178690000Y-117540000D01*
X178090000Y-117840000D02*
X178090000Y-117540000D01*
X178690000Y-117540000D02*
X178690000Y-117840000D01*
X178690000Y-117840000D02*
X178090000Y-117840000D01*
%TO.C,R14*%
X189780000Y-111150000D02*
X189780000Y-110550000D01*
X190080000Y-111150000D02*
X189780000Y-111150000D01*
X189780000Y-110550000D02*
X190080000Y-110550000D01*
X190080000Y-110550000D02*
X190080000Y-111150000D01*
%TO.C,C10*%
X197132500Y-127220000D02*
X196532500Y-127220000D01*
X197132500Y-126920000D02*
X197132500Y-127220000D01*
X196532500Y-127220000D02*
X196532500Y-126920000D01*
X196532500Y-126920000D02*
X197132500Y-126920000D01*
%TO.C,C17*%
X180980000Y-118700000D02*
X181580000Y-118700000D01*
X180980000Y-119000000D02*
X180980000Y-118700000D01*
X181580000Y-118700000D02*
X181580000Y-119000000D01*
X181580000Y-119000000D02*
X180980000Y-119000000D01*
%TO.C,C11*%
X197142500Y-126260000D02*
X196542500Y-126260000D01*
X197142500Y-125960000D02*
X197142500Y-126260000D01*
X196542500Y-126260000D02*
X196542500Y-125960000D01*
X196542500Y-125960000D02*
X197142500Y-125960000D01*
%TO.C,R9*%
X178090000Y-119940000D02*
X178690000Y-119940000D01*
X178090000Y-120240000D02*
X178090000Y-119940000D01*
X178690000Y-119940000D02*
X178690000Y-120240000D01*
X178690000Y-120240000D02*
X178090000Y-120240000D01*
%TO.C,C20*%
X180950000Y-123200000D02*
X181550000Y-123200000D01*
X180950000Y-123500000D02*
X180950000Y-123200000D01*
X181550000Y-123200000D02*
X181550000Y-123500000D01*
X181550000Y-123500000D02*
X180950000Y-123500000D01*
D13*
%TO.C,U5*%
X184422500Y-106083700D02*
X184422500Y-92116300D01*
X186328800Y-90210000D02*
X203471200Y-90210000D01*
X203471200Y-107990000D02*
X186328800Y-107990000D01*
X205377500Y-92116300D02*
X205377500Y-94630000D01*
X205377500Y-94630000D02*
X207422500Y-94630000D01*
X205377500Y-103570000D02*
X205377500Y-106083700D01*
X207422500Y-94630000D02*
X207422500Y-103570000D01*
X207422500Y-103570000D02*
X205377500Y-103570000D01*
X184422500Y-92116300D02*
G75*
G02*
X186328800Y-90210000I1906299J1D01*
G01*
X186328800Y-107990000D02*
G75*
G02*
X184422500Y-106083700I0J1906300D01*
G01*
X203471200Y-90210000D02*
G75*
G02*
X205377500Y-92116300I1J-1906299D01*
G01*
X205377500Y-106083700D02*
G75*
G02*
X203471200Y-107990000I-1906300J0D01*
G01*
D16*
X202620000Y-88100000D02*
G75*
G02*
X202420000Y-88100000I-100000J0D01*
G01*
X202420000Y-88100000D02*
G75*
G02*
X202620000Y-88100000I100000J0D01*
G01*
D12*
%TO.C,R2*%
X188060000Y-111130000D02*
X188060000Y-110530000D01*
X188360000Y-111130000D02*
X188060000Y-111130000D01*
X188060000Y-110530000D02*
X188360000Y-110530000D01*
X188360000Y-110530000D02*
X188360000Y-111130000D01*
%TO.C,R15*%
X191850000Y-110570000D02*
X191850000Y-111170000D01*
X191550000Y-110570000D02*
X191850000Y-110570000D01*
X191850000Y-111170000D02*
X191550000Y-111170000D01*
X191550000Y-111170000D02*
X191550000Y-110570000D01*
%TO.C,C6*%
X185040000Y-119790000D02*
X185340000Y-119790000D01*
X185040000Y-120390000D02*
X185040000Y-119790000D01*
X185340000Y-119790000D02*
X185340000Y-120390000D01*
X185340000Y-120390000D02*
X185040000Y-120390000D01*
%TO.C,C22*%
X189350000Y-84100000D02*
X189650000Y-84100000D01*
X189350000Y-84700000D02*
X189350000Y-84100000D01*
X189650000Y-84100000D02*
X189650000Y-84700000D01*
X189650000Y-84700000D02*
X189350000Y-84700000D01*
%TO.C,R3*%
X178075000Y-112740000D02*
X178675000Y-112740000D01*
X178075000Y-113040000D02*
X178075000Y-112740000D01*
X178675000Y-112740000D02*
X178675000Y-113040000D01*
X178675000Y-113040000D02*
X178075000Y-113040000D01*
%TO.C,C16*%
X180860000Y-117410000D02*
X181460000Y-117410000D01*
X180860000Y-117710000D02*
X180860000Y-117410000D01*
X181460000Y-117410000D02*
X181460000Y-117710000D01*
X181460000Y-117710000D02*
X180860000Y-117710000D01*
%TO.C,C13*%
X196600000Y-125160000D02*
X196000000Y-125160000D01*
X196600000Y-124860000D02*
X196600000Y-125160000D01*
X196000000Y-125160000D02*
X196000000Y-124860000D01*
X196000000Y-124860000D02*
X196600000Y-124860000D01*
%TO.C,R4*%
X178075000Y-113940000D02*
X178675000Y-113940000D01*
X178075000Y-114240000D02*
X178075000Y-113940000D01*
X178675000Y-113940000D02*
X178675000Y-114240000D01*
X178675000Y-114240000D02*
X178075000Y-114240000D01*
%TO.C,C18*%
X181480000Y-120550000D02*
X180880000Y-120550000D01*
X181480000Y-120250000D02*
X181480000Y-120550000D01*
X180880000Y-120550000D02*
X180880000Y-120250000D01*
X180880000Y-120250000D02*
X181480000Y-120250000D01*
%TO.C,R6*%
X178082500Y-116340000D02*
X178682500Y-116340000D01*
X178082500Y-116640000D02*
X178082500Y-116340000D01*
X178682500Y-116340000D02*
X178682500Y-116640000D01*
X178682500Y-116640000D02*
X178082500Y-116640000D01*
%TO.C,R11*%
X186380000Y-111110000D02*
X186380000Y-110510000D01*
X186680000Y-111110000D02*
X186380000Y-111110000D01*
X186380000Y-110510000D02*
X186680000Y-110510000D01*
X186680000Y-110510000D02*
X186680000Y-111110000D01*
%TO.C,R5*%
X178075000Y-115140000D02*
X178675000Y-115140000D01*
X178075000Y-115440000D02*
X178075000Y-115140000D01*
X178675000Y-115140000D02*
X178675000Y-115440000D01*
X178675000Y-115440000D02*
X178075000Y-115440000D01*
%TO.C,C14*%
X181447500Y-115150000D02*
X180847500Y-115150000D01*
X181447500Y-114850000D02*
X181447500Y-115150000D01*
X180847500Y-115150000D02*
X180847500Y-114850000D01*
X180847500Y-114850000D02*
X181447500Y-114850000D01*
D14*
%TO.C,U4*%
X175393100Y-90784752D02*
X175393100Y-94772552D01*
X175393100Y-94772552D02*
X180396900Y-94772552D01*
X175736000Y-89679852D02*
X175736000Y-90784752D01*
X175736000Y-90784752D02*
X176244000Y-90784752D01*
X175736000Y-94772552D02*
X175736000Y-95877452D01*
X175736000Y-95877452D02*
X176244000Y-95877452D01*
X176244000Y-89679852D02*
X175736000Y-89679852D01*
X176244000Y-90784752D02*
X176244000Y-89679852D01*
X176244000Y-94772552D02*
X175736000Y-94772552D01*
X176244000Y-95877452D02*
X176244000Y-94772552D01*
X177006000Y-89679852D02*
X177006000Y-90784752D01*
X177006000Y-90784752D02*
X177514000Y-90784752D01*
X177006000Y-94772552D02*
X177006000Y-95877452D01*
X177006000Y-95877452D02*
X177514000Y-95877452D01*
X177514000Y-89679852D02*
X177006000Y-89679852D01*
X177514000Y-90784752D02*
X177514000Y-89679852D01*
X177514000Y-94772552D02*
X177006000Y-94772552D01*
X177514000Y-95877452D02*
X177514000Y-94772552D01*
X178276000Y-89679852D02*
X178276000Y-90784752D01*
X178276000Y-90784752D02*
X178784000Y-90784752D01*
X178276000Y-94772552D02*
X178276000Y-95877452D01*
X178276000Y-95877452D02*
X178784000Y-95877452D01*
X178784000Y-89679852D02*
X178276000Y-89679852D01*
X178784000Y-90784752D02*
X178784000Y-89679852D01*
X178784000Y-94772552D02*
X178276000Y-94772552D01*
X178784000Y-95877452D02*
X178784000Y-94772552D01*
X179546000Y-89679852D02*
X179546000Y-90784752D01*
X179546000Y-90784752D02*
X180054000Y-90784752D01*
X179546000Y-94772552D02*
X179546000Y-95877452D01*
X179546000Y-95877452D02*
X180054000Y-95877452D01*
X180054000Y-89679852D02*
X179546000Y-89679852D01*
X180054000Y-90784752D02*
X180054000Y-89679852D01*
X180054000Y-94772552D02*
X179546000Y-94772552D01*
X180054000Y-95877452D02*
X180054000Y-94772552D01*
X180396900Y-90784752D02*
X175393100Y-90784752D01*
X180396900Y-94772552D02*
X180396900Y-90784752D01*
X180396900Y-93083452D02*
G75*
G02*
X180396900Y-92473852I0J304800D01*
G01*
D12*
%TO.C,C5*%
X178450000Y-97700000D02*
X178750000Y-97700000D01*
X178450000Y-98300000D02*
X178450000Y-97700000D01*
X178750000Y-97700000D02*
X178750000Y-98300000D01*
X178750000Y-98300000D02*
X178450000Y-98300000D01*
%TO.C,C12*%
X196620000Y-124320000D02*
X196020000Y-124320000D01*
X196620000Y-124020000D02*
X196620000Y-124320000D01*
X196020000Y-124320000D02*
X196020000Y-124020000D01*
X196020000Y-124020000D02*
X196620000Y-124020000D01*
%TO.C,R12*%
X184360000Y-111110000D02*
X184360000Y-110510000D01*
X184660000Y-111110000D02*
X184360000Y-111110000D01*
X184360000Y-110510000D02*
X184660000Y-110510000D01*
X184660000Y-110510000D02*
X184660000Y-111110000D01*
D14*
%TO.C,U1*%
X186297900Y-118484500D02*
X186297900Y-118865500D01*
X186297900Y-118865500D02*
X187606000Y-118865500D01*
X186297900Y-119134500D02*
X186297900Y-119515500D01*
X186297900Y-119515500D02*
X187606000Y-119515500D01*
X186297900Y-119784500D02*
X186297900Y-120165500D01*
X186297900Y-120165500D02*
X187606000Y-120165500D01*
X186297900Y-120434500D02*
X186297900Y-120815500D01*
X186297900Y-120815500D02*
X187606000Y-120815500D01*
X186297900Y-121084499D02*
X186297900Y-121465499D01*
X186297900Y-121465499D02*
X187606000Y-121465499D01*
X186297900Y-121734499D02*
X186297900Y-122115499D01*
X186297900Y-122115499D02*
X187606000Y-122115499D01*
X186297900Y-122384499D02*
X186297900Y-122765499D01*
X186297900Y-122765499D02*
X187606000Y-122765499D01*
X186297900Y-123034499D02*
X186297900Y-123415499D01*
X186297900Y-123415499D02*
X187606000Y-123415499D01*
X186297900Y-123684499D02*
X186297900Y-124065499D01*
X186297900Y-124065499D02*
X187606000Y-124065499D01*
X186297900Y-124334499D02*
X186297900Y-124715499D01*
X186297900Y-124715499D02*
X187606000Y-124715499D01*
X186297900Y-124984499D02*
X186297900Y-125365499D01*
X186297900Y-125365499D02*
X187606000Y-125365499D01*
X186297900Y-125634499D02*
X186297900Y-126015499D01*
X186297900Y-126015499D02*
X187606000Y-126015499D01*
X186297900Y-126284499D02*
X186297900Y-126665499D01*
X186297900Y-126665499D02*
X187606000Y-126665499D01*
X186297900Y-126934499D02*
X186297900Y-127315499D01*
X186297900Y-127315499D02*
X187606000Y-127315499D01*
X187606000Y-117654900D02*
X187606000Y-128145100D01*
X187606000Y-118484500D02*
X186297900Y-118484500D01*
X187606000Y-118865500D02*
X187606000Y-118484500D01*
X187606000Y-119134500D02*
X186297900Y-119134500D01*
X187606000Y-119515500D02*
X187606000Y-119134500D01*
X187606000Y-119784500D02*
X186297900Y-119784500D01*
X187606000Y-120165500D02*
X187606000Y-119784500D01*
X187606000Y-120434500D02*
X186297900Y-120434500D01*
X187606000Y-120815500D02*
X187606000Y-120434500D01*
X187606000Y-121084499D02*
X186297900Y-121084499D01*
X187606000Y-121465499D02*
X187606000Y-121084499D01*
X187606000Y-121734499D02*
X186297900Y-121734499D01*
X187606000Y-122115499D02*
X187606000Y-121734499D01*
X187606000Y-122384499D02*
X186297900Y-122384499D01*
X187606000Y-122765499D02*
X187606000Y-122384499D01*
X187606000Y-123034499D02*
X186297900Y-123034499D01*
X187606000Y-123415499D02*
X187606000Y-123034499D01*
X187606000Y-123684499D02*
X186297900Y-123684499D01*
X187606000Y-124065499D02*
X187606000Y-123684499D01*
X187606000Y-124334499D02*
X186297900Y-124334499D01*
X187606000Y-124715499D02*
X187606000Y-124334499D01*
X187606000Y-124984499D02*
X186297900Y-124984499D01*
X187606000Y-125365499D02*
X187606000Y-124984499D01*
X187606000Y-125634499D02*
X186297900Y-125634499D01*
X187606000Y-126015499D02*
X187606000Y-125634499D01*
X187606000Y-126284499D02*
X186297900Y-126284499D01*
X187606000Y-126665499D02*
X187606000Y-126284499D01*
X187606000Y-126934499D02*
X186297900Y-126934499D01*
X187606000Y-127315499D02*
X187606000Y-126934499D01*
X187606000Y-128145100D02*
X193194000Y-128145100D01*
X193194000Y-117654900D02*
X187606000Y-117654900D01*
X193194000Y-118484501D02*
X193194000Y-118865501D01*
X193194000Y-118865501D02*
X194502100Y-118865501D01*
X193194000Y-119134501D02*
X193194000Y-119515501D01*
X193194000Y-119515501D02*
X194502100Y-119515501D01*
X193194000Y-119784501D02*
X193194000Y-120165501D01*
X193194000Y-120165501D02*
X194502100Y-120165501D01*
X193194000Y-120434501D02*
X193194000Y-120815501D01*
X193194000Y-120815501D02*
X194502100Y-120815501D01*
X193194000Y-121084501D02*
X193194000Y-121465501D01*
X193194000Y-121465501D02*
X194502100Y-121465501D01*
X193194000Y-121734501D02*
X193194000Y-122115501D01*
X193194000Y-122115501D02*
X194502100Y-122115501D01*
X193194000Y-122384501D02*
X193194000Y-122765501D01*
X193194000Y-122765501D02*
X194502100Y-122765501D01*
X193194000Y-123034501D02*
X193194000Y-123415501D01*
X193194000Y-123415501D02*
X194502100Y-123415501D01*
X193194000Y-123684500D02*
X193194000Y-124065500D01*
X193194000Y-124065500D02*
X194502100Y-124065500D01*
X193194000Y-124334500D02*
X193194000Y-124715500D01*
X193194000Y-124715500D02*
X194502100Y-124715500D01*
X193194000Y-124984500D02*
X193194000Y-125365500D01*
X193194000Y-125365500D02*
X194502100Y-125365500D01*
X193194000Y-125634500D02*
X193194000Y-126015500D01*
X193194000Y-126015500D02*
X194502100Y-126015500D01*
X193194000Y-126284500D02*
X193194000Y-126665500D01*
X193194000Y-126665500D02*
X194502100Y-126665500D01*
X193194000Y-126934500D02*
X193194000Y-127315500D01*
X193194000Y-127315500D02*
X194502100Y-127315500D01*
X193194000Y-128145100D02*
X193194000Y-117654900D01*
X194502100Y-118484501D02*
X193194000Y-118484501D01*
X194502100Y-118865501D02*
X194502100Y-118484501D01*
X194502100Y-119134501D02*
X193194000Y-119134501D01*
X194502100Y-119515501D02*
X194502100Y-119134501D01*
X194502100Y-119784501D02*
X193194000Y-119784501D01*
X194502100Y-120165501D02*
X194502100Y-119784501D01*
X194502100Y-120434501D02*
X193194000Y-120434501D01*
X194502100Y-120815501D02*
X194502100Y-120434501D01*
X194502100Y-121084501D02*
X193194000Y-121084501D01*
X194502100Y-121465501D02*
X194502100Y-121084501D01*
X194502100Y-121734501D02*
X193194000Y-121734501D01*
X194502100Y-122115501D02*
X194502100Y-121734501D01*
X194502100Y-122384501D02*
X193194000Y-122384501D01*
X194502100Y-122765501D02*
X194502100Y-122384501D01*
X194502100Y-123034501D02*
X193194000Y-123034501D01*
X194502100Y-123415501D02*
X194502100Y-123034501D01*
X194502100Y-123684500D02*
X193194000Y-123684500D01*
X194502100Y-124065500D02*
X194502100Y-123684500D01*
X194502100Y-124334500D02*
X193194000Y-124334500D01*
X194502100Y-124715500D02*
X194502100Y-124334500D01*
X194502100Y-124984500D02*
X193194000Y-124984500D01*
X194502100Y-125365500D02*
X194502100Y-124984500D01*
X194502100Y-125634500D02*
X193194000Y-125634500D01*
X194502100Y-126015500D02*
X194502100Y-125634500D01*
X194502100Y-126284500D02*
X193194000Y-126284500D01*
X194502100Y-126665500D02*
X194502100Y-126284500D01*
X194502100Y-126934500D02*
X193194000Y-126934500D01*
X194502100Y-127315500D02*
X194502100Y-126934500D01*
X190704800Y-117654900D02*
G75*
G02*
X190095200Y-117654900I-304800J0D01*
G01*
D12*
%TO.C,C2*%
X199210000Y-125690000D02*
X198610000Y-125690000D01*
X199210000Y-125390000D02*
X199210000Y-125690000D01*
X198610000Y-125690000D02*
X198610000Y-125390000D01*
X198610000Y-125390000D02*
X199210000Y-125390000D01*
%TO.C,R10*%
X178090000Y-121140000D02*
X178690000Y-121140000D01*
X178090000Y-121440000D02*
X178090000Y-121140000D01*
X178690000Y-121140000D02*
X178690000Y-121440000D01*
X178690000Y-121440000D02*
X178090000Y-121440000D01*
%TO.C,C4*%
X175850000Y-97700000D02*
X176150000Y-97700000D01*
X175850000Y-98300000D02*
X175850000Y-97700000D01*
X176150000Y-97700000D02*
X176150000Y-98300000D01*
X176150000Y-98300000D02*
X175850000Y-98300000D01*
%TO.C,C19*%
X181530000Y-122090000D02*
X180930000Y-122090000D01*
X181530000Y-121790000D02*
X181530000Y-122090000D01*
X180930000Y-122090000D02*
X180930000Y-121790000D01*
X180930000Y-121790000D02*
X181530000Y-121790000D01*
%TO.C,C15*%
X180847500Y-116050000D02*
X181447500Y-116050000D01*
X180847500Y-116350000D02*
X180847500Y-116050000D01*
X181447500Y-116050000D02*
X181447500Y-116350000D01*
X181447500Y-116350000D02*
X180847500Y-116350000D01*
%TD*%
M02*
