%TF.GenerationSoftware,KiCad,Pcbnew,8.0.8*%
%TF.CreationDate,2025-04-15T16:19:57+05:30*%
%TF.ProjectId,STHDAQ_BX,53544844-4151-45f4-9258-2e6b69636164,rev?*%
%TF.SameCoordinates,Original*%
%TF.FileFunction,Legend,Top*%
%TF.FilePolarity,Positive*%
%FSLAX46Y46*%
G04 Gerber Fmt 4.6, Leading zero omitted, Abs format (unit mm)*
G04 Created by KiCad (PCBNEW 8.0.8) date 2025-04-15 16:19:57*
%MOMM*%
%LPD*%
G01*
G04 APERTURE LIST*
%ADD10C,0.125000*%
%ADD11C,0.150000*%
%ADD12C,0.152400*%
%ADD13C,0.120000*%
%ADD14C,0.127000*%
%ADD15C,0.508000*%
%ADD16C,0.200000*%
%ADD17C,0.000000*%
G04 APERTURE END LIST*
D10*
X175238809Y-90804952D02*
X175643571Y-90804952D01*
X175643571Y-90804952D02*
X175691190Y-90781142D01*
X175691190Y-90781142D02*
X175715000Y-90757333D01*
X175715000Y-90757333D02*
X175738809Y-90709714D01*
X175738809Y-90709714D02*
X175738809Y-90614476D01*
X175738809Y-90614476D02*
X175715000Y-90566857D01*
X175715000Y-90566857D02*
X175691190Y-90543047D01*
X175691190Y-90543047D02*
X175643571Y-90519238D01*
X175643571Y-90519238D02*
X175238809Y-90519238D01*
X175286428Y-90304951D02*
X175262619Y-90281142D01*
X175262619Y-90281142D02*
X175238809Y-90233523D01*
X175238809Y-90233523D02*
X175238809Y-90114475D01*
X175238809Y-90114475D02*
X175262619Y-90066856D01*
X175262619Y-90066856D02*
X175286428Y-90043047D01*
X175286428Y-90043047D02*
X175334047Y-90019237D01*
X175334047Y-90019237D02*
X175381666Y-90019237D01*
X175381666Y-90019237D02*
X175453095Y-90043047D01*
X175453095Y-90043047D02*
X175738809Y-90328761D01*
X175738809Y-90328761D02*
X175738809Y-90019237D01*
D11*
X180539580Y-102142357D02*
X180587200Y-102189976D01*
X180587200Y-102189976D02*
X180634819Y-102332833D01*
X180634819Y-102332833D02*
X180634819Y-102428071D01*
X180634819Y-102428071D02*
X180587200Y-102570928D01*
X180587200Y-102570928D02*
X180491961Y-102666166D01*
X180491961Y-102666166D02*
X180396723Y-102713785D01*
X180396723Y-102713785D02*
X180206247Y-102761404D01*
X180206247Y-102761404D02*
X180063390Y-102761404D01*
X180063390Y-102761404D02*
X179872914Y-102713785D01*
X179872914Y-102713785D02*
X179777676Y-102666166D01*
X179777676Y-102666166D02*
X179682438Y-102570928D01*
X179682438Y-102570928D02*
X179634819Y-102428071D01*
X179634819Y-102428071D02*
X179634819Y-102332833D01*
X179634819Y-102332833D02*
X179682438Y-102189976D01*
X179682438Y-102189976D02*
X179730057Y-102142357D01*
X180634819Y-101189976D02*
X180634819Y-101761404D01*
X180634819Y-101475690D02*
X179634819Y-101475690D01*
X179634819Y-101475690D02*
X179777676Y-101570928D01*
X179777676Y-101570928D02*
X179872914Y-101666166D01*
X179872914Y-101666166D02*
X179920533Y-101761404D01*
X179634819Y-100285214D02*
X179634819Y-100761404D01*
X179634819Y-100761404D02*
X180111009Y-100809023D01*
X180111009Y-100809023D02*
X180063390Y-100761404D01*
X180063390Y-100761404D02*
X180015771Y-100666166D01*
X180015771Y-100666166D02*
X180015771Y-100428071D01*
X180015771Y-100428071D02*
X180063390Y-100332833D01*
X180063390Y-100332833D02*
X180111009Y-100285214D01*
X180111009Y-100285214D02*
X180206247Y-100237595D01*
X180206247Y-100237595D02*
X180444342Y-100237595D01*
X180444342Y-100237595D02*
X180539580Y-100285214D01*
X180539580Y-100285214D02*
X180587200Y-100332833D01*
X180587200Y-100332833D02*
X180634819Y-100428071D01*
X180634819Y-100428071D02*
X180634819Y-100666166D01*
X180634819Y-100666166D02*
X180587200Y-100761404D01*
X180587200Y-100761404D02*
X180539580Y-100809023D01*
D10*
X177732571Y-92680809D02*
X177565905Y-92442714D01*
X177446857Y-92680809D02*
X177446857Y-92180809D01*
X177446857Y-92180809D02*
X177637333Y-92180809D01*
X177637333Y-92180809D02*
X177684952Y-92204619D01*
X177684952Y-92204619D02*
X177708762Y-92228428D01*
X177708762Y-92228428D02*
X177732571Y-92276047D01*
X177732571Y-92276047D02*
X177732571Y-92347476D01*
X177732571Y-92347476D02*
X177708762Y-92395095D01*
X177708762Y-92395095D02*
X177684952Y-92418904D01*
X177684952Y-92418904D02*
X177637333Y-92442714D01*
X177637333Y-92442714D02*
X177446857Y-92442714D01*
X178208762Y-92680809D02*
X177923048Y-92680809D01*
X178065905Y-92680809D02*
X178065905Y-92180809D01*
X178065905Y-92180809D02*
X178018286Y-92252238D01*
X178018286Y-92252238D02*
X177970667Y-92299857D01*
X177970667Y-92299857D02*
X177923048Y-92323666D01*
X178375428Y-92180809D02*
X178684952Y-92180809D01*
X178684952Y-92180809D02*
X178518285Y-92371285D01*
X178518285Y-92371285D02*
X178589714Y-92371285D01*
X178589714Y-92371285D02*
X178637333Y-92395095D01*
X178637333Y-92395095D02*
X178661142Y-92418904D01*
X178661142Y-92418904D02*
X178684952Y-92466523D01*
X178684952Y-92466523D02*
X178684952Y-92585571D01*
X178684952Y-92585571D02*
X178661142Y-92633190D01*
X178661142Y-92633190D02*
X178637333Y-92657000D01*
X178637333Y-92657000D02*
X178589714Y-92680809D01*
X178589714Y-92680809D02*
X178446857Y-92680809D01*
X178446857Y-92680809D02*
X178399238Y-92657000D01*
X178399238Y-92657000D02*
X178375428Y-92633190D01*
X177462666Y-111476809D02*
X177296000Y-111238714D01*
X177176952Y-111476809D02*
X177176952Y-110976809D01*
X177176952Y-110976809D02*
X177367428Y-110976809D01*
X177367428Y-110976809D02*
X177415047Y-111000619D01*
X177415047Y-111000619D02*
X177438857Y-111024428D01*
X177438857Y-111024428D02*
X177462666Y-111072047D01*
X177462666Y-111072047D02*
X177462666Y-111143476D01*
X177462666Y-111143476D02*
X177438857Y-111191095D01*
X177438857Y-111191095D02*
X177415047Y-111214904D01*
X177415047Y-111214904D02*
X177367428Y-111238714D01*
X177367428Y-111238714D02*
X177176952Y-111238714D01*
X177748381Y-111191095D02*
X177700762Y-111167285D01*
X177700762Y-111167285D02*
X177676952Y-111143476D01*
X177676952Y-111143476D02*
X177653143Y-111095857D01*
X177653143Y-111095857D02*
X177653143Y-111072047D01*
X177653143Y-111072047D02*
X177676952Y-111024428D01*
X177676952Y-111024428D02*
X177700762Y-111000619D01*
X177700762Y-111000619D02*
X177748381Y-110976809D01*
X177748381Y-110976809D02*
X177843619Y-110976809D01*
X177843619Y-110976809D02*
X177891238Y-111000619D01*
X177891238Y-111000619D02*
X177915047Y-111024428D01*
X177915047Y-111024428D02*
X177938857Y-111072047D01*
X177938857Y-111072047D02*
X177938857Y-111095857D01*
X177938857Y-111095857D02*
X177915047Y-111143476D01*
X177915047Y-111143476D02*
X177891238Y-111167285D01*
X177891238Y-111167285D02*
X177843619Y-111191095D01*
X177843619Y-111191095D02*
X177748381Y-111191095D01*
X177748381Y-111191095D02*
X177700762Y-111214904D01*
X177700762Y-111214904D02*
X177676952Y-111238714D01*
X177676952Y-111238714D02*
X177653143Y-111286333D01*
X177653143Y-111286333D02*
X177653143Y-111381571D01*
X177653143Y-111381571D02*
X177676952Y-111429190D01*
X177676952Y-111429190D02*
X177700762Y-111453000D01*
X177700762Y-111453000D02*
X177748381Y-111476809D01*
X177748381Y-111476809D02*
X177843619Y-111476809D01*
X177843619Y-111476809D02*
X177891238Y-111453000D01*
X177891238Y-111453000D02*
X177915047Y-111429190D01*
X177915047Y-111429190D02*
X177938857Y-111381571D01*
X177938857Y-111381571D02*
X177938857Y-111286333D01*
X177938857Y-111286333D02*
X177915047Y-111238714D01*
X177915047Y-111238714D02*
X177891238Y-111214904D01*
X177891238Y-111214904D02*
X177843619Y-111191095D01*
X190162666Y-84298809D02*
X189996000Y-84060714D01*
X189876952Y-84298809D02*
X189876952Y-83798809D01*
X189876952Y-83798809D02*
X190067428Y-83798809D01*
X190067428Y-83798809D02*
X190115047Y-83822619D01*
X190115047Y-83822619D02*
X190138857Y-83846428D01*
X190138857Y-83846428D02*
X190162666Y-83894047D01*
X190162666Y-83894047D02*
X190162666Y-83965476D01*
X190162666Y-83965476D02*
X190138857Y-84013095D01*
X190138857Y-84013095D02*
X190115047Y-84036904D01*
X190115047Y-84036904D02*
X190067428Y-84060714D01*
X190067428Y-84060714D02*
X189876952Y-84060714D01*
X190638857Y-84298809D02*
X190353143Y-84298809D01*
X190496000Y-84298809D02*
X190496000Y-83798809D01*
X190496000Y-83798809D02*
X190448381Y-83870238D01*
X190448381Y-83870238D02*
X190400762Y-83917857D01*
X190400762Y-83917857D02*
X190353143Y-83941666D01*
D11*
X201763333Y-110595580D02*
X201715714Y-110643200D01*
X201715714Y-110643200D02*
X201572857Y-110690819D01*
X201572857Y-110690819D02*
X201477619Y-110690819D01*
X201477619Y-110690819D02*
X201334762Y-110643200D01*
X201334762Y-110643200D02*
X201239524Y-110547961D01*
X201239524Y-110547961D02*
X201191905Y-110452723D01*
X201191905Y-110452723D02*
X201144286Y-110262247D01*
X201144286Y-110262247D02*
X201144286Y-110119390D01*
X201144286Y-110119390D02*
X201191905Y-109928914D01*
X201191905Y-109928914D02*
X201239524Y-109833676D01*
X201239524Y-109833676D02*
X201334762Y-109738438D01*
X201334762Y-109738438D02*
X201477619Y-109690819D01*
X201477619Y-109690819D02*
X201572857Y-109690819D01*
X201572857Y-109690819D02*
X201715714Y-109738438D01*
X201715714Y-109738438D02*
X201763333Y-109786057D01*
X202239524Y-110690819D02*
X202430000Y-110690819D01*
X202430000Y-110690819D02*
X202525238Y-110643200D01*
X202525238Y-110643200D02*
X202572857Y-110595580D01*
X202572857Y-110595580D02*
X202668095Y-110452723D01*
X202668095Y-110452723D02*
X202715714Y-110262247D01*
X202715714Y-110262247D02*
X202715714Y-109881295D01*
X202715714Y-109881295D02*
X202668095Y-109786057D01*
X202668095Y-109786057D02*
X202620476Y-109738438D01*
X202620476Y-109738438D02*
X202525238Y-109690819D01*
X202525238Y-109690819D02*
X202334762Y-109690819D01*
X202334762Y-109690819D02*
X202239524Y-109738438D01*
X202239524Y-109738438D02*
X202191905Y-109786057D01*
X202191905Y-109786057D02*
X202144286Y-109881295D01*
X202144286Y-109881295D02*
X202144286Y-110119390D01*
X202144286Y-110119390D02*
X202191905Y-110214628D01*
X202191905Y-110214628D02*
X202239524Y-110262247D01*
X202239524Y-110262247D02*
X202334762Y-110309866D01*
X202334762Y-110309866D02*
X202525238Y-110309866D01*
X202525238Y-110309866D02*
X202620476Y-110262247D01*
X202620476Y-110262247D02*
X202668095Y-110214628D01*
X202668095Y-110214628D02*
X202715714Y-110119390D01*
D10*
X171627190Y-90493333D02*
X171651000Y-90517142D01*
X171651000Y-90517142D02*
X171674809Y-90588571D01*
X171674809Y-90588571D02*
X171674809Y-90636190D01*
X171674809Y-90636190D02*
X171651000Y-90707618D01*
X171651000Y-90707618D02*
X171603380Y-90755237D01*
X171603380Y-90755237D02*
X171555761Y-90779047D01*
X171555761Y-90779047D02*
X171460523Y-90802856D01*
X171460523Y-90802856D02*
X171389095Y-90802856D01*
X171389095Y-90802856D02*
X171293857Y-90779047D01*
X171293857Y-90779047D02*
X171246238Y-90755237D01*
X171246238Y-90755237D02*
X171198619Y-90707618D01*
X171198619Y-90707618D02*
X171174809Y-90636190D01*
X171174809Y-90636190D02*
X171174809Y-90588571D01*
X171174809Y-90588571D02*
X171198619Y-90517142D01*
X171198619Y-90517142D02*
X171222428Y-90493333D01*
X171674809Y-90017142D02*
X171674809Y-90302856D01*
X171674809Y-90159999D02*
X171174809Y-90159999D01*
X171174809Y-90159999D02*
X171246238Y-90207618D01*
X171246238Y-90207618D02*
X171293857Y-90255237D01*
X171293857Y-90255237D02*
X171317666Y-90302856D01*
D11*
X185369238Y-125711342D02*
X185369238Y-126092295D01*
X185155905Y-125292295D02*
X185369238Y-125711342D01*
X185369238Y-125711342D02*
X185582572Y-125292295D01*
X186131143Y-126092295D02*
X185765428Y-126092295D01*
X185948285Y-126092295D02*
X185948285Y-125292295D01*
X185948285Y-125292295D02*
X185887333Y-125406580D01*
X185887333Y-125406580D02*
X185826381Y-125482771D01*
X185826381Y-125482771D02*
X185765428Y-125520866D01*
X176983580Y-87542666D02*
X177031200Y-87590285D01*
X177031200Y-87590285D02*
X177078819Y-87733142D01*
X177078819Y-87733142D02*
X177078819Y-87828380D01*
X177078819Y-87828380D02*
X177031200Y-87971237D01*
X177031200Y-87971237D02*
X176935961Y-88066475D01*
X176935961Y-88066475D02*
X176840723Y-88114094D01*
X176840723Y-88114094D02*
X176650247Y-88161713D01*
X176650247Y-88161713D02*
X176507390Y-88161713D01*
X176507390Y-88161713D02*
X176316914Y-88114094D01*
X176316914Y-88114094D02*
X176221676Y-88066475D01*
X176221676Y-88066475D02*
X176126438Y-87971237D01*
X176126438Y-87971237D02*
X176078819Y-87828380D01*
X176078819Y-87828380D02*
X176078819Y-87733142D01*
X176078819Y-87733142D02*
X176126438Y-87590285D01*
X176126438Y-87590285D02*
X176174057Y-87542666D01*
X176078819Y-87209332D02*
X176078819Y-86542666D01*
X176078819Y-86542666D02*
X177078819Y-86971237D01*
X182713333Y-121577080D02*
X182665714Y-121624700D01*
X182665714Y-121624700D02*
X182522857Y-121672319D01*
X182522857Y-121672319D02*
X182427619Y-121672319D01*
X182427619Y-121672319D02*
X182284762Y-121624700D01*
X182284762Y-121624700D02*
X182189524Y-121529461D01*
X182189524Y-121529461D02*
X182141905Y-121434223D01*
X182141905Y-121434223D02*
X182094286Y-121243747D01*
X182094286Y-121243747D02*
X182094286Y-121100890D01*
X182094286Y-121100890D02*
X182141905Y-120910414D01*
X182141905Y-120910414D02*
X182189524Y-120815176D01*
X182189524Y-120815176D02*
X182284762Y-120719938D01*
X182284762Y-120719938D02*
X182427619Y-120672319D01*
X182427619Y-120672319D02*
X182522857Y-120672319D01*
X182522857Y-120672319D02*
X182665714Y-120719938D01*
X182665714Y-120719938D02*
X182713333Y-120767557D01*
X183284762Y-121100890D02*
X183189524Y-121053271D01*
X183189524Y-121053271D02*
X183141905Y-121005652D01*
X183141905Y-121005652D02*
X183094286Y-120910414D01*
X183094286Y-120910414D02*
X183094286Y-120862795D01*
X183094286Y-120862795D02*
X183141905Y-120767557D01*
X183141905Y-120767557D02*
X183189524Y-120719938D01*
X183189524Y-120719938D02*
X183284762Y-120672319D01*
X183284762Y-120672319D02*
X183475238Y-120672319D01*
X183475238Y-120672319D02*
X183570476Y-120719938D01*
X183570476Y-120719938D02*
X183618095Y-120767557D01*
X183618095Y-120767557D02*
X183665714Y-120862795D01*
X183665714Y-120862795D02*
X183665714Y-120910414D01*
X183665714Y-120910414D02*
X183618095Y-121005652D01*
X183618095Y-121005652D02*
X183570476Y-121053271D01*
X183570476Y-121053271D02*
X183475238Y-121100890D01*
X183475238Y-121100890D02*
X183284762Y-121100890D01*
X183284762Y-121100890D02*
X183189524Y-121148509D01*
X183189524Y-121148509D02*
X183141905Y-121196128D01*
X183141905Y-121196128D02*
X183094286Y-121291366D01*
X183094286Y-121291366D02*
X183094286Y-121481842D01*
X183094286Y-121481842D02*
X183141905Y-121577080D01*
X183141905Y-121577080D02*
X183189524Y-121624700D01*
X183189524Y-121624700D02*
X183284762Y-121672319D01*
X183284762Y-121672319D02*
X183475238Y-121672319D01*
X183475238Y-121672319D02*
X183570476Y-121624700D01*
X183570476Y-121624700D02*
X183618095Y-121577080D01*
X183618095Y-121577080D02*
X183665714Y-121481842D01*
X183665714Y-121481842D02*
X183665714Y-121291366D01*
X183665714Y-121291366D02*
X183618095Y-121196128D01*
X183618095Y-121196128D02*
X183570476Y-121148509D01*
X183570476Y-121148509D02*
X183475238Y-121100890D01*
D10*
X173160571Y-93696809D02*
X172993905Y-93458714D01*
X172874857Y-93696809D02*
X172874857Y-93196809D01*
X172874857Y-93196809D02*
X173065333Y-93196809D01*
X173065333Y-93196809D02*
X173112952Y-93220619D01*
X173112952Y-93220619D02*
X173136762Y-93244428D01*
X173136762Y-93244428D02*
X173160571Y-93292047D01*
X173160571Y-93292047D02*
X173160571Y-93363476D01*
X173160571Y-93363476D02*
X173136762Y-93411095D01*
X173136762Y-93411095D02*
X173112952Y-93434904D01*
X173112952Y-93434904D02*
X173065333Y-93458714D01*
X173065333Y-93458714D02*
X172874857Y-93458714D01*
X173636762Y-93696809D02*
X173351048Y-93696809D01*
X173493905Y-93696809D02*
X173493905Y-93196809D01*
X173493905Y-93196809D02*
X173446286Y-93268238D01*
X173446286Y-93268238D02*
X173398667Y-93315857D01*
X173398667Y-93315857D02*
X173351048Y-93339666D01*
X174065333Y-93196809D02*
X173970095Y-93196809D01*
X173970095Y-93196809D02*
X173922476Y-93220619D01*
X173922476Y-93220619D02*
X173898666Y-93244428D01*
X173898666Y-93244428D02*
X173851047Y-93315857D01*
X173851047Y-93315857D02*
X173827238Y-93411095D01*
X173827238Y-93411095D02*
X173827238Y-93601571D01*
X173827238Y-93601571D02*
X173851047Y-93649190D01*
X173851047Y-93649190D02*
X173874857Y-93673000D01*
X173874857Y-93673000D02*
X173922476Y-93696809D01*
X173922476Y-93696809D02*
X174017714Y-93696809D01*
X174017714Y-93696809D02*
X174065333Y-93673000D01*
X174065333Y-93673000D02*
X174089142Y-93649190D01*
X174089142Y-93649190D02*
X174112952Y-93601571D01*
X174112952Y-93601571D02*
X174112952Y-93482523D01*
X174112952Y-93482523D02*
X174089142Y-93434904D01*
X174089142Y-93434904D02*
X174065333Y-93411095D01*
X174065333Y-93411095D02*
X174017714Y-93387285D01*
X174017714Y-93387285D02*
X173922476Y-93387285D01*
X173922476Y-93387285D02*
X173874857Y-93411095D01*
X173874857Y-93411095D02*
X173851047Y-93434904D01*
X173851047Y-93434904D02*
X173827238Y-93482523D01*
D11*
X196035461Y-113261117D02*
X195034075Y-113261117D01*
X195034075Y-113261117D02*
X195034075Y-112879637D01*
X195034075Y-112879637D02*
X195081760Y-112784267D01*
X195081760Y-112784267D02*
X195129445Y-112736582D01*
X195129445Y-112736582D02*
X195224815Y-112688897D01*
X195224815Y-112688897D02*
X195367870Y-112688897D01*
X195367870Y-112688897D02*
X195463240Y-112736582D01*
X195463240Y-112736582D02*
X195510925Y-112784267D01*
X195510925Y-112784267D02*
X195558610Y-112879637D01*
X195558610Y-112879637D02*
X195558610Y-113261117D01*
X196035461Y-111735196D02*
X196035461Y-112307416D01*
X196035461Y-112021306D02*
X195034075Y-112021306D01*
X195034075Y-112021306D02*
X195177130Y-112116676D01*
X195177130Y-112116676D02*
X195272500Y-112212046D01*
X195272500Y-112212046D02*
X195320185Y-112307416D01*
D10*
X183565190Y-90253333D02*
X183589000Y-90277142D01*
X183589000Y-90277142D02*
X183612809Y-90348571D01*
X183612809Y-90348571D02*
X183612809Y-90396190D01*
X183612809Y-90396190D02*
X183589000Y-90467618D01*
X183589000Y-90467618D02*
X183541380Y-90515237D01*
X183541380Y-90515237D02*
X183493761Y-90539047D01*
X183493761Y-90539047D02*
X183398523Y-90562856D01*
X183398523Y-90562856D02*
X183327095Y-90562856D01*
X183327095Y-90562856D02*
X183231857Y-90539047D01*
X183231857Y-90539047D02*
X183184238Y-90515237D01*
X183184238Y-90515237D02*
X183136619Y-90467618D01*
X183136619Y-90467618D02*
X183112809Y-90396190D01*
X183112809Y-90396190D02*
X183112809Y-90348571D01*
X183112809Y-90348571D02*
X183136619Y-90277142D01*
X183136619Y-90277142D02*
X183160428Y-90253333D01*
X183112809Y-90086666D02*
X183112809Y-89777142D01*
X183112809Y-89777142D02*
X183303285Y-89943809D01*
X183303285Y-89943809D02*
X183303285Y-89872380D01*
X183303285Y-89872380D02*
X183327095Y-89824761D01*
X183327095Y-89824761D02*
X183350904Y-89800952D01*
X183350904Y-89800952D02*
X183398523Y-89777142D01*
X183398523Y-89777142D02*
X183517571Y-89777142D01*
X183517571Y-89777142D02*
X183565190Y-89800952D01*
X183565190Y-89800952D02*
X183589000Y-89824761D01*
X183589000Y-89824761D02*
X183612809Y-89872380D01*
X183612809Y-89872380D02*
X183612809Y-90015237D01*
X183612809Y-90015237D02*
X183589000Y-90062856D01*
X183589000Y-90062856D02*
X183565190Y-90086666D01*
D11*
X183641904Y-85191680D02*
X183641904Y-84382157D01*
X183641904Y-84382157D02*
X183594285Y-84286919D01*
X183594285Y-84286919D02*
X183546666Y-84239300D01*
X183546666Y-84239300D02*
X183451428Y-84191680D01*
X183451428Y-84191680D02*
X183260952Y-84191680D01*
X183260952Y-84191680D02*
X183165714Y-84239300D01*
X183165714Y-84239300D02*
X183118095Y-84286919D01*
X183118095Y-84286919D02*
X183070476Y-84382157D01*
X183070476Y-84382157D02*
X183070476Y-85191680D01*
X182689523Y-85191680D02*
X182070476Y-85191680D01*
X182070476Y-85191680D02*
X182403809Y-84810728D01*
X182403809Y-84810728D02*
X182260952Y-84810728D01*
X182260952Y-84810728D02*
X182165714Y-84763109D01*
X182165714Y-84763109D02*
X182118095Y-84715490D01*
X182118095Y-84715490D02*
X182070476Y-84620252D01*
X182070476Y-84620252D02*
X182070476Y-84382157D01*
X182070476Y-84382157D02*
X182118095Y-84286919D01*
X182118095Y-84286919D02*
X182165714Y-84239300D01*
X182165714Y-84239300D02*
X182260952Y-84191680D01*
X182260952Y-84191680D02*
X182546666Y-84191680D01*
X182546666Y-84191680D02*
X182641904Y-84239300D01*
X182641904Y-84239300D02*
X182689523Y-84286919D01*
X170734319Y-110338333D02*
X171448604Y-110338333D01*
X171448604Y-110338333D02*
X171591461Y-110385952D01*
X171591461Y-110385952D02*
X171686700Y-110481190D01*
X171686700Y-110481190D02*
X171734319Y-110624047D01*
X171734319Y-110624047D02*
X171734319Y-110719285D01*
X171734319Y-109338333D02*
X171734319Y-109909761D01*
X171734319Y-109624047D02*
X170734319Y-109624047D01*
X170734319Y-109624047D02*
X170877176Y-109719285D01*
X170877176Y-109719285D02*
X170972414Y-109814523D01*
X170972414Y-109814523D02*
X171020033Y-109909761D01*
D10*
X175954571Y-117525190D02*
X175930762Y-117549000D01*
X175930762Y-117549000D02*
X175859333Y-117572809D01*
X175859333Y-117572809D02*
X175811714Y-117572809D01*
X175811714Y-117572809D02*
X175740286Y-117549000D01*
X175740286Y-117549000D02*
X175692667Y-117501380D01*
X175692667Y-117501380D02*
X175668857Y-117453761D01*
X175668857Y-117453761D02*
X175645048Y-117358523D01*
X175645048Y-117358523D02*
X175645048Y-117287095D01*
X175645048Y-117287095D02*
X175668857Y-117191857D01*
X175668857Y-117191857D02*
X175692667Y-117144238D01*
X175692667Y-117144238D02*
X175740286Y-117096619D01*
X175740286Y-117096619D02*
X175811714Y-117072809D01*
X175811714Y-117072809D02*
X175859333Y-117072809D01*
X175859333Y-117072809D02*
X175930762Y-117096619D01*
X175930762Y-117096619D02*
X175954571Y-117120428D01*
X176145048Y-117120428D02*
X176168857Y-117096619D01*
X176168857Y-117096619D02*
X176216476Y-117072809D01*
X176216476Y-117072809D02*
X176335524Y-117072809D01*
X176335524Y-117072809D02*
X176383143Y-117096619D01*
X176383143Y-117096619D02*
X176406952Y-117120428D01*
X176406952Y-117120428D02*
X176430762Y-117168047D01*
X176430762Y-117168047D02*
X176430762Y-117215666D01*
X176430762Y-117215666D02*
X176406952Y-117287095D01*
X176406952Y-117287095D02*
X176121238Y-117572809D01*
X176121238Y-117572809D02*
X176430762Y-117572809D01*
X176597428Y-117072809D02*
X176906952Y-117072809D01*
X176906952Y-117072809D02*
X176740285Y-117263285D01*
X176740285Y-117263285D02*
X176811714Y-117263285D01*
X176811714Y-117263285D02*
X176859333Y-117287095D01*
X176859333Y-117287095D02*
X176883142Y-117310904D01*
X176883142Y-117310904D02*
X176906952Y-117358523D01*
X176906952Y-117358523D02*
X176906952Y-117477571D01*
X176906952Y-117477571D02*
X176883142Y-117525190D01*
X176883142Y-117525190D02*
X176859333Y-117549000D01*
X176859333Y-117549000D02*
X176811714Y-117572809D01*
X176811714Y-117572809D02*
X176668857Y-117572809D01*
X176668857Y-117572809D02*
X176621238Y-117549000D01*
X176621238Y-117549000D02*
X176597428Y-117525190D01*
X179510571Y-118795190D02*
X179486762Y-118819000D01*
X179486762Y-118819000D02*
X179415333Y-118842809D01*
X179415333Y-118842809D02*
X179367714Y-118842809D01*
X179367714Y-118842809D02*
X179296286Y-118819000D01*
X179296286Y-118819000D02*
X179248667Y-118771380D01*
X179248667Y-118771380D02*
X179224857Y-118723761D01*
X179224857Y-118723761D02*
X179201048Y-118628523D01*
X179201048Y-118628523D02*
X179201048Y-118557095D01*
X179201048Y-118557095D02*
X179224857Y-118461857D01*
X179224857Y-118461857D02*
X179248667Y-118414238D01*
X179248667Y-118414238D02*
X179296286Y-118366619D01*
X179296286Y-118366619D02*
X179367714Y-118342809D01*
X179367714Y-118342809D02*
X179415333Y-118342809D01*
X179415333Y-118342809D02*
X179486762Y-118366619D01*
X179486762Y-118366619D02*
X179510571Y-118390428D01*
X179701048Y-118390428D02*
X179724857Y-118366619D01*
X179724857Y-118366619D02*
X179772476Y-118342809D01*
X179772476Y-118342809D02*
X179891524Y-118342809D01*
X179891524Y-118342809D02*
X179939143Y-118366619D01*
X179939143Y-118366619D02*
X179962952Y-118390428D01*
X179962952Y-118390428D02*
X179986762Y-118438047D01*
X179986762Y-118438047D02*
X179986762Y-118485666D01*
X179986762Y-118485666D02*
X179962952Y-118557095D01*
X179962952Y-118557095D02*
X179677238Y-118842809D01*
X179677238Y-118842809D02*
X179986762Y-118842809D01*
X180462952Y-118842809D02*
X180177238Y-118842809D01*
X180320095Y-118842809D02*
X180320095Y-118342809D01*
X180320095Y-118342809D02*
X180272476Y-118414238D01*
X180272476Y-118414238D02*
X180224857Y-118461857D01*
X180224857Y-118461857D02*
X180177238Y-118485666D01*
X177462666Y-109698809D02*
X177296000Y-109460714D01*
X177176952Y-109698809D02*
X177176952Y-109198809D01*
X177176952Y-109198809D02*
X177367428Y-109198809D01*
X177367428Y-109198809D02*
X177415047Y-109222619D01*
X177415047Y-109222619D02*
X177438857Y-109246428D01*
X177438857Y-109246428D02*
X177462666Y-109294047D01*
X177462666Y-109294047D02*
X177462666Y-109365476D01*
X177462666Y-109365476D02*
X177438857Y-109413095D01*
X177438857Y-109413095D02*
X177415047Y-109436904D01*
X177415047Y-109436904D02*
X177367428Y-109460714D01*
X177367428Y-109460714D02*
X177176952Y-109460714D01*
X177629333Y-109198809D02*
X177962666Y-109198809D01*
X177962666Y-109198809D02*
X177748381Y-109698809D01*
X173160571Y-97506809D02*
X172993905Y-97268714D01*
X172874857Y-97506809D02*
X172874857Y-97006809D01*
X172874857Y-97006809D02*
X173065333Y-97006809D01*
X173065333Y-97006809D02*
X173112952Y-97030619D01*
X173112952Y-97030619D02*
X173136762Y-97054428D01*
X173136762Y-97054428D02*
X173160571Y-97102047D01*
X173160571Y-97102047D02*
X173160571Y-97173476D01*
X173160571Y-97173476D02*
X173136762Y-97221095D01*
X173136762Y-97221095D02*
X173112952Y-97244904D01*
X173112952Y-97244904D02*
X173065333Y-97268714D01*
X173065333Y-97268714D02*
X172874857Y-97268714D01*
X173636762Y-97506809D02*
X173351048Y-97506809D01*
X173493905Y-97506809D02*
X173493905Y-97006809D01*
X173493905Y-97006809D02*
X173446286Y-97078238D01*
X173446286Y-97078238D02*
X173398667Y-97125857D01*
X173398667Y-97125857D02*
X173351048Y-97149666D01*
X174065333Y-97173476D02*
X174065333Y-97506809D01*
X173946285Y-96983000D02*
X173827238Y-97340142D01*
X173827238Y-97340142D02*
X174136761Y-97340142D01*
X193725190Y-125829428D02*
X193749000Y-125853237D01*
X193749000Y-125853237D02*
X193772809Y-125924666D01*
X193772809Y-125924666D02*
X193772809Y-125972285D01*
X193772809Y-125972285D02*
X193749000Y-126043713D01*
X193749000Y-126043713D02*
X193701380Y-126091332D01*
X193701380Y-126091332D02*
X193653761Y-126115142D01*
X193653761Y-126115142D02*
X193558523Y-126138951D01*
X193558523Y-126138951D02*
X193487095Y-126138951D01*
X193487095Y-126138951D02*
X193391857Y-126115142D01*
X193391857Y-126115142D02*
X193344238Y-126091332D01*
X193344238Y-126091332D02*
X193296619Y-126043713D01*
X193296619Y-126043713D02*
X193272809Y-125972285D01*
X193272809Y-125972285D02*
X193272809Y-125924666D01*
X193272809Y-125924666D02*
X193296619Y-125853237D01*
X193296619Y-125853237D02*
X193320428Y-125829428D01*
X193772809Y-125353237D02*
X193772809Y-125638951D01*
X193772809Y-125496094D02*
X193272809Y-125496094D01*
X193272809Y-125496094D02*
X193344238Y-125543713D01*
X193344238Y-125543713D02*
X193391857Y-125591332D01*
X193391857Y-125591332D02*
X193415666Y-125638951D01*
X193272809Y-125043714D02*
X193272809Y-124996095D01*
X193272809Y-124996095D02*
X193296619Y-124948476D01*
X193296619Y-124948476D02*
X193320428Y-124924666D01*
X193320428Y-124924666D02*
X193368047Y-124900857D01*
X193368047Y-124900857D02*
X193463285Y-124877047D01*
X193463285Y-124877047D02*
X193582333Y-124877047D01*
X193582333Y-124877047D02*
X193677571Y-124900857D01*
X193677571Y-124900857D02*
X193725190Y-124924666D01*
X193725190Y-124924666D02*
X193749000Y-124948476D01*
X193749000Y-124948476D02*
X193772809Y-124996095D01*
X193772809Y-124996095D02*
X193772809Y-125043714D01*
X193772809Y-125043714D02*
X193749000Y-125091333D01*
X193749000Y-125091333D02*
X193725190Y-125115142D01*
X193725190Y-125115142D02*
X193677571Y-125138952D01*
X193677571Y-125138952D02*
X193582333Y-125162761D01*
X193582333Y-125162761D02*
X193463285Y-125162761D01*
X193463285Y-125162761D02*
X193368047Y-125138952D01*
X193368047Y-125138952D02*
X193320428Y-125115142D01*
X193320428Y-125115142D02*
X193296619Y-125091333D01*
X193296619Y-125091333D02*
X193272809Y-125043714D01*
D11*
X180539580Y-109862857D02*
X180587200Y-109910476D01*
X180587200Y-109910476D02*
X180634819Y-110053333D01*
X180634819Y-110053333D02*
X180634819Y-110148571D01*
X180634819Y-110148571D02*
X180587200Y-110291428D01*
X180587200Y-110291428D02*
X180491961Y-110386666D01*
X180491961Y-110386666D02*
X180396723Y-110434285D01*
X180396723Y-110434285D02*
X180206247Y-110481904D01*
X180206247Y-110481904D02*
X180063390Y-110481904D01*
X180063390Y-110481904D02*
X179872914Y-110434285D01*
X179872914Y-110434285D02*
X179777676Y-110386666D01*
X179777676Y-110386666D02*
X179682438Y-110291428D01*
X179682438Y-110291428D02*
X179634819Y-110148571D01*
X179634819Y-110148571D02*
X179634819Y-110053333D01*
X179634819Y-110053333D02*
X179682438Y-109910476D01*
X179682438Y-109910476D02*
X179730057Y-109862857D01*
X180634819Y-108910476D02*
X180634819Y-109481904D01*
X180634819Y-109196190D02*
X179634819Y-109196190D01*
X179634819Y-109196190D02*
X179777676Y-109291428D01*
X179777676Y-109291428D02*
X179872914Y-109386666D01*
X179872914Y-109386666D02*
X179920533Y-109481904D01*
X179634819Y-108577142D02*
X179634819Y-107910476D01*
X179634819Y-107910476D02*
X180634819Y-108339047D01*
D10*
X197789190Y-125797428D02*
X197813000Y-125821237D01*
X197813000Y-125821237D02*
X197836809Y-125892666D01*
X197836809Y-125892666D02*
X197836809Y-125940285D01*
X197836809Y-125940285D02*
X197813000Y-126011713D01*
X197813000Y-126011713D02*
X197765380Y-126059332D01*
X197765380Y-126059332D02*
X197717761Y-126083142D01*
X197717761Y-126083142D02*
X197622523Y-126106951D01*
X197622523Y-126106951D02*
X197551095Y-126106951D01*
X197551095Y-126106951D02*
X197455857Y-126083142D01*
X197455857Y-126083142D02*
X197408238Y-126059332D01*
X197408238Y-126059332D02*
X197360619Y-126011713D01*
X197360619Y-126011713D02*
X197336809Y-125940285D01*
X197336809Y-125940285D02*
X197336809Y-125892666D01*
X197336809Y-125892666D02*
X197360619Y-125821237D01*
X197360619Y-125821237D02*
X197384428Y-125797428D01*
X197836809Y-125321237D02*
X197836809Y-125606951D01*
X197836809Y-125464094D02*
X197336809Y-125464094D01*
X197336809Y-125464094D02*
X197408238Y-125511713D01*
X197408238Y-125511713D02*
X197455857Y-125559332D01*
X197455857Y-125559332D02*
X197479666Y-125606951D01*
X197836809Y-124845047D02*
X197836809Y-125130761D01*
X197836809Y-124987904D02*
X197336809Y-124987904D01*
X197336809Y-124987904D02*
X197408238Y-125035523D01*
X197408238Y-125035523D02*
X197455857Y-125083142D01*
X197455857Y-125083142D02*
X197479666Y-125130761D01*
X177208666Y-113254809D02*
X177042000Y-113016714D01*
X176922952Y-113254809D02*
X176922952Y-112754809D01*
X176922952Y-112754809D02*
X177113428Y-112754809D01*
X177113428Y-112754809D02*
X177161047Y-112778619D01*
X177161047Y-112778619D02*
X177184857Y-112802428D01*
X177184857Y-112802428D02*
X177208666Y-112850047D01*
X177208666Y-112850047D02*
X177208666Y-112921476D01*
X177208666Y-112921476D02*
X177184857Y-112969095D01*
X177184857Y-112969095D02*
X177161047Y-112992904D01*
X177161047Y-112992904D02*
X177113428Y-113016714D01*
X177113428Y-113016714D02*
X176922952Y-113016714D01*
X177446762Y-113254809D02*
X177542000Y-113254809D01*
X177542000Y-113254809D02*
X177589619Y-113231000D01*
X177589619Y-113231000D02*
X177613428Y-113207190D01*
X177613428Y-113207190D02*
X177661047Y-113135761D01*
X177661047Y-113135761D02*
X177684857Y-113040523D01*
X177684857Y-113040523D02*
X177684857Y-112850047D01*
X177684857Y-112850047D02*
X177661047Y-112802428D01*
X177661047Y-112802428D02*
X177637238Y-112778619D01*
X177637238Y-112778619D02*
X177589619Y-112754809D01*
X177589619Y-112754809D02*
X177494381Y-112754809D01*
X177494381Y-112754809D02*
X177446762Y-112778619D01*
X177446762Y-112778619D02*
X177422952Y-112802428D01*
X177422952Y-112802428D02*
X177399143Y-112850047D01*
X177399143Y-112850047D02*
X177399143Y-112969095D01*
X177399143Y-112969095D02*
X177422952Y-113016714D01*
X177422952Y-113016714D02*
X177446762Y-113040523D01*
X177446762Y-113040523D02*
X177494381Y-113064333D01*
X177494381Y-113064333D02*
X177589619Y-113064333D01*
X177589619Y-113064333D02*
X177637238Y-113040523D01*
X177637238Y-113040523D02*
X177661047Y-113016714D01*
X177661047Y-113016714D02*
X177684857Y-112969095D01*
X183828571Y-115747190D02*
X183804762Y-115771000D01*
X183804762Y-115771000D02*
X183733333Y-115794809D01*
X183733333Y-115794809D02*
X183685714Y-115794809D01*
X183685714Y-115794809D02*
X183614286Y-115771000D01*
X183614286Y-115771000D02*
X183566667Y-115723380D01*
X183566667Y-115723380D02*
X183542857Y-115675761D01*
X183542857Y-115675761D02*
X183519048Y-115580523D01*
X183519048Y-115580523D02*
X183519048Y-115509095D01*
X183519048Y-115509095D02*
X183542857Y-115413857D01*
X183542857Y-115413857D02*
X183566667Y-115366238D01*
X183566667Y-115366238D02*
X183614286Y-115318619D01*
X183614286Y-115318619D02*
X183685714Y-115294809D01*
X183685714Y-115294809D02*
X183733333Y-115294809D01*
X183733333Y-115294809D02*
X183804762Y-115318619D01*
X183804762Y-115318619D02*
X183828571Y-115342428D01*
X184019048Y-115342428D02*
X184042857Y-115318619D01*
X184042857Y-115318619D02*
X184090476Y-115294809D01*
X184090476Y-115294809D02*
X184209524Y-115294809D01*
X184209524Y-115294809D02*
X184257143Y-115318619D01*
X184257143Y-115318619D02*
X184280952Y-115342428D01*
X184280952Y-115342428D02*
X184304762Y-115390047D01*
X184304762Y-115390047D02*
X184304762Y-115437666D01*
X184304762Y-115437666D02*
X184280952Y-115509095D01*
X184280952Y-115509095D02*
X183995238Y-115794809D01*
X183995238Y-115794809D02*
X184304762Y-115794809D01*
X184614285Y-115294809D02*
X184661904Y-115294809D01*
X184661904Y-115294809D02*
X184709523Y-115318619D01*
X184709523Y-115318619D02*
X184733333Y-115342428D01*
X184733333Y-115342428D02*
X184757142Y-115390047D01*
X184757142Y-115390047D02*
X184780952Y-115485285D01*
X184780952Y-115485285D02*
X184780952Y-115604333D01*
X184780952Y-115604333D02*
X184757142Y-115699571D01*
X184757142Y-115699571D02*
X184733333Y-115747190D01*
X184733333Y-115747190D02*
X184709523Y-115771000D01*
X184709523Y-115771000D02*
X184661904Y-115794809D01*
X184661904Y-115794809D02*
X184614285Y-115794809D01*
X184614285Y-115794809D02*
X184566666Y-115771000D01*
X184566666Y-115771000D02*
X184542857Y-115747190D01*
X184542857Y-115747190D02*
X184519047Y-115699571D01*
X184519047Y-115699571D02*
X184495238Y-115604333D01*
X184495238Y-115604333D02*
X184495238Y-115485285D01*
X184495238Y-115485285D02*
X184519047Y-115390047D01*
X184519047Y-115390047D02*
X184542857Y-115342428D01*
X184542857Y-115342428D02*
X184566666Y-115318619D01*
X184566666Y-115318619D02*
X184614285Y-115294809D01*
D11*
X193256819Y-99567904D02*
X194066342Y-99567904D01*
X194066342Y-99567904D02*
X194161580Y-99520285D01*
X194161580Y-99520285D02*
X194209200Y-99472666D01*
X194209200Y-99472666D02*
X194256819Y-99377428D01*
X194256819Y-99377428D02*
X194256819Y-99186952D01*
X194256819Y-99186952D02*
X194209200Y-99091714D01*
X194209200Y-99091714D02*
X194161580Y-99044095D01*
X194161580Y-99044095D02*
X194066342Y-98996476D01*
X194066342Y-98996476D02*
X193256819Y-98996476D01*
X193256819Y-98044095D02*
X193256819Y-98520285D01*
X193256819Y-98520285D02*
X193733009Y-98567904D01*
X193733009Y-98567904D02*
X193685390Y-98520285D01*
X193685390Y-98520285D02*
X193637771Y-98425047D01*
X193637771Y-98425047D02*
X193637771Y-98186952D01*
X193637771Y-98186952D02*
X193685390Y-98091714D01*
X193685390Y-98091714D02*
X193733009Y-98044095D01*
X193733009Y-98044095D02*
X193828247Y-97996476D01*
X193828247Y-97996476D02*
X194066342Y-97996476D01*
X194066342Y-97996476D02*
X194161580Y-98044095D01*
X194161580Y-98044095D02*
X194209200Y-98091714D01*
X194209200Y-98091714D02*
X194256819Y-98186952D01*
X194256819Y-98186952D02*
X194256819Y-98425047D01*
X194256819Y-98425047D02*
X194209200Y-98520285D01*
X194209200Y-98520285D02*
X194161580Y-98567904D01*
D10*
X178224666Y-97760809D02*
X178058000Y-97522714D01*
X177938952Y-97760809D02*
X177938952Y-97260809D01*
X177938952Y-97260809D02*
X178129428Y-97260809D01*
X178129428Y-97260809D02*
X178177047Y-97284619D01*
X178177047Y-97284619D02*
X178200857Y-97308428D01*
X178200857Y-97308428D02*
X178224666Y-97356047D01*
X178224666Y-97356047D02*
X178224666Y-97427476D01*
X178224666Y-97427476D02*
X178200857Y-97475095D01*
X178200857Y-97475095D02*
X178177047Y-97498904D01*
X178177047Y-97498904D02*
X178129428Y-97522714D01*
X178129428Y-97522714D02*
X177938952Y-97522714D01*
X178415143Y-97308428D02*
X178438952Y-97284619D01*
X178438952Y-97284619D02*
X178486571Y-97260809D01*
X178486571Y-97260809D02*
X178605619Y-97260809D01*
X178605619Y-97260809D02*
X178653238Y-97284619D01*
X178653238Y-97284619D02*
X178677047Y-97308428D01*
X178677047Y-97308428D02*
X178700857Y-97356047D01*
X178700857Y-97356047D02*
X178700857Y-97403666D01*
X178700857Y-97403666D02*
X178677047Y-97475095D01*
X178677047Y-97475095D02*
X178391333Y-97760809D01*
X178391333Y-97760809D02*
X178700857Y-97760809D01*
X173160571Y-95728809D02*
X172993905Y-95490714D01*
X172874857Y-95728809D02*
X172874857Y-95228809D01*
X172874857Y-95228809D02*
X173065333Y-95228809D01*
X173065333Y-95228809D02*
X173112952Y-95252619D01*
X173112952Y-95252619D02*
X173136762Y-95276428D01*
X173136762Y-95276428D02*
X173160571Y-95324047D01*
X173160571Y-95324047D02*
X173160571Y-95395476D01*
X173160571Y-95395476D02*
X173136762Y-95443095D01*
X173136762Y-95443095D02*
X173112952Y-95466904D01*
X173112952Y-95466904D02*
X173065333Y-95490714D01*
X173065333Y-95490714D02*
X172874857Y-95490714D01*
X173636762Y-95728809D02*
X173351048Y-95728809D01*
X173493905Y-95728809D02*
X173493905Y-95228809D01*
X173493905Y-95228809D02*
X173446286Y-95300238D01*
X173446286Y-95300238D02*
X173398667Y-95347857D01*
X173398667Y-95347857D02*
X173351048Y-95371666D01*
X174089142Y-95228809D02*
X173851047Y-95228809D01*
X173851047Y-95228809D02*
X173827238Y-95466904D01*
X173827238Y-95466904D02*
X173851047Y-95443095D01*
X173851047Y-95443095D02*
X173898666Y-95419285D01*
X173898666Y-95419285D02*
X174017714Y-95419285D01*
X174017714Y-95419285D02*
X174065333Y-95443095D01*
X174065333Y-95443095D02*
X174089142Y-95466904D01*
X174089142Y-95466904D02*
X174112952Y-95514523D01*
X174112952Y-95514523D02*
X174112952Y-95633571D01*
X174112952Y-95633571D02*
X174089142Y-95681190D01*
X174089142Y-95681190D02*
X174065333Y-95705000D01*
X174065333Y-95705000D02*
X174017714Y-95728809D01*
X174017714Y-95728809D02*
X173898666Y-95728809D01*
X173898666Y-95728809D02*
X173851047Y-95705000D01*
X173851047Y-95705000D02*
X173827238Y-95681190D01*
X177462666Y-119811190D02*
X177438857Y-119835000D01*
X177438857Y-119835000D02*
X177367428Y-119858809D01*
X177367428Y-119858809D02*
X177319809Y-119858809D01*
X177319809Y-119858809D02*
X177248381Y-119835000D01*
X177248381Y-119835000D02*
X177200762Y-119787380D01*
X177200762Y-119787380D02*
X177176952Y-119739761D01*
X177176952Y-119739761D02*
X177153143Y-119644523D01*
X177153143Y-119644523D02*
X177153143Y-119573095D01*
X177153143Y-119573095D02*
X177176952Y-119477857D01*
X177176952Y-119477857D02*
X177200762Y-119430238D01*
X177200762Y-119430238D02*
X177248381Y-119382619D01*
X177248381Y-119382619D02*
X177319809Y-119358809D01*
X177319809Y-119358809D02*
X177367428Y-119358809D01*
X177367428Y-119358809D02*
X177438857Y-119382619D01*
X177438857Y-119382619D02*
X177462666Y-119406428D01*
X177891238Y-119358809D02*
X177796000Y-119358809D01*
X177796000Y-119358809D02*
X177748381Y-119382619D01*
X177748381Y-119382619D02*
X177724571Y-119406428D01*
X177724571Y-119406428D02*
X177676952Y-119477857D01*
X177676952Y-119477857D02*
X177653143Y-119573095D01*
X177653143Y-119573095D02*
X177653143Y-119763571D01*
X177653143Y-119763571D02*
X177676952Y-119811190D01*
X177676952Y-119811190D02*
X177700762Y-119835000D01*
X177700762Y-119835000D02*
X177748381Y-119858809D01*
X177748381Y-119858809D02*
X177843619Y-119858809D01*
X177843619Y-119858809D02*
X177891238Y-119835000D01*
X177891238Y-119835000D02*
X177915047Y-119811190D01*
X177915047Y-119811190D02*
X177938857Y-119763571D01*
X177938857Y-119763571D02*
X177938857Y-119644523D01*
X177938857Y-119644523D02*
X177915047Y-119596904D01*
X177915047Y-119596904D02*
X177891238Y-119573095D01*
X177891238Y-119573095D02*
X177843619Y-119549285D01*
X177843619Y-119549285D02*
X177748381Y-119549285D01*
X177748381Y-119549285D02*
X177700762Y-119573095D01*
X177700762Y-119573095D02*
X177676952Y-119596904D01*
X177676952Y-119596904D02*
X177653143Y-119644523D01*
X177208666Y-102332809D02*
X177042000Y-102094714D01*
X176922952Y-102332809D02*
X176922952Y-101832809D01*
X176922952Y-101832809D02*
X177113428Y-101832809D01*
X177113428Y-101832809D02*
X177161047Y-101856619D01*
X177161047Y-101856619D02*
X177184857Y-101880428D01*
X177184857Y-101880428D02*
X177208666Y-101928047D01*
X177208666Y-101928047D02*
X177208666Y-101999476D01*
X177208666Y-101999476D02*
X177184857Y-102047095D01*
X177184857Y-102047095D02*
X177161047Y-102070904D01*
X177161047Y-102070904D02*
X177113428Y-102094714D01*
X177113428Y-102094714D02*
X176922952Y-102094714D01*
X177375333Y-101832809D02*
X177684857Y-101832809D01*
X177684857Y-101832809D02*
X177518190Y-102023285D01*
X177518190Y-102023285D02*
X177589619Y-102023285D01*
X177589619Y-102023285D02*
X177637238Y-102047095D01*
X177637238Y-102047095D02*
X177661047Y-102070904D01*
X177661047Y-102070904D02*
X177684857Y-102118523D01*
X177684857Y-102118523D02*
X177684857Y-102237571D01*
X177684857Y-102237571D02*
X177661047Y-102285190D01*
X177661047Y-102285190D02*
X177637238Y-102309000D01*
X177637238Y-102309000D02*
X177589619Y-102332809D01*
X177589619Y-102332809D02*
X177446762Y-102332809D01*
X177446762Y-102332809D02*
X177399143Y-102309000D01*
X177399143Y-102309000D02*
X177375333Y-102285190D01*
D11*
X180539580Y-105952357D02*
X180587200Y-105999976D01*
X180587200Y-105999976D02*
X180634819Y-106142833D01*
X180634819Y-106142833D02*
X180634819Y-106238071D01*
X180634819Y-106238071D02*
X180587200Y-106380928D01*
X180587200Y-106380928D02*
X180491961Y-106476166D01*
X180491961Y-106476166D02*
X180396723Y-106523785D01*
X180396723Y-106523785D02*
X180206247Y-106571404D01*
X180206247Y-106571404D02*
X180063390Y-106571404D01*
X180063390Y-106571404D02*
X179872914Y-106523785D01*
X179872914Y-106523785D02*
X179777676Y-106476166D01*
X179777676Y-106476166D02*
X179682438Y-106380928D01*
X179682438Y-106380928D02*
X179634819Y-106238071D01*
X179634819Y-106238071D02*
X179634819Y-106142833D01*
X179634819Y-106142833D02*
X179682438Y-105999976D01*
X179682438Y-105999976D02*
X179730057Y-105952357D01*
X180634819Y-104999976D02*
X180634819Y-105571404D01*
X180634819Y-105285690D02*
X179634819Y-105285690D01*
X179634819Y-105285690D02*
X179777676Y-105380928D01*
X179777676Y-105380928D02*
X179872914Y-105476166D01*
X179872914Y-105476166D02*
X179920533Y-105571404D01*
X179634819Y-104142833D02*
X179634819Y-104333309D01*
X179634819Y-104333309D02*
X179682438Y-104428547D01*
X179682438Y-104428547D02*
X179730057Y-104476166D01*
X179730057Y-104476166D02*
X179872914Y-104571404D01*
X179872914Y-104571404D02*
X180063390Y-104619023D01*
X180063390Y-104619023D02*
X180444342Y-104619023D01*
X180444342Y-104619023D02*
X180539580Y-104571404D01*
X180539580Y-104571404D02*
X180587200Y-104523785D01*
X180587200Y-104523785D02*
X180634819Y-104428547D01*
X180634819Y-104428547D02*
X180634819Y-104238071D01*
X180634819Y-104238071D02*
X180587200Y-104142833D01*
X180587200Y-104142833D02*
X180539580Y-104095214D01*
X180539580Y-104095214D02*
X180444342Y-104047595D01*
X180444342Y-104047595D02*
X180206247Y-104047595D01*
X180206247Y-104047595D02*
X180111009Y-104095214D01*
X180111009Y-104095214D02*
X180063390Y-104142833D01*
X180063390Y-104142833D02*
X180015771Y-104238071D01*
X180015771Y-104238071D02*
X180015771Y-104428547D01*
X180015771Y-104428547D02*
X180063390Y-104523785D01*
X180063390Y-104523785D02*
X180111009Y-104571404D01*
X180111009Y-104571404D02*
X180206247Y-104619023D01*
D10*
X197544571Y-123113190D02*
X197520762Y-123137000D01*
X197520762Y-123137000D02*
X197449333Y-123160809D01*
X197449333Y-123160809D02*
X197401714Y-123160809D01*
X197401714Y-123160809D02*
X197330286Y-123137000D01*
X197330286Y-123137000D02*
X197282667Y-123089380D01*
X197282667Y-123089380D02*
X197258857Y-123041761D01*
X197258857Y-123041761D02*
X197235048Y-122946523D01*
X197235048Y-122946523D02*
X197235048Y-122875095D01*
X197235048Y-122875095D02*
X197258857Y-122779857D01*
X197258857Y-122779857D02*
X197282667Y-122732238D01*
X197282667Y-122732238D02*
X197330286Y-122684619D01*
X197330286Y-122684619D02*
X197401714Y-122660809D01*
X197401714Y-122660809D02*
X197449333Y-122660809D01*
X197449333Y-122660809D02*
X197520762Y-122684619D01*
X197520762Y-122684619D02*
X197544571Y-122708428D01*
X198020762Y-123160809D02*
X197735048Y-123160809D01*
X197877905Y-123160809D02*
X197877905Y-122660809D01*
X197877905Y-122660809D02*
X197830286Y-122732238D01*
X197830286Y-122732238D02*
X197782667Y-122779857D01*
X197782667Y-122779857D02*
X197735048Y-122803666D01*
X198187428Y-122660809D02*
X198496952Y-122660809D01*
X198496952Y-122660809D02*
X198330285Y-122851285D01*
X198330285Y-122851285D02*
X198401714Y-122851285D01*
X198401714Y-122851285D02*
X198449333Y-122875095D01*
X198449333Y-122875095D02*
X198473142Y-122898904D01*
X198473142Y-122898904D02*
X198496952Y-122946523D01*
X198496952Y-122946523D02*
X198496952Y-123065571D01*
X198496952Y-123065571D02*
X198473142Y-123113190D01*
X198473142Y-123113190D02*
X198449333Y-123137000D01*
X198449333Y-123137000D02*
X198401714Y-123160809D01*
X198401714Y-123160809D02*
X198258857Y-123160809D01*
X198258857Y-123160809D02*
X198211238Y-123137000D01*
X198211238Y-123137000D02*
X198187428Y-123113190D01*
X177208666Y-104364809D02*
X177042000Y-104126714D01*
X176922952Y-104364809D02*
X176922952Y-103864809D01*
X176922952Y-103864809D02*
X177113428Y-103864809D01*
X177113428Y-103864809D02*
X177161047Y-103888619D01*
X177161047Y-103888619D02*
X177184857Y-103912428D01*
X177184857Y-103912428D02*
X177208666Y-103960047D01*
X177208666Y-103960047D02*
X177208666Y-104031476D01*
X177208666Y-104031476D02*
X177184857Y-104079095D01*
X177184857Y-104079095D02*
X177161047Y-104102904D01*
X177161047Y-104102904D02*
X177113428Y-104126714D01*
X177113428Y-104126714D02*
X176922952Y-104126714D01*
X177637238Y-104031476D02*
X177637238Y-104364809D01*
X177518190Y-103841000D02*
X177399143Y-104198142D01*
X177399143Y-104198142D02*
X177708666Y-104198142D01*
D11*
X181628642Y-111705580D02*
X181581023Y-111753200D01*
X181581023Y-111753200D02*
X181438166Y-111800819D01*
X181438166Y-111800819D02*
X181342928Y-111800819D01*
X181342928Y-111800819D02*
X181200071Y-111753200D01*
X181200071Y-111753200D02*
X181104833Y-111657961D01*
X181104833Y-111657961D02*
X181057214Y-111562723D01*
X181057214Y-111562723D02*
X181009595Y-111372247D01*
X181009595Y-111372247D02*
X181009595Y-111229390D01*
X181009595Y-111229390D02*
X181057214Y-111038914D01*
X181057214Y-111038914D02*
X181104833Y-110943676D01*
X181104833Y-110943676D02*
X181200071Y-110848438D01*
X181200071Y-110848438D02*
X181342928Y-110800819D01*
X181342928Y-110800819D02*
X181438166Y-110800819D01*
X181438166Y-110800819D02*
X181581023Y-110848438D01*
X181581023Y-110848438D02*
X181628642Y-110896057D01*
X182581023Y-111800819D02*
X182009595Y-111800819D01*
X182295309Y-111800819D02*
X182295309Y-110800819D01*
X182295309Y-110800819D02*
X182200071Y-110943676D01*
X182200071Y-110943676D02*
X182104833Y-111038914D01*
X182104833Y-111038914D02*
X182009595Y-111086533D01*
X183152452Y-111229390D02*
X183057214Y-111181771D01*
X183057214Y-111181771D02*
X183009595Y-111134152D01*
X183009595Y-111134152D02*
X182961976Y-111038914D01*
X182961976Y-111038914D02*
X182961976Y-110991295D01*
X182961976Y-110991295D02*
X183009595Y-110896057D01*
X183009595Y-110896057D02*
X183057214Y-110848438D01*
X183057214Y-110848438D02*
X183152452Y-110800819D01*
X183152452Y-110800819D02*
X183342928Y-110800819D01*
X183342928Y-110800819D02*
X183438166Y-110848438D01*
X183438166Y-110848438D02*
X183485785Y-110896057D01*
X183485785Y-110896057D02*
X183533404Y-110991295D01*
X183533404Y-110991295D02*
X183533404Y-111038914D01*
X183533404Y-111038914D02*
X183485785Y-111134152D01*
X183485785Y-111134152D02*
X183438166Y-111181771D01*
X183438166Y-111181771D02*
X183342928Y-111229390D01*
X183342928Y-111229390D02*
X183152452Y-111229390D01*
X183152452Y-111229390D02*
X183057214Y-111277009D01*
X183057214Y-111277009D02*
X183009595Y-111324628D01*
X183009595Y-111324628D02*
X182961976Y-111419866D01*
X182961976Y-111419866D02*
X182961976Y-111610342D01*
X182961976Y-111610342D02*
X183009595Y-111705580D01*
X183009595Y-111705580D02*
X183057214Y-111753200D01*
X183057214Y-111753200D02*
X183152452Y-111800819D01*
X183152452Y-111800819D02*
X183342928Y-111800819D01*
X183342928Y-111800819D02*
X183438166Y-111753200D01*
X183438166Y-111753200D02*
X183485785Y-111705580D01*
X183485785Y-111705580D02*
X183533404Y-111610342D01*
X183533404Y-111610342D02*
X183533404Y-111419866D01*
X183533404Y-111419866D02*
X183485785Y-111324628D01*
X183485785Y-111324628D02*
X183438166Y-111277009D01*
X183438166Y-111277009D02*
X183342928Y-111229390D01*
D10*
X177462666Y-107920809D02*
X177296000Y-107682714D01*
X177176952Y-107920809D02*
X177176952Y-107420809D01*
X177176952Y-107420809D02*
X177367428Y-107420809D01*
X177367428Y-107420809D02*
X177415047Y-107444619D01*
X177415047Y-107444619D02*
X177438857Y-107468428D01*
X177438857Y-107468428D02*
X177462666Y-107516047D01*
X177462666Y-107516047D02*
X177462666Y-107587476D01*
X177462666Y-107587476D02*
X177438857Y-107635095D01*
X177438857Y-107635095D02*
X177415047Y-107658904D01*
X177415047Y-107658904D02*
X177367428Y-107682714D01*
X177367428Y-107682714D02*
X177176952Y-107682714D01*
X177891238Y-107420809D02*
X177796000Y-107420809D01*
X177796000Y-107420809D02*
X177748381Y-107444619D01*
X177748381Y-107444619D02*
X177724571Y-107468428D01*
X177724571Y-107468428D02*
X177676952Y-107539857D01*
X177676952Y-107539857D02*
X177653143Y-107635095D01*
X177653143Y-107635095D02*
X177653143Y-107825571D01*
X177653143Y-107825571D02*
X177676952Y-107873190D01*
X177676952Y-107873190D02*
X177700762Y-107897000D01*
X177700762Y-107897000D02*
X177748381Y-107920809D01*
X177748381Y-107920809D02*
X177843619Y-107920809D01*
X177843619Y-107920809D02*
X177891238Y-107897000D01*
X177891238Y-107897000D02*
X177915047Y-107873190D01*
X177915047Y-107873190D02*
X177938857Y-107825571D01*
X177938857Y-107825571D02*
X177938857Y-107706523D01*
X177938857Y-107706523D02*
X177915047Y-107658904D01*
X177915047Y-107658904D02*
X177891238Y-107635095D01*
X177891238Y-107635095D02*
X177843619Y-107611285D01*
X177843619Y-107611285D02*
X177748381Y-107611285D01*
X177748381Y-107611285D02*
X177700762Y-107635095D01*
X177700762Y-107635095D02*
X177676952Y-107658904D01*
X177676952Y-107658904D02*
X177653143Y-107706523D01*
X177986571Y-95474809D02*
X177819905Y-95236714D01*
X177700857Y-95474809D02*
X177700857Y-94974809D01*
X177700857Y-94974809D02*
X177891333Y-94974809D01*
X177891333Y-94974809D02*
X177938952Y-94998619D01*
X177938952Y-94998619D02*
X177962762Y-95022428D01*
X177962762Y-95022428D02*
X177986571Y-95070047D01*
X177986571Y-95070047D02*
X177986571Y-95141476D01*
X177986571Y-95141476D02*
X177962762Y-95189095D01*
X177962762Y-95189095D02*
X177938952Y-95212904D01*
X177938952Y-95212904D02*
X177891333Y-95236714D01*
X177891333Y-95236714D02*
X177700857Y-95236714D01*
X178462762Y-95474809D02*
X178177048Y-95474809D01*
X178319905Y-95474809D02*
X178319905Y-94974809D01*
X178319905Y-94974809D02*
X178272286Y-95046238D01*
X178272286Y-95046238D02*
X178224667Y-95093857D01*
X178224667Y-95093857D02*
X178177048Y-95117666D01*
X178938952Y-95474809D02*
X178653238Y-95474809D01*
X178796095Y-95474809D02*
X178796095Y-94974809D01*
X178796095Y-94974809D02*
X178748476Y-95046238D01*
X178748476Y-95046238D02*
X178700857Y-95093857D01*
X178700857Y-95093857D02*
X178653238Y-95117666D01*
X177462666Y-106142809D02*
X177296000Y-105904714D01*
X177176952Y-106142809D02*
X177176952Y-105642809D01*
X177176952Y-105642809D02*
X177367428Y-105642809D01*
X177367428Y-105642809D02*
X177415047Y-105666619D01*
X177415047Y-105666619D02*
X177438857Y-105690428D01*
X177438857Y-105690428D02*
X177462666Y-105738047D01*
X177462666Y-105738047D02*
X177462666Y-105809476D01*
X177462666Y-105809476D02*
X177438857Y-105857095D01*
X177438857Y-105857095D02*
X177415047Y-105880904D01*
X177415047Y-105880904D02*
X177367428Y-105904714D01*
X177367428Y-105904714D02*
X177176952Y-105904714D01*
X177915047Y-105642809D02*
X177676952Y-105642809D01*
X177676952Y-105642809D02*
X177653143Y-105880904D01*
X177653143Y-105880904D02*
X177676952Y-105857095D01*
X177676952Y-105857095D02*
X177724571Y-105833285D01*
X177724571Y-105833285D02*
X177843619Y-105833285D01*
X177843619Y-105833285D02*
X177891238Y-105857095D01*
X177891238Y-105857095D02*
X177915047Y-105880904D01*
X177915047Y-105880904D02*
X177938857Y-105928523D01*
X177938857Y-105928523D02*
X177938857Y-106047571D01*
X177938857Y-106047571D02*
X177915047Y-106095190D01*
X177915047Y-106095190D02*
X177891238Y-106119000D01*
X177891238Y-106119000D02*
X177843619Y-106142809D01*
X177843619Y-106142809D02*
X177724571Y-106142809D01*
X177724571Y-106142809D02*
X177676952Y-106119000D01*
X177676952Y-106119000D02*
X177653143Y-106095190D01*
X177723190Y-100397428D02*
X177747000Y-100421237D01*
X177747000Y-100421237D02*
X177770809Y-100492666D01*
X177770809Y-100492666D02*
X177770809Y-100540285D01*
X177770809Y-100540285D02*
X177747000Y-100611713D01*
X177747000Y-100611713D02*
X177699380Y-100659332D01*
X177699380Y-100659332D02*
X177651761Y-100683142D01*
X177651761Y-100683142D02*
X177556523Y-100706951D01*
X177556523Y-100706951D02*
X177485095Y-100706951D01*
X177485095Y-100706951D02*
X177389857Y-100683142D01*
X177389857Y-100683142D02*
X177342238Y-100659332D01*
X177342238Y-100659332D02*
X177294619Y-100611713D01*
X177294619Y-100611713D02*
X177270809Y-100540285D01*
X177270809Y-100540285D02*
X177270809Y-100492666D01*
X177270809Y-100492666D02*
X177294619Y-100421237D01*
X177294619Y-100421237D02*
X177318428Y-100397428D01*
X177770809Y-99921237D02*
X177770809Y-100206951D01*
X177770809Y-100064094D02*
X177270809Y-100064094D01*
X177270809Y-100064094D02*
X177342238Y-100111713D01*
X177342238Y-100111713D02*
X177389857Y-100159332D01*
X177389857Y-100159332D02*
X177413666Y-100206951D01*
X177437476Y-99492666D02*
X177770809Y-99492666D01*
X177247000Y-99611714D02*
X177604142Y-99730761D01*
X177604142Y-99730761D02*
X177604142Y-99421238D01*
D11*
X195253252Y-85976180D02*
X195253252Y-85166657D01*
X195253252Y-85166657D02*
X195205633Y-85071419D01*
X195205633Y-85071419D02*
X195158014Y-85023800D01*
X195158014Y-85023800D02*
X195062776Y-84976180D01*
X195062776Y-84976180D02*
X194872300Y-84976180D01*
X194872300Y-84976180D02*
X194777062Y-85023800D01*
X194777062Y-85023800D02*
X194729443Y-85071419D01*
X194729443Y-85071419D02*
X194681824Y-85166657D01*
X194681824Y-85166657D02*
X194681824Y-85976180D01*
X193777062Y-85642847D02*
X193777062Y-84976180D01*
X194015157Y-86023800D02*
X194253252Y-85309514D01*
X194253252Y-85309514D02*
X193634205Y-85309514D01*
X188301333Y-88497580D02*
X188253714Y-88545200D01*
X188253714Y-88545200D02*
X188110857Y-88592819D01*
X188110857Y-88592819D02*
X188015619Y-88592819D01*
X188015619Y-88592819D02*
X187872762Y-88545200D01*
X187872762Y-88545200D02*
X187777524Y-88449961D01*
X187777524Y-88449961D02*
X187729905Y-88354723D01*
X187729905Y-88354723D02*
X187682286Y-88164247D01*
X187682286Y-88164247D02*
X187682286Y-88021390D01*
X187682286Y-88021390D02*
X187729905Y-87830914D01*
X187729905Y-87830914D02*
X187777524Y-87735676D01*
X187777524Y-87735676D02*
X187872762Y-87640438D01*
X187872762Y-87640438D02*
X188015619Y-87592819D01*
X188015619Y-87592819D02*
X188110857Y-87592819D01*
X188110857Y-87592819D02*
X188253714Y-87640438D01*
X188253714Y-87640438D02*
X188301333Y-87688057D01*
X189206095Y-87592819D02*
X188729905Y-87592819D01*
X188729905Y-87592819D02*
X188682286Y-88069009D01*
X188682286Y-88069009D02*
X188729905Y-88021390D01*
X188729905Y-88021390D02*
X188825143Y-87973771D01*
X188825143Y-87973771D02*
X189063238Y-87973771D01*
X189063238Y-87973771D02*
X189158476Y-88021390D01*
X189158476Y-88021390D02*
X189206095Y-88069009D01*
X189206095Y-88069009D02*
X189253714Y-88164247D01*
X189253714Y-88164247D02*
X189253714Y-88402342D01*
X189253714Y-88402342D02*
X189206095Y-88497580D01*
X189206095Y-88497580D02*
X189158476Y-88545200D01*
X189158476Y-88545200D02*
X189063238Y-88592819D01*
X189063238Y-88592819D02*
X188825143Y-88592819D01*
X188825143Y-88592819D02*
X188729905Y-88545200D01*
X188729905Y-88545200D02*
X188682286Y-88497580D01*
D10*
X197544571Y-121589190D02*
X197520762Y-121613000D01*
X197520762Y-121613000D02*
X197449333Y-121636809D01*
X197449333Y-121636809D02*
X197401714Y-121636809D01*
X197401714Y-121636809D02*
X197330286Y-121613000D01*
X197330286Y-121613000D02*
X197282667Y-121565380D01*
X197282667Y-121565380D02*
X197258857Y-121517761D01*
X197258857Y-121517761D02*
X197235048Y-121422523D01*
X197235048Y-121422523D02*
X197235048Y-121351095D01*
X197235048Y-121351095D02*
X197258857Y-121255857D01*
X197258857Y-121255857D02*
X197282667Y-121208238D01*
X197282667Y-121208238D02*
X197330286Y-121160619D01*
X197330286Y-121160619D02*
X197401714Y-121136809D01*
X197401714Y-121136809D02*
X197449333Y-121136809D01*
X197449333Y-121136809D02*
X197520762Y-121160619D01*
X197520762Y-121160619D02*
X197544571Y-121184428D01*
X198020762Y-121636809D02*
X197735048Y-121636809D01*
X197877905Y-121636809D02*
X197877905Y-121136809D01*
X197877905Y-121136809D02*
X197830286Y-121208238D01*
X197830286Y-121208238D02*
X197782667Y-121255857D01*
X197782667Y-121255857D02*
X197735048Y-121279666D01*
X198211238Y-121184428D02*
X198235047Y-121160619D01*
X198235047Y-121160619D02*
X198282666Y-121136809D01*
X198282666Y-121136809D02*
X198401714Y-121136809D01*
X198401714Y-121136809D02*
X198449333Y-121160619D01*
X198449333Y-121160619D02*
X198473142Y-121184428D01*
X198473142Y-121184428D02*
X198496952Y-121232047D01*
X198496952Y-121232047D02*
X198496952Y-121279666D01*
X198496952Y-121279666D02*
X198473142Y-121351095D01*
X198473142Y-121351095D02*
X198187428Y-121636809D01*
X198187428Y-121636809D02*
X198496952Y-121636809D01*
X177986571Y-93696809D02*
X177819905Y-93458714D01*
X177700857Y-93696809D02*
X177700857Y-93196809D01*
X177700857Y-93196809D02*
X177891333Y-93196809D01*
X177891333Y-93196809D02*
X177938952Y-93220619D01*
X177938952Y-93220619D02*
X177962762Y-93244428D01*
X177962762Y-93244428D02*
X177986571Y-93292047D01*
X177986571Y-93292047D02*
X177986571Y-93363476D01*
X177986571Y-93363476D02*
X177962762Y-93411095D01*
X177962762Y-93411095D02*
X177938952Y-93434904D01*
X177938952Y-93434904D02*
X177891333Y-93458714D01*
X177891333Y-93458714D02*
X177700857Y-93458714D01*
X178462762Y-93696809D02*
X178177048Y-93696809D01*
X178319905Y-93696809D02*
X178319905Y-93196809D01*
X178319905Y-93196809D02*
X178272286Y-93268238D01*
X178272286Y-93268238D02*
X178224667Y-93315857D01*
X178224667Y-93315857D02*
X178177048Y-93339666D01*
X178653238Y-93244428D02*
X178677047Y-93220619D01*
X178677047Y-93220619D02*
X178724666Y-93196809D01*
X178724666Y-93196809D02*
X178843714Y-93196809D01*
X178843714Y-93196809D02*
X178891333Y-93220619D01*
X178891333Y-93220619D02*
X178915142Y-93244428D01*
X178915142Y-93244428D02*
X178938952Y-93292047D01*
X178938952Y-93292047D02*
X178938952Y-93339666D01*
X178938952Y-93339666D02*
X178915142Y-93411095D01*
X178915142Y-93411095D02*
X178629428Y-93696809D01*
X178629428Y-93696809D02*
X178938952Y-93696809D01*
D11*
X188722095Y-115278819D02*
X188722095Y-116088342D01*
X188722095Y-116088342D02*
X188769714Y-116183580D01*
X188769714Y-116183580D02*
X188817333Y-116231200D01*
X188817333Y-116231200D02*
X188912571Y-116278819D01*
X188912571Y-116278819D02*
X189103047Y-116278819D01*
X189103047Y-116278819D02*
X189198285Y-116231200D01*
X189198285Y-116231200D02*
X189245904Y-116183580D01*
X189245904Y-116183580D02*
X189293523Y-116088342D01*
X189293523Y-116088342D02*
X189293523Y-115278819D01*
X190293523Y-116278819D02*
X189722095Y-116278819D01*
X190007809Y-116278819D02*
X190007809Y-115278819D01*
X190007809Y-115278819D02*
X189912571Y-115421676D01*
X189912571Y-115421676D02*
X189817333Y-115516914D01*
X189817333Y-115516914D02*
X189722095Y-115564533D01*
D10*
X178739190Y-89745333D02*
X178763000Y-89769142D01*
X178763000Y-89769142D02*
X178786809Y-89840571D01*
X178786809Y-89840571D02*
X178786809Y-89888190D01*
X178786809Y-89888190D02*
X178763000Y-89959618D01*
X178763000Y-89959618D02*
X178715380Y-90007237D01*
X178715380Y-90007237D02*
X178667761Y-90031047D01*
X178667761Y-90031047D02*
X178572523Y-90054856D01*
X178572523Y-90054856D02*
X178501095Y-90054856D01*
X178501095Y-90054856D02*
X178405857Y-90031047D01*
X178405857Y-90031047D02*
X178358238Y-90007237D01*
X178358238Y-90007237D02*
X178310619Y-89959618D01*
X178310619Y-89959618D02*
X178286809Y-89888190D01*
X178286809Y-89888190D02*
X178286809Y-89840571D01*
X178286809Y-89840571D02*
X178310619Y-89769142D01*
X178310619Y-89769142D02*
X178334428Y-89745333D01*
X178334428Y-89554856D02*
X178310619Y-89531047D01*
X178310619Y-89531047D02*
X178286809Y-89483428D01*
X178286809Y-89483428D02*
X178286809Y-89364380D01*
X178286809Y-89364380D02*
X178310619Y-89316761D01*
X178310619Y-89316761D02*
X178334428Y-89292952D01*
X178334428Y-89292952D02*
X178382047Y-89269142D01*
X178382047Y-89269142D02*
X178429666Y-89269142D01*
X178429666Y-89269142D02*
X178501095Y-89292952D01*
X178501095Y-89292952D02*
X178786809Y-89578666D01*
X178786809Y-89578666D02*
X178786809Y-89269142D01*
X177224571Y-115032809D02*
X177057905Y-114794714D01*
X176938857Y-115032809D02*
X176938857Y-114532809D01*
X176938857Y-114532809D02*
X177129333Y-114532809D01*
X177129333Y-114532809D02*
X177176952Y-114556619D01*
X177176952Y-114556619D02*
X177200762Y-114580428D01*
X177200762Y-114580428D02*
X177224571Y-114628047D01*
X177224571Y-114628047D02*
X177224571Y-114699476D01*
X177224571Y-114699476D02*
X177200762Y-114747095D01*
X177200762Y-114747095D02*
X177176952Y-114770904D01*
X177176952Y-114770904D02*
X177129333Y-114794714D01*
X177129333Y-114794714D02*
X176938857Y-114794714D01*
X177700762Y-115032809D02*
X177415048Y-115032809D01*
X177557905Y-115032809D02*
X177557905Y-114532809D01*
X177557905Y-114532809D02*
X177510286Y-114604238D01*
X177510286Y-114604238D02*
X177462667Y-114651857D01*
X177462667Y-114651857D02*
X177415048Y-114675666D01*
X178010285Y-114532809D02*
X178057904Y-114532809D01*
X178057904Y-114532809D02*
X178105523Y-114556619D01*
X178105523Y-114556619D02*
X178129333Y-114580428D01*
X178129333Y-114580428D02*
X178153142Y-114628047D01*
X178153142Y-114628047D02*
X178176952Y-114723285D01*
X178176952Y-114723285D02*
X178176952Y-114842333D01*
X178176952Y-114842333D02*
X178153142Y-114937571D01*
X178153142Y-114937571D02*
X178129333Y-114985190D01*
X178129333Y-114985190D02*
X178105523Y-115009000D01*
X178105523Y-115009000D02*
X178057904Y-115032809D01*
X178057904Y-115032809D02*
X178010285Y-115032809D01*
X178010285Y-115032809D02*
X177962666Y-115009000D01*
X177962666Y-115009000D02*
X177938857Y-114985190D01*
X177938857Y-114985190D02*
X177915047Y-114937571D01*
X177915047Y-114937571D02*
X177891238Y-114842333D01*
X177891238Y-114842333D02*
X177891238Y-114723285D01*
X177891238Y-114723285D02*
X177915047Y-114628047D01*
X177915047Y-114628047D02*
X177938857Y-114580428D01*
X177938857Y-114580428D02*
X177962666Y-114556619D01*
X177962666Y-114556619D02*
X178010285Y-114532809D01*
D11*
X190587333Y-82401580D02*
X190539714Y-82449200D01*
X190539714Y-82449200D02*
X190396857Y-82496819D01*
X190396857Y-82496819D02*
X190301619Y-82496819D01*
X190301619Y-82496819D02*
X190158762Y-82449200D01*
X190158762Y-82449200D02*
X190063524Y-82353961D01*
X190063524Y-82353961D02*
X190015905Y-82258723D01*
X190015905Y-82258723D02*
X189968286Y-82068247D01*
X189968286Y-82068247D02*
X189968286Y-81925390D01*
X189968286Y-81925390D02*
X190015905Y-81734914D01*
X190015905Y-81734914D02*
X190063524Y-81639676D01*
X190063524Y-81639676D02*
X190158762Y-81544438D01*
X190158762Y-81544438D02*
X190301619Y-81496819D01*
X190301619Y-81496819D02*
X190396857Y-81496819D01*
X190396857Y-81496819D02*
X190539714Y-81544438D01*
X190539714Y-81544438D02*
X190587333Y-81592057D01*
X191444476Y-81830152D02*
X191444476Y-82496819D01*
X191206381Y-81449200D02*
X190968286Y-82163485D01*
X190968286Y-82163485D02*
X191587333Y-82163485D01*
D10*
X183828571Y-113969190D02*
X183804762Y-113993000D01*
X183804762Y-113993000D02*
X183733333Y-114016809D01*
X183733333Y-114016809D02*
X183685714Y-114016809D01*
X183685714Y-114016809D02*
X183614286Y-113993000D01*
X183614286Y-113993000D02*
X183566667Y-113945380D01*
X183566667Y-113945380D02*
X183542857Y-113897761D01*
X183542857Y-113897761D02*
X183519048Y-113802523D01*
X183519048Y-113802523D02*
X183519048Y-113731095D01*
X183519048Y-113731095D02*
X183542857Y-113635857D01*
X183542857Y-113635857D02*
X183566667Y-113588238D01*
X183566667Y-113588238D02*
X183614286Y-113540619D01*
X183614286Y-113540619D02*
X183685714Y-113516809D01*
X183685714Y-113516809D02*
X183733333Y-113516809D01*
X183733333Y-113516809D02*
X183804762Y-113540619D01*
X183804762Y-113540619D02*
X183828571Y-113564428D01*
X184304762Y-114016809D02*
X184019048Y-114016809D01*
X184161905Y-114016809D02*
X184161905Y-113516809D01*
X184161905Y-113516809D02*
X184114286Y-113588238D01*
X184114286Y-113588238D02*
X184066667Y-113635857D01*
X184066667Y-113635857D02*
X184019048Y-113659666D01*
X184542857Y-114016809D02*
X184638095Y-114016809D01*
X184638095Y-114016809D02*
X184685714Y-113993000D01*
X184685714Y-113993000D02*
X184709523Y-113969190D01*
X184709523Y-113969190D02*
X184757142Y-113897761D01*
X184757142Y-113897761D02*
X184780952Y-113802523D01*
X184780952Y-113802523D02*
X184780952Y-113612047D01*
X184780952Y-113612047D02*
X184757142Y-113564428D01*
X184757142Y-113564428D02*
X184733333Y-113540619D01*
X184733333Y-113540619D02*
X184685714Y-113516809D01*
X184685714Y-113516809D02*
X184590476Y-113516809D01*
X184590476Y-113516809D02*
X184542857Y-113540619D01*
X184542857Y-113540619D02*
X184519047Y-113564428D01*
X184519047Y-113564428D02*
X184495238Y-113612047D01*
X184495238Y-113612047D02*
X184495238Y-113731095D01*
X184495238Y-113731095D02*
X184519047Y-113778714D01*
X184519047Y-113778714D02*
X184542857Y-113802523D01*
X184542857Y-113802523D02*
X184590476Y-113826333D01*
X184590476Y-113826333D02*
X184685714Y-113826333D01*
X184685714Y-113826333D02*
X184733333Y-113802523D01*
X184733333Y-113802523D02*
X184757142Y-113778714D01*
X184757142Y-113778714D02*
X184780952Y-113731095D01*
D12*
%TO.C,U2*%
X173939200Y-89496900D02*
X173939200Y-91351100D01*
X175150739Y-91351100D02*
X175877261Y-91351100D01*
X177088800Y-91351100D02*
X177088800Y-89496900D01*
D13*
%TO.C,C15*%
X181100000Y-101645767D02*
X181100000Y-101353233D01*
X182120000Y-101645767D02*
X182120000Y-101353233D01*
%TO.C,R13*%
X180085276Y-91933500D02*
X180594724Y-91933500D01*
X180085276Y-92978500D02*
X180594724Y-92978500D01*
%TO.C,R8*%
X178288776Y-111581500D02*
X178798224Y-111581500D01*
X178288776Y-112626500D02*
X178798224Y-112626500D01*
%TO.C,R1*%
X188876224Y-84313500D02*
X188366776Y-84313500D01*
X188876224Y-85358500D02*
X188366776Y-85358500D01*
%TO.C,C9*%
X198735733Y-109726000D02*
X199028267Y-109726000D01*
X198735733Y-110746000D02*
X199028267Y-110746000D01*
%TO.C,C1*%
X172192000Y-90263733D02*
X172192000Y-90556267D01*
X173212000Y-90263733D02*
X173212000Y-90556267D01*
D14*
%TO.C,Y1*%
X191120000Y-122110000D02*
X179720000Y-122110000D01*
X191120000Y-126810000D02*
X179720000Y-126810000D01*
D13*
%TO.C,C7*%
X177544000Y-87522267D02*
X177544000Y-87229733D01*
X178564000Y-87522267D02*
X178564000Y-87229733D01*
%TO.C,C8*%
X183026267Y-119277500D02*
X182733733Y-119277500D01*
X183026267Y-120297500D02*
X182733733Y-120297500D01*
%TO.C,R16*%
X176276724Y-93203500D02*
X175767276Y-93203500D01*
X176276724Y-94248500D02*
X175767276Y-94248500D01*
%TO.C,P1*%
D14*
X195486500Y-117724000D02*
G75*
G02*
X195359500Y-117724000I-63500J0D01*
G01*
X195359500Y-117724000D02*
G75*
G02*
X195486500Y-117724000I63500J0D01*
G01*
D13*
%TO.C,C3*%
X181354000Y-89808267D02*
X181354000Y-89515733D01*
X182374000Y-89808267D02*
X182374000Y-89515733D01*
D12*
%TO.C,U3*%
X180759100Y-87275400D02*
X185000900Y-87275400D01*
X185000900Y-82017600D02*
X180759100Y-82017600D01*
%TO.C,J1*%
X170387000Y-101154700D02*
X170387000Y-118655300D01*
X170387000Y-118655300D02*
X170731861Y-118655300D01*
X170731861Y-101154700D02*
X170387000Y-101154700D01*
X174496141Y-118655300D02*
X174832000Y-118655300D01*
X174832000Y-101154700D02*
X174496141Y-101154700D01*
X174832000Y-103540860D02*
X174832000Y-101154700D01*
X174832000Y-118655300D02*
X174832000Y-116269140D01*
D15*
X175895000Y-100519700D02*
G75*
G02*
X175133000Y-100519700I-381000J0D01*
G01*
X175133000Y-100519700D02*
G75*
G02*
X175895000Y-100519700I381000J0D01*
G01*
D13*
%TO.C,C23*%
X178769767Y-116764000D02*
X178477233Y-116764000D01*
X178769767Y-117784000D02*
X178477233Y-117784000D01*
%TO.C,C21*%
X182039233Y-117600000D02*
X182331767Y-117600000D01*
X182039233Y-118620000D02*
X182331767Y-118620000D01*
%TO.C,R7*%
X178288776Y-109759500D02*
X178798224Y-109759500D01*
X178288776Y-110804500D02*
X178798224Y-110804500D01*
%TO.C,R14*%
X176276724Y-96759500D02*
X175767276Y-96759500D01*
X176276724Y-97804500D02*
X175767276Y-97804500D01*
%TO.C,C10*%
X194086000Y-125654267D02*
X194086000Y-125361733D01*
X195106000Y-125654267D02*
X195106000Y-125361733D01*
%TO.C,C17*%
X181100000Y-109366267D02*
X181100000Y-109073733D01*
X182120000Y-109366267D02*
X182120000Y-109073733D01*
%TO.C,C11*%
X195832000Y-125654267D02*
X195832000Y-125361733D01*
X196852000Y-125654267D02*
X196852000Y-125361733D01*
%TO.C,R9*%
X178288776Y-113359500D02*
X178798224Y-113359500D01*
X178288776Y-114404500D02*
X178798224Y-114404500D01*
%TO.C,C20*%
X182125233Y-115822000D02*
X182417767Y-115822000D01*
X182125233Y-116842000D02*
X182417767Y-116842000D01*
D14*
%TO.C,U5*%
X183070500Y-106043700D02*
X183070500Y-92076300D01*
X204025500Y-92076300D02*
X204025500Y-94590000D01*
X204025500Y-94590000D02*
X206070500Y-94590000D01*
X204025500Y-103530000D02*
X204025500Y-106043700D01*
X206070500Y-94590000D02*
X206070500Y-103530000D01*
X206070500Y-103530000D02*
X204025500Y-103530000D01*
D16*
X201268000Y-88060000D02*
G75*
G02*
X201068000Y-88060000I-100000J0D01*
G01*
X201068000Y-88060000D02*
G75*
G02*
X201268000Y-88060000I100000J0D01*
G01*
D13*
%TO.C,R2*%
X180105276Y-97267500D02*
X180614724Y-97267500D01*
X180105276Y-98312500D02*
X180614724Y-98312500D01*
%TO.C,R15*%
X176276724Y-94981500D02*
X175767276Y-94981500D01*
X176276724Y-96026500D02*
X175767276Y-96026500D01*
%TO.C,C6*%
X178061233Y-120140000D02*
X178353767Y-120140000D01*
X178061233Y-121160000D02*
X178353767Y-121160000D01*
%TO.C,R3*%
X178206776Y-102691500D02*
X178716224Y-102691500D01*
X178206776Y-103736500D02*
X178716224Y-103736500D01*
%TO.C,C16*%
X181100000Y-105455767D02*
X181100000Y-105163233D01*
X182120000Y-105455767D02*
X182120000Y-105163233D01*
%TO.C,C13*%
X195472267Y-122426000D02*
X195179733Y-122426000D01*
X195472267Y-123446000D02*
X195179733Y-123446000D01*
%TO.C,R4*%
X178206776Y-104469500D02*
X178716224Y-104469500D01*
X178206776Y-105514500D02*
X178716224Y-105514500D01*
%TO.C,C18*%
X182125233Y-112266000D02*
X182417767Y-112266000D01*
X182125233Y-113286000D02*
X182417767Y-113286000D01*
%TO.C,R6*%
X178206776Y-108025500D02*
X178716224Y-108025500D01*
X178206776Y-109070500D02*
X178716224Y-109070500D01*
%TO.C,R11*%
X180125276Y-95489500D02*
X180634724Y-95489500D01*
X180125276Y-96534500D02*
X180634724Y-96534500D01*
%TO.C,R5*%
X178206776Y-106247500D02*
X178716224Y-106247500D01*
X178206776Y-107292500D02*
X178716224Y-107292500D01*
%TO.C,C14*%
X178306000Y-100730267D02*
X178306000Y-100437733D01*
X179326000Y-100730267D02*
X179326000Y-100437733D01*
D12*
%TO.C,U4*%
X192370448Y-88059900D02*
X196612248Y-88059900D01*
X196612248Y-82802100D02*
X192370448Y-82802100D01*
D13*
%TO.C,C5*%
X188767767Y-86104000D02*
X188475233Y-86104000D01*
X188767767Y-87124000D02*
X188475233Y-87124000D01*
%TO.C,C12*%
X195472267Y-120902000D02*
X195179733Y-120902000D01*
X195472267Y-121922000D02*
X195179733Y-121922000D01*
%TO.C,R12*%
X180085276Y-93711500D02*
X180594724Y-93711500D01*
X180085276Y-94756500D02*
X180594724Y-94756500D01*
D12*
%TO.C,U1*%
X186563000Y-110451900D02*
X186563000Y-111050760D01*
X186563000Y-120597238D02*
X186563000Y-121196100D01*
X186563000Y-121196100D02*
X192405000Y-121196100D01*
X192405000Y-110451900D02*
X186563000Y-110451900D01*
X192405000Y-111050760D02*
X192405000Y-110451900D01*
X192405000Y-121196100D02*
X192405000Y-120597240D01*
D17*
G36*
X184777901Y-117639498D02*
G01*
X184523901Y-117639498D01*
X184523901Y-117258498D01*
X184777901Y-117258498D01*
X184777901Y-117639498D01*
G37*
G36*
X194444099Y-116989499D02*
G01*
X194190099Y-116989499D01*
X194190099Y-116608499D01*
X194444099Y-116608499D01*
X194444099Y-116989499D01*
G37*
D13*
%TO.C,C2*%
X179304000Y-89501733D02*
X179304000Y-89794267D01*
X180324000Y-89501733D02*
X180324000Y-89794267D01*
%TO.C,R10*%
X178288776Y-115137500D02*
X178798224Y-115137500D01*
X178288776Y-116182500D02*
X178798224Y-116182500D01*
%TO.C,C4*%
X188475233Y-82488000D02*
X188767767Y-82488000D01*
X188475233Y-83508000D02*
X188767767Y-83508000D01*
%TO.C,C19*%
X182125233Y-114044000D02*
X182417767Y-114044000D01*
X182125233Y-115064000D02*
X182417767Y-115064000D01*
%TD*%
M02*
