%TF.GenerationSoftware,KiCad,Pcbnew,8.0.8*%
%TF.CreationDate,2025-04-15T16:19:57+05:30*%
%TF.ProjectId,STHDAQ_BX,53544844-4151-45f4-9258-2e6b69636164,rev?*%
%TF.SameCoordinates,Original*%
%TF.FileFunction,Copper,L1,Top*%
%TF.FilePolarity,Positive*%
%FSLAX46Y46*%
G04 Gerber Fmt 4.6, Leading zero omitted, Abs format (unit mm)*
G04 Created by KiCad (PCBNEW 8.0.8) date 2025-04-15 16:19:57*
%MOMM*%
%LPD*%
G01*
G04 APERTURE LIST*
G04 Aperture macros list*
%AMRoundRect*
0 Rectangle with rounded corners*
0 $1 Rounding radius*
0 $2 $3 $4 $5 $6 $7 $8 $9 X,Y pos of 4 corners*
0 Add a 4 corners polygon primitive as box body*
4,1,4,$2,$3,$4,$5,$6,$7,$8,$9,$2,$3,0*
0 Add four circle primitives for the rounded corners*
1,1,$1+$1,$2,$3*
1,1,$1+$1,$4,$5*
1,1,$1+$1,$6,$7*
1,1,$1+$1,$8,$9*
0 Add four rect primitives between the rounded corners*
20,1,$1+$1,$2,$3,$4,$5,0*
20,1,$1+$1,$4,$5,$6,$7,0*
20,1,$1+$1,$6,$7,$8,$9,0*
20,1,$1+$1,$8,$9,$2,$3,0*%
G04 Aperture macros list end*
%TA.AperFunction,SMDPad,CuDef*%
%ADD10R,0.508000X0.946899*%
%TD*%
%TA.AperFunction,SMDPad,CuDef*%
%ADD11RoundRect,0.237500X0.237500X-0.300000X0.237500X0.300000X-0.237500X0.300000X-0.237500X-0.300000X0*%
%TD*%
%TA.AperFunction,SMDPad,CuDef*%
%ADD12RoundRect,0.237500X-0.250000X-0.237500X0.250000X-0.237500X0.250000X0.237500X-0.250000X0.237500X0*%
%TD*%
%TA.AperFunction,SMDPad,CuDef*%
%ADD13RoundRect,0.237500X0.250000X0.237500X-0.250000X0.237500X-0.250000X-0.237500X0.250000X-0.237500X0*%
%TD*%
%TA.AperFunction,SMDPad,CuDef*%
%ADD14RoundRect,0.237500X-0.300000X-0.237500X0.300000X-0.237500X0.300000X0.237500X-0.300000X0.237500X0*%
%TD*%
%TA.AperFunction,SMDPad,CuDef*%
%ADD15RoundRect,0.237500X-0.237500X0.300000X-0.237500X-0.300000X0.237500X-0.300000X0.237500X0.300000X0*%
%TD*%
%TA.AperFunction,SMDPad,CuDef*%
%ADD16R,5.600000X2.100000*%
%TD*%
%TA.AperFunction,SMDPad,CuDef*%
%ADD17RoundRect,0.237500X0.300000X0.237500X-0.300000X0.237500X-0.300000X-0.237500X0.300000X-0.237500X0*%
%TD*%
%TA.AperFunction,ComponentPad*%
%ADD18C,3.600000*%
%TD*%
%TA.AperFunction,ConnectorPad*%
%ADD19C,5.500000*%
%TD*%
%TA.AperFunction,SMDPad,CuDef*%
%ADD20R,3.500000X1.000000*%
%TD*%
%TA.AperFunction,SMDPad,CuDef*%
%ADD21R,3.400000X1.500000*%
%TD*%
%TA.AperFunction,SMDPad,CuDef*%
%ADD22R,1.454899X0.558000*%
%TD*%
%TA.AperFunction,SMDPad,CuDef*%
%ADD23R,1.701800X0.812800*%
%TD*%
%TA.AperFunction,SMDPad,CuDef*%
%ADD24R,3.098800X2.209800*%
%TD*%
%TA.AperFunction,SMDPad,CuDef*%
%ADD25RoundRect,0.030000X-0.970000X1.470000X-0.970000X-1.470000X0.970000X-1.470000X0.970000X1.470000X0*%
%TD*%
%TA.AperFunction,SMDPad,CuDef*%
%ADD26RoundRect,0.026000X-0.624000X1.124000X-0.624000X-1.124000X0.624000X-1.124000X0.624000X1.124000X0*%
%TD*%
%TA.AperFunction,SMDPad,CuDef*%
%ADD27RoundRect,0.026000X-1.124000X0.624000X-1.124000X-0.624000X1.124000X-0.624000X1.124000X0.624000X0*%
%TD*%
%TA.AperFunction,SMDPad,CuDef*%
%ADD28C,1.500000*%
%TD*%
%TA.AperFunction,SMDPad,CuDef*%
%ADD29R,1.639799X0.431000*%
%TD*%
%TA.AperFunction,ViaPad*%
%ADD30C,0.600000*%
%TD*%
%TA.AperFunction,Conductor*%
%ADD31C,0.200000*%
%TD*%
G04 APERTURE END LIST*
D10*
%TO.P,U2,1,VIN*%
%TO.N,5BVCC*%
X176464001Y-89150449D03*
%TO.P,U2,2,GND*%
%TO.N,Earth*%
X175514000Y-89150449D03*
%TO.P,U2,3,EN*%
%TO.N,5BVCC*%
X174563999Y-89150449D03*
%TO.P,U2,4,NC*%
%TO.N,unconnected-(U2-NC-Pad4)*%
X174563999Y-91697551D03*
%TO.P,U2,5,VOUT*%
%TO.N,REF3.3*%
X176464001Y-91697551D03*
%TD*%
D11*
%TO.P,C15,1*%
%TO.N,/S1-*%
X181610000Y-102362000D03*
%TO.P,C15,2*%
%TO.N,Earth*%
X181610000Y-100637000D03*
%TD*%
D12*
%TO.P,R13,1*%
%TO.N,/RESET*%
X179427500Y-92456000D03*
%TO.P,R13,2*%
%TO.N,Net-(U5-A3{slash}D3)*%
X181252500Y-92456000D03*
%TD*%
%TO.P,R8,1*%
%TO.N,Net-(J1-Pad6)*%
X177631000Y-112104000D03*
%TO.P,R8,2*%
%TO.N,/S3-*%
X179456000Y-112104000D03*
%TD*%
D13*
%TO.P,R1,1*%
%TO.N,Net-(U4-VOUT)*%
X189534000Y-84836000D03*
%TO.P,R1,2*%
%TO.N,Net-(U3-IN+)*%
X187709000Y-84836000D03*
%TD*%
D14*
%TO.P,C9,1*%
%TO.N,Earth*%
X198019500Y-110236000D03*
%TO.P,C9,2*%
%TO.N,5BVCC*%
X199744500Y-110236000D03*
%TD*%
D15*
%TO.P,C1,1*%
%TO.N,Earth*%
X172702000Y-89547500D03*
%TO.P,C1,2*%
%TO.N,5BVCC*%
X172702000Y-91272500D03*
%TD*%
D16*
%TO.P,Y1,1*%
%TO.N,/XTAL2*%
X190170000Y-124460000D03*
%TO.P,Y1,2*%
%TO.N,/XTAL1*%
X180670000Y-124460000D03*
%TD*%
D11*
%TO.P,C7,1*%
%TO.N,Earth*%
X178054000Y-88238500D03*
%TO.P,C7,2*%
%TO.N,5BVCC*%
X178054000Y-86513500D03*
%TD*%
D17*
%TO.P,C8,1*%
%TO.N,Earth*%
X183742500Y-119787500D03*
%TO.P,C8,2*%
%TO.N,5BVCC*%
X182017500Y-119787500D03*
%TD*%
D13*
%TO.P,R16,1*%
%TO.N,Net-(U5-D10{slash}MOSI)*%
X176934500Y-93726000D03*
%TO.P,R16,2*%
%TO.N,/DIN*%
X175109500Y-93726000D03*
%TD*%
D18*
%TO.P,H2,1*%
%TO.N,N/C*%
X174000000Y-84200000D03*
D19*
X174000000Y-84200000D03*
%TD*%
D20*
%TO.P,P1,1,1*%
%TO.N,5BVCC*%
X197023000Y-116824000D03*
%TO.P,P1,2,2*%
%TO.N,Earth*%
X197023000Y-114824000D03*
D21*
%TO.P,P1,P1*%
%TO.N,N/C*%
X202773000Y-119174000D03*
%TO.P,P1,P2*%
X202773000Y-112474000D03*
%TD*%
D18*
%TO.P,H4,1*%
%TO.N,N/C*%
X201500000Y-124200000D03*
D19*
X201500000Y-124200000D03*
%TD*%
D18*
%TO.P,H1,1*%
%TO.N,N/C*%
X201500000Y-84200000D03*
D19*
X201500000Y-84200000D03*
%TD*%
D11*
%TO.P,C3,1*%
%TO.N,Earth*%
X181864000Y-90524500D03*
%TO.P,C3,2*%
%TO.N,5BVCC*%
X181864000Y-88799500D03*
%TD*%
D22*
%TO.P,U3,1,NC*%
%TO.N,unconnected-(U3-NC-Pad1)*%
X185601348Y-86551500D03*
%TO.P,U3,2,IN-*%
%TO.N,REF2.5*%
X185601348Y-85281500D03*
%TO.P,U3,3,IN+*%
%TO.N,Net-(U3-IN+)*%
X185601348Y-84011500D03*
%TO.P,U3,4,V-*%
%TO.N,Earth*%
X185601348Y-82741500D03*
%TO.P,U3,5,NC*%
%TO.N,unconnected-(U3-NC-Pad5)*%
X180158652Y-82741500D03*
%TO.P,U3,6,OUTPUT*%
%TO.N,REF2.5*%
X180158652Y-84011500D03*
%TO.P,U3,7,V+*%
%TO.N,5BVCC*%
X180158652Y-85281500D03*
%TO.P,U3,8,NC*%
%TO.N,unconnected-(U3-NC-Pad8)*%
X180158652Y-86551500D03*
%TD*%
D23*
%TO.P,J1,1,1*%
%TO.N,Net-(J1-Pad1)*%
X175514000Y-104280000D03*
%TO.P,J1,2,2*%
%TO.N,Net-(J1-Pad2)*%
X175514000Y-105530000D03*
%TO.P,J1,3,3*%
%TO.N,Net-(J1-Pad3)*%
X175514000Y-106780000D03*
%TO.P,J1,4,4*%
%TO.N,Net-(J1-Pad4)*%
X175514000Y-108030000D03*
%TO.P,J1,5,5*%
%TO.N,Net-(J1-Pad5)*%
X175514000Y-109280000D03*
%TO.P,J1,6,6*%
%TO.N,Net-(J1-Pad6)*%
X175514000Y-110530000D03*
%TO.P,J1,7,7*%
%TO.N,Net-(J1-Pad7)*%
X175514000Y-111780000D03*
%TO.P,J1,8,8*%
%TO.N,Net-(J1-Pad8)*%
X175514000Y-113030000D03*
%TO.P,J1,9,9*%
%TO.N,Earth*%
X175514000Y-114280000D03*
%TO.P,J1,10,10*%
%TO.N,5BVCC*%
X175514000Y-115530000D03*
D24*
%TO.P,J1,11*%
%TO.N,N/C*%
X172614001Y-118080000D03*
%TO.P,J1,12*%
X172614001Y-101730000D03*
%TD*%
D17*
%TO.P,C23,1*%
%TO.N,Earth*%
X179486000Y-117274000D03*
%TO.P,C23,2*%
%TO.N,5BVCC*%
X177761000Y-117274000D03*
%TD*%
D14*
%TO.P,C21,1*%
%TO.N,/S4-*%
X181323000Y-118110000D03*
%TO.P,C21,2*%
%TO.N,Earth*%
X183048000Y-118110000D03*
%TD*%
D12*
%TO.P,R7,1*%
%TO.N,Net-(J1-Pad5)*%
X177631000Y-110282000D03*
%TO.P,R7,2*%
%TO.N,/S3+*%
X179456000Y-110282000D03*
%TD*%
D13*
%TO.P,R14,1*%
%TO.N,Net-(U5-D8{slash}SCK)*%
X176934500Y-97282000D03*
%TO.P,R14,2*%
%TO.N,/SCLK*%
X175109500Y-97282000D03*
%TD*%
D11*
%TO.P,C10,1*%
%TO.N,Earth*%
X194596000Y-126370500D03*
%TO.P,C10,2*%
%TO.N,REF3.3*%
X194596000Y-124645500D03*
%TD*%
%TO.P,C17,1*%
%TO.N,/S2-*%
X181610000Y-110082500D03*
%TO.P,C17,2*%
%TO.N,Earth*%
X181610000Y-108357500D03*
%TD*%
D18*
%TO.P,H3,1*%
%TO.N,N/C*%
X174000000Y-124200000D03*
D19*
X174000000Y-124200000D03*
%TD*%
D11*
%TO.P,C11,1*%
%TO.N,Earth*%
X196342000Y-126370500D03*
%TO.P,C11,2*%
%TO.N,REF3.3*%
X196342000Y-124645500D03*
%TD*%
D12*
%TO.P,R9,1*%
%TO.N,Net-(J1-Pad7)*%
X177631000Y-113882000D03*
%TO.P,R9,2*%
%TO.N,/S4+*%
X179456000Y-113882000D03*
%TD*%
D14*
%TO.P,C20,1*%
%TO.N,/S4+*%
X181409000Y-116332000D03*
%TO.P,C20,2*%
%TO.N,Earth*%
X183134000Y-116332000D03*
%TD*%
D25*
%TO.P,U5,0,A0/D0*%
%TO.N,Net-(U5-A0{slash}D0)*%
X201168000Y-90560000D03*
%TO.P,U5,1,A1/D1*%
%TO.N,Net-(U5-A1{slash}D1)*%
X198628000Y-90560000D03*
%TO.P,U5,2,A2/D2*%
%TO.N,Net-(U5-A2{slash}D2)*%
X196088000Y-90560000D03*
%TO.P,U5,3,A3/D3*%
%TO.N,Net-(U5-A3{slash}D3)*%
X193548000Y-90560000D03*
%TO.P,U5,3V3,3V3*%
%TO.N,unconnected-(U5-Pad3V3)*%
X196088000Y-107560000D03*
%TO.P,U5,4,A4/D4*%
%TO.N,unconnected-(U5-A4{slash}D4-Pad4)*%
X191008000Y-90560000D03*
%TO.P,U5,5,A5/D5*%
%TO.N,unconnected-(U5-A5{slash}D5-Pad5)*%
X188468000Y-90560000D03*
%TO.P,U5,6,D6/TX*%
%TO.N,unconnected-(U5-D6{slash}TX-Pad6)*%
X185928000Y-90560000D03*
%TO.P,U5,7,D7/RX*%
%TO.N,unconnected-(U5-D7{slash}RX-Pad7)*%
X185928000Y-107560000D03*
%TO.P,U5,8,D8/SCK*%
%TO.N,Net-(U5-D8{slash}SCK)*%
X188468000Y-107560000D03*
%TO.P,U5,9,D9/MISO*%
%TO.N,Net-(U5-D9{slash}MISO)*%
X191008000Y-107560000D03*
%TO.P,U5,10,D10/MOSI*%
%TO.N,Net-(U5-D10{slash}MOSI)*%
X193548000Y-107560000D03*
D26*
%TO.P,U5,BAT_N,BAT-*%
%TO.N,unconnected-(U5-BAT--PadBAT_N)*%
X195748000Y-94560000D03*
%TO.P,U5,BAT_P,BAT+*%
%TO.N,unconnected-(U5-BAT+-PadBAT_P)*%
X193848000Y-94560000D03*
D25*
%TO.P,U5,GND,GND*%
%TO.N,Earth*%
X198628000Y-107560000D03*
D27*
%TO.P,U5,NFC1,NFC1*%
%TO.N,unconnected-(U5-PadNFC1)*%
X184298000Y-102860000D03*
%TO.P,U5,NFC2,NFC2*%
%TO.N,unconnected-(U5-PadNFC2)*%
X184298000Y-104760000D03*
D28*
%TO.P,U5,TP1,GND__1*%
%TO.N,unconnected-(U5-GND__1-PadTP1)*%
X199398000Y-100330000D03*
%TO.P,U5,TP2,~{RST}*%
%TO.N,unconnected-(U5-~{RST}-PadTP2)*%
X199398000Y-97790000D03*
%TO.P,U5,TP3,CLK*%
%TO.N,unconnected-(U5-CLK-PadTP3)*%
X201938000Y-100330000D03*
%TO.P,U5,TP5,DIO*%
%TO.N,unconnected-(U5-DIO-PadTP5)*%
X201938000Y-97790000D03*
D25*
%TO.P,U5,VUSB,VUSB*%
%TO.N,5BVCC*%
X201168000Y-107560000D03*
%TD*%
D12*
%TO.P,R2,1*%
%TO.N,/DRDY*%
X179447500Y-97790000D03*
%TO.P,R2,2*%
%TO.N,Net-(U5-A0{slash}D0)*%
X181272500Y-97790000D03*
%TD*%
D13*
%TO.P,R15,1*%
%TO.N,Net-(U5-D9{slash}MISO)*%
X176934500Y-95504000D03*
%TO.P,R15,2*%
%TO.N,/DOUT*%
X175109500Y-95504000D03*
%TD*%
D14*
%TO.P,C6,1*%
%TO.N,Earth*%
X177345000Y-120650000D03*
%TO.P,C6,2*%
%TO.N,REF2.5*%
X179070000Y-120650000D03*
%TD*%
D12*
%TO.P,R3,1*%
%TO.N,Net-(J1-Pad1)*%
X177549000Y-103214000D03*
%TO.P,R3,2*%
%TO.N,/S1+*%
X179374000Y-103214000D03*
%TD*%
D11*
%TO.P,C16,1*%
%TO.N,/S2+*%
X181610000Y-106172000D03*
%TO.P,C16,2*%
%TO.N,Earth*%
X181610000Y-104447000D03*
%TD*%
D17*
%TO.P,C13,1*%
%TO.N,Earth*%
X196188500Y-122936000D03*
%TO.P,C13,2*%
%TO.N,/XTAL2*%
X194463500Y-122936000D03*
%TD*%
D12*
%TO.P,R4,1*%
%TO.N,Net-(J1-Pad2)*%
X177549000Y-104992000D03*
%TO.P,R4,2*%
%TO.N,/S1-*%
X179374000Y-104992000D03*
%TD*%
D14*
%TO.P,C18,1*%
%TO.N,/S3+*%
X181409000Y-112776000D03*
%TO.P,C18,2*%
%TO.N,Earth*%
X183134000Y-112776000D03*
%TD*%
D12*
%TO.P,R6,1*%
%TO.N,Net-(J1-Pad4)*%
X177549000Y-108548000D03*
%TO.P,R6,2*%
%TO.N,/S2-*%
X179374000Y-108548000D03*
%TD*%
%TO.P,R11,1*%
%TO.N,/CS*%
X179467500Y-96012000D03*
%TO.P,R11,2*%
%TO.N,Net-(U5-A1{slash}D1)*%
X181292500Y-96012000D03*
%TD*%
%TO.P,R5,1*%
%TO.N,Net-(J1-Pad3)*%
X177549000Y-106770000D03*
%TO.P,R5,2*%
%TO.N,/S2+*%
X179374000Y-106770000D03*
%TD*%
D11*
%TO.P,C14,1*%
%TO.N,/S1+*%
X178816000Y-101446500D03*
%TO.P,C14,2*%
%TO.N,Earth*%
X178816000Y-99721500D03*
%TD*%
D22*
%TO.P,U4,1,DNC*%
%TO.N,unconnected-(U4-DNC-Pad1)*%
X197212696Y-87336000D03*
%TO.P,U4,2,VIN*%
%TO.N,5BVCC*%
X197212696Y-86066000D03*
%TO.P,U4,3,TEMP*%
%TO.N,unconnected-(U4-TEMP-Pad3)*%
X197212696Y-84796000D03*
%TO.P,U4,4,GND*%
%TO.N,Earth*%
X197212696Y-83526000D03*
%TO.P,U4,5,TRIM/NR*%
%TO.N,Net-(U4-TRIM{slash}NR)*%
X191770000Y-83526000D03*
%TO.P,U4,6,VOUT*%
%TO.N,Net-(U4-VOUT)*%
X191770000Y-84796000D03*
%TO.P,U4,7,NC*%
%TO.N,unconnected-(U4-NC-Pad7)*%
X191770000Y-86066000D03*
%TO.P,U4,8,DNC*%
%TO.N,unconnected-(U4-DNC-Pad8)*%
X191770000Y-87336000D03*
%TD*%
D17*
%TO.P,C5,1*%
%TO.N,Earth*%
X189484000Y-86614000D03*
%TO.P,C5,2*%
%TO.N,Net-(U3-IN+)*%
X187759000Y-86614000D03*
%TD*%
%TO.P,C12,1*%
%TO.N,Earth*%
X196188500Y-121412000D03*
%TO.P,C12,2*%
%TO.N,/XTAL1*%
X194463500Y-121412000D03*
%TD*%
D12*
%TO.P,R12,1*%
%TO.N,/SYNC{slash}PDWN*%
X179427500Y-94234000D03*
%TO.P,R12,2*%
%TO.N,Net-(U5-A2{slash}D2)*%
X181252500Y-94234000D03*
%TD*%
D29*
%TO.P,U1,1,AVDD*%
%TO.N,5BVCC*%
X185851800Y-111599000D03*
%TO.P,U1,2,AGND*%
%TO.N,Earth*%
X185851800Y-112249001D03*
%TO.P,U1,3,VREFN*%
X185851800Y-112899000D03*
%TO.P,U1,4,VREFP*%
%TO.N,REF2.5*%
X185851800Y-113549001D03*
%TO.P,U1,5,AINCOM*%
%TO.N,Earth*%
X185851800Y-114198999D03*
%TO.P,U1,6,AIN0*%
%TO.N,/S1+*%
X185851800Y-114849001D03*
%TO.P,U1,7,AIN1*%
%TO.N,/S1-*%
X185851800Y-115498999D03*
%TO.P,U1,8,AIN2*%
%TO.N,/S2+*%
X185851800Y-116148998D03*
%TO.P,U1,9,AIN3*%
%TO.N,/S2-*%
X185851800Y-116798999D03*
%TO.P,U1,10,AIN4*%
%TO.N,/S3+*%
X185851800Y-117448998D03*
%TO.P,U1,11,AIN5*%
%TO.N,/S3-*%
X185851800Y-118098999D03*
%TO.P,U1,12,AIN6*%
%TO.N,/S4+*%
X185851800Y-118748998D03*
%TO.P,U1,13,AIN7*%
%TO.N,/S4-*%
X185851800Y-119398999D03*
%TO.P,U1,14,\u002ASYNC/\u002APDWN*%
%TO.N,/SYNC{slash}PDWN*%
X185851800Y-120048998D03*
%TO.P,U1,15,\u002ARESET*%
%TO.N,/RESET*%
X193116200Y-120049000D03*
%TO.P,U1,16,DVDD*%
%TO.N,REF3.3*%
X193116200Y-119398999D03*
%TO.P,U1,17,DGND*%
%TO.N,Earth*%
X193116200Y-118749000D03*
%TO.P,U1,18,XTAL2*%
%TO.N,/XTAL2*%
X193116200Y-118098999D03*
%TO.P,U1,19,XTAL1/CLKIN*%
%TO.N,/XTAL1*%
X193116200Y-117449001D03*
%TO.P,U1,20,\u002ACS*%
%TO.N,/CS*%
X193116200Y-116798999D03*
%TO.P,U1,21,\u002ADRDY*%
%TO.N,/DRDY*%
X193116200Y-116149001D03*
%TO.P,U1,22,DOUT*%
%TO.N,/DOUT*%
X193116200Y-115498999D03*
%TO.P,U1,23,DIN*%
%TO.N,/DIN*%
X193116200Y-114849001D03*
%TO.P,U1,24,SCLK*%
%TO.N,/SCLK*%
X193116200Y-114198999D03*
%TO.P,U1,25,D0/CLKOUT*%
%TO.N,unconnected-(U1-D0{slash}CLKOUT-Pad25)*%
X193116200Y-113549001D03*
%TO.P,U1,26,D1*%
%TO.N,unconnected-(U1-D1-Pad26)*%
X193116200Y-112899000D03*
%TO.P,U1,27,D2*%
%TO.N,unconnected-(U1-D2-Pad27)*%
X193116200Y-112249001D03*
%TO.P,U1,28,D3*%
%TO.N,unconnected-(U1-D3-Pad28)*%
X193116200Y-111599000D03*
%TD*%
D15*
%TO.P,C2,1*%
%TO.N,Earth*%
X179814000Y-88785500D03*
%TO.P,C2,2*%
%TO.N,REF3.3*%
X179814000Y-90510500D03*
%TD*%
D12*
%TO.P,R10,1*%
%TO.N,Net-(J1-Pad8)*%
X177631000Y-115660000D03*
%TO.P,R10,2*%
%TO.N,/S4-*%
X179456000Y-115660000D03*
%TD*%
D14*
%TO.P,C4,1*%
%TO.N,Earth*%
X187759000Y-82998000D03*
%TO.P,C4,2*%
%TO.N,Net-(U4-TRIM{slash}NR)*%
X189484000Y-82998000D03*
%TD*%
%TO.P,C19,1*%
%TO.N,/S3-*%
X181409000Y-114554000D03*
%TO.P,C19,2*%
%TO.N,Earth*%
X183134000Y-114554000D03*
%TD*%
D30*
%TO.N,Earth*%
X175496000Y-89140000D03*
X177345000Y-120650000D03*
X179764000Y-89168000D03*
X175514000Y-114280000D03*
X181610000Y-108357500D03*
X183134000Y-114554000D03*
X198660000Y-107560000D03*
X198019500Y-110194000D03*
X181610000Y-100637000D03*
X183048000Y-118110000D03*
X193116200Y-118749000D03*
X179223500Y-117184000D03*
X181610000Y-104447000D03*
X183134000Y-116332000D03*
X189141500Y-86614000D03*
X197190000Y-83566000D03*
X196188500Y-121412000D03*
X181854000Y-90182000D03*
X185601348Y-82741500D03*
X196188500Y-122936000D03*
X196342000Y-126370500D03*
X178054000Y-88238500D03*
X178816000Y-99721500D03*
X188031500Y-82968000D03*
X183742500Y-119787500D03*
X185851800Y-114198999D03*
X183134000Y-112776000D03*
X197196000Y-114824000D03*
X194596000Y-126370500D03*
X185851800Y-112899000D03*
X172612000Y-89860000D03*
%TO.N,REF3.3*%
X178816000Y-90935551D03*
X191773204Y-119129204D03*
%TO.N,REF2.5*%
X185743314Y-100514686D03*
X187245107Y-97750892D03*
X187198000Y-93556000D03*
X186436000Y-104902000D03*
X179296554Y-120423446D03*
X184411436Y-111752564D03*
X183942000Y-108625976D03*
X185601348Y-85281500D03*
X186952000Y-113399861D03*
%TO.N,/XTAL2*%
X191262000Y-120904000D03*
X191008000Y-121920000D03*
%TO.N,/S1+*%
X183642000Y-110744000D03*
X187952000Y-114679073D03*
%TO.N,/S2+*%
X183725736Y-109982000D03*
X183085000Y-107442000D03*
X181610000Y-106172000D03*
X187952000Y-115379076D03*
%TO.N,/DRDY*%
X191224000Y-116149001D03*
X180385000Y-97950077D03*
%TO.N,/CS*%
X180340000Y-96520000D03*
X186182000Y-109474000D03*
X183134000Y-105918000D03*
X191196436Y-115449543D03*
%TO.N,/SYNC{slash}PDWN*%
X190413230Y-115525642D03*
X190246000Y-117094000D03*
X187198000Y-119634000D03*
X179427500Y-94234000D03*
%TO.N,/RESET*%
X178308000Y-93472000D03*
X191770000Y-119888000D03*
X184431446Y-100556554D03*
X180340000Y-99314000D03*
%TO.N,/SCLK*%
X183642000Y-122428000D03*
X180086000Y-121158000D03*
X177761492Y-101384508D03*
X195072000Y-119380000D03*
%TO.N,/DOUT*%
X189992000Y-109982000D03*
X191016001Y-113854894D03*
X184150000Y-101600000D03*
X188581277Y-109614723D03*
%TO.N,/DIN*%
X193802000Y-109728000D03*
X184658000Y-96266000D03*
X191262000Y-109982000D03*
X191516000Y-113284000D03*
X185420000Y-97340000D03*
X194818000Y-105410000D03*
%TO.N,Net-(U5-D10{slash}MOSI)*%
X184150000Y-97340000D03*
X182140000Y-94457394D03*
%TD*%
D31*
%TO.N,Earth*%
X185851800Y-112249001D02*
X185851800Y-112899000D01*
%TO.N,REF3.3*%
X177480001Y-90935551D02*
X178816000Y-90935551D01*
X193116200Y-119398999D02*
X192042999Y-119398999D01*
X193116200Y-119398999D02*
X193901598Y-119398999D01*
X179388949Y-90935551D02*
X179814000Y-90510500D01*
X195201000Y-124040500D02*
X194596000Y-124645500D01*
X195201000Y-120698401D02*
X195201000Y-124040500D01*
X196342000Y-124645500D02*
X194596000Y-124645500D01*
X192042999Y-119398999D02*
X191773204Y-119129204D01*
X176718001Y-91697551D02*
X177480001Y-90935551D01*
X178816000Y-90935551D02*
X179388949Y-90935551D01*
X193901598Y-119398999D02*
X195201000Y-120698401D01*
%TO.N,Net-(U4-TRIM{slash}NR)*%
X191242000Y-82998000D02*
X191770000Y-83526000D01*
X189484000Y-82998000D02*
X191242000Y-82998000D01*
%TO.N,Net-(U3-IN+)*%
X187709000Y-84836000D02*
X186884500Y-84011500D01*
X187759000Y-84886000D02*
X187709000Y-84836000D01*
X187759000Y-86614000D02*
X187759000Y-84886000D01*
X186884500Y-84011500D02*
X185601348Y-84011500D01*
%TO.N,REF2.5*%
X178916500Y-120803500D02*
X178916500Y-120904000D01*
X187245107Y-97750892D02*
X187245107Y-93603107D01*
X184411436Y-109960593D02*
X184411436Y-111752564D01*
X182880000Y-84074000D02*
X184087500Y-85281500D01*
X186952000Y-113399861D02*
X186802860Y-113549001D01*
X180158652Y-84011500D02*
X180607101Y-84011500D01*
X179070000Y-120650000D02*
X178916500Y-120803500D01*
X187245107Y-93603107D02*
X187198000Y-93556000D01*
X186802860Y-113549001D02*
X185851800Y-113549001D01*
X183942000Y-108625976D02*
X183942000Y-109491157D01*
X185743314Y-100514686D02*
X186436000Y-101207372D01*
X184087500Y-85281500D02*
X185601348Y-85281500D01*
X186436000Y-101207372D02*
X186436000Y-104902000D01*
X180669601Y-84074000D02*
X182880000Y-84074000D01*
X180607101Y-84011500D02*
X180669601Y-84074000D01*
X183942000Y-109491157D02*
X184411436Y-109960593D01*
X179296554Y-120423446D02*
X179070000Y-120650000D01*
%TO.N,/XTAL1*%
X185674000Y-124460000D02*
X180670000Y-124460000D01*
X180670000Y-124460000D02*
X180670000Y-124206000D01*
X188722000Y-121412000D02*
X185674000Y-124460000D01*
X190962000Y-120188000D02*
X190962000Y-118809036D01*
X194463500Y-121412000D02*
X188722000Y-121412000D01*
X189738000Y-121412000D02*
X190962000Y-120188000D01*
X194463500Y-121412000D02*
X194209500Y-121666000D01*
X192322035Y-117449001D02*
X193116200Y-117449001D01*
X190962000Y-118809036D02*
X192322035Y-117449001D01*
%TO.N,/XTAL2*%
X193193500Y-124460000D02*
X190170000Y-124460000D01*
X194209500Y-123444000D02*
X193193500Y-124460000D01*
X192096301Y-118098999D02*
X193116200Y-118098999D01*
X191262000Y-118933300D02*
X192096301Y-118098999D01*
X190932000Y-123698000D02*
X190170000Y-124460000D01*
X190170000Y-124460000D02*
X190170000Y-122758000D01*
X191262000Y-120904000D02*
X191262000Y-118933300D01*
X190170000Y-122758000D02*
X191008000Y-121920000D01*
%TO.N,/S1+*%
X182585000Y-102174200D02*
X181857300Y-101446500D01*
X187952000Y-114679073D02*
X186807125Y-114679073D01*
X181141500Y-101446500D02*
X179374000Y-103214000D01*
X182585000Y-110208972D02*
X182585000Y-102174200D01*
X179374000Y-102004500D02*
X178816000Y-101446500D01*
X181857300Y-101446500D02*
X181141500Y-101446500D01*
X179374000Y-103214000D02*
X179374000Y-102004500D01*
X186807125Y-114679073D02*
X186637197Y-114849001D01*
X186637197Y-114849001D02*
X185851800Y-114849001D01*
X183120028Y-110744000D02*
X182585000Y-110208972D01*
X183642000Y-110744000D02*
X183120028Y-110744000D01*
%TO.N,/S1-*%
X185066399Y-115498999D02*
X184771500Y-115204100D01*
X184771500Y-112819736D02*
X182285000Y-110333236D01*
X181610000Y-102362000D02*
X179374000Y-104598000D01*
X182285000Y-110333236D02*
X182285000Y-103037000D01*
X184771500Y-115204100D02*
X184771500Y-112819736D01*
X179374000Y-104598000D02*
X179374000Y-104992000D01*
X185851800Y-115498999D02*
X185066399Y-115498999D01*
X182285000Y-103037000D02*
X181610000Y-102362000D01*
%TO.N,/S2+*%
X183134000Y-109826000D02*
X183134000Y-107491000D01*
X183725736Y-109982000D02*
X183290000Y-109982000D01*
X187641621Y-115379076D02*
X186871699Y-116148998D01*
X187952000Y-115379076D02*
X187641621Y-115379076D01*
X179374000Y-106770000D02*
X181012000Y-106770000D01*
X183134000Y-107491000D02*
X183085000Y-107442000D01*
X183290000Y-109982000D02*
X183134000Y-109826000D01*
X181012000Y-106770000D02*
X181610000Y-106172000D01*
X186871699Y-116148998D02*
X185851800Y-116148998D01*
%TO.N,/S2-*%
X185066402Y-116798999D02*
X184471500Y-116204097D01*
X179374000Y-108548000D02*
X180075500Y-108548000D01*
X184471500Y-112944000D02*
X181610000Y-110082500D01*
X185851800Y-116798999D02*
X185066402Y-116798999D01*
X180075500Y-108548000D02*
X181610000Y-110082500D01*
X184471500Y-116204097D02*
X184471500Y-112944000D01*
%TO.N,/S3+*%
X179456000Y-110823000D02*
X181409000Y-112776000D01*
X184171500Y-116554098D02*
X184171500Y-114428700D01*
X183280800Y-113538000D02*
X182171000Y-113538000D01*
X179456000Y-110282000D02*
X179456000Y-110823000D01*
X185851800Y-117448998D02*
X185066400Y-117448998D01*
X185066400Y-117448998D02*
X184171500Y-116554098D01*
X182171000Y-113538000D02*
X181409000Y-112776000D01*
X184171500Y-114428700D02*
X183280800Y-113538000D01*
%TO.N,/S3-*%
X183301000Y-115229000D02*
X182084000Y-115229000D01*
X179456000Y-112104000D02*
X179456000Y-112601000D01*
X183871500Y-116904097D02*
X183871500Y-115799500D01*
X182084000Y-115229000D02*
X181409000Y-114554000D01*
X185851800Y-118098999D02*
X185066402Y-118098999D01*
X183871500Y-115799500D02*
X183301000Y-115229000D01*
X179456000Y-112601000D02*
X181409000Y-114554000D01*
X185066402Y-118098999D02*
X183871500Y-116904097D01*
%TO.N,/S4+*%
X185066400Y-118748998D02*
X183324402Y-117007000D01*
X185851800Y-118748998D02*
X185066400Y-118748998D01*
X183324402Y-117007000D02*
X182084000Y-117007000D01*
X182084000Y-117007000D02*
X181409000Y-116332000D01*
X179456000Y-113882000D02*
X179456000Y-114379000D01*
X179456000Y-114379000D02*
X181409000Y-116332000D01*
%TO.N,/S4-*%
X184831901Y-119398999D02*
X184217902Y-118785000D01*
X181323000Y-117408800D02*
X181323000Y-118110000D01*
X184217902Y-118785000D02*
X181998000Y-118785000D01*
X181998000Y-118785000D02*
X181323000Y-118110000D01*
X179456000Y-115660000D02*
X179574200Y-115660000D01*
X185851800Y-119398999D02*
X184831901Y-119398999D01*
X179574200Y-115660000D02*
X181323000Y-117408800D01*
%TO.N,Net-(J1-Pad3)*%
X175514000Y-106780000D02*
X177539000Y-106780000D01*
X177539000Y-106780000D02*
X177549000Y-106770000D01*
%TO.N,Net-(J1-Pad4)*%
X176032000Y-108548000D02*
X175514000Y-108030000D01*
X177549000Y-108548000D02*
X176032000Y-108548000D01*
%TO.N,Net-(J1-Pad5)*%
X176629000Y-109280000D02*
X175514000Y-109280000D01*
X177631000Y-110282000D02*
X176629000Y-109280000D01*
%TO.N,Net-(J1-Pad1)*%
X176580000Y-103214000D02*
X177549000Y-103214000D01*
X175514000Y-104280000D02*
X176580000Y-103214000D01*
%TO.N,Net-(J1-Pad6)*%
X176057000Y-110530000D02*
X175514000Y-110530000D01*
X177631000Y-112104000D02*
X176057000Y-110530000D01*
%TO.N,Net-(J1-Pad7)*%
X177631000Y-113882000D02*
X177631000Y-113407000D01*
X177631000Y-113407000D02*
X176004000Y-111780000D01*
X176004000Y-111780000D02*
X175514000Y-111780000D01*
%TO.N,Net-(J1-Pad8)*%
X176784000Y-113892700D02*
X175921300Y-113030000D01*
X177631000Y-115660000D02*
X176784000Y-114813000D01*
X176784000Y-114813000D02*
X176784000Y-113892700D01*
X175921300Y-113030000D02*
X175514000Y-113030000D01*
%TO.N,Net-(J1-Pad2)*%
X175514000Y-105530000D02*
X177011000Y-105530000D01*
X177011000Y-105530000D02*
X177549000Y-104992000D01*
%TO.N,Net-(U4-VOUT)*%
X191730000Y-84836000D02*
X191770000Y-84796000D01*
X189534000Y-84836000D02*
X191730000Y-84836000D01*
%TO.N,Net-(U5-A0{slash}D0)*%
X200268000Y-93356000D02*
X201168000Y-92456000D01*
X187085107Y-98298000D02*
X194564000Y-98298000D01*
X181272500Y-97790000D02*
X181647500Y-98165000D01*
X196850000Y-96012000D02*
X196850000Y-94234000D01*
X182972500Y-96840000D02*
X185627107Y-96840000D01*
X181647500Y-98165000D02*
X182972500Y-96840000D01*
X201168000Y-92456000D02*
X201168000Y-90560000D01*
X197728000Y-93356000D02*
X200268000Y-93356000D01*
X185627107Y-96840000D02*
X187085107Y-98298000D01*
X194564000Y-98298000D02*
X196850000Y-96012000D01*
X196850000Y-94234000D02*
X197728000Y-93356000D01*
%TO.N,/DRDY*%
X179447500Y-97790000D02*
X180224923Y-97790000D01*
X191224000Y-116149001D02*
X193116200Y-116149001D01*
X180224923Y-97790000D02*
X180385000Y-97950077D01*
%TO.N,Net-(U5-A1{slash}D1)*%
X198628000Y-92059999D02*
X198628000Y-90560000D01*
X184248500Y-93056000D02*
X197631999Y-93056000D01*
X197631999Y-93056000D02*
X198628000Y-92059999D01*
X181292500Y-96012000D02*
X184248500Y-93056000D01*
%TO.N,/CS*%
X180340000Y-96520000D02*
X179975500Y-96520000D01*
X186182000Y-109474000D02*
X184658000Y-109474000D01*
X184442000Y-107226000D02*
X183134000Y-105918000D01*
X190712999Y-116798999D02*
X193116200Y-116798999D01*
X191196436Y-115449543D02*
X190500000Y-116145979D01*
X190500000Y-116586000D02*
X190712999Y-116798999D01*
X184442000Y-109258000D02*
X184442000Y-107226000D01*
X179975500Y-96520000D02*
X179467500Y-96012000D01*
X184658000Y-109474000D02*
X184442000Y-109258000D01*
X190500000Y-116145979D02*
X190500000Y-116586000D01*
%TO.N,/SYNC{slash}PDWN*%
X190200000Y-117048000D02*
X190200000Y-115738872D01*
X186783002Y-120048998D02*
X187198000Y-119634000D01*
X190200000Y-115738872D02*
X190413230Y-115525642D01*
X190246000Y-117094000D02*
X190200000Y-117048000D01*
X185851800Y-120048998D02*
X186783002Y-120048998D01*
%TO.N,Net-(U5-A2{slash}D2)*%
X195391999Y-92756000D02*
X196088000Y-92059999D01*
X196088000Y-92059999D02*
X196088000Y-90560000D01*
X182730500Y-92756000D02*
X195391999Y-92756000D01*
X181252500Y-94234000D02*
X182730500Y-92756000D01*
%TO.N,Net-(U5-A3{slash}D3)*%
X193151999Y-92456000D02*
X193548000Y-92059999D01*
X181252500Y-92456000D02*
X193151999Y-92456000D01*
X193548000Y-92059999D02*
X193548000Y-90560000D01*
%TO.N,/RESET*%
X178411500Y-93472000D02*
X179427500Y-92456000D01*
X184431446Y-100556554D02*
X183188892Y-99314000D01*
X183188892Y-99314000D02*
X180340000Y-99314000D01*
X193116200Y-120049000D02*
X191931000Y-120049000D01*
X178308000Y-93472000D02*
X178411500Y-93472000D01*
X191931000Y-120049000D02*
X191770000Y-119888000D01*
%TO.N,Net-(U5-D8{slash}SCK)*%
X188468000Y-102532264D02*
X184700736Y-98765000D01*
X184700736Y-98765000D02*
X178469250Y-98765000D01*
X178469250Y-98765000D02*
X176986250Y-97282000D01*
X176986250Y-97282000D02*
X176934500Y-97282000D01*
X188468000Y-107560000D02*
X188468000Y-102532264D01*
%TO.N,/SCLK*%
X183642000Y-122428000D02*
X183134000Y-121920000D01*
X194310000Y-114372900D02*
X194136099Y-114198999D01*
X177761492Y-101384507D02*
X175109500Y-98732515D01*
X183134000Y-121920000D02*
X180848000Y-121920000D01*
X194310000Y-118618000D02*
X194310000Y-114372900D01*
X175109500Y-98732515D02*
X175109500Y-97282000D01*
X195072000Y-119380000D02*
X194310000Y-118618000D01*
X177761492Y-101384508D02*
X177761492Y-101384507D01*
X180848000Y-121920000D02*
X180086000Y-121158000D01*
X194136099Y-114198999D02*
X193116200Y-114198999D01*
%TO.N,Net-(U5-D9{slash}MISO)*%
X191008000Y-104648000D02*
X184825000Y-98465000D01*
X177622000Y-97282000D02*
X177622000Y-96191500D01*
X177622000Y-96191500D02*
X176934500Y-95504000D01*
X178805000Y-98465000D02*
X177622000Y-97282000D01*
X191008000Y-107560000D02*
X191008000Y-104648000D01*
X184825000Y-98465000D02*
X178805000Y-98465000D01*
%TO.N,/DOUT*%
X175797000Y-98073000D02*
X175797000Y-96191500D01*
X175797000Y-96191500D02*
X175109500Y-95504000D01*
X192095001Y-115498999D02*
X192095001Y-115037463D01*
X179957000Y-99822000D02*
X179195000Y-100584000D01*
X189665892Y-109982000D02*
X189298615Y-109614723D01*
X192095001Y-115037463D02*
X191008000Y-113950462D01*
X184150000Y-101600000D02*
X182372000Y-99822000D01*
X182372000Y-99822000D02*
X179957000Y-99822000D01*
X179195000Y-100584000D02*
X178308000Y-100584000D01*
X191008000Y-113950462D02*
X191008000Y-113846893D01*
X189298615Y-109614723D02*
X188581277Y-109614723D01*
X191008000Y-113846893D02*
X191016001Y-113854894D01*
X189992000Y-109982000D02*
X189665892Y-109982000D01*
X193116200Y-115498999D02*
X192095001Y-115498999D01*
X178308000Y-100584000D02*
X175797000Y-98073000D01*
%TO.N,/DIN*%
X177922000Y-95378700D02*
X177031300Y-94488000D01*
X193116200Y-114849001D02*
X192330803Y-114849001D01*
X175871500Y-94488000D02*
X175109500Y-93726000D01*
X193548000Y-105410000D02*
X185478000Y-97340000D01*
X185478000Y-97340000D02*
X185420000Y-97340000D01*
X182151300Y-96266000D02*
X181397300Y-97020000D01*
X184658000Y-96266000D02*
X182151300Y-96266000D01*
X193802000Y-109728000D02*
X191516000Y-109728000D01*
X194818000Y-105410000D02*
X193548000Y-105410000D01*
X177922000Y-96067236D02*
X177922000Y-95378700D01*
X177031300Y-94488000D02*
X175871500Y-94488000D01*
X178874764Y-97020000D02*
X177922000Y-96067236D01*
X191516000Y-109728000D02*
X191262000Y-109982000D01*
X181397300Y-97020000D02*
X178874764Y-97020000D01*
X192330803Y-114849001D02*
X191516000Y-114034198D01*
X191516000Y-114034198D02*
X191516000Y-113284000D01*
%TO.N,Net-(U5-D10{slash}MOSI)*%
X193548000Y-107560000D02*
X193548000Y-106738000D01*
X182140000Y-94457394D02*
X182140000Y-94459300D01*
X181690300Y-94909000D02*
X178117500Y-94909000D01*
X193548000Y-106738000D02*
X184150000Y-97340000D01*
X182140000Y-94459300D02*
X181690300Y-94909000D01*
X178117500Y-94909000D02*
X176934500Y-93726000D01*
%TD*%
%TA.AperFunction,Conductor*%
%TO.N,5BVCC*%
G36*
X199351574Y-81546185D02*
G01*
X199397329Y-81598989D01*
X199407273Y-81668147D01*
X199378248Y-81731703D01*
X199369810Y-81740523D01*
X199136685Y-81961350D01*
X198908505Y-82229983D01*
X198908498Y-82229993D01*
X198710695Y-82521730D01*
X198545597Y-82833137D01*
X198545586Y-82833160D01*
X198526721Y-82880507D01*
X198483620Y-82935498D01*
X198417630Y-82958458D01*
X198349704Y-82942096D01*
X198312264Y-82908919D01*
X198297692Y-82889454D01*
X198297690Y-82889453D01*
X198297690Y-82889452D01*
X198182481Y-82803206D01*
X198182474Y-82803202D01*
X198047628Y-82752908D01*
X198047629Y-82752908D01*
X197988029Y-82746501D01*
X197988027Y-82746500D01*
X197988019Y-82746500D01*
X197988010Y-82746500D01*
X196437375Y-82746500D01*
X196437369Y-82746501D01*
X196377762Y-82752908D01*
X196242917Y-82803202D01*
X196242910Y-82803206D01*
X196127701Y-82889452D01*
X196127698Y-82889455D01*
X196041452Y-83004664D01*
X196041448Y-83004671D01*
X195991156Y-83139513D01*
X195991155Y-83139517D01*
X195984746Y-83199127D01*
X195984746Y-83199134D01*
X195984746Y-83199135D01*
X195984746Y-83852870D01*
X195984747Y-83852876D01*
X195991154Y-83912483D01*
X196041448Y-84047328D01*
X196041452Y-84047334D01*
X196070913Y-84086690D01*
X196095330Y-84152154D01*
X196080478Y-84220427D01*
X196070913Y-84235310D01*
X196041452Y-84274665D01*
X196041448Y-84274671D01*
X195992580Y-84405696D01*
X195991155Y-84409517D01*
X195984746Y-84469127D01*
X195984746Y-84469134D01*
X195984746Y-84469135D01*
X195984746Y-85122870D01*
X195984747Y-85122876D01*
X195991154Y-85182483D01*
X196041448Y-85317328D01*
X196041449Y-85317330D01*
X196071225Y-85357105D01*
X196095642Y-85422569D01*
X196080791Y-85490842D01*
X196071226Y-85505725D01*
X196041894Y-85544907D01*
X196041891Y-85544913D01*
X195991649Y-85679620D01*
X195991647Y-85679627D01*
X195985246Y-85739155D01*
X195985246Y-85816000D01*
X198440146Y-85816000D01*
X198476465Y-85779681D01*
X198479379Y-85782595D01*
X198512635Y-85753780D01*
X198581793Y-85743836D01*
X198645349Y-85772861D01*
X198673700Y-85808490D01*
X198710695Y-85878269D01*
X198905114Y-86165016D01*
X198908498Y-86170006D01*
X198908505Y-86170016D01*
X199136685Y-86438649D01*
X199136686Y-86438650D01*
X199392580Y-86681046D01*
X199392587Y-86681051D01*
X199392589Y-86681053D01*
X199430468Y-86709848D01*
X199673182Y-86894354D01*
X199975202Y-87076074D01*
X199975206Y-87076075D01*
X199975210Y-87076078D01*
X200295088Y-87224070D01*
X200295092Y-87224070D01*
X200295099Y-87224074D01*
X200629122Y-87336619D01*
X200973355Y-87412391D01*
X201323763Y-87450500D01*
X201323769Y-87450500D01*
X201676231Y-87450500D01*
X201676237Y-87450500D01*
X202026645Y-87412391D01*
X202370878Y-87336619D01*
X202704901Y-87224074D01*
X202704908Y-87224070D01*
X202704911Y-87224070D01*
X203024789Y-87076078D01*
X203024798Y-87076074D01*
X203326818Y-86894354D01*
X203607420Y-86681046D01*
X203863314Y-86438650D01*
X204091501Y-86170008D01*
X204289305Y-85878269D01*
X204454407Y-85566854D01*
X204492307Y-85471731D01*
X204535407Y-85416740D01*
X204601396Y-85393779D01*
X204669323Y-85410140D01*
X204717622Y-85460628D01*
X204731500Y-85517629D01*
X204731500Y-111108878D01*
X204711815Y-111175917D01*
X204659011Y-111221672D01*
X204589853Y-111231616D01*
X204581332Y-111230000D01*
X204520883Y-111223501D01*
X204520881Y-111223500D01*
X204520873Y-111223500D01*
X204520864Y-111223500D01*
X201025129Y-111223500D01*
X201025123Y-111223501D01*
X200965516Y-111229908D01*
X200830671Y-111280202D01*
X200830664Y-111280206D01*
X200715455Y-111366452D01*
X200715452Y-111366455D01*
X200629206Y-111481664D01*
X200629202Y-111481671D01*
X200578908Y-111616517D01*
X200572501Y-111676116D01*
X200572500Y-111676135D01*
X200572500Y-113271870D01*
X200572501Y-113271876D01*
X200578908Y-113331483D01*
X200629202Y-113466328D01*
X200629206Y-113466335D01*
X200715452Y-113581544D01*
X200715455Y-113581547D01*
X200830664Y-113667793D01*
X200830671Y-113667797D01*
X200965517Y-113718091D01*
X200965516Y-113718091D01*
X200969135Y-113718480D01*
X201025127Y-113724500D01*
X204520872Y-113724499D01*
X204580483Y-113718091D01*
X204580482Y-113718091D01*
X204588196Y-113717262D01*
X204588377Y-113718949D01*
X204648751Y-113722185D01*
X204705424Y-113763050D01*
X204731006Y-113828068D01*
X204731500Y-113839122D01*
X204731500Y-117808878D01*
X204711815Y-117875917D01*
X204659011Y-117921672D01*
X204589853Y-117931616D01*
X204581332Y-117930000D01*
X204520883Y-117923501D01*
X204520881Y-117923500D01*
X204520873Y-117923500D01*
X204520864Y-117923500D01*
X201025129Y-117923500D01*
X201025123Y-117923501D01*
X200965516Y-117929908D01*
X200830671Y-117980202D01*
X200830664Y-117980206D01*
X200715455Y-118066452D01*
X200715452Y-118066455D01*
X200629206Y-118181664D01*
X200629202Y-118181671D01*
X200578908Y-118316517D01*
X200572501Y-118376116D01*
X200572500Y-118376135D01*
X200572500Y-119971870D01*
X200572501Y-119971876D01*
X200578908Y-120031483D01*
X200629202Y-120166328D01*
X200629206Y-120166335D01*
X200715452Y-120281544D01*
X200715455Y-120281547D01*
X200830664Y-120367793D01*
X200830671Y-120367797D01*
X200965517Y-120418091D01*
X200965516Y-120418091D01*
X200972444Y-120418835D01*
X201025127Y-120424500D01*
X204520872Y-120424499D01*
X204580483Y-120418091D01*
X204580482Y-120418091D01*
X204588196Y-120417262D01*
X204588377Y-120418949D01*
X204648751Y-120422185D01*
X204705424Y-120463050D01*
X204731006Y-120528068D01*
X204731500Y-120539122D01*
X204731500Y-122882370D01*
X204711815Y-122949409D01*
X204659011Y-122995164D01*
X204589853Y-123005108D01*
X204526297Y-122976083D01*
X204492307Y-122928267D01*
X204454411Y-122833155D01*
X204454402Y-122833137D01*
X204289305Y-122521731D01*
X204091501Y-122229992D01*
X204091497Y-122229987D01*
X204091494Y-122229983D01*
X203863314Y-121961350D01*
X203607420Y-121718954D01*
X203607413Y-121718948D01*
X203607410Y-121718946D01*
X203399514Y-121560908D01*
X203326818Y-121505646D01*
X203326815Y-121505644D01*
X203024802Y-121323928D01*
X203024789Y-121323921D01*
X202704911Y-121175929D01*
X202704906Y-121175928D01*
X202704903Y-121175927D01*
X202704901Y-121175926D01*
X202554719Y-121125324D01*
X202370880Y-121063381D01*
X202026643Y-120987608D01*
X201676238Y-120949500D01*
X201676237Y-120949500D01*
X201323763Y-120949500D01*
X201323761Y-120949500D01*
X200973356Y-120987608D01*
X200629119Y-121063381D01*
X200295093Y-121175928D01*
X200295088Y-121175929D01*
X199975210Y-121323921D01*
X199975197Y-121323928D01*
X199673184Y-121505644D01*
X199392589Y-121718946D01*
X199392580Y-121718954D01*
X199136685Y-121961350D01*
X198908505Y-122229983D01*
X198908498Y-122229993D01*
X198710695Y-122521730D01*
X198545597Y-122833137D01*
X198545588Y-122833155D01*
X198415127Y-123160589D01*
X198415126Y-123160591D01*
X198320834Y-123500203D01*
X198320833Y-123500206D01*
X198263808Y-123848045D01*
X198244726Y-124199997D01*
X198244726Y-124200002D01*
X198263808Y-124551954D01*
X198295348Y-124744342D01*
X198317954Y-124882235D01*
X198320833Y-124899793D01*
X198320834Y-124899796D01*
X198415126Y-125239408D01*
X198415127Y-125239410D01*
X198545588Y-125566844D01*
X198545597Y-125566862D01*
X198613545Y-125695025D01*
X198710695Y-125878269D01*
X198796004Y-126004091D01*
X198908498Y-126170006D01*
X198908505Y-126170016D01*
X199136685Y-126438649D01*
X199136686Y-126438650D01*
X199392580Y-126681046D01*
X199513619Y-126773057D01*
X199555076Y-126829298D01*
X199559546Y-126899025D01*
X199525610Y-126960099D01*
X199464041Y-126993130D01*
X199438406Y-126995773D01*
X197421650Y-126992982D01*
X197354638Y-126973205D01*
X197308956Y-126920337D01*
X197299109Y-126851165D01*
X197304116Y-126829981D01*
X197307174Y-126820753D01*
X197317500Y-126719677D01*
X197317499Y-126021324D01*
X197316393Y-126010500D01*
X197307174Y-125920247D01*
X197289711Y-125867547D01*
X197252908Y-125756484D01*
X197162340Y-125609650D01*
X197148371Y-125595681D01*
X197114886Y-125534358D01*
X197119870Y-125464666D01*
X197148371Y-125420319D01*
X197162340Y-125406350D01*
X197252908Y-125259516D01*
X197307174Y-125095753D01*
X197317500Y-124994677D01*
X197317499Y-124296324D01*
X197307174Y-124195247D01*
X197252908Y-124031484D01*
X197162340Y-123884650D01*
X197079029Y-123801339D01*
X197045544Y-123740016D01*
X197050528Y-123670324D01*
X197069447Y-123636743D01*
X197071331Y-123634358D01*
X197071340Y-123634350D01*
X197161908Y-123487516D01*
X197216174Y-123323753D01*
X197226500Y-123222677D01*
X197226499Y-122649324D01*
X197216174Y-122548247D01*
X197161908Y-122384484D01*
X197072231Y-122239095D01*
X197053792Y-122171704D01*
X197072231Y-122108904D01*
X197161908Y-121963516D01*
X197216174Y-121799753D01*
X197226500Y-121698677D01*
X197226499Y-121125324D01*
X197224809Y-121108784D01*
X197216174Y-121024247D01*
X197187159Y-120936687D01*
X197161908Y-120860484D01*
X197071340Y-120713650D01*
X196949350Y-120591660D01*
X196802516Y-120501092D01*
X196638753Y-120446826D01*
X196638751Y-120446825D01*
X196537678Y-120436500D01*
X195839330Y-120436500D01*
X195839312Y-120436501D01*
X195828389Y-120437617D01*
X195759697Y-120424842D01*
X195708816Y-120376958D01*
X195708410Y-120376260D01*
X195706317Y-120372635D01*
X195706315Y-120372632D01*
X195696534Y-120355691D01*
X195681520Y-120329685D01*
X195569716Y-120217881D01*
X195569715Y-120217880D01*
X195565385Y-120213550D01*
X195565374Y-120213540D01*
X195553641Y-120201807D01*
X195520156Y-120140484D01*
X195525140Y-120070792D01*
X195567012Y-120014859D01*
X195573683Y-120010277D01*
X195574256Y-120009819D01*
X195574262Y-120009816D01*
X195701816Y-119882262D01*
X195797789Y-119729522D01*
X195857368Y-119559255D01*
X195857369Y-119559249D01*
X195877565Y-119380003D01*
X195877565Y-119379996D01*
X195857369Y-119200750D01*
X195857368Y-119200745D01*
X195797789Y-119030478D01*
X195781267Y-119004184D01*
X195701815Y-118877737D01*
X195574262Y-118750184D01*
X195421521Y-118654210D01*
X195251249Y-118594630D01*
X195164330Y-118584837D01*
X195099916Y-118557770D01*
X195090543Y-118549308D01*
X194946817Y-118405581D01*
X194913334Y-118344260D01*
X194910500Y-118317902D01*
X194910500Y-117901036D01*
X194930185Y-117833997D01*
X194982989Y-117788242D01*
X195052147Y-117778298D01*
X195077833Y-117784854D01*
X195165620Y-117817596D01*
X195165627Y-117817598D01*
X195225155Y-117823999D01*
X195225172Y-117824000D01*
X196773000Y-117824000D01*
X197273000Y-117824000D01*
X198820828Y-117824000D01*
X198820844Y-117823999D01*
X198880372Y-117817598D01*
X198880379Y-117817596D01*
X199015086Y-117767354D01*
X199015093Y-117767350D01*
X199130187Y-117681190D01*
X199130190Y-117681187D01*
X199216350Y-117566093D01*
X199216354Y-117566086D01*
X199266596Y-117431379D01*
X199266598Y-117431372D01*
X199272999Y-117371844D01*
X199273000Y-117371827D01*
X199273000Y-117074000D01*
X197273000Y-117074000D01*
X197273000Y-117824000D01*
X196773000Y-117824000D01*
X196773000Y-116948000D01*
X196792685Y-116880961D01*
X196845489Y-116835206D01*
X196897000Y-116824000D01*
X197023000Y-116824000D01*
X197023000Y-116698000D01*
X197042685Y-116630961D01*
X197095489Y-116585206D01*
X197147000Y-116574000D01*
X199273000Y-116574000D01*
X199273000Y-116276172D01*
X199272999Y-116276155D01*
X199266598Y-116216627D01*
X199266596Y-116216620D01*
X199216354Y-116081913D01*
X199216350Y-116081906D01*
X199130190Y-115966812D01*
X199130187Y-115966809D01*
X199072438Y-115923578D01*
X199030567Y-115867645D01*
X199025583Y-115797953D01*
X199059069Y-115736630D01*
X199072432Y-115725049D01*
X199130546Y-115681546D01*
X199216796Y-115566331D01*
X199267091Y-115431483D01*
X199273500Y-115371873D01*
X199273499Y-114276128D01*
X199267091Y-114216517D01*
X199252281Y-114176810D01*
X199216797Y-114081671D01*
X199216793Y-114081664D01*
X199130547Y-113966455D01*
X199130544Y-113966452D01*
X199015335Y-113880206D01*
X199015328Y-113880202D01*
X198880482Y-113829908D01*
X198880483Y-113829908D01*
X198820883Y-113823501D01*
X198820881Y-113823500D01*
X198820873Y-113823500D01*
X198820864Y-113823500D01*
X195225129Y-113823500D01*
X195225123Y-113823501D01*
X195165516Y-113829908D01*
X195030671Y-113880202D01*
X195030669Y-113880203D01*
X194937431Y-113950001D01*
X194923921Y-113960116D01*
X194908444Y-113971702D01*
X194842980Y-113996119D01*
X194774707Y-113981268D01*
X194746454Y-113960118D01*
X194678716Y-113892380D01*
X194678715Y-113892379D01*
X194674385Y-113888049D01*
X194674374Y-113888039D01*
X194623689Y-113837354D01*
X194623687Y-113837351D01*
X194504816Y-113718480D01*
X194504808Y-113718474D01*
X194498594Y-113714886D01*
X194450381Y-113664317D01*
X194436599Y-113607502D01*
X194436599Y-113285630D01*
X194436599Y-113285629D01*
X194431398Y-113237246D01*
X194431399Y-113210743D01*
X194436599Y-113162380D01*
X194436600Y-113162373D01*
X194436599Y-112635628D01*
X194436597Y-112635609D01*
X194431399Y-112587254D01*
X194431399Y-112560748D01*
X194436600Y-112512374D01*
X194436599Y-111985629D01*
X194431398Y-111937246D01*
X194431399Y-111910743D01*
X194435103Y-111876299D01*
X194436600Y-111862373D01*
X194436599Y-111335628D01*
X194430191Y-111276017D01*
X194426498Y-111266116D01*
X194379897Y-111141171D01*
X194379893Y-111141164D01*
X194293647Y-111025955D01*
X194293644Y-111025952D01*
X194178435Y-110939706D01*
X194178428Y-110939702D01*
X194043582Y-110889408D01*
X194043583Y-110889408D01*
X193983983Y-110883001D01*
X193983981Y-110883000D01*
X193983973Y-110883000D01*
X193983964Y-110883000D01*
X192248429Y-110883000D01*
X192248423Y-110883001D01*
X192188816Y-110889408D01*
X192053971Y-110939702D01*
X192053964Y-110939706D01*
X191938755Y-111025952D01*
X191938752Y-111025955D01*
X191852506Y-111141164D01*
X191852502Y-111141171D01*
X191805901Y-111266117D01*
X191802209Y-111276017D01*
X191795800Y-111335627D01*
X191795800Y-111335634D01*
X191795800Y-111335635D01*
X191795800Y-111862370D01*
X191795801Y-111862376D01*
X191801001Y-111910748D01*
X191801001Y-111937253D01*
X191795800Y-111985628D01*
X191795800Y-111985630D01*
X191795800Y-111985634D01*
X191795800Y-112371204D01*
X191776115Y-112438243D01*
X191723311Y-112483998D01*
X191657917Y-112494424D01*
X191516004Y-112478435D01*
X191515996Y-112478435D01*
X191336750Y-112498630D01*
X191336745Y-112498631D01*
X191166476Y-112558211D01*
X191013737Y-112654184D01*
X190886184Y-112781737D01*
X190790209Y-112934480D01*
X190749591Y-113050560D01*
X190708870Y-113107336D01*
X190673508Y-113126645D01*
X190666481Y-113129104D01*
X190666476Y-113129106D01*
X190513738Y-113225078D01*
X190386185Y-113352631D01*
X190290212Y-113505370D01*
X190230632Y-113675639D01*
X190230631Y-113675644D01*
X190210436Y-113854890D01*
X190210436Y-113854897D01*
X190230631Y-114034143D01*
X190230632Y-114034148D01*
X190290212Y-114204417D01*
X190386185Y-114357156D01*
X190513739Y-114484710D01*
X190532121Y-114496260D01*
X190578412Y-114548593D01*
X190589062Y-114617646D01*
X190560688Y-114681495D01*
X190502298Y-114719868D01*
X190452269Y-114724475D01*
X190423913Y-114721280D01*
X190413230Y-114720077D01*
X190413229Y-114720077D01*
X190413228Y-114720077D01*
X190413226Y-114720077D01*
X190233980Y-114740272D01*
X190233975Y-114740273D01*
X190063706Y-114799853D01*
X189910967Y-114895826D01*
X189783414Y-115023379D01*
X189687441Y-115176118D01*
X189627861Y-115346387D01*
X189627860Y-115346392D01*
X189607665Y-115525637D01*
X189607665Y-115525639D01*
X189607665Y-115525642D01*
X189611348Y-115558330D01*
X189613263Y-115575328D01*
X189609818Y-115621300D01*
X189599499Y-115659815D01*
X189599499Y-115827918D01*
X189599500Y-115827931D01*
X189599500Y-116582565D01*
X189580494Y-116648537D01*
X189520211Y-116744477D01*
X189520209Y-116744481D01*
X189460633Y-116914737D01*
X189460630Y-116914750D01*
X189440435Y-117093996D01*
X189440435Y-117094003D01*
X189460630Y-117273249D01*
X189460631Y-117273254D01*
X189520211Y-117443523D01*
X189616184Y-117596262D01*
X189743738Y-117723816D01*
X189802504Y-117760741D01*
X189892987Y-117817596D01*
X189896478Y-117819789D01*
X190056883Y-117875917D01*
X190066745Y-117879368D01*
X190066750Y-117879369D01*
X190245996Y-117899565D01*
X190246000Y-117899565D01*
X190246004Y-117899565D01*
X190425249Y-117879369D01*
X190425252Y-117879368D01*
X190425255Y-117879368D01*
X190595522Y-117819789D01*
X190748262Y-117723816D01*
X190875816Y-117596262D01*
X190962989Y-117457526D01*
X191015324Y-117411236D01*
X191067983Y-117399499D01*
X191222940Y-117399499D01*
X191289979Y-117419184D01*
X191335734Y-117471988D01*
X191345678Y-117541146D01*
X191316653Y-117604702D01*
X191310624Y-117611176D01*
X190949766Y-117972034D01*
X190593286Y-118328514D01*
X190481481Y-118440318D01*
X190481475Y-118440326D01*
X190437493Y-118516507D01*
X190437493Y-118516508D01*
X190402423Y-118577251D01*
X190361499Y-118729979D01*
X190361499Y-118729981D01*
X190361499Y-118898082D01*
X190361500Y-118898095D01*
X190361500Y-119887903D01*
X190341815Y-119954942D01*
X190325181Y-119975584D01*
X189525584Y-120775181D01*
X189464261Y-120808666D01*
X189437903Y-120811500D01*
X188808669Y-120811500D01*
X188808653Y-120811499D01*
X188801057Y-120811499D01*
X188642943Y-120811499D01*
X188535587Y-120840265D01*
X188490210Y-120852424D01*
X188490209Y-120852425D01*
X188455066Y-120872716D01*
X188455064Y-120872717D01*
X188353290Y-120931475D01*
X188353282Y-120931481D01*
X188241478Y-121043286D01*
X185461584Y-123823181D01*
X185400261Y-123856666D01*
X185373903Y-123859500D01*
X184094499Y-123859500D01*
X184027460Y-123839815D01*
X183981705Y-123787011D01*
X183970499Y-123735500D01*
X183970499Y-123362129D01*
X183970498Y-123362123D01*
X183967161Y-123331082D01*
X183964091Y-123302517D01*
X183964090Y-123302515D01*
X183959645Y-123290596D01*
X183954661Y-123220904D01*
X183988146Y-123159581D01*
X184009851Y-123142271D01*
X184144262Y-123057816D01*
X184271816Y-122930262D01*
X184367789Y-122777522D01*
X184427368Y-122607255D01*
X184427786Y-122603546D01*
X184447565Y-122428003D01*
X184447565Y-122427996D01*
X184427369Y-122248750D01*
X184427368Y-122248745D01*
X184402017Y-122176296D01*
X184367789Y-122078478D01*
X184271816Y-121925738D01*
X184144262Y-121798184D01*
X183991521Y-121702210D01*
X183821249Y-121642630D01*
X183734330Y-121632837D01*
X183669916Y-121605770D01*
X183660533Y-121597298D01*
X183621590Y-121558355D01*
X183621588Y-121558352D01*
X183502717Y-121439481D01*
X183502716Y-121439480D01*
X183392400Y-121375789D01*
X183392398Y-121375788D01*
X183365785Y-121360423D01*
X183365784Y-121360422D01*
X183365783Y-121360422D01*
X183309881Y-121345443D01*
X183213057Y-121319499D01*
X183054943Y-121319499D01*
X183047347Y-121319499D01*
X183047331Y-121319500D01*
X181148098Y-121319500D01*
X181081059Y-121299815D01*
X181060421Y-121283185D01*
X180916698Y-121139463D01*
X180883215Y-121078143D01*
X180881163Y-121065686D01*
X180871368Y-120978745D01*
X180811789Y-120808478D01*
X180715816Y-120655738D01*
X180588262Y-120528184D01*
X180545147Y-120501093D01*
X180435521Y-120432210D01*
X180275623Y-120376260D01*
X180265255Y-120372632D01*
X180265254Y-120372631D01*
X180265249Y-120372630D01*
X180206431Y-120366003D01*
X180142018Y-120338936D01*
X180102463Y-120281341D01*
X180099061Y-120268730D01*
X180097674Y-120262248D01*
X180097674Y-120262247D01*
X180043408Y-120098484D01*
X180028401Y-120074154D01*
X180980001Y-120074154D01*
X180990319Y-120175152D01*
X181044546Y-120338800D01*
X181044551Y-120338811D01*
X181135052Y-120485534D01*
X181135055Y-120485538D01*
X181256961Y-120607444D01*
X181256965Y-120607447D01*
X181403688Y-120697948D01*
X181403699Y-120697953D01*
X181567347Y-120752180D01*
X181668351Y-120762499D01*
X181767500Y-120762498D01*
X181767500Y-120037500D01*
X180980001Y-120037500D01*
X180980001Y-120074154D01*
X180028401Y-120074154D01*
X179952840Y-119951650D01*
X179943006Y-119941816D01*
X179930822Y-119926538D01*
X179930711Y-119926627D01*
X179926373Y-119921187D01*
X179865175Y-119859989D01*
X179798816Y-119793630D01*
X179712021Y-119739093D01*
X179646077Y-119697657D01*
X179475808Y-119638077D01*
X179475803Y-119638076D01*
X179296558Y-119617881D01*
X179296550Y-119617881D01*
X179117301Y-119638077D01*
X179033093Y-119667542D01*
X178992139Y-119674500D01*
X178720831Y-119674500D01*
X178720812Y-119674501D01*
X178619747Y-119684825D01*
X178455984Y-119739092D01*
X178455981Y-119739093D01*
X178309148Y-119829661D01*
X178295181Y-119843629D01*
X178233858Y-119877114D01*
X178164166Y-119872130D01*
X178119819Y-119843629D01*
X178105851Y-119829661D01*
X178105850Y-119829660D01*
X177959016Y-119739092D01*
X177795253Y-119684826D01*
X177795251Y-119684825D01*
X177694178Y-119674500D01*
X176995830Y-119674500D01*
X176995812Y-119674501D01*
X176894747Y-119684825D01*
X176730984Y-119739092D01*
X176730981Y-119739093D01*
X176584148Y-119829661D01*
X176462161Y-119951648D01*
X176371593Y-120098481D01*
X176371591Y-120098486D01*
X176357674Y-120140484D01*
X176317326Y-120262247D01*
X176317326Y-120262248D01*
X176317325Y-120262248D01*
X176307000Y-120363315D01*
X176307000Y-120936669D01*
X176307001Y-120936687D01*
X176317325Y-121037752D01*
X176353609Y-121147249D01*
X176371592Y-121201516D01*
X176462160Y-121348350D01*
X176584150Y-121470340D01*
X176730984Y-121560908D01*
X176894747Y-121615174D01*
X176995823Y-121625500D01*
X177694176Y-121625499D01*
X177694184Y-121625498D01*
X177694187Y-121625498D01*
X177749530Y-121619844D01*
X177795253Y-121615174D01*
X177959016Y-121560908D01*
X178105850Y-121470340D01*
X178119819Y-121456371D01*
X178181142Y-121422886D01*
X178250834Y-121427870D01*
X178295181Y-121456371D01*
X178309150Y-121470340D01*
X178455984Y-121560908D01*
X178619747Y-121615174D01*
X178720823Y-121625500D01*
X179370059Y-121625499D01*
X179437098Y-121645183D01*
X179457740Y-121661818D01*
X179583738Y-121787816D01*
X179736478Y-121883789D01*
X179906745Y-121943368D01*
X179993669Y-121953161D01*
X180058080Y-121980226D01*
X180067464Y-121988699D01*
X180479284Y-122400520D01*
X180479286Y-122400521D01*
X180479290Y-122400524D01*
X180526874Y-122427996D01*
X180616216Y-122479577D01*
X180768943Y-122520501D01*
X180768945Y-122520501D01*
X180934654Y-122520501D01*
X180934670Y-122520500D01*
X182738293Y-122520500D01*
X182805332Y-122540185D01*
X182851087Y-122592989D01*
X182855335Y-122603546D01*
X182856631Y-122607249D01*
X182856632Y-122607255D01*
X182890963Y-122705368D01*
X182904672Y-122744546D01*
X182908233Y-122814325D01*
X182873504Y-122874952D01*
X182811510Y-122907179D01*
X182787630Y-122909500D01*
X177822129Y-122909500D01*
X177822123Y-122909501D01*
X177762516Y-122915908D01*
X177627671Y-122966202D01*
X177627664Y-122966206D01*
X177512455Y-123052452D01*
X177512452Y-123052455D01*
X177426206Y-123167664D01*
X177426202Y-123167671D01*
X177375909Y-123302515D01*
X177374978Y-123311172D01*
X177348235Y-123375722D01*
X177290840Y-123415566D01*
X177221015Y-123418055D01*
X177160928Y-123382399D01*
X177132209Y-123331082D01*
X177124277Y-123302515D01*
X177114414Y-123266992D01*
X177084874Y-123160596D01*
X177084872Y-123160589D01*
X177084470Y-123159581D01*
X177036731Y-123039763D01*
X176954411Y-122833155D01*
X176954402Y-122833137D01*
X176789305Y-122521731D01*
X176591501Y-122229992D01*
X176591497Y-122229987D01*
X176591494Y-122229983D01*
X176363314Y-121961350D01*
X176107420Y-121718954D01*
X176107413Y-121718948D01*
X176107410Y-121718946D01*
X175899514Y-121560908D01*
X175826818Y-121505646D01*
X175826815Y-121505644D01*
X175524802Y-121323928D01*
X175524789Y-121323921D01*
X175204911Y-121175929D01*
X175204906Y-121175928D01*
X175204903Y-121175927D01*
X175204901Y-121175926D01*
X175054719Y-121125324D01*
X174870880Y-121063381D01*
X174526643Y-120987608D01*
X174176238Y-120949500D01*
X174176237Y-120949500D01*
X173823763Y-120949500D01*
X173823761Y-120949500D01*
X173473356Y-120987608D01*
X173129119Y-121063381D01*
X172795093Y-121175928D01*
X172795088Y-121175929D01*
X172475210Y-121323921D01*
X172475197Y-121323928D01*
X172173184Y-121505644D01*
X171892589Y-121718946D01*
X171892580Y-121718954D01*
X171636685Y-121961350D01*
X171408505Y-122229983D01*
X171408498Y-122229993D01*
X171210695Y-122521730D01*
X171045597Y-122833137D01*
X171045588Y-122833155D01*
X170967693Y-123028659D01*
X170924593Y-123083651D01*
X170858603Y-123106612D01*
X170790676Y-123090251D01*
X170742378Y-123039763D01*
X170728500Y-122982762D01*
X170728500Y-119772315D01*
X170748185Y-119705276D01*
X170800989Y-119659521D01*
X170870147Y-119649577D01*
X170895829Y-119656131D01*
X170957118Y-119678991D01*
X171016728Y-119685400D01*
X174211273Y-119685399D01*
X174270884Y-119678991D01*
X174405732Y-119628696D01*
X174520947Y-119542446D01*
X174607197Y-119427231D01*
X174657492Y-119292383D01*
X174663901Y-119232773D01*
X174663900Y-117560654D01*
X176723501Y-117560654D01*
X176733819Y-117661652D01*
X176788046Y-117825300D01*
X176788051Y-117825311D01*
X176878552Y-117972034D01*
X176878555Y-117972038D01*
X177000461Y-118093944D01*
X177000465Y-118093947D01*
X177147188Y-118184448D01*
X177147199Y-118184453D01*
X177310847Y-118238680D01*
X177411851Y-118248999D01*
X177511000Y-118248998D01*
X177511000Y-117524000D01*
X176723501Y-117524000D01*
X176723501Y-117560654D01*
X174663900Y-117560654D01*
X174663900Y-116927228D01*
X174657492Y-116867617D01*
X174645403Y-116835206D01*
X174607198Y-116732771D01*
X174607194Y-116732764D01*
X174533791Y-116634711D01*
X174509373Y-116569247D01*
X174524224Y-116500974D01*
X174573629Y-116451568D01*
X174633057Y-116436400D01*
X175264000Y-116436400D01*
X175264000Y-115780000D01*
X174163100Y-115780000D01*
X174163100Y-115984244D01*
X174169501Y-116043772D01*
X174169503Y-116043779D01*
X174219745Y-116178486D01*
X174219747Y-116178488D01*
X174292960Y-116276289D01*
X174317377Y-116341753D01*
X174302526Y-116410026D01*
X174253120Y-116459432D01*
X174193693Y-116474600D01*
X171016730Y-116474600D01*
X171016724Y-116474601D01*
X170957116Y-116481009D01*
X170895832Y-116503866D01*
X170826140Y-116508850D01*
X170764818Y-116475364D01*
X170731333Y-116414041D01*
X170728500Y-116387684D01*
X170728500Y-103422315D01*
X170748185Y-103355276D01*
X170800989Y-103309521D01*
X170870147Y-103299577D01*
X170895829Y-103306131D01*
X170957118Y-103328991D01*
X171016728Y-103335400D01*
X174193070Y-103335399D01*
X174260109Y-103355084D01*
X174305864Y-103407888D01*
X174315808Y-103477046D01*
X174292337Y-103533710D01*
X174219303Y-103631269D01*
X174219302Y-103631271D01*
X174169008Y-103766117D01*
X174162601Y-103825716D01*
X174162600Y-103825735D01*
X174162600Y-104734270D01*
X174162601Y-104734276D01*
X174169008Y-104793883D01*
X174194290Y-104861667D01*
X174199274Y-104931358D01*
X174194290Y-104948331D01*
X174169009Y-105016114D01*
X174169008Y-105016116D01*
X174162601Y-105075716D01*
X174162600Y-105075735D01*
X174162600Y-105984270D01*
X174162601Y-105984276D01*
X174169008Y-106043883D01*
X174194290Y-106111667D01*
X174199274Y-106181358D01*
X174194290Y-106198331D01*
X174169009Y-106266114D01*
X174169008Y-106266116D01*
X174162601Y-106325716D01*
X174162600Y-106325735D01*
X174162600Y-107234270D01*
X174162601Y-107234276D01*
X174169008Y-107293883D01*
X174194290Y-107361667D01*
X174199274Y-107431358D01*
X174194290Y-107448331D01*
X174169009Y-107516114D01*
X174169008Y-107516116D01*
X174162602Y-107575703D01*
X174162600Y-107575735D01*
X174162600Y-108484270D01*
X174162601Y-108484276D01*
X174169008Y-108543883D01*
X174194290Y-108611667D01*
X174199274Y-108681358D01*
X174194290Y-108698331D01*
X174169009Y-108766114D01*
X174169008Y-108766116D01*
X174162601Y-108825716D01*
X174162600Y-108825735D01*
X174162600Y-109734270D01*
X174162601Y-109734276D01*
X174169008Y-109793883D01*
X174194290Y-109861667D01*
X174199274Y-109931358D01*
X174194290Y-109948331D01*
X174169009Y-110016114D01*
X174169008Y-110016116D01*
X174162601Y-110075716D01*
X174162600Y-110075735D01*
X174162600Y-110984270D01*
X174162601Y-110984276D01*
X174169008Y-111043883D01*
X174194290Y-111111667D01*
X174199274Y-111181358D01*
X174194290Y-111198331D01*
X174169009Y-111266114D01*
X174169008Y-111266116D01*
X174162601Y-111325716D01*
X174162600Y-111325735D01*
X174162600Y-112234270D01*
X174162601Y-112234276D01*
X174169008Y-112293883D01*
X174194290Y-112361667D01*
X174199274Y-112431358D01*
X174194290Y-112448331D01*
X174169009Y-112516114D01*
X174169008Y-112516116D01*
X174162601Y-112575716D01*
X174162600Y-112575735D01*
X174162600Y-113484270D01*
X174162601Y-113484276D01*
X174169008Y-113543883D01*
X174194290Y-113611667D01*
X174199274Y-113681358D01*
X174194290Y-113698331D01*
X174169009Y-113766114D01*
X174169008Y-113766116D01*
X174162601Y-113825716D01*
X174162600Y-113825735D01*
X174162600Y-114734270D01*
X174162601Y-114734276D01*
X174169009Y-114793885D01*
X174194556Y-114862382D01*
X174199540Y-114932074D01*
X174194557Y-114949045D01*
X174169502Y-115016221D01*
X174169501Y-115016227D01*
X174163100Y-115075755D01*
X174163100Y-115280000D01*
X175390000Y-115280000D01*
X175457039Y-115299685D01*
X175502794Y-115352489D01*
X175514000Y-115404000D01*
X175514000Y-115530000D01*
X175640000Y-115530000D01*
X175707039Y-115549685D01*
X175752794Y-115602489D01*
X175764000Y-115654000D01*
X175764000Y-116436400D01*
X176412728Y-116436400D01*
X176412744Y-116436399D01*
X176472272Y-116429998D01*
X176472279Y-116429996D01*
X176606986Y-116379754D01*
X176642538Y-116353139D01*
X176708002Y-116328720D01*
X176776275Y-116343570D01*
X176804533Y-116364723D01*
X176861573Y-116421763D01*
X176895058Y-116483086D01*
X176890074Y-116552778D01*
X176879431Y-116574541D01*
X176788048Y-116722694D01*
X176788046Y-116722699D01*
X176733819Y-116886347D01*
X176723500Y-116987345D01*
X176723500Y-117024000D01*
X177637000Y-117024000D01*
X177704039Y-117043685D01*
X177749794Y-117096489D01*
X177761000Y-117148000D01*
X177761000Y-117274000D01*
X177887000Y-117274000D01*
X177954039Y-117293685D01*
X177999794Y-117346489D01*
X178011000Y-117398000D01*
X178011000Y-118248999D01*
X178110140Y-118248999D01*
X178110154Y-118248998D01*
X178211152Y-118238680D01*
X178374800Y-118184453D01*
X178374811Y-118184448D01*
X178521535Y-118093947D01*
X178535460Y-118080021D01*
X178596782Y-118046533D01*
X178666473Y-118051514D01*
X178710827Y-118080017D01*
X178725150Y-118094340D01*
X178871984Y-118184908D01*
X179035747Y-118239174D01*
X179136823Y-118249500D01*
X179835176Y-118249499D01*
X179835184Y-118249498D01*
X179835187Y-118249498D01*
X179890530Y-118243844D01*
X179936253Y-118239174D01*
X180100016Y-118184908D01*
X180100025Y-118184901D01*
X180106564Y-118181854D01*
X180107673Y-118184234D01*
X180163233Y-118169002D01*
X180229907Y-118189891D01*
X180274704Y-118243510D01*
X180285000Y-118292981D01*
X180285000Y-118396668D01*
X180285001Y-118396687D01*
X180295325Y-118497752D01*
X180321669Y-118577251D01*
X180349592Y-118661516D01*
X180440160Y-118808350D01*
X180562150Y-118930340D01*
X180708984Y-119020908D01*
X180872747Y-119075174D01*
X180936831Y-119081720D01*
X181001521Y-119108115D01*
X181041673Y-119165295D01*
X181044537Y-119235106D01*
X181041934Y-119244081D01*
X180990319Y-119399846D01*
X180980000Y-119500845D01*
X180980000Y-119537500D01*
X181893500Y-119537500D01*
X181960539Y-119557185D01*
X182006294Y-119609989D01*
X182017500Y-119661500D01*
X182017500Y-119787500D01*
X182143500Y-119787500D01*
X182210539Y-119807185D01*
X182256294Y-119859989D01*
X182267500Y-119911500D01*
X182267500Y-120762499D01*
X182366640Y-120762499D01*
X182366654Y-120762498D01*
X182467652Y-120752180D01*
X182631300Y-120697953D01*
X182631311Y-120697948D01*
X182778035Y-120607447D01*
X182791960Y-120593521D01*
X182853282Y-120560033D01*
X182922973Y-120565014D01*
X182967327Y-120593517D01*
X182981650Y-120607840D01*
X183128484Y-120698408D01*
X183292247Y-120752674D01*
X183393323Y-120763000D01*
X184091676Y-120762999D01*
X184091684Y-120762998D01*
X184091687Y-120762998D01*
X184147030Y-120757344D01*
X184192753Y-120752674D01*
X184356516Y-120698408D01*
X184503350Y-120607840D01*
X184503357Y-120607832D01*
X184504339Y-120607057D01*
X184505147Y-120606730D01*
X184509497Y-120604048D01*
X184509955Y-120604790D01*
X184569131Y-120580909D01*
X184637775Y-120593941D01*
X184668938Y-120616629D01*
X184674353Y-120622043D01*
X184674354Y-120622044D01*
X184703480Y-120643847D01*
X184789564Y-120708291D01*
X184789571Y-120708295D01*
X184924417Y-120758589D01*
X184924416Y-120758589D01*
X184931344Y-120759333D01*
X184984027Y-120764998D01*
X186719572Y-120764997D01*
X186779183Y-120758589D01*
X186914031Y-120708294D01*
X187029246Y-120622044D01*
X187042767Y-120603980D01*
X187080031Y-120570905D01*
X187151718Y-120529518D01*
X187216535Y-120464699D01*
X187277858Y-120431215D01*
X187290316Y-120429162D01*
X187377255Y-120419368D01*
X187547522Y-120359789D01*
X187700262Y-120263816D01*
X187827816Y-120136262D01*
X187923789Y-119983522D01*
X187983368Y-119813255D01*
X187984052Y-119807185D01*
X188003565Y-119634003D01*
X188003565Y-119633996D01*
X187983369Y-119454750D01*
X187983368Y-119454745D01*
X187957215Y-119380003D01*
X187923789Y-119284478D01*
X187892766Y-119235106D01*
X187848901Y-119165295D01*
X187827816Y-119131738D01*
X187700262Y-119004184D01*
X187547523Y-118908211D01*
X187377254Y-118848631D01*
X187377250Y-118848630D01*
X187282315Y-118837934D01*
X187217901Y-118810867D01*
X187178346Y-118753272D01*
X187172199Y-118714714D01*
X187172199Y-118485627D01*
X187172197Y-118485608D01*
X187166999Y-118437252D01*
X187166999Y-118410746D01*
X187172200Y-118362372D01*
X187172199Y-117835627D01*
X187166998Y-117787244D01*
X187166999Y-117760741D01*
X187170970Y-117723815D01*
X187172200Y-117712371D01*
X187172199Y-117185626D01*
X187166999Y-117137252D01*
X187166999Y-117110746D01*
X187172200Y-117062372D01*
X187172199Y-116740492D01*
X187191883Y-116673454D01*
X187234204Y-116633103D01*
X187240415Y-116629518D01*
X187352219Y-116517714D01*
X187352219Y-116517712D01*
X187362423Y-116507509D01*
X187362427Y-116507504D01*
X187670074Y-116199856D01*
X187731395Y-116166373D01*
X187771637Y-116164319D01*
X187772744Y-116164443D01*
X187772745Y-116164444D01*
X187789866Y-116166373D01*
X187951997Y-116184641D01*
X187952000Y-116184641D01*
X187952004Y-116184641D01*
X188131249Y-116164445D01*
X188131252Y-116164444D01*
X188131255Y-116164444D01*
X188301522Y-116104865D01*
X188454262Y-116008892D01*
X188581816Y-115881338D01*
X188677789Y-115728598D01*
X188737368Y-115558331D01*
X188741548Y-115521235D01*
X188757565Y-115379079D01*
X188757565Y-115379072D01*
X188737369Y-115199826D01*
X188737366Y-115199813D01*
X188691952Y-115070029D01*
X188688390Y-115000250D01*
X188691949Y-114988127D01*
X188724247Y-114895826D01*
X188737367Y-114858332D01*
X188737369Y-114858322D01*
X188757565Y-114679076D01*
X188757565Y-114679069D01*
X188737369Y-114499823D01*
X188737368Y-114499818D01*
X188677788Y-114329549D01*
X188581815Y-114176810D01*
X188454262Y-114049257D01*
X188301523Y-113953284D01*
X188131254Y-113893704D01*
X188131249Y-113893703D01*
X187952004Y-113873508D01*
X187951996Y-113873508D01*
X187817422Y-113888670D01*
X187748600Y-113876615D01*
X187697221Y-113829266D01*
X187679597Y-113761655D01*
X187686498Y-113724495D01*
X187737366Y-113579123D01*
X187737369Y-113579110D01*
X187757565Y-113399864D01*
X187757565Y-113399857D01*
X187737369Y-113220611D01*
X187737368Y-113220606D01*
X187733917Y-113210743D01*
X187677789Y-113050339D01*
X187641760Y-112993000D01*
X187604990Y-112934480D01*
X187581816Y-112897599D01*
X187454262Y-112770045D01*
X187301524Y-112674073D01*
X187301523Y-112674072D01*
X187252983Y-112657087D01*
X187196207Y-112616365D01*
X187170461Y-112551412D01*
X187170648Y-112526800D01*
X187172200Y-112512374D01*
X187172199Y-111985629D01*
X187166746Y-111934901D01*
X187166747Y-111908394D01*
X187171699Y-111862339D01*
X187171700Y-111862327D01*
X187171700Y-111814500D01*
X187162001Y-111804801D01*
X187127991Y-111794815D01*
X187095765Y-111764812D01*
X187029246Y-111675955D01*
X187029245Y-111675954D01*
X186936822Y-111606766D01*
X186894952Y-111550832D01*
X186889968Y-111481141D01*
X186923454Y-111419818D01*
X186984777Y-111386333D01*
X187011134Y-111383500D01*
X187171700Y-111383500D01*
X187171700Y-111335672D01*
X187171699Y-111335655D01*
X187165298Y-111276127D01*
X187165296Y-111276120D01*
X187115054Y-111141413D01*
X187115050Y-111141406D01*
X187028890Y-111026312D01*
X187028887Y-111026309D01*
X186913793Y-110940149D01*
X186913786Y-110940145D01*
X186779079Y-110889903D01*
X186779072Y-110889901D01*
X186719544Y-110883500D01*
X186067300Y-110883500D01*
X186067300Y-111409001D01*
X186047615Y-111476040D01*
X185994811Y-111521795D01*
X185943300Y-111533001D01*
X185760300Y-111533001D01*
X185693261Y-111513316D01*
X185647506Y-111460512D01*
X185636300Y-111409001D01*
X185636300Y-110883500D01*
X185135936Y-110883500D01*
X185068897Y-110863815D01*
X185023142Y-110811011D01*
X185011936Y-110759500D01*
X185011936Y-110198500D01*
X185031621Y-110131461D01*
X185084425Y-110085706D01*
X185135936Y-110074500D01*
X185599588Y-110074500D01*
X185666627Y-110094185D01*
X185676903Y-110101555D01*
X185679736Y-110103814D01*
X185679738Y-110103816D01*
X185723735Y-110131461D01*
X185830426Y-110198500D01*
X185832478Y-110199789D01*
X185960366Y-110244539D01*
X186002745Y-110259368D01*
X186002750Y-110259369D01*
X186181996Y-110279565D01*
X186182000Y-110279565D01*
X186182004Y-110279565D01*
X186361249Y-110259369D01*
X186361252Y-110259368D01*
X186361255Y-110259368D01*
X186531522Y-110199789D01*
X186684262Y-110103816D01*
X186811816Y-109976262D01*
X186907789Y-109823522D01*
X186967368Y-109653255D01*
X186968491Y-109643282D01*
X186995556Y-109578869D01*
X187046220Y-109541809D01*
X187152511Y-109499894D01*
X187222097Y-109493613D01*
X187243490Y-109499895D01*
X187337656Y-109537029D01*
X187371215Y-109550263D01*
X187456463Y-109560500D01*
X187658789Y-109560499D01*
X187725828Y-109580183D01*
X187771583Y-109632987D01*
X187782009Y-109670616D01*
X187795907Y-109793972D01*
X187795908Y-109793977D01*
X187855488Y-109964246D01*
X187924766Y-110074500D01*
X187951461Y-110116985D01*
X188079015Y-110244539D01*
X188102617Y-110259369D01*
X188217447Y-110331522D01*
X188231755Y-110340512D01*
X188287449Y-110360000D01*
X188402022Y-110400091D01*
X188402027Y-110400092D01*
X188581273Y-110420288D01*
X188581277Y-110420288D01*
X188581281Y-110420288D01*
X188760526Y-110400092D01*
X188760528Y-110400091D01*
X188760532Y-110400091D01*
X188760535Y-110400089D01*
X188760539Y-110400089D01*
X188824354Y-110377758D01*
X188930799Y-110340512D01*
X188997145Y-110298823D01*
X189064375Y-110279824D01*
X189131211Y-110300191D01*
X189150794Y-110316137D01*
X189181031Y-110346374D01*
X189181041Y-110346385D01*
X189185371Y-110350715D01*
X189185372Y-110350716D01*
X189297176Y-110462520D01*
X189359536Y-110498523D01*
X189385250Y-110513369D01*
X189385408Y-110513460D01*
X189411087Y-110533165D01*
X189489738Y-110611816D01*
X189557217Y-110654216D01*
X189624535Y-110696515D01*
X189642478Y-110707789D01*
X189790260Y-110759500D01*
X189812745Y-110767368D01*
X189812750Y-110767369D01*
X189991996Y-110787565D01*
X189992000Y-110787565D01*
X189992004Y-110787565D01*
X190171249Y-110767369D01*
X190171252Y-110767368D01*
X190171255Y-110767368D01*
X190341522Y-110707789D01*
X190494262Y-110611816D01*
X190539319Y-110566759D01*
X190600642Y-110533274D01*
X190670334Y-110538258D01*
X190714681Y-110566759D01*
X190759738Y-110611816D01*
X190827217Y-110654216D01*
X190894535Y-110696515D01*
X190912478Y-110707789D01*
X191060260Y-110759500D01*
X191082745Y-110767368D01*
X191082750Y-110767369D01*
X191261996Y-110787565D01*
X191262000Y-110787565D01*
X191262004Y-110787565D01*
X191441249Y-110767369D01*
X191441252Y-110767368D01*
X191441255Y-110767368D01*
X191611522Y-110707789D01*
X191764262Y-110611816D01*
X191891816Y-110484262D01*
X191953226Y-110386527D01*
X192005561Y-110340237D01*
X192058220Y-110328500D01*
X193219588Y-110328500D01*
X193286627Y-110348185D01*
X193296903Y-110355555D01*
X193299736Y-110357814D01*
X193299738Y-110357816D01*
X193452478Y-110453789D01*
X193580323Y-110498524D01*
X193622745Y-110513368D01*
X193622750Y-110513369D01*
X193801996Y-110533565D01*
X193802000Y-110533565D01*
X193802004Y-110533565D01*
X193981249Y-110513369D01*
X193981252Y-110513368D01*
X193981255Y-110513368D01*
X194151522Y-110453789D01*
X194304262Y-110357816D01*
X194431816Y-110230262D01*
X194527789Y-110077522D01*
X194587368Y-109907255D01*
X194588834Y-109894247D01*
X194607565Y-109728003D01*
X194607565Y-109727999D01*
X194601099Y-109670616D01*
X194600609Y-109666266D01*
X194612663Y-109597447D01*
X194660011Y-109546067D01*
X194678324Y-109537036D01*
X194772511Y-109499893D01*
X194842097Y-109493613D01*
X194863489Y-109499894D01*
X194991215Y-109550263D01*
X195076463Y-109560500D01*
X196915456Y-109560499D01*
X196982495Y-109580184D01*
X197028250Y-109632987D01*
X197038194Y-109702146D01*
X197033162Y-109723503D01*
X196991826Y-109848247D01*
X196991825Y-109848248D01*
X196981500Y-109949315D01*
X196981500Y-110522669D01*
X196981501Y-110522687D01*
X196991825Y-110623752D01*
X197019673Y-110707789D01*
X197046092Y-110787516D01*
X197136660Y-110934350D01*
X197258650Y-111056340D01*
X197405484Y-111146908D01*
X197569247Y-111201174D01*
X197670323Y-111211500D01*
X198368676Y-111211499D01*
X198368684Y-111211498D01*
X198368687Y-111211498D01*
X198424030Y-111205844D01*
X198469753Y-111201174D01*
X198633516Y-111146908D01*
X198780350Y-111056340D01*
X198794671Y-111042018D01*
X198855989Y-111008533D01*
X198925681Y-111013514D01*
X198970034Y-111042017D01*
X198983961Y-111055944D01*
X198983965Y-111055947D01*
X199130688Y-111146448D01*
X199130699Y-111146453D01*
X199294347Y-111200680D01*
X199395351Y-111210999D01*
X199994500Y-111210999D01*
X200093640Y-111210999D01*
X200093654Y-111210998D01*
X200194652Y-111200680D01*
X200358300Y-111146453D01*
X200358311Y-111146448D01*
X200505034Y-111055947D01*
X200505038Y-111055944D01*
X200626944Y-110934038D01*
X200626947Y-110934034D01*
X200717448Y-110787311D01*
X200717453Y-110787300D01*
X200771680Y-110623652D01*
X200781999Y-110522654D01*
X200782000Y-110522641D01*
X200782000Y-110486000D01*
X199994500Y-110486000D01*
X199994500Y-111210999D01*
X199395351Y-111210999D01*
X199494500Y-111210998D01*
X199494500Y-110360000D01*
X199514185Y-110292961D01*
X199566989Y-110247206D01*
X199618500Y-110236000D01*
X199744500Y-110236000D01*
X199744500Y-110110000D01*
X199764185Y-110042961D01*
X199816989Y-109997206D01*
X199868500Y-109986000D01*
X200781999Y-109986000D01*
X200781999Y-109949360D01*
X200781998Y-109949345D01*
X200771680Y-109848347D01*
X200730146Y-109723004D01*
X200727744Y-109653176D01*
X200763476Y-109593134D01*
X200825996Y-109561941D01*
X200847852Y-109560000D01*
X200918000Y-109560000D01*
X201418000Y-109560000D01*
X202179488Y-109560000D01*
X202264663Y-109549772D01*
X202400201Y-109496323D01*
X202516289Y-109408289D01*
X202604323Y-109292201D01*
X202657772Y-109156663D01*
X202668000Y-109071487D01*
X202668000Y-107810000D01*
X201418000Y-107810000D01*
X201418000Y-109560000D01*
X200918000Y-109560000D01*
X200918000Y-107310000D01*
X201418000Y-107310000D01*
X202668000Y-107310000D01*
X202668000Y-106048512D01*
X202657772Y-105963336D01*
X202604323Y-105827798D01*
X202516289Y-105711710D01*
X202400201Y-105623676D01*
X202264663Y-105570227D01*
X202179488Y-105560000D01*
X201418000Y-105560000D01*
X201418000Y-107310000D01*
X200918000Y-107310000D01*
X200918000Y-105560000D01*
X200156512Y-105560000D01*
X200071335Y-105570228D01*
X199944170Y-105620374D01*
X199874583Y-105626655D01*
X199853191Y-105620374D01*
X199726030Y-105570228D01*
X199724785Y-105569737D01*
X199724784Y-105569736D01*
X199724782Y-105569736D01*
X199684687Y-105564921D01*
X199639537Y-105559500D01*
X199639531Y-105559500D01*
X197616469Y-105559500D01*
X197531215Y-105569737D01*
X197531211Y-105569738D01*
X197403490Y-105620105D01*
X197333903Y-105626387D01*
X197312510Y-105620105D01*
X197184786Y-105569737D01*
X197170577Y-105568030D01*
X197099537Y-105559500D01*
X197099532Y-105559500D01*
X195745476Y-105559500D01*
X195678437Y-105539815D01*
X195632682Y-105487011D01*
X195622256Y-105421613D01*
X195623436Y-105411148D01*
X195623565Y-105410000D01*
X195622918Y-105404262D01*
X195603369Y-105230750D01*
X195603368Y-105230745D01*
X195551057Y-105081249D01*
X195543789Y-105060478D01*
X195515914Y-105016116D01*
X195447815Y-104907737D01*
X195320262Y-104780184D01*
X195167523Y-104684211D01*
X194997254Y-104624631D01*
X194997249Y-104624630D01*
X194818004Y-104604435D01*
X194817996Y-104604435D01*
X194638750Y-104624630D01*
X194638745Y-104624631D01*
X194468476Y-104684211D01*
X194315736Y-104780185D01*
X194312903Y-104782445D01*
X194310724Y-104783334D01*
X194309842Y-104783889D01*
X194309744Y-104783734D01*
X194248217Y-104808855D01*
X194235588Y-104809500D01*
X193848097Y-104809500D01*
X193781058Y-104789815D01*
X193760416Y-104773181D01*
X193244235Y-104257000D01*
X197399000Y-104257000D01*
X200066000Y-104257000D01*
X201463000Y-104257000D01*
X204130000Y-104257000D01*
X204130000Y-102479000D01*
X201463000Y-102479000D01*
X201463000Y-104257000D01*
X200066000Y-104257000D01*
X200066000Y-102479000D01*
X197399000Y-102479000D01*
X197399000Y-104257000D01*
X193244235Y-104257000D01*
X188097416Y-99110181D01*
X188063931Y-99048858D01*
X188068915Y-98979166D01*
X188110787Y-98923233D01*
X188176251Y-98898816D01*
X188185097Y-98898500D01*
X194477331Y-98898500D01*
X194477347Y-98898501D01*
X194484943Y-98898501D01*
X194643054Y-98898501D01*
X194643057Y-98898501D01*
X194795785Y-98857577D01*
X194875180Y-98811738D01*
X194932716Y-98778520D01*
X195044520Y-98666716D01*
X195044520Y-98666714D01*
X195054724Y-98656511D01*
X195054728Y-98656506D01*
X195921237Y-97789997D01*
X198142723Y-97789997D01*
X198142723Y-97790002D01*
X198161793Y-98007975D01*
X198161793Y-98007979D01*
X198218422Y-98219322D01*
X198218424Y-98219326D01*
X198218425Y-98219330D01*
X198240382Y-98266416D01*
X198310897Y-98417638D01*
X198310898Y-98417639D01*
X198436402Y-98596877D01*
X198591123Y-98751598D01*
X198770360Y-98877101D01*
X198770361Y-98877102D01*
X198921583Y-98947618D01*
X198974022Y-98993790D01*
X198993174Y-99060984D01*
X198972958Y-99127865D01*
X198921583Y-99172382D01*
X198770361Y-99242898D01*
X198770357Y-99242900D01*
X198591121Y-99368402D01*
X198436402Y-99523121D01*
X198310900Y-99702357D01*
X198310898Y-99702361D01*
X198218426Y-99900668D01*
X198218422Y-99900677D01*
X198161793Y-100112020D01*
X198161793Y-100112024D01*
X198142723Y-100329997D01*
X198142723Y-100330002D01*
X198161793Y-100547975D01*
X198161793Y-100547979D01*
X198218422Y-100759322D01*
X198218424Y-100759326D01*
X198218425Y-100759330D01*
X198240382Y-100806416D01*
X198310897Y-100957638D01*
X198330890Y-100986190D01*
X198436402Y-101136877D01*
X198591123Y-101291598D01*
X198770361Y-101417102D01*
X198968670Y-101509575D01*
X199180023Y-101566207D01*
X199362926Y-101582208D01*
X199397998Y-101585277D01*
X199398000Y-101585277D01*
X199398002Y-101585277D01*
X199426254Y-101582805D01*
X199615977Y-101566207D01*
X199827330Y-101509575D01*
X200025639Y-101417102D01*
X200204877Y-101291598D01*
X200359598Y-101136877D01*
X200485102Y-100957639D01*
X200555618Y-100806414D01*
X200601790Y-100753977D01*
X200668984Y-100734825D01*
X200735865Y-100755041D01*
X200780381Y-100806414D01*
X200850898Y-100957639D01*
X200976402Y-101136877D01*
X201131123Y-101291598D01*
X201310361Y-101417102D01*
X201508670Y-101509575D01*
X201720023Y-101566207D01*
X201902926Y-101582208D01*
X201937998Y-101585277D01*
X201938000Y-101585277D01*
X201938002Y-101585277D01*
X201966254Y-101582805D01*
X202155977Y-101566207D01*
X202367330Y-101509575D01*
X202565639Y-101417102D01*
X202744877Y-101291598D01*
X202899598Y-101136877D01*
X203025102Y-100957639D01*
X203117575Y-100759330D01*
X203174207Y-100547977D01*
X203193277Y-100330000D01*
X203174207Y-100112023D01*
X203117575Y-99900670D01*
X203025102Y-99702362D01*
X203025100Y-99702359D01*
X203025099Y-99702357D01*
X202899599Y-99523124D01*
X202899596Y-99523121D01*
X202744877Y-99368402D01*
X202565639Y-99242898D01*
X202414414Y-99172381D01*
X202361977Y-99126210D01*
X202342825Y-99059016D01*
X202363041Y-98992135D01*
X202414414Y-98947618D01*
X202565639Y-98877102D01*
X202744877Y-98751598D01*
X202899598Y-98596877D01*
X203025102Y-98417639D01*
X203117575Y-98219330D01*
X203174207Y-98007977D01*
X203193277Y-97790000D01*
X203174207Y-97572023D01*
X203117575Y-97360670D01*
X203025102Y-97162362D01*
X203025100Y-97162359D01*
X203025099Y-97162357D01*
X202899599Y-96983124D01*
X202899596Y-96983121D01*
X202744877Y-96828402D01*
X202565639Y-96702898D01*
X202565640Y-96702898D01*
X202565638Y-96702897D01*
X202466484Y-96656661D01*
X202367330Y-96610425D01*
X202367326Y-96610424D01*
X202367322Y-96610422D01*
X202155977Y-96553793D01*
X201938002Y-96534723D01*
X201937998Y-96534723D01*
X201792682Y-96547436D01*
X201720023Y-96553793D01*
X201720020Y-96553793D01*
X201508677Y-96610422D01*
X201508668Y-96610426D01*
X201310361Y-96702898D01*
X201310357Y-96702900D01*
X201131121Y-96828402D01*
X200976402Y-96983121D01*
X200850900Y-97162357D01*
X200850898Y-97162361D01*
X200780382Y-97313583D01*
X200734209Y-97366022D01*
X200667016Y-97385174D01*
X200600135Y-97364958D01*
X200555618Y-97313583D01*
X200541118Y-97282488D01*
X200485102Y-97162362D01*
X200485100Y-97162359D01*
X200485099Y-97162357D01*
X200359599Y-96983124D01*
X200359596Y-96983121D01*
X200204877Y-96828402D01*
X200025639Y-96702898D01*
X200025640Y-96702898D01*
X200025638Y-96702897D01*
X199926484Y-96656661D01*
X199827330Y-96610425D01*
X199827326Y-96610424D01*
X199827322Y-96610422D01*
X199615977Y-96553793D01*
X199398002Y-96534723D01*
X199397998Y-96534723D01*
X199252682Y-96547436D01*
X199180023Y-96553793D01*
X199180020Y-96553793D01*
X198968677Y-96610422D01*
X198968668Y-96610426D01*
X198770361Y-96702898D01*
X198770357Y-96702900D01*
X198591121Y-96828402D01*
X198436402Y-96983121D01*
X198310900Y-97162357D01*
X198310898Y-97162361D01*
X198218426Y-97360668D01*
X198218422Y-97360677D01*
X198161793Y-97572020D01*
X198161793Y-97572024D01*
X198142723Y-97789997D01*
X195921237Y-97789997D01*
X197208506Y-96502728D01*
X197208511Y-96502724D01*
X197218714Y-96492520D01*
X197218716Y-96492520D01*
X197330520Y-96380716D01*
X197396751Y-96266000D01*
X197409577Y-96243785D01*
X197450500Y-96091058D01*
X197450500Y-95932943D01*
X197450500Y-95745000D01*
X197470185Y-95677961D01*
X197522989Y-95632206D01*
X197574500Y-95621000D01*
X200066000Y-95621000D01*
X201463000Y-95621000D01*
X204130000Y-95621000D01*
X204130000Y-93843000D01*
X201463000Y-93843000D01*
X201463000Y-95621000D01*
X200066000Y-95621000D01*
X200066000Y-94080501D01*
X200085685Y-94013462D01*
X200138489Y-93967707D01*
X200190000Y-93956501D01*
X200347054Y-93956501D01*
X200347057Y-93956501D01*
X200499785Y-93915577D01*
X200549904Y-93886639D01*
X200636716Y-93836520D01*
X200748520Y-93724716D01*
X200748520Y-93724714D01*
X200758728Y-93714507D01*
X200758730Y-93714504D01*
X201536713Y-92936521D01*
X201536716Y-92936520D01*
X201648520Y-92824716D01*
X201698639Y-92737904D01*
X201727577Y-92687785D01*
X201737057Y-92652405D01*
X201773423Y-92592745D01*
X201836270Y-92562216D01*
X201856832Y-92560499D01*
X202179531Y-92560499D01*
X202179536Y-92560499D01*
X202264785Y-92550263D01*
X202400448Y-92496764D01*
X202516647Y-92408647D01*
X202604764Y-92292448D01*
X202658263Y-92156785D01*
X202668500Y-92071537D01*
X202668499Y-89048464D01*
X202658263Y-88963215D01*
X202604764Y-88827552D01*
X202604763Y-88827551D01*
X202604763Y-88827550D01*
X202516647Y-88711352D01*
X202400449Y-88623236D01*
X202275826Y-88574091D01*
X202264785Y-88569737D01*
X202264784Y-88569736D01*
X202264782Y-88569736D01*
X202224687Y-88564921D01*
X202179537Y-88559500D01*
X202179531Y-88559500D01*
X200156469Y-88559500D01*
X200071215Y-88569737D01*
X200071211Y-88569738D01*
X199943490Y-88620105D01*
X199873903Y-88626387D01*
X199852510Y-88620105D01*
X199724786Y-88569737D01*
X199712606Y-88568274D01*
X199639537Y-88559500D01*
X199639531Y-88559500D01*
X197616469Y-88559500D01*
X197531215Y-88569737D01*
X197531211Y-88569738D01*
X197403490Y-88620105D01*
X197333903Y-88626387D01*
X197312510Y-88620105D01*
X197184786Y-88569737D01*
X197172606Y-88568274D01*
X197099537Y-88559500D01*
X197099531Y-88559500D01*
X195076469Y-88559500D01*
X194991215Y-88569737D01*
X194991211Y-88569738D01*
X194863490Y-88620105D01*
X194793903Y-88626387D01*
X194772510Y-88620105D01*
X194644786Y-88569737D01*
X194632606Y-88568274D01*
X194559537Y-88559500D01*
X194559531Y-88559500D01*
X192536469Y-88559500D01*
X192451215Y-88569737D01*
X192451211Y-88569738D01*
X192323490Y-88620105D01*
X192253903Y-88626387D01*
X192232510Y-88620105D01*
X192104786Y-88569737D01*
X192092606Y-88568274D01*
X192019537Y-88559500D01*
X192019531Y-88559500D01*
X189996469Y-88559500D01*
X189911215Y-88569737D01*
X189911211Y-88569738D01*
X189783490Y-88620105D01*
X189713903Y-88626387D01*
X189692510Y-88620105D01*
X189564786Y-88569737D01*
X189552606Y-88568274D01*
X189479537Y-88559500D01*
X189479531Y-88559500D01*
X187456469Y-88559500D01*
X187371215Y-88569737D01*
X187371211Y-88569738D01*
X187243490Y-88620105D01*
X187173903Y-88626387D01*
X187152510Y-88620105D01*
X187024786Y-88569737D01*
X187012606Y-88568274D01*
X186939537Y-88559500D01*
X186939531Y-88559500D01*
X184916469Y-88559500D01*
X184831216Y-88569736D01*
X184695550Y-88623236D01*
X184579352Y-88711352D01*
X184491236Y-88827550D01*
X184437736Y-88963217D01*
X184436080Y-88977011D01*
X184427500Y-89048463D01*
X184427500Y-90436711D01*
X184427501Y-91731500D01*
X184407816Y-91798539D01*
X184355013Y-91844294D01*
X184303501Y-91855500D01*
X182214901Y-91855500D01*
X182147862Y-91835815D01*
X182109362Y-91796596D01*
X182081548Y-91751502D01*
X182083501Y-91750297D01*
X182061499Y-91695773D01*
X182074534Y-91627130D01*
X182122610Y-91576431D01*
X182172302Y-91560289D01*
X182251753Y-91552174D01*
X182415516Y-91497908D01*
X182562350Y-91407340D01*
X182684340Y-91285350D01*
X182774908Y-91138516D01*
X182829174Y-90974753D01*
X182839500Y-90873677D01*
X182839499Y-90175324D01*
X182838088Y-90161515D01*
X182829174Y-90074247D01*
X182803826Y-89997753D01*
X182774908Y-89910484D01*
X182684340Y-89763650D01*
X182670017Y-89749327D01*
X182636532Y-89688004D01*
X182641516Y-89618312D01*
X182670021Y-89573960D01*
X182683947Y-89560035D01*
X182774448Y-89413311D01*
X182774453Y-89413300D01*
X182828680Y-89249652D01*
X182838999Y-89148654D01*
X182839000Y-89148641D01*
X182839000Y-89049500D01*
X181988000Y-89049500D01*
X181920961Y-89029815D01*
X181875206Y-88977011D01*
X181864000Y-88925500D01*
X181864000Y-88799500D01*
X181738000Y-88799500D01*
X181670961Y-88779815D01*
X181625206Y-88727011D01*
X181614000Y-88675500D01*
X181614000Y-88549500D01*
X182114000Y-88549500D01*
X182838999Y-88549500D01*
X182838999Y-88450360D01*
X182838998Y-88450345D01*
X182828680Y-88349347D01*
X182774453Y-88185699D01*
X182774448Y-88185688D01*
X182683947Y-88038965D01*
X182683944Y-88038961D01*
X182562038Y-87917055D01*
X182562034Y-87917052D01*
X182415311Y-87826551D01*
X182415300Y-87826546D01*
X182251652Y-87772319D01*
X182150654Y-87762000D01*
X182114000Y-87762000D01*
X182114000Y-88549500D01*
X181614000Y-88549500D01*
X181614000Y-87762000D01*
X181577361Y-87762000D01*
X181577343Y-87762001D01*
X181476347Y-87772319D01*
X181312699Y-87826546D01*
X181312688Y-87826551D01*
X181165965Y-87917052D01*
X181165961Y-87917055D01*
X181044055Y-88038961D01*
X181044052Y-88038965D01*
X180949755Y-88191844D01*
X180948128Y-88190840D01*
X180908370Y-88235987D01*
X180841175Y-88255134D01*
X180774295Y-88234913D01*
X180728965Y-88181744D01*
X180725362Y-88172461D01*
X180724909Y-88171488D01*
X180724908Y-88171484D01*
X180634340Y-88024650D01*
X180512350Y-87902660D01*
X180365516Y-87812092D01*
X180201753Y-87757826D01*
X180201751Y-87757825D01*
X180100678Y-87747500D01*
X179527330Y-87747500D01*
X179527312Y-87747501D01*
X179426247Y-87757825D01*
X179262484Y-87812092D01*
X179262477Y-87812095D01*
X179200499Y-87850324D01*
X179133107Y-87868764D01*
X179066443Y-87847841D01*
X179021674Y-87794199D01*
X179017697Y-87783790D01*
X179010477Y-87762001D01*
X178964908Y-87624484D01*
X178874340Y-87477650D01*
X178860017Y-87463327D01*
X178826532Y-87402004D01*
X178831516Y-87332312D01*
X178860021Y-87287960D01*
X178873946Y-87274036D01*
X178902086Y-87228414D01*
X178954034Y-87181689D01*
X179022996Y-87170466D01*
X179081933Y-87194242D01*
X179188867Y-87274293D01*
X179188870Y-87274295D01*
X179188873Y-87274297D01*
X179323719Y-87324591D01*
X179323718Y-87324591D01*
X179330646Y-87325335D01*
X179383329Y-87331000D01*
X180933974Y-87330999D01*
X180993585Y-87324591D01*
X181128433Y-87274296D01*
X181243648Y-87188046D01*
X181329898Y-87072831D01*
X181380193Y-86937983D01*
X181386602Y-86878373D01*
X181386601Y-86224628D01*
X181380193Y-86165017D01*
X181379942Y-86164345D01*
X181329899Y-86030171D01*
X181329897Y-86030168D01*
X181325015Y-86023647D01*
X181300122Y-85990394D01*
X181275705Y-85924930D01*
X181290556Y-85856657D01*
X181300123Y-85841771D01*
X181329453Y-85802591D01*
X181379699Y-85667876D01*
X181379700Y-85667872D01*
X181386101Y-85608344D01*
X181386102Y-85608327D01*
X181386102Y-85531500D01*
X178931202Y-85531500D01*
X178926167Y-85536534D01*
X178911517Y-85586428D01*
X178858713Y-85632183D01*
X178789555Y-85642127D01*
X178742105Y-85624928D01*
X178605305Y-85540548D01*
X178605300Y-85540546D01*
X178441652Y-85486319D01*
X178340654Y-85476000D01*
X178304000Y-85476000D01*
X178304000Y-86389500D01*
X178284315Y-86456539D01*
X178231511Y-86502294D01*
X178180000Y-86513500D01*
X178054000Y-86513500D01*
X178054000Y-86639500D01*
X178034315Y-86706539D01*
X177981511Y-86752294D01*
X177930000Y-86763500D01*
X177079001Y-86763500D01*
X177079001Y-86862654D01*
X177089319Y-86963652D01*
X177143546Y-87127300D01*
X177143551Y-87127311D01*
X177234052Y-87274034D01*
X177234055Y-87274038D01*
X177247982Y-87287965D01*
X177281467Y-87349288D01*
X177276483Y-87418980D01*
X177247984Y-87463325D01*
X177233661Y-87477648D01*
X177143093Y-87624481D01*
X177143092Y-87624484D01*
X177088826Y-87788247D01*
X177088826Y-87788248D01*
X177088825Y-87788248D01*
X177078500Y-87889315D01*
X177078500Y-88099216D01*
X177058815Y-88166255D01*
X177006011Y-88212010D01*
X176936853Y-88221954D01*
X176911167Y-88215398D01*
X176825381Y-88183402D01*
X176825373Y-88183400D01*
X176765845Y-88176999D01*
X176714001Y-88176999D01*
X176714001Y-88900449D01*
X177103451Y-88900449D01*
X177170490Y-88920134D01*
X177208989Y-88959352D01*
X177233660Y-88999350D01*
X177355650Y-89121340D01*
X177502484Y-89211908D01*
X177666247Y-89266174D01*
X177767323Y-89276500D01*
X178340676Y-89276499D01*
X178340684Y-89276498D01*
X178340687Y-89276498D01*
X178396030Y-89270844D01*
X178441753Y-89266174D01*
X178605516Y-89211908D01*
X178667501Y-89173675D01*
X178734890Y-89155235D01*
X178801554Y-89176157D01*
X178846324Y-89229798D01*
X178850302Y-89240209D01*
X178862328Y-89276499D01*
X178903092Y-89399516D01*
X178978857Y-89522351D01*
X178993661Y-89546351D01*
X179007629Y-89560319D01*
X179041114Y-89621642D01*
X179036130Y-89691334D01*
X179007629Y-89735681D01*
X178993661Y-89749648D01*
X178903093Y-89896481D01*
X178903091Y-89896486D01*
X178851056Y-90053517D01*
X178811283Y-90110962D01*
X178747234Y-90137733D01*
X178636749Y-90150181D01*
X178636745Y-90150182D01*
X178466476Y-90209762D01*
X178313736Y-90305736D01*
X178310903Y-90307996D01*
X178308724Y-90308885D01*
X178307842Y-90309440D01*
X178307744Y-90309285D01*
X178246217Y-90334406D01*
X178233588Y-90335051D01*
X177566671Y-90335051D01*
X177566655Y-90335050D01*
X177559059Y-90335050D01*
X177400944Y-90335050D01*
X177324580Y-90355512D01*
X177248215Y-90375974D01*
X177248210Y-90375977D01*
X177111291Y-90455026D01*
X177111287Y-90455029D01*
X176877204Y-90689111D01*
X176815881Y-90722595D01*
X176776272Y-90724719D01*
X176765874Y-90723601D01*
X176765869Y-90723601D01*
X176162130Y-90723601D01*
X176162124Y-90723602D01*
X176102517Y-90730009D01*
X175967672Y-90780303D01*
X175967665Y-90780307D01*
X175852456Y-90866553D01*
X175852453Y-90866556D01*
X175766207Y-90981765D01*
X175766203Y-90981772D01*
X175715909Y-91116618D01*
X175713555Y-91138518D01*
X175709502Y-91176224D01*
X175709501Y-91176236D01*
X175709501Y-92218871D01*
X175709502Y-92218877D01*
X175715909Y-92278484D01*
X175766203Y-92413329D01*
X175766207Y-92413336D01*
X175852453Y-92528545D01*
X175852456Y-92528548D01*
X175967665Y-92614794D01*
X175967672Y-92614798D01*
X176012619Y-92631562D01*
X176102518Y-92665092D01*
X176162128Y-92671501D01*
X176166030Y-92671500D01*
X176233069Y-92691175D01*
X176278831Y-92743973D01*
X176288784Y-92813130D01*
X176259768Y-92876690D01*
X176231146Y-92901035D01*
X176223655Y-92905655D01*
X176223649Y-92905660D01*
X176109681Y-93019629D01*
X176048358Y-93053114D01*
X175978666Y-93048130D01*
X175934319Y-93019629D01*
X175820351Y-92905661D01*
X175820350Y-92905660D01*
X175673516Y-92815092D01*
X175509753Y-92760826D01*
X175509751Y-92760825D01*
X175408684Y-92750500D01*
X175251610Y-92750500D01*
X175184571Y-92730815D01*
X175138816Y-92678011D01*
X175128872Y-92608853D01*
X175157897Y-92545297D01*
X175170910Y-92533181D01*
X175175541Y-92528549D01*
X175175545Y-92528547D01*
X175261795Y-92413332D01*
X175312090Y-92278484D01*
X175318499Y-92218874D01*
X175318498Y-91176229D01*
X175312090Y-91116618D01*
X175296855Y-91075772D01*
X175261796Y-90981772D01*
X175261792Y-90981765D01*
X175175546Y-90866556D01*
X175175543Y-90866553D01*
X175060334Y-90780307D01*
X175060327Y-90780303D01*
X174925485Y-90730011D01*
X174925484Y-90730010D01*
X174925482Y-90730010D01*
X174865872Y-90723601D01*
X174865862Y-90723601D01*
X174262128Y-90723601D01*
X174262122Y-90723602D01*
X174202515Y-90730009D01*
X174067670Y-90780303D01*
X174067663Y-90780307D01*
X173952454Y-90866553D01*
X173895314Y-90942882D01*
X173839380Y-90984752D01*
X173769688Y-90989736D01*
X173708366Y-90956250D01*
X173674881Y-90894926D01*
X173672690Y-90881171D01*
X173666681Y-90822348D01*
X173612453Y-90658699D01*
X173612448Y-90658688D01*
X173521947Y-90511965D01*
X173521944Y-90511961D01*
X173508017Y-90498034D01*
X173474532Y-90436711D01*
X173479516Y-90367019D01*
X173508017Y-90322672D01*
X173522340Y-90308350D01*
X173612908Y-90161516D01*
X173667174Y-89997753D01*
X173670691Y-89963323D01*
X173697086Y-89898632D01*
X173754266Y-89858480D01*
X173824077Y-89855616D01*
X173884355Y-89890949D01*
X173893315Y-89901614D01*
X173952808Y-89981086D01*
X173952811Y-89981089D01*
X174067905Y-90067249D01*
X174067912Y-90067253D01*
X174202619Y-90117495D01*
X174202626Y-90117497D01*
X174262154Y-90123898D01*
X174262171Y-90123899D01*
X174313999Y-90123899D01*
X174313999Y-89139995D01*
X174690435Y-89139995D01*
X174690435Y-89140002D01*
X174691611Y-89150447D01*
X174710631Y-89319252D01*
X174752542Y-89439028D01*
X174759500Y-89479981D01*
X174759500Y-89671768D01*
X174759501Y-89671775D01*
X174765908Y-89731380D01*
X174776449Y-89759642D01*
X174806181Y-89839358D01*
X174813999Y-89882689D01*
X174813999Y-90123899D01*
X174865827Y-90123899D01*
X174865843Y-90123898D01*
X174925376Y-90117496D01*
X174925378Y-90117496D01*
X174994949Y-90091547D01*
X175064641Y-90086561D01*
X175081616Y-90091545D01*
X175152517Y-90117990D01*
X175212127Y-90124399D01*
X175815872Y-90124398D01*
X175875483Y-90117990D01*
X175946380Y-90091546D01*
X176016071Y-90086562D01*
X176033047Y-90091546D01*
X176102621Y-90117495D01*
X176102628Y-90117497D01*
X176162156Y-90123898D01*
X176162173Y-90123899D01*
X176214001Y-90123899D01*
X176714001Y-90123899D01*
X176765829Y-90123899D01*
X176765845Y-90123898D01*
X176825373Y-90117497D01*
X176825380Y-90117495D01*
X176960087Y-90067253D01*
X176960094Y-90067249D01*
X177075188Y-89981089D01*
X177075191Y-89981086D01*
X177161351Y-89865992D01*
X177161355Y-89865985D01*
X177211597Y-89731278D01*
X177211599Y-89731271D01*
X177218000Y-89671743D01*
X177218001Y-89671726D01*
X177218001Y-89400449D01*
X176714001Y-89400449D01*
X176714001Y-90123899D01*
X176214001Y-90123899D01*
X176214001Y-89882689D01*
X176221818Y-89839358D01*
X176262091Y-89731382D01*
X176268500Y-89671772D01*
X176268499Y-89377099D01*
X176275458Y-89336143D01*
X176281368Y-89319255D01*
X176281368Y-89319253D01*
X176281369Y-89319251D01*
X176300389Y-89150447D01*
X176301565Y-89140002D01*
X176301565Y-89139995D01*
X176281369Y-88960750D01*
X176281368Y-88960747D01*
X176281368Y-88960745D01*
X176275456Y-88943851D01*
X176268499Y-88902900D01*
X176268499Y-88629128D01*
X176268498Y-88629122D01*
X176268497Y-88629115D01*
X176262091Y-88569516D01*
X176258356Y-88559501D01*
X176221819Y-88461540D01*
X176214001Y-88418207D01*
X176214001Y-88176999D01*
X176162156Y-88176999D01*
X176102628Y-88183400D01*
X176102617Y-88183402D01*
X176033046Y-88209351D01*
X175963354Y-88214335D01*
X175946381Y-88209351D01*
X175875486Y-88182909D01*
X175875485Y-88182908D01*
X175875483Y-88182908D01*
X175815873Y-88176499D01*
X175815863Y-88176499D01*
X175212129Y-88176499D01*
X175212123Y-88176500D01*
X175152520Y-88182907D01*
X175152517Y-88182907D01*
X175152517Y-88182908D01*
X175145034Y-88185699D01*
X175081616Y-88209352D01*
X175011924Y-88214335D01*
X174994951Y-88209351D01*
X174925378Y-88183402D01*
X174925371Y-88183400D01*
X174865843Y-88176999D01*
X174813999Y-88176999D01*
X174813999Y-88418207D01*
X174806181Y-88461540D01*
X174765908Y-88569516D01*
X174760470Y-88620105D01*
X174759501Y-88629122D01*
X174759500Y-88629134D01*
X174759500Y-88800017D01*
X174752542Y-88840971D01*
X174710631Y-88960747D01*
X174690435Y-89139995D01*
X174313999Y-89139995D01*
X174313999Y-88176999D01*
X174262154Y-88176999D01*
X174202626Y-88183400D01*
X174202619Y-88183402D01*
X174067912Y-88233644D01*
X174067905Y-88233648D01*
X173952811Y-88319808D01*
X173952808Y-88319811D01*
X173866648Y-88434905D01*
X173866644Y-88434912D01*
X173816402Y-88569619D01*
X173816400Y-88569626D01*
X173809999Y-88629154D01*
X173809999Y-88815781D01*
X173790314Y-88882820D01*
X173737510Y-88928575D01*
X173668352Y-88938519D01*
X173604796Y-88909494D01*
X173580460Y-88880878D01*
X173522340Y-88786650D01*
X173400350Y-88664660D01*
X173253516Y-88574092D01*
X173089753Y-88519826D01*
X173089751Y-88519825D01*
X172988678Y-88509500D01*
X172415330Y-88509500D01*
X172415312Y-88509501D01*
X172314247Y-88519825D01*
X172150484Y-88574092D01*
X172150481Y-88574093D01*
X172003648Y-88664661D01*
X171881661Y-88786648D01*
X171791093Y-88933481D01*
X171791091Y-88933486D01*
X171782058Y-88960747D01*
X171736826Y-89097247D01*
X171736826Y-89097248D01*
X171736825Y-89097248D01*
X171726500Y-89198315D01*
X171726500Y-89896669D01*
X171726501Y-89896687D01*
X171736825Y-89997752D01*
X171767906Y-90091546D01*
X171791028Y-90161324D01*
X171791092Y-90161515D01*
X171791093Y-90161518D01*
X171820850Y-90209762D01*
X171881659Y-90308349D01*
X171881661Y-90308351D01*
X171895982Y-90322672D01*
X171929467Y-90383995D01*
X171924483Y-90453687D01*
X171895985Y-90498032D01*
X171882052Y-90511965D01*
X171791551Y-90658688D01*
X171791546Y-90658699D01*
X171737319Y-90822347D01*
X171727000Y-90923345D01*
X171727000Y-91022500D01*
X172578000Y-91022500D01*
X172645039Y-91042185D01*
X172690794Y-91094989D01*
X172702000Y-91146500D01*
X172702000Y-91272500D01*
X172828000Y-91272500D01*
X172895039Y-91292185D01*
X172940794Y-91344989D01*
X172952000Y-91396500D01*
X172952000Y-92309999D01*
X172988640Y-92309999D01*
X172988654Y-92309998D01*
X173089652Y-92299680D01*
X173253300Y-92245453D01*
X173253311Y-92245448D01*
X173400034Y-92154947D01*
X173400038Y-92154944D01*
X173521945Y-92033037D01*
X173579960Y-91938980D01*
X173631908Y-91892255D01*
X173700870Y-91881032D01*
X173764953Y-91908875D01*
X173803809Y-91966944D01*
X173809499Y-92004075D01*
X173809499Y-92218870D01*
X173809500Y-92218877D01*
X173815907Y-92278484D01*
X173866201Y-92413329D01*
X173866205Y-92413336D01*
X173952451Y-92528545D01*
X173952454Y-92528548D01*
X174067663Y-92614794D01*
X174067670Y-92614798D01*
X174112617Y-92631562D01*
X174202516Y-92665092D01*
X174262126Y-92671501D01*
X174341044Y-92671500D01*
X174408082Y-92691184D01*
X174453838Y-92743987D01*
X174463782Y-92813146D01*
X174434758Y-92876702D01*
X174406146Y-92901035D01*
X174398655Y-92905655D01*
X174398649Y-92905660D01*
X174276661Y-93027648D01*
X174186093Y-93174481D01*
X174186092Y-93174484D01*
X174131826Y-93338247D01*
X174131826Y-93338248D01*
X174131825Y-93338248D01*
X174121500Y-93439315D01*
X174121500Y-94012669D01*
X174121501Y-94012687D01*
X174131825Y-94113752D01*
X174155782Y-94186047D01*
X174181198Y-94262748D01*
X174186092Y-94277515D01*
X174186093Y-94277518D01*
X174276661Y-94424351D01*
X174379629Y-94527319D01*
X174413114Y-94588642D01*
X174408130Y-94658334D01*
X174379629Y-94702681D01*
X174276661Y-94805648D01*
X174186093Y-94952481D01*
X174186092Y-94952484D01*
X174131826Y-95116247D01*
X174131826Y-95116248D01*
X174131825Y-95116248D01*
X174121500Y-95217315D01*
X174121500Y-95790669D01*
X174121501Y-95790687D01*
X174131825Y-95891752D01*
X174186092Y-96055515D01*
X174186093Y-96055518D01*
X174276661Y-96202351D01*
X174379629Y-96305319D01*
X174413114Y-96366642D01*
X174408130Y-96436334D01*
X174379629Y-96480681D01*
X174276661Y-96583648D01*
X174186093Y-96730481D01*
X174186091Y-96730486D01*
X174162190Y-96802616D01*
X174131826Y-96894247D01*
X174131826Y-96894248D01*
X174131825Y-96894248D01*
X174121500Y-96995315D01*
X174121500Y-97568669D01*
X174121501Y-97568687D01*
X174131825Y-97669752D01*
X174186092Y-97833515D01*
X174186093Y-97833518D01*
X174205203Y-97864500D01*
X174276660Y-97980350D01*
X174398650Y-98102340D01*
X174450097Y-98134072D01*
X174496821Y-98186017D01*
X174509000Y-98239610D01*
X174509000Y-98645845D01*
X174508999Y-98645863D01*
X174508999Y-98811569D01*
X174508998Y-98811569D01*
X174509043Y-98811738D01*
X174549923Y-98964300D01*
X174576006Y-99009477D01*
X174628977Y-99101227D01*
X174628981Y-99101232D01*
X174747849Y-99220100D01*
X174747855Y-99220105D01*
X176930790Y-101403040D01*
X176964275Y-101464363D01*
X176966329Y-101476837D01*
X176976122Y-101563758D01*
X176976123Y-101563762D01*
X177035703Y-101734031D01*
X177038842Y-101739026D01*
X177131676Y-101886770D01*
X177259230Y-102014324D01*
X177259660Y-102014594D01*
X177259878Y-102014840D01*
X177264676Y-102018667D01*
X177264005Y-102019507D01*
X177305952Y-102066928D01*
X177316602Y-102135981D01*
X177288228Y-102199830D01*
X177229839Y-102238203D01*
X177206293Y-102242947D01*
X177148746Y-102248826D01*
X176984984Y-102303092D01*
X176984981Y-102303093D01*
X176838148Y-102393661D01*
X176716160Y-102515649D01*
X176716157Y-102515653D01*
X176692137Y-102554596D01*
X176640189Y-102601321D01*
X176586599Y-102613499D01*
X176500943Y-102613499D01*
X176424579Y-102633961D01*
X176348214Y-102654423D01*
X176348209Y-102654426D01*
X176211290Y-102733475D01*
X176211282Y-102733481D01*
X175607982Y-103336781D01*
X175546659Y-103370266D01*
X175520301Y-103373100D01*
X174633430Y-103373100D01*
X174566391Y-103353415D01*
X174520636Y-103300611D01*
X174510692Y-103231453D01*
X174534161Y-103174793D01*
X174607197Y-103077231D01*
X174657492Y-102942383D01*
X174663901Y-102882773D01*
X174663900Y-100577228D01*
X174657492Y-100517617D01*
X174649052Y-100494989D01*
X174607198Y-100382771D01*
X174607194Y-100382764D01*
X174520948Y-100267555D01*
X174520945Y-100267552D01*
X174405736Y-100181306D01*
X174405729Y-100181302D01*
X174270883Y-100131008D01*
X174270884Y-100131008D01*
X174211284Y-100124601D01*
X174211282Y-100124600D01*
X174211274Y-100124600D01*
X174211265Y-100124600D01*
X171016730Y-100124600D01*
X171016724Y-100124601D01*
X170957116Y-100131009D01*
X170895832Y-100153866D01*
X170826140Y-100158850D01*
X170764818Y-100125364D01*
X170731333Y-100064041D01*
X170728500Y-100037684D01*
X170728500Y-91621654D01*
X171727001Y-91621654D01*
X171737319Y-91722652D01*
X171791546Y-91886300D01*
X171791551Y-91886311D01*
X171882052Y-92033034D01*
X171882055Y-92033038D01*
X172003961Y-92154944D01*
X172003965Y-92154947D01*
X172150688Y-92245448D01*
X172150699Y-92245453D01*
X172314347Y-92299680D01*
X172415352Y-92309999D01*
X172452000Y-92309999D01*
X172452000Y-91522500D01*
X171727001Y-91522500D01*
X171727001Y-91621654D01*
X170728500Y-91621654D01*
X170728500Y-85417237D01*
X170748185Y-85350198D01*
X170800989Y-85304443D01*
X170870147Y-85294499D01*
X170933703Y-85323524D01*
X170967693Y-85371340D01*
X171045588Y-85566844D01*
X171045597Y-85566862D01*
X171158427Y-85779681D01*
X171210695Y-85878269D01*
X171405114Y-86165016D01*
X171408498Y-86170006D01*
X171408505Y-86170016D01*
X171636685Y-86438649D01*
X171636686Y-86438650D01*
X171892580Y-86681046D01*
X171892587Y-86681051D01*
X171892589Y-86681053D01*
X171930468Y-86709848D01*
X172173182Y-86894354D01*
X172475202Y-87076074D01*
X172475206Y-87076075D01*
X172475210Y-87076078D01*
X172795088Y-87224070D01*
X172795092Y-87224070D01*
X172795099Y-87224074D01*
X173129122Y-87336619D01*
X173473355Y-87412391D01*
X173823763Y-87450500D01*
X173823769Y-87450500D01*
X174176231Y-87450500D01*
X174176237Y-87450500D01*
X174526645Y-87412391D01*
X174870878Y-87336619D01*
X175204901Y-87224074D01*
X175204908Y-87224070D01*
X175204911Y-87224070D01*
X175524789Y-87076078D01*
X175524798Y-87076074D01*
X175826818Y-86894354D01*
X176107420Y-86681046D01*
X176363314Y-86438650D01*
X176591501Y-86170008D01*
X176595341Y-86164345D01*
X177079000Y-86164345D01*
X177079000Y-86263500D01*
X177804000Y-86263500D01*
X177804000Y-85476000D01*
X177767361Y-85476000D01*
X177767343Y-85476001D01*
X177666347Y-85486319D01*
X177502699Y-85540546D01*
X177502688Y-85540551D01*
X177355965Y-85631052D01*
X177355961Y-85631055D01*
X177234055Y-85752961D01*
X177234052Y-85752965D01*
X177143551Y-85899688D01*
X177143546Y-85899699D01*
X177089319Y-86063347D01*
X177079000Y-86164345D01*
X176595341Y-86164345D01*
X176789305Y-85878269D01*
X176954407Y-85566854D01*
X177084871Y-85239414D01*
X177085779Y-85236146D01*
X177163934Y-84954655D01*
X177179168Y-84899788D01*
X177236191Y-84551957D01*
X177251225Y-84274671D01*
X177255274Y-84200002D01*
X177255274Y-84199997D01*
X177242112Y-83957251D01*
X177236191Y-83848043D01*
X177179168Y-83500212D01*
X177116691Y-83275190D01*
X177084873Y-83160591D01*
X177084872Y-83160589D01*
X176954411Y-82833155D01*
X176954402Y-82833137D01*
X176938534Y-82803206D01*
X176789305Y-82521731D01*
X176716687Y-82414627D01*
X178930702Y-82414627D01*
X178930702Y-82414634D01*
X178930702Y-82414635D01*
X178930702Y-83068370D01*
X178930703Y-83068376D01*
X178937110Y-83127983D01*
X178987404Y-83262828D01*
X178987408Y-83262834D01*
X179016869Y-83302190D01*
X179041286Y-83367654D01*
X179026434Y-83435927D01*
X179016869Y-83450810D01*
X178987408Y-83490165D01*
X178987404Y-83490171D01*
X178947001Y-83598500D01*
X178937111Y-83625017D01*
X178930702Y-83684627D01*
X178930702Y-83684634D01*
X178930702Y-83684635D01*
X178930702Y-84338370D01*
X178930703Y-84338376D01*
X178937110Y-84397983D01*
X178987404Y-84532828D01*
X178987405Y-84532830D01*
X179017181Y-84572605D01*
X179041598Y-84638069D01*
X179026747Y-84706342D01*
X179017182Y-84721225D01*
X178987850Y-84760407D01*
X178987847Y-84760413D01*
X178937605Y-84895120D01*
X178937603Y-84895127D01*
X178931202Y-84954655D01*
X178931202Y-85031500D01*
X181386102Y-85031500D01*
X181386102Y-84954672D01*
X181386101Y-84954655D01*
X181379700Y-84895127D01*
X181379698Y-84895120D01*
X181359824Y-84841833D01*
X181354840Y-84772141D01*
X181388325Y-84710818D01*
X181449648Y-84677334D01*
X181476006Y-84674500D01*
X182579903Y-84674500D01*
X182646942Y-84694185D01*
X182667584Y-84710819D01*
X183602639Y-85645874D01*
X183602649Y-85645885D01*
X183606979Y-85650215D01*
X183606980Y-85650216D01*
X183718784Y-85762020D01*
X183799178Y-85808435D01*
X183799179Y-85808436D01*
X183855709Y-85841074D01*
X183855712Y-85841076D01*
X183855714Y-85841076D01*
X183855715Y-85841077D01*
X184008443Y-85882001D01*
X184008446Y-85882001D01*
X184174153Y-85882001D01*
X184174169Y-85882000D01*
X184306772Y-85882000D01*
X184373811Y-85901685D01*
X184419566Y-85954489D01*
X184429510Y-86023647D01*
X184422954Y-86049333D01*
X184380058Y-86164345D01*
X184379807Y-86165017D01*
X184373398Y-86224627D01*
X184373398Y-86224634D01*
X184373398Y-86224635D01*
X184373398Y-86878370D01*
X184373399Y-86878376D01*
X184379806Y-86937983D01*
X184430100Y-87072828D01*
X184430104Y-87072835D01*
X184516350Y-87188044D01*
X184516353Y-87188047D01*
X184631562Y-87274293D01*
X184631569Y-87274297D01*
X184766415Y-87324591D01*
X184766414Y-87324591D01*
X184773342Y-87325335D01*
X184826025Y-87331000D01*
X186376670Y-87330999D01*
X186436281Y-87324591D01*
X186571129Y-87274296D01*
X186655129Y-87211412D01*
X186720591Y-87186996D01*
X186788864Y-87201847D01*
X186834977Y-87245583D01*
X186876157Y-87312346D01*
X186876160Y-87312350D01*
X186998150Y-87434340D01*
X187144984Y-87524908D01*
X187308747Y-87579174D01*
X187409823Y-87589500D01*
X188108176Y-87589499D01*
X188108184Y-87589498D01*
X188108187Y-87589498D01*
X188163530Y-87583844D01*
X188209253Y-87579174D01*
X188373016Y-87524908D01*
X188519850Y-87434340D01*
X188533819Y-87420371D01*
X188595142Y-87386886D01*
X188664834Y-87391870D01*
X188709181Y-87420371D01*
X188723150Y-87434340D01*
X188869984Y-87524908D01*
X189033747Y-87579174D01*
X189134823Y-87589500D01*
X189833176Y-87589499D01*
X189833184Y-87589498D01*
X189833187Y-87589498D01*
X189888530Y-87583844D01*
X189934253Y-87579174D01*
X190098016Y-87524908D01*
X190244850Y-87434340D01*
X190330372Y-87348817D01*
X190391691Y-87315335D01*
X190461383Y-87320319D01*
X190517317Y-87362190D01*
X190541734Y-87427654D01*
X190542050Y-87436500D01*
X190542050Y-87662869D01*
X190542051Y-87662876D01*
X190548458Y-87722483D01*
X190598752Y-87857328D01*
X190598756Y-87857335D01*
X190685002Y-87972544D01*
X190685005Y-87972547D01*
X190800214Y-88058793D01*
X190800221Y-88058797D01*
X190935067Y-88109091D01*
X190935066Y-88109091D01*
X190941994Y-88109835D01*
X190994677Y-88115500D01*
X192545322Y-88115499D01*
X192604933Y-88109091D01*
X192739781Y-88058796D01*
X192854996Y-87972546D01*
X192941246Y-87857331D01*
X192991541Y-87722483D01*
X192997950Y-87662873D01*
X192997949Y-87009128D01*
X192997949Y-87009127D01*
X195984746Y-87009127D01*
X195984746Y-87009134D01*
X195984746Y-87009135D01*
X195984746Y-87662870D01*
X195984747Y-87662876D01*
X195991154Y-87722483D01*
X196041448Y-87857328D01*
X196041452Y-87857335D01*
X196127698Y-87972544D01*
X196127701Y-87972547D01*
X196242910Y-88058793D01*
X196242917Y-88058797D01*
X196377763Y-88109091D01*
X196377762Y-88109091D01*
X196384690Y-88109835D01*
X196437373Y-88115500D01*
X197988018Y-88115499D01*
X198047629Y-88109091D01*
X198182477Y-88058796D01*
X198297692Y-87972546D01*
X198383942Y-87857331D01*
X198434237Y-87722483D01*
X198440646Y-87662873D01*
X198440645Y-87009128D01*
X198434237Y-86949517D01*
X198429936Y-86937986D01*
X198383943Y-86814671D01*
X198383941Y-86814668D01*
X198354167Y-86774895D01*
X198329749Y-86709430D01*
X198344600Y-86641157D01*
X198354167Y-86626271D01*
X198383497Y-86587091D01*
X198433743Y-86452376D01*
X198433744Y-86452372D01*
X198440145Y-86392844D01*
X198440146Y-86392827D01*
X198440146Y-86316000D01*
X195985246Y-86316000D01*
X195985246Y-86392844D01*
X195991647Y-86452372D01*
X195991649Y-86452379D01*
X196041891Y-86587086D01*
X196041895Y-86587092D01*
X196071225Y-86626273D01*
X196095642Y-86691737D01*
X196080790Y-86760010D01*
X196071225Y-86774893D01*
X196041452Y-86814664D01*
X196041448Y-86814671D01*
X195991156Y-86949513D01*
X195991155Y-86949517D01*
X195984746Y-87009127D01*
X192997949Y-87009127D01*
X192991541Y-86949517D01*
X192987240Y-86937986D01*
X192941247Y-86814671D01*
X192941245Y-86814668D01*
X192911783Y-86775312D01*
X192887365Y-86709848D01*
X192902216Y-86641575D01*
X192911783Y-86626688D01*
X192921877Y-86613204D01*
X192941246Y-86587331D01*
X192991541Y-86452483D01*
X192997950Y-86392873D01*
X192997949Y-85739128D01*
X192991541Y-85679517D01*
X192987199Y-85667876D01*
X192941247Y-85544671D01*
X192941245Y-85544668D01*
X192938159Y-85540546D01*
X192911782Y-85505311D01*
X192887365Y-85439848D01*
X192902216Y-85371575D01*
X192911783Y-85356688D01*
X192941246Y-85317331D01*
X192991541Y-85182483D01*
X192997950Y-85122873D01*
X192997949Y-84469128D01*
X192991541Y-84409517D01*
X192989026Y-84402775D01*
X192941247Y-84274671D01*
X192941245Y-84274668D01*
X192911783Y-84235312D01*
X192887365Y-84169848D01*
X192902216Y-84101575D01*
X192911783Y-84086688D01*
X192941246Y-84047331D01*
X192991541Y-83912483D01*
X192997950Y-83852873D01*
X192997949Y-83199128D01*
X192991541Y-83139517D01*
X192987240Y-83127986D01*
X192941247Y-83004671D01*
X192941243Y-83004664D01*
X192854997Y-82889455D01*
X192854994Y-82889452D01*
X192739785Y-82803206D01*
X192739778Y-82803202D01*
X192604932Y-82752908D01*
X192604933Y-82752908D01*
X192545333Y-82746501D01*
X192545331Y-82746500D01*
X192545323Y-82746500D01*
X192545315Y-82746500D01*
X191891098Y-82746500D01*
X191824059Y-82726815D01*
X191803417Y-82710181D01*
X191610717Y-82517481D01*
X191610709Y-82517475D01*
X191493406Y-82449751D01*
X191493403Y-82449750D01*
X191473785Y-82438423D01*
X191321057Y-82397499D01*
X191162943Y-82397499D01*
X191155347Y-82397499D01*
X191155331Y-82397500D01*
X190496401Y-82397500D01*
X190429362Y-82377815D01*
X190390862Y-82338596D01*
X190366840Y-82299650D01*
X190244851Y-82177661D01*
X190244850Y-82177660D01*
X190098016Y-82087092D01*
X189934253Y-82032826D01*
X189934251Y-82032825D01*
X189833178Y-82022500D01*
X189134830Y-82022500D01*
X189134812Y-82022501D01*
X189033747Y-82032825D01*
X188869984Y-82087092D01*
X188869981Y-82087093D01*
X188723148Y-82177661D01*
X188709181Y-82191629D01*
X188647858Y-82225114D01*
X188578166Y-82220130D01*
X188533819Y-82191629D01*
X188519851Y-82177661D01*
X188519850Y-82177660D01*
X188373016Y-82087092D01*
X188209253Y-82032826D01*
X188209251Y-82032825D01*
X188108178Y-82022500D01*
X187409830Y-82022500D01*
X187409812Y-82022501D01*
X187308747Y-82032825D01*
X187144984Y-82087092D01*
X187144981Y-82087093D01*
X186998150Y-82177660D01*
X186952146Y-82223663D01*
X186890822Y-82257147D01*
X186821130Y-82252161D01*
X186765200Y-82210291D01*
X186686345Y-82104955D01*
X186686342Y-82104952D01*
X186571133Y-82018706D01*
X186571126Y-82018702D01*
X186436280Y-81968408D01*
X186436281Y-81968408D01*
X186376681Y-81962001D01*
X186376679Y-81962000D01*
X186376671Y-81962000D01*
X186376663Y-81962000D01*
X185818442Y-81962000D01*
X185787602Y-81956760D01*
X185787392Y-81957681D01*
X185780601Y-81956131D01*
X185601352Y-81935935D01*
X185601344Y-81935935D01*
X185422096Y-81956130D01*
X185415311Y-81957680D01*
X185415101Y-81956760D01*
X185384256Y-81962000D01*
X184826027Y-81962000D01*
X184826021Y-81962001D01*
X184766414Y-81968408D01*
X184631569Y-82018702D01*
X184631562Y-82018706D01*
X184516353Y-82104952D01*
X184516350Y-82104955D01*
X184430104Y-82220164D01*
X184430100Y-82220171D01*
X184379808Y-82355013D01*
X184379807Y-82355017D01*
X184373398Y-82414627D01*
X184373398Y-82414634D01*
X184373398Y-82414635D01*
X184373398Y-83068370D01*
X184373399Y-83068376D01*
X184379806Y-83127983D01*
X184430100Y-83262828D01*
X184430104Y-83262834D01*
X184459565Y-83302190D01*
X184483982Y-83367654D01*
X184469130Y-83435927D01*
X184459565Y-83450810D01*
X184430104Y-83490165D01*
X184430100Y-83490171D01*
X184389697Y-83598500D01*
X184379807Y-83625017D01*
X184373398Y-83684627D01*
X184373398Y-83684634D01*
X184373398Y-83684635D01*
X184373398Y-84338370D01*
X184373399Y-84338376D01*
X184379807Y-84397990D01*
X184380436Y-84400650D01*
X184380322Y-84402775D01*
X184380636Y-84405696D01*
X184380162Y-84405746D01*
X184376694Y-84470419D01*
X184335826Y-84527090D01*
X184270807Y-84552669D01*
X184202280Y-84539035D01*
X184172078Y-84516843D01*
X183367590Y-83712355D01*
X183367588Y-83712352D01*
X183248717Y-83593481D01*
X183248712Y-83593477D01*
X183133340Y-83526868D01*
X183133338Y-83526866D01*
X183118970Y-83518571D01*
X183111785Y-83514423D01*
X182959057Y-83473499D01*
X182800943Y-83473499D01*
X182793347Y-83473499D01*
X182793331Y-83473500D01*
X181419914Y-83473500D01*
X181352875Y-83453815D01*
X181307120Y-83401011D01*
X181297176Y-83331853D01*
X181320647Y-83275190D01*
X181329895Y-83262835D01*
X181329896Y-83262834D01*
X181329898Y-83262831D01*
X181380193Y-83127983D01*
X181386602Y-83068373D01*
X181386601Y-82414628D01*
X181380193Y-82355017D01*
X181374068Y-82338596D01*
X181329899Y-82220171D01*
X181329895Y-82220164D01*
X181243649Y-82104955D01*
X181243646Y-82104952D01*
X181128437Y-82018706D01*
X181128430Y-82018702D01*
X180993584Y-81968408D01*
X180993585Y-81968408D01*
X180933985Y-81962001D01*
X180933983Y-81962000D01*
X180933975Y-81962000D01*
X180933966Y-81962000D01*
X179383331Y-81962000D01*
X179383325Y-81962001D01*
X179323718Y-81968408D01*
X179188873Y-82018702D01*
X179188866Y-82018706D01*
X179073657Y-82104952D01*
X179073654Y-82104955D01*
X178987408Y-82220164D01*
X178987404Y-82220171D01*
X178937112Y-82355013D01*
X178937111Y-82355017D01*
X178930702Y-82414627D01*
X176716687Y-82414627D01*
X176591501Y-82229992D01*
X176591497Y-82229987D01*
X176591494Y-82229983D01*
X176363314Y-81961350D01*
X176130190Y-81740523D01*
X176095057Y-81680129D01*
X176098152Y-81610328D01*
X176138494Y-81553281D01*
X176203273Y-81527101D01*
X176215465Y-81526500D01*
X199284535Y-81526500D01*
X199351574Y-81546185D01*
G37*
%TD.AperFunction*%
%TD*%
M02*
