%TF.GenerationSoftware,KiCad,Pcbnew,8.0.8*%
%TF.CreationDate,2025-04-15T16:19:57+05:30*%
%TF.ProjectId,STHDAQ_BX,53544844-4151-45f4-9258-2e6b69636164,rev?*%
%TF.SameCoordinates,Original*%
%TF.FileFunction,Other,User*%
%FSLAX46Y46*%
G04 Gerber Fmt 4.6, Leading zero omitted, Abs format (unit mm)*
G04 Created by KiCad (PCBNEW 8.0.8) date 2025-04-15 16:19:57*
%MOMM*%
%LPD*%
G01*
G04 APERTURE LIST*
%ADD10C,0.152400*%
%ADD11C,0.050000*%
%ADD12C,0.127000*%
G04 APERTURE END LIST*
D10*
%TO.C,U2*%
X173812200Y-89369900D02*
X174056000Y-89369900D01*
X173812200Y-91478100D02*
X173812200Y-89369900D01*
X174056000Y-88423001D02*
X176972000Y-88423001D01*
X174056000Y-89369900D02*
X174056000Y-88423001D01*
X174056000Y-91478100D02*
X173812200Y-91478100D01*
X174056000Y-92424999D02*
X174056000Y-91478100D01*
X176972000Y-88423001D02*
X176972000Y-89369900D01*
X176972000Y-89369900D02*
X177215800Y-89369900D01*
X176972000Y-91478100D02*
X176972000Y-92424999D01*
X176972000Y-92424999D02*
X174056000Y-92424999D01*
X177215800Y-89369900D02*
X177215800Y-91478100D01*
X177215800Y-91478100D02*
X176972000Y-91478100D01*
D11*
%TO.C,C15*%
X180880000Y-99849500D02*
X182340000Y-99849500D01*
X180880000Y-103149500D02*
X180880000Y-99849500D01*
X182340000Y-99849500D02*
X182340000Y-103149500D01*
X182340000Y-103149500D02*
X180880000Y-103149500D01*
%TO.C,R13*%
X178690000Y-91726000D02*
X181990000Y-91726000D01*
X178690000Y-93186000D02*
X178690000Y-91726000D01*
X181990000Y-91726000D02*
X181990000Y-93186000D01*
X181990000Y-93186000D02*
X178690000Y-93186000D01*
%TO.C,R8*%
X176893500Y-111374000D02*
X180193500Y-111374000D01*
X176893500Y-112834000D02*
X176893500Y-111374000D01*
X180193500Y-111374000D02*
X180193500Y-112834000D01*
X180193500Y-112834000D02*
X176893500Y-112834000D01*
%TO.C,R1*%
X186971500Y-84106000D02*
X190271500Y-84106000D01*
X186971500Y-85566000D02*
X186971500Y-84106000D01*
X190271500Y-84106000D02*
X190271500Y-85566000D01*
X190271500Y-85566000D02*
X186971500Y-85566000D01*
%TO.C,C9*%
X197232000Y-109506000D02*
X200532000Y-109506000D01*
X197232000Y-110966000D02*
X197232000Y-109506000D01*
X200532000Y-109506000D02*
X200532000Y-110966000D01*
X200532000Y-110966000D02*
X197232000Y-110966000D01*
%TO.C,C1*%
X171972000Y-88760000D02*
X173432000Y-88760000D01*
X171972000Y-92060000D02*
X171972000Y-88760000D01*
X173432000Y-88760000D02*
X173432000Y-92060000D01*
X173432000Y-92060000D02*
X171972000Y-92060000D01*
%TO.C,Y1*%
X177620000Y-121860000D02*
X177620000Y-127060000D01*
X177620000Y-127060000D02*
X193220000Y-127060000D01*
X193220000Y-121860000D02*
X177620000Y-121860000D01*
X193220000Y-127060000D02*
X193220000Y-121860000D01*
%TO.C,C7*%
X177324000Y-85726000D02*
X178784000Y-85726000D01*
X177324000Y-89026000D02*
X177324000Y-85726000D01*
X178784000Y-85726000D02*
X178784000Y-89026000D01*
X178784000Y-89026000D02*
X177324000Y-89026000D01*
%TO.C,C8*%
X181230000Y-119057500D02*
X184530000Y-119057500D01*
X181230000Y-120517500D02*
X181230000Y-119057500D01*
X184530000Y-119057500D02*
X184530000Y-120517500D01*
X184530000Y-120517500D02*
X181230000Y-120517500D01*
%TO.C,R16*%
X174372000Y-92996000D02*
X177672000Y-92996000D01*
X174372000Y-94456000D02*
X174372000Y-92996000D01*
X177672000Y-92996000D02*
X177672000Y-94456000D01*
X177672000Y-94456000D02*
X174372000Y-94456000D01*
%TO.C,H2*%
X177000000Y-84200000D02*
G75*
G02*
X171000000Y-84200000I-3000000J0D01*
G01*
X171000000Y-84200000D02*
G75*
G02*
X177000000Y-84200000I3000000J0D01*
G01*
D12*
%TO.C,P1*%
X194773000Y-113574000D02*
X196273000Y-113574000D01*
X194773000Y-118074000D02*
X194773000Y-113574000D01*
X196273000Y-111324000D02*
X205023000Y-111324000D01*
X196273000Y-113574000D02*
X196273000Y-111324000D01*
X196273000Y-118074000D02*
X194773000Y-118074000D01*
X196273000Y-120324000D02*
X196273000Y-118074000D01*
X205023000Y-111324000D02*
X205023000Y-120324000D01*
X205023000Y-120324000D02*
X196273000Y-120324000D01*
D11*
%TO.C,H4*%
X204500000Y-124200000D02*
G75*
G02*
X198500000Y-124200000I-3000000J0D01*
G01*
X198500000Y-124200000D02*
G75*
G02*
X204500000Y-124200000I3000000J0D01*
G01*
%TO.C,H1*%
X204500000Y-84200000D02*
G75*
G02*
X198500000Y-84200000I-3000000J0D01*
G01*
X198500000Y-84200000D02*
G75*
G02*
X204500000Y-84200000I3000000J0D01*
G01*
%TO.C,C3*%
X181134000Y-88012000D02*
X182594000Y-88012000D01*
X181134000Y-91312000D02*
X181134000Y-88012000D01*
X182594000Y-88012000D02*
X182594000Y-91312000D01*
X182594000Y-91312000D02*
X181134000Y-91312000D01*
D10*
%TO.C,U3*%
X179177201Y-82208500D02*
X180632100Y-82208500D01*
X179177201Y-87084500D02*
X179177201Y-82208500D01*
X179177201Y-87084500D02*
X180632100Y-87084500D01*
X180632100Y-81890600D02*
X185127900Y-81890600D01*
X180632100Y-82208500D02*
X180632100Y-81890600D01*
X180632100Y-87402400D02*
X180632100Y-87084500D01*
X185127900Y-81890600D02*
X185127900Y-82208500D01*
X185127900Y-87084500D02*
X185127900Y-87402400D01*
X185127900Y-87402400D02*
X180632100Y-87402400D01*
X186582799Y-82208500D02*
X185127900Y-82208500D01*
X186582799Y-82208500D02*
X186582799Y-87084500D01*
X186582799Y-87084500D02*
X185127900Y-87084500D01*
%TO.C,J1*%
X170260000Y-100371100D02*
X170260000Y-119438900D01*
X170260000Y-119438900D02*
X176618900Y-119438900D01*
X176618900Y-100371100D02*
X170260000Y-100371100D01*
X176618900Y-119438900D02*
X176618900Y-100371100D01*
D11*
%TO.C,C23*%
X176973500Y-116544000D02*
X180273500Y-116544000D01*
X176973500Y-118004000D02*
X176973500Y-116544000D01*
X180273500Y-116544000D02*
X180273500Y-118004000D01*
X180273500Y-118004000D02*
X176973500Y-118004000D01*
%TO.C,C21*%
X180535500Y-117380000D02*
X183835500Y-117380000D01*
X180535500Y-118840000D02*
X180535500Y-117380000D01*
X183835500Y-117380000D02*
X183835500Y-118840000D01*
X183835500Y-118840000D02*
X180535500Y-118840000D01*
%TO.C,R7*%
X176893500Y-109552000D02*
X180193500Y-109552000D01*
X176893500Y-111012000D02*
X176893500Y-109552000D01*
X180193500Y-109552000D02*
X180193500Y-111012000D01*
X180193500Y-111012000D02*
X176893500Y-111012000D01*
%TO.C,R14*%
X174372000Y-96552000D02*
X177672000Y-96552000D01*
X174372000Y-98012000D02*
X174372000Y-96552000D01*
X177672000Y-96552000D02*
X177672000Y-98012000D01*
X177672000Y-98012000D02*
X174372000Y-98012000D01*
%TO.C,C10*%
X193866000Y-123858000D02*
X195326000Y-123858000D01*
X193866000Y-127158000D02*
X193866000Y-123858000D01*
X195326000Y-123858000D02*
X195326000Y-127158000D01*
X195326000Y-127158000D02*
X193866000Y-127158000D01*
%TO.C,C17*%
X180880000Y-107570000D02*
X182340000Y-107570000D01*
X180880000Y-110870000D02*
X180880000Y-107570000D01*
X182340000Y-107570000D02*
X182340000Y-110870000D01*
X182340000Y-110870000D02*
X180880000Y-110870000D01*
%TO.C,H3*%
X177000000Y-124200000D02*
G75*
G02*
X171000000Y-124200000I-3000000J0D01*
G01*
X171000000Y-124200000D02*
G75*
G02*
X177000000Y-124200000I3000000J0D01*
G01*
%TO.C,C11*%
X195612000Y-123858000D02*
X197072000Y-123858000D01*
X195612000Y-127158000D02*
X195612000Y-123858000D01*
X197072000Y-123858000D02*
X197072000Y-127158000D01*
X197072000Y-127158000D02*
X195612000Y-127158000D01*
%TO.C,R9*%
X176893500Y-113152000D02*
X180193500Y-113152000D01*
X176893500Y-114612000D02*
X176893500Y-113152000D01*
X180193500Y-113152000D02*
X180193500Y-114612000D01*
X180193500Y-114612000D02*
X176893500Y-114612000D01*
%TO.C,C20*%
X180621500Y-115602000D02*
X183921500Y-115602000D01*
X180621500Y-117062000D02*
X180621500Y-115602000D01*
X183921500Y-115602000D02*
X183921500Y-117062000D01*
X183921500Y-117062000D02*
X180621500Y-117062000D01*
%TO.C,U5*%
X182820500Y-88810000D02*
X206320500Y-88810000D01*
X182820500Y-109310000D02*
X182820500Y-88810000D01*
X206320500Y-88810000D02*
X206320500Y-109310000D01*
X206320500Y-109310000D02*
X182820500Y-109310000D01*
%TO.C,R2*%
X178710000Y-97060000D02*
X182010000Y-97060000D01*
X178710000Y-98520000D02*
X178710000Y-97060000D01*
X182010000Y-97060000D02*
X182010000Y-98520000D01*
X182010000Y-98520000D02*
X178710000Y-98520000D01*
%TO.C,R15*%
X174372000Y-94774000D02*
X177672000Y-94774000D01*
X174372000Y-96234000D02*
X174372000Y-94774000D01*
X177672000Y-94774000D02*
X177672000Y-96234000D01*
X177672000Y-96234000D02*
X174372000Y-96234000D01*
%TO.C,C6*%
X176557500Y-119920000D02*
X179857500Y-119920000D01*
X176557500Y-121380000D02*
X176557500Y-119920000D01*
X179857500Y-119920000D02*
X179857500Y-121380000D01*
X179857500Y-121380000D02*
X176557500Y-121380000D01*
%TO.C,R3*%
X176811500Y-102484000D02*
X180111500Y-102484000D01*
X176811500Y-103944000D02*
X176811500Y-102484000D01*
X180111500Y-102484000D02*
X180111500Y-103944000D01*
X180111500Y-103944000D02*
X176811500Y-103944000D01*
%TO.C,C16*%
X180880000Y-103659500D02*
X182340000Y-103659500D01*
X180880000Y-106959500D02*
X180880000Y-103659500D01*
X182340000Y-103659500D02*
X182340000Y-106959500D01*
X182340000Y-106959500D02*
X180880000Y-106959500D01*
%TO.C,C13*%
X193676000Y-122206000D02*
X196976000Y-122206000D01*
X193676000Y-123666000D02*
X193676000Y-122206000D01*
X196976000Y-122206000D02*
X196976000Y-123666000D01*
X196976000Y-123666000D02*
X193676000Y-123666000D01*
%TO.C,R4*%
X176811500Y-104262000D02*
X180111500Y-104262000D01*
X176811500Y-105722000D02*
X176811500Y-104262000D01*
X180111500Y-104262000D02*
X180111500Y-105722000D01*
X180111500Y-105722000D02*
X176811500Y-105722000D01*
%TO.C,C18*%
X180621500Y-112046000D02*
X183921500Y-112046000D01*
X180621500Y-113506000D02*
X180621500Y-112046000D01*
X183921500Y-112046000D02*
X183921500Y-113506000D01*
X183921500Y-113506000D02*
X180621500Y-113506000D01*
%TO.C,R6*%
X176811500Y-107818000D02*
X180111500Y-107818000D01*
X176811500Y-109278000D02*
X176811500Y-107818000D01*
X180111500Y-107818000D02*
X180111500Y-109278000D01*
X180111500Y-109278000D02*
X176811500Y-109278000D01*
%TO.C,R11*%
X178730000Y-95282000D02*
X182030000Y-95282000D01*
X178730000Y-96742000D02*
X178730000Y-95282000D01*
X182030000Y-95282000D02*
X182030000Y-96742000D01*
X182030000Y-96742000D02*
X178730000Y-96742000D01*
%TO.C,R5*%
X176811500Y-106040000D02*
X180111500Y-106040000D01*
X176811500Y-107500000D02*
X176811500Y-106040000D01*
X180111500Y-106040000D02*
X180111500Y-107500000D01*
X180111500Y-107500000D02*
X176811500Y-107500000D01*
%TO.C,C14*%
X178086000Y-98934000D02*
X179546000Y-98934000D01*
X178086000Y-102234000D02*
X178086000Y-98934000D01*
X179546000Y-98934000D02*
X179546000Y-102234000D01*
X179546000Y-102234000D02*
X178086000Y-102234000D01*
D10*
%TO.C,U4*%
X190788549Y-82993000D02*
X192243448Y-82993000D01*
X190788549Y-87869000D02*
X190788549Y-82993000D01*
X190788549Y-87869000D02*
X192243448Y-87869000D01*
X192243448Y-82675100D02*
X196739248Y-82675100D01*
X192243448Y-82993000D02*
X192243448Y-82675100D01*
X192243448Y-88186900D02*
X192243448Y-87869000D01*
X196739248Y-82675100D02*
X196739248Y-82993000D01*
X196739248Y-87869000D02*
X196739248Y-88186900D01*
X196739248Y-88186900D02*
X192243448Y-88186900D01*
X198194147Y-82993000D02*
X196739248Y-82993000D01*
X198194147Y-82993000D02*
X198194147Y-87869000D01*
X198194147Y-87869000D02*
X196739248Y-87869000D01*
D11*
%TO.C,C5*%
X186971500Y-85884000D02*
X190271500Y-85884000D01*
X186971500Y-87344000D02*
X186971500Y-85884000D01*
X190271500Y-85884000D02*
X190271500Y-87344000D01*
X190271500Y-87344000D02*
X186971500Y-87344000D01*
%TO.C,C12*%
X193676000Y-120682000D02*
X196976000Y-120682000D01*
X193676000Y-122142000D02*
X193676000Y-120682000D01*
X196976000Y-120682000D02*
X196976000Y-122142000D01*
X196976000Y-122142000D02*
X193676000Y-122142000D01*
%TO.C,R12*%
X178690000Y-93504000D02*
X181990000Y-93504000D01*
X178690000Y-94964000D02*
X178690000Y-93504000D01*
X181990000Y-93504000D02*
X181990000Y-94964000D01*
X181990000Y-94964000D02*
X178690000Y-94964000D01*
D10*
%TO.C,U1*%
X184777901Y-111129500D02*
X186436000Y-111129500D01*
X184777901Y-120518500D02*
X184777901Y-111129500D01*
X184777901Y-120518500D02*
X186436000Y-120518500D01*
X186436000Y-110324900D02*
X192532000Y-110324900D01*
X186436000Y-111129500D02*
X186436000Y-110324900D01*
X186436000Y-121323100D02*
X186436000Y-120518500D01*
X192532000Y-110324900D02*
X192532000Y-111129500D01*
X192532000Y-120518500D02*
X192532000Y-121323100D01*
X192532000Y-121323100D02*
X186436000Y-121323100D01*
X194190099Y-111129500D02*
X192532000Y-111129500D01*
X194190099Y-111129500D02*
X194190099Y-120518500D01*
X194190099Y-120518500D02*
X192532000Y-120518500D01*
D11*
%TO.C,C2*%
X179084000Y-87998000D02*
X180544000Y-87998000D01*
X179084000Y-91298000D02*
X179084000Y-87998000D01*
X180544000Y-87998000D02*
X180544000Y-91298000D01*
X180544000Y-91298000D02*
X179084000Y-91298000D01*
%TO.C,R10*%
X176893500Y-114930000D02*
X180193500Y-114930000D01*
X176893500Y-116390000D02*
X176893500Y-114930000D01*
X180193500Y-114930000D02*
X180193500Y-116390000D01*
X180193500Y-116390000D02*
X176893500Y-116390000D01*
%TO.C,C4*%
X186971500Y-82268000D02*
X190271500Y-82268000D01*
X186971500Y-83728000D02*
X186971500Y-82268000D01*
X190271500Y-82268000D02*
X190271500Y-83728000D01*
X190271500Y-83728000D02*
X186971500Y-83728000D01*
%TO.C,C19*%
X180621500Y-113824000D02*
X183921500Y-113824000D01*
X180621500Y-115284000D02*
X180621500Y-113824000D01*
X183921500Y-113824000D02*
X183921500Y-115284000D01*
X183921500Y-115284000D02*
X180621500Y-115284000D01*
%TD*%
M02*
