%TF.GenerationSoftware,KiCad,Pcbnew,8.0.8*%
%TF.CreationDate,2025-04-15T16:19:53+05:30*%
%TF.ProjectId,STHDAQ_BX,53544844-4151-45f4-9258-2e6b69636164,rev?*%
%TF.SameCoordinates,Original*%
%TF.FileFunction,Plated,1,2,PTH,Drill*%
%TF.FilePolarity,Positive*%
%FSLAX46Y46*%
G04 Gerber Fmt 4.6, Leading zero omitted, Abs format (unit mm)*
G04 Created by KiCad (PCBNEW 8.0.8) date 2025-04-15 16:19:53*
%MOMM*%
%LPD*%
G01*
G04 APERTURE LIST*
%TA.AperFunction,ViaDrill*%
%ADD10C,0.300000*%
%TD*%
%TA.AperFunction,ComponentDrill*%
%ADD11C,3.200000*%
%TD*%
G04 APERTURE END LIST*
D10*
X172612000Y-89860000D03*
X175496000Y-89140000D03*
X175514000Y-114280000D03*
X177345000Y-120650000D03*
X177761492Y-101384508D03*
X178054000Y-88238500D03*
X178308000Y-93472000D03*
X178816000Y-90935551D03*
X178816000Y-99721500D03*
X179223500Y-117184000D03*
X179296554Y-120423446D03*
X179427500Y-94234000D03*
X179764000Y-89168000D03*
X180086000Y-121158000D03*
X180340000Y-96520000D03*
X180340000Y-99314000D03*
X180385000Y-97950077D03*
X181610000Y-100637000D03*
X181610000Y-104447000D03*
X181610000Y-106172000D03*
X181610000Y-108357500D03*
X181854000Y-90182000D03*
X182140000Y-94457394D03*
X183048000Y-118110000D03*
X183085000Y-107442000D03*
X183134000Y-105918000D03*
X183134000Y-112776000D03*
X183134000Y-114554000D03*
X183134000Y-116332000D03*
X183642000Y-110744000D03*
X183642000Y-122428000D03*
X183725736Y-109982000D03*
X183742500Y-119787500D03*
X183942000Y-108625976D03*
X184150000Y-97340000D03*
X184150000Y-101600000D03*
X184411436Y-111752564D03*
X184431446Y-100556554D03*
X184658000Y-96266000D03*
X185420000Y-97340000D03*
X185601348Y-82741500D03*
X185601348Y-85281500D03*
X185743314Y-100514686D03*
X185851800Y-112899000D03*
X185851800Y-114198999D03*
X186182000Y-109474000D03*
X186436000Y-104902000D03*
X186952000Y-113399861D03*
X187198000Y-93556000D03*
X187198000Y-119634000D03*
X187245107Y-97750892D03*
X187952000Y-114679073D03*
X187952000Y-115379076D03*
X188031500Y-82968000D03*
X188581277Y-109614723D03*
X189141500Y-86614000D03*
X189992000Y-109982000D03*
X190246000Y-117094000D03*
X190413230Y-115525642D03*
X191008000Y-121920000D03*
X191016001Y-113854894D03*
X191196436Y-115449543D03*
X191224000Y-116149001D03*
X191262000Y-109982000D03*
X191262000Y-120904000D03*
X191516000Y-113284000D03*
X191770000Y-119888000D03*
X191773204Y-119129204D03*
X193116200Y-118749000D03*
X193802000Y-109728000D03*
X194596000Y-126370500D03*
X194818000Y-105410000D03*
X195072000Y-119380000D03*
X196188500Y-121412000D03*
X196188500Y-122936000D03*
X196342000Y-126370500D03*
X197190000Y-83566000D03*
X197196000Y-114824000D03*
X198019500Y-110194000D03*
X198660000Y-107560000D03*
D11*
%TO.C,H2*%
X174000000Y-84200000D03*
%TO.C,H3*%
X174000000Y-124200000D03*
%TO.C,H1*%
X201500000Y-84200000D03*
%TO.C,H4*%
X201500000Y-124200000D03*
M02*
