%TF.GenerationSoftware,KiCad,Pcbnew,8.0.8*%
%TF.CreationDate,2025-04-15T16:19:55+05:30*%
%TF.ProjectId,STHDAQ_BX,53544844-4151-45f4-9258-2e6b69636164,rev?*%
%TF.SameCoordinates,Original*%
%TF.FileFunction,Drillmap*%
%TF.FilePolarity,Positive*%
%FSLAX45Y45*%
G04 Gerber Fmt 4.5, Leading zero omitted, Abs format (unit mm)*
G04 Created by KiCad (PCBNEW 8.0.8) date 2025-04-15 16:19:55*
%MOMM*%
%LPD*%
G01*
G04 APERTURE LIST*
%ADD10C,0.050000*%
%ADD11C,0.200000*%
G04 APERTURE END LIST*
D10*
X17322800Y-12746000D02*
G75*
G02*
X17022800Y-12446000I0J300000D01*
G01*
X20523200Y-8407400D02*
X20523200Y-12446000D01*
X17322800Y-8102600D02*
X20218400Y-8102600D01*
X20218400Y-12750007D02*
X17322800Y-12746000D01*
X17022800Y-12446000D02*
X17022800Y-8402600D01*
X20218400Y-8102600D02*
G75*
G02*
X20523200Y-8407400I0J-304800D01*
G01*
X20522407Y-12446000D02*
G75*
G02*
X20218400Y-12750007I-304007J0D01*
G01*
X17022800Y-8402600D02*
G75*
G02*
X17322800Y-8102600I300000J0D01*
G01*
D11*
X17281077Y-13063991D02*
X17281077Y-12863991D01*
X17281077Y-12863991D02*
X17328696Y-12863991D01*
X17328696Y-12863991D02*
X17357267Y-12873515D01*
X17357267Y-12873515D02*
X17376315Y-12892563D01*
X17376315Y-12892563D02*
X17385839Y-12911610D01*
X17385839Y-12911610D02*
X17395363Y-12949705D01*
X17395363Y-12949705D02*
X17395363Y-12978277D01*
X17395363Y-12978277D02*
X17385839Y-13016372D01*
X17385839Y-13016372D02*
X17376315Y-13035420D01*
X17376315Y-13035420D02*
X17357267Y-13054467D01*
X17357267Y-13054467D02*
X17328696Y-13063991D01*
X17328696Y-13063991D02*
X17281077Y-13063991D01*
X17481077Y-13063991D02*
X17481077Y-12930658D01*
X17481077Y-12968753D02*
X17490601Y-12949705D01*
X17490601Y-12949705D02*
X17500124Y-12940182D01*
X17500124Y-12940182D02*
X17519172Y-12930658D01*
X17519172Y-12930658D02*
X17538220Y-12930658D01*
X17604886Y-13063991D02*
X17604886Y-12930658D01*
X17604886Y-12863991D02*
X17595363Y-12873515D01*
X17595363Y-12873515D02*
X17604886Y-12883039D01*
X17604886Y-12883039D02*
X17614410Y-12873515D01*
X17614410Y-12873515D02*
X17604886Y-12863991D01*
X17604886Y-12863991D02*
X17604886Y-12883039D01*
X17728696Y-13063991D02*
X17709648Y-13054467D01*
X17709648Y-13054467D02*
X17700124Y-13035420D01*
X17700124Y-13035420D02*
X17700124Y-12863991D01*
X17833458Y-13063991D02*
X17814410Y-13054467D01*
X17814410Y-13054467D02*
X17804886Y-13035420D01*
X17804886Y-13035420D02*
X17804886Y-12863991D01*
X18062029Y-13063991D02*
X18062029Y-12863991D01*
X18062029Y-12863991D02*
X18128696Y-13006848D01*
X18128696Y-13006848D02*
X18195363Y-12863991D01*
X18195363Y-12863991D02*
X18195363Y-13063991D01*
X18376315Y-13063991D02*
X18376315Y-12959229D01*
X18376315Y-12959229D02*
X18366791Y-12940182D01*
X18366791Y-12940182D02*
X18347744Y-12930658D01*
X18347744Y-12930658D02*
X18309648Y-12930658D01*
X18309648Y-12930658D02*
X18290601Y-12940182D01*
X18376315Y-13054467D02*
X18357267Y-13063991D01*
X18357267Y-13063991D02*
X18309648Y-13063991D01*
X18309648Y-13063991D02*
X18290601Y-13054467D01*
X18290601Y-13054467D02*
X18281077Y-13035420D01*
X18281077Y-13035420D02*
X18281077Y-13016372D01*
X18281077Y-13016372D02*
X18290601Y-12997324D01*
X18290601Y-12997324D02*
X18309648Y-12987801D01*
X18309648Y-12987801D02*
X18357267Y-12987801D01*
X18357267Y-12987801D02*
X18376315Y-12978277D01*
X18471553Y-12930658D02*
X18471553Y-13130658D01*
X18471553Y-12940182D02*
X18490601Y-12930658D01*
X18490601Y-12930658D02*
X18528696Y-12930658D01*
X18528696Y-12930658D02*
X18547744Y-12940182D01*
X18547744Y-12940182D02*
X18557267Y-12949705D01*
X18557267Y-12949705D02*
X18566791Y-12968753D01*
X18566791Y-12968753D02*
X18566791Y-13025896D01*
X18566791Y-13025896D02*
X18557267Y-13044943D01*
X18557267Y-13044943D02*
X18547744Y-13054467D01*
X18547744Y-13054467D02*
X18528696Y-13063991D01*
X18528696Y-13063991D02*
X18490601Y-13063991D01*
X18490601Y-13063991D02*
X18471553Y-13054467D01*
X18652505Y-13044943D02*
X18662029Y-13054467D01*
X18662029Y-13054467D02*
X18652505Y-13063991D01*
X18652505Y-13063991D02*
X18642982Y-13054467D01*
X18642982Y-13054467D02*
X18652505Y-13044943D01*
X18652505Y-13044943D02*
X18652505Y-13063991D01*
X18652505Y-12940182D02*
X18662029Y-12949705D01*
X18662029Y-12949705D02*
X18652505Y-12959229D01*
X18652505Y-12959229D02*
X18642982Y-12949705D01*
X18642982Y-12949705D02*
X18652505Y-12940182D01*
X18652505Y-12940182D02*
X18652505Y-12959229D01*
M02*
