%TF.GenerationSoftware,KiCad,Pcbnew,8.0.8*%
%TF.CreationDate,2025-04-15T16:19:55+05:30*%
%TF.ProjectId,STHDAQ_BX,53544844-4151-45f4-9258-2e6b69636164,rev?*%
%TF.SameCoordinates,Original*%
%TF.FileFunction,Drillmap*%
%TF.FilePolarity,Positive*%
%FSLAX45Y45*%
G04 Gerber Fmt 4.5, Leading zero omitted, Abs format (unit mm)*
G04 Created by KiCad (PCBNEW 8.0.8) date 2025-04-15 16:19:55*
%MOMM*%
%LPD*%
G01*
G04 APERTURE LIST*
%ADD10C,0.050000*%
%ADD11C,0.200000*%
%ADD12C,0.100000*%
%ADD13C,0.320000*%
G04 APERTURE END LIST*
D10*
X17322800Y-12746000D02*
G75*
G02*
X17022800Y-12446000I0J300000D01*
G01*
X20523200Y-8407400D02*
X20523200Y-12446000D01*
X17322800Y-8102600D02*
X20218400Y-8102600D01*
X20218400Y-12750007D02*
X17322800Y-12746000D01*
X17022800Y-12446000D02*
X17022800Y-8402600D01*
X20218400Y-8102600D02*
G75*
G02*
X20523200Y-8407400I0J-304800D01*
G01*
X20522407Y-12446000D02*
G75*
G02*
X20218400Y-12750007I-304007J0D01*
G01*
X17022800Y-8402600D02*
G75*
G02*
X17322800Y-8102600I300000J0D01*
G01*
D11*
D12*
X17246200Y-8971000D02*
X17276200Y-9001000D01*
X17276200Y-8971000D02*
X17246200Y-9001000D01*
X17534600Y-8899000D02*
X17564600Y-8929000D01*
X17564600Y-8899000D02*
X17534600Y-8929000D01*
X17536400Y-11413000D02*
X17566400Y-11443000D01*
X17566400Y-11413000D02*
X17536400Y-11443000D01*
X17719500Y-12050000D02*
X17749500Y-12080000D01*
X17749500Y-12050000D02*
X17719500Y-12080000D01*
X17761149Y-10123451D02*
X17791149Y-10153451D01*
X17791149Y-10123451D02*
X17761149Y-10153451D01*
X17790400Y-8808850D02*
X17820400Y-8838850D01*
X17820400Y-8808850D02*
X17790400Y-8838850D01*
X17815800Y-9332200D02*
X17845800Y-9362200D01*
X17845800Y-9332200D02*
X17815800Y-9362200D01*
X17866600Y-9078555D02*
X17896600Y-9108555D01*
X17896600Y-9078555D02*
X17866600Y-9108555D01*
X17866600Y-9957150D02*
X17896600Y-9987150D01*
X17896600Y-9957150D02*
X17866600Y-9987150D01*
X17907350Y-11703400D02*
X17937350Y-11733400D01*
X17937350Y-11703400D02*
X17907350Y-11733400D01*
X17914655Y-12027345D02*
X17944655Y-12057345D01*
X17944655Y-12027345D02*
X17914655Y-12057345D01*
X17927750Y-9408400D02*
X17957750Y-9438400D01*
X17957750Y-9408400D02*
X17927750Y-9438400D01*
X17961400Y-8901800D02*
X17991400Y-8931800D01*
X17991400Y-8901800D02*
X17961400Y-8931800D01*
X17993600Y-12100800D02*
X18023600Y-12130800D01*
X18023600Y-12100800D02*
X17993600Y-12130800D01*
X18019000Y-9637000D02*
X18049000Y-9667000D01*
X18049000Y-9637000D02*
X18019000Y-9667000D01*
X18019000Y-9916400D02*
X18049000Y-9946400D01*
X18049000Y-9916400D02*
X18019000Y-9946400D01*
X18023500Y-9780008D02*
X18053500Y-9810008D01*
X18053500Y-9780008D02*
X18023500Y-9810008D01*
X18146000Y-10048700D02*
X18176000Y-10078700D01*
X18176000Y-10048700D02*
X18146000Y-10078700D01*
X18146000Y-10429700D02*
X18176000Y-10459700D01*
X18176000Y-10429700D02*
X18146000Y-10459700D01*
X18146000Y-10602200D02*
X18176000Y-10632200D01*
X18176000Y-10602200D02*
X18146000Y-10632200D01*
X18146000Y-10820750D02*
X18176000Y-10850750D01*
X18176000Y-10820750D02*
X18146000Y-10850750D01*
X18170400Y-9003200D02*
X18200400Y-9033200D01*
X18200400Y-9003200D02*
X18170400Y-9033200D01*
X18199000Y-9430739D02*
X18229000Y-9460739D01*
X18229000Y-9430739D02*
X18199000Y-9460739D01*
X18289800Y-11796000D02*
X18319800Y-11826000D01*
X18319800Y-11796000D02*
X18289800Y-11826000D01*
X18293500Y-10729200D02*
X18323500Y-10759200D01*
X18323500Y-10729200D02*
X18293500Y-10759200D01*
X18298400Y-10576800D02*
X18328400Y-10606800D01*
X18328400Y-10576800D02*
X18298400Y-10606800D01*
X18298400Y-11262600D02*
X18328400Y-11292600D01*
X18328400Y-11262600D02*
X18298400Y-11292600D01*
X18298400Y-11440400D02*
X18328400Y-11470400D01*
X18328400Y-11440400D02*
X18298400Y-11470400D01*
X18298400Y-11618200D02*
X18328400Y-11648200D01*
X18328400Y-11618200D02*
X18298400Y-11648200D01*
X18349200Y-11059400D02*
X18379200Y-11089400D01*
X18379200Y-11059400D02*
X18349200Y-11089400D01*
X18349200Y-12227800D02*
X18379200Y-12257800D01*
X18379200Y-12227800D02*
X18349200Y-12257800D01*
X18357574Y-10983200D02*
X18387574Y-11013200D01*
X18387574Y-10983200D02*
X18357574Y-11013200D01*
X18359250Y-11963750D02*
X18389250Y-11993750D01*
X18389250Y-11963750D02*
X18359250Y-11993750D01*
X18379200Y-10847598D02*
X18409200Y-10877598D01*
X18409200Y-10847598D02*
X18379200Y-10877598D01*
X18400000Y-9719000D02*
X18430000Y-9749000D01*
X18430000Y-9719000D02*
X18400000Y-9749000D01*
X18400000Y-10145000D02*
X18430000Y-10175000D01*
X18430000Y-10145000D02*
X18400000Y-10175000D01*
X18426144Y-11160256D02*
X18456144Y-11190256D01*
X18456144Y-11160256D02*
X18426144Y-11190256D01*
X18428145Y-10040655D02*
X18458145Y-10070655D01*
X18458145Y-10040655D02*
X18428145Y-10070655D01*
X18450800Y-9611600D02*
X18480800Y-9641600D01*
X18480800Y-9611600D02*
X18450800Y-9641600D01*
X18527000Y-9719000D02*
X18557000Y-9749000D01*
X18557000Y-9719000D02*
X18527000Y-9749000D01*
X18545135Y-8259150D02*
X18575135Y-8289150D01*
X18575135Y-8259150D02*
X18545135Y-8289150D01*
X18545135Y-8513150D02*
X18575135Y-8543150D01*
X18575135Y-8513150D02*
X18545135Y-8543150D01*
X18559331Y-10036469D02*
X18589331Y-10066469D01*
X18589331Y-10036469D02*
X18559331Y-10066469D01*
X18570180Y-11274900D02*
X18600180Y-11304900D01*
X18600180Y-11274900D02*
X18570180Y-11304900D01*
X18570180Y-11404900D02*
X18600180Y-11434900D01*
X18600180Y-11404900D02*
X18570180Y-11434900D01*
X18603200Y-10932400D02*
X18633200Y-10962400D01*
X18633200Y-10932400D02*
X18603200Y-10962400D01*
X18628600Y-10475200D02*
X18658600Y-10505200D01*
X18658600Y-10475200D02*
X18628600Y-10505200D01*
X18680200Y-11324986D02*
X18710200Y-11354986D01*
X18710200Y-11324986D02*
X18680200Y-11354986D01*
X18704800Y-9340600D02*
X18734800Y-9370600D01*
X18734800Y-9340600D02*
X18704800Y-9370600D01*
X18704800Y-11948400D02*
X18734800Y-11978400D01*
X18734800Y-11948400D02*
X18704800Y-11978400D01*
X18709511Y-9760089D02*
X18739511Y-9790089D01*
X18739511Y-9760089D02*
X18709511Y-9790089D01*
X18780200Y-11452907D02*
X18810200Y-11482907D01*
X18810200Y-11452907D02*
X18780200Y-11482907D01*
X18780200Y-11522908D02*
X18810200Y-11552908D01*
X18810200Y-11522908D02*
X18780200Y-11552908D01*
X18788150Y-8281800D02*
X18818150Y-8311800D01*
X18818150Y-8281800D02*
X18788150Y-8311800D01*
X18843128Y-10946472D02*
X18873128Y-10976472D01*
X18873128Y-10946472D02*
X18843128Y-10976472D01*
X18899150Y-8646400D02*
X18929150Y-8676400D01*
X18929150Y-8646400D02*
X18899150Y-8676400D01*
X18984200Y-10983200D02*
X19014200Y-11013200D01*
X19014200Y-10983200D02*
X18984200Y-11013200D01*
X19009600Y-11694400D02*
X19039600Y-11724400D01*
X19039600Y-11694400D02*
X19009600Y-11724400D01*
X19026323Y-11537564D02*
X19056323Y-11567564D01*
X19056323Y-11537564D02*
X19026323Y-11567564D01*
X19085800Y-12177000D02*
X19115800Y-12207000D01*
X19115800Y-12177000D02*
X19085800Y-12207000D01*
X19086600Y-11370489D02*
X19116600Y-11400489D01*
X19116600Y-11370489D02*
X19086600Y-11400489D01*
X19104644Y-11529954D02*
X19134644Y-11559954D01*
X19134644Y-11529954D02*
X19104644Y-11559954D01*
X19107400Y-11599900D02*
X19137400Y-11629900D01*
X19137400Y-11599900D02*
X19107400Y-11629900D01*
X19111200Y-10983200D02*
X19141200Y-11013200D01*
X19141200Y-10983200D02*
X19111200Y-11013200D01*
X19111200Y-12075400D02*
X19141200Y-12105400D01*
X19141200Y-12075400D02*
X19111200Y-12105400D01*
X19136600Y-11313400D02*
X19166600Y-11343400D01*
X19166600Y-11313400D02*
X19136600Y-11343400D01*
X19162000Y-11973800D02*
X19192000Y-12003800D01*
X19192000Y-11973800D02*
X19162000Y-12003800D01*
X19162320Y-11897920D02*
X19192320Y-11927920D01*
X19192320Y-11897920D02*
X19162320Y-11927920D01*
X19296620Y-11859900D02*
X19326620Y-11889900D01*
X19326620Y-11859900D02*
X19296620Y-11889900D01*
X19365200Y-10957800D02*
X19395200Y-10987800D01*
X19395200Y-10957800D02*
X19365200Y-10987800D01*
X19444600Y-12622050D02*
X19474600Y-12652050D01*
X19474600Y-12622050D02*
X19444600Y-12652050D01*
X19466800Y-10526000D02*
X19496800Y-10556000D01*
X19496800Y-10526000D02*
X19466800Y-10556000D01*
X19492200Y-11923000D02*
X19522200Y-11953000D01*
X19522200Y-11923000D02*
X19492200Y-11953000D01*
X19603850Y-12126200D02*
X19633850Y-12156200D01*
X19633850Y-12126200D02*
X19603850Y-12156200D01*
X19603850Y-12278600D02*
X19633850Y-12308600D01*
X19633850Y-12278600D02*
X19603850Y-12308600D01*
X19619200Y-12622050D02*
X19649200Y-12652050D01*
X19649200Y-12622050D02*
X19619200Y-12652050D01*
X19704000Y-8341600D02*
X19734000Y-8371600D01*
X19734000Y-8341600D02*
X19704000Y-8371600D01*
X19704600Y-11467400D02*
X19734600Y-11497400D01*
X19734600Y-11467400D02*
X19704600Y-11497400D01*
X19786950Y-11004400D02*
X19816950Y-11034400D01*
X19816950Y-11004400D02*
X19786950Y-11034400D01*
X19851000Y-10741000D02*
X19881000Y-10771000D01*
X19881000Y-10741000D02*
X19851000Y-10771000D01*
D13*
X17560000Y-8420000D02*
G75*
G02*
X17240000Y-8420000I-160000J0D01*
G01*
X17240000Y-8420000D02*
G75*
G02*
X17560000Y-8420000I160000J0D01*
G01*
X17560000Y-12420000D02*
G75*
G02*
X17240000Y-12420000I-160000J0D01*
G01*
X17240000Y-12420000D02*
G75*
G02*
X17560000Y-12420000I160000J0D01*
G01*
X20310000Y-8420000D02*
G75*
G02*
X19990000Y-8420000I-160000J0D01*
G01*
X19990000Y-8420000D02*
G75*
G02*
X20310000Y-8420000I160000J0D01*
G01*
X20310000Y-12420000D02*
G75*
G02*
X19990000Y-12420000I-160000J0D01*
G01*
X19990000Y-12420000D02*
G75*
G02*
X20310000Y-12420000I160000J0D01*
G01*
D11*
X17281077Y-13063991D02*
X17281077Y-12863991D01*
X17281077Y-12863991D02*
X17328696Y-12863991D01*
X17328696Y-12863991D02*
X17357267Y-12873515D01*
X17357267Y-12873515D02*
X17376315Y-12892563D01*
X17376315Y-12892563D02*
X17385839Y-12911610D01*
X17385839Y-12911610D02*
X17395363Y-12949705D01*
X17395363Y-12949705D02*
X17395363Y-12978277D01*
X17395363Y-12978277D02*
X17385839Y-13016372D01*
X17385839Y-13016372D02*
X17376315Y-13035420D01*
X17376315Y-13035420D02*
X17357267Y-13054467D01*
X17357267Y-13054467D02*
X17328696Y-13063991D01*
X17328696Y-13063991D02*
X17281077Y-13063991D01*
X17481077Y-13063991D02*
X17481077Y-12930658D01*
X17481077Y-12968753D02*
X17490601Y-12949705D01*
X17490601Y-12949705D02*
X17500124Y-12940182D01*
X17500124Y-12940182D02*
X17519172Y-12930658D01*
X17519172Y-12930658D02*
X17538220Y-12930658D01*
X17604886Y-13063991D02*
X17604886Y-12930658D01*
X17604886Y-12863991D02*
X17595363Y-12873515D01*
X17595363Y-12873515D02*
X17604886Y-12883039D01*
X17604886Y-12883039D02*
X17614410Y-12873515D01*
X17614410Y-12873515D02*
X17604886Y-12863991D01*
X17604886Y-12863991D02*
X17604886Y-12883039D01*
X17728696Y-13063991D02*
X17709648Y-13054467D01*
X17709648Y-13054467D02*
X17700124Y-13035420D01*
X17700124Y-13035420D02*
X17700124Y-12863991D01*
X17833458Y-13063991D02*
X17814410Y-13054467D01*
X17814410Y-13054467D02*
X17804886Y-13035420D01*
X17804886Y-13035420D02*
X17804886Y-12863991D01*
X18062029Y-13063991D02*
X18062029Y-12863991D01*
X18062029Y-12863991D02*
X18128696Y-13006848D01*
X18128696Y-13006848D02*
X18195363Y-12863991D01*
X18195363Y-12863991D02*
X18195363Y-13063991D01*
X18376315Y-13063991D02*
X18376315Y-12959229D01*
X18376315Y-12959229D02*
X18366791Y-12940182D01*
X18366791Y-12940182D02*
X18347744Y-12930658D01*
X18347744Y-12930658D02*
X18309648Y-12930658D01*
X18309648Y-12930658D02*
X18290601Y-12940182D01*
X18376315Y-13054467D02*
X18357267Y-13063991D01*
X18357267Y-13063991D02*
X18309648Y-13063991D01*
X18309648Y-13063991D02*
X18290601Y-13054467D01*
X18290601Y-13054467D02*
X18281077Y-13035420D01*
X18281077Y-13035420D02*
X18281077Y-13016372D01*
X18281077Y-13016372D02*
X18290601Y-12997324D01*
X18290601Y-12997324D02*
X18309648Y-12987801D01*
X18309648Y-12987801D02*
X18357267Y-12987801D01*
X18357267Y-12987801D02*
X18376315Y-12978277D01*
X18471553Y-12930658D02*
X18471553Y-13130658D01*
X18471553Y-12940182D02*
X18490601Y-12930658D01*
X18490601Y-12930658D02*
X18528696Y-12930658D01*
X18528696Y-12930658D02*
X18547744Y-12940182D01*
X18547744Y-12940182D02*
X18557267Y-12949705D01*
X18557267Y-12949705D02*
X18566791Y-12968753D01*
X18566791Y-12968753D02*
X18566791Y-13025896D01*
X18566791Y-13025896D02*
X18557267Y-13044943D01*
X18557267Y-13044943D02*
X18547744Y-13054467D01*
X18547744Y-13054467D02*
X18528696Y-13063991D01*
X18528696Y-13063991D02*
X18490601Y-13063991D01*
X18490601Y-13063991D02*
X18471553Y-13054467D01*
X18652505Y-13044943D02*
X18662029Y-13054467D01*
X18662029Y-13054467D02*
X18652505Y-13063991D01*
X18652505Y-13063991D02*
X18642982Y-13054467D01*
X18642982Y-13054467D02*
X18652505Y-13044943D01*
X18652505Y-13044943D02*
X18652505Y-13063991D01*
X18652505Y-12940182D02*
X18662029Y-12949705D01*
X18662029Y-12949705D02*
X18652505Y-12959229D01*
X18652505Y-12959229D02*
X18642982Y-12949705D01*
X18642982Y-12949705D02*
X18652505Y-12940182D01*
X18652505Y-12940182D02*
X18652505Y-12959229D01*
D12*
X16990300Y-13377507D02*
X17020300Y-13407507D01*
X17020300Y-13377507D02*
X16990300Y-13407507D01*
D11*
X17319172Y-13283991D02*
X17338220Y-13283991D01*
X17338220Y-13283991D02*
X17357267Y-13293515D01*
X17357267Y-13293515D02*
X17366791Y-13303039D01*
X17366791Y-13303039D02*
X17376315Y-13322086D01*
X17376315Y-13322086D02*
X17385839Y-13360182D01*
X17385839Y-13360182D02*
X17385839Y-13407801D01*
X17385839Y-13407801D02*
X17376315Y-13445896D01*
X17376315Y-13445896D02*
X17366791Y-13464943D01*
X17366791Y-13464943D02*
X17357267Y-13474467D01*
X17357267Y-13474467D02*
X17338220Y-13483991D01*
X17338220Y-13483991D02*
X17319172Y-13483991D01*
X17319172Y-13483991D02*
X17300124Y-13474467D01*
X17300124Y-13474467D02*
X17290601Y-13464943D01*
X17290601Y-13464943D02*
X17281077Y-13445896D01*
X17281077Y-13445896D02*
X17271553Y-13407801D01*
X17271553Y-13407801D02*
X17271553Y-13360182D01*
X17271553Y-13360182D02*
X17281077Y-13322086D01*
X17281077Y-13322086D02*
X17290601Y-13303039D01*
X17290601Y-13303039D02*
X17300124Y-13293515D01*
X17300124Y-13293515D02*
X17319172Y-13283991D01*
X17471553Y-13464943D02*
X17481077Y-13474467D01*
X17481077Y-13474467D02*
X17471553Y-13483991D01*
X17471553Y-13483991D02*
X17462029Y-13474467D01*
X17462029Y-13474467D02*
X17471553Y-13464943D01*
X17471553Y-13464943D02*
X17471553Y-13483991D01*
X17547744Y-13283991D02*
X17671553Y-13283991D01*
X17671553Y-13283991D02*
X17604886Y-13360182D01*
X17604886Y-13360182D02*
X17633458Y-13360182D01*
X17633458Y-13360182D02*
X17652505Y-13369705D01*
X17652505Y-13369705D02*
X17662029Y-13379229D01*
X17662029Y-13379229D02*
X17671553Y-13398277D01*
X17671553Y-13398277D02*
X17671553Y-13445896D01*
X17671553Y-13445896D02*
X17662029Y-13464943D01*
X17662029Y-13464943D02*
X17652505Y-13474467D01*
X17652505Y-13474467D02*
X17633458Y-13483991D01*
X17633458Y-13483991D02*
X17576315Y-13483991D01*
X17576315Y-13483991D02*
X17557267Y-13474467D01*
X17557267Y-13474467D02*
X17547744Y-13464943D01*
X17795363Y-13283991D02*
X17814410Y-13283991D01*
X17814410Y-13283991D02*
X17833458Y-13293515D01*
X17833458Y-13293515D02*
X17842982Y-13303039D01*
X17842982Y-13303039D02*
X17852505Y-13322086D01*
X17852505Y-13322086D02*
X17862029Y-13360182D01*
X17862029Y-13360182D02*
X17862029Y-13407801D01*
X17862029Y-13407801D02*
X17852505Y-13445896D01*
X17852505Y-13445896D02*
X17842982Y-13464943D01*
X17842982Y-13464943D02*
X17833458Y-13474467D01*
X17833458Y-13474467D02*
X17814410Y-13483991D01*
X17814410Y-13483991D02*
X17795363Y-13483991D01*
X17795363Y-13483991D02*
X17776315Y-13474467D01*
X17776315Y-13474467D02*
X17766791Y-13464943D01*
X17766791Y-13464943D02*
X17757267Y-13445896D01*
X17757267Y-13445896D02*
X17747744Y-13407801D01*
X17747744Y-13407801D02*
X17747744Y-13360182D01*
X17747744Y-13360182D02*
X17757267Y-13322086D01*
X17757267Y-13322086D02*
X17766791Y-13303039D01*
X17766791Y-13303039D02*
X17776315Y-13293515D01*
X17776315Y-13293515D02*
X17795363Y-13283991D01*
X17985839Y-13283991D02*
X18004886Y-13283991D01*
X18004886Y-13283991D02*
X18023934Y-13293515D01*
X18023934Y-13293515D02*
X18033458Y-13303039D01*
X18033458Y-13303039D02*
X18042982Y-13322086D01*
X18042982Y-13322086D02*
X18052505Y-13360182D01*
X18052505Y-13360182D02*
X18052505Y-13407801D01*
X18052505Y-13407801D02*
X18042982Y-13445896D01*
X18042982Y-13445896D02*
X18033458Y-13464943D01*
X18033458Y-13464943D02*
X18023934Y-13474467D01*
X18023934Y-13474467D02*
X18004886Y-13483991D01*
X18004886Y-13483991D02*
X17985839Y-13483991D01*
X17985839Y-13483991D02*
X17966791Y-13474467D01*
X17966791Y-13474467D02*
X17957267Y-13464943D01*
X17957267Y-13464943D02*
X17947744Y-13445896D01*
X17947744Y-13445896D02*
X17938220Y-13407801D01*
X17938220Y-13407801D02*
X17938220Y-13360182D01*
X17938220Y-13360182D02*
X17947744Y-13322086D01*
X17947744Y-13322086D02*
X17957267Y-13303039D01*
X17957267Y-13303039D02*
X17966791Y-13293515D01*
X17966791Y-13293515D02*
X17985839Y-13283991D01*
X18138220Y-13483991D02*
X18138220Y-13350658D01*
X18138220Y-13369705D02*
X18147744Y-13360182D01*
X18147744Y-13360182D02*
X18166791Y-13350658D01*
X18166791Y-13350658D02*
X18195363Y-13350658D01*
X18195363Y-13350658D02*
X18214410Y-13360182D01*
X18214410Y-13360182D02*
X18223934Y-13379229D01*
X18223934Y-13379229D02*
X18223934Y-13483991D01*
X18223934Y-13379229D02*
X18233458Y-13360182D01*
X18233458Y-13360182D02*
X18252505Y-13350658D01*
X18252505Y-13350658D02*
X18281077Y-13350658D01*
X18281077Y-13350658D02*
X18300125Y-13360182D01*
X18300125Y-13360182D02*
X18309648Y-13379229D01*
X18309648Y-13379229D02*
X18309648Y-13483991D01*
X18404886Y-13483991D02*
X18404886Y-13350658D01*
X18404886Y-13369705D02*
X18414410Y-13360182D01*
X18414410Y-13360182D02*
X18433458Y-13350658D01*
X18433458Y-13350658D02*
X18462029Y-13350658D01*
X18462029Y-13350658D02*
X18481077Y-13360182D01*
X18481077Y-13360182D02*
X18490601Y-13379229D01*
X18490601Y-13379229D02*
X18490601Y-13483991D01*
X18490601Y-13379229D02*
X18500125Y-13360182D01*
X18500125Y-13360182D02*
X18519172Y-13350658D01*
X18519172Y-13350658D02*
X18547744Y-13350658D01*
X18547744Y-13350658D02*
X18566791Y-13360182D01*
X18566791Y-13360182D02*
X18576315Y-13379229D01*
X18576315Y-13379229D02*
X18576315Y-13483991D01*
X18966791Y-13274467D02*
X18795363Y-13531610D01*
X19223934Y-13283991D02*
X19242982Y-13283991D01*
X19242982Y-13283991D02*
X19262029Y-13293515D01*
X19262029Y-13293515D02*
X19271553Y-13303039D01*
X19271553Y-13303039D02*
X19281077Y-13322086D01*
X19281077Y-13322086D02*
X19290601Y-13360182D01*
X19290601Y-13360182D02*
X19290601Y-13407801D01*
X19290601Y-13407801D02*
X19281077Y-13445896D01*
X19281077Y-13445896D02*
X19271553Y-13464943D01*
X19271553Y-13464943D02*
X19262029Y-13474467D01*
X19262029Y-13474467D02*
X19242982Y-13483991D01*
X19242982Y-13483991D02*
X19223934Y-13483991D01*
X19223934Y-13483991D02*
X19204887Y-13474467D01*
X19204887Y-13474467D02*
X19195363Y-13464943D01*
X19195363Y-13464943D02*
X19185839Y-13445896D01*
X19185839Y-13445896D02*
X19176315Y-13407801D01*
X19176315Y-13407801D02*
X19176315Y-13360182D01*
X19176315Y-13360182D02*
X19185839Y-13322086D01*
X19185839Y-13322086D02*
X19195363Y-13303039D01*
X19195363Y-13303039D02*
X19204887Y-13293515D01*
X19204887Y-13293515D02*
X19223934Y-13283991D01*
X19376315Y-13464943D02*
X19385839Y-13474467D01*
X19385839Y-13474467D02*
X19376315Y-13483991D01*
X19376315Y-13483991D02*
X19366791Y-13474467D01*
X19366791Y-13474467D02*
X19376315Y-13464943D01*
X19376315Y-13464943D02*
X19376315Y-13483991D01*
X19509648Y-13283991D02*
X19528696Y-13283991D01*
X19528696Y-13283991D02*
X19547744Y-13293515D01*
X19547744Y-13293515D02*
X19557268Y-13303039D01*
X19557268Y-13303039D02*
X19566791Y-13322086D01*
X19566791Y-13322086D02*
X19576315Y-13360182D01*
X19576315Y-13360182D02*
X19576315Y-13407801D01*
X19576315Y-13407801D02*
X19566791Y-13445896D01*
X19566791Y-13445896D02*
X19557268Y-13464943D01*
X19557268Y-13464943D02*
X19547744Y-13474467D01*
X19547744Y-13474467D02*
X19528696Y-13483991D01*
X19528696Y-13483991D02*
X19509648Y-13483991D01*
X19509648Y-13483991D02*
X19490601Y-13474467D01*
X19490601Y-13474467D02*
X19481077Y-13464943D01*
X19481077Y-13464943D02*
X19471553Y-13445896D01*
X19471553Y-13445896D02*
X19462029Y-13407801D01*
X19462029Y-13407801D02*
X19462029Y-13360182D01*
X19462029Y-13360182D02*
X19471553Y-13322086D01*
X19471553Y-13322086D02*
X19481077Y-13303039D01*
X19481077Y-13303039D02*
X19490601Y-13293515D01*
X19490601Y-13293515D02*
X19509648Y-13283991D01*
X19766791Y-13483991D02*
X19652506Y-13483991D01*
X19709648Y-13483991D02*
X19709648Y-13283991D01*
X19709648Y-13283991D02*
X19690601Y-13312563D01*
X19690601Y-13312563D02*
X19671553Y-13331610D01*
X19671553Y-13331610D02*
X19652506Y-13341134D01*
X19957268Y-13483991D02*
X19842982Y-13483991D01*
X19900125Y-13483991D02*
X19900125Y-13283991D01*
X19900125Y-13283991D02*
X19881077Y-13312563D01*
X19881077Y-13312563D02*
X19862029Y-13331610D01*
X19862029Y-13331610D02*
X19842982Y-13341134D01*
X20071553Y-13369705D02*
X20052506Y-13360182D01*
X20052506Y-13360182D02*
X20042982Y-13350658D01*
X20042982Y-13350658D02*
X20033458Y-13331610D01*
X20033458Y-13331610D02*
X20033458Y-13322086D01*
X20033458Y-13322086D02*
X20042982Y-13303039D01*
X20042982Y-13303039D02*
X20052506Y-13293515D01*
X20052506Y-13293515D02*
X20071553Y-13283991D01*
X20071553Y-13283991D02*
X20109649Y-13283991D01*
X20109649Y-13283991D02*
X20128696Y-13293515D01*
X20128696Y-13293515D02*
X20138220Y-13303039D01*
X20138220Y-13303039D02*
X20147744Y-13322086D01*
X20147744Y-13322086D02*
X20147744Y-13331610D01*
X20147744Y-13331610D02*
X20138220Y-13350658D01*
X20138220Y-13350658D02*
X20128696Y-13360182D01*
X20128696Y-13360182D02*
X20109649Y-13369705D01*
X20109649Y-13369705D02*
X20071553Y-13369705D01*
X20071553Y-13369705D02*
X20052506Y-13379229D01*
X20052506Y-13379229D02*
X20042982Y-13388753D01*
X20042982Y-13388753D02*
X20033458Y-13407801D01*
X20033458Y-13407801D02*
X20033458Y-13445896D01*
X20033458Y-13445896D02*
X20042982Y-13464943D01*
X20042982Y-13464943D02*
X20052506Y-13474467D01*
X20052506Y-13474467D02*
X20071553Y-13483991D01*
X20071553Y-13483991D02*
X20109649Y-13483991D01*
X20109649Y-13483991D02*
X20128696Y-13474467D01*
X20128696Y-13474467D02*
X20138220Y-13464943D01*
X20138220Y-13464943D02*
X20147744Y-13445896D01*
X20147744Y-13445896D02*
X20147744Y-13407801D01*
X20147744Y-13407801D02*
X20138220Y-13388753D01*
X20138220Y-13388753D02*
X20128696Y-13379229D01*
X20128696Y-13379229D02*
X20109649Y-13369705D01*
X20223934Y-13283991D02*
X20223934Y-13322086D01*
X20300125Y-13283991D02*
X20300125Y-13322086D01*
X20595363Y-13560182D02*
X20585839Y-13550658D01*
X20585839Y-13550658D02*
X20566791Y-13522086D01*
X20566791Y-13522086D02*
X20557268Y-13503039D01*
X20557268Y-13503039D02*
X20547744Y-13474467D01*
X20547744Y-13474467D02*
X20538220Y-13426848D01*
X20538220Y-13426848D02*
X20538220Y-13388753D01*
X20538220Y-13388753D02*
X20547744Y-13341134D01*
X20547744Y-13341134D02*
X20557268Y-13312563D01*
X20557268Y-13312563D02*
X20566791Y-13293515D01*
X20566791Y-13293515D02*
X20585839Y-13264943D01*
X20585839Y-13264943D02*
X20595363Y-13255420D01*
X20700125Y-13369705D02*
X20681077Y-13360182D01*
X20681077Y-13360182D02*
X20671553Y-13350658D01*
X20671553Y-13350658D02*
X20662030Y-13331610D01*
X20662030Y-13331610D02*
X20662030Y-13322086D01*
X20662030Y-13322086D02*
X20671553Y-13303039D01*
X20671553Y-13303039D02*
X20681077Y-13293515D01*
X20681077Y-13293515D02*
X20700125Y-13283991D01*
X20700125Y-13283991D02*
X20738220Y-13283991D01*
X20738220Y-13283991D02*
X20757268Y-13293515D01*
X20757268Y-13293515D02*
X20766791Y-13303039D01*
X20766791Y-13303039D02*
X20776315Y-13322086D01*
X20776315Y-13322086D02*
X20776315Y-13331610D01*
X20776315Y-13331610D02*
X20766791Y-13350658D01*
X20766791Y-13350658D02*
X20757268Y-13360182D01*
X20757268Y-13360182D02*
X20738220Y-13369705D01*
X20738220Y-13369705D02*
X20700125Y-13369705D01*
X20700125Y-13369705D02*
X20681077Y-13379229D01*
X20681077Y-13379229D02*
X20671553Y-13388753D01*
X20671553Y-13388753D02*
X20662030Y-13407801D01*
X20662030Y-13407801D02*
X20662030Y-13445896D01*
X20662030Y-13445896D02*
X20671553Y-13464943D01*
X20671553Y-13464943D02*
X20681077Y-13474467D01*
X20681077Y-13474467D02*
X20700125Y-13483991D01*
X20700125Y-13483991D02*
X20738220Y-13483991D01*
X20738220Y-13483991D02*
X20757268Y-13474467D01*
X20757268Y-13474467D02*
X20766791Y-13464943D01*
X20766791Y-13464943D02*
X20776315Y-13445896D01*
X20776315Y-13445896D02*
X20776315Y-13407801D01*
X20776315Y-13407801D02*
X20766791Y-13388753D01*
X20766791Y-13388753D02*
X20757268Y-13379229D01*
X20757268Y-13379229D02*
X20738220Y-13369705D01*
X20900125Y-13283991D02*
X20919172Y-13283991D01*
X20919172Y-13283991D02*
X20938220Y-13293515D01*
X20938220Y-13293515D02*
X20947744Y-13303039D01*
X20947744Y-13303039D02*
X20957268Y-13322086D01*
X20957268Y-13322086D02*
X20966791Y-13360182D01*
X20966791Y-13360182D02*
X20966791Y-13407801D01*
X20966791Y-13407801D02*
X20957268Y-13445896D01*
X20957268Y-13445896D02*
X20947744Y-13464943D01*
X20947744Y-13464943D02*
X20938220Y-13474467D01*
X20938220Y-13474467D02*
X20919172Y-13483991D01*
X20919172Y-13483991D02*
X20900125Y-13483991D01*
X20900125Y-13483991D02*
X20881077Y-13474467D01*
X20881077Y-13474467D02*
X20871553Y-13464943D01*
X20871553Y-13464943D02*
X20862030Y-13445896D01*
X20862030Y-13445896D02*
X20852506Y-13407801D01*
X20852506Y-13407801D02*
X20852506Y-13360182D01*
X20852506Y-13360182D02*
X20862030Y-13322086D01*
X20862030Y-13322086D02*
X20871553Y-13303039D01*
X20871553Y-13303039D02*
X20881077Y-13293515D01*
X20881077Y-13293515D02*
X20900125Y-13283991D01*
X21204887Y-13483991D02*
X21204887Y-13283991D01*
X21290601Y-13483991D02*
X21290601Y-13379229D01*
X21290601Y-13379229D02*
X21281077Y-13360182D01*
X21281077Y-13360182D02*
X21262030Y-13350658D01*
X21262030Y-13350658D02*
X21233458Y-13350658D01*
X21233458Y-13350658D02*
X21214411Y-13360182D01*
X21214411Y-13360182D02*
X21204887Y-13369705D01*
X21414411Y-13483991D02*
X21395363Y-13474467D01*
X21395363Y-13474467D02*
X21385839Y-13464943D01*
X21385839Y-13464943D02*
X21376315Y-13445896D01*
X21376315Y-13445896D02*
X21376315Y-13388753D01*
X21376315Y-13388753D02*
X21385839Y-13369705D01*
X21385839Y-13369705D02*
X21395363Y-13360182D01*
X21395363Y-13360182D02*
X21414411Y-13350658D01*
X21414411Y-13350658D02*
X21442982Y-13350658D01*
X21442982Y-13350658D02*
X21462030Y-13360182D01*
X21462030Y-13360182D02*
X21471553Y-13369705D01*
X21471553Y-13369705D02*
X21481077Y-13388753D01*
X21481077Y-13388753D02*
X21481077Y-13445896D01*
X21481077Y-13445896D02*
X21471553Y-13464943D01*
X21471553Y-13464943D02*
X21462030Y-13474467D01*
X21462030Y-13474467D02*
X21442982Y-13483991D01*
X21442982Y-13483991D02*
X21414411Y-13483991D01*
X21595363Y-13483991D02*
X21576315Y-13474467D01*
X21576315Y-13474467D02*
X21566792Y-13455420D01*
X21566792Y-13455420D02*
X21566792Y-13283991D01*
X21747744Y-13474467D02*
X21728696Y-13483991D01*
X21728696Y-13483991D02*
X21690601Y-13483991D01*
X21690601Y-13483991D02*
X21671553Y-13474467D01*
X21671553Y-13474467D02*
X21662030Y-13455420D01*
X21662030Y-13455420D02*
X21662030Y-13379229D01*
X21662030Y-13379229D02*
X21671553Y-13360182D01*
X21671553Y-13360182D02*
X21690601Y-13350658D01*
X21690601Y-13350658D02*
X21728696Y-13350658D01*
X21728696Y-13350658D02*
X21747744Y-13360182D01*
X21747744Y-13360182D02*
X21757268Y-13379229D01*
X21757268Y-13379229D02*
X21757268Y-13398277D01*
X21757268Y-13398277D02*
X21662030Y-13417324D01*
X21833458Y-13474467D02*
X21852506Y-13483991D01*
X21852506Y-13483991D02*
X21890601Y-13483991D01*
X21890601Y-13483991D02*
X21909649Y-13474467D01*
X21909649Y-13474467D02*
X21919173Y-13455420D01*
X21919173Y-13455420D02*
X21919173Y-13445896D01*
X21919173Y-13445896D02*
X21909649Y-13426848D01*
X21909649Y-13426848D02*
X21890601Y-13417324D01*
X21890601Y-13417324D02*
X21862030Y-13417324D01*
X21862030Y-13417324D02*
X21842982Y-13407801D01*
X21842982Y-13407801D02*
X21833458Y-13388753D01*
X21833458Y-13388753D02*
X21833458Y-13379229D01*
X21833458Y-13379229D02*
X21842982Y-13360182D01*
X21842982Y-13360182D02*
X21862030Y-13350658D01*
X21862030Y-13350658D02*
X21890601Y-13350658D01*
X21890601Y-13350658D02*
X21909649Y-13360182D01*
X21985839Y-13560182D02*
X21995363Y-13550658D01*
X21995363Y-13550658D02*
X22014411Y-13522086D01*
X22014411Y-13522086D02*
X22023934Y-13503039D01*
X22023934Y-13503039D02*
X22033458Y-13474467D01*
X22033458Y-13474467D02*
X22042982Y-13426848D01*
X22042982Y-13426848D02*
X22042982Y-13388753D01*
X22042982Y-13388753D02*
X22033458Y-13341134D01*
X22033458Y-13341134D02*
X22023934Y-13312563D01*
X22023934Y-13312563D02*
X22014411Y-13293515D01*
X22014411Y-13293515D02*
X21995363Y-13264943D01*
X21995363Y-13264943D02*
X21985839Y-13255420D01*
X17020300Y-13656507D02*
G75*
G02*
X16820300Y-13656507I-100000J0D01*
G01*
X16820300Y-13656507D02*
G75*
G02*
X17020300Y-13656507I100000J0D01*
G01*
X17262029Y-13547991D02*
X17385839Y-13547991D01*
X17385839Y-13547991D02*
X17319172Y-13624182D01*
X17319172Y-13624182D02*
X17347744Y-13624182D01*
X17347744Y-13624182D02*
X17366791Y-13633705D01*
X17366791Y-13633705D02*
X17376315Y-13643229D01*
X17376315Y-13643229D02*
X17385839Y-13662277D01*
X17385839Y-13662277D02*
X17385839Y-13709896D01*
X17385839Y-13709896D02*
X17376315Y-13728943D01*
X17376315Y-13728943D02*
X17366791Y-13738467D01*
X17366791Y-13738467D02*
X17347744Y-13747991D01*
X17347744Y-13747991D02*
X17290601Y-13747991D01*
X17290601Y-13747991D02*
X17271553Y-13738467D01*
X17271553Y-13738467D02*
X17262029Y-13728943D01*
X17471553Y-13728943D02*
X17481077Y-13738467D01*
X17481077Y-13738467D02*
X17471553Y-13747991D01*
X17471553Y-13747991D02*
X17462029Y-13738467D01*
X17462029Y-13738467D02*
X17471553Y-13728943D01*
X17471553Y-13728943D02*
X17471553Y-13747991D01*
X17557267Y-13567039D02*
X17566791Y-13557515D01*
X17566791Y-13557515D02*
X17585839Y-13547991D01*
X17585839Y-13547991D02*
X17633458Y-13547991D01*
X17633458Y-13547991D02*
X17652505Y-13557515D01*
X17652505Y-13557515D02*
X17662029Y-13567039D01*
X17662029Y-13567039D02*
X17671553Y-13586086D01*
X17671553Y-13586086D02*
X17671553Y-13605134D01*
X17671553Y-13605134D02*
X17662029Y-13633705D01*
X17662029Y-13633705D02*
X17547744Y-13747991D01*
X17547744Y-13747991D02*
X17671553Y-13747991D01*
X17795363Y-13547991D02*
X17814410Y-13547991D01*
X17814410Y-13547991D02*
X17833458Y-13557515D01*
X17833458Y-13557515D02*
X17842982Y-13567039D01*
X17842982Y-13567039D02*
X17852505Y-13586086D01*
X17852505Y-13586086D02*
X17862029Y-13624182D01*
X17862029Y-13624182D02*
X17862029Y-13671801D01*
X17862029Y-13671801D02*
X17852505Y-13709896D01*
X17852505Y-13709896D02*
X17842982Y-13728943D01*
X17842982Y-13728943D02*
X17833458Y-13738467D01*
X17833458Y-13738467D02*
X17814410Y-13747991D01*
X17814410Y-13747991D02*
X17795363Y-13747991D01*
X17795363Y-13747991D02*
X17776315Y-13738467D01*
X17776315Y-13738467D02*
X17766791Y-13728943D01*
X17766791Y-13728943D02*
X17757267Y-13709896D01*
X17757267Y-13709896D02*
X17747744Y-13671801D01*
X17747744Y-13671801D02*
X17747744Y-13624182D01*
X17747744Y-13624182D02*
X17757267Y-13586086D01*
X17757267Y-13586086D02*
X17766791Y-13567039D01*
X17766791Y-13567039D02*
X17776315Y-13557515D01*
X17776315Y-13557515D02*
X17795363Y-13547991D01*
X17985839Y-13547991D02*
X18004886Y-13547991D01*
X18004886Y-13547991D02*
X18023934Y-13557515D01*
X18023934Y-13557515D02*
X18033458Y-13567039D01*
X18033458Y-13567039D02*
X18042982Y-13586086D01*
X18042982Y-13586086D02*
X18052505Y-13624182D01*
X18052505Y-13624182D02*
X18052505Y-13671801D01*
X18052505Y-13671801D02*
X18042982Y-13709896D01*
X18042982Y-13709896D02*
X18033458Y-13728943D01*
X18033458Y-13728943D02*
X18023934Y-13738467D01*
X18023934Y-13738467D02*
X18004886Y-13747991D01*
X18004886Y-13747991D02*
X17985839Y-13747991D01*
X17985839Y-13747991D02*
X17966791Y-13738467D01*
X17966791Y-13738467D02*
X17957267Y-13728943D01*
X17957267Y-13728943D02*
X17947744Y-13709896D01*
X17947744Y-13709896D02*
X17938220Y-13671801D01*
X17938220Y-13671801D02*
X17938220Y-13624182D01*
X17938220Y-13624182D02*
X17947744Y-13586086D01*
X17947744Y-13586086D02*
X17957267Y-13567039D01*
X17957267Y-13567039D02*
X17966791Y-13557515D01*
X17966791Y-13557515D02*
X17985839Y-13547991D01*
X18138220Y-13747991D02*
X18138220Y-13614658D01*
X18138220Y-13633705D02*
X18147744Y-13624182D01*
X18147744Y-13624182D02*
X18166791Y-13614658D01*
X18166791Y-13614658D02*
X18195363Y-13614658D01*
X18195363Y-13614658D02*
X18214410Y-13624182D01*
X18214410Y-13624182D02*
X18223934Y-13643229D01*
X18223934Y-13643229D02*
X18223934Y-13747991D01*
X18223934Y-13643229D02*
X18233458Y-13624182D01*
X18233458Y-13624182D02*
X18252505Y-13614658D01*
X18252505Y-13614658D02*
X18281077Y-13614658D01*
X18281077Y-13614658D02*
X18300125Y-13624182D01*
X18300125Y-13624182D02*
X18309648Y-13643229D01*
X18309648Y-13643229D02*
X18309648Y-13747991D01*
X18404886Y-13747991D02*
X18404886Y-13614658D01*
X18404886Y-13633705D02*
X18414410Y-13624182D01*
X18414410Y-13624182D02*
X18433458Y-13614658D01*
X18433458Y-13614658D02*
X18462029Y-13614658D01*
X18462029Y-13614658D02*
X18481077Y-13624182D01*
X18481077Y-13624182D02*
X18490601Y-13643229D01*
X18490601Y-13643229D02*
X18490601Y-13747991D01*
X18490601Y-13643229D02*
X18500125Y-13624182D01*
X18500125Y-13624182D02*
X18519172Y-13614658D01*
X18519172Y-13614658D02*
X18547744Y-13614658D01*
X18547744Y-13614658D02*
X18566791Y-13624182D01*
X18566791Y-13624182D02*
X18576315Y-13643229D01*
X18576315Y-13643229D02*
X18576315Y-13747991D01*
X18966791Y-13538467D02*
X18795363Y-13795610D01*
X19223934Y-13547991D02*
X19242982Y-13547991D01*
X19242982Y-13547991D02*
X19262029Y-13557515D01*
X19262029Y-13557515D02*
X19271553Y-13567039D01*
X19271553Y-13567039D02*
X19281077Y-13586086D01*
X19281077Y-13586086D02*
X19290601Y-13624182D01*
X19290601Y-13624182D02*
X19290601Y-13671801D01*
X19290601Y-13671801D02*
X19281077Y-13709896D01*
X19281077Y-13709896D02*
X19271553Y-13728943D01*
X19271553Y-13728943D02*
X19262029Y-13738467D01*
X19262029Y-13738467D02*
X19242982Y-13747991D01*
X19242982Y-13747991D02*
X19223934Y-13747991D01*
X19223934Y-13747991D02*
X19204887Y-13738467D01*
X19204887Y-13738467D02*
X19195363Y-13728943D01*
X19195363Y-13728943D02*
X19185839Y-13709896D01*
X19185839Y-13709896D02*
X19176315Y-13671801D01*
X19176315Y-13671801D02*
X19176315Y-13624182D01*
X19176315Y-13624182D02*
X19185839Y-13586086D01*
X19185839Y-13586086D02*
X19195363Y-13567039D01*
X19195363Y-13567039D02*
X19204887Y-13557515D01*
X19204887Y-13557515D02*
X19223934Y-13547991D01*
X19376315Y-13728943D02*
X19385839Y-13738467D01*
X19385839Y-13738467D02*
X19376315Y-13747991D01*
X19376315Y-13747991D02*
X19366791Y-13738467D01*
X19366791Y-13738467D02*
X19376315Y-13728943D01*
X19376315Y-13728943D02*
X19376315Y-13747991D01*
X19576315Y-13747991D02*
X19462029Y-13747991D01*
X19519172Y-13747991D02*
X19519172Y-13547991D01*
X19519172Y-13547991D02*
X19500125Y-13576563D01*
X19500125Y-13576563D02*
X19481077Y-13595610D01*
X19481077Y-13595610D02*
X19462029Y-13605134D01*
X19652506Y-13567039D02*
X19662029Y-13557515D01*
X19662029Y-13557515D02*
X19681077Y-13547991D01*
X19681077Y-13547991D02*
X19728696Y-13547991D01*
X19728696Y-13547991D02*
X19747744Y-13557515D01*
X19747744Y-13557515D02*
X19757268Y-13567039D01*
X19757268Y-13567039D02*
X19766791Y-13586086D01*
X19766791Y-13586086D02*
X19766791Y-13605134D01*
X19766791Y-13605134D02*
X19757268Y-13633705D01*
X19757268Y-13633705D02*
X19642982Y-13747991D01*
X19642982Y-13747991D02*
X19766791Y-13747991D01*
X19938220Y-13547991D02*
X19900125Y-13547991D01*
X19900125Y-13547991D02*
X19881077Y-13557515D01*
X19881077Y-13557515D02*
X19871553Y-13567039D01*
X19871553Y-13567039D02*
X19852506Y-13595610D01*
X19852506Y-13595610D02*
X19842982Y-13633705D01*
X19842982Y-13633705D02*
X19842982Y-13709896D01*
X19842982Y-13709896D02*
X19852506Y-13728943D01*
X19852506Y-13728943D02*
X19862029Y-13738467D01*
X19862029Y-13738467D02*
X19881077Y-13747991D01*
X19881077Y-13747991D02*
X19919172Y-13747991D01*
X19919172Y-13747991D02*
X19938220Y-13738467D01*
X19938220Y-13738467D02*
X19947744Y-13728943D01*
X19947744Y-13728943D02*
X19957268Y-13709896D01*
X19957268Y-13709896D02*
X19957268Y-13662277D01*
X19957268Y-13662277D02*
X19947744Y-13643229D01*
X19947744Y-13643229D02*
X19938220Y-13633705D01*
X19938220Y-13633705D02*
X19919172Y-13624182D01*
X19919172Y-13624182D02*
X19881077Y-13624182D01*
X19881077Y-13624182D02*
X19862029Y-13633705D01*
X19862029Y-13633705D02*
X19852506Y-13643229D01*
X19852506Y-13643229D02*
X19842982Y-13662277D01*
X20081077Y-13547991D02*
X20100125Y-13547991D01*
X20100125Y-13547991D02*
X20119172Y-13557515D01*
X20119172Y-13557515D02*
X20128696Y-13567039D01*
X20128696Y-13567039D02*
X20138220Y-13586086D01*
X20138220Y-13586086D02*
X20147744Y-13624182D01*
X20147744Y-13624182D02*
X20147744Y-13671801D01*
X20147744Y-13671801D02*
X20138220Y-13709896D01*
X20138220Y-13709896D02*
X20128696Y-13728943D01*
X20128696Y-13728943D02*
X20119172Y-13738467D01*
X20119172Y-13738467D02*
X20100125Y-13747991D01*
X20100125Y-13747991D02*
X20081077Y-13747991D01*
X20081077Y-13747991D02*
X20062029Y-13738467D01*
X20062029Y-13738467D02*
X20052506Y-13728943D01*
X20052506Y-13728943D02*
X20042982Y-13709896D01*
X20042982Y-13709896D02*
X20033458Y-13671801D01*
X20033458Y-13671801D02*
X20033458Y-13624182D01*
X20033458Y-13624182D02*
X20042982Y-13586086D01*
X20042982Y-13586086D02*
X20052506Y-13567039D01*
X20052506Y-13567039D02*
X20062029Y-13557515D01*
X20062029Y-13557515D02*
X20081077Y-13547991D01*
X20223934Y-13547991D02*
X20223934Y-13586086D01*
X20300125Y-13547991D02*
X20300125Y-13586086D01*
X20595363Y-13824182D02*
X20585839Y-13814658D01*
X20585839Y-13814658D02*
X20566791Y-13786086D01*
X20566791Y-13786086D02*
X20557268Y-13767039D01*
X20557268Y-13767039D02*
X20547744Y-13738467D01*
X20547744Y-13738467D02*
X20538220Y-13690848D01*
X20538220Y-13690848D02*
X20538220Y-13652753D01*
X20538220Y-13652753D02*
X20547744Y-13605134D01*
X20547744Y-13605134D02*
X20557268Y-13576563D01*
X20557268Y-13576563D02*
X20566791Y-13557515D01*
X20566791Y-13557515D02*
X20585839Y-13528943D01*
X20585839Y-13528943D02*
X20595363Y-13519420D01*
X20757268Y-13614658D02*
X20757268Y-13747991D01*
X20709649Y-13538467D02*
X20662030Y-13681324D01*
X20662030Y-13681324D02*
X20785839Y-13681324D01*
X21014411Y-13747991D02*
X21014411Y-13547991D01*
X21100125Y-13747991D02*
X21100125Y-13643229D01*
X21100125Y-13643229D02*
X21090601Y-13624182D01*
X21090601Y-13624182D02*
X21071553Y-13614658D01*
X21071553Y-13614658D02*
X21042982Y-13614658D01*
X21042982Y-13614658D02*
X21023934Y-13624182D01*
X21023934Y-13624182D02*
X21014411Y-13633705D01*
X21223934Y-13747991D02*
X21204887Y-13738467D01*
X21204887Y-13738467D02*
X21195363Y-13728943D01*
X21195363Y-13728943D02*
X21185839Y-13709896D01*
X21185839Y-13709896D02*
X21185839Y-13652753D01*
X21185839Y-13652753D02*
X21195363Y-13633705D01*
X21195363Y-13633705D02*
X21204887Y-13624182D01*
X21204887Y-13624182D02*
X21223934Y-13614658D01*
X21223934Y-13614658D02*
X21252506Y-13614658D01*
X21252506Y-13614658D02*
X21271553Y-13624182D01*
X21271553Y-13624182D02*
X21281077Y-13633705D01*
X21281077Y-13633705D02*
X21290601Y-13652753D01*
X21290601Y-13652753D02*
X21290601Y-13709896D01*
X21290601Y-13709896D02*
X21281077Y-13728943D01*
X21281077Y-13728943D02*
X21271553Y-13738467D01*
X21271553Y-13738467D02*
X21252506Y-13747991D01*
X21252506Y-13747991D02*
X21223934Y-13747991D01*
X21404887Y-13747991D02*
X21385839Y-13738467D01*
X21385839Y-13738467D02*
X21376315Y-13719420D01*
X21376315Y-13719420D02*
X21376315Y-13547991D01*
X21557268Y-13738467D02*
X21538220Y-13747991D01*
X21538220Y-13747991D02*
X21500125Y-13747991D01*
X21500125Y-13747991D02*
X21481077Y-13738467D01*
X21481077Y-13738467D02*
X21471553Y-13719420D01*
X21471553Y-13719420D02*
X21471553Y-13643229D01*
X21471553Y-13643229D02*
X21481077Y-13624182D01*
X21481077Y-13624182D02*
X21500125Y-13614658D01*
X21500125Y-13614658D02*
X21538220Y-13614658D01*
X21538220Y-13614658D02*
X21557268Y-13624182D01*
X21557268Y-13624182D02*
X21566792Y-13643229D01*
X21566792Y-13643229D02*
X21566792Y-13662277D01*
X21566792Y-13662277D02*
X21471553Y-13681324D01*
X21642982Y-13738467D02*
X21662030Y-13747991D01*
X21662030Y-13747991D02*
X21700125Y-13747991D01*
X21700125Y-13747991D02*
X21719173Y-13738467D01*
X21719173Y-13738467D02*
X21728696Y-13719420D01*
X21728696Y-13719420D02*
X21728696Y-13709896D01*
X21728696Y-13709896D02*
X21719173Y-13690848D01*
X21719173Y-13690848D02*
X21700125Y-13681324D01*
X21700125Y-13681324D02*
X21671553Y-13681324D01*
X21671553Y-13681324D02*
X21652506Y-13671801D01*
X21652506Y-13671801D02*
X21642982Y-13652753D01*
X21642982Y-13652753D02*
X21642982Y-13643229D01*
X21642982Y-13643229D02*
X21652506Y-13624182D01*
X21652506Y-13624182D02*
X21671553Y-13614658D01*
X21671553Y-13614658D02*
X21700125Y-13614658D01*
X21700125Y-13614658D02*
X21719173Y-13624182D01*
X21795363Y-13824182D02*
X21804887Y-13814658D01*
X21804887Y-13814658D02*
X21823934Y-13786086D01*
X21823934Y-13786086D02*
X21833458Y-13767039D01*
X21833458Y-13767039D02*
X21842982Y-13738467D01*
X21842982Y-13738467D02*
X21852506Y-13690848D01*
X21852506Y-13690848D02*
X21852506Y-13652753D01*
X21852506Y-13652753D02*
X21842982Y-13605134D01*
X21842982Y-13605134D02*
X21833458Y-13576563D01*
X21833458Y-13576563D02*
X21823934Y-13557515D01*
X21823934Y-13557515D02*
X21804887Y-13528943D01*
X21804887Y-13528943D02*
X21795363Y-13519420D01*
M02*
