%TF.GenerationSoftware,KiCad,Pcbnew,8.0.7*%
%TF.CreationDate,2025-01-10T16:13:59+05:30*%
%TF.ProjectId,STHDAQ_B0_COPY,53544844-4151-45f4-9230-5f434f50592e,rev?*%
%TF.SameCoordinates,Original*%
%TF.FileFunction,Paste,Top*%
%TF.FilePolarity,Positive*%
%FSLAX46Y46*%
G04 Gerber Fmt 4.6, Leading zero omitted, Abs format (unit mm)*
G04 Created by KiCad (PCBNEW 8.0.7) date 2025-01-10 16:13:59*
%MOMM*%
%LPD*%
G01*
G04 APERTURE LIST*
G04 Aperture macros list*
%AMRoundRect*
0 Rectangle with rounded corners*
0 $1 Rounding radius*
0 $2 $3 $4 $5 $6 $7 $8 $9 X,Y pos of 4 corners*
0 Add a 4 corners polygon primitive as box body*
4,1,4,$2,$3,$4,$5,$6,$7,$8,$9,$2,$3,0*
0 Add four circle primitives for the rounded corners*
1,1,$1+$1,$2,$3*
1,1,$1+$1,$4,$5*
1,1,$1+$1,$6,$7*
1,1,$1+$1,$8,$9*
0 Add four rect primitives between the rounded corners*
20,1,$1+$1,$2,$3,$4,$5,0*
20,1,$1+$1,$4,$5,$6,$7,0*
20,1,$1+$1,$6,$7,$8,$9,0*
20,1,$1+$1,$8,$9,$2,$3,0*%
G04 Aperture macros list end*
%ADD10RoundRect,0.079500X0.079500X0.100500X-0.079500X0.100500X-0.079500X-0.100500X0.079500X-0.100500X0*%
%ADD11RoundRect,0.079500X-0.100500X0.079500X-0.100500X-0.079500X0.100500X-0.079500X0.100500X0.079500X0*%
%ADD12RoundRect,0.079500X-0.079500X-0.100500X0.079500X-0.100500X0.079500X0.100500X-0.079500X0.100500X0*%
%ADD13R,0.558000X1.454899*%
%ADD14RoundRect,0.079500X0.100500X-0.079500X0.100500X0.079500X-0.100500X0.079500X-0.100500X-0.079500X0*%
%ADD15RoundRect,0.250000X-1.150000X0.250000X-1.150000X-0.250000X1.150000X-0.250000X1.150000X0.250000X0*%
%ADD16RoundRect,0.150000X-0.700000X0.150000X-0.700000X-0.150000X0.700000X-0.150000X0.700000X0.150000X0*%
%ADD17O,1.450000X0.599999*%
%ADD18R,2.100000X5.600000*%
%ADD19RoundRect,0.150000X0.700000X-0.150000X0.700000X0.150000X-0.700000X0.150000X-0.700000X-0.150000X0*%
%ADD20RoundRect,0.250000X1.150000X-0.250000X1.150000X0.250000X-1.150000X0.250000X-1.150000X-0.250000X0*%
%ADD21R,0.946899X0.508000*%
%ADD22O,0.599999X1.450000*%
%ADD23R,1.639799X0.431000*%
G04 APERTURE END LIST*
D10*
%TO.C,C13*%
X205018200Y-73881998D03*
X204328200Y-73881998D03*
%TD*%
D11*
%TO.C,C9*%
X194818000Y-64552000D03*
X194818000Y-65242000D03*
%TD*%
%TO.C,C20*%
X190119000Y-86711000D03*
X190119000Y-87401000D03*
%TD*%
D12*
%TO.C,C6*%
X192949000Y-69215000D03*
X193639000Y-69215000D03*
%TD*%
D13*
%TO.C,U4*%
X202184000Y-82368652D03*
X200914000Y-82368652D03*
X199644000Y-82368652D03*
X198374000Y-82368652D03*
X198374000Y-87811348D03*
X199644000Y-87811348D03*
X200914000Y-87811348D03*
X202184000Y-87811348D03*
%TD*%
D12*
%TO.C,C3*%
X198954000Y-80772000D03*
X199644000Y-80772000D03*
%TD*%
D14*
%TO.C,R2*%
X193802000Y-94325000D03*
X193802000Y-93635000D03*
%TD*%
%TO.C,R11*%
X204216000Y-94325000D03*
X204216000Y-93635000D03*
%TD*%
D15*
%TO.C,J2*%
X211105457Y-80881000D03*
X211105457Y-65931000D03*
D16*
X207755457Y-79031000D03*
X207755457Y-77781000D03*
X207755457Y-76531000D03*
X207755457Y-75281000D03*
X207755457Y-74031000D03*
X207755457Y-72781000D03*
X207755457Y-71531000D03*
X207755457Y-70281000D03*
X207755457Y-69031000D03*
X207755457Y-67781000D03*
%TD*%
D10*
%TO.C,C12*%
X205018200Y-72865998D03*
X204328200Y-72865998D03*
%TD*%
D17*
%TO.C,U5*%
X195349418Y-91948000D03*
X195349418Y-93218000D03*
X195349418Y-94488000D03*
X195349418Y-95758000D03*
X200799417Y-95758000D03*
X200799417Y-94488000D03*
X200799417Y-93218000D03*
X200799417Y-91948000D03*
%TD*%
%TO.C,U7*%
X205681999Y-86106000D03*
X205681999Y-87376000D03*
X205681999Y-88646000D03*
X205681999Y-89916000D03*
X211131998Y-89916000D03*
X211131998Y-88646000D03*
X211131998Y-87376000D03*
X211131998Y-86106000D03*
%TD*%
D14*
%TO.C,C11*%
X204216000Y-76103000D03*
X204216000Y-75413000D03*
%TD*%
%TO.C,R8*%
X188722000Y-88901000D03*
X188722000Y-88211000D03*
%TD*%
D11*
%TO.C,C4*%
X197231000Y-87793000D03*
X197231000Y-88483000D03*
%TD*%
D14*
%TO.C,R6*%
X188722000Y-92010000D03*
X188722000Y-91320000D03*
%TD*%
D11*
%TO.C,C19*%
X190119000Y-88235000D03*
X190119000Y-88925000D03*
%TD*%
D14*
%TO.C,R3*%
X188722000Y-96648000D03*
X188722000Y-95958000D03*
%TD*%
D11*
%TO.C,C21*%
X190119000Y-85187000D03*
X190119000Y-85877000D03*
%TD*%
D14*
%TO.C,C1*%
X199136000Y-64861000D03*
X199136000Y-64171000D03*
%TD*%
D18*
%TO.C,Y1*%
X189484000Y-75616000D03*
X189484000Y-66116000D03*
%TD*%
D11*
%TO.C,C14*%
X190119000Y-95982000D03*
X190119000Y-96672000D03*
%TD*%
D17*
%TO.C,U6*%
X205681999Y-92075000D03*
X205681999Y-93345000D03*
X205681999Y-94615000D03*
X205681999Y-95885000D03*
X211131998Y-95885000D03*
X211131998Y-94615000D03*
X211131998Y-93345000D03*
X211131998Y-92075000D03*
%TD*%
D14*
%TO.C,C10*%
X205232000Y-76103000D03*
X205232000Y-75413000D03*
%TD*%
D10*
%TO.C,R1*%
X198719000Y-89535000D03*
X198029000Y-89535000D03*
%TD*%
D19*
%TO.C,J1*%
X186323000Y-93763000D03*
X186323000Y-92513000D03*
X186323000Y-91263000D03*
X186323000Y-90013000D03*
X186323000Y-88763000D03*
X186323000Y-87513000D03*
X186323000Y-86263000D03*
X186323000Y-85013000D03*
X186323000Y-83763000D03*
X186323000Y-82513000D03*
D20*
X182973000Y-95613000D03*
X182973000Y-80663000D03*
%TD*%
D14*
%TO.C,R7*%
X188722000Y-90421000D03*
X188722000Y-89731000D03*
%TD*%
%TO.C,R4*%
X188722000Y-95124000D03*
X188722000Y-94434000D03*
%TD*%
D11*
%TO.C,C2*%
X204597000Y-62520000D03*
X204597000Y-63210000D03*
%TD*%
D14*
%TO.C,R10*%
X188726000Y-85853000D03*
X188726000Y-85163000D03*
%TD*%
D11*
%TO.C,C18*%
X190119000Y-89759000D03*
X190119000Y-90449000D03*
%TD*%
D14*
%TO.C,R9*%
X188721000Y-87364000D03*
X188721000Y-86674000D03*
%TD*%
%TO.C,R5*%
X188722000Y-93530000D03*
X188722000Y-92840000D03*
%TD*%
D10*
%TO.C,R13*%
X184770000Y-77978000D03*
X184080000Y-77978000D03*
%TD*%
D12*
%TO.C,C5*%
X192695000Y-80772000D03*
X193385000Y-80772000D03*
%TD*%
D11*
%TO.C,C17*%
X190119000Y-91344000D03*
X190119000Y-92034000D03*
%TD*%
%TO.C,C16*%
X190116000Y-92868000D03*
X190116000Y-93558000D03*
%TD*%
%TO.C,C15*%
X190119000Y-94458000D03*
X190119000Y-95148000D03*
%TD*%
D12*
%TO.C,C7*%
X193155000Y-89500000D03*
X193845000Y-89500000D03*
%TD*%
D21*
%TO.C,U2*%
X200656449Y-62422999D03*
X200656449Y-63373000D03*
X200656449Y-64323001D03*
X203203551Y-64323001D03*
X203203551Y-62422999D03*
%TD*%
D14*
%TO.C,R12*%
X203962000Y-88356000D03*
X203962000Y-87666000D03*
%TD*%
D11*
%TO.C,C8*%
X193421000Y-65060000D03*
X193421000Y-65750000D03*
%TD*%
D22*
%TO.C,U8*%
X181991000Y-76131001D03*
X183261000Y-76131001D03*
X184531000Y-76131001D03*
X185801000Y-76131001D03*
X185801000Y-70681002D03*
X184531000Y-70681002D03*
X183261000Y-70681002D03*
X181991000Y-70681002D03*
%TD*%
D13*
%TO.C,U3*%
X195961000Y-82241652D03*
X194691000Y-82241652D03*
X193421000Y-82241652D03*
X192151000Y-82241652D03*
X192151000Y-87684348D03*
X193421000Y-87684348D03*
X194691000Y-87684348D03*
X195961000Y-87684348D03*
%TD*%
D23*
%TO.C,U1*%
X195249800Y-67149000D03*
X195249800Y-67799001D03*
X195249800Y-68449000D03*
X195249800Y-69099001D03*
X195249800Y-69748999D03*
X195249800Y-70399001D03*
X195249800Y-71048999D03*
X195249800Y-71698998D03*
X195249800Y-72348999D03*
X195249800Y-72998998D03*
X195249800Y-73648999D03*
X195249800Y-74298998D03*
X195249800Y-74948999D03*
X195249800Y-75598998D03*
X202514200Y-75599000D03*
X202514200Y-74948999D03*
X202514200Y-74299000D03*
X202514200Y-73648999D03*
X202514200Y-72999001D03*
X202514200Y-72348999D03*
X202514200Y-71699001D03*
X202514200Y-71048999D03*
X202514200Y-70399001D03*
X202514200Y-69748999D03*
X202514200Y-69099001D03*
X202514200Y-68449000D03*
X202514200Y-67799001D03*
X202514200Y-67149000D03*
%TD*%
M02*
