%TF.GenerationSoftware,KiCad,Pcbnew,8.0.7*%
%TF.CreationDate,2025-01-10T16:13:59+05:30*%
%TF.ProjectId,STHDAQ_B0_COPY,53544844-4151-45f4-9230-5f434f50592e,rev?*%
%TF.SameCoordinates,Original*%
%TF.FileFunction,Other,User*%
%FSLAX46Y46*%
G04 Gerber Fmt 4.6, Leading zero omitted, Abs format (unit mm)*
G04 Created by KiCad (PCBNEW 8.0.7) date 2025-01-10 16:13:59*
%MOMM*%
%LPD*%
G01*
G04 APERTURE LIST*
%ADD10C,0.050000*%
%ADD11C,0.152400*%
G04 APERTURE END LIST*
D10*
%TO.C,C13*%
X203973200Y-73531998D02*
X205373200Y-73531998D01*
X203973200Y-74231998D02*
X203973200Y-73531998D01*
X205373200Y-73531998D02*
X205373200Y-74231998D01*
X205373200Y-74231998D02*
X203973200Y-74231998D01*
%TO.C,C9*%
X194468000Y-64197000D02*
X195168000Y-64197000D01*
X194468000Y-65597000D02*
X194468000Y-64197000D01*
X195168000Y-64197000D02*
X195168000Y-65597000D01*
X195168000Y-65597000D02*
X194468000Y-65597000D01*
%TO.C,C20*%
X189769000Y-86356000D02*
X190469000Y-86356000D01*
X189769000Y-87756000D02*
X189769000Y-86356000D01*
X190469000Y-86356000D02*
X190469000Y-87756000D01*
X190469000Y-87756000D02*
X189769000Y-87756000D01*
%TO.C,C6*%
X192594000Y-68865000D02*
X193994000Y-68865000D01*
X192594000Y-69565000D02*
X192594000Y-68865000D01*
X193994000Y-68865000D02*
X193994000Y-69565000D01*
X193994000Y-69565000D02*
X192594000Y-69565000D01*
D11*
%TO.C,U4*%
X197523100Y-82842100D02*
X197841000Y-82842100D01*
X197523100Y-87337900D02*
X197523100Y-82842100D01*
X197841000Y-81387201D02*
X197841000Y-82842100D01*
X197841000Y-81387201D02*
X202717000Y-81387201D01*
X197841000Y-87337900D02*
X197523100Y-87337900D01*
X197841000Y-88792799D02*
X197841000Y-87337900D01*
X202717000Y-81387201D02*
X202717000Y-82842100D01*
X202717000Y-82842100D02*
X203034900Y-82842100D01*
X202717000Y-88792799D02*
X197841000Y-88792799D01*
X202717000Y-88792799D02*
X202717000Y-87337900D01*
X203034900Y-82842100D02*
X203034900Y-87337900D01*
X203034900Y-87337900D02*
X202717000Y-87337900D01*
D10*
%TO.C,C3*%
X198599000Y-80422000D02*
X199999000Y-80422000D01*
X198599000Y-81122000D02*
X198599000Y-80422000D01*
X199999000Y-80422000D02*
X199999000Y-81122000D01*
X199999000Y-81122000D02*
X198599000Y-81122000D01*
%TO.C,R2*%
X193452000Y-93280000D02*
X194152000Y-93280000D01*
X193452000Y-94680000D02*
X193452000Y-93280000D01*
X194152000Y-93280000D02*
X194152000Y-94680000D01*
X194152000Y-94680000D02*
X193452000Y-94680000D01*
%TO.C,R11*%
X203866000Y-93280000D02*
X204566000Y-93280000D01*
X203866000Y-94680000D02*
X203866000Y-93280000D01*
X204566000Y-93280000D02*
X204566000Y-94680000D01*
X204566000Y-94680000D02*
X203866000Y-94680000D01*
%TO.C,J2*%
X213705457Y-81886000D02*
X213705457Y-64926000D01*
X213705457Y-64926000D02*
X206405457Y-64926000D01*
X206405457Y-81886000D02*
X213705457Y-81886000D01*
X206405457Y-64926000D02*
X206405457Y-81886000D01*
%TO.C,H3*%
X213761000Y-60457000D02*
G75*
G02*
X207761000Y-60457000I-3000000J0D01*
G01*
X207761000Y-60457000D02*
G75*
G02*
X213761000Y-60457000I3000000J0D01*
G01*
%TO.C,C12*%
X203973200Y-72515998D02*
X205373200Y-72515998D01*
X203973200Y-73215998D02*
X203973200Y-72515998D01*
X205373200Y-72515998D02*
X205373200Y-73215998D01*
X205373200Y-73215998D02*
X203973200Y-73215998D01*
%TO.C,U5*%
X194374419Y-91103000D02*
X201774419Y-91103000D01*
X194374419Y-96603000D02*
X194374419Y-91103000D01*
X194374419Y-96603000D02*
X201774419Y-96603000D01*
X201774419Y-96603000D02*
X201774419Y-91103000D01*
%TO.C,U7*%
X204707000Y-85261000D02*
X212107000Y-85261000D01*
X204707000Y-90761000D02*
X204707000Y-85261000D01*
X204707000Y-90761000D02*
X212107000Y-90761000D01*
X212107000Y-90761000D02*
X212107000Y-85261000D01*
%TO.C,C11*%
X203866000Y-75058000D02*
X204566000Y-75058000D01*
X203866000Y-76458000D02*
X203866000Y-75058000D01*
X204566000Y-75058000D02*
X204566000Y-76458000D01*
X204566000Y-76458000D02*
X203866000Y-76458000D01*
%TO.C,R8*%
X188372000Y-87856000D02*
X189072000Y-87856000D01*
X188372000Y-89256000D02*
X188372000Y-87856000D01*
X189072000Y-87856000D02*
X189072000Y-89256000D01*
X189072000Y-89256000D02*
X188372000Y-89256000D01*
%TO.C,C4*%
X196881000Y-87438000D02*
X197581000Y-87438000D01*
X196881000Y-88838000D02*
X196881000Y-87438000D01*
X197581000Y-87438000D02*
X197581000Y-88838000D01*
X197581000Y-88838000D02*
X196881000Y-88838000D01*
%TO.C,R6*%
X188372000Y-90965000D02*
X189072000Y-90965000D01*
X188372000Y-92365000D02*
X188372000Y-90965000D01*
X189072000Y-90965000D02*
X189072000Y-92365000D01*
X189072000Y-92365000D02*
X188372000Y-92365000D01*
%TO.C,C19*%
X189769000Y-87880000D02*
X190469000Y-87880000D01*
X189769000Y-89280000D02*
X189769000Y-87880000D01*
X190469000Y-87880000D02*
X190469000Y-89280000D01*
X190469000Y-89280000D02*
X189769000Y-89280000D01*
%TO.C,H4*%
X186261000Y-100457000D02*
G75*
G02*
X180261000Y-100457000I-3000000J0D01*
G01*
X180261000Y-100457000D02*
G75*
G02*
X186261000Y-100457000I3000000J0D01*
G01*
%TO.C,R3*%
X188372000Y-95603000D02*
X189072000Y-95603000D01*
X188372000Y-97003000D02*
X188372000Y-95603000D01*
X189072000Y-95603000D02*
X189072000Y-97003000D01*
X189072000Y-97003000D02*
X188372000Y-97003000D01*
%TO.C,C21*%
X189769000Y-84832000D02*
X190469000Y-84832000D01*
X189769000Y-86232000D02*
X189769000Y-84832000D01*
X190469000Y-84832000D02*
X190469000Y-86232000D01*
X190469000Y-86232000D02*
X189769000Y-86232000D01*
%TO.C,C1*%
X198786000Y-63816000D02*
X199486000Y-63816000D01*
X198786000Y-65216000D02*
X198786000Y-63816000D01*
X199486000Y-63816000D02*
X199486000Y-65216000D01*
X199486000Y-65216000D02*
X198786000Y-65216000D01*
%TO.C,Y1*%
X186884000Y-63066000D02*
X186884000Y-78666000D01*
X186884000Y-78666000D02*
X192084000Y-78666000D01*
X192084000Y-63066000D02*
X186884000Y-63066000D01*
X192084000Y-78666000D02*
X192084000Y-63066000D01*
%TO.C,C14*%
X189769000Y-95627000D02*
X190469000Y-95627000D01*
X189769000Y-97027000D02*
X189769000Y-95627000D01*
X190469000Y-95627000D02*
X190469000Y-97027000D01*
X190469000Y-97027000D02*
X189769000Y-97027000D01*
%TO.C,U6*%
X204707000Y-91230000D02*
X212107000Y-91230000D01*
X204707000Y-96730000D02*
X204707000Y-91230000D01*
X204707000Y-96730000D02*
X212107000Y-96730000D01*
X212107000Y-96730000D02*
X212107000Y-91230000D01*
%TO.C,H1*%
X213761000Y-100457000D02*
G75*
G02*
X207761000Y-100457000I-3000000J0D01*
G01*
X207761000Y-100457000D02*
G75*
G02*
X213761000Y-100457000I3000000J0D01*
G01*
%TO.C,C10*%
X204882000Y-75058000D02*
X205582000Y-75058000D01*
X204882000Y-76458000D02*
X204882000Y-75058000D01*
X205582000Y-75058000D02*
X205582000Y-76458000D01*
X205582000Y-76458000D02*
X204882000Y-76458000D01*
%TO.C,H2*%
X186261000Y-60457000D02*
G75*
G02*
X180261000Y-60457000I-3000000J0D01*
G01*
X180261000Y-60457000D02*
G75*
G02*
X186261000Y-60457000I3000000J0D01*
G01*
%TO.C,R1*%
X197674000Y-89185000D02*
X199074000Y-89185000D01*
X197674000Y-89885000D02*
X197674000Y-89185000D01*
X199074000Y-89185000D02*
X199074000Y-89885000D01*
X199074000Y-89885000D02*
X197674000Y-89885000D01*
%TO.C,J1*%
X180373000Y-79658000D02*
X180373000Y-96618000D01*
X180373000Y-96618000D02*
X187673000Y-96618000D01*
X187673000Y-79658000D02*
X180373000Y-79658000D01*
X187673000Y-96618000D02*
X187673000Y-79658000D01*
%TO.C,R7*%
X188372000Y-89376000D02*
X189072000Y-89376000D01*
X188372000Y-90776000D02*
X188372000Y-89376000D01*
X189072000Y-89376000D02*
X189072000Y-90776000D01*
X189072000Y-90776000D02*
X188372000Y-90776000D01*
%TO.C,R4*%
X188372000Y-94079000D02*
X189072000Y-94079000D01*
X188372000Y-95479000D02*
X188372000Y-94079000D01*
X189072000Y-94079000D02*
X189072000Y-95479000D01*
X189072000Y-95479000D02*
X188372000Y-95479000D01*
%TO.C,C2*%
X204247000Y-62165000D02*
X204947000Y-62165000D01*
X204247000Y-63565000D02*
X204247000Y-62165000D01*
X204947000Y-62165000D02*
X204947000Y-63565000D01*
X204947000Y-63565000D02*
X204247000Y-63565000D01*
%TO.C,R10*%
X188376000Y-84808000D02*
X189076000Y-84808000D01*
X188376000Y-86208000D02*
X188376000Y-84808000D01*
X189076000Y-84808000D02*
X189076000Y-86208000D01*
X189076000Y-86208000D02*
X188376000Y-86208000D01*
%TO.C,C18*%
X189769000Y-89404000D02*
X190469000Y-89404000D01*
X189769000Y-90804000D02*
X189769000Y-89404000D01*
X190469000Y-89404000D02*
X190469000Y-90804000D01*
X190469000Y-90804000D02*
X189769000Y-90804000D01*
%TO.C,R9*%
X188371000Y-86319000D02*
X189071000Y-86319000D01*
X188371000Y-87719000D02*
X188371000Y-86319000D01*
X189071000Y-86319000D02*
X189071000Y-87719000D01*
X189071000Y-87719000D02*
X188371000Y-87719000D01*
%TO.C,R5*%
X188372000Y-92485000D02*
X189072000Y-92485000D01*
X188372000Y-93885000D02*
X188372000Y-92485000D01*
X189072000Y-92485000D02*
X189072000Y-93885000D01*
X189072000Y-93885000D02*
X188372000Y-93885000D01*
%TO.C,R13*%
X183725000Y-78328000D02*
X183725000Y-77628000D01*
X185125000Y-78328000D02*
X183725000Y-78328000D01*
X183725000Y-77628000D02*
X185125000Y-77628000D01*
X185125000Y-77628000D02*
X185125000Y-78328000D01*
%TO.C,C5*%
X192340000Y-80422000D02*
X193740000Y-80422000D01*
X192340000Y-81122000D02*
X192340000Y-80422000D01*
X193740000Y-80422000D02*
X193740000Y-81122000D01*
X193740000Y-81122000D02*
X192340000Y-81122000D01*
%TO.C,C17*%
X189769000Y-90989000D02*
X190469000Y-90989000D01*
X189769000Y-92389000D02*
X189769000Y-90989000D01*
X190469000Y-90989000D02*
X190469000Y-92389000D01*
X190469000Y-92389000D02*
X189769000Y-92389000D01*
%TO.C,C16*%
X189766000Y-92513000D02*
X190466000Y-92513000D01*
X189766000Y-93913000D02*
X189766000Y-92513000D01*
X190466000Y-92513000D02*
X190466000Y-93913000D01*
X190466000Y-93913000D02*
X189766000Y-93913000D01*
%TO.C,C15*%
X189769000Y-94103000D02*
X190469000Y-94103000D01*
X189769000Y-95503000D02*
X189769000Y-94103000D01*
X190469000Y-94103000D02*
X190469000Y-95503000D01*
X190469000Y-95503000D02*
X189769000Y-95503000D01*
%TO.C,C7*%
X192800000Y-89150000D02*
X194200000Y-89150000D01*
X192800000Y-89850000D02*
X192800000Y-89150000D01*
X194200000Y-89150000D02*
X194200000Y-89850000D01*
X194200000Y-89850000D02*
X192800000Y-89850000D01*
D11*
%TO.C,U2*%
X199929001Y-61915000D02*
X200875900Y-61915000D01*
X199929001Y-64831000D02*
X199929001Y-61915000D01*
X200875900Y-61671200D02*
X202984100Y-61671200D01*
X200875900Y-61915000D02*
X200875900Y-61671200D01*
X200875900Y-64831000D02*
X199929001Y-64831000D01*
X200875900Y-65074800D02*
X200875900Y-64831000D01*
X202984100Y-61671200D02*
X202984100Y-61915000D01*
X202984100Y-61915000D02*
X203930999Y-61915000D01*
X202984100Y-64831000D02*
X202984100Y-65074800D01*
X202984100Y-65074800D02*
X200875900Y-65074800D01*
X203930999Y-61915000D02*
X203930999Y-64831000D01*
X203930999Y-64831000D02*
X202984100Y-64831000D01*
D10*
%TO.C,R12*%
X203612000Y-87311000D02*
X204312000Y-87311000D01*
X203612000Y-88711000D02*
X203612000Y-87311000D01*
X204312000Y-87311000D02*
X204312000Y-88711000D01*
X204312000Y-88711000D02*
X203612000Y-88711000D01*
%TO.C,C8*%
X193071000Y-64705000D02*
X193771000Y-64705000D01*
X193071000Y-66105000D02*
X193071000Y-64705000D01*
X193771000Y-64705000D02*
X193771000Y-66105000D01*
X193771000Y-66105000D02*
X193071000Y-66105000D01*
%TO.C,U8*%
X181146000Y-77106000D02*
X181146000Y-69706000D01*
X186646000Y-77106000D02*
X181146000Y-77106000D01*
X186646000Y-77106000D02*
X186646000Y-69706000D01*
X186646000Y-69706000D02*
X181146000Y-69706000D01*
D11*
%TO.C,U3*%
X191300100Y-82715100D02*
X191618000Y-82715100D01*
X191300100Y-87210900D02*
X191300100Y-82715100D01*
X191618000Y-81260201D02*
X191618000Y-82715100D01*
X191618000Y-81260201D02*
X196494000Y-81260201D01*
X191618000Y-87210900D02*
X191300100Y-87210900D01*
X191618000Y-88665799D02*
X191618000Y-87210900D01*
X196494000Y-81260201D02*
X196494000Y-82715100D01*
X196494000Y-82715100D02*
X196811900Y-82715100D01*
X196494000Y-88665799D02*
X191618000Y-88665799D01*
X196494000Y-88665799D02*
X196494000Y-87210900D01*
X196811900Y-82715100D02*
X196811900Y-87210900D01*
X196811900Y-87210900D02*
X196494000Y-87210900D01*
%TO.C,U1*%
X194175901Y-66679500D02*
X195834000Y-66679500D01*
X194175901Y-76068500D02*
X194175901Y-66679500D01*
X194175901Y-76068500D02*
X195834000Y-76068500D01*
X195834000Y-65874900D02*
X201930000Y-65874900D01*
X195834000Y-66679500D02*
X195834000Y-65874900D01*
X195834000Y-76873100D02*
X195834000Y-76068500D01*
X201930000Y-65874900D02*
X201930000Y-66679500D01*
X201930000Y-76068500D02*
X201930000Y-76873100D01*
X201930000Y-76873100D02*
X195834000Y-76873100D01*
X203588099Y-66679500D02*
X201930000Y-66679500D01*
X203588099Y-66679500D02*
X203588099Y-76068500D01*
X203588099Y-76068500D02*
X201930000Y-76068500D01*
%TD*%
M02*
