%TF.GenerationSoftware,KiCad,Pcbnew,8.0.7*%
%TF.CreationDate,2025-01-10T16:13:59+05:30*%
%TF.ProjectId,STHDAQ_B0_COPY,53544844-4151-45f4-9230-5f434f50592e,rev?*%
%TF.SameCoordinates,Original*%
%TF.FileFunction,Copper,L1,Top*%
%TF.FilePolarity,Positive*%
%FSLAX46Y46*%
G04 Gerber Fmt 4.6, Leading zero omitted, Abs format (unit mm)*
G04 Created by KiCad (PCBNEW 8.0.7) date 2025-01-10 16:13:59*
%MOMM*%
%LPD*%
G01*
G04 APERTURE LIST*
G04 Aperture macros list*
%AMRoundRect*
0 Rectangle with rounded corners*
0 $1 Rounding radius*
0 $2 $3 $4 $5 $6 $7 $8 $9 X,Y pos of 4 corners*
0 Add a 4 corners polygon primitive as box body*
4,1,4,$2,$3,$4,$5,$6,$7,$8,$9,$2,$3,0*
0 Add four circle primitives for the rounded corners*
1,1,$1+$1,$2,$3*
1,1,$1+$1,$4,$5*
1,1,$1+$1,$6,$7*
1,1,$1+$1,$8,$9*
0 Add four rect primitives between the rounded corners*
20,1,$1+$1,$2,$3,$4,$5,0*
20,1,$1+$1,$4,$5,$6,$7,0*
20,1,$1+$1,$6,$7,$8,$9,0*
20,1,$1+$1,$8,$9,$2,$3,0*%
G04 Aperture macros list end*
%TA.AperFunction,SMDPad,CuDef*%
%ADD10RoundRect,0.100000X0.130000X0.100000X-0.130000X0.100000X-0.130000X-0.100000X0.130000X-0.100000X0*%
%TD*%
%TA.AperFunction,SMDPad,CuDef*%
%ADD11RoundRect,0.100000X-0.100000X0.130000X-0.100000X-0.130000X0.100000X-0.130000X0.100000X0.130000X0*%
%TD*%
%TA.AperFunction,SMDPad,CuDef*%
%ADD12RoundRect,0.100000X-0.130000X-0.100000X0.130000X-0.100000X0.130000X0.100000X-0.130000X0.100000X0*%
%TD*%
%TA.AperFunction,SMDPad,CuDef*%
%ADD13R,0.558000X1.454899*%
%TD*%
%TA.AperFunction,SMDPad,CuDef*%
%ADD14RoundRect,0.100000X0.100000X-0.130000X0.100000X0.130000X-0.100000X0.130000X-0.100000X-0.130000X0*%
%TD*%
%TA.AperFunction,SMDPad,CuDef*%
%ADD15RoundRect,0.250000X-1.150000X0.250000X-1.150000X-0.250000X1.150000X-0.250000X1.150000X0.250000X0*%
%TD*%
%TA.AperFunction,SMDPad,CuDef*%
%ADD16RoundRect,0.150000X-0.700000X0.150000X-0.700000X-0.150000X0.700000X-0.150000X0.700000X0.150000X0*%
%TD*%
%TA.AperFunction,ComponentPad*%
%ADD17C,3.600000*%
%TD*%
%TA.AperFunction,ConnectorPad*%
%ADD18C,5.500000*%
%TD*%
%TA.AperFunction,SMDPad,CuDef*%
%ADD19O,1.450000X0.599999*%
%TD*%
%TA.AperFunction,SMDPad,CuDef*%
%ADD20R,2.100000X5.600000*%
%TD*%
%TA.AperFunction,SMDPad,CuDef*%
%ADD21RoundRect,0.150000X0.700000X-0.150000X0.700000X0.150000X-0.700000X0.150000X-0.700000X-0.150000X0*%
%TD*%
%TA.AperFunction,SMDPad,CuDef*%
%ADD22RoundRect,0.250000X1.150000X-0.250000X1.150000X0.250000X-1.150000X0.250000X-1.150000X-0.250000X0*%
%TD*%
%TA.AperFunction,SMDPad,CuDef*%
%ADD23R,0.946899X0.508000*%
%TD*%
%TA.AperFunction,SMDPad,CuDef*%
%ADD24O,0.599999X1.450000*%
%TD*%
%TA.AperFunction,SMDPad,CuDef*%
%ADD25R,1.639799X0.431000*%
%TD*%
%TA.AperFunction,ViaPad*%
%ADD26C,0.600000*%
%TD*%
%TA.AperFunction,Conductor*%
%ADD27C,0.200000*%
%TD*%
G04 APERTURE END LIST*
D10*
%TO.P,C13,1*%
%TO.N,Earth*%
X204993200Y-73881998D03*
%TO.P,C13,2*%
%TO.N,/XTAL2*%
X204353200Y-73881998D03*
%TD*%
D11*
%TO.P,C9,1*%
%TO.N,Earth*%
X194818000Y-64577000D03*
%TO.P,C9,2*%
%TO.N,5VCC*%
X194818000Y-65217000D03*
%TD*%
%TO.P,C20,1*%
%TO.N,/S4+*%
X190119000Y-86736000D03*
%TO.P,C20,2*%
%TO.N,Earth*%
X190119000Y-87376000D03*
%TD*%
D12*
%TO.P,C6,1*%
%TO.N,Earth*%
X192974000Y-69215000D03*
%TO.P,C6,2*%
%TO.N,REF2.5*%
X193614000Y-69215000D03*
%TD*%
D13*
%TO.P,U4,1,DNC*%
%TO.N,unconnected-(U4-DNC-Pad1)*%
X202184000Y-82368652D03*
%TO.P,U4,2,VIN*%
%TO.N,5VCC*%
X200914000Y-82368652D03*
%TO.P,U4,3,TEMP*%
%TO.N,unconnected-(U4-TEMP-Pad3)*%
X199644000Y-82368652D03*
%TO.P,U4,4,GND*%
%TO.N,Earth*%
X198374000Y-82368652D03*
%TO.P,U4,5,TRIM/NR*%
%TO.N,Net-(U4-TRIM{slash}NR)*%
X198374000Y-87811348D03*
%TO.P,U4,6,VOUT*%
%TO.N,Net-(U4-VOUT)*%
X199644000Y-87811348D03*
%TO.P,U4,7,NC*%
%TO.N,unconnected-(U4-NC-Pad7)*%
X200914000Y-87811348D03*
%TO.P,U4,8,DNC*%
%TO.N,unconnected-(U4-DNC-Pad8)*%
X202184000Y-87811348D03*
%TD*%
D12*
%TO.P,C3,1*%
%TO.N,Earth*%
X198979000Y-80772000D03*
%TO.P,C3,2*%
%TO.N,5VCC*%
X199619000Y-80772000D03*
%TD*%
D14*
%TO.P,R2,1*%
%TO.N,Net-(R2-Pad1)*%
X193802000Y-94300000D03*
%TO.P,R2,2*%
%TO.N,Net-(R2-Pad2)*%
X193802000Y-93660000D03*
%TD*%
%TO.P,R11,1*%
%TO.N,Net-(R11-Pad1)*%
X204216000Y-94300000D03*
%TO.P,R11,2*%
%TO.N,Net-(R11-Pad2)*%
X204216000Y-93660000D03*
%TD*%
D15*
%TO.P,J2,MP*%
%TO.N,N/C*%
X211105457Y-80881000D03*
X211105457Y-65931000D03*
D16*
%TO.P,J2,10,10*%
%TO.N,5VCC*%
X207755457Y-79031000D03*
%TO.P,J2,9,9*%
%TO.N,Earth*%
X207755457Y-77781000D03*
%TO.P,J2,8,8*%
%TO.N,unconnected-(J2-Pad8)*%
X207755457Y-76531000D03*
%TO.P,J2,7,7*%
%TO.N,/SYNC{slash}PDWN*%
X207755457Y-75281000D03*
%TO.P,J2,6,6*%
%TO.N,/RESET*%
X207755457Y-74031000D03*
%TO.P,J2,5,5*%
%TO.N,/CS*%
X207755457Y-72781000D03*
%TO.P,J2,4,4*%
%TO.N,/DRDY*%
X207755457Y-71531000D03*
%TO.P,J2,3,3*%
%TO.N,/DOUT*%
X207755457Y-70281000D03*
%TO.P,J2,2,2*%
%TO.N,/DIN*%
X207755457Y-69031000D03*
%TO.P,J2,1,1*%
%TO.N,/SCLK*%
X207755457Y-67781000D03*
%TD*%
D17*
%TO.P,H3,1*%
%TO.N,N/C*%
X210761000Y-60457000D03*
D18*
X210761000Y-60457000D03*
%TD*%
D10*
%TO.P,C12,1*%
%TO.N,Earth*%
X204993200Y-72865998D03*
%TO.P,C12,2*%
%TO.N,/XTAL1*%
X204353200Y-72865998D03*
%TD*%
D19*
%TO.P,U5,1,-IN*%
%TO.N,/S1-*%
X195349418Y-91948000D03*
%TO.P,U5,2,RG*%
%TO.N,Net-(R2-Pad2)*%
X195349418Y-93218000D03*
%TO.P,U5,3,RG*%
%TO.N,Net-(R2-Pad1)*%
X195349418Y-94488000D03*
%TO.P,U5,4,+IN*%
%TO.N,/S1+*%
X195349418Y-95758000D03*
%TO.P,U5,5,-VS*%
%TO.N,Earth*%
X200799417Y-95758000D03*
%TO.P,U5,6,REF*%
%TO.N,AIN1*%
X200799417Y-94488000D03*
%TO.P,U5,7,OUT*%
%TO.N,AIN0*%
X200799417Y-93218000D03*
%TO.P,U5,8,+VS*%
%TO.N,5VCC*%
X200799417Y-91948000D03*
%TD*%
%TO.P,U7,1,-IN*%
%TO.N,/S3-*%
X205681999Y-86106000D03*
%TO.P,U7,2,RG*%
%TO.N,Net-(R12-Pad2)*%
X205681999Y-87376000D03*
%TO.P,U7,3,RG*%
%TO.N,Net-(R12-Pad1)*%
X205681999Y-88646000D03*
%TO.P,U7,4,+IN*%
%TO.N,/S3+*%
X205681999Y-89916000D03*
%TO.P,U7,5,-VS*%
%TO.N,Earth*%
X211131998Y-89916000D03*
%TO.P,U7,6,REF*%
%TO.N,AIN5*%
X211131998Y-88646000D03*
%TO.P,U7,7,OUT*%
%TO.N,AIN4*%
X211131998Y-87376000D03*
%TO.P,U7,8,+VS*%
%TO.N,5VCC*%
X211131998Y-86106000D03*
%TD*%
D14*
%TO.P,C11,1*%
%TO.N,Earth*%
X204216000Y-76078000D03*
%TO.P,C11,2*%
%TO.N,REF3.3*%
X204216000Y-75438000D03*
%TD*%
%TO.P,R8,1*%
%TO.N,Net-(J1-Pad6)*%
X188722000Y-88876000D03*
%TO.P,R8,2*%
%TO.N,/S3-*%
X188722000Y-88236000D03*
%TD*%
D11*
%TO.P,C4,1*%
%TO.N,Earth*%
X197231000Y-87818000D03*
%TO.P,C4,2*%
%TO.N,Net-(U4-TRIM{slash}NR)*%
X197231000Y-88458000D03*
%TD*%
D14*
%TO.P,R6,1*%
%TO.N,Net-(J1-Pad4)*%
X188722000Y-91985000D03*
%TO.P,R6,2*%
%TO.N,/S2-*%
X188722000Y-91345000D03*
%TD*%
D11*
%TO.P,C19,1*%
%TO.N,/S3-*%
X190119000Y-88260000D03*
%TO.P,C19,2*%
%TO.N,Earth*%
X190119000Y-88900000D03*
%TD*%
D18*
%TO.P,H4,1*%
%TO.N,N/C*%
X183261000Y-100457000D03*
D17*
X183261000Y-100457000D03*
%TD*%
D14*
%TO.P,R3,1*%
%TO.N,Net-(J1-Pad1)*%
X188722000Y-96623000D03*
%TO.P,R3,2*%
%TO.N,/S1+*%
X188722000Y-95983000D03*
%TD*%
D11*
%TO.P,C21,1*%
%TO.N,/S4-*%
X190119000Y-85212000D03*
%TO.P,C21,2*%
%TO.N,Earth*%
X190119000Y-85852000D03*
%TD*%
D14*
%TO.P,C1,1*%
%TO.N,Earth*%
X199136000Y-64836000D03*
%TO.P,C1,2*%
%TO.N,5VCC*%
X199136000Y-64196000D03*
%TD*%
D20*
%TO.P,Y1,1*%
%TO.N,/XTAL2*%
X189484000Y-75616000D03*
%TO.P,Y1,2*%
%TO.N,/XTAL1*%
X189484000Y-66116000D03*
%TD*%
D11*
%TO.P,C14,1*%
%TO.N,/S1+*%
X190119000Y-96007000D03*
%TO.P,C14,2*%
%TO.N,Earth*%
X190119000Y-96647000D03*
%TD*%
D19*
%TO.P,U6,1,-IN*%
%TO.N,/S2-*%
X205681999Y-92075000D03*
%TO.P,U6,2,RG*%
%TO.N,Net-(R11-Pad2)*%
X205681999Y-93345000D03*
%TO.P,U6,3,RG*%
%TO.N,Net-(R11-Pad1)*%
X205681999Y-94615000D03*
%TO.P,U6,4,+IN*%
%TO.N,/S2+*%
X205681999Y-95885000D03*
%TO.P,U6,5,-VS*%
%TO.N,Earth*%
X211131998Y-95885000D03*
%TO.P,U6,6,REF*%
%TO.N,AIN3*%
X211131998Y-94615000D03*
%TO.P,U6,7,OUT*%
%TO.N,AIN2*%
X211131998Y-93345000D03*
%TO.P,U6,8,+VS*%
%TO.N,5VCC*%
X211131998Y-92075000D03*
%TD*%
D17*
%TO.P,H1,1*%
%TO.N,N/C*%
X210761000Y-100457000D03*
D18*
X210761000Y-100457000D03*
%TD*%
D14*
%TO.P,C10,1*%
%TO.N,Earth*%
X205232000Y-76078000D03*
%TO.P,C10,2*%
%TO.N,REF3.3*%
X205232000Y-75438000D03*
%TD*%
D17*
%TO.P,H2,1*%
%TO.N,N/C*%
X183261000Y-60457000D03*
D18*
X183261000Y-60457000D03*
%TD*%
D10*
%TO.P,R1,1*%
%TO.N,Net-(U4-VOUT)*%
X198694000Y-89535000D03*
%TO.P,R1,2*%
%TO.N,Net-(U3-IN+)*%
X198054000Y-89535000D03*
%TD*%
D21*
%TO.P,J1,1,1*%
%TO.N,Net-(J1-Pad1)*%
X186323000Y-93763000D03*
%TO.P,J1,2,2*%
%TO.N,Net-(J1-Pad2)*%
X186323000Y-92513000D03*
%TO.P,J1,3,3*%
%TO.N,Net-(J1-Pad3)*%
X186323000Y-91263000D03*
%TO.P,J1,4,4*%
%TO.N,Net-(J1-Pad4)*%
X186323000Y-90013000D03*
%TO.P,J1,5,5*%
%TO.N,Net-(J1-Pad5)*%
X186323000Y-88763000D03*
%TO.P,J1,6,6*%
%TO.N,Net-(J1-Pad6)*%
X186323000Y-87513000D03*
%TO.P,J1,7,7*%
%TO.N,Net-(J1-Pad7)*%
X186323000Y-86263000D03*
%TO.P,J1,8,8*%
%TO.N,Net-(J1-Pad8)*%
X186323000Y-85013000D03*
%TO.P,J1,9,9*%
%TO.N,Earth*%
X186323000Y-83763000D03*
%TO.P,J1,10,10*%
%TO.N,5VCC*%
X186323000Y-82513000D03*
D22*
%TO.P,J1,MP*%
%TO.N,N/C*%
X182973000Y-95613000D03*
X182973000Y-80663000D03*
%TD*%
D14*
%TO.P,R7,1*%
%TO.N,Net-(J1-Pad5)*%
X188722000Y-90396000D03*
%TO.P,R7,2*%
%TO.N,/S3+*%
X188722000Y-89756000D03*
%TD*%
%TO.P,R4,1*%
%TO.N,Net-(J1-Pad2)*%
X188722000Y-95099000D03*
%TO.P,R4,2*%
%TO.N,/S1-*%
X188722000Y-94459000D03*
%TD*%
D11*
%TO.P,C2,1*%
%TO.N,Earth*%
X204597000Y-62545000D03*
%TO.P,C2,2*%
%TO.N,REF3.3*%
X204597000Y-63185000D03*
%TD*%
D14*
%TO.P,R10,1*%
%TO.N,Net-(J1-Pad8)*%
X188726000Y-85828000D03*
%TO.P,R10,2*%
%TO.N,/S4-*%
X188726000Y-85188000D03*
%TD*%
D11*
%TO.P,C18,1*%
%TO.N,/S3+*%
X190119000Y-89784000D03*
%TO.P,C18,2*%
%TO.N,Earth*%
X190119000Y-90424000D03*
%TD*%
D14*
%TO.P,R9,1*%
%TO.N,Net-(J1-Pad7)*%
X188721000Y-87339000D03*
%TO.P,R9,2*%
%TO.N,/S4+*%
X188721000Y-86699000D03*
%TD*%
%TO.P,R5,1*%
%TO.N,Net-(J1-Pad3)*%
X188722000Y-93505000D03*
%TO.P,R5,2*%
%TO.N,/S2+*%
X188722000Y-92865000D03*
%TD*%
D10*
%TO.P,R13,1*%
%TO.N,Net-(R13-Pad1)*%
X184745000Y-77978000D03*
%TO.P,R13,2*%
%TO.N,Net-(R13-Pad2)*%
X184105000Y-77978000D03*
%TD*%
D12*
%TO.P,C5,1*%
%TO.N,Earth*%
X192720000Y-80772000D03*
%TO.P,C5,2*%
%TO.N,Net-(U3-IN+)*%
X193360000Y-80772000D03*
%TD*%
D11*
%TO.P,C17,1*%
%TO.N,/S2-*%
X190119000Y-91369000D03*
%TO.P,C17,2*%
%TO.N,Earth*%
X190119000Y-92009000D03*
%TD*%
%TO.P,C16,1*%
%TO.N,/S2+*%
X190116000Y-92893000D03*
%TO.P,C16,2*%
%TO.N,Earth*%
X190116000Y-93533000D03*
%TD*%
%TO.P,C15,1*%
%TO.N,/S1-*%
X190119000Y-94483000D03*
%TO.P,C15,2*%
%TO.N,Earth*%
X190119000Y-95123000D03*
%TD*%
D12*
%TO.P,C7,1*%
%TO.N,Earth*%
X193180000Y-89500000D03*
%TO.P,C7,2*%
%TO.N,5VCC*%
X193820000Y-89500000D03*
%TD*%
D23*
%TO.P,U2,1,VIN*%
%TO.N,5VCC*%
X200656449Y-62422999D03*
%TO.P,U2,2,GND*%
%TO.N,Earth*%
X200656449Y-63373000D03*
%TO.P,U2,3,EN*%
%TO.N,5VCC*%
X200656449Y-64323001D03*
%TO.P,U2,4,NC*%
%TO.N,unconnected-(U2-NC-Pad4)*%
X203203551Y-64323001D03*
%TO.P,U2,5,VOUT*%
%TO.N,REF3.3*%
X203203551Y-62422999D03*
%TD*%
D14*
%TO.P,R12,1*%
%TO.N,Net-(R12-Pad1)*%
X203962000Y-88331000D03*
%TO.P,R12,2*%
%TO.N,Net-(R12-Pad2)*%
X203962000Y-87691000D03*
%TD*%
D11*
%TO.P,C8,1*%
%TO.N,Earth*%
X193421000Y-65085000D03*
%TO.P,C8,2*%
%TO.N,5VCC*%
X193421000Y-65725000D03*
%TD*%
D24*
%TO.P,U8,1,-IN*%
%TO.N,/S4-*%
X181991000Y-76131001D03*
%TO.P,U8,2,RG*%
%TO.N,Net-(R13-Pad2)*%
X183261000Y-76131001D03*
%TO.P,U8,3,RG*%
%TO.N,Net-(R13-Pad1)*%
X184531000Y-76131001D03*
%TO.P,U8,4,+IN*%
%TO.N,/S4+*%
X185801000Y-76131001D03*
%TO.P,U8,5,-VS*%
%TO.N,Earth*%
X185801000Y-70681002D03*
%TO.P,U8,6,REF*%
%TO.N,AIN7*%
X184531000Y-70681002D03*
%TO.P,U8,7,OUT*%
%TO.N,AIN6*%
X183261000Y-70681002D03*
%TO.P,U8,8,+VS*%
%TO.N,5VCC*%
X181991000Y-70681002D03*
%TD*%
D13*
%TO.P,U3,1,NC*%
%TO.N,unconnected-(U3-NC-Pad1)*%
X195961000Y-82241652D03*
%TO.P,U3,2,IN-*%
%TO.N,REF2.5*%
X194691000Y-82241652D03*
%TO.P,U3,3,IN+*%
%TO.N,Net-(U3-IN+)*%
X193421000Y-82241652D03*
%TO.P,U3,4,V-*%
%TO.N,Earth*%
X192151000Y-82241652D03*
%TO.P,U3,5,NC*%
%TO.N,unconnected-(U3-NC-Pad5)*%
X192151000Y-87684348D03*
%TO.P,U3,6,OUTPUT*%
%TO.N,REF2.5*%
X193421000Y-87684348D03*
%TO.P,U3,7,V+*%
%TO.N,5VCC*%
X194691000Y-87684348D03*
%TO.P,U3,8,NC*%
%TO.N,unconnected-(U3-NC-Pad8)*%
X195961000Y-87684348D03*
%TD*%
D25*
%TO.P,U1,1,AVDD*%
%TO.N,5VCC*%
X195249800Y-67149000D03*
%TO.P,U1,2,AGND*%
%TO.N,Earth*%
X195249800Y-67799001D03*
%TO.P,U1,3,VREFN*%
X195249800Y-68449000D03*
%TO.P,U1,4,VREFP*%
%TO.N,REF2.5*%
X195249800Y-69099001D03*
%TO.P,U1,5,AINCOM*%
%TO.N,Earth*%
X195249800Y-69748999D03*
%TO.P,U1,6,AIN0*%
%TO.N,AIN0*%
X195249800Y-70399001D03*
%TO.P,U1,7,AIN1*%
%TO.N,AIN1*%
X195249800Y-71048999D03*
%TO.P,U1,8,AIN2*%
%TO.N,AIN2*%
X195249800Y-71698998D03*
%TO.P,U1,9,AIN3*%
%TO.N,AIN3*%
X195249800Y-72348999D03*
%TO.P,U1,10,AIN4*%
%TO.N,AIN4*%
X195249800Y-72998998D03*
%TO.P,U1,11,AIN5*%
%TO.N,AIN5*%
X195249800Y-73648999D03*
%TO.P,U1,12,AIN6*%
%TO.N,AIN6*%
X195249800Y-74298998D03*
%TO.P,U1,13,AIN7*%
%TO.N,AIN7*%
X195249800Y-74948999D03*
%TO.P,U1,14,\u002ASYNC/\u002APDWN*%
%TO.N,/SYNC{slash}PDWN*%
X195249800Y-75598998D03*
%TO.P,U1,15,\u002ARESET*%
%TO.N,/RESET*%
X202514200Y-75599000D03*
%TO.P,U1,16,DVDD*%
%TO.N,REF3.3*%
X202514200Y-74948999D03*
%TO.P,U1,17,DGND*%
%TO.N,Earth*%
X202514200Y-74299000D03*
%TO.P,U1,18,XTAL2*%
%TO.N,/XTAL2*%
X202514200Y-73648999D03*
%TO.P,U1,19,XTAL1/CLKIN*%
%TO.N,/XTAL1*%
X202514200Y-72999001D03*
%TO.P,U1,20,\u002ACS*%
%TO.N,/CS*%
X202514200Y-72348999D03*
%TO.P,U1,21,\u002ADRDY*%
%TO.N,/DRDY*%
X202514200Y-71699001D03*
%TO.P,U1,22,DOUT*%
%TO.N,/DOUT*%
X202514200Y-71048999D03*
%TO.P,U1,23,DIN*%
%TO.N,/DIN*%
X202514200Y-70399001D03*
%TO.P,U1,24,SCLK*%
%TO.N,/SCLK*%
X202514200Y-69748999D03*
%TO.P,U1,25,D0/CLKOUT*%
%TO.N,unconnected-(U1-D0{slash}CLKOUT-Pad25)*%
X202514200Y-69099001D03*
%TO.P,U1,26,D1*%
%TO.N,unconnected-(U1-D1-Pad26)*%
X202514200Y-68449000D03*
%TO.P,U1,27,D2*%
%TO.N,unconnected-(U1-D2-Pad27)*%
X202514200Y-67799001D03*
%TO.P,U1,28,D3*%
%TO.N,unconnected-(U1-D3-Pad28)*%
X202514200Y-67149000D03*
%TD*%
D26*
%TO.N,REF3.3*%
X203873731Y-69153731D03*
X203749763Y-74148999D03*
%TO.N,Earth*%
X193410000Y-64900000D03*
X194840000Y-64450000D03*
%TO.N,/SYNC{slash}PDWN*%
X206363418Y-76209855D03*
X197040000Y-76050000D03*
%TO.N,Earth*%
X207645000Y-77724000D03*
%TO.N,AIN7*%
X195249800Y-74948999D03*
X193380921Y-73788077D03*
%TO.N,/S4+*%
X185928000Y-77724000D03*
X188468000Y-84074000D03*
X188214000Y-86360000D03*
X189103000Y-83058000D03*
%TO.N,/S4-*%
X189167557Y-83755020D03*
X182118000Y-77724000D03*
%TO.N,Earth*%
X211328000Y-90043000D03*
X192940000Y-89490000D03*
X204993200Y-73881998D03*
X200660000Y-63373000D03*
X189992000Y-87437000D03*
X205083199Y-72843758D03*
X190119000Y-95123000D03*
X190119000Y-96774000D03*
X190246000Y-88961000D03*
X198791000Y-80772000D03*
X204216000Y-76078000D03*
X185801000Y-70681002D03*
X202819000Y-74295000D03*
X205232000Y-76078000D03*
X192623000Y-80772000D03*
X199136000Y-65024000D03*
X204535999Y-62448000D03*
X190119000Y-90612000D03*
X197231000Y-87818000D03*
X189971316Y-92264520D03*
X211074000Y-96012000D03*
X198374000Y-81915000D03*
X190119000Y-93660000D03*
X192974000Y-69215000D03*
X190246000Y-86040000D03*
X186309000Y-83820000D03*
X200660000Y-95764846D03*
X192151000Y-82241652D03*
%TO.N,REF2.5*%
X194100000Y-86270000D03*
X195340000Y-83330000D03*
%TO.N,/XTAL1*%
X193093695Y-68188197D03*
X200779000Y-71950000D03*
%TO.N,/XTAL2*%
X199016764Y-78470980D03*
X199451430Y-76310000D03*
X191200000Y-77000000D03*
X201306100Y-73987057D03*
%TO.N,/S2+*%
X204200000Y-95900000D03*
X192016446Y-93983000D03*
%TO.N,/S2-*%
X204538999Y-90678000D03*
X199136000Y-90678000D03*
X201803000Y-90435000D03*
X190815252Y-90684366D03*
%TO.N,/S3+*%
X190119000Y-89784000D03*
X205359000Y-90043000D03*
X198694243Y-90134999D03*
X201295000Y-89935000D03*
%TO.N,/S3-*%
X191960000Y-86556897D03*
X199517000Y-86614000D03*
X197080000Y-86700000D03*
X203835000Y-86106000D03*
%TO.N,AIN2*%
X207972000Y-84709000D03*
X198779000Y-73161759D03*
X211131998Y-93345000D03*
X196539998Y-71698998D03*
%TO.N,AIN0*%
X198752696Y-76260000D03*
X197343795Y-70880205D03*
X196365884Y-83348776D03*
X200799417Y-93218000D03*
%TO.N,AIN4*%
X196816446Y-73083554D03*
X210693000Y-87376000D03*
X198752696Y-75317304D03*
X207316002Y-83431000D03*
X209551553Y-84328000D03*
X200057257Y-77892471D03*
%TO.N,AIN1*%
X196994632Y-78654632D03*
X200799417Y-94488000D03*
%TO.N,AIN3*%
X211131998Y-94615000D03*
X197360000Y-77560000D03*
%TO.N,AIN5*%
X207606382Y-82794067D03*
X200900000Y-76760000D03*
X209677000Y-88646000D03*
X196514946Y-73905054D03*
%TD*%
D27*
%TO.N,/SYNC{slash}PDWN*%
X196588998Y-75598998D02*
X195249800Y-75598998D01*
X197040000Y-76050000D02*
X196588998Y-75598998D01*
%TO.N,AIN3*%
X197540000Y-73100000D02*
X196790000Y-72350000D01*
X197360000Y-77560000D02*
X197540000Y-77380000D01*
X197540000Y-77380000D02*
X197540000Y-73100000D01*
X196790000Y-72350000D02*
X196170000Y-72350000D01*
X196168999Y-72348999D02*
X195249800Y-72348999D01*
X196170000Y-72350000D02*
X196168999Y-72348999D01*
%TO.N,REF2.5*%
X195340000Y-82890652D02*
X194691000Y-82241652D01*
X195340000Y-83330000D02*
X195340000Y-82890652D01*
%TO.N,Net-(U3-IN+)*%
X196723000Y-88646000D02*
X196723000Y-87113000D01*
X196723000Y-87113000D02*
X193421000Y-83811000D01*
X197612000Y-89535000D02*
X196723000Y-88646000D01*
X198054000Y-89535000D02*
X197612000Y-89535000D01*
X193421000Y-83811000D02*
X193421000Y-82241652D01*
%TO.N,REF2.5*%
X194100000Y-86270000D02*
X193421000Y-86949000D01*
X193421000Y-86949000D02*
X193421000Y-87684348D01*
%TO.N,AIN5*%
X206281331Y-82794067D02*
X207606382Y-82794067D01*
X200900000Y-76760000D02*
X200900000Y-77412736D01*
X200900000Y-77412736D02*
X206281331Y-82794067D01*
%TO.N,AIN2*%
X198779000Y-74429000D02*
X200400000Y-76050000D01*
X200400000Y-77337000D02*
X207772000Y-84709000D01*
X207772000Y-84709000D02*
X207972000Y-84709000D01*
X198779000Y-73161759D02*
X198779000Y-74429000D01*
X200400000Y-76050000D02*
X200400000Y-77337000D01*
%TO.N,AIN4*%
X199237304Y-75317304D02*
X198752696Y-75317304D01*
X200057257Y-77892471D02*
X200057257Y-76137257D01*
X200057257Y-76137257D02*
X199237304Y-75317304D01*
%TO.N,AIN0*%
X196596000Y-83118660D02*
X196365884Y-83348776D01*
X196596000Y-80184635D02*
X196596000Y-83118660D01*
X198752696Y-78027939D02*
X196596000Y-80184635D01*
X198752696Y-76260000D02*
X198752696Y-78027939D01*
%TO.N,/XTAL2*%
X199451430Y-78036314D02*
X199016764Y-78470980D01*
X199451430Y-76310000D02*
X199451430Y-78036314D01*
%TO.N,/SYNC{slash}PDWN*%
X207160371Y-75281000D02*
X207755457Y-75281000D01*
X206363418Y-76077953D02*
X207160371Y-75281000D01*
X206363418Y-76209855D02*
X206363418Y-76077953D01*
%TO.N,REF3.3*%
X204597000Y-68430462D02*
X204597000Y-63185000D01*
X203873731Y-69153731D02*
X204597000Y-68430462D01*
X203670000Y-74228762D02*
X203749763Y-74148999D01*
X203670000Y-74948999D02*
X203670000Y-74228762D01*
X203670000Y-74948999D02*
X203726999Y-74948999D01*
X202514200Y-74948999D02*
X203670000Y-74948999D01*
%TO.N,/XTAL1*%
X200779000Y-72049198D02*
X201728803Y-72999001D01*
X200779000Y-71950000D02*
X200779000Y-72049198D01*
X201728803Y-72999001D02*
X202514200Y-72999001D01*
%TO.N,/XTAL2*%
X201390744Y-73987057D02*
X201728802Y-73648999D01*
X201728802Y-73648999D02*
X202514200Y-73648999D01*
X201306100Y-73987057D02*
X201390744Y-73987057D01*
%TO.N,AIN4*%
X196731890Y-72998998D02*
X195249800Y-72998998D01*
X196816446Y-73083554D02*
X196731890Y-72998998D01*
%TO.N,AIN2*%
X196539998Y-71698998D02*
X195249800Y-71698998D01*
%TO.N,/XTAL1*%
X193093695Y-68188197D02*
X191021498Y-66116000D01*
X191021498Y-66116000D02*
X189484000Y-66116000D01*
%TO.N,/S2+*%
X190926446Y-92893000D02*
X190116000Y-92893000D01*
X192016446Y-93983000D02*
X190926446Y-92893000D01*
%TO.N,/S1-*%
X192327000Y-94483000D02*
X190119000Y-94483000D01*
X193402000Y-93402964D02*
X193402000Y-93408000D01*
X194856964Y-91948000D02*
X193402000Y-93402964D01*
X195349418Y-91948000D02*
X194856964Y-91948000D01*
X193402000Y-93408000D02*
X192327000Y-94483000D01*
%TO.N,AIN1*%
X197952696Y-72349696D02*
X196651999Y-71048999D01*
X196651999Y-71048999D02*
X195249800Y-71048999D01*
X197952696Y-77696568D02*
X197952696Y-72349696D01*
X196994632Y-78654632D02*
X197952696Y-77696568D01*
%TO.N,AIN7*%
X185699998Y-71850000D02*
X184531000Y-70681002D01*
X191442844Y-71850000D02*
X185699998Y-71850000D01*
X193380921Y-73788077D02*
X191442844Y-71850000D01*
%TO.N,AIN6*%
X193184734Y-74298998D02*
X195249800Y-74298998D01*
X184869998Y-72290000D02*
X191175736Y-72290000D01*
X183261000Y-70681002D02*
X184869998Y-72290000D01*
X191175736Y-72290000D02*
X193184734Y-74298998D01*
%TO.N,AIN5*%
X196258891Y-73648999D02*
X195249800Y-73648999D01*
X196514946Y-73905054D02*
X196258891Y-73648999D01*
%TO.N,REF2.5*%
X196269699Y-69099001D02*
X195249800Y-69099001D01*
X198252696Y-71081998D02*
X196269699Y-69099001D01*
X198252696Y-78103675D02*
X198252696Y-71081998D01*
X194691000Y-81665371D02*
X198252696Y-78103675D01*
X194691000Y-82241652D02*
X194691000Y-81665371D01*
%TO.N,/S3-*%
X197080000Y-86700000D02*
X199431000Y-86700000D01*
X199431000Y-86700000D02*
X199517000Y-86614000D01*
%TO.N,/S4-*%
X189540000Y-84127463D02*
X189540000Y-85188000D01*
X189167557Y-83755020D02*
X189540000Y-84127463D01*
X190072000Y-85212000D02*
X190119000Y-85212000D01*
%TO.N,/XTAL2*%
X190868000Y-77000000D02*
X189484000Y-75616000D01*
X191200000Y-77000000D02*
X190868000Y-77000000D01*
%TO.N,/S2+*%
X205666999Y-95900000D02*
X205681999Y-95885000D01*
X204200000Y-95900000D02*
X205666999Y-95900000D01*
%TO.N,Net-(R11-Pad1)*%
X205366999Y-94300000D02*
X205681999Y-94615000D01*
X204216000Y-94300000D02*
X205366999Y-94300000D01*
%TO.N,Net-(R11-Pad2)*%
X205366999Y-93660000D02*
X205681999Y-93345000D01*
X204216000Y-93660000D02*
X205366999Y-93660000D01*
%TO.N,Net-(R2-Pad1)*%
X193990000Y-94488000D02*
X193802000Y-94300000D01*
X195349418Y-94488000D02*
X193990000Y-94488000D01*
%TO.N,Net-(R2-Pad2)*%
X195349418Y-93218000D02*
X194244000Y-93218000D01*
X194244000Y-93218000D02*
X193802000Y-93660000D01*
%TO.N,Net-(J1-Pad2)*%
X188322000Y-93961000D02*
X186874000Y-92513000D01*
X188704964Y-95099000D02*
X188322000Y-94716036D01*
X188322000Y-94716036D02*
X188322000Y-93961000D01*
X188722000Y-95099000D02*
X188704964Y-95099000D01*
X186874000Y-92513000D02*
X186323000Y-92513000D01*
%TO.N,Net-(J1-Pad3)*%
X187021000Y-91263000D02*
X186323000Y-91263000D01*
X187787000Y-92029000D02*
X187021000Y-91263000D01*
X187787000Y-92594870D02*
X187787000Y-92029000D01*
X188697130Y-93505000D02*
X187787000Y-92594870D01*
X188722000Y-93505000D02*
X188697130Y-93505000D01*
%TO.N,Net-(J1-Pad4)*%
X187172999Y-90013000D02*
X186323000Y-90013000D01*
X188087000Y-90927001D02*
X187172999Y-90013000D01*
X188087000Y-91985000D02*
X188087000Y-90927001D01*
X188722000Y-91985000D02*
X188087000Y-91985000D01*
%TO.N,Net-(J1-Pad5)*%
X187071964Y-88763000D02*
X186323000Y-88763000D01*
X188704964Y-90396000D02*
X187071964Y-88763000D01*
X188722000Y-90396000D02*
X188704964Y-90396000D01*
%TO.N,Net-(J1-Pad6)*%
X186585000Y-87513000D02*
X186323000Y-87513000D01*
X187948000Y-88876000D02*
X186585000Y-87513000D01*
X188722000Y-88876000D02*
X187948000Y-88876000D01*
%TO.N,Net-(J1-Pad7)*%
X187498130Y-87339000D02*
X186422130Y-86263000D01*
X186422130Y-86263000D02*
X186323000Y-86263000D01*
X188721000Y-87339000D02*
X187498130Y-87339000D01*
%TO.N,Net-(J1-Pad8)*%
X187711001Y-85013000D02*
X186323000Y-85013000D01*
X188726000Y-85828000D02*
X188526001Y-85828000D01*
X188526001Y-85828000D02*
X187711001Y-85013000D01*
%TO.N,Net-(J1-Pad1)*%
X188548000Y-96623000D02*
X188722000Y-96623000D01*
X186323000Y-94398000D02*
X188548000Y-96623000D01*
X186323000Y-93763000D02*
X186323000Y-94398000D01*
%TO.N,/SCLK*%
X205953570Y-67781000D02*
X207755457Y-67781000D01*
X203985571Y-69748999D02*
X205953570Y-67781000D01*
X202514200Y-69748999D02*
X203985571Y-69748999D01*
%TO.N,/DIN*%
X205127834Y-69031000D02*
X207755457Y-69031000D01*
X203759833Y-70399001D02*
X205127834Y-69031000D01*
X202514200Y-70399001D02*
X203759833Y-70399001D01*
%TO.N,/DOUT*%
X203534099Y-71048999D02*
X204302098Y-70281000D01*
X204302098Y-70281000D02*
X207755457Y-70281000D01*
X202514200Y-71048999D02*
X203534099Y-71048999D01*
%TO.N,/DRDY*%
X207587456Y-71699001D02*
X207755457Y-71531000D01*
X202514200Y-71699001D02*
X207587456Y-71699001D01*
%TO.N,/CS*%
X207318215Y-72343758D02*
X207755457Y-72781000D01*
X202519441Y-72343758D02*
X207318215Y-72343758D01*
X202514200Y-72348999D02*
X202519441Y-72343758D01*
%TO.N,/XTAL1*%
X204220197Y-72999001D02*
X204353200Y-72865998D01*
X202514200Y-72999001D02*
X204220197Y-72999001D01*
%TO.N,/RESET*%
X206905458Y-74031000D02*
X207755457Y-74031000D01*
X205867000Y-76150107D02*
X205867000Y-75069458D01*
X205867000Y-75069458D02*
X206905458Y-74031000D01*
%TO.N,AIN4*%
X207316002Y-83431000D02*
X208654553Y-83431000D01*
X208654553Y-83431000D02*
X209551553Y-84328000D01*
%TO.N,/S4+*%
X185928000Y-76258001D02*
X185801000Y-76131001D01*
X185928000Y-77724000D02*
X185928000Y-76258001D01*
X188468000Y-83693000D02*
X189103000Y-83058000D01*
X188468000Y-84074000D02*
X188468000Y-83693000D01*
X188553000Y-86699000D02*
X188214000Y-86360000D01*
X188721000Y-86699000D02*
X188553000Y-86699000D01*
%TO.N,/S4-*%
X182118000Y-76258001D02*
X181991000Y-76131001D01*
X182118000Y-77724000D02*
X182118000Y-76258001D01*
%TO.N,Net-(R13-Pad2)*%
X184105000Y-76975001D02*
X183261000Y-76131001D01*
X184105000Y-77978000D02*
X184105000Y-76975001D01*
%TO.N,Net-(R13-Pad1)*%
X184745000Y-77978000D02*
X184745000Y-76345001D01*
X184745000Y-76345001D02*
X184531000Y-76131001D01*
%TO.N,Earth*%
X194818000Y-64577000D02*
X194757000Y-64516000D01*
X192974000Y-69015001D02*
X192974000Y-69215000D01*
X192974000Y-69414999D02*
X192974000Y-69215000D01*
X193308000Y-69748999D02*
X192974000Y-69414999D01*
X195249800Y-68449000D02*
X193540001Y-68449000D01*
X193540001Y-68449000D02*
X192974000Y-69015001D01*
X195249800Y-67799001D02*
X195249800Y-68449000D01*
X195249800Y-69748999D02*
X193308000Y-69748999D01*
%TO.N,REF3.3*%
X203203551Y-62422999D02*
X203965552Y-63185000D01*
X203726999Y-74948999D02*
X204216000Y-75438000D01*
X205232000Y-75438000D02*
X204216000Y-75438000D01*
X203965552Y-63185000D02*
X204597000Y-63185000D01*
%TO.N,Net-(U4-TRIM{slash}NR)*%
X197727348Y-88458000D02*
X198374000Y-87811348D01*
X197231000Y-88458000D02*
X197727348Y-88458000D01*
%TO.N,Net-(U3-IN+)*%
X193421000Y-82241652D02*
X193421000Y-80833000D01*
X193421000Y-80833000D02*
X193360000Y-80772000D01*
%TO.N,REF2.5*%
X193614000Y-69215000D02*
X195133801Y-69215000D01*
X195133801Y-69215000D02*
X195249800Y-69099001D01*
%TO.N,/XTAL1*%
X189838000Y-66470000D02*
X189484000Y-66116000D01*
%TO.N,/XTAL2*%
X204120201Y-73648999D02*
X202514200Y-73648999D01*
X204353200Y-73881998D02*
X204120201Y-73648999D01*
%TO.N,/S1+*%
X190095000Y-95983000D02*
X190119000Y-96007000D01*
X188722000Y-95983000D02*
X190095000Y-95983000D01*
X195349418Y-95758000D02*
X190368000Y-95758000D01*
X190368000Y-95758000D02*
X190119000Y-96007000D01*
%TO.N,/S1-*%
X188722000Y-94459000D02*
X190095000Y-94459000D01*
X190095000Y-94459000D02*
X190119000Y-94483000D01*
%TO.N,/S2+*%
X190088000Y-92865000D02*
X190116000Y-92893000D01*
X188722000Y-92865000D02*
X190088000Y-92865000D01*
%TO.N,/S2-*%
X205681999Y-91821000D02*
X205681999Y-92075000D01*
X199136000Y-90678000D02*
X201560000Y-90678000D01*
X188722000Y-91345000D02*
X190095000Y-91345000D01*
X190810000Y-90678000D02*
X190810000Y-90679114D01*
X190095000Y-91345000D02*
X190119000Y-91369000D01*
X190810000Y-90679114D02*
X190815252Y-90684366D01*
X201560000Y-90678000D02*
X201803000Y-90435000D01*
X204538999Y-90678000D02*
X205681999Y-91821000D01*
X190119000Y-91369000D02*
X190810000Y-90678000D01*
%TO.N,/S3+*%
X201095001Y-90134999D02*
X198694243Y-90134999D01*
X190091000Y-89756000D02*
X190119000Y-89784000D01*
X188722000Y-89756000D02*
X190091000Y-89756000D01*
X205662999Y-89935000D02*
X205681999Y-89916000D01*
X201295000Y-89935000D02*
X201095001Y-90134999D01*
%TO.N,/S3-*%
X203835000Y-86106000D02*
X205681999Y-86106000D01*
X190095000Y-88236000D02*
X190119000Y-88260000D01*
X188722000Y-88236000D02*
X190095000Y-88236000D01*
%TO.N,/S4+*%
X188721000Y-86699000D02*
X190082000Y-86699000D01*
X190082000Y-86699000D02*
X190119000Y-86736000D01*
%TO.N,/S4-*%
X190095000Y-85188000D02*
X190119000Y-85212000D01*
X188726000Y-85188000D02*
X190095000Y-85188000D01*
%TO.N,Net-(J1-Pad8)*%
X188673000Y-85775000D02*
X188726000Y-85828000D01*
%TO.N,/RESET*%
X202514200Y-75599000D02*
X203493200Y-76578000D01*
X205439107Y-76578000D02*
X205867000Y-76150107D01*
X203493200Y-76578000D02*
X205439107Y-76578000D01*
%TO.N,Net-(U4-VOUT)*%
X199644000Y-87811348D02*
X199644000Y-88585000D01*
X199644000Y-88585000D02*
X198694000Y-89535000D01*
%TO.N,Net-(R12-Pad1)*%
X203962000Y-88331000D02*
X205366999Y-88331000D01*
X205366999Y-88331000D02*
X205681999Y-88646000D01*
%TO.N,Net-(R12-Pad2)*%
X205366999Y-87691000D02*
X205681999Y-87376000D01*
X203962000Y-87691000D02*
X205366999Y-87691000D01*
%TO.N,AIN6*%
X195126798Y-74422000D02*
X195249800Y-74298998D01*
%TO.N,AIN0*%
X196862591Y-70399001D02*
X195249800Y-70399001D01*
X197343795Y-70880205D02*
X196862591Y-70399001D01*
%TO.N,AIN5*%
X209677000Y-88646000D02*
X211131998Y-88646000D01*
%TO.N,/S3-*%
X191822103Y-86556897D02*
X190119000Y-88260000D01*
X191960000Y-86556897D02*
X191822103Y-86556897D01*
%TD*%
%TA.AperFunction,Conductor*%
%TO.N,5VCC*%
G36*
X208594628Y-57820185D02*
G01*
X208640383Y-57872989D01*
X208650327Y-57942147D01*
X208621302Y-58005703D01*
X208612871Y-58014515D01*
X208521123Y-58101423D01*
X208397685Y-58218350D01*
X208169505Y-58486983D01*
X208169498Y-58486993D01*
X207971695Y-58778730D01*
X207806597Y-59090137D01*
X207806588Y-59090155D01*
X207676127Y-59417589D01*
X207676126Y-59417591D01*
X207581834Y-59757203D01*
X207581833Y-59757206D01*
X207524808Y-60105045D01*
X207505726Y-60456997D01*
X207505726Y-60457002D01*
X207524808Y-60808954D01*
X207581833Y-61156793D01*
X207581834Y-61156796D01*
X207676126Y-61496408D01*
X207676127Y-61496410D01*
X207806588Y-61823844D01*
X207806597Y-61823862D01*
X207861103Y-61926670D01*
X207971695Y-62135269D01*
X208062197Y-62268750D01*
X208169498Y-62427006D01*
X208169505Y-62427016D01*
X208380631Y-62675571D01*
X208397686Y-62695650D01*
X208653580Y-62938046D01*
X208653587Y-62938051D01*
X208653589Y-62938053D01*
X208719064Y-62987826D01*
X208934182Y-63151354D01*
X209236202Y-63333074D01*
X209236206Y-63333075D01*
X209236210Y-63333078D01*
X209556088Y-63481070D01*
X209556092Y-63481070D01*
X209556099Y-63481074D01*
X209890122Y-63593619D01*
X210234355Y-63669391D01*
X210584763Y-63707500D01*
X210584769Y-63707500D01*
X210937231Y-63707500D01*
X210937237Y-63707500D01*
X211287645Y-63669391D01*
X211631878Y-63593619D01*
X211965901Y-63481074D01*
X211965908Y-63481070D01*
X211965911Y-63481070D01*
X212285789Y-63333078D01*
X212285798Y-63333074D01*
X212587818Y-63151354D01*
X212868420Y-62938046D01*
X213124314Y-62695650D01*
X213180993Y-62628922D01*
X213239395Y-62590572D01*
X213309262Y-62589884D01*
X213368409Y-62627077D01*
X213398058Y-62690344D01*
X213399500Y-62709199D01*
X213399500Y-98204800D01*
X213379815Y-98271839D01*
X213327011Y-98317594D01*
X213257853Y-98327538D01*
X213194297Y-98298513D01*
X213180993Y-98285077D01*
X213134804Y-98230700D01*
X213124314Y-98218350D01*
X212868420Y-97975954D01*
X212868413Y-97975948D01*
X212868410Y-97975946D01*
X212587815Y-97762644D01*
X212285802Y-97580928D01*
X212285789Y-97580921D01*
X211965911Y-97432929D01*
X211965906Y-97432928D01*
X211965903Y-97432927D01*
X211965901Y-97432926D01*
X211859432Y-97397052D01*
X211631880Y-97320381D01*
X211287643Y-97244608D01*
X210937238Y-97206500D01*
X210937237Y-97206500D01*
X210584763Y-97206500D01*
X210584761Y-97206500D01*
X210234356Y-97244608D01*
X209890119Y-97320381D01*
X209556093Y-97432928D01*
X209556088Y-97432929D01*
X209236210Y-97580921D01*
X209236197Y-97580928D01*
X208934184Y-97762644D01*
X208653589Y-97975946D01*
X208653580Y-97975954D01*
X208397685Y-98218350D01*
X208169505Y-98486983D01*
X208169498Y-98486993D01*
X207971695Y-98778730D01*
X207806597Y-99090137D01*
X207806588Y-99090155D01*
X207676127Y-99417589D01*
X207676126Y-99417591D01*
X207581834Y-99757203D01*
X207581833Y-99757206D01*
X207524808Y-100105045D01*
X207505726Y-100456997D01*
X207505726Y-100457002D01*
X207524808Y-100808954D01*
X207581833Y-101156793D01*
X207581834Y-101156796D01*
X207676126Y-101496408D01*
X207676127Y-101496410D01*
X207806588Y-101823844D01*
X207806597Y-101823862D01*
X207971695Y-102135269D01*
X208169498Y-102427006D01*
X208169505Y-102427016D01*
X208397685Y-102695649D01*
X208598084Y-102885477D01*
X208633217Y-102945871D01*
X208630122Y-103015672D01*
X208589780Y-103072719D01*
X208525001Y-103098899D01*
X208512809Y-103099500D01*
X185509191Y-103099500D01*
X185442152Y-103079815D01*
X185396397Y-103027011D01*
X185386453Y-102957853D01*
X185415478Y-102894297D01*
X185423916Y-102885477D01*
X185624314Y-102695650D01*
X185852501Y-102427008D01*
X186050305Y-102135269D01*
X186215407Y-101823854D01*
X186345871Y-101496414D01*
X186440168Y-101156788D01*
X186497191Y-100808957D01*
X186516274Y-100457000D01*
X186497191Y-100105043D01*
X186440168Y-99757212D01*
X186397704Y-99604271D01*
X186345873Y-99417591D01*
X186345872Y-99417589D01*
X186215411Y-99090155D01*
X186215402Y-99090137D01*
X186050304Y-98778730D01*
X185921499Y-98588757D01*
X185852501Y-98486992D01*
X185852497Y-98486987D01*
X185852494Y-98486983D01*
X185624314Y-98218350D01*
X185610009Y-98204800D01*
X185368420Y-97975954D01*
X185368413Y-97975948D01*
X185368410Y-97975946D01*
X185087815Y-97762644D01*
X184785802Y-97580928D01*
X184785789Y-97580921D01*
X184465911Y-97432929D01*
X184465906Y-97432928D01*
X184465903Y-97432927D01*
X184465901Y-97432926D01*
X184359432Y-97397052D01*
X184131880Y-97320381D01*
X183787643Y-97244608D01*
X183437238Y-97206500D01*
X183437237Y-97206500D01*
X183084763Y-97206500D01*
X183084761Y-97206500D01*
X182734356Y-97244608D01*
X182390119Y-97320381D01*
X182056093Y-97432928D01*
X182056088Y-97432929D01*
X181736210Y-97580921D01*
X181736197Y-97580928D01*
X181434184Y-97762644D01*
X181153589Y-97975946D01*
X181153580Y-97975954D01*
X180897685Y-98218351D01*
X180819007Y-98310977D01*
X180760604Y-98349328D01*
X180690738Y-98350015D01*
X180631591Y-98312821D01*
X180601942Y-98249554D01*
X180600500Y-98230700D01*
X180600500Y-95312983D01*
X181072500Y-95312983D01*
X181072500Y-95913001D01*
X181072501Y-95913019D01*
X181083000Y-96015796D01*
X181083001Y-96015799D01*
X181104029Y-96079255D01*
X181138186Y-96182334D01*
X181230288Y-96331656D01*
X181354344Y-96455712D01*
X181503666Y-96547814D01*
X181670203Y-96602999D01*
X181772991Y-96613500D01*
X184173008Y-96613499D01*
X184275797Y-96602999D01*
X184442334Y-96547814D01*
X184591656Y-96455712D01*
X184715712Y-96331656D01*
X184807814Y-96182334D01*
X184862999Y-96015797D01*
X184873500Y-95913009D01*
X184873499Y-95312992D01*
X184862999Y-95210203D01*
X184807814Y-95043666D01*
X184715712Y-94894344D01*
X184591656Y-94770288D01*
X184498888Y-94713069D01*
X184442336Y-94678187D01*
X184442331Y-94678185D01*
X184406039Y-94666159D01*
X184275797Y-94623001D01*
X184275795Y-94623000D01*
X184173010Y-94612500D01*
X181772998Y-94612500D01*
X181772981Y-94612501D01*
X181670203Y-94623000D01*
X181670200Y-94623001D01*
X181503668Y-94678185D01*
X181503663Y-94678187D01*
X181354342Y-94770289D01*
X181230289Y-94894342D01*
X181138187Y-95043663D01*
X181138185Y-95043668D01*
X181123329Y-95088500D01*
X181083001Y-95210203D01*
X181083001Y-95210204D01*
X181083000Y-95210204D01*
X181072500Y-95312983D01*
X180600500Y-95312983D01*
X180600500Y-80362983D01*
X181072500Y-80362983D01*
X181072500Y-80963001D01*
X181072501Y-80963019D01*
X181083000Y-81065796D01*
X181083001Y-81065799D01*
X181121181Y-81181016D01*
X181138186Y-81232334D01*
X181230288Y-81381656D01*
X181354344Y-81505712D01*
X181503666Y-81597814D01*
X181670203Y-81652999D01*
X181772991Y-81663500D01*
X184173008Y-81663499D01*
X184275797Y-81652999D01*
X184442334Y-81597814D01*
X184591656Y-81505712D01*
X184715712Y-81381656D01*
X184807814Y-81232334D01*
X184862999Y-81065797D01*
X184873500Y-80963009D01*
X184873499Y-80362992D01*
X184862999Y-80260203D01*
X184807814Y-80093666D01*
X184715712Y-79944344D01*
X184591656Y-79820288D01*
X184442334Y-79728186D01*
X184275797Y-79673001D01*
X184275795Y-79673000D01*
X184173010Y-79662500D01*
X181772998Y-79662500D01*
X181772981Y-79662501D01*
X181670203Y-79673000D01*
X181670200Y-79673001D01*
X181503668Y-79728185D01*
X181503663Y-79728187D01*
X181354342Y-79820289D01*
X181230289Y-79944342D01*
X181138187Y-80093663D01*
X181138186Y-80093666D01*
X181083001Y-80260203D01*
X181083001Y-80260204D01*
X181083000Y-80260204D01*
X181072500Y-80362983D01*
X180600500Y-80362983D01*
X180600500Y-75627153D01*
X181190501Y-75627153D01*
X181190501Y-76634848D01*
X181221262Y-76789491D01*
X181221265Y-76789503D01*
X181281603Y-76935173D01*
X181281610Y-76935186D01*
X181369210Y-77066288D01*
X181369211Y-77066289D01*
X181369212Y-77066290D01*
X181432336Y-77129414D01*
X181465820Y-77190735D01*
X181460836Y-77260427D01*
X181449648Y-77283065D01*
X181392212Y-77374474D01*
X181332631Y-77544745D01*
X181332630Y-77544750D01*
X181312435Y-77723996D01*
X181312435Y-77724003D01*
X181332630Y-77903249D01*
X181332631Y-77903254D01*
X181392211Y-78073523D01*
X181466274Y-78191393D01*
X181488184Y-78226262D01*
X181615738Y-78353816D01*
X181658745Y-78380839D01*
X181767352Y-78449082D01*
X181768478Y-78449789D01*
X181892517Y-78493192D01*
X181938745Y-78509368D01*
X181938750Y-78509369D01*
X182117996Y-78529565D01*
X182118000Y-78529565D01*
X182118004Y-78529565D01*
X182297249Y-78509369D01*
X182297252Y-78509368D01*
X182297255Y-78509368D01*
X182467522Y-78449789D01*
X182620262Y-78353816D01*
X182747816Y-78226262D01*
X182843789Y-78073522D01*
X182903368Y-77903255D01*
X182908396Y-77858634D01*
X182923565Y-77724003D01*
X182923565Y-77723996D01*
X182903369Y-77544750D01*
X182903366Y-77544737D01*
X182883423Y-77487744D01*
X182879860Y-77417966D01*
X182914589Y-77357338D01*
X182976582Y-77325110D01*
X183024655Y-77325172D01*
X183182153Y-77356500D01*
X183182156Y-77356501D01*
X183182158Y-77356501D01*
X183339840Y-77356501D01*
X183339842Y-77356501D01*
X183345260Y-77355423D01*
X183414851Y-77361649D01*
X183470029Y-77404510D01*
X183493276Y-77470399D01*
X183477210Y-77538396D01*
X183467831Y-77552525D01*
X183450464Y-77575158D01*
X183389956Y-77721237D01*
X183389955Y-77721239D01*
X183374500Y-77838638D01*
X183374500Y-78117363D01*
X183389953Y-78234753D01*
X183389956Y-78234762D01*
X183450464Y-78380841D01*
X183546718Y-78506282D01*
X183672159Y-78602536D01*
X183818238Y-78663044D01*
X183935639Y-78678500D01*
X184274360Y-78678499D01*
X184274363Y-78678499D01*
X184391755Y-78663045D01*
X184391755Y-78663044D01*
X184391762Y-78663044D01*
X184391767Y-78663041D01*
X184392900Y-78662739D01*
X184394085Y-78662738D01*
X184399821Y-78661984D01*
X184399920Y-78662738D01*
X184450080Y-78662737D01*
X184450180Y-78661983D01*
X184455907Y-78662737D01*
X184457091Y-78662737D01*
X184458234Y-78663043D01*
X184458236Y-78663043D01*
X184458238Y-78663044D01*
X184575639Y-78678500D01*
X184914360Y-78678499D01*
X184914363Y-78678499D01*
X185031753Y-78663046D01*
X185031757Y-78663044D01*
X185031762Y-78663044D01*
X185177841Y-78602536D01*
X185303282Y-78506282D01*
X185353312Y-78441081D01*
X185409739Y-78399879D01*
X185479485Y-78395724D01*
X185517659Y-78411574D01*
X185577352Y-78449082D01*
X185578478Y-78449789D01*
X185702517Y-78493192D01*
X185748745Y-78509368D01*
X185748750Y-78509369D01*
X185927996Y-78529565D01*
X185928000Y-78529565D01*
X185928004Y-78529565D01*
X186107249Y-78509369D01*
X186107252Y-78509368D01*
X186107255Y-78509368D01*
X186277522Y-78449789D01*
X186430262Y-78353816D01*
X186557816Y-78226262D01*
X186653789Y-78073522D01*
X186713368Y-77903255D01*
X186718396Y-77858634D01*
X186733565Y-77724003D01*
X186733565Y-77723996D01*
X186713369Y-77544750D01*
X186713368Y-77544745D01*
X186699369Y-77504737D01*
X186653789Y-77374478D01*
X186653786Y-77374474D01*
X186596350Y-77283065D01*
X186557816Y-77221738D01*
X186557814Y-77221736D01*
X186557813Y-77221734D01*
X186555550Y-77218896D01*
X186554659Y-77216715D01*
X186554111Y-77215842D01*
X186554264Y-77215745D01*
X186529144Y-77154209D01*
X186528500Y-77141587D01*
X186528500Y-76916130D01*
X186537939Y-76868677D01*
X186557793Y-76820745D01*
X186570736Y-76789499D01*
X186601499Y-76634844D01*
X186601499Y-75627158D01*
X186601499Y-75627155D01*
X186601498Y-75627153D01*
X186590026Y-75569478D01*
X186570736Y-75472503D01*
X186514041Y-75335628D01*
X186510396Y-75326828D01*
X186510389Y-75326815D01*
X186422788Y-75195712D01*
X186422785Y-75195708D01*
X186311291Y-75084214D01*
X186311287Y-75084211D01*
X186180184Y-74996610D01*
X186180171Y-74996603D01*
X186034501Y-74936265D01*
X186034489Y-74936262D01*
X185879845Y-74905501D01*
X185879842Y-74905501D01*
X185722158Y-74905501D01*
X185722155Y-74905501D01*
X185567510Y-74936262D01*
X185567498Y-74936265D01*
X185421828Y-74996603D01*
X185421815Y-74996610D01*
X185290712Y-75084211D01*
X185290708Y-75084214D01*
X185253681Y-75121242D01*
X185192358Y-75154727D01*
X185122666Y-75149743D01*
X185078319Y-75121242D01*
X185041291Y-75084214D01*
X185041287Y-75084211D01*
X184910184Y-74996610D01*
X184910171Y-74996603D01*
X184764501Y-74936265D01*
X184764489Y-74936262D01*
X184609845Y-74905501D01*
X184609842Y-74905501D01*
X184452158Y-74905501D01*
X184452155Y-74905501D01*
X184297510Y-74936262D01*
X184297498Y-74936265D01*
X184151828Y-74996603D01*
X184151815Y-74996610D01*
X184020712Y-75084211D01*
X184020708Y-75084214D01*
X183983681Y-75121242D01*
X183922358Y-75154727D01*
X183852666Y-75149743D01*
X183808319Y-75121242D01*
X183771291Y-75084214D01*
X183771287Y-75084211D01*
X183640184Y-74996610D01*
X183640171Y-74996603D01*
X183494501Y-74936265D01*
X183494489Y-74936262D01*
X183339845Y-74905501D01*
X183339842Y-74905501D01*
X183182158Y-74905501D01*
X183182155Y-74905501D01*
X183027510Y-74936262D01*
X183027498Y-74936265D01*
X182881828Y-74996603D01*
X182881815Y-74996610D01*
X182750712Y-75084211D01*
X182750708Y-75084214D01*
X182713681Y-75121242D01*
X182652358Y-75154727D01*
X182582666Y-75149743D01*
X182538319Y-75121242D01*
X182501291Y-75084214D01*
X182501287Y-75084211D01*
X182370184Y-74996610D01*
X182370171Y-74996603D01*
X182224501Y-74936265D01*
X182224489Y-74936262D01*
X182069845Y-74905501D01*
X182069842Y-74905501D01*
X181912158Y-74905501D01*
X181912155Y-74905501D01*
X181757510Y-74936262D01*
X181757498Y-74936265D01*
X181611828Y-74996603D01*
X181611815Y-74996610D01*
X181480712Y-75084211D01*
X181480708Y-75084214D01*
X181369214Y-75195708D01*
X181369211Y-75195712D01*
X181281610Y-75326815D01*
X181281603Y-75326828D01*
X181221265Y-75472498D01*
X181221262Y-75472510D01*
X181190501Y-75627153D01*
X180600500Y-75627153D01*
X180600500Y-70177154D01*
X182460501Y-70177154D01*
X182460501Y-71184849D01*
X182491262Y-71339492D01*
X182491265Y-71339504D01*
X182551603Y-71485174D01*
X182551610Y-71485187D01*
X182639211Y-71616290D01*
X182639214Y-71616294D01*
X182750708Y-71727788D01*
X182750712Y-71727791D01*
X182881815Y-71815392D01*
X182881828Y-71815399D01*
X183024000Y-71874288D01*
X183027503Y-71875739D01*
X183141643Y-71898443D01*
X183182153Y-71906501D01*
X183182156Y-71906502D01*
X183182158Y-71906502D01*
X183339844Y-71906502D01*
X183339845Y-71906501D01*
X183494497Y-71875739D01*
X183497148Y-71874640D01*
X183498647Y-71874479D01*
X183500324Y-71873971D01*
X183500420Y-71874288D01*
X183566615Y-71867171D01*
X183629095Y-71898443D01*
X183632281Y-71901518D01*
X184501282Y-72770520D01*
X184638213Y-72849577D01*
X184790941Y-72890501D01*
X184790944Y-72890501D01*
X184956652Y-72890501D01*
X184956668Y-72890500D01*
X187809500Y-72890500D01*
X187876539Y-72910185D01*
X187922294Y-72962989D01*
X187933500Y-73014500D01*
X187933500Y-78463870D01*
X187933501Y-78463876D01*
X187939908Y-78523483D01*
X187990202Y-78658328D01*
X187990206Y-78658335D01*
X188076452Y-78773544D01*
X188076455Y-78773547D01*
X188191664Y-78859793D01*
X188191671Y-78859797D01*
X188326517Y-78910091D01*
X188326516Y-78910091D01*
X188333444Y-78910835D01*
X188386127Y-78916500D01*
X190581872Y-78916499D01*
X190641483Y-78910091D01*
X190776331Y-78859796D01*
X190891546Y-78773546D01*
X190977796Y-78658331D01*
X191028091Y-78523483D01*
X191034500Y-78463873D01*
X191034499Y-77925672D01*
X191054183Y-77858634D01*
X191106987Y-77812879D01*
X191172383Y-77802453D01*
X191200000Y-77805565D01*
X191200003Y-77805565D01*
X191379249Y-77785369D01*
X191379252Y-77785368D01*
X191379255Y-77785368D01*
X191549522Y-77725789D01*
X191702262Y-77629816D01*
X191829816Y-77502262D01*
X191925789Y-77349522D01*
X191985368Y-77179255D01*
X191985453Y-77178500D01*
X192005565Y-77000003D01*
X192005565Y-76999996D01*
X191985369Y-76820750D01*
X191985368Y-76820745D01*
X191974436Y-76789503D01*
X191925789Y-76650478D01*
X191915965Y-76634844D01*
X191829815Y-76497737D01*
X191702262Y-76370184D01*
X191549523Y-76274211D01*
X191379254Y-76214631D01*
X191379249Y-76214630D01*
X191200004Y-76194435D01*
X191200001Y-76194435D01*
X191200000Y-76194435D01*
X191172380Y-76197546D01*
X191103559Y-76185491D01*
X191052180Y-76138141D01*
X191034499Y-76074326D01*
X191034499Y-73297360D01*
X191054184Y-73230321D01*
X191106988Y-73184566D01*
X191176146Y-73174622D01*
X191239702Y-73203647D01*
X191246180Y-73209679D01*
X192699873Y-74663372D01*
X192699883Y-74663383D01*
X192816019Y-74779519D01*
X192846783Y-74797280D01*
X192877548Y-74815042D01*
X192952949Y-74858575D01*
X193105676Y-74899498D01*
X193105677Y-74899498D01*
X193805400Y-74899498D01*
X193872439Y-74919183D01*
X193918194Y-74971987D01*
X193929400Y-75023497D01*
X193929400Y-75212368D01*
X193929401Y-75212373D01*
X193934601Y-75260741D01*
X193934601Y-75287248D01*
X193932192Y-75309651D01*
X193930347Y-75326822D01*
X193929400Y-75335628D01*
X193929400Y-75862368D01*
X193929401Y-75862374D01*
X193935808Y-75921981D01*
X193986102Y-76056826D01*
X193986106Y-76056833D01*
X194072352Y-76172042D01*
X194072355Y-76172045D01*
X194187564Y-76258291D01*
X194187571Y-76258295D01*
X194322417Y-76308589D01*
X194322416Y-76308589D01*
X194329344Y-76309333D01*
X194382027Y-76314998D01*
X196117572Y-76314997D01*
X196177183Y-76308589D01*
X196177183Y-76308588D01*
X196180772Y-76308203D01*
X196249532Y-76320610D01*
X196300668Y-76368221D01*
X196311067Y-76390536D01*
X196314212Y-76399524D01*
X196321095Y-76410478D01*
X196410184Y-76552262D01*
X196537738Y-76679816D01*
X196628080Y-76736582D01*
X196665343Y-76759996D01*
X196690478Y-76775789D01*
X196742485Y-76793987D01*
X196799261Y-76834709D01*
X196825008Y-76899662D01*
X196811552Y-76968223D01*
X196789212Y-76998710D01*
X196730183Y-77057739D01*
X196634211Y-77210476D01*
X196574631Y-77380745D01*
X196574630Y-77380750D01*
X196554435Y-77559996D01*
X196554435Y-77560003D01*
X196574630Y-77739249D01*
X196574632Y-77739257D01*
X196609057Y-77837638D01*
X196612618Y-77907417D01*
X196577889Y-77968044D01*
X196557987Y-77983586D01*
X196492369Y-78024816D01*
X196364816Y-78152369D01*
X196268843Y-78305108D01*
X196209263Y-78475377D01*
X196209262Y-78475382D01*
X196189067Y-78654628D01*
X196189067Y-78654635D01*
X196209262Y-78833881D01*
X196209265Y-78833894D01*
X196268841Y-79004153D01*
X196306580Y-79064214D01*
X196325580Y-79131451D01*
X196305212Y-79198286D01*
X196289267Y-79217866D01*
X194529751Y-80977383D01*
X194468428Y-81010868D01*
X194442072Y-81013702D01*
X194364130Y-81013702D01*
X194364123Y-81013703D01*
X194304516Y-81020110D01*
X194257435Y-81037671D01*
X194187743Y-81042655D01*
X194126420Y-81009170D01*
X194092936Y-80947846D01*
X194090520Y-80915420D01*
X194090500Y-80915420D01*
X194090499Y-80915146D01*
X194090368Y-80913375D01*
X194090498Y-80911375D01*
X194090500Y-80911361D01*
X194090499Y-80632640D01*
X194090499Y-80632636D01*
X194075046Y-80515246D01*
X194075044Y-80515241D01*
X194075044Y-80515238D01*
X194014536Y-80369159D01*
X193918282Y-80243718D01*
X193792841Y-80147464D01*
X193646762Y-80086956D01*
X193646760Y-80086955D01*
X193529361Y-80071500D01*
X193190636Y-80071500D01*
X193087891Y-80085026D01*
X193018856Y-80074260D01*
X193005740Y-80067083D01*
X192972522Y-80046211D01*
X192972520Y-80046210D01*
X192972518Y-80046209D01*
X192802262Y-79986633D01*
X192802249Y-79986630D01*
X192623004Y-79966435D01*
X192622996Y-79966435D01*
X192443750Y-79986630D01*
X192443745Y-79986631D01*
X192273476Y-80046211D01*
X192120737Y-80142184D01*
X191993184Y-80269737D01*
X191897211Y-80422476D01*
X191837631Y-80592745D01*
X191837630Y-80592750D01*
X191817435Y-80771996D01*
X191817435Y-80772003D01*
X191831286Y-80894938D01*
X191819231Y-80963760D01*
X191771882Y-81015139D01*
X191751399Y-81025003D01*
X191629671Y-81070404D01*
X191629664Y-81070408D01*
X191514455Y-81156654D01*
X191514452Y-81156657D01*
X191428206Y-81271866D01*
X191428202Y-81271873D01*
X191377908Y-81406719D01*
X191371501Y-81466318D01*
X191371500Y-81466337D01*
X191371500Y-82024558D01*
X191366260Y-82055400D01*
X191367181Y-82055611D01*
X191365630Y-82062403D01*
X191345435Y-82241648D01*
X191345435Y-82241655D01*
X191365630Y-82420900D01*
X191367181Y-82427693D01*
X191366260Y-82427903D01*
X191371500Y-82458745D01*
X191371500Y-83016972D01*
X191371501Y-83016978D01*
X191377908Y-83076585D01*
X191428202Y-83211430D01*
X191428206Y-83211437D01*
X191514452Y-83326646D01*
X191514455Y-83326649D01*
X191629664Y-83412895D01*
X191629671Y-83412899D01*
X191669109Y-83427608D01*
X191764517Y-83463193D01*
X191824127Y-83469602D01*
X192477872Y-83469601D01*
X192537483Y-83463193D01*
X192542789Y-83461214D01*
X192653167Y-83420046D01*
X192722859Y-83415062D01*
X192784182Y-83448547D01*
X192817666Y-83509871D01*
X192820500Y-83536228D01*
X192820500Y-83724330D01*
X192820499Y-83724348D01*
X192820499Y-83890054D01*
X192820498Y-83890054D01*
X192861424Y-84042789D01*
X192861425Y-84042790D01*
X192882437Y-84079183D01*
X192882438Y-84079184D01*
X192940477Y-84179712D01*
X192940481Y-84179717D01*
X193059349Y-84298585D01*
X193059355Y-84298590D01*
X194030449Y-85269684D01*
X194063934Y-85331007D01*
X194058950Y-85400699D01*
X194017078Y-85456632D01*
X193956653Y-85480585D01*
X193920749Y-85484630D01*
X193920745Y-85484631D01*
X193750476Y-85544211D01*
X193597737Y-85640184D01*
X193470184Y-85767737D01*
X193374210Y-85920478D01*
X193314630Y-86090750D01*
X193304837Y-86177668D01*
X193277770Y-86242082D01*
X193269298Y-86251465D01*
X193090108Y-86430655D01*
X193041015Y-86458036D01*
X193041784Y-86460096D01*
X192915013Y-86507378D01*
X192845321Y-86512362D01*
X192783998Y-86478877D01*
X192750514Y-86417553D01*
X192748460Y-86405079D01*
X192745369Y-86377647D01*
X192745368Y-86377642D01*
X192705770Y-86264478D01*
X192685789Y-86207375D01*
X192589816Y-86054635D01*
X192462262Y-85927081D01*
X192442446Y-85914630D01*
X192309523Y-85831108D01*
X192139254Y-85771528D01*
X192139249Y-85771527D01*
X191960004Y-85751332D01*
X191959996Y-85751332D01*
X191780750Y-85771527D01*
X191780745Y-85771528D01*
X191610476Y-85831108D01*
X191457737Y-85927081D01*
X191330182Y-86054636D01*
X191277719Y-86138131D01*
X191225384Y-86184421D01*
X191156331Y-86195069D01*
X191092483Y-86166694D01*
X191054111Y-86108304D01*
X191049506Y-86058273D01*
X191051565Y-86040000D01*
X191051565Y-86039996D01*
X191031369Y-85860750D01*
X191031368Y-85860745D01*
X191020998Y-85831108D01*
X190971789Y-85690478D01*
X190875816Y-85537738D01*
X190851098Y-85513020D01*
X190817613Y-85451697D01*
X190815840Y-85409157D01*
X190819500Y-85381361D01*
X190819499Y-85042640D01*
X190819499Y-85042636D01*
X190804046Y-84925246D01*
X190804044Y-84925241D01*
X190804044Y-84925238D01*
X190743536Y-84779159D01*
X190647282Y-84653718D01*
X190521841Y-84557464D01*
X190400611Y-84507249D01*
X190375762Y-84496956D01*
X190375760Y-84496955D01*
X190258359Y-84481499D01*
X190256384Y-84481370D01*
X190255827Y-84481166D01*
X190254337Y-84480970D01*
X190254380Y-84480636D01*
X190190777Y-84457340D01*
X190148576Y-84401654D01*
X190140500Y-84357636D01*
X190140500Y-84216522D01*
X190140501Y-84216509D01*
X190140501Y-84048408D01*
X190140501Y-84048406D01*
X190099577Y-83895678D01*
X190070639Y-83845558D01*
X190020520Y-83758747D01*
X189998257Y-83736484D01*
X189964772Y-83675161D01*
X189962720Y-83662704D01*
X189952925Y-83575765D01*
X189893346Y-83405498D01*
X189893345Y-83405495D01*
X189884106Y-83390792D01*
X189865105Y-83323555D01*
X189872057Y-83283868D01*
X189888368Y-83237255D01*
X189888369Y-83237249D01*
X189908565Y-83058003D01*
X189908565Y-83057996D01*
X189888369Y-82878750D01*
X189888368Y-82878745D01*
X189846121Y-82758011D01*
X189828789Y-82708478D01*
X189732816Y-82555738D01*
X189605262Y-82428184D01*
X189593670Y-82420900D01*
X189452523Y-82332211D01*
X189282254Y-82272631D01*
X189282249Y-82272630D01*
X189103004Y-82252435D01*
X189102996Y-82252435D01*
X188923750Y-82272630D01*
X188923745Y-82272631D01*
X188753476Y-82332211D01*
X188600737Y-82428184D01*
X188473184Y-82555737D01*
X188377210Y-82708478D01*
X188317630Y-82878750D01*
X188307837Y-82965668D01*
X188280770Y-83030082D01*
X188272298Y-83039465D01*
X188099286Y-83212478D01*
X187987481Y-83324282D01*
X187987479Y-83324285D01*
X187940593Y-83405496D01*
X187940592Y-83405497D01*
X187908423Y-83461214D01*
X187908422Y-83461215D01*
X187902402Y-83483682D01*
X187866035Y-83543341D01*
X187803187Y-83573868D01*
X187733811Y-83565571D01*
X187679935Y-83521083D01*
X187663552Y-83486179D01*
X187640112Y-83405498D01*
X187624744Y-83352602D01*
X187541081Y-83211135D01*
X187541079Y-83211133D01*
X187541076Y-83211129D01*
X187424870Y-83094923D01*
X187424862Y-83094917D01*
X187293073Y-83016978D01*
X187283398Y-83011256D01*
X187283397Y-83011255D01*
X187283396Y-83011255D01*
X187283393Y-83011254D01*
X187125573Y-82965402D01*
X187125567Y-82965401D01*
X187088701Y-82962500D01*
X187088694Y-82962500D01*
X185557306Y-82962500D01*
X185557298Y-82962500D01*
X185520432Y-82965401D01*
X185520426Y-82965402D01*
X185362606Y-83011254D01*
X185362603Y-83011255D01*
X185221137Y-83094917D01*
X185221129Y-83094923D01*
X185104923Y-83211129D01*
X185104917Y-83211137D01*
X185021255Y-83352603D01*
X185021254Y-83352606D01*
X184975402Y-83510426D01*
X184975401Y-83510432D01*
X184972500Y-83547298D01*
X184972500Y-83978701D01*
X184975401Y-84015567D01*
X184975402Y-84015573D01*
X185021254Y-84173393D01*
X185021255Y-84173396D01*
X185021256Y-84173398D01*
X185024993Y-84179717D01*
X185108890Y-84321580D01*
X185106919Y-84322745D01*
X185128232Y-84377058D01*
X185114540Y-84445573D01*
X185108864Y-84454404D01*
X185108890Y-84454420D01*
X185021255Y-84602603D01*
X185021254Y-84602606D01*
X184975402Y-84760426D01*
X184975401Y-84760432D01*
X184972500Y-84797298D01*
X184972500Y-85228701D01*
X184975401Y-85265567D01*
X184975402Y-85265573D01*
X185021254Y-85423393D01*
X185021255Y-85423396D01*
X185021256Y-85423398D01*
X185045525Y-85464435D01*
X185108890Y-85571580D01*
X185106919Y-85572745D01*
X185128232Y-85627058D01*
X185114540Y-85695573D01*
X185108864Y-85704404D01*
X185108890Y-85704420D01*
X185021255Y-85852603D01*
X185021254Y-85852606D01*
X184975402Y-86010426D01*
X184975401Y-86010432D01*
X184972500Y-86047298D01*
X184972500Y-86478701D01*
X184975401Y-86515567D01*
X184975402Y-86515573D01*
X185021254Y-86673393D01*
X185021255Y-86673396D01*
X185108890Y-86821580D01*
X185106919Y-86822745D01*
X185128232Y-86877058D01*
X185114540Y-86945573D01*
X185108864Y-86954404D01*
X185108890Y-86954420D01*
X185021255Y-87102603D01*
X185021254Y-87102606D01*
X184975402Y-87260426D01*
X184975401Y-87260432D01*
X184972500Y-87297298D01*
X184972500Y-87728701D01*
X184975401Y-87765567D01*
X184975402Y-87765573D01*
X185021254Y-87923393D01*
X185021255Y-87923396D01*
X185108890Y-88071580D01*
X185106919Y-88072745D01*
X185128232Y-88127058D01*
X185114540Y-88195573D01*
X185108864Y-88204404D01*
X185108890Y-88204420D01*
X185021255Y-88352603D01*
X185021254Y-88352606D01*
X184975402Y-88510426D01*
X184975401Y-88510432D01*
X184972500Y-88547298D01*
X184972500Y-88978701D01*
X184975401Y-89015567D01*
X184975402Y-89015573D01*
X185021254Y-89173393D01*
X185021255Y-89173396D01*
X185108890Y-89321580D01*
X185106919Y-89322745D01*
X185128232Y-89377058D01*
X185114540Y-89445573D01*
X185108864Y-89454404D01*
X185108890Y-89454420D01*
X185021255Y-89602603D01*
X185021254Y-89602606D01*
X184975402Y-89760426D01*
X184975401Y-89760432D01*
X184972500Y-89797298D01*
X184972500Y-90228701D01*
X184975401Y-90265567D01*
X184975402Y-90265573D01*
X185021254Y-90423393D01*
X185021255Y-90423396D01*
X185021256Y-90423398D01*
X185028119Y-90435003D01*
X185108890Y-90571580D01*
X185106919Y-90572745D01*
X185128232Y-90627058D01*
X185114540Y-90695573D01*
X185108864Y-90704404D01*
X185108890Y-90704420D01*
X185021255Y-90852603D01*
X185021254Y-90852606D01*
X184975402Y-91010426D01*
X184975401Y-91010432D01*
X184972500Y-91047298D01*
X184972500Y-91478701D01*
X184975401Y-91515567D01*
X184975402Y-91515573D01*
X185021254Y-91673393D01*
X185021255Y-91673396D01*
X185021256Y-91673398D01*
X185048761Y-91719906D01*
X185108890Y-91821580D01*
X185106919Y-91822745D01*
X185128232Y-91877058D01*
X185114540Y-91945573D01*
X185108864Y-91954404D01*
X185108890Y-91954420D01*
X185021255Y-92102603D01*
X185021254Y-92102606D01*
X184975402Y-92260426D01*
X184975401Y-92260432D01*
X184972500Y-92297298D01*
X184972500Y-92728701D01*
X184975401Y-92765567D01*
X184975402Y-92765573D01*
X185021254Y-92923393D01*
X185021255Y-92923396D01*
X185108890Y-93071580D01*
X185106919Y-93072745D01*
X185128232Y-93127058D01*
X185114540Y-93195573D01*
X185108864Y-93204404D01*
X185108890Y-93204420D01*
X185021255Y-93352603D01*
X185021254Y-93352606D01*
X184975402Y-93510426D01*
X184975401Y-93510432D01*
X184972500Y-93547298D01*
X184972500Y-93978701D01*
X184975401Y-94015567D01*
X184975402Y-94015573D01*
X185021254Y-94173393D01*
X185021255Y-94173396D01*
X185104917Y-94314862D01*
X185104923Y-94314870D01*
X185221129Y-94431076D01*
X185221133Y-94431079D01*
X185221135Y-94431081D01*
X185362602Y-94514744D01*
X185404224Y-94526836D01*
X185520426Y-94560597D01*
X185520429Y-94560597D01*
X185520431Y-94560598D01*
X185557306Y-94563500D01*
X185653562Y-94563500D01*
X185720601Y-94583185D01*
X185760949Y-94625500D01*
X185784421Y-94666155D01*
X185784423Y-94666158D01*
X185784424Y-94666159D01*
X185842479Y-94766714D01*
X185842481Y-94766717D01*
X185961349Y-94885585D01*
X185961355Y-94885590D01*
X188055879Y-96980114D01*
X188082759Y-97020341D01*
X188097463Y-97055840D01*
X188097464Y-97055841D01*
X188190664Y-97177303D01*
X188193718Y-97181282D01*
X188319159Y-97277536D01*
X188465238Y-97338044D01*
X188582639Y-97353500D01*
X188861360Y-97353499D01*
X188861363Y-97353499D01*
X188978753Y-97338046D01*
X188978757Y-97338044D01*
X188978762Y-97338044D01*
X189124841Y-97277536D01*
X189250282Y-97181282D01*
X189250291Y-97181269D01*
X189250389Y-97181173D01*
X189250505Y-97181109D01*
X189256729Y-97176334D01*
X189257473Y-97177303D01*
X189311710Y-97147683D01*
X189381402Y-97152662D01*
X189437339Y-97194528D01*
X189443070Y-97202872D01*
X189489184Y-97276262D01*
X189616738Y-97403816D01*
X189769478Y-97499789D01*
X189939745Y-97559368D01*
X189939750Y-97559369D01*
X190118996Y-97579565D01*
X190119000Y-97579565D01*
X190119004Y-97579565D01*
X190298249Y-97559369D01*
X190298252Y-97559368D01*
X190298255Y-97559368D01*
X190468522Y-97499789D01*
X190621262Y-97403816D01*
X190748816Y-97276262D01*
X190844789Y-97123522D01*
X190904368Y-96953255D01*
X190904369Y-96953249D01*
X190924565Y-96774003D01*
X190924565Y-96773996D01*
X190904369Y-96594750D01*
X190904367Y-96594742D01*
X190879423Y-96523454D01*
X190875862Y-96453675D01*
X190910591Y-96393048D01*
X190972585Y-96360821D01*
X190996465Y-96358500D01*
X194344654Y-96358500D01*
X194411693Y-96378185D01*
X194413545Y-96379398D01*
X194545232Y-96467389D01*
X194545245Y-96467396D01*
X194680582Y-96523454D01*
X194690920Y-96527736D01*
X194845570Y-96558498D01*
X194845573Y-96558499D01*
X194845575Y-96558499D01*
X195853263Y-96558499D01*
X195853264Y-96558498D01*
X196007916Y-96527736D01*
X196153597Y-96467393D01*
X196284707Y-96379788D01*
X196396207Y-96268288D01*
X196483812Y-96137178D01*
X196544155Y-95991497D01*
X196574918Y-95836842D01*
X196574918Y-95679158D01*
X196574918Y-95679155D01*
X196574917Y-95679153D01*
X196569416Y-95651498D01*
X196544155Y-95524503D01*
X196536414Y-95505815D01*
X196483815Y-95378828D01*
X196483808Y-95378815D01*
X196396207Y-95247712D01*
X196396204Y-95247708D01*
X196359177Y-95210682D01*
X196325691Y-95149360D01*
X196330675Y-95079668D01*
X196359177Y-95035318D01*
X196396204Y-94998291D01*
X196396207Y-94998288D01*
X196483812Y-94867178D01*
X196487497Y-94858283D01*
X196497484Y-94834170D01*
X196544155Y-94721497D01*
X196574918Y-94566842D01*
X196574918Y-94409158D01*
X196574918Y-94409155D01*
X196574917Y-94409153D01*
X196544156Y-94254510D01*
X196544155Y-94254503D01*
X196525612Y-94209735D01*
X196483815Y-94108828D01*
X196483808Y-94108815D01*
X196396207Y-93977712D01*
X196396204Y-93977708D01*
X196359177Y-93940682D01*
X196325691Y-93879360D01*
X196330675Y-93809668D01*
X196359177Y-93765318D01*
X196396204Y-93728291D01*
X196396207Y-93728288D01*
X196483812Y-93597178D01*
X196544155Y-93451497D01*
X196574918Y-93296842D01*
X196574918Y-93139158D01*
X196574918Y-93139155D01*
X196574917Y-93139153D01*
X199573917Y-93139153D01*
X199573917Y-93296846D01*
X199604678Y-93451489D01*
X199604681Y-93451501D01*
X199665019Y-93597171D01*
X199665026Y-93597184D01*
X199752627Y-93728287D01*
X199752630Y-93728291D01*
X199789658Y-93765319D01*
X199823143Y-93826642D01*
X199818159Y-93896334D01*
X199789658Y-93940681D01*
X199752630Y-93977708D01*
X199752627Y-93977712D01*
X199665026Y-94108815D01*
X199665019Y-94108828D01*
X199604681Y-94254498D01*
X199604678Y-94254510D01*
X199573917Y-94409153D01*
X199573917Y-94566846D01*
X199604678Y-94721489D01*
X199604681Y-94721501D01*
X199665019Y-94867171D01*
X199665026Y-94867184D01*
X199752627Y-94998287D01*
X199752630Y-94998291D01*
X199789658Y-95035319D01*
X199823143Y-95096642D01*
X199818159Y-95166334D01*
X199789658Y-95210681D01*
X199752630Y-95247708D01*
X199752627Y-95247712D01*
X199665026Y-95378815D01*
X199665019Y-95378828D01*
X199604681Y-95524498D01*
X199604678Y-95524510D01*
X199573917Y-95679153D01*
X199573917Y-95836846D01*
X199604678Y-95991489D01*
X199604681Y-95991501D01*
X199665019Y-96137171D01*
X199665026Y-96137184D01*
X199752627Y-96268287D01*
X199752630Y-96268291D01*
X199864124Y-96379785D01*
X199864128Y-96379788D01*
X199995231Y-96467389D01*
X199995244Y-96467396D01*
X200130581Y-96523454D01*
X200140919Y-96527736D01*
X200295569Y-96558498D01*
X200295572Y-96558499D01*
X200295574Y-96558499D01*
X200547317Y-96558499D01*
X200561198Y-96559278D01*
X200598976Y-96563535D01*
X200659998Y-96570411D01*
X200660000Y-96570411D01*
X200660002Y-96570411D01*
X200721023Y-96563535D01*
X200758801Y-96559278D01*
X200772683Y-96558499D01*
X201303262Y-96558499D01*
X201303263Y-96558498D01*
X201457915Y-96527736D01*
X201603596Y-96467393D01*
X201734706Y-96379788D01*
X201846206Y-96268288D01*
X201933811Y-96137178D01*
X201994154Y-95991497D01*
X202024917Y-95836842D01*
X202024917Y-95679158D01*
X202024917Y-95679155D01*
X202024916Y-95679153D01*
X202019415Y-95651498D01*
X201994154Y-95524503D01*
X201986413Y-95505815D01*
X201933814Y-95378828D01*
X201933807Y-95378815D01*
X201846206Y-95247712D01*
X201846203Y-95247708D01*
X201809176Y-95210682D01*
X201775690Y-95149360D01*
X201780674Y-95079668D01*
X201809176Y-95035318D01*
X201846203Y-94998291D01*
X201846206Y-94998288D01*
X201933811Y-94867178D01*
X201937496Y-94858283D01*
X201947483Y-94834170D01*
X201994154Y-94721497D01*
X202024917Y-94566842D01*
X202024917Y-94409158D01*
X202024917Y-94409155D01*
X202024916Y-94409153D01*
X201994155Y-94254510D01*
X201994154Y-94254503D01*
X201975611Y-94209735D01*
X201933814Y-94108828D01*
X201933807Y-94108815D01*
X201846206Y-93977712D01*
X201846203Y-93977708D01*
X201809176Y-93940682D01*
X201775690Y-93879360D01*
X201780674Y-93809668D01*
X201809176Y-93765318D01*
X201846203Y-93728291D01*
X201846206Y-93728288D01*
X201933811Y-93597178D01*
X201994154Y-93451497D01*
X202024917Y-93296842D01*
X202024917Y-93139158D01*
X202024917Y-93139155D01*
X202024916Y-93139153D01*
X202017470Y-93101718D01*
X201994154Y-92984503D01*
X201986413Y-92965815D01*
X201933814Y-92838828D01*
X201933807Y-92838815D01*
X201846206Y-92707712D01*
X201846203Y-92707708D01*
X201734709Y-92596214D01*
X201734705Y-92596211D01*
X201603602Y-92508610D01*
X201603589Y-92508603D01*
X201457919Y-92448265D01*
X201457907Y-92448262D01*
X201303263Y-92417501D01*
X201303260Y-92417501D01*
X200851341Y-92417501D01*
X200837457Y-92416721D01*
X200799419Y-92412435D01*
X200799415Y-92412435D01*
X200761377Y-92416721D01*
X200747493Y-92417501D01*
X200295571Y-92417501D01*
X200140926Y-92448262D01*
X200140914Y-92448265D01*
X199995244Y-92508603D01*
X199995231Y-92508610D01*
X199864128Y-92596211D01*
X199864124Y-92596214D01*
X199752630Y-92707708D01*
X199752627Y-92707712D01*
X199665026Y-92838815D01*
X199665019Y-92838828D01*
X199604681Y-92984498D01*
X199604678Y-92984510D01*
X199573917Y-93139153D01*
X196574917Y-93139153D01*
X196567471Y-93101718D01*
X196544155Y-92984503D01*
X196536414Y-92965815D01*
X196483815Y-92838828D01*
X196483808Y-92838815D01*
X196396207Y-92707712D01*
X196396204Y-92707708D01*
X196359177Y-92670682D01*
X196325691Y-92609360D01*
X196330675Y-92539668D01*
X196359177Y-92495318D01*
X196396204Y-92458291D01*
X196396207Y-92458288D01*
X196483812Y-92327178D01*
X196544155Y-92181497D01*
X196574918Y-92026842D01*
X196574918Y-91869158D01*
X196574918Y-91869155D01*
X196574917Y-91869153D01*
X196558306Y-91785645D01*
X196544155Y-91714503D01*
X196536420Y-91695828D01*
X196483815Y-91568828D01*
X196483808Y-91568815D01*
X196396207Y-91437712D01*
X196396204Y-91437708D01*
X196284710Y-91326214D01*
X196284706Y-91326211D01*
X196153603Y-91238610D01*
X196153590Y-91238603D01*
X196007920Y-91178265D01*
X196007908Y-91178262D01*
X195853264Y-91147501D01*
X195853261Y-91147501D01*
X194845575Y-91147501D01*
X194845572Y-91147501D01*
X194690927Y-91178262D01*
X194690915Y-91178265D01*
X194545245Y-91238603D01*
X194545232Y-91238610D01*
X194414129Y-91326211D01*
X194414125Y-91326214D01*
X194302631Y-91437708D01*
X194302628Y-91437712D01*
X194215027Y-91568815D01*
X194215020Y-91568828D01*
X194154682Y-91714498D01*
X194154679Y-91714508D01*
X194140529Y-91785645D01*
X194108144Y-91847556D01*
X194106593Y-91849134D01*
X193543293Y-92412435D01*
X193033286Y-92922442D01*
X193033284Y-92922444D01*
X192989913Y-92965815D01*
X192921480Y-93034247D01*
X192916532Y-93040696D01*
X192916267Y-93040492D01*
X192903056Y-93057706D01*
X192643209Y-93317554D01*
X192581886Y-93351039D01*
X192512195Y-93346055D01*
X192489559Y-93334868D01*
X192380207Y-93266158D01*
X192365967Y-93257210D01*
X192195695Y-93197630D01*
X192108776Y-93187837D01*
X192044362Y-93160770D01*
X192034979Y-93152298D01*
X191414036Y-92531355D01*
X191414034Y-92531352D01*
X191295163Y-92412481D01*
X191295162Y-92412480D01*
X191193379Y-92353716D01*
X191158231Y-92333423D01*
X191005503Y-92292499D01*
X190943500Y-92292499D01*
X190876461Y-92272814D01*
X190830706Y-92220010D01*
X190819500Y-92168499D01*
X190819499Y-91839636D01*
X190804045Y-91722244D01*
X190804044Y-91722242D01*
X190804044Y-91722238D01*
X190804042Y-91722233D01*
X190803738Y-91721096D01*
X190803737Y-91719906D01*
X190802984Y-91714179D01*
X190803737Y-91714079D01*
X190803737Y-91663919D01*
X190802983Y-91663820D01*
X190803737Y-91658092D01*
X190803737Y-91656905D01*
X190804040Y-91655771D01*
X190804044Y-91655762D01*
X190813374Y-91584888D01*
X190841640Y-91520994D01*
X190899964Y-91482522D01*
X190922431Y-91477855D01*
X190994501Y-91469735D01*
X190994504Y-91469734D01*
X190994507Y-91469734D01*
X191164774Y-91410155D01*
X191317514Y-91314182D01*
X191445068Y-91186628D01*
X191541041Y-91033888D01*
X191600620Y-90863621D01*
X191600621Y-90863615D01*
X191620817Y-90684369D01*
X191620817Y-90684362D01*
X191600621Y-90505116D01*
X191600620Y-90505111D01*
X191572027Y-90423396D01*
X191541041Y-90334844D01*
X191528103Y-90314254D01*
X191474342Y-90228694D01*
X191445068Y-90182104D01*
X191317514Y-90054550D01*
X191275707Y-90028281D01*
X191164775Y-89958577D01*
X191007610Y-89903583D01*
X190950834Y-89862861D01*
X190925087Y-89797908D01*
X190924565Y-89786541D01*
X190924565Y-89783996D01*
X190904369Y-89604748D01*
X190903619Y-89602606D01*
X190882079Y-89541047D01*
X190878517Y-89471268D01*
X190894125Y-89434122D01*
X190971789Y-89310522D01*
X191031368Y-89140255D01*
X191032587Y-89129435D01*
X191051565Y-88961003D01*
X191051565Y-88960996D01*
X191031369Y-88781750D01*
X191031368Y-88781745D01*
X190971788Y-88611475D01*
X190926015Y-88538629D01*
X190887399Y-88477172D01*
X190868399Y-88409938D01*
X190888766Y-88343103D01*
X190904707Y-88323526D01*
X191159821Y-88068412D01*
X191221142Y-88034929D01*
X191290834Y-88039913D01*
X191346767Y-88081785D01*
X191371184Y-88147249D01*
X191371500Y-88156095D01*
X191371500Y-88459667D01*
X191371501Y-88459674D01*
X191377908Y-88519281D01*
X191428202Y-88654126D01*
X191428206Y-88654133D01*
X191514452Y-88769342D01*
X191514455Y-88769345D01*
X191629664Y-88855591D01*
X191629671Y-88855595D01*
X191674618Y-88872359D01*
X191764517Y-88905889D01*
X191824127Y-88912298D01*
X192133225Y-88912297D01*
X192200263Y-88931981D01*
X192246018Y-88984785D01*
X192255962Y-89053944D01*
X192238219Y-89102267D01*
X192214211Y-89140475D01*
X192154631Y-89310745D01*
X192154630Y-89310750D01*
X192134435Y-89489996D01*
X192134435Y-89490003D01*
X192154630Y-89669249D01*
X192154631Y-89669254D01*
X192214211Y-89839523D01*
X192285018Y-89952211D01*
X192310184Y-89992262D01*
X192437738Y-90119816D01*
X192590478Y-90215789D01*
X192760739Y-90275366D01*
X192760745Y-90275368D01*
X192760750Y-90275369D01*
X192939996Y-90295565D01*
X192940000Y-90295565D01*
X192940004Y-90295565D01*
X193119249Y-90275369D01*
X193119251Y-90275368D01*
X193119255Y-90275368D01*
X193119258Y-90275366D01*
X193119262Y-90275366D01*
X193175334Y-90255745D01*
X193289522Y-90215789D01*
X193289531Y-90215782D01*
X193295774Y-90212778D01*
X193345354Y-90201461D01*
X193345309Y-90200765D01*
X193349359Y-90200499D01*
X193349360Y-90200499D01*
X193365680Y-90198350D01*
X193466753Y-90185046D01*
X193466757Y-90185044D01*
X193466762Y-90185044D01*
X193612841Y-90124536D01*
X193738282Y-90028282D01*
X193834536Y-89902841D01*
X193895044Y-89756762D01*
X193910500Y-89639361D01*
X193910499Y-89360640D01*
X193910499Y-89360636D01*
X193895046Y-89243246D01*
X193895044Y-89243241D01*
X193895044Y-89243238D01*
X193834536Y-89097159D01*
X193834535Y-89097158D01*
X193834535Y-89097157D01*
X193816507Y-89073663D01*
X193791312Y-89008494D01*
X193805350Y-88940049D01*
X193854163Y-88890059D01*
X193871549Y-88881994D01*
X193942328Y-88855595D01*
X193942327Y-88855595D01*
X193942331Y-88855594D01*
X194057546Y-88769344D01*
X194143796Y-88654129D01*
X194194091Y-88519281D01*
X194200500Y-88459671D01*
X194200499Y-87170907D01*
X194220184Y-87103869D01*
X194272987Y-87058114D01*
X194283528Y-87053872D01*
X194449522Y-86995789D01*
X194602262Y-86899816D01*
X194729816Y-86772262D01*
X194825789Y-86619522D01*
X194885368Y-86449255D01*
X194885368Y-86449253D01*
X194885370Y-86449247D01*
X194889414Y-86413349D01*
X194916480Y-86348934D01*
X194974074Y-86309379D01*
X195043911Y-86307240D01*
X195100315Y-86339550D01*
X195263745Y-86502980D01*
X195297230Y-86564303D01*
X195292246Y-86633995D01*
X195275331Y-86664972D01*
X195238203Y-86714567D01*
X195238202Y-86714569D01*
X195187908Y-86849415D01*
X195181501Y-86909014D01*
X195181500Y-86909033D01*
X195181500Y-88459668D01*
X195181501Y-88459674D01*
X195187908Y-88519281D01*
X195238202Y-88654126D01*
X195238206Y-88654133D01*
X195324452Y-88769342D01*
X195324455Y-88769345D01*
X195439664Y-88855591D01*
X195439671Y-88855595D01*
X195484618Y-88872359D01*
X195574517Y-88905889D01*
X195634127Y-88912298D01*
X196111757Y-88912297D01*
X196178796Y-88931981D01*
X196219144Y-88974298D01*
X196242475Y-89014709D01*
X196242481Y-89014717D01*
X196361349Y-89133585D01*
X196361355Y-89133590D01*
X197127139Y-89899374D01*
X197127149Y-89899385D01*
X197131479Y-89903715D01*
X197131480Y-89903716D01*
X197243284Y-90015520D01*
X197243286Y-90015521D01*
X197243287Y-90015522D01*
X197310884Y-90054548D01*
X197310886Y-90054550D01*
X197310887Y-90054550D01*
X197380215Y-90094577D01*
X197532943Y-90135501D01*
X197547744Y-90135501D01*
X197614783Y-90155186D01*
X197620102Y-90158925D01*
X197621157Y-90159534D01*
X197621159Y-90159536D01*
X197621160Y-90159536D01*
X197621163Y-90159538D01*
X197660274Y-90175738D01*
X197767238Y-90220044D01*
X197805579Y-90225091D01*
X197869475Y-90253356D01*
X197905547Y-90308041D01*
X197906576Y-90307682D01*
X197908874Y-90314251D01*
X197908875Y-90314254D01*
X197916079Y-90334842D01*
X197968453Y-90484520D01*
X198023157Y-90571580D01*
X198064427Y-90637261D01*
X198191981Y-90764815D01*
X198223346Y-90784523D01*
X198317143Y-90843460D01*
X198363434Y-90895795D01*
X198368212Y-90907499D01*
X198410209Y-91027519D01*
X198410211Y-91027522D01*
X198506184Y-91180262D01*
X198633738Y-91307816D01*
X198786478Y-91403789D01*
X198927718Y-91453211D01*
X198956745Y-91463368D01*
X198956750Y-91463369D01*
X199135996Y-91483565D01*
X199136000Y-91483565D01*
X199136004Y-91483565D01*
X199315249Y-91463369D01*
X199315252Y-91463368D01*
X199315255Y-91463368D01*
X199485522Y-91403789D01*
X199638262Y-91307816D01*
X199638267Y-91307810D01*
X199641097Y-91305555D01*
X199643275Y-91304665D01*
X199644158Y-91304111D01*
X199644255Y-91304265D01*
X199705783Y-91279145D01*
X199718412Y-91278500D01*
X201473331Y-91278500D01*
X201473347Y-91278501D01*
X201480943Y-91278501D01*
X201639056Y-91278501D01*
X201639057Y-91278501D01*
X201764859Y-91244791D01*
X201796954Y-91240565D01*
X201803002Y-91240565D01*
X201982249Y-91220369D01*
X201982252Y-91220368D01*
X201982255Y-91220368D01*
X202152522Y-91160789D01*
X202305262Y-91064816D01*
X202432816Y-90937262D01*
X202528789Y-90784522D01*
X202588368Y-90614255D01*
X202593045Y-90572745D01*
X202608565Y-90435003D01*
X202608565Y-90434996D01*
X202588369Y-90255750D01*
X202588368Y-90255745D01*
X202569130Y-90200765D01*
X202528789Y-90085478D01*
X202509354Y-90054548D01*
X202471840Y-89994844D01*
X202432816Y-89932738D01*
X202305262Y-89805184D01*
X202152522Y-89709211D01*
X202152520Y-89709210D01*
X202108109Y-89693670D01*
X202051333Y-89652948D01*
X202032022Y-89617581D01*
X202020790Y-89585480D01*
X202020789Y-89585477D01*
X201949026Y-89471268D01*
X201924816Y-89432738D01*
X201797262Y-89305184D01*
X201729059Y-89262329D01*
X201682769Y-89209995D01*
X201672121Y-89140942D01*
X201700496Y-89077093D01*
X201758886Y-89038721D01*
X201808287Y-89034047D01*
X201811162Y-89034356D01*
X201857127Y-89039298D01*
X202510872Y-89039297D01*
X202570483Y-89032889D01*
X202705331Y-88982594D01*
X202820546Y-88896344D01*
X202906796Y-88781129D01*
X202957091Y-88646281D01*
X202963500Y-88586671D01*
X202963499Y-87036026D01*
X202957091Y-86976415D01*
X202951155Y-86960501D01*
X202906797Y-86841569D01*
X202906793Y-86841562D01*
X202820547Y-86726353D01*
X202820544Y-86726350D01*
X202705335Y-86640104D01*
X202705328Y-86640100D01*
X202570486Y-86589808D01*
X202570485Y-86589807D01*
X202570483Y-86589807D01*
X202510873Y-86583398D01*
X202510863Y-86583398D01*
X201857129Y-86583398D01*
X201857123Y-86583399D01*
X201797516Y-86589806D01*
X201662671Y-86640100D01*
X201662665Y-86640104D01*
X201623310Y-86669565D01*
X201557846Y-86693982D01*
X201489573Y-86679130D01*
X201474690Y-86669565D01*
X201435334Y-86640104D01*
X201435328Y-86640100D01*
X201300486Y-86589808D01*
X201300485Y-86589807D01*
X201300483Y-86589807D01*
X201240873Y-86583398D01*
X201240863Y-86583398D01*
X200587129Y-86583398D01*
X200587123Y-86583399D01*
X200527515Y-86589807D01*
X200476988Y-86608652D01*
X200407296Y-86613636D01*
X200345974Y-86580150D01*
X200312489Y-86518827D01*
X200310436Y-86506352D01*
X200302369Y-86434750D01*
X200302368Y-86434745D01*
X200286544Y-86389522D01*
X200242789Y-86264478D01*
X200234612Y-86251465D01*
X200146815Y-86111737D01*
X200141074Y-86105996D01*
X203029435Y-86105996D01*
X203029435Y-86106003D01*
X203049630Y-86285249D01*
X203049631Y-86285254D01*
X203109211Y-86455523D01*
X203194106Y-86590632D01*
X203205184Y-86608262D01*
X203332738Y-86735816D01*
X203382940Y-86767360D01*
X203485477Y-86831789D01*
X203494305Y-86834877D01*
X203502746Y-86837831D01*
X203559524Y-86878551D01*
X203585273Y-86943503D01*
X203571818Y-87012066D01*
X203537282Y-87053249D01*
X203433720Y-87132715D01*
X203337463Y-87258160D01*
X203276956Y-87404237D01*
X203276955Y-87404239D01*
X203261500Y-87521638D01*
X203261500Y-87860363D01*
X203276955Y-87977763D01*
X203277263Y-87978912D01*
X203277263Y-87980101D01*
X203278016Y-87985821D01*
X203277263Y-87985920D01*
X203277265Y-88036081D01*
X203278017Y-88036180D01*
X203277265Y-88041884D01*
X203277266Y-88043079D01*
X203276956Y-88044234D01*
X203261500Y-88161638D01*
X203261500Y-88500363D01*
X203276953Y-88617753D01*
X203276956Y-88617762D01*
X203337464Y-88763841D01*
X203433718Y-88889282D01*
X203559159Y-88985536D01*
X203705238Y-89046044D01*
X203822639Y-89061500D01*
X204101360Y-89061499D01*
X204101363Y-89061499D01*
X204218753Y-89046046D01*
X204218757Y-89046044D01*
X204218762Y-89046044D01*
X204364841Y-88985536D01*
X204364845Y-88985532D01*
X204371876Y-88981474D01*
X204372757Y-88983000D01*
X204428620Y-88961394D01*
X204497067Y-88975421D01*
X204543407Y-89020656D01*
X204544220Y-89020113D01*
X204546788Y-89023957D01*
X204547065Y-89024227D01*
X204547504Y-89025028D01*
X204635209Y-89156287D01*
X204635212Y-89156291D01*
X204672240Y-89193319D01*
X204705725Y-89254642D01*
X204700741Y-89324334D01*
X204672240Y-89368681D01*
X204635212Y-89405708D01*
X204635209Y-89405712D01*
X204547608Y-89536815D01*
X204547601Y-89536828D01*
X204487263Y-89682498D01*
X204487260Y-89682508D01*
X204465109Y-89793870D01*
X204432724Y-89855781D01*
X204372008Y-89890355D01*
X204362400Y-89892025D01*
X204359752Y-89892629D01*
X204189477Y-89952210D01*
X204036736Y-90048184D01*
X203909183Y-90175737D01*
X203813210Y-90328476D01*
X203753630Y-90498745D01*
X203753629Y-90498750D01*
X203733434Y-90677996D01*
X203733434Y-90678003D01*
X203753629Y-90857249D01*
X203753630Y-90857254D01*
X203813210Y-91027523D01*
X203836643Y-91064816D01*
X203909183Y-91180262D01*
X204036737Y-91307816D01*
X204189477Y-91403789D01*
X204359744Y-91463368D01*
X204446668Y-91473161D01*
X204511079Y-91500226D01*
X204520464Y-91508700D01*
X204539726Y-91527962D01*
X204573211Y-91589285D01*
X204568227Y-91658977D01*
X204555148Y-91684532D01*
X204547604Y-91695821D01*
X204547603Y-91695823D01*
X204487263Y-91841498D01*
X204487260Y-91841510D01*
X204456499Y-91996153D01*
X204456499Y-92153846D01*
X204487260Y-92308489D01*
X204487263Y-92308501D01*
X204547601Y-92454171D01*
X204547608Y-92454184D01*
X204635209Y-92585287D01*
X204635212Y-92585291D01*
X204672240Y-92622319D01*
X204705725Y-92683642D01*
X204700741Y-92753334D01*
X204672240Y-92797681D01*
X204635212Y-92834708D01*
X204635207Y-92834714D01*
X204597205Y-92891588D01*
X204543593Y-92936392D01*
X204477919Y-92945635D01*
X204472762Y-92944956D01*
X204355361Y-92929500D01*
X204076636Y-92929500D01*
X203959246Y-92944953D01*
X203959237Y-92944956D01*
X203813160Y-93005463D01*
X203687718Y-93101718D01*
X203591463Y-93227160D01*
X203530956Y-93373237D01*
X203530955Y-93373239D01*
X203515500Y-93490638D01*
X203515500Y-93829363D01*
X203530955Y-93946763D01*
X203531263Y-93947912D01*
X203531263Y-93949101D01*
X203532016Y-93954821D01*
X203531263Y-93954920D01*
X203531265Y-94005081D01*
X203532017Y-94005180D01*
X203531265Y-94010884D01*
X203531266Y-94012079D01*
X203530956Y-94013234D01*
X203515500Y-94130638D01*
X203515500Y-94469363D01*
X203530953Y-94586753D01*
X203530956Y-94586762D01*
X203568825Y-94678187D01*
X203591464Y-94732841D01*
X203687718Y-94858282D01*
X203813159Y-94954536D01*
X203824602Y-94959275D01*
X203879005Y-95003114D01*
X203901072Y-95069408D01*
X203883794Y-95137108D01*
X203843124Y-95178830D01*
X203697740Y-95270182D01*
X203697737Y-95270184D01*
X203570184Y-95397737D01*
X203474211Y-95550476D01*
X203414631Y-95720745D01*
X203414630Y-95720750D01*
X203394435Y-95899996D01*
X203394435Y-95900003D01*
X203414630Y-96079249D01*
X203414631Y-96079254D01*
X203474211Y-96249523D01*
X203556061Y-96379785D01*
X203570184Y-96402262D01*
X203697738Y-96529816D01*
X203743385Y-96558498D01*
X203830918Y-96613499D01*
X203850478Y-96625789D01*
X203933198Y-96654734D01*
X204020745Y-96685368D01*
X204020750Y-96685369D01*
X204199996Y-96705565D01*
X204200000Y-96705565D01*
X204200004Y-96705565D01*
X204379249Y-96685369D01*
X204379252Y-96685368D01*
X204379255Y-96685368D01*
X204549522Y-96625789D01*
X204569082Y-96613499D01*
X204598933Y-96594742D01*
X204674886Y-96547017D01*
X204742121Y-96528017D01*
X204808956Y-96548384D01*
X204809748Y-96548909D01*
X204877813Y-96594389D01*
X204877826Y-96594396D01*
X205023496Y-96654734D01*
X205023501Y-96654736D01*
X205174908Y-96684853D01*
X205178151Y-96685498D01*
X205178154Y-96685499D01*
X205178156Y-96685499D01*
X206185844Y-96685499D01*
X206185845Y-96685498D01*
X206340497Y-96654736D01*
X206485328Y-96594745D01*
X206486171Y-96594396D01*
X206486171Y-96594395D01*
X206486178Y-96594393D01*
X206617288Y-96506788D01*
X206728788Y-96395288D01*
X206816393Y-96264178D01*
X206876736Y-96118497D01*
X206907499Y-95963842D01*
X206907499Y-95806158D01*
X206907499Y-95806155D01*
X206907498Y-95806153D01*
X206876737Y-95651510D01*
X206876736Y-95651503D01*
X206834890Y-95550478D01*
X206816396Y-95505828D01*
X206816389Y-95505815D01*
X206728788Y-95374712D01*
X206728785Y-95374708D01*
X206691758Y-95337682D01*
X206658272Y-95276360D01*
X206663256Y-95206668D01*
X206691758Y-95162318D01*
X206728785Y-95125291D01*
X206728788Y-95125288D01*
X206816393Y-94994178D01*
X206820727Y-94983716D01*
X206840854Y-94935124D01*
X206876736Y-94848497D01*
X206907499Y-94693842D01*
X206907499Y-94536158D01*
X206907499Y-94536155D01*
X206907498Y-94536153D01*
X206902827Y-94512669D01*
X206876736Y-94381503D01*
X206849134Y-94314865D01*
X206816396Y-94235828D01*
X206816389Y-94235815D01*
X206728788Y-94104712D01*
X206728785Y-94104708D01*
X206691758Y-94067682D01*
X206658272Y-94006360D01*
X206663256Y-93936668D01*
X206691758Y-93892318D01*
X206728785Y-93855291D01*
X206728788Y-93855288D01*
X206816393Y-93724178D01*
X206876736Y-93578497D01*
X206907499Y-93423842D01*
X206907499Y-93266158D01*
X206907499Y-93266155D01*
X206907498Y-93266153D01*
X209906498Y-93266153D01*
X209906498Y-93423846D01*
X209937259Y-93578489D01*
X209937262Y-93578501D01*
X209997600Y-93724171D01*
X209997607Y-93724184D01*
X210085208Y-93855287D01*
X210085211Y-93855291D01*
X210122239Y-93892319D01*
X210155724Y-93953642D01*
X210150740Y-94023334D01*
X210122239Y-94067681D01*
X210085211Y-94104708D01*
X210085208Y-94104712D01*
X209997607Y-94235815D01*
X209997600Y-94235828D01*
X209937262Y-94381498D01*
X209937259Y-94381510D01*
X209906498Y-94536153D01*
X209906498Y-94693846D01*
X209937259Y-94848489D01*
X209937262Y-94848501D01*
X209997600Y-94994171D01*
X209997607Y-94994184D01*
X210085208Y-95125287D01*
X210085211Y-95125291D01*
X210122239Y-95162319D01*
X210155724Y-95223642D01*
X210150740Y-95293334D01*
X210122239Y-95337681D01*
X210085211Y-95374708D01*
X210085208Y-95374712D01*
X209997607Y-95505815D01*
X209997600Y-95505828D01*
X209937262Y-95651498D01*
X209937259Y-95651510D01*
X209906498Y-95806153D01*
X209906498Y-95963846D01*
X209937259Y-96118489D01*
X209937262Y-96118501D01*
X209997600Y-96264171D01*
X209997607Y-96264184D01*
X210085208Y-96395287D01*
X210085211Y-96395291D01*
X210196705Y-96506785D01*
X210196709Y-96506788D01*
X210327812Y-96594389D01*
X210327825Y-96594396D01*
X210473495Y-96654734D01*
X210473500Y-96654736D01*
X210542429Y-96668446D01*
X210624905Y-96684853D01*
X210666686Y-96701476D01*
X210724478Y-96737789D01*
X210827952Y-96773996D01*
X210894745Y-96797368D01*
X210894750Y-96797369D01*
X211073996Y-96817565D01*
X211074000Y-96817565D01*
X211074004Y-96817565D01*
X211253249Y-96797369D01*
X211253252Y-96797368D01*
X211253255Y-96797368D01*
X211423522Y-96737789D01*
X211423524Y-96737788D01*
X211476492Y-96704506D01*
X211542465Y-96685499D01*
X211635843Y-96685499D01*
X211635844Y-96685498D01*
X211790496Y-96654736D01*
X211935327Y-96594745D01*
X211936170Y-96594396D01*
X211936170Y-96594395D01*
X211936177Y-96594393D01*
X212067287Y-96506788D01*
X212178787Y-96395288D01*
X212266392Y-96264178D01*
X212326735Y-96118497D01*
X212357498Y-95963842D01*
X212357498Y-95806158D01*
X212357498Y-95806155D01*
X212357497Y-95806153D01*
X212326736Y-95651510D01*
X212326735Y-95651503D01*
X212284889Y-95550478D01*
X212266395Y-95505828D01*
X212266388Y-95505815D01*
X212178787Y-95374712D01*
X212178784Y-95374708D01*
X212141757Y-95337682D01*
X212108271Y-95276360D01*
X212113255Y-95206668D01*
X212141757Y-95162318D01*
X212178784Y-95125291D01*
X212178787Y-95125288D01*
X212266392Y-94994178D01*
X212270726Y-94983716D01*
X212290853Y-94935124D01*
X212326735Y-94848497D01*
X212357498Y-94693842D01*
X212357498Y-94536158D01*
X212357498Y-94536155D01*
X212357497Y-94536153D01*
X212352826Y-94512669D01*
X212326735Y-94381503D01*
X212299133Y-94314865D01*
X212266395Y-94235828D01*
X212266388Y-94235815D01*
X212178787Y-94104712D01*
X212178784Y-94104708D01*
X212141757Y-94067682D01*
X212108271Y-94006360D01*
X212113255Y-93936668D01*
X212141757Y-93892318D01*
X212178784Y-93855291D01*
X212178787Y-93855288D01*
X212266392Y-93724178D01*
X212326735Y-93578497D01*
X212357498Y-93423842D01*
X212357498Y-93266158D01*
X212357498Y-93266155D01*
X212357497Y-93266153D01*
X212349741Y-93227160D01*
X212326735Y-93111503D01*
X212310681Y-93072745D01*
X212266395Y-92965828D01*
X212266388Y-92965815D01*
X212178787Y-92834712D01*
X212178784Y-92834708D01*
X212067290Y-92723214D01*
X212067286Y-92723211D01*
X211936183Y-92635610D01*
X211936170Y-92635603D01*
X211790500Y-92575265D01*
X211790488Y-92575262D01*
X211635844Y-92544501D01*
X211635841Y-92544501D01*
X211183922Y-92544501D01*
X211170038Y-92543721D01*
X211132000Y-92539435D01*
X211131996Y-92539435D01*
X211093958Y-92543721D01*
X211080074Y-92544501D01*
X210628152Y-92544501D01*
X210473507Y-92575262D01*
X210473495Y-92575265D01*
X210327825Y-92635603D01*
X210327812Y-92635610D01*
X210196709Y-92723211D01*
X210196705Y-92723214D01*
X210085211Y-92834708D01*
X210085208Y-92834712D01*
X209997607Y-92965815D01*
X209997600Y-92965828D01*
X209937262Y-93111498D01*
X209937259Y-93111510D01*
X209906498Y-93266153D01*
X206907498Y-93266153D01*
X206899742Y-93227160D01*
X206876736Y-93111503D01*
X206860682Y-93072745D01*
X206816396Y-92965828D01*
X206816389Y-92965815D01*
X206728788Y-92834712D01*
X206728785Y-92834708D01*
X206691758Y-92797682D01*
X206658272Y-92736360D01*
X206663256Y-92666668D01*
X206691758Y-92622318D01*
X206728785Y-92585291D01*
X206728788Y-92585288D01*
X206816393Y-92454178D01*
X206818844Y-92448262D01*
X206833665Y-92412479D01*
X206876736Y-92308497D01*
X206907499Y-92153842D01*
X206907499Y-91996158D01*
X206907499Y-91996155D01*
X206907498Y-91996153D01*
X206899197Y-91954420D01*
X206876736Y-91841503D01*
X206853599Y-91785645D01*
X206816396Y-91695828D01*
X206816389Y-91695815D01*
X206728788Y-91564712D01*
X206728785Y-91564708D01*
X206617291Y-91453214D01*
X206617287Y-91453211D01*
X206486184Y-91365610D01*
X206486171Y-91365603D01*
X206340501Y-91305265D01*
X206340489Y-91305262D01*
X206185845Y-91274501D01*
X206185842Y-91274501D01*
X206036097Y-91274501D01*
X205969058Y-91254816D01*
X205948416Y-91238182D01*
X205677195Y-90966961D01*
X205643710Y-90905638D01*
X205648694Y-90835946D01*
X205690566Y-90780013D01*
X205702714Y-90772637D01*
X205702625Y-90772495D01*
X205761492Y-90735506D01*
X205827465Y-90716499D01*
X206185844Y-90716499D01*
X206185845Y-90716498D01*
X206340497Y-90685736D01*
X206457526Y-90637261D01*
X206486171Y-90625396D01*
X206486171Y-90625395D01*
X206486178Y-90625393D01*
X206617288Y-90537788D01*
X206728788Y-90426288D01*
X206816393Y-90295178D01*
X206876736Y-90149497D01*
X206907499Y-89994842D01*
X206907499Y-89837158D01*
X206907499Y-89837155D01*
X206907498Y-89837153D01*
X206898888Y-89793870D01*
X206876736Y-89682503D01*
X206858866Y-89639361D01*
X206816396Y-89536828D01*
X206816389Y-89536815D01*
X206728788Y-89405712D01*
X206728785Y-89405708D01*
X206691758Y-89368682D01*
X206658272Y-89307360D01*
X206663256Y-89237668D01*
X206691758Y-89193318D01*
X206728785Y-89156291D01*
X206728788Y-89156288D01*
X206816393Y-89025178D01*
X206816862Y-89024047D01*
X206846236Y-88953131D01*
X206876736Y-88879497D01*
X206907499Y-88724842D01*
X206907499Y-88645996D01*
X208871435Y-88645996D01*
X208871435Y-88646003D01*
X208891630Y-88825249D01*
X208891631Y-88825254D01*
X208951211Y-88995523D01*
X209033523Y-89126521D01*
X209047184Y-89148262D01*
X209174738Y-89275816D01*
X209230327Y-89310745D01*
X209322531Y-89368681D01*
X209327478Y-89371789D01*
X209497745Y-89431368D01*
X209497750Y-89431369D01*
X209676996Y-89451565D01*
X209677000Y-89451565D01*
X209677003Y-89451565D01*
X209841453Y-89433036D01*
X209910275Y-89445090D01*
X209961655Y-89492440D01*
X209979279Y-89560050D01*
X209969898Y-89603708D01*
X209937262Y-89682498D01*
X209937259Y-89682510D01*
X209906498Y-89837153D01*
X209906498Y-89994846D01*
X209937259Y-90149489D01*
X209937262Y-90149501D01*
X209997600Y-90295171D01*
X209997607Y-90295184D01*
X210085208Y-90426287D01*
X210085211Y-90426291D01*
X210196705Y-90537785D01*
X210196709Y-90537788D01*
X210327812Y-90625389D01*
X210327825Y-90625396D01*
X210470200Y-90684369D01*
X210473500Y-90685736D01*
X210601189Y-90711135D01*
X210628150Y-90716498D01*
X210628153Y-90716499D01*
X210628155Y-90716499D01*
X210859535Y-90716499D01*
X210925508Y-90735506D01*
X210978475Y-90768788D01*
X211148745Y-90828368D01*
X211148750Y-90828369D01*
X211327996Y-90848565D01*
X211328000Y-90848565D01*
X211328004Y-90848565D01*
X211507249Y-90828369D01*
X211507252Y-90828368D01*
X211507255Y-90828368D01*
X211677522Y-90768789D01*
X211779990Y-90704404D01*
X211836161Y-90669110D01*
X211836687Y-90669948D01*
X211855699Y-90658727D01*
X211936177Y-90625393D01*
X212067287Y-90537788D01*
X212178787Y-90426288D01*
X212266392Y-90295178D01*
X212326735Y-90149497D01*
X212357498Y-89994842D01*
X212357498Y-89837158D01*
X212357498Y-89837155D01*
X212357497Y-89837153D01*
X212348887Y-89793870D01*
X212326735Y-89682503D01*
X212308865Y-89639361D01*
X212266395Y-89536828D01*
X212266388Y-89536815D01*
X212178787Y-89405712D01*
X212178784Y-89405708D01*
X212141757Y-89368682D01*
X212108271Y-89307360D01*
X212113255Y-89237668D01*
X212141757Y-89193318D01*
X212178784Y-89156291D01*
X212178787Y-89156288D01*
X212266392Y-89025178D01*
X212266861Y-89024047D01*
X212296235Y-88953131D01*
X212326735Y-88879497D01*
X212357498Y-88724842D01*
X212357498Y-88567158D01*
X212357498Y-88567155D01*
X212357497Y-88567153D01*
X212353548Y-88547298D01*
X212326735Y-88412503D01*
X212297989Y-88343103D01*
X212266395Y-88266828D01*
X212266388Y-88266815D01*
X212178787Y-88135712D01*
X212178784Y-88135708D01*
X212141757Y-88098682D01*
X212108271Y-88037360D01*
X212113255Y-87967668D01*
X212141757Y-87923318D01*
X212178784Y-87886291D01*
X212178787Y-87886288D01*
X212266392Y-87755178D01*
X212326735Y-87609497D01*
X212357498Y-87454842D01*
X212357498Y-87297158D01*
X212357498Y-87297155D01*
X212357497Y-87297153D01*
X212350192Y-87260431D01*
X212326735Y-87142503D01*
X212310208Y-87102603D01*
X212266395Y-86996828D01*
X212266388Y-86996815D01*
X212178787Y-86865712D01*
X212178784Y-86865708D01*
X212067290Y-86754214D01*
X212067286Y-86754211D01*
X211936183Y-86666610D01*
X211936170Y-86666603D01*
X211790500Y-86606265D01*
X211790488Y-86606262D01*
X211635844Y-86575501D01*
X211635841Y-86575501D01*
X210744924Y-86575501D01*
X210731040Y-86574721D01*
X210693002Y-86570435D01*
X210692998Y-86570435D01*
X210654960Y-86574721D01*
X210641076Y-86575501D01*
X210628155Y-86575501D01*
X210607288Y-86579650D01*
X210596995Y-86581251D01*
X210513745Y-86590632D01*
X210343478Y-86650210D01*
X210190737Y-86746184D01*
X210063184Y-86873737D01*
X209967211Y-87026476D01*
X209907631Y-87196745D01*
X209907630Y-87196750D01*
X209887435Y-87375996D01*
X209887435Y-87376003D01*
X209907630Y-87555249D01*
X209907632Y-87555257D01*
X209955803Y-87692922D01*
X209959364Y-87762701D01*
X209924635Y-87823328D01*
X209862642Y-87855555D01*
X209824878Y-87857096D01*
X209677004Y-87840435D01*
X209676996Y-87840435D01*
X209497750Y-87860630D01*
X209497745Y-87860631D01*
X209327476Y-87920211D01*
X209174737Y-88016184D01*
X209047184Y-88143737D01*
X208951211Y-88296476D01*
X208891631Y-88466745D01*
X208891630Y-88466750D01*
X208871435Y-88645996D01*
X206907499Y-88645996D01*
X206907499Y-88567158D01*
X206907499Y-88567155D01*
X206907498Y-88567153D01*
X206903549Y-88547298D01*
X206876736Y-88412503D01*
X206847990Y-88343103D01*
X206816396Y-88266828D01*
X206816389Y-88266815D01*
X206728788Y-88135712D01*
X206728785Y-88135708D01*
X206691758Y-88098682D01*
X206658272Y-88037360D01*
X206663256Y-87967668D01*
X206691758Y-87923318D01*
X206728785Y-87886291D01*
X206728788Y-87886288D01*
X206816393Y-87755178D01*
X206876736Y-87609497D01*
X206907499Y-87454842D01*
X206907499Y-87297158D01*
X206907499Y-87297155D01*
X206907498Y-87297153D01*
X206900193Y-87260431D01*
X206876736Y-87142503D01*
X206860209Y-87102603D01*
X206816396Y-86996828D01*
X206816389Y-86996815D01*
X206728788Y-86865712D01*
X206728785Y-86865708D01*
X206691758Y-86828682D01*
X206658272Y-86767360D01*
X206663256Y-86697668D01*
X206691758Y-86653318D01*
X206728785Y-86616291D01*
X206728788Y-86616288D01*
X206816393Y-86485178D01*
X206828677Y-86455523D01*
X206844404Y-86417553D01*
X206876736Y-86339497D01*
X206907499Y-86184842D01*
X206907499Y-86027158D01*
X206907499Y-86027155D01*
X206907498Y-86027153D01*
X206885116Y-85914631D01*
X206876736Y-85872503D01*
X206871866Y-85860745D01*
X206816396Y-85726828D01*
X206816389Y-85726815D01*
X206728788Y-85595712D01*
X206728785Y-85595708D01*
X206617291Y-85484214D01*
X206617287Y-85484211D01*
X206486184Y-85396610D01*
X206486171Y-85396603D01*
X206340501Y-85336265D01*
X206340489Y-85336262D01*
X206185845Y-85305501D01*
X206185842Y-85305501D01*
X205178156Y-85305501D01*
X205178153Y-85305501D01*
X205023508Y-85336262D01*
X205023496Y-85336265D01*
X204877826Y-85396603D01*
X204877813Y-85396610D01*
X204746126Y-85484602D01*
X204679449Y-85505480D01*
X204677235Y-85505500D01*
X204417412Y-85505500D01*
X204350373Y-85485815D01*
X204340097Y-85478445D01*
X204337263Y-85476185D01*
X204337262Y-85476184D01*
X204253254Y-85423398D01*
X204184523Y-85380211D01*
X204014254Y-85320631D01*
X204014249Y-85320630D01*
X203835004Y-85300435D01*
X203834996Y-85300435D01*
X203655750Y-85320630D01*
X203655745Y-85320631D01*
X203485476Y-85380211D01*
X203332737Y-85476184D01*
X203205184Y-85603737D01*
X203109211Y-85756476D01*
X203049631Y-85926745D01*
X203049630Y-85926750D01*
X203029435Y-86105996D01*
X200141074Y-86105996D01*
X200019262Y-85984184D01*
X199866523Y-85888211D01*
X199696254Y-85828631D01*
X199696249Y-85828630D01*
X199517004Y-85808435D01*
X199516996Y-85808435D01*
X199337750Y-85828630D01*
X199337745Y-85828631D01*
X199167476Y-85888211D01*
X199014737Y-85984184D01*
X198935741Y-86063181D01*
X198874418Y-86096666D01*
X198848060Y-86099500D01*
X197662412Y-86099500D01*
X197595373Y-86079815D01*
X197585097Y-86072445D01*
X197582263Y-86070185D01*
X197582262Y-86070184D01*
X197500652Y-86018905D01*
X197429523Y-85974211D01*
X197259254Y-85914631D01*
X197259249Y-85914630D01*
X197080004Y-85894435D01*
X197079996Y-85894435D01*
X196900750Y-85914630D01*
X196900745Y-85914631D01*
X196730476Y-85974211D01*
X196631793Y-86036218D01*
X196564556Y-86055218D01*
X196497721Y-86034850D01*
X196478140Y-86018905D01*
X194098208Y-83638973D01*
X194064723Y-83577650D01*
X194069707Y-83507958D01*
X194111579Y-83452025D01*
X194177043Y-83427608D01*
X194229222Y-83435110D01*
X194249725Y-83442757D01*
X194304517Y-83463193D01*
X194364127Y-83469602D01*
X194452774Y-83469601D01*
X194519812Y-83489285D01*
X194565568Y-83542088D01*
X194569812Y-83552637D01*
X194585195Y-83596600D01*
X194614210Y-83679521D01*
X194663991Y-83758747D01*
X194710184Y-83832262D01*
X194837738Y-83959816D01*
X194907972Y-84003947D01*
X194969788Y-84042789D01*
X194990478Y-84055789D01*
X195160745Y-84115368D01*
X195160750Y-84115369D01*
X195339996Y-84135565D01*
X195340000Y-84135565D01*
X195340004Y-84135565D01*
X195519249Y-84115369D01*
X195519252Y-84115368D01*
X195519255Y-84115368D01*
X195689522Y-84055789D01*
X195710212Y-84042789D01*
X195772028Y-84003947D01*
X195839265Y-83984946D01*
X195903972Y-84003945D01*
X196016362Y-84074565D01*
X196186629Y-84134144D01*
X196186634Y-84134145D01*
X196365880Y-84154341D01*
X196365884Y-84154341D01*
X196365888Y-84154341D01*
X196545133Y-84134145D01*
X196545136Y-84134144D01*
X196545139Y-84134144D01*
X196715406Y-84074565D01*
X196868146Y-83978592D01*
X196995700Y-83851038D01*
X197091673Y-83698298D01*
X197151252Y-83528031D01*
X197171449Y-83348776D01*
X197169509Y-83331564D01*
X197172955Y-83285585D01*
X197196500Y-83197717D01*
X197196500Y-83039603D01*
X197196500Y-81914996D01*
X197568435Y-81914996D01*
X197568435Y-81915003D01*
X197588631Y-82094253D01*
X197590181Y-82101044D01*
X197589260Y-82101254D01*
X197594500Y-82132094D01*
X197594500Y-83143972D01*
X197594501Y-83143978D01*
X197600908Y-83203585D01*
X197651202Y-83338430D01*
X197651206Y-83338437D01*
X197737452Y-83453646D01*
X197737455Y-83453649D01*
X197852664Y-83539895D01*
X197852671Y-83539899D01*
X197859999Y-83542632D01*
X197987517Y-83590193D01*
X198047127Y-83596602D01*
X198700872Y-83596601D01*
X198760483Y-83590193D01*
X198895331Y-83539898D01*
X198934688Y-83510434D01*
X199000152Y-83486017D01*
X199068425Y-83500868D01*
X199083309Y-83510433D01*
X199106815Y-83528030D01*
X199122668Y-83539897D01*
X199122671Y-83539899D01*
X199129999Y-83542632D01*
X199257517Y-83590193D01*
X199317127Y-83596602D01*
X199970872Y-83596601D01*
X200030483Y-83590193D01*
X200165331Y-83539898D01*
X200280546Y-83453648D01*
X200366796Y-83338433D01*
X200417091Y-83203585D01*
X200423500Y-83143975D01*
X200423499Y-81593337D01*
X201404500Y-81593337D01*
X201404500Y-83143972D01*
X201404501Y-83143978D01*
X201410908Y-83203585D01*
X201461202Y-83338430D01*
X201461206Y-83338437D01*
X201547452Y-83453646D01*
X201547455Y-83453649D01*
X201662664Y-83539895D01*
X201662671Y-83539899D01*
X201669999Y-83542632D01*
X201797517Y-83590193D01*
X201857127Y-83596602D01*
X202510872Y-83596601D01*
X202570483Y-83590193D01*
X202705331Y-83539898D01*
X202820546Y-83453648D01*
X202906796Y-83338433D01*
X202957091Y-83203585D01*
X202963500Y-83143975D01*
X202963499Y-81593330D01*
X202957091Y-81533719D01*
X202946644Y-81505710D01*
X202906797Y-81398873D01*
X202906793Y-81398866D01*
X202820547Y-81283657D01*
X202820544Y-81283654D01*
X202705335Y-81197408D01*
X202705328Y-81197404D01*
X202570486Y-81147112D01*
X202570485Y-81147111D01*
X202570483Y-81147111D01*
X202510873Y-81140702D01*
X202510863Y-81140702D01*
X201857129Y-81140702D01*
X201857123Y-81140703D01*
X201797516Y-81147110D01*
X201662671Y-81197404D01*
X201662664Y-81197408D01*
X201547455Y-81283654D01*
X201547452Y-81283657D01*
X201461206Y-81398866D01*
X201461202Y-81398873D01*
X201410908Y-81533719D01*
X201404501Y-81593318D01*
X201404501Y-81593325D01*
X201404500Y-81593337D01*
X200423499Y-81593337D01*
X200423499Y-81593330D01*
X200417091Y-81533719D01*
X200406644Y-81505710D01*
X200366797Y-81398873D01*
X200366793Y-81398866D01*
X200280547Y-81283657D01*
X200280544Y-81283654D01*
X200165335Y-81197408D01*
X200165328Y-81197404D01*
X200030482Y-81147110D01*
X200030483Y-81147110D01*
X199970883Y-81140703D01*
X199970881Y-81140702D01*
X199970873Y-81140702D01*
X199970865Y-81140702D01*
X199820701Y-81140702D01*
X199753662Y-81121017D01*
X199707907Y-81068213D01*
X199697762Y-81000518D01*
X199709500Y-80911361D01*
X199709499Y-80632640D01*
X199709499Y-80632636D01*
X199694046Y-80515246D01*
X199694044Y-80515241D01*
X199694044Y-80515238D01*
X199633536Y-80369159D01*
X199537282Y-80243718D01*
X199411841Y-80147464D01*
X199265762Y-80086956D01*
X199240412Y-80083618D01*
X199216210Y-80080432D01*
X199166426Y-80062487D01*
X199140520Y-80046209D01*
X198970262Y-79986633D01*
X198970249Y-79986630D01*
X198791004Y-79966435D01*
X198790996Y-79966435D01*
X198611750Y-79986630D01*
X198611745Y-79986631D01*
X198441476Y-80046211D01*
X198288737Y-80142184D01*
X198161184Y-80269737D01*
X198065211Y-80422476D01*
X198005631Y-80592745D01*
X198005630Y-80592750D01*
X197985435Y-80771996D01*
X197985435Y-80772003D01*
X198005630Y-80951249D01*
X198005631Y-80951254D01*
X198024034Y-81003845D01*
X198027595Y-81073624D01*
X197992866Y-81134252D01*
X197950325Y-81160982D01*
X197852671Y-81197404D01*
X197852664Y-81197408D01*
X197737455Y-81283654D01*
X197737452Y-81283657D01*
X197651206Y-81398866D01*
X197651202Y-81398873D01*
X197600908Y-81533719D01*
X197594501Y-81593318D01*
X197594501Y-81593325D01*
X197594500Y-81593337D01*
X197594500Y-81697906D01*
X197589260Y-81728748D01*
X197590181Y-81728959D01*
X197588630Y-81735751D01*
X197568435Y-81914996D01*
X197196500Y-81914996D01*
X197196500Y-80484732D01*
X197216185Y-80417693D01*
X197232819Y-80397051D01*
X197809582Y-79820288D01*
X198453529Y-79176340D01*
X198514850Y-79142857D01*
X198584542Y-79147841D01*
X198607181Y-79159030D01*
X198667239Y-79196768D01*
X198837509Y-79256348D01*
X198837514Y-79256349D01*
X199016760Y-79276545D01*
X199016764Y-79276545D01*
X199016768Y-79276545D01*
X199196013Y-79256349D01*
X199196016Y-79256348D01*
X199196019Y-79256348D01*
X199366286Y-79196769D01*
X199519026Y-79100796D01*
X199646580Y-78973242D01*
X199742553Y-78820502D01*
X199763056Y-78761905D01*
X199803777Y-78705130D01*
X199868730Y-78679382D01*
X199893981Y-78679640D01*
X200057253Y-78698036D01*
X200057257Y-78698036D01*
X200057261Y-78698036D01*
X200236506Y-78677840D01*
X200236509Y-78677839D01*
X200236512Y-78677839D01*
X200406779Y-78618260D01*
X200559519Y-78522287D01*
X200560090Y-78521715D01*
X200560552Y-78521463D01*
X200564967Y-78517943D01*
X200565582Y-78518715D01*
X200621405Y-78488221D01*
X200691097Y-78493192D01*
X200735466Y-78521701D01*
X207212162Y-84998397D01*
X207241521Y-85045119D01*
X207246211Y-85058522D01*
X207342184Y-85211262D01*
X207469738Y-85338816D01*
X207622478Y-85434789D01*
X207764918Y-85484631D01*
X207792745Y-85494368D01*
X207792750Y-85494369D01*
X207971996Y-85514565D01*
X207972000Y-85514565D01*
X207972004Y-85514565D01*
X208151249Y-85494369D01*
X208151252Y-85494368D01*
X208151255Y-85494368D01*
X208321522Y-85434789D01*
X208474262Y-85338816D01*
X208601816Y-85211262D01*
X208697789Y-85058522D01*
X208749828Y-84909802D01*
X208790550Y-84853027D01*
X208855503Y-84827279D01*
X208924064Y-84840735D01*
X208954551Y-84863076D01*
X209049291Y-84957816D01*
X209202031Y-85053789D01*
X209372298Y-85113368D01*
X209372303Y-85113369D01*
X209551549Y-85133565D01*
X209551553Y-85133565D01*
X209551557Y-85133565D01*
X209730802Y-85113369D01*
X209730805Y-85113368D01*
X209730808Y-85113368D01*
X209901075Y-85053789D01*
X210053815Y-84957816D01*
X210181369Y-84830262D01*
X210277342Y-84677522D01*
X210336921Y-84507255D01*
X210336922Y-84507249D01*
X210357118Y-84328003D01*
X210357118Y-84327996D01*
X210336922Y-84148750D01*
X210336921Y-84148745D01*
X210325242Y-84115368D01*
X210277342Y-83978478D01*
X210181369Y-83825738D01*
X210053815Y-83698184D01*
X209997319Y-83662685D01*
X209901074Y-83602210D01*
X209753402Y-83550538D01*
X209730808Y-83542632D01*
X209730807Y-83542631D01*
X209730802Y-83542630D01*
X209643883Y-83532837D01*
X209579469Y-83505770D01*
X209570086Y-83497298D01*
X209142143Y-83069355D01*
X209142141Y-83069352D01*
X209023270Y-82950481D01*
X209023269Y-82950480D01*
X208913102Y-82886875D01*
X208913102Y-82886874D01*
X208913099Y-82886874D01*
X208886338Y-82871423D01*
X208733610Y-82830499D01*
X208575496Y-82830499D01*
X208567900Y-82830499D01*
X208567884Y-82830500D01*
X208526865Y-82830500D01*
X208459826Y-82810815D01*
X208414071Y-82758011D01*
X208403645Y-82720383D01*
X208391751Y-82614817D01*
X208391750Y-82614812D01*
X208332170Y-82444543D01*
X208236197Y-82291804D01*
X208108644Y-82164251D01*
X207955905Y-82068278D01*
X207785636Y-82008698D01*
X207785631Y-82008697D01*
X207606386Y-81988502D01*
X207606378Y-81988502D01*
X207427132Y-82008697D01*
X207427127Y-82008698D01*
X207256858Y-82068278D01*
X207104118Y-82164252D01*
X207101285Y-82166512D01*
X207099106Y-82167401D01*
X207098224Y-82167956D01*
X207098126Y-82167801D01*
X207036599Y-82192922D01*
X207023970Y-82193567D01*
X206581428Y-82193567D01*
X206514389Y-82173882D01*
X206493747Y-82157248D01*
X204917482Y-80580983D01*
X209204957Y-80580983D01*
X209204957Y-81181001D01*
X209204958Y-81181019D01*
X209215457Y-81283796D01*
X209215458Y-81283799D01*
X209253588Y-81398866D01*
X209270643Y-81450334D01*
X209362745Y-81599656D01*
X209486801Y-81723712D01*
X209636123Y-81815814D01*
X209802660Y-81870999D01*
X209905448Y-81881500D01*
X212305465Y-81881499D01*
X212408254Y-81870999D01*
X212574791Y-81815814D01*
X212724113Y-81723712D01*
X212848169Y-81599656D01*
X212940271Y-81450334D01*
X212995456Y-81283797D01*
X213005957Y-81181009D01*
X213005956Y-80580992D01*
X212995456Y-80478203D01*
X212940271Y-80311666D01*
X212848169Y-80162344D01*
X212724113Y-80038288D01*
X212574791Y-79946186D01*
X212408254Y-79891001D01*
X212408252Y-79891000D01*
X212305467Y-79880500D01*
X209905455Y-79880500D01*
X209905438Y-79880501D01*
X209802660Y-79891000D01*
X209802657Y-79891001D01*
X209636125Y-79946185D01*
X209636120Y-79946187D01*
X209486799Y-80038289D01*
X209362746Y-80162342D01*
X209270644Y-80311663D01*
X209270642Y-80311668D01*
X209253635Y-80362992D01*
X209215458Y-80478203D01*
X209215458Y-80478204D01*
X209215457Y-80478204D01*
X209204957Y-80580983D01*
X204917482Y-80580983D01*
X201626343Y-77289844D01*
X201592858Y-77228521D01*
X201597842Y-77158829D01*
X201609026Y-77136198D01*
X201625789Y-77109522D01*
X201685368Y-76939255D01*
X201685775Y-76935644D01*
X201705565Y-76760003D01*
X201705565Y-76759996D01*
X201685369Y-76580750D01*
X201685366Y-76580737D01*
X201650100Y-76479954D01*
X201646537Y-76410175D01*
X201681266Y-76349548D01*
X201743259Y-76317320D01*
X201767132Y-76314999D01*
X202329602Y-76314999D01*
X202396641Y-76334684D01*
X202417283Y-76351318D01*
X203008339Y-76942374D01*
X203008349Y-76942385D01*
X203012679Y-76946715D01*
X203012680Y-76946716D01*
X203124484Y-77058520D01*
X203124486Y-77058521D01*
X203124490Y-77058524D01*
X203189515Y-77096066D01*
X203189519Y-77096067D01*
X203189520Y-77096068D01*
X203212821Y-77109521D01*
X203261412Y-77137576D01*
X203261414Y-77137576D01*
X203261415Y-77137577D01*
X203414143Y-77178500D01*
X205352438Y-77178500D01*
X205352454Y-77178501D01*
X205360050Y-77178501D01*
X205518161Y-77178501D01*
X205518164Y-77178501D01*
X205670892Y-77137577D01*
X205742787Y-77096068D01*
X205742791Y-77096066D01*
X205807816Y-77058524D01*
X205807815Y-77058524D01*
X205807823Y-77058520D01*
X205897174Y-76969168D01*
X205958493Y-76935686D01*
X206025803Y-76939810D01*
X206109711Y-76969171D01*
X206184158Y-76995222D01*
X206184168Y-76995224D01*
X206363415Y-77015420D01*
X206363418Y-77015420D01*
X206363419Y-77015420D01*
X206382509Y-77013268D01*
X206409353Y-77010244D01*
X206478175Y-77022298D01*
X206529555Y-77069646D01*
X206529969Y-77070342D01*
X206541346Y-77089579D01*
X206539375Y-77090744D01*
X206560689Y-77145058D01*
X206546997Y-77213573D01*
X206541321Y-77222404D01*
X206541347Y-77222420D01*
X206453712Y-77370603D01*
X206453711Y-77370606D01*
X206407859Y-77528426D01*
X206407858Y-77528432D01*
X206404957Y-77565298D01*
X206404957Y-77996701D01*
X206407858Y-78033567D01*
X206407859Y-78033573D01*
X206453711Y-78191393D01*
X206453712Y-78191396D01*
X206453713Y-78191398D01*
X206479353Y-78234753D01*
X206537374Y-78332862D01*
X206537380Y-78332870D01*
X206653586Y-78449076D01*
X206653590Y-78449079D01*
X206653592Y-78449081D01*
X206795059Y-78532744D01*
X206836681Y-78544836D01*
X206952883Y-78578597D01*
X206952886Y-78578597D01*
X206952888Y-78578598D01*
X206989763Y-78581500D01*
X206989771Y-78581500D01*
X208521143Y-78581500D01*
X208521151Y-78581500D01*
X208558026Y-78578598D01*
X208558028Y-78578597D01*
X208558030Y-78578597D01*
X208599648Y-78566505D01*
X208715855Y-78532744D01*
X208857322Y-78449081D01*
X208973538Y-78332865D01*
X209057201Y-78191398D01*
X209103055Y-78033569D01*
X209105957Y-77996694D01*
X209105957Y-77565306D01*
X209103055Y-77528431D01*
X209096171Y-77504737D01*
X209058327Y-77374478D01*
X209057201Y-77370602D01*
X208973538Y-77229135D01*
X208969567Y-77222420D01*
X208971540Y-77221252D01*
X208950226Y-77166965D01*
X208963905Y-77098447D01*
X208969593Y-77089595D01*
X208969567Y-77089580D01*
X208987935Y-77058521D01*
X209057201Y-76941398D01*
X209101332Y-76789499D01*
X209103054Y-76783573D01*
X209103055Y-76783567D01*
X209103667Y-76775788D01*
X209105957Y-76746694D01*
X209105957Y-76315306D01*
X209103055Y-76278431D01*
X209101732Y-76273878D01*
X209057202Y-76120606D01*
X209057201Y-76120603D01*
X209057201Y-76120602D01*
X208973538Y-75979135D01*
X208969567Y-75972420D01*
X208971540Y-75971252D01*
X208950226Y-75916965D01*
X208963905Y-75848447D01*
X208969593Y-75839595D01*
X208969567Y-75839580D01*
X208983483Y-75816048D01*
X209057201Y-75691398D01*
X209103055Y-75533569D01*
X209105957Y-75496694D01*
X209105957Y-75065306D01*
X209103055Y-75028431D01*
X209094358Y-74998497D01*
X209057202Y-74870606D01*
X209057201Y-74870603D01*
X209057201Y-74870602D01*
X208973538Y-74729135D01*
X208969567Y-74722420D01*
X208971540Y-74721252D01*
X208950226Y-74666965D01*
X208963905Y-74598447D01*
X208969593Y-74589595D01*
X208969567Y-74589580D01*
X209015557Y-74511814D01*
X209057201Y-74441398D01*
X209103055Y-74283569D01*
X209105957Y-74246694D01*
X209105957Y-73815306D01*
X209103055Y-73778431D01*
X209093101Y-73744171D01*
X209062486Y-73638794D01*
X209057201Y-73620602D01*
X208973538Y-73479135D01*
X208969567Y-73472420D01*
X208971540Y-73471252D01*
X208950226Y-73416965D01*
X208963905Y-73348447D01*
X208969593Y-73339595D01*
X208969567Y-73339580D01*
X208983483Y-73316048D01*
X209057201Y-73191398D01*
X209103055Y-73033569D01*
X209105957Y-72996694D01*
X209105957Y-72565306D01*
X209103055Y-72528431D01*
X209057201Y-72370602D01*
X208973538Y-72229135D01*
X208969567Y-72222420D01*
X208971540Y-72221252D01*
X208950226Y-72166965D01*
X208963905Y-72098447D01*
X208969593Y-72089595D01*
X208969567Y-72089580D01*
X208983483Y-72066048D01*
X209057201Y-71941398D01*
X209093808Y-71815396D01*
X209103054Y-71783573D01*
X209103055Y-71783567D01*
X209105956Y-71746701D01*
X209105957Y-71746694D01*
X209105957Y-71315306D01*
X209103055Y-71278431D01*
X209099219Y-71265228D01*
X209057202Y-71120606D01*
X209057201Y-71120603D01*
X209057201Y-71120602D01*
X208987616Y-71002939D01*
X208969567Y-70972420D01*
X208971540Y-70971252D01*
X208950226Y-70916965D01*
X208963905Y-70848447D01*
X208969593Y-70839595D01*
X208969567Y-70839580D01*
X209001475Y-70785626D01*
X209057201Y-70691398D01*
X209103055Y-70533569D01*
X209105957Y-70496694D01*
X209105957Y-70065306D01*
X209103055Y-70028431D01*
X209098391Y-70012378D01*
X209057202Y-69870606D01*
X209057201Y-69870603D01*
X209057201Y-69870602D01*
X208973538Y-69729135D01*
X208969567Y-69722420D01*
X208971540Y-69721252D01*
X208950226Y-69666965D01*
X208963905Y-69598447D01*
X208969593Y-69589595D01*
X208969567Y-69589580D01*
X208994980Y-69546608D01*
X209057201Y-69441398D01*
X209103055Y-69283569D01*
X209105957Y-69246694D01*
X209105957Y-68815306D01*
X209103055Y-68778431D01*
X209091121Y-68737356D01*
X209057202Y-68620606D01*
X209057201Y-68620603D01*
X209057201Y-68620602D01*
X208973538Y-68479135D01*
X208969567Y-68472420D01*
X208971540Y-68471252D01*
X208950226Y-68416965D01*
X208963905Y-68348447D01*
X208969593Y-68339595D01*
X208969567Y-68339580D01*
X209004490Y-68280527D01*
X209057201Y-68191398D01*
X209103055Y-68033569D01*
X209105957Y-67996694D01*
X209105957Y-67565306D01*
X209103055Y-67528431D01*
X209087827Y-67476018D01*
X209057202Y-67370606D01*
X209057201Y-67370603D01*
X209057201Y-67370602D01*
X208973538Y-67229135D01*
X208973537Y-67229134D01*
X208973533Y-67229129D01*
X208857327Y-67112923D01*
X208857319Y-67112917D01*
X208715853Y-67029255D01*
X208715850Y-67029254D01*
X208558030Y-66983402D01*
X208558024Y-66983401D01*
X208521158Y-66980500D01*
X208521151Y-66980500D01*
X206989763Y-66980500D01*
X206989755Y-66980500D01*
X206952889Y-66983401D01*
X206952883Y-66983402D01*
X206795063Y-67029254D01*
X206795060Y-67029255D01*
X206653594Y-67112917D01*
X206653586Y-67112923D01*
X206622331Y-67144180D01*
X206561009Y-67177666D01*
X206534649Y-67180500D01*
X206040239Y-67180500D01*
X206040223Y-67180499D01*
X206032627Y-67180499D01*
X205874513Y-67180499D01*
X205762329Y-67210559D01*
X205721784Y-67221423D01*
X205713934Y-67225956D01*
X205708439Y-67229129D01*
X205708430Y-67229134D01*
X205708427Y-67229135D01*
X205584860Y-67300475D01*
X205584852Y-67300481D01*
X205409181Y-67476153D01*
X205347858Y-67509638D01*
X205278166Y-67504654D01*
X205222233Y-67462782D01*
X205197816Y-67397318D01*
X205197500Y-67388472D01*
X205197500Y-65630983D01*
X209204957Y-65630983D01*
X209204957Y-66231001D01*
X209204958Y-66231019D01*
X209215457Y-66333796D01*
X209215458Y-66333799D01*
X209248331Y-66433001D01*
X209270643Y-66500334D01*
X209362745Y-66649656D01*
X209486801Y-66773712D01*
X209636123Y-66865814D01*
X209802660Y-66920999D01*
X209905448Y-66931500D01*
X212305465Y-66931499D01*
X212408254Y-66920999D01*
X212574791Y-66865814D01*
X212724113Y-66773712D01*
X212848169Y-66649656D01*
X212940271Y-66500334D01*
X212995456Y-66333797D01*
X213005957Y-66231009D01*
X213005956Y-65630992D01*
X213001294Y-65585358D01*
X212995456Y-65528203D01*
X212995455Y-65528200D01*
X212953852Y-65402651D01*
X212940271Y-65361666D01*
X212848169Y-65212344D01*
X212724113Y-65088288D01*
X212619885Y-65024000D01*
X212574793Y-64996187D01*
X212574788Y-64996185D01*
X212518062Y-64977388D01*
X212408254Y-64941001D01*
X212408252Y-64941000D01*
X212305467Y-64930500D01*
X209905455Y-64930500D01*
X209905438Y-64930501D01*
X209802660Y-64941000D01*
X209802657Y-64941001D01*
X209636125Y-64996185D01*
X209636120Y-64996187D01*
X209486799Y-65088289D01*
X209362746Y-65212342D01*
X209270644Y-65361663D01*
X209270642Y-65361668D01*
X209266714Y-65373522D01*
X209215458Y-65528203D01*
X209215458Y-65528204D01*
X209215457Y-65528204D01*
X209204957Y-65630983D01*
X205197500Y-65630983D01*
X205197500Y-63691257D01*
X205217185Y-63624218D01*
X205220924Y-63618900D01*
X205221532Y-63617845D01*
X205221536Y-63617841D01*
X205282044Y-63471762D01*
X205297500Y-63354361D01*
X205297499Y-63015640D01*
X205297499Y-63015636D01*
X205282045Y-62898244D01*
X205282044Y-62898242D01*
X205282044Y-62898238D01*
X205282042Y-62898233D01*
X205281738Y-62897096D01*
X205281737Y-62895906D01*
X205280984Y-62890179D01*
X205281737Y-62890079D01*
X205281737Y-62839919D01*
X205280983Y-62839820D01*
X205281737Y-62834092D01*
X205281737Y-62832905D01*
X205282040Y-62831771D01*
X205282044Y-62831762D01*
X205297500Y-62714361D01*
X205297499Y-62714351D01*
X205297765Y-62710309D01*
X205298556Y-62710360D01*
X205304458Y-62675575D01*
X205321367Y-62627255D01*
X205321631Y-62624909D01*
X205341564Y-62448003D01*
X205341564Y-62447996D01*
X205321368Y-62268750D01*
X205321367Y-62268745D01*
X205261788Y-62098478D01*
X205165815Y-61945738D01*
X205038261Y-61818184D01*
X205027546Y-61811451D01*
X204885522Y-61722211D01*
X204715253Y-61662631D01*
X204715248Y-61662630D01*
X204536003Y-61642435D01*
X204535995Y-61642435D01*
X204356749Y-61662630D01*
X204356736Y-61662633D01*
X204186478Y-61722209D01*
X204111172Y-61769527D01*
X204043935Y-61788527D01*
X203977100Y-61768159D01*
X203970897Y-61763805D01*
X203919332Y-61725203D01*
X203919329Y-61725201D01*
X203784483Y-61674907D01*
X203784484Y-61674907D01*
X203724884Y-61668500D01*
X203724882Y-61668499D01*
X203724874Y-61668499D01*
X203724865Y-61668499D01*
X202682230Y-61668499D01*
X202682224Y-61668500D01*
X202622617Y-61674907D01*
X202487772Y-61725201D01*
X202487765Y-61725205D01*
X202372556Y-61811451D01*
X202372553Y-61811454D01*
X202286307Y-61926663D01*
X202286303Y-61926670D01*
X202236011Y-62061512D01*
X202236010Y-62061516D01*
X202229601Y-62121126D01*
X202229601Y-62121133D01*
X202229601Y-62121134D01*
X202229601Y-62724869D01*
X202229602Y-62724875D01*
X202236009Y-62784482D01*
X202286303Y-62919327D01*
X202286307Y-62919334D01*
X202372553Y-63034543D01*
X202372556Y-63034546D01*
X202487765Y-63120792D01*
X202487772Y-63120796D01*
X202532719Y-63137560D01*
X202622618Y-63171090D01*
X202682228Y-63177499D01*
X203057453Y-63177498D01*
X203124492Y-63197182D01*
X203145134Y-63213817D01*
X203288137Y-63356820D01*
X203321622Y-63418143D01*
X203316638Y-63487835D01*
X203274766Y-63543768D01*
X203209302Y-63568185D01*
X203200456Y-63568501D01*
X202682230Y-63568501D01*
X202682224Y-63568502D01*
X202622617Y-63574909D01*
X202487772Y-63625203D01*
X202487765Y-63625207D01*
X202372556Y-63711453D01*
X202372553Y-63711456D01*
X202286307Y-63826665D01*
X202286303Y-63826672D01*
X202236011Y-63961514D01*
X202236010Y-63961518D01*
X202229601Y-64021128D01*
X202229601Y-64021135D01*
X202229601Y-64021136D01*
X202229601Y-64624871D01*
X202229602Y-64624877D01*
X202236009Y-64684484D01*
X202286303Y-64819329D01*
X202286307Y-64819336D01*
X202372553Y-64934545D01*
X202372556Y-64934548D01*
X202487765Y-65020794D01*
X202487772Y-65020798D01*
X202622618Y-65071092D01*
X202622617Y-65071092D01*
X202629545Y-65071836D01*
X202682228Y-65077501D01*
X203724873Y-65077500D01*
X203784484Y-65071092D01*
X203829168Y-65054425D01*
X203898858Y-65049442D01*
X203960181Y-65082926D01*
X203993666Y-65144249D01*
X203996500Y-65170608D01*
X203996500Y-66610629D01*
X203976815Y-66677668D01*
X203924011Y-66723423D01*
X203854853Y-66733367D01*
X203791297Y-66704342D01*
X203773234Y-66684940D01*
X203691647Y-66575955D01*
X203691644Y-66575952D01*
X203576435Y-66489706D01*
X203576428Y-66489702D01*
X203441582Y-66439408D01*
X203441583Y-66439408D01*
X203381983Y-66433001D01*
X203381981Y-66433000D01*
X203381973Y-66433000D01*
X203381964Y-66433000D01*
X201646429Y-66433000D01*
X201646423Y-66433001D01*
X201586816Y-66439408D01*
X201451971Y-66489702D01*
X201451964Y-66489706D01*
X201336755Y-66575952D01*
X201336752Y-66575955D01*
X201250506Y-66691164D01*
X201250502Y-66691171D01*
X201219717Y-66773712D01*
X201200209Y-66826017D01*
X201193800Y-66885627D01*
X201193800Y-66885634D01*
X201193800Y-66885635D01*
X201193800Y-67412370D01*
X201193801Y-67412376D01*
X201199001Y-67460748D01*
X201199001Y-67487253D01*
X201193800Y-67535628D01*
X201193800Y-67535630D01*
X201193800Y-67535634D01*
X201193800Y-68062371D01*
X201193801Y-68062375D01*
X201199001Y-68110743D01*
X201199001Y-68137250D01*
X201194220Y-68181727D01*
X201193800Y-68185630D01*
X201193800Y-68712370D01*
X201193801Y-68712376D01*
X201199001Y-68760748D01*
X201199001Y-68787253D01*
X201193800Y-68835628D01*
X201193800Y-68835633D01*
X201193800Y-68835634D01*
X201193800Y-69362371D01*
X201193801Y-69362375D01*
X201199001Y-69410745D01*
X201199001Y-69437251D01*
X201193800Y-69485626D01*
X201193800Y-69485631D01*
X201193800Y-69485632D01*
X201193800Y-70012369D01*
X201193801Y-70012378D01*
X201199001Y-70060750D01*
X201199001Y-70087253D01*
X201193800Y-70135628D01*
X201193800Y-70135633D01*
X201193800Y-70135634D01*
X201193800Y-70662371D01*
X201193801Y-70662375D01*
X201199001Y-70710745D01*
X201199001Y-70737251D01*
X201193800Y-70785626D01*
X201193800Y-70785631D01*
X201193800Y-71072290D01*
X201174115Y-71139329D01*
X201121311Y-71185084D01*
X201052153Y-71195028D01*
X201028846Y-71189332D01*
X200958257Y-71164632D01*
X200958249Y-71164630D01*
X200779004Y-71144435D01*
X200778996Y-71144435D01*
X200599750Y-71164630D01*
X200599745Y-71164631D01*
X200429476Y-71224211D01*
X200276737Y-71320184D01*
X200149184Y-71447737D01*
X200053211Y-71600476D01*
X199993631Y-71770745D01*
X199993630Y-71770750D01*
X199973435Y-71949996D01*
X199973435Y-71950003D01*
X199993630Y-72129249D01*
X199993631Y-72129254D01*
X200053211Y-72299523D01*
X200097874Y-72370603D01*
X200149184Y-72452262D01*
X200276738Y-72579816D01*
X200405529Y-72660741D01*
X200429478Y-72675789D01*
X200597936Y-72734735D01*
X200644663Y-72764096D01*
X200960399Y-73079832D01*
X200993884Y-73141155D01*
X200988900Y-73210847D01*
X200947028Y-73266780D01*
X200938691Y-73272506D01*
X200803839Y-73357239D01*
X200676284Y-73484794D01*
X200580311Y-73637533D01*
X200520731Y-73807802D01*
X200520730Y-73807807D01*
X200500535Y-73987053D01*
X200500535Y-73987060D01*
X200520730Y-74166306D01*
X200520731Y-74166311D01*
X200580311Y-74336580D01*
X200610271Y-74384260D01*
X200676284Y-74489319D01*
X200803838Y-74616873D01*
X200956578Y-74712846D01*
X201110755Y-74766795D01*
X201167530Y-74807516D01*
X201193278Y-74872468D01*
X201193800Y-74883836D01*
X201193800Y-75212368D01*
X201193801Y-75212375D01*
X201199001Y-75260747D01*
X201199001Y-75287248D01*
X201193800Y-75335627D01*
X201193800Y-75335632D01*
X201193800Y-75335633D01*
X201193800Y-75761128D01*
X201174115Y-75828167D01*
X201121311Y-75873922D01*
X201052153Y-75883866D01*
X200988597Y-75854841D01*
X200962413Y-75823129D01*
X200959577Y-75818218D01*
X200959577Y-75818215D01*
X200930639Y-75768095D01*
X200880520Y-75681284D01*
X200768716Y-75569480D01*
X200768715Y-75569479D01*
X200764385Y-75565149D01*
X200764374Y-75565139D01*
X199415819Y-74216584D01*
X199382334Y-74155261D01*
X199379500Y-74128903D01*
X199379500Y-73744171D01*
X199399185Y-73677132D01*
X199406555Y-73666856D01*
X199408810Y-73664026D01*
X199408816Y-73664021D01*
X199504789Y-73511281D01*
X199564368Y-73341014D01*
X199564369Y-73341008D01*
X199584565Y-73161762D01*
X199584565Y-73161755D01*
X199564369Y-72982509D01*
X199564368Y-72982504D01*
X199504788Y-72812235D01*
X199419053Y-72675789D01*
X199408816Y-72659497D01*
X199281262Y-72531943D01*
X199154451Y-72452262D01*
X199128521Y-72435969D01*
X198958246Y-72376388D01*
X198951459Y-72374839D01*
X198952054Y-72372231D01*
X198898894Y-72349890D01*
X198859342Y-72292293D01*
X198853196Y-72253740D01*
X198853196Y-71002939D01*
X198852278Y-70999513D01*
X198846818Y-70979135D01*
X198812273Y-70850213D01*
X198771306Y-70779256D01*
X198771306Y-70779255D01*
X198733220Y-70713288D01*
X198733217Y-70713284D01*
X198733216Y-70713282D01*
X198621412Y-70601478D01*
X198621411Y-70601477D01*
X198617081Y-70597147D01*
X198617070Y-70597137D01*
X196757289Y-68737356D01*
X196757287Y-68737353D01*
X196638416Y-68618482D01*
X196638408Y-68618476D01*
X196632194Y-68614888D01*
X196583981Y-68564319D01*
X196570199Y-68507504D01*
X196570199Y-68185629D01*
X196570197Y-68185610D01*
X196564999Y-68137254D01*
X196564999Y-68110748D01*
X196570200Y-68062374D01*
X196570199Y-67535629D01*
X196563791Y-67476018D01*
X196563038Y-67474000D01*
X196513497Y-67341172D01*
X196513493Y-67341165D01*
X196427247Y-67225956D01*
X196427244Y-67225953D01*
X196312035Y-67139707D01*
X196312028Y-67139703D01*
X196177182Y-67089409D01*
X196177183Y-67089409D01*
X196117583Y-67083002D01*
X196117581Y-67083001D01*
X196117573Y-67083001D01*
X196117564Y-67083001D01*
X194382029Y-67083001D01*
X194382023Y-67083002D01*
X194322416Y-67089409D01*
X194187571Y-67139703D01*
X194187564Y-67139707D01*
X194072355Y-67225953D01*
X194072352Y-67225956D01*
X193986106Y-67341165D01*
X193986102Y-67341172D01*
X193935810Y-67476014D01*
X193935809Y-67476018D01*
X193929400Y-67535628D01*
X193929400Y-67535634D01*
X193929400Y-67535636D01*
X193929400Y-67592462D01*
X193909715Y-67659501D01*
X193856911Y-67705256D01*
X193787753Y-67715200D01*
X193724197Y-67686175D01*
X193717719Y-67680143D01*
X193595957Y-67558381D01*
X193443216Y-67462407D01*
X193272944Y-67402827D01*
X193186025Y-67393034D01*
X193121611Y-67365967D01*
X193112228Y-67357495D01*
X191509088Y-65754355D01*
X191509086Y-65754352D01*
X191390215Y-65635481D01*
X191390214Y-65635480D01*
X191303402Y-65585360D01*
X191303402Y-65585359D01*
X191303398Y-65585358D01*
X191253283Y-65556423D01*
X191126403Y-65522425D01*
X191066745Y-65486061D01*
X191036216Y-65423214D01*
X191034499Y-65402651D01*
X191034499Y-64899996D01*
X192604435Y-64899996D01*
X192604435Y-64900003D01*
X192624630Y-65079249D01*
X192624631Y-65079254D01*
X192684211Y-65249522D01*
X192714903Y-65298368D01*
X192732848Y-65348154D01*
X192735956Y-65371762D01*
X192796464Y-65517841D01*
X192892718Y-65643282D01*
X193018159Y-65739536D01*
X193164238Y-65800044D01*
X193281639Y-65815500D01*
X193560360Y-65815499D01*
X193560363Y-65815499D01*
X193677753Y-65800046D01*
X193677757Y-65800044D01*
X193677762Y-65800044D01*
X193823841Y-65739536D01*
X193949282Y-65643282D01*
X194045536Y-65517841D01*
X194106044Y-65371762D01*
X194114982Y-65303862D01*
X194132932Y-65254068D01*
X194135789Y-65249522D01*
X194143292Y-65228076D01*
X194184010Y-65171304D01*
X194248962Y-65145554D01*
X194317524Y-65159009D01*
X194335810Y-65170650D01*
X194415159Y-65231536D01*
X194561238Y-65292044D01*
X194678639Y-65307500D01*
X194957360Y-65307499D01*
X194957363Y-65307499D01*
X195074753Y-65292046D01*
X195074757Y-65292044D01*
X195074762Y-65292044D01*
X195220841Y-65231536D01*
X195346282Y-65135282D01*
X195431675Y-65023996D01*
X198330435Y-65023996D01*
X198330435Y-65024003D01*
X198350630Y-65203249D01*
X198350631Y-65203254D01*
X198410211Y-65373523D01*
X198480924Y-65486061D01*
X198506184Y-65526262D01*
X198633738Y-65653816D01*
X198724080Y-65710582D01*
X198782494Y-65747286D01*
X198786478Y-65749789D01*
X198930096Y-65800043D01*
X198956745Y-65809368D01*
X198956750Y-65809369D01*
X199135996Y-65829565D01*
X199136000Y-65829565D01*
X199136004Y-65829565D01*
X199315249Y-65809369D01*
X199315252Y-65809368D01*
X199315255Y-65809368D01*
X199485522Y-65749789D01*
X199638262Y-65653816D01*
X199765816Y-65526262D01*
X199861789Y-65373522D01*
X199921368Y-65203255D01*
X199925041Y-65170656D01*
X199941565Y-65024003D01*
X199941565Y-65023996D01*
X199921369Y-64844750D01*
X199921368Y-64844745D01*
X199912476Y-64819332D01*
X199861789Y-64674478D01*
X199845510Y-64648570D01*
X199827566Y-64598785D01*
X199821044Y-64549238D01*
X199760536Y-64403159D01*
X199664282Y-64277718D01*
X199538841Y-64181464D01*
X199531842Y-64178565D01*
X199392762Y-64120956D01*
X199392760Y-64120955D01*
X199275361Y-64105500D01*
X198996636Y-64105500D01*
X198879246Y-64120953D01*
X198879237Y-64120956D01*
X198733160Y-64181463D01*
X198607718Y-64277718D01*
X198511463Y-64403160D01*
X198450956Y-64549238D01*
X198444432Y-64598788D01*
X198426489Y-64648569D01*
X198410210Y-64674478D01*
X198350633Y-64844737D01*
X198350630Y-64844750D01*
X198330435Y-65023996D01*
X195431675Y-65023996D01*
X195442536Y-65009841D01*
X195455980Y-64977382D01*
X195466999Y-64958720D01*
X195466109Y-64958161D01*
X195469816Y-64952262D01*
X195565789Y-64799522D01*
X195625368Y-64629255D01*
X195625369Y-64629249D01*
X195645565Y-64450003D01*
X195645565Y-64449996D01*
X195625369Y-64270750D01*
X195625368Y-64270745D01*
X195586046Y-64158369D01*
X195565789Y-64100478D01*
X195469816Y-63947738D01*
X195342262Y-63820184D01*
X195205875Y-63734486D01*
X195189523Y-63724211D01*
X195019254Y-63664631D01*
X195019249Y-63664630D01*
X194840004Y-63644435D01*
X194839996Y-63644435D01*
X194660750Y-63664630D01*
X194660745Y-63664631D01*
X194490476Y-63724211D01*
X194337737Y-63820184D01*
X194210184Y-63947737D01*
X194114211Y-64100476D01*
X194080488Y-64196853D01*
X194039766Y-64253629D01*
X193974813Y-64279376D01*
X193906252Y-64265920D01*
X193897474Y-64260892D01*
X193759523Y-64174211D01*
X193589254Y-64114631D01*
X193589249Y-64114630D01*
X193410004Y-64094435D01*
X193409996Y-64094435D01*
X193230750Y-64114630D01*
X193230745Y-64114631D01*
X193060476Y-64174211D01*
X192907737Y-64270184D01*
X192780184Y-64397737D01*
X192684211Y-64550476D01*
X192624631Y-64720745D01*
X192624630Y-64720750D01*
X192604435Y-64899996D01*
X191034499Y-64899996D01*
X191034499Y-63268129D01*
X191034498Y-63268123D01*
X191034497Y-63268116D01*
X191028091Y-63208517D01*
X191023863Y-63197182D01*
X190977797Y-63073671D01*
X190977793Y-63073664D01*
X190975894Y-63071127D01*
X199682499Y-63071127D01*
X199682499Y-63071134D01*
X199682499Y-63071135D01*
X199682499Y-63674870D01*
X199682500Y-63674876D01*
X199688907Y-63734483D01*
X199739201Y-63869328D01*
X199739205Y-63869335D01*
X199825451Y-63984544D01*
X199825454Y-63984547D01*
X199940663Y-64070793D01*
X199940670Y-64070797D01*
X199985617Y-64087561D01*
X200075516Y-64121091D01*
X200135126Y-64127500D01*
X200371459Y-64127499D01*
X200412415Y-64134458D01*
X200480748Y-64158369D01*
X200659996Y-64178565D01*
X200660000Y-64178565D01*
X200660004Y-64178565D01*
X200839251Y-64158369D01*
X200839253Y-64158368D01*
X200839255Y-64158368D01*
X200907585Y-64134458D01*
X200948540Y-64127499D01*
X201177770Y-64127499D01*
X201177771Y-64127499D01*
X201237382Y-64121091D01*
X201372230Y-64070796D01*
X201487445Y-63984546D01*
X201573695Y-63869331D01*
X201623990Y-63734483D01*
X201630399Y-63674873D01*
X201630398Y-63071128D01*
X201623990Y-63011517D01*
X201604199Y-62958455D01*
X201573696Y-62876671D01*
X201573692Y-62876664D01*
X201487446Y-62761455D01*
X201487443Y-62761452D01*
X201372234Y-62675206D01*
X201372227Y-62675202D01*
X201237381Y-62624908D01*
X201237382Y-62624908D01*
X201177782Y-62618501D01*
X201177780Y-62618500D01*
X201177772Y-62618500D01*
X201177764Y-62618500D01*
X200948540Y-62618500D01*
X200907585Y-62611541D01*
X200839262Y-62587633D01*
X200839249Y-62587630D01*
X200660004Y-62567435D01*
X200659996Y-62567435D01*
X200480747Y-62587631D01*
X200412412Y-62611542D01*
X200371459Y-62618500D01*
X200135129Y-62618500D01*
X200135122Y-62618501D01*
X200075515Y-62624908D01*
X199940670Y-62675202D01*
X199940663Y-62675206D01*
X199825454Y-62761452D01*
X199825451Y-62761455D01*
X199739205Y-62876664D01*
X199739201Y-62876671D01*
X199688909Y-63011513D01*
X199688908Y-63011517D01*
X199682499Y-63071127D01*
X190975894Y-63071127D01*
X190891547Y-62958455D01*
X190891544Y-62958452D01*
X190776335Y-62872206D01*
X190776328Y-62872202D01*
X190641482Y-62821908D01*
X190641483Y-62821908D01*
X190581883Y-62815501D01*
X190581881Y-62815500D01*
X190581873Y-62815500D01*
X190581864Y-62815500D01*
X188386129Y-62815500D01*
X188386123Y-62815501D01*
X188326516Y-62821908D01*
X188191671Y-62872202D01*
X188191664Y-62872206D01*
X188076455Y-62958452D01*
X188076452Y-62958455D01*
X187990206Y-63073664D01*
X187990202Y-63073671D01*
X187939908Y-63208517D01*
X187933501Y-63268116D01*
X187933501Y-63268123D01*
X187933500Y-63268135D01*
X187933500Y-68963870D01*
X187933501Y-68963876D01*
X187939908Y-69023483D01*
X187990202Y-69158328D01*
X187990206Y-69158335D01*
X188076452Y-69273544D01*
X188076455Y-69273547D01*
X188191664Y-69359793D01*
X188191671Y-69359797D01*
X188326517Y-69410091D01*
X188326516Y-69410091D01*
X188332600Y-69410745D01*
X188386127Y-69416500D01*
X190581872Y-69416499D01*
X190641483Y-69410091D01*
X190776331Y-69359796D01*
X190891546Y-69273546D01*
X190977796Y-69158331D01*
X191028091Y-69023483D01*
X191034500Y-68963873D01*
X191034499Y-67277597D01*
X191054184Y-67210559D01*
X191106987Y-67164804D01*
X191176146Y-67154860D01*
X191239702Y-67183885D01*
X191246180Y-67189917D01*
X192262993Y-68206730D01*
X192296478Y-68268053D01*
X192298532Y-68280527D01*
X192308325Y-68367446D01*
X192367906Y-68537720D01*
X192373677Y-68546905D01*
X192392676Y-68614142D01*
X192372307Y-68680977D01*
X192356368Y-68700551D01*
X192344188Y-68712731D01*
X192344186Y-68712734D01*
X192248211Y-68865476D01*
X192188631Y-69035745D01*
X192188630Y-69035750D01*
X192168435Y-69214996D01*
X192168435Y-69215003D01*
X192188630Y-69394249D01*
X192188631Y-69394254D01*
X192248211Y-69564523D01*
X192292002Y-69634215D01*
X192344184Y-69717262D01*
X192471738Y-69844816D01*
X192512776Y-69870602D01*
X192624477Y-69940789D01*
X192624480Y-69940790D01*
X192637875Y-69945477D01*
X192684604Y-69974838D01*
X192823139Y-70113373D01*
X192823149Y-70113384D01*
X192827479Y-70117714D01*
X192827480Y-70117715D01*
X192939284Y-70229519D01*
X192939286Y-70229520D01*
X192939290Y-70229523D01*
X193076209Y-70308572D01*
X193076216Y-70308576D01*
X193167368Y-70333000D01*
X193228942Y-70349499D01*
X193228943Y-70349499D01*
X193805400Y-70349499D01*
X193872439Y-70369184D01*
X193918194Y-70421988D01*
X193929400Y-70473498D01*
X193929400Y-70662370D01*
X193929401Y-70662375D01*
X193934601Y-70710745D01*
X193934601Y-70737251D01*
X193929400Y-70785626D01*
X193929400Y-70785631D01*
X193929400Y-70785632D01*
X193929400Y-71312369D01*
X193929401Y-71312373D01*
X193929717Y-71315313D01*
X193932316Y-71339492D01*
X193934601Y-71360741D01*
X193934601Y-71387248D01*
X193929400Y-71435628D01*
X193929400Y-71962368D01*
X193929401Y-71962374D01*
X193934601Y-72010746D01*
X193934601Y-72037251D01*
X193929400Y-72085626D01*
X193929400Y-72085631D01*
X193929400Y-72085632D01*
X193929400Y-72612369D01*
X193929401Y-72612373D01*
X193934601Y-72660741D01*
X193934601Y-72687248D01*
X193929400Y-72735628D01*
X193929400Y-72962939D01*
X193909715Y-73029978D01*
X193856911Y-73075733D01*
X193787753Y-73085677D01*
X193739430Y-73067934D01*
X193730444Y-73062288D01*
X193560170Y-73002707D01*
X193473252Y-72992914D01*
X193408838Y-72965847D01*
X193399455Y-72957375D01*
X191930434Y-71488355D01*
X191930432Y-71488352D01*
X191811561Y-71369481D01*
X191811560Y-71369480D01*
X191716738Y-71314735D01*
X191674629Y-71290423D01*
X191521901Y-71249499D01*
X191363787Y-71249499D01*
X191356191Y-71249499D01*
X191356175Y-71249500D01*
X186725499Y-71249500D01*
X186658460Y-71229815D01*
X186612705Y-71177011D01*
X186601499Y-71125500D01*
X186601499Y-70732925D01*
X186602279Y-70719040D01*
X186606565Y-70681003D01*
X186606565Y-70681000D01*
X186602279Y-70642962D01*
X186601499Y-70629078D01*
X186601499Y-70177156D01*
X186601498Y-70177154D01*
X186583616Y-70087256D01*
X186570736Y-70022504D01*
X186550992Y-69974838D01*
X186510396Y-69876829D01*
X186510389Y-69876816D01*
X186422788Y-69745713D01*
X186422785Y-69745709D01*
X186311291Y-69634215D01*
X186311287Y-69634212D01*
X186180184Y-69546611D01*
X186180171Y-69546604D01*
X186034501Y-69486266D01*
X186034489Y-69486263D01*
X185879845Y-69455502D01*
X185879842Y-69455502D01*
X185722158Y-69455502D01*
X185722155Y-69455502D01*
X185567510Y-69486263D01*
X185567498Y-69486266D01*
X185421828Y-69546604D01*
X185421815Y-69546611D01*
X185290712Y-69634212D01*
X185290708Y-69634215D01*
X185253681Y-69671243D01*
X185192358Y-69704728D01*
X185122666Y-69699744D01*
X185078319Y-69671243D01*
X185041291Y-69634215D01*
X185041287Y-69634212D01*
X184910184Y-69546611D01*
X184910171Y-69546604D01*
X184764501Y-69486266D01*
X184764489Y-69486263D01*
X184609845Y-69455502D01*
X184609842Y-69455502D01*
X184452158Y-69455502D01*
X184452155Y-69455502D01*
X184297510Y-69486263D01*
X184297498Y-69486266D01*
X184151828Y-69546604D01*
X184151815Y-69546611D01*
X184020712Y-69634212D01*
X184020708Y-69634215D01*
X183983681Y-69671243D01*
X183922358Y-69704728D01*
X183852666Y-69699744D01*
X183808319Y-69671243D01*
X183771291Y-69634215D01*
X183771287Y-69634212D01*
X183640184Y-69546611D01*
X183640171Y-69546604D01*
X183494501Y-69486266D01*
X183494489Y-69486263D01*
X183339845Y-69455502D01*
X183339842Y-69455502D01*
X183182158Y-69455502D01*
X183182155Y-69455502D01*
X183027510Y-69486263D01*
X183027498Y-69486266D01*
X182881828Y-69546604D01*
X182881815Y-69546611D01*
X182750712Y-69634212D01*
X182750708Y-69634215D01*
X182639214Y-69745709D01*
X182639211Y-69745713D01*
X182551610Y-69876816D01*
X182551603Y-69876829D01*
X182491265Y-70022499D01*
X182491262Y-70022511D01*
X182460501Y-70177154D01*
X180600500Y-70177154D01*
X180600500Y-62683299D01*
X180620185Y-62616260D01*
X180672989Y-62570505D01*
X180742147Y-62560561D01*
X180805703Y-62589586D01*
X180819006Y-62603021D01*
X180897686Y-62695650D01*
X181153580Y-62938046D01*
X181153587Y-62938051D01*
X181153589Y-62938053D01*
X181219064Y-62987826D01*
X181434182Y-63151354D01*
X181736202Y-63333074D01*
X181736206Y-63333075D01*
X181736210Y-63333078D01*
X182056088Y-63481070D01*
X182056092Y-63481070D01*
X182056099Y-63481074D01*
X182390122Y-63593619D01*
X182734355Y-63669391D01*
X183084763Y-63707500D01*
X183084769Y-63707500D01*
X183437231Y-63707500D01*
X183437237Y-63707500D01*
X183787645Y-63669391D01*
X184131878Y-63593619D01*
X184465901Y-63481074D01*
X184465908Y-63481070D01*
X184465911Y-63481070D01*
X184785789Y-63333078D01*
X184785798Y-63333074D01*
X185087818Y-63151354D01*
X185368420Y-62938046D01*
X185624314Y-62695650D01*
X185852501Y-62427008D01*
X186050305Y-62135269D01*
X186215407Y-61823854D01*
X186345871Y-61496414D01*
X186440168Y-61156788D01*
X186497191Y-60808957D01*
X186516274Y-60457000D01*
X186497191Y-60105043D01*
X186440168Y-59757212D01*
X186354433Y-59448422D01*
X186345873Y-59417591D01*
X186345872Y-59417589D01*
X186215411Y-59090155D01*
X186215402Y-59090137D01*
X186050305Y-58778731D01*
X185852501Y-58486992D01*
X185852497Y-58486987D01*
X185852494Y-58486983D01*
X185624314Y-58218350D01*
X185617864Y-58212240D01*
X185409135Y-58014521D01*
X185374003Y-57954129D01*
X185377098Y-57884328D01*
X185417440Y-57827282D01*
X185482219Y-57801101D01*
X185494411Y-57800500D01*
X208527589Y-57800500D01*
X208594628Y-57820185D01*
G37*
%TD.AperFunction*%
%TD*%
M02*
