%TF.GenerationSoftware,KiCad,Pcbnew,8.0.7*%
%TF.CreationDate,2025-01-10T16:13:56+05:30*%
%TF.ProjectId,STHDAQ_B0_COPY,53544844-4151-45f4-9230-5f434f50592e,rev?*%
%TF.SameCoordinates,Original*%
%TF.FileFunction,Plated,1,2,PTH,Drill*%
%TF.FilePolarity,Positive*%
%FSLAX46Y46*%
G04 Gerber Fmt 4.6, Leading zero omitted, Abs format (unit mm)*
G04 Created by KiCad (PCBNEW 8.0.7) date 2025-01-10 16:13:56*
%MOMM*%
%LPD*%
G01*
G04 APERTURE LIST*
%TA.AperFunction,ViaDrill*%
%ADD10C,0.300000*%
%TD*%
%TA.AperFunction,ComponentDrill*%
%ADD11C,3.200000*%
%TD*%
G04 APERTURE END LIST*
D10*
X182118000Y-77724000D03*
X185801000Y-70681002D03*
X185928000Y-77724000D03*
X186309000Y-83820000D03*
X188214000Y-86360000D03*
X188468000Y-84074000D03*
X189103000Y-83058000D03*
X189167557Y-83755020D03*
X189971316Y-92264520D03*
X189992000Y-87437000D03*
X190119000Y-89784000D03*
X190119000Y-90612000D03*
X190119000Y-93660000D03*
X190119000Y-95123000D03*
X190119000Y-96774000D03*
X190246000Y-86040000D03*
X190246000Y-88961000D03*
X190815252Y-90684366D03*
X191200000Y-77000000D03*
X191960000Y-86556897D03*
X192016446Y-93983000D03*
X192151000Y-82241652D03*
X192623000Y-80772000D03*
X192940000Y-89490000D03*
X192974000Y-69215000D03*
X193093695Y-68188197D03*
X193380921Y-73788077D03*
X193410000Y-64900000D03*
X194100000Y-86270000D03*
X194840000Y-64450000D03*
X195249800Y-74948999D03*
X195340000Y-83330000D03*
X196365884Y-83348776D03*
X196514946Y-73905054D03*
X196539998Y-71698998D03*
X196816446Y-73083554D03*
X196994632Y-78654632D03*
X197040000Y-76050000D03*
X197080000Y-86700000D03*
X197231000Y-87818000D03*
X197343795Y-70880205D03*
X197360000Y-77560000D03*
X198374000Y-81915000D03*
X198694243Y-90134999D03*
X198752696Y-75317304D03*
X198752696Y-76260000D03*
X198779000Y-73161759D03*
X198791000Y-80772000D03*
X199016764Y-78470980D03*
X199136000Y-65024000D03*
X199136000Y-90678000D03*
X199451430Y-76310000D03*
X199517000Y-86614000D03*
X200057257Y-77892471D03*
X200660000Y-63373000D03*
X200660000Y-95764846D03*
X200779000Y-71950000D03*
X200799417Y-93218000D03*
X200799417Y-94488000D03*
X200900000Y-76760000D03*
X201295000Y-89935000D03*
X201306100Y-73987057D03*
X201803000Y-90435000D03*
X202819000Y-74295000D03*
X203749763Y-74148999D03*
X203835000Y-86106000D03*
X203873731Y-69153731D03*
X204200000Y-95900000D03*
X204216000Y-76078000D03*
X204535999Y-62448000D03*
X204538999Y-90678000D03*
X204993200Y-73881998D03*
X205083199Y-72843758D03*
X205232000Y-76078000D03*
X205359000Y-90043000D03*
X206363418Y-76209855D03*
X207316002Y-83431000D03*
X207606382Y-82794067D03*
X207645000Y-77724000D03*
X207972000Y-84709000D03*
X209551553Y-84328000D03*
X209677000Y-88646000D03*
X210693000Y-87376000D03*
X211074000Y-96012000D03*
X211131998Y-93345000D03*
X211131998Y-94615000D03*
X211328000Y-90043000D03*
D11*
%TO.C,H2*%
X183261000Y-60457000D03*
%TO.C,H4*%
X183261000Y-100457000D03*
%TO.C,H3*%
X210761000Y-60457000D03*
%TO.C,H1*%
X210761000Y-100457000D03*
M02*
