%TF.GenerationSoftware,KiCad,Pcbnew,8.0.7*%
%TF.CreationDate,2025-01-13T12:12:40+05:30*%
%TF.ProjectId,STHDAQ_BX,53544844-4151-45f4-9258-2e6b69636164,rev?*%
%TF.SameCoordinates,Original*%
%TF.FileFunction,Copper,L2,Bot*%
%TF.FilePolarity,Positive*%
%FSLAX46Y46*%
G04 Gerber Fmt 4.6, Leading zero omitted, Abs format (unit mm)*
G04 Created by KiCad (PCBNEW 8.0.7) date 2025-01-13 12:12:40*
%MOMM*%
%LPD*%
G01*
G04 APERTURE LIST*
%TA.AperFunction,ComponentPad*%
%ADD10C,3.600000*%
%TD*%
%TA.AperFunction,ConnectorPad*%
%ADD11C,5.500000*%
%TD*%
%TA.AperFunction,ViaPad*%
%ADD12C,0.600000*%
%TD*%
%TA.AperFunction,Conductor*%
%ADD13C,0.200000*%
%TD*%
G04 APERTURE END LIST*
D10*
%TO.P,H4,1*%
%TO.N,N/C*%
X201900000Y-131900000D03*
D11*
X201900000Y-131900000D03*
%TD*%
D10*
%TO.P,H3,1*%
%TO.N,N/C*%
X174000000Y-132000000D03*
D11*
X174000000Y-132000000D03*
%TD*%
%TO.P,H2,1*%
%TO.N,N/C*%
X174000000Y-84200000D03*
D10*
X174000000Y-84200000D03*
%TD*%
%TO.P,H1,1*%
%TO.N,N/C*%
X201900000Y-84100000D03*
D11*
X201900000Y-84100000D03*
%TD*%
D12*
%TO.N,Net-(U5-A3{slash}D3)*%
X194900000Y-90600000D03*
%TO.N,Net-(U5-A2{slash}D2)*%
X197440000Y-90600000D03*
%TO.N,Net-(U5-A1{slash}D1)*%
X199980000Y-90600000D03*
%TO.N,Net-(U5-A0{slash}D0)*%
X202520000Y-90600000D03*
%TO.N,Net-(U5-A3{slash}D3)*%
X184840000Y-106880000D03*
%TO.N,5BVCC*%
X181110000Y-84403900D03*
X181280000Y-107550000D03*
%TO.N,REF2.5*%
X177260000Y-106000000D03*
X183490000Y-115820000D03*
%TO.N,Earth*%
X184832500Y-115180000D03*
X184857500Y-116260000D03*
X188070000Y-119300000D03*
X178400000Y-127810000D03*
X194390000Y-125820000D03*
X196780000Y-124160000D03*
X196820000Y-125040000D03*
X197310000Y-127150000D03*
X197330000Y-126240000D03*
X199390000Y-125490000D03*
X202310000Y-123500000D03*
X203870000Y-121290000D03*
X198250000Y-113350000D03*
X199930000Y-107600000D03*
X189510000Y-83880000D03*
X187380000Y-82400000D03*
X179520000Y-88510000D03*
X176030000Y-90080000D03*
X178600000Y-97480000D03*
X175970000Y-98590000D03*
X175910000Y-100530000D03*
X179460000Y-107700000D03*
X181590000Y-114890000D03*
X181540000Y-116120000D03*
X181552500Y-117460000D03*
X181702500Y-118730000D03*
X181619039Y-120409428D03*
X181672500Y-121880000D03*
X181722500Y-124930000D03*
X181672500Y-123290000D03*
X174970000Y-122160000D03*
%TO.N,5BVCC*%
X175230000Y-123480000D03*
X179948554Y-110631446D03*
%TO.N,/SYNC{slash}PDWN*%
X188240000Y-127020000D03*
X189920000Y-119020000D03*
%TO.N,Net-(U5-A2{slash}D2)*%
X185720000Y-109550000D03*
%TO.N,Net-(U5-A1{slash}D1)*%
X186990000Y-110040000D03*
%TO.N,Net-(U5-A0{slash}D0)*%
X188300000Y-109810000D03*
%TO.N,/SCLK*%
X191100000Y-113210000D03*
X193530000Y-114960000D03*
%TO.N,/RESET*%
X192720000Y-127250000D03*
X190240000Y-125280000D03*
%TD*%
D13*
%TO.N,Net-(U5-A1{slash}D1)*%
X198700000Y-96963002D02*
X186990000Y-108673002D01*
X198700000Y-91880000D02*
X198700000Y-96963002D01*
X186990000Y-108673002D02*
X186990000Y-110040000D01*
X199980000Y-90600000D02*
X198700000Y-91880000D01*
%TO.N,Net-(U5-A3{slash}D3)*%
X194900000Y-98720000D02*
X194900000Y-90600000D01*
X191287866Y-102332134D02*
X194900000Y-98720000D01*
X191287866Y-102342134D02*
X191287866Y-102332134D01*
%TO.N,Net-(U5-A2{slash}D2)*%
X197050000Y-90990000D02*
X197440000Y-90600000D01*
X185720000Y-108910000D02*
X197050000Y-97580000D01*
X197050000Y-97580000D02*
X197050000Y-90990000D01*
X185720000Y-109550000D02*
X185720000Y-108910000D01*
%TO.N,Net-(U5-A0{slash}D0)*%
X188370000Y-108400000D02*
X188370000Y-109740000D01*
X200030000Y-96740000D02*
X188370000Y-108400000D01*
X188370000Y-109740000D02*
X188300000Y-109810000D01*
X202520000Y-90600000D02*
X200030000Y-93090000D01*
X200030000Y-93090000D02*
X200030000Y-96740000D01*
%TO.N,Net-(U5-A3{slash}D3)*%
X185010000Y-106710000D02*
X184840000Y-106880000D01*
X186920000Y-106710000D02*
X185010000Y-106710000D01*
X191287866Y-102342134D02*
X186920000Y-106710000D01*
%TO.N,REF2.5*%
X177260000Y-107200000D02*
X177260000Y-106000000D01*
X183490000Y-113430000D02*
X177260000Y-107200000D01*
X183490000Y-115820000D02*
X183490000Y-113430000D01*
%TO.N,5BVCC*%
X181280000Y-107550000D02*
X181280000Y-84573900D01*
X181280000Y-84573900D02*
X181110000Y-84403900D01*
X176680000Y-122030000D02*
X175230000Y-123480000D01*
X176680000Y-113250000D02*
X176680000Y-122030000D01*
X179298554Y-110631446D02*
X176680000Y-113250000D01*
X179948554Y-110631446D02*
X179298554Y-110631446D01*
%TO.N,/SYNC{slash}PDWN*%
X188750000Y-120190000D02*
X189920000Y-119020000D01*
X188750000Y-126510000D02*
X188750000Y-120190000D01*
X188240000Y-127020000D02*
X188750000Y-126510000D01*
%TO.N,/SCLK*%
X192680000Y-114790000D02*
X191100000Y-113210000D01*
X193530000Y-114960000D02*
X193360000Y-114790000D01*
X193360000Y-114790000D02*
X192680000Y-114790000D01*
%TO.N,/RESET*%
X190750000Y-125280000D02*
X192720000Y-127250000D01*
X190240000Y-125280000D02*
X190750000Y-125280000D01*
%TD*%
%TA.AperFunction,Conductor*%
%TO.N,Earth*%
G36*
X203003736Y-80500726D02*
G01*
X203293796Y-80518271D01*
X203308659Y-80520076D01*
X203590798Y-80571780D01*
X203605335Y-80575363D01*
X203879172Y-80660695D01*
X203893163Y-80666000D01*
X204154743Y-80783727D01*
X204167989Y-80790680D01*
X204413465Y-80939075D01*
X204425776Y-80947573D01*
X204476879Y-80987609D01*
X204651573Y-81124473D01*
X204662781Y-81134403D01*
X204865596Y-81337218D01*
X204875526Y-81348426D01*
X204995481Y-81501538D01*
X205052422Y-81574217D01*
X205060928Y-81586540D01*
X205209316Y-81832004D01*
X205216275Y-81845263D01*
X205333997Y-82106831D01*
X205339306Y-82120832D01*
X205424635Y-82394663D01*
X205428219Y-82409201D01*
X205479923Y-82691340D01*
X205481728Y-82706205D01*
X205499274Y-82996263D01*
X205499500Y-83003750D01*
X205499500Y-132996249D01*
X205499274Y-133003736D01*
X205481728Y-133293794D01*
X205479923Y-133308659D01*
X205428219Y-133590798D01*
X205424635Y-133605336D01*
X205339306Y-133879167D01*
X205333997Y-133893168D01*
X205216275Y-134154736D01*
X205209316Y-134167995D01*
X205060928Y-134413459D01*
X205052422Y-134425782D01*
X204875526Y-134651573D01*
X204865596Y-134662781D01*
X204662781Y-134865596D01*
X204651573Y-134875526D01*
X204425782Y-135052422D01*
X204413459Y-135060928D01*
X204167995Y-135209316D01*
X204154736Y-135216275D01*
X203893168Y-135333997D01*
X203879167Y-135339306D01*
X203605336Y-135424635D01*
X203590798Y-135428219D01*
X203308659Y-135479923D01*
X203293794Y-135481728D01*
X203003736Y-135499274D01*
X202996249Y-135499500D01*
X173003751Y-135499500D01*
X172996264Y-135499274D01*
X172706205Y-135481728D01*
X172691340Y-135479923D01*
X172409201Y-135428219D01*
X172394663Y-135424635D01*
X172120832Y-135339306D01*
X172106831Y-135333997D01*
X171845263Y-135216275D01*
X171832004Y-135209316D01*
X171734709Y-135150499D01*
X171586537Y-135060926D01*
X171574217Y-135052422D01*
X171538033Y-135024074D01*
X171410388Y-134924070D01*
X171348426Y-134875526D01*
X171337218Y-134865596D01*
X171134403Y-134662781D01*
X171124473Y-134651573D01*
X171079645Y-134594354D01*
X170947573Y-134425776D01*
X170939075Y-134413465D01*
X170790680Y-134167989D01*
X170783727Y-134154743D01*
X170666000Y-133893163D01*
X170660693Y-133879167D01*
X170657841Y-133870016D01*
X170575363Y-133605335D01*
X170571780Y-133590798D01*
X170520076Y-133308659D01*
X170518271Y-133293794D01*
X170516641Y-133266854D01*
X170500726Y-133003736D01*
X170500500Y-132996249D01*
X170500500Y-132072963D01*
X170520185Y-132005924D01*
X170523729Y-132002853D01*
X170720871Y-132002853D01*
X170743477Y-132038028D01*
X170748318Y-132066250D01*
X170763808Y-132351954D01*
X170820833Y-132699793D01*
X170820834Y-132699796D01*
X170915126Y-133039408D01*
X170915127Y-133039410D01*
X171045588Y-133366844D01*
X171045597Y-133366862D01*
X171157678Y-133578269D01*
X171210695Y-133678269D01*
X171351767Y-133886335D01*
X171408498Y-133970006D01*
X171408505Y-133970016D01*
X171576671Y-134167995D01*
X171636686Y-134238650D01*
X171892580Y-134481046D01*
X172173182Y-134694354D01*
X172475202Y-134876074D01*
X172475206Y-134876075D01*
X172475210Y-134876078D01*
X172795088Y-135024070D01*
X172795092Y-135024070D01*
X172795099Y-135024074D01*
X173129122Y-135136619D01*
X173473355Y-135212391D01*
X173823763Y-135250500D01*
X173823769Y-135250500D01*
X174176231Y-135250500D01*
X174176237Y-135250500D01*
X174526645Y-135212391D01*
X174870878Y-135136619D01*
X175204901Y-135024074D01*
X175204908Y-135024070D01*
X175204911Y-135024070D01*
X175524789Y-134876078D01*
X175524798Y-134876074D01*
X175826818Y-134694354D01*
X176107420Y-134481046D01*
X176363314Y-134238650D01*
X176591501Y-133970008D01*
X176789305Y-133678269D01*
X176954407Y-133366854D01*
X177084871Y-133039414D01*
X177179168Y-132699788D01*
X177236191Y-132351957D01*
X177255274Y-132000000D01*
X177249852Y-131899997D01*
X198644726Y-131899997D01*
X198644726Y-131900002D01*
X198663808Y-132251954D01*
X198720833Y-132599793D01*
X198720834Y-132599796D01*
X198815126Y-132939408D01*
X198815127Y-132939410D01*
X198945588Y-133266844D01*
X198945597Y-133266862D01*
X199110695Y-133578269D01*
X199308498Y-133870006D01*
X199308505Y-133870016D01*
X199536685Y-134138649D01*
X199536686Y-134138650D01*
X199792580Y-134381046D01*
X200073182Y-134594354D01*
X200375202Y-134776074D01*
X200375206Y-134776075D01*
X200375210Y-134776078D01*
X200695088Y-134924070D01*
X200695092Y-134924070D01*
X200695099Y-134924074D01*
X201029122Y-135036619D01*
X201373355Y-135112391D01*
X201723763Y-135150500D01*
X201723769Y-135150500D01*
X202076231Y-135150500D01*
X202076237Y-135150500D01*
X202426645Y-135112391D01*
X202770878Y-135036619D01*
X203104901Y-134924074D01*
X203104908Y-134924070D01*
X203104911Y-134924070D01*
X203424789Y-134776078D01*
X203424798Y-134776074D01*
X203726818Y-134594354D01*
X204007420Y-134381046D01*
X204263314Y-134138650D01*
X204491501Y-133870008D01*
X204689305Y-133578269D01*
X204854407Y-133266854D01*
X204984871Y-132939414D01*
X204986345Y-132934108D01*
X205013180Y-132837453D01*
X205079168Y-132599788D01*
X205136191Y-132251957D01*
X205155274Y-131900000D01*
X205136191Y-131548043D01*
X205079168Y-131200212D01*
X205036704Y-131047271D01*
X204984873Y-130860591D01*
X204984872Y-130860589D01*
X204854411Y-130533155D01*
X204854402Y-130533137D01*
X204689305Y-130221731D01*
X204491501Y-129929992D01*
X204491497Y-129929987D01*
X204491494Y-129929983D01*
X204263314Y-129661350D01*
X204007420Y-129418954D01*
X204007413Y-129418948D01*
X204007410Y-129418946D01*
X203726815Y-129205644D01*
X203424802Y-129023928D01*
X203424789Y-129023921D01*
X203104911Y-128875929D01*
X203104906Y-128875928D01*
X203104903Y-128875927D01*
X203104901Y-128875926D01*
X202998432Y-128840052D01*
X202770880Y-128763381D01*
X202426643Y-128687608D01*
X202076238Y-128649500D01*
X202076237Y-128649500D01*
X201723763Y-128649500D01*
X201723761Y-128649500D01*
X201373356Y-128687608D01*
X201029119Y-128763381D01*
X200695093Y-128875928D01*
X200695088Y-128875929D01*
X200375210Y-129023921D01*
X200375197Y-129023928D01*
X200073184Y-129205644D01*
X199792589Y-129418946D01*
X199792580Y-129418954D01*
X199536685Y-129661350D01*
X199308505Y-129929983D01*
X199308498Y-129929993D01*
X199110695Y-130221730D01*
X198945597Y-130533137D01*
X198945588Y-130533155D01*
X198815127Y-130860589D01*
X198815126Y-130860591D01*
X198720834Y-131200203D01*
X198720833Y-131200206D01*
X198663808Y-131548045D01*
X198644726Y-131899997D01*
X177249852Y-131899997D01*
X177236191Y-131648043D01*
X177179168Y-131300212D01*
X177136704Y-131147271D01*
X177084873Y-130960591D01*
X177084872Y-130960589D01*
X176954411Y-130633155D01*
X176954402Y-130633137D01*
X176901390Y-130533146D01*
X176789305Y-130321731D01*
X176591501Y-130029992D01*
X176591497Y-130029987D01*
X176591494Y-130029983D01*
X176363314Y-129761350D01*
X176257745Y-129661350D01*
X176107420Y-129518954D01*
X176107413Y-129518948D01*
X176107410Y-129518946D01*
X175826815Y-129305644D01*
X175524802Y-129123928D01*
X175524789Y-129123921D01*
X175204911Y-128975929D01*
X175204906Y-128975928D01*
X175204903Y-128975927D01*
X175204901Y-128975926D01*
X175098432Y-128940052D01*
X174870880Y-128863381D01*
X174526643Y-128787608D01*
X174176238Y-128749500D01*
X174176237Y-128749500D01*
X173823763Y-128749500D01*
X173823761Y-128749500D01*
X173473356Y-128787608D01*
X173129119Y-128863381D01*
X172795093Y-128975928D01*
X172795088Y-128975929D01*
X172475210Y-129123921D01*
X172475197Y-129123928D01*
X172173184Y-129305644D01*
X171892589Y-129518946D01*
X171892580Y-129518954D01*
X171636685Y-129761350D01*
X171408505Y-130029983D01*
X171408498Y-130029993D01*
X171210695Y-130321730D01*
X171045597Y-130633137D01*
X171045588Y-130633155D01*
X170915127Y-130960589D01*
X170915126Y-130960591D01*
X170820834Y-131300203D01*
X170820833Y-131300206D01*
X170763808Y-131648045D01*
X170748318Y-131933749D01*
X170725033Y-131999625D01*
X170720871Y-132002853D01*
X170523729Y-132002853D01*
X170528429Y-131998780D01*
X170503806Y-131955478D01*
X170500500Y-131927036D01*
X170500500Y-127019996D01*
X187434435Y-127019996D01*
X187434435Y-127020003D01*
X187454630Y-127199249D01*
X187454631Y-127199254D01*
X187514211Y-127369523D01*
X187610184Y-127522262D01*
X187737738Y-127649816D01*
X187890478Y-127745789D01*
X188060745Y-127805368D01*
X188060750Y-127805369D01*
X188239996Y-127825565D01*
X188240000Y-127825565D01*
X188240004Y-127825565D01*
X188419249Y-127805369D01*
X188419252Y-127805368D01*
X188419255Y-127805368D01*
X188589522Y-127745789D01*
X188742262Y-127649816D01*
X188869816Y-127522262D01*
X188965789Y-127369522D01*
X189025368Y-127199255D01*
X189035161Y-127112329D01*
X189062226Y-127047918D01*
X189070690Y-127038543D01*
X189108506Y-127000728D01*
X189108511Y-127000724D01*
X189118714Y-126990520D01*
X189118716Y-126990520D01*
X189230520Y-126878716D01*
X189252442Y-126840745D01*
X189282770Y-126788216D01*
X189306140Y-126747738D01*
X189309577Y-126741785D01*
X189350501Y-126589057D01*
X189350501Y-126430943D01*
X189350501Y-126423348D01*
X189350500Y-126423330D01*
X189350500Y-125799391D01*
X189370185Y-125732352D01*
X189422989Y-125686597D01*
X189492147Y-125676653D01*
X189555703Y-125705678D01*
X189579493Y-125733418D01*
X189610184Y-125782262D01*
X189737738Y-125909816D01*
X189828080Y-125966582D01*
X189867735Y-125991499D01*
X189890478Y-126005789D01*
X190060742Y-126065367D01*
X190060745Y-126065368D01*
X190060750Y-126065369D01*
X190239996Y-126085565D01*
X190240000Y-126085565D01*
X190240004Y-126085565D01*
X190419249Y-126065369D01*
X190419252Y-126065368D01*
X190419255Y-126065368D01*
X190419256Y-126065367D01*
X190419259Y-126065367D01*
X190459508Y-126051283D01*
X190543414Y-126021922D01*
X190613190Y-126018360D01*
X190672048Y-126051283D01*
X191889298Y-127268534D01*
X191922783Y-127329857D01*
X191924837Y-127342331D01*
X191934630Y-127429249D01*
X191994210Y-127599521D01*
X192025812Y-127649815D01*
X192090184Y-127752262D01*
X192217738Y-127879816D01*
X192370478Y-127975789D01*
X192540745Y-128035368D01*
X192540750Y-128035369D01*
X192719996Y-128055565D01*
X192720000Y-128055565D01*
X192720004Y-128055565D01*
X192899249Y-128035369D01*
X192899252Y-128035368D01*
X192899255Y-128035368D01*
X193069522Y-127975789D01*
X193222262Y-127879816D01*
X193349816Y-127752262D01*
X193445789Y-127599522D01*
X193505368Y-127429255D01*
X193512098Y-127369523D01*
X193525565Y-127250003D01*
X193525565Y-127249996D01*
X193505369Y-127070750D01*
X193505368Y-127070745D01*
X193497380Y-127047918D01*
X193445789Y-126900478D01*
X193349816Y-126747738D01*
X193222262Y-126620184D01*
X193172719Y-126589054D01*
X193069521Y-126524210D01*
X192899249Y-126464630D01*
X192812331Y-126454837D01*
X192747917Y-126427770D01*
X192738534Y-126419298D01*
X191237590Y-124918355D01*
X191237588Y-124918352D01*
X191118717Y-124799481D01*
X191118709Y-124799475D01*
X191016936Y-124740717D01*
X191016934Y-124740716D01*
X190981790Y-124720425D01*
X190981789Y-124720424D01*
X190969263Y-124717067D01*
X190829057Y-124679499D01*
X190829054Y-124679499D01*
X190822411Y-124679499D01*
X190755372Y-124659814D01*
X190745097Y-124652445D01*
X190742262Y-124650184D01*
X190589523Y-124554211D01*
X190419254Y-124494631D01*
X190419249Y-124494630D01*
X190240004Y-124474435D01*
X190239996Y-124474435D01*
X190060750Y-124494630D01*
X190060745Y-124494631D01*
X189890476Y-124554211D01*
X189737737Y-124650184D01*
X189610184Y-124777737D01*
X189610182Y-124777740D01*
X189579493Y-124826581D01*
X189527158Y-124872872D01*
X189458104Y-124883519D01*
X189394256Y-124855143D01*
X189355885Y-124796753D01*
X189350500Y-124760608D01*
X189350500Y-120490096D01*
X189370185Y-120423057D01*
X189386815Y-120402419D01*
X189938535Y-119850698D01*
X189999856Y-119817215D01*
X190012311Y-119815163D01*
X190099255Y-119805368D01*
X190269522Y-119745789D01*
X190422262Y-119649816D01*
X190549816Y-119522262D01*
X190645789Y-119369522D01*
X190705368Y-119199255D01*
X190725565Y-119020000D01*
X190722419Y-118992082D01*
X190705369Y-118840750D01*
X190705368Y-118840745D01*
X190645788Y-118670476D01*
X190549815Y-118517737D01*
X190422262Y-118390184D01*
X190269523Y-118294211D01*
X190099254Y-118234631D01*
X190099249Y-118234630D01*
X189920004Y-118214435D01*
X189919996Y-118214435D01*
X189740750Y-118234630D01*
X189740745Y-118234631D01*
X189570476Y-118294211D01*
X189417737Y-118390184D01*
X189290184Y-118517737D01*
X189194210Y-118670478D01*
X189134630Y-118840750D01*
X189124837Y-118927668D01*
X189097770Y-118992082D01*
X189089298Y-119001465D01*
X188381286Y-119709478D01*
X188269481Y-119821282D01*
X188269479Y-119821285D01*
X188219361Y-119908094D01*
X188219359Y-119908096D01*
X188190425Y-119958209D01*
X188190424Y-119958210D01*
X188190423Y-119958215D01*
X188149499Y-120110943D01*
X188149499Y-120110945D01*
X188149499Y-120279046D01*
X188149500Y-120279059D01*
X188149500Y-126115592D01*
X188129815Y-126182631D01*
X188077011Y-126228386D01*
X188066455Y-126232634D01*
X187890476Y-126294211D01*
X187737737Y-126390184D01*
X187610184Y-126517737D01*
X187514211Y-126670476D01*
X187454631Y-126840745D01*
X187454630Y-126840750D01*
X187434435Y-127019996D01*
X170500500Y-127019996D01*
X170500500Y-123479996D01*
X174424435Y-123479996D01*
X174424435Y-123480003D01*
X174444630Y-123659249D01*
X174444631Y-123659254D01*
X174504211Y-123829523D01*
X174600184Y-123982262D01*
X174727738Y-124109816D01*
X174880478Y-124205789D01*
X175050745Y-124265368D01*
X175050750Y-124265369D01*
X175229996Y-124285565D01*
X175230000Y-124285565D01*
X175230004Y-124285565D01*
X175409249Y-124265369D01*
X175409252Y-124265368D01*
X175409255Y-124265368D01*
X175579522Y-124205789D01*
X175732262Y-124109816D01*
X175859816Y-123982262D01*
X175955789Y-123829522D01*
X176015368Y-123659255D01*
X176025161Y-123572329D01*
X176052226Y-123507918D01*
X176060690Y-123498543D01*
X177160520Y-122398716D01*
X177239577Y-122261784D01*
X177280501Y-122109057D01*
X177280501Y-121950942D01*
X177280501Y-121943347D01*
X177280500Y-121943329D01*
X177280500Y-113550097D01*
X177300185Y-113483058D01*
X177316819Y-113462416D01*
X178354605Y-112424630D01*
X179420391Y-111358843D01*
X179481712Y-111325360D01*
X179551404Y-111330344D01*
X179574040Y-111341531D01*
X179599032Y-111357235D01*
X179769299Y-111416814D01*
X179769304Y-111416815D01*
X179948550Y-111437011D01*
X179948554Y-111437011D01*
X179948558Y-111437011D01*
X180127803Y-111416815D01*
X180127806Y-111416814D01*
X180127809Y-111416814D01*
X180298076Y-111357235D01*
X180380113Y-111305687D01*
X180447347Y-111286687D01*
X180514183Y-111307054D01*
X180533765Y-111323000D01*
X182853181Y-113642416D01*
X182886666Y-113703739D01*
X182889500Y-113730097D01*
X182889500Y-115237587D01*
X182869815Y-115304626D01*
X182862450Y-115314896D01*
X182860186Y-115317734D01*
X182764211Y-115470476D01*
X182704631Y-115640745D01*
X182704630Y-115640750D01*
X182684435Y-115819996D01*
X182684435Y-115820003D01*
X182704630Y-115999249D01*
X182704631Y-115999254D01*
X182764211Y-116169523D01*
X182860184Y-116322262D01*
X182987738Y-116449816D01*
X183140478Y-116545789D01*
X183310745Y-116605368D01*
X183310750Y-116605369D01*
X183489996Y-116625565D01*
X183490000Y-116625565D01*
X183490004Y-116625565D01*
X183669249Y-116605369D01*
X183669252Y-116605368D01*
X183669255Y-116605368D01*
X183839522Y-116545789D01*
X183992262Y-116449816D01*
X184119816Y-116322262D01*
X184215789Y-116169522D01*
X184275368Y-115999255D01*
X184295565Y-115820000D01*
X184287156Y-115745369D01*
X184275369Y-115640750D01*
X184275368Y-115640745D01*
X184215788Y-115470476D01*
X184158642Y-115379529D01*
X184119816Y-115317738D01*
X184119814Y-115317736D01*
X184119813Y-115317734D01*
X184117550Y-115314896D01*
X184116659Y-115312715D01*
X184116111Y-115311842D01*
X184116264Y-115311745D01*
X184091144Y-115250209D01*
X184090500Y-115237587D01*
X184090500Y-113350945D01*
X184090500Y-113350943D01*
X184052733Y-113209996D01*
X190294435Y-113209996D01*
X190294435Y-113210003D01*
X190314630Y-113389249D01*
X190314631Y-113389254D01*
X190374211Y-113559523D01*
X190464829Y-113703739D01*
X190470184Y-113712262D01*
X190597738Y-113839816D01*
X190750478Y-113935789D01*
X190920745Y-113995368D01*
X191007669Y-114005161D01*
X191072080Y-114032226D01*
X191081465Y-114040700D01*
X192195139Y-115154374D01*
X192195149Y-115154385D01*
X192199479Y-115158715D01*
X192199480Y-115158716D01*
X192311284Y-115270520D01*
X192311286Y-115270521D01*
X192311290Y-115270524D01*
X192448209Y-115349573D01*
X192448216Y-115349577D01*
X192560019Y-115379534D01*
X192600942Y-115390500D01*
X192600943Y-115390500D01*
X192786561Y-115390500D01*
X192853600Y-115410185D01*
X192891553Y-115448526D01*
X192900184Y-115462262D01*
X193027738Y-115589816D01*
X193180478Y-115685789D01*
X193350745Y-115745368D01*
X193350750Y-115745369D01*
X193529996Y-115765565D01*
X193530000Y-115765565D01*
X193530004Y-115765565D01*
X193709249Y-115745369D01*
X193709252Y-115745368D01*
X193709255Y-115745368D01*
X193879522Y-115685789D01*
X194032262Y-115589816D01*
X194159816Y-115462262D01*
X194255789Y-115309522D01*
X194315368Y-115139255D01*
X194335565Y-114960000D01*
X194315368Y-114780745D01*
X194255789Y-114610478D01*
X194159816Y-114457738D01*
X194032262Y-114330184D01*
X193879523Y-114234211D01*
X193709254Y-114174631D01*
X193709249Y-114174630D01*
X193530004Y-114154435D01*
X193529996Y-114154435D01*
X193350750Y-114174630D01*
X193343055Y-114177322D01*
X193328141Y-114182541D01*
X193287190Y-114189499D01*
X193273347Y-114189499D01*
X193273331Y-114189500D01*
X192980097Y-114189500D01*
X192913058Y-114169815D01*
X192892416Y-114153181D01*
X191930700Y-113191465D01*
X191897215Y-113130142D01*
X191895163Y-113117686D01*
X191885368Y-113030745D01*
X191825789Y-112860478D01*
X191729816Y-112707738D01*
X191602262Y-112580184D01*
X191449523Y-112484211D01*
X191279254Y-112424631D01*
X191279249Y-112424630D01*
X191100004Y-112404435D01*
X191099996Y-112404435D01*
X190920750Y-112424630D01*
X190920745Y-112424631D01*
X190750476Y-112484211D01*
X190597737Y-112580184D01*
X190470184Y-112707737D01*
X190374211Y-112860476D01*
X190314631Y-113030745D01*
X190314630Y-113030750D01*
X190294435Y-113209996D01*
X184052733Y-113209996D01*
X184049577Y-113198216D01*
X184003072Y-113117666D01*
X183970524Y-113061290D01*
X183970521Y-113061286D01*
X183970520Y-113061284D01*
X183858716Y-112949480D01*
X183858715Y-112949479D01*
X183854385Y-112945149D01*
X183854374Y-112945139D01*
X177896819Y-106987584D01*
X177863334Y-106926261D01*
X177860500Y-106899903D01*
X177860500Y-106582412D01*
X177880185Y-106515373D01*
X177887555Y-106505097D01*
X177889810Y-106502267D01*
X177889816Y-106502262D01*
X177985789Y-106349522D01*
X178045368Y-106179255D01*
X178048190Y-106154211D01*
X178065565Y-106000003D01*
X178065565Y-105999996D01*
X178045369Y-105820750D01*
X178045368Y-105820745D01*
X177985788Y-105650476D01*
X177889815Y-105497737D01*
X177762262Y-105370184D01*
X177609523Y-105274211D01*
X177439254Y-105214631D01*
X177439249Y-105214630D01*
X177260004Y-105194435D01*
X177259996Y-105194435D01*
X177080750Y-105214630D01*
X177080745Y-105214631D01*
X176910476Y-105274211D01*
X176757737Y-105370184D01*
X176630184Y-105497737D01*
X176534211Y-105650476D01*
X176474631Y-105820745D01*
X176474630Y-105820750D01*
X176454435Y-105999996D01*
X176454435Y-106000003D01*
X176474630Y-106179249D01*
X176474631Y-106179254D01*
X176534211Y-106349523D01*
X176630185Y-106502263D01*
X176632445Y-106505097D01*
X176633334Y-106507275D01*
X176633889Y-106508158D01*
X176633734Y-106508255D01*
X176658855Y-106569783D01*
X176659500Y-106582412D01*
X176659500Y-107113330D01*
X176659499Y-107113348D01*
X176659499Y-107279054D01*
X176659498Y-107279054D01*
X176700423Y-107431785D01*
X176729358Y-107481900D01*
X176729359Y-107481904D01*
X176729360Y-107481904D01*
X176748873Y-107515703D01*
X176779479Y-107568714D01*
X176779481Y-107568717D01*
X176898349Y-107687585D01*
X176898355Y-107687590D01*
X179089353Y-109878588D01*
X179122838Y-109939911D01*
X179117854Y-110009603D01*
X179075982Y-110065536D01*
X179063672Y-110073656D01*
X178929841Y-110150923D01*
X178929836Y-110150927D01*
X176199481Y-112881282D01*
X176199480Y-112881284D01*
X176160108Y-112949480D01*
X176149361Y-112968094D01*
X176149359Y-112968096D01*
X176120425Y-113018209D01*
X176120424Y-113018210D01*
X176108882Y-113061286D01*
X176079499Y-113170943D01*
X176079499Y-113170945D01*
X176079499Y-113339046D01*
X176079500Y-113339059D01*
X176079500Y-121729902D01*
X176059815Y-121796941D01*
X176043181Y-121817583D01*
X175211465Y-122649298D01*
X175150142Y-122682783D01*
X175137668Y-122684837D01*
X175050750Y-122694630D01*
X174880478Y-122754210D01*
X174727737Y-122850184D01*
X174600184Y-122977737D01*
X174504211Y-123130476D01*
X174444631Y-123300745D01*
X174444630Y-123300750D01*
X174424435Y-123479996D01*
X170500500Y-123479996D01*
X170500500Y-84272963D01*
X170520185Y-84205924D01*
X170523729Y-84202853D01*
X170720871Y-84202853D01*
X170743477Y-84238028D01*
X170748318Y-84266250D01*
X170763808Y-84551954D01*
X170820833Y-84899793D01*
X170820834Y-84899796D01*
X170915126Y-85239408D01*
X170915127Y-85239410D01*
X171045588Y-85566844D01*
X171045593Y-85566854D01*
X171210695Y-85878269D01*
X171340697Y-86070008D01*
X171408498Y-86170006D01*
X171408505Y-86170016D01*
X171551744Y-86338649D01*
X171636686Y-86438650D01*
X171892580Y-86681046D01*
X172173182Y-86894354D01*
X172475202Y-87076074D01*
X172475206Y-87076075D01*
X172475210Y-87076078D01*
X172795088Y-87224070D01*
X172795092Y-87224070D01*
X172795099Y-87224074D01*
X173129122Y-87336619D01*
X173473355Y-87412391D01*
X173823763Y-87450500D01*
X173823769Y-87450500D01*
X174176231Y-87450500D01*
X174176237Y-87450500D01*
X174526645Y-87412391D01*
X174870878Y-87336619D01*
X175204901Y-87224074D01*
X175204908Y-87224070D01*
X175204911Y-87224070D01*
X175524789Y-87076078D01*
X175524798Y-87076074D01*
X175826818Y-86894354D01*
X176107420Y-86681046D01*
X176363314Y-86438650D01*
X176591501Y-86170008D01*
X176789305Y-85878269D01*
X176954407Y-85566854D01*
X177084871Y-85239414D01*
X177179168Y-84899788D01*
X177236191Y-84551957D01*
X177244219Y-84403896D01*
X180304435Y-84403896D01*
X180304435Y-84403903D01*
X180324630Y-84583149D01*
X180324631Y-84583154D01*
X180384211Y-84753423D01*
X180476179Y-84899788D01*
X180480184Y-84906162D01*
X180607738Y-85033716D01*
X180621473Y-85042346D01*
X180667762Y-85094678D01*
X180679500Y-85147339D01*
X180679500Y-106967587D01*
X180659815Y-107034626D01*
X180652450Y-107044896D01*
X180650186Y-107047734D01*
X180554211Y-107200476D01*
X180494631Y-107370745D01*
X180494630Y-107370750D01*
X180474435Y-107549996D01*
X180474435Y-107550003D01*
X180494630Y-107729249D01*
X180494631Y-107729254D01*
X180554211Y-107899523D01*
X180650184Y-108052262D01*
X180777738Y-108179816D01*
X180930478Y-108275789D01*
X181100745Y-108335368D01*
X181100750Y-108335369D01*
X181279996Y-108355565D01*
X181280000Y-108355565D01*
X181280004Y-108355565D01*
X181459249Y-108335369D01*
X181459252Y-108335368D01*
X181459255Y-108335368D01*
X181629522Y-108275789D01*
X181782262Y-108179816D01*
X181909816Y-108052262D01*
X182005789Y-107899522D01*
X182065368Y-107729255D01*
X182065369Y-107729249D01*
X182085565Y-107550003D01*
X182085565Y-107549996D01*
X182065369Y-107370750D01*
X182065368Y-107370745D01*
X182005788Y-107200476D01*
X181955811Y-107120939D01*
X181909816Y-107047738D01*
X181909814Y-107047736D01*
X181909813Y-107047734D01*
X181907550Y-107044896D01*
X181906659Y-107042715D01*
X181906111Y-107041842D01*
X181906264Y-107041745D01*
X181881144Y-106980209D01*
X181880500Y-106967587D01*
X181880500Y-106879996D01*
X184034435Y-106879996D01*
X184034435Y-106880003D01*
X184054630Y-107059249D01*
X184054631Y-107059254D01*
X184114211Y-107229523D01*
X184210184Y-107382262D01*
X184337738Y-107509816D01*
X184490478Y-107605789D01*
X184660745Y-107665368D01*
X184660750Y-107665369D01*
X184839996Y-107685565D01*
X184840000Y-107685565D01*
X184840004Y-107685565D01*
X185019249Y-107665369D01*
X185019252Y-107665368D01*
X185019255Y-107665368D01*
X185189522Y-107605789D01*
X185342262Y-107509816D01*
X185469816Y-107382262D01*
X185478446Y-107368526D01*
X185530778Y-107322238D01*
X185583439Y-107310500D01*
X186170903Y-107310500D01*
X186237942Y-107330185D01*
X186283697Y-107382989D01*
X186293641Y-107452147D01*
X186264616Y-107515703D01*
X186258586Y-107522178D01*
X185728502Y-108052262D01*
X185351286Y-108429478D01*
X185239481Y-108541282D01*
X185239479Y-108541285D01*
X185189361Y-108628094D01*
X185189359Y-108628096D01*
X185160425Y-108678209D01*
X185160424Y-108678210D01*
X185160423Y-108678215D01*
X185119499Y-108830943D01*
X185119499Y-108830945D01*
X185119499Y-108967589D01*
X185099814Y-109034628D01*
X185092445Y-109044903D01*
X185090184Y-109047737D01*
X184994211Y-109200476D01*
X184934631Y-109370745D01*
X184934630Y-109370750D01*
X184914435Y-109549996D01*
X184914435Y-109550003D01*
X184934630Y-109729249D01*
X184934631Y-109729254D01*
X184994211Y-109899523D01*
X185076790Y-110030945D01*
X185090184Y-110052262D01*
X185217738Y-110179816D01*
X185370478Y-110275789D01*
X185474712Y-110312262D01*
X185540745Y-110335368D01*
X185540750Y-110335369D01*
X185719996Y-110355565D01*
X185720000Y-110355565D01*
X185720004Y-110355565D01*
X185899249Y-110335369D01*
X185899251Y-110335368D01*
X185899255Y-110335368D01*
X185899258Y-110335366D01*
X185899262Y-110335366D01*
X185994987Y-110301869D01*
X186069522Y-110275789D01*
X186069525Y-110275786D01*
X186075795Y-110272768D01*
X186077013Y-110275297D01*
X186132042Y-110259731D01*
X186198882Y-110280081D01*
X186244111Y-110333337D01*
X186247852Y-110342771D01*
X186264210Y-110389521D01*
X186264211Y-110389522D01*
X186360184Y-110542262D01*
X186487738Y-110669816D01*
X186640478Y-110765789D01*
X186810745Y-110825368D01*
X186810750Y-110825369D01*
X186989996Y-110845565D01*
X186990000Y-110845565D01*
X186990004Y-110845565D01*
X187169249Y-110825369D01*
X187169252Y-110825368D01*
X187169255Y-110825368D01*
X187339522Y-110765789D01*
X187492262Y-110669816D01*
X187619816Y-110542262D01*
X187650358Y-110493653D01*
X187702689Y-110447366D01*
X187771743Y-110436716D01*
X187821321Y-110454634D01*
X187865029Y-110482097D01*
X187950475Y-110535788D01*
X188120745Y-110595368D01*
X188120750Y-110595369D01*
X188299996Y-110615565D01*
X188300000Y-110615565D01*
X188300004Y-110615565D01*
X188479249Y-110595369D01*
X188479252Y-110595368D01*
X188479255Y-110595368D01*
X188649522Y-110535789D01*
X188802262Y-110439816D01*
X188929816Y-110312262D01*
X189025789Y-110159522D01*
X189085368Y-109989255D01*
X189090928Y-109939911D01*
X189105565Y-109810003D01*
X189105565Y-109809996D01*
X189085369Y-109630750D01*
X189085368Y-109630745D01*
X189025788Y-109460476D01*
X188989506Y-109402733D01*
X188970500Y-109336761D01*
X188970500Y-108700096D01*
X188990185Y-108633057D01*
X189006814Y-108612420D01*
X200388506Y-97230727D01*
X200388511Y-97230724D01*
X200398714Y-97220520D01*
X200398716Y-97220520D01*
X200510520Y-97108716D01*
X200585123Y-96979499D01*
X200589577Y-96971785D01*
X200630500Y-96819057D01*
X200630500Y-96660943D01*
X200630500Y-93390097D01*
X200650185Y-93323058D01*
X200666819Y-93302416D01*
X201359757Y-92609478D01*
X202538536Y-91430698D01*
X202599857Y-91397215D01*
X202612310Y-91395163D01*
X202699255Y-91385368D01*
X202869522Y-91325789D01*
X203022262Y-91229816D01*
X203149816Y-91102262D01*
X203245789Y-90949522D01*
X203305368Y-90779255D01*
X203307739Y-90758215D01*
X203325565Y-90600003D01*
X203325565Y-90599996D01*
X203305369Y-90420750D01*
X203305368Y-90420745D01*
X203245788Y-90250476D01*
X203149815Y-90097737D01*
X203022262Y-89970184D01*
X202869523Y-89874211D01*
X202699254Y-89814631D01*
X202699249Y-89814630D01*
X202520004Y-89794435D01*
X202519996Y-89794435D01*
X202340750Y-89814630D01*
X202340745Y-89814631D01*
X202170476Y-89874211D01*
X202017737Y-89970184D01*
X201890184Y-90097737D01*
X201794210Y-90250478D01*
X201734630Y-90420750D01*
X201724837Y-90507667D01*
X201697770Y-90572081D01*
X201689298Y-90581464D01*
X199661286Y-92609478D01*
X199549481Y-92721282D01*
X199549477Y-92721287D01*
X199531887Y-92751755D01*
X199481320Y-92799971D01*
X199412713Y-92813193D01*
X199347848Y-92787225D01*
X199307320Y-92730311D01*
X199300500Y-92689755D01*
X199300500Y-92180096D01*
X199320185Y-92113057D01*
X199336815Y-92092419D01*
X199998535Y-91430698D01*
X200059856Y-91397215D01*
X200072311Y-91395163D01*
X200159255Y-91385368D01*
X200329522Y-91325789D01*
X200482262Y-91229816D01*
X200609816Y-91102262D01*
X200705789Y-90949522D01*
X200765368Y-90779255D01*
X200767739Y-90758215D01*
X200785565Y-90600003D01*
X200785565Y-90599996D01*
X200765369Y-90420750D01*
X200765368Y-90420745D01*
X200705788Y-90250476D01*
X200609815Y-90097737D01*
X200482262Y-89970184D01*
X200329523Y-89874211D01*
X200159254Y-89814631D01*
X200159249Y-89814630D01*
X199980004Y-89794435D01*
X199979996Y-89794435D01*
X199800750Y-89814630D01*
X199800745Y-89814631D01*
X199630476Y-89874211D01*
X199477737Y-89970184D01*
X199350184Y-90097737D01*
X199254210Y-90250478D01*
X199194630Y-90420750D01*
X199184837Y-90507668D01*
X199157770Y-90572082D01*
X199149298Y-90581465D01*
X198331286Y-91399478D01*
X198219481Y-91511282D01*
X198219479Y-91511285D01*
X198169361Y-91598094D01*
X198169359Y-91598096D01*
X198140425Y-91648209D01*
X198140424Y-91648210D01*
X198140423Y-91648215D01*
X198099499Y-91800943D01*
X198099499Y-91800945D01*
X198099499Y-91969046D01*
X198099500Y-91969059D01*
X198099500Y-96662905D01*
X198079815Y-96729944D01*
X198063181Y-96750586D01*
X197862181Y-96951586D01*
X197800858Y-96985071D01*
X197731166Y-96980087D01*
X197675233Y-96938215D01*
X197650816Y-96872751D01*
X197650500Y-96863905D01*
X197650500Y-91462417D01*
X197670185Y-91395378D01*
X197722989Y-91349623D01*
X197733547Y-91345375D01*
X197789522Y-91325789D01*
X197942262Y-91229816D01*
X198069816Y-91102262D01*
X198165789Y-90949522D01*
X198225368Y-90779255D01*
X198227739Y-90758215D01*
X198245565Y-90600003D01*
X198245565Y-90599996D01*
X198225369Y-90420750D01*
X198225368Y-90420745D01*
X198165788Y-90250476D01*
X198069815Y-90097737D01*
X197942262Y-89970184D01*
X197789523Y-89874211D01*
X197619254Y-89814631D01*
X197619249Y-89814630D01*
X197440004Y-89794435D01*
X197439996Y-89794435D01*
X197260750Y-89814630D01*
X197260745Y-89814631D01*
X197090476Y-89874211D01*
X196937737Y-89970184D01*
X196810184Y-90097737D01*
X196714210Y-90250478D01*
X196654630Y-90420750D01*
X196644837Y-90507666D01*
X196617770Y-90572080D01*
X196609300Y-90581461D01*
X196569481Y-90621280D01*
X196519361Y-90708094D01*
X196519359Y-90708096D01*
X196490425Y-90758209D01*
X196490424Y-90758210D01*
X196484785Y-90779255D01*
X196449499Y-90910943D01*
X196449499Y-90910945D01*
X196449499Y-91079046D01*
X196449500Y-91079059D01*
X196449500Y-97279902D01*
X196429815Y-97346941D01*
X196413181Y-97367583D01*
X195712181Y-98068583D01*
X195650858Y-98102068D01*
X195581166Y-98097084D01*
X195525233Y-98055212D01*
X195500816Y-97989748D01*
X195500500Y-97980902D01*
X195500500Y-91182412D01*
X195520185Y-91115373D01*
X195527555Y-91105097D01*
X195529810Y-91102267D01*
X195529816Y-91102262D01*
X195625789Y-90949522D01*
X195685368Y-90779255D01*
X195687739Y-90758215D01*
X195705565Y-90600003D01*
X195705565Y-90599996D01*
X195685369Y-90420750D01*
X195685368Y-90420745D01*
X195625788Y-90250476D01*
X195529815Y-90097737D01*
X195402262Y-89970184D01*
X195249523Y-89874211D01*
X195079254Y-89814631D01*
X195079249Y-89814630D01*
X194900004Y-89794435D01*
X194899996Y-89794435D01*
X194720750Y-89814630D01*
X194720745Y-89814631D01*
X194550476Y-89874211D01*
X194397737Y-89970184D01*
X194270184Y-90097737D01*
X194174211Y-90250476D01*
X194114631Y-90420745D01*
X194114630Y-90420750D01*
X194094435Y-90599996D01*
X194094435Y-90600003D01*
X194114630Y-90779249D01*
X194114631Y-90779254D01*
X194174211Y-90949523D01*
X194234515Y-91045496D01*
X194255596Y-91079046D01*
X194270185Y-91102263D01*
X194272445Y-91105097D01*
X194273334Y-91107275D01*
X194273889Y-91108158D01*
X194273734Y-91108255D01*
X194298855Y-91169783D01*
X194299500Y-91182412D01*
X194299500Y-98419902D01*
X194279815Y-98486941D01*
X194263181Y-98507583D01*
X190807347Y-101963416D01*
X190807345Y-101963418D01*
X190801850Y-101972938D01*
X190782143Y-101998620D01*
X186707584Y-106073181D01*
X186646261Y-106106666D01*
X186619903Y-106109500D01*
X185082812Y-106109500D01*
X185041857Y-106102541D01*
X185019256Y-106094632D01*
X185019246Y-106094630D01*
X184840004Y-106074435D01*
X184839996Y-106074435D01*
X184660750Y-106094630D01*
X184660745Y-106094631D01*
X184490476Y-106154211D01*
X184337737Y-106250184D01*
X184210184Y-106377737D01*
X184114211Y-106530476D01*
X184054631Y-106700745D01*
X184054630Y-106700750D01*
X184034435Y-106879996D01*
X181880500Y-106879996D01*
X181880500Y-84646712D01*
X181887459Y-84605757D01*
X181895368Y-84583155D01*
X181898883Y-84551957D01*
X181915565Y-84403903D01*
X181915565Y-84403896D01*
X181895369Y-84224650D01*
X181895368Y-84224645D01*
X181861213Y-84127036D01*
X181851752Y-84099997D01*
X198644726Y-84099997D01*
X198644726Y-84100002D01*
X198663808Y-84451954D01*
X198720833Y-84799793D01*
X198720834Y-84799796D01*
X198815126Y-85139408D01*
X198815127Y-85139410D01*
X198945588Y-85466844D01*
X198945597Y-85466862D01*
X199110695Y-85778269D01*
X199308498Y-86070006D01*
X199308505Y-86070016D01*
X199536685Y-86338649D01*
X199536686Y-86338650D01*
X199792580Y-86581046D01*
X200073182Y-86794354D01*
X200375202Y-86976074D01*
X200375206Y-86976075D01*
X200375210Y-86976078D01*
X200695088Y-87124070D01*
X200695092Y-87124070D01*
X200695099Y-87124074D01*
X201029122Y-87236619D01*
X201373355Y-87312391D01*
X201723763Y-87350500D01*
X201723769Y-87350500D01*
X202076231Y-87350500D01*
X202076237Y-87350500D01*
X202426645Y-87312391D01*
X202770878Y-87236619D01*
X203104901Y-87124074D01*
X203104908Y-87124070D01*
X203104911Y-87124070D01*
X203424789Y-86976078D01*
X203424798Y-86976074D01*
X203726818Y-86794354D01*
X204007420Y-86581046D01*
X204263314Y-86338650D01*
X204491501Y-86070008D01*
X204689305Y-85778269D01*
X204854407Y-85466854D01*
X204984871Y-85139414D01*
X205079168Y-84799788D01*
X205136191Y-84451957D01*
X205155274Y-84100000D01*
X205152800Y-84054378D01*
X205136191Y-83748045D01*
X205114959Y-83618532D01*
X205079168Y-83400212D01*
X205036704Y-83247271D01*
X204984873Y-83060591D01*
X204984872Y-83060589D01*
X204854411Y-82733155D01*
X204854402Y-82733137D01*
X204832243Y-82691340D01*
X204689305Y-82421731D01*
X204491501Y-82129992D01*
X204491497Y-82129987D01*
X204491494Y-82129983D01*
X204263314Y-81861350D01*
X204218917Y-81819295D01*
X204007420Y-81618954D01*
X204007413Y-81618948D01*
X204007410Y-81618946D01*
X203726815Y-81405644D01*
X203424802Y-81223928D01*
X203424789Y-81223921D01*
X203104911Y-81075929D01*
X203104906Y-81075928D01*
X203104903Y-81075927D01*
X203104901Y-81075926D01*
X202998432Y-81040052D01*
X202770880Y-80963381D01*
X202426643Y-80887608D01*
X202076238Y-80849500D01*
X202076237Y-80849500D01*
X201723763Y-80849500D01*
X201723761Y-80849500D01*
X201373356Y-80887608D01*
X201029119Y-80963381D01*
X200695093Y-81075928D01*
X200695088Y-81075929D01*
X200375210Y-81223921D01*
X200375197Y-81223928D01*
X200073184Y-81405644D01*
X199792589Y-81618946D01*
X199792580Y-81618954D01*
X199536685Y-81861350D01*
X199308505Y-82129983D01*
X199308498Y-82129993D01*
X199110695Y-82421730D01*
X198945597Y-82733137D01*
X198945588Y-82733155D01*
X198815127Y-83060589D01*
X198815126Y-83060591D01*
X198720834Y-83400203D01*
X198720833Y-83400206D01*
X198663808Y-83748045D01*
X198644726Y-84099997D01*
X181851752Y-84099997D01*
X181835789Y-84054378D01*
X181739816Y-83901638D01*
X181612262Y-83774084D01*
X181570818Y-83748043D01*
X181459523Y-83678111D01*
X181289254Y-83618531D01*
X181289249Y-83618530D01*
X181110004Y-83598335D01*
X181109996Y-83598335D01*
X180930750Y-83618530D01*
X180930745Y-83618531D01*
X180760476Y-83678111D01*
X180607737Y-83774084D01*
X180480184Y-83901637D01*
X180384211Y-84054376D01*
X180324631Y-84224645D01*
X180324630Y-84224650D01*
X180304435Y-84403896D01*
X177244219Y-84403896D01*
X177253212Y-84238028D01*
X177255274Y-84200002D01*
X177255274Y-84199997D01*
X177236191Y-83848045D01*
X177219797Y-83748043D01*
X177179168Y-83500212D01*
X177136704Y-83347271D01*
X177084873Y-83160591D01*
X177084872Y-83160589D01*
X176954411Y-82833155D01*
X176954402Y-82833137D01*
X176901390Y-82733146D01*
X176789305Y-82521731D01*
X176591501Y-82229992D01*
X176591497Y-82229987D01*
X176591494Y-82229983D01*
X176363314Y-81961350D01*
X176257745Y-81861350D01*
X176107420Y-81718954D01*
X176107413Y-81718948D01*
X176107410Y-81718946D01*
X175933232Y-81586540D01*
X175826818Y-81505646D01*
X175826815Y-81505644D01*
X175524802Y-81323928D01*
X175524789Y-81323921D01*
X175204911Y-81175929D01*
X175204906Y-81175928D01*
X175204903Y-81175927D01*
X175204901Y-81175926D01*
X175065917Y-81129097D01*
X174870880Y-81063381D01*
X174526643Y-80987608D01*
X174176238Y-80949500D01*
X174176237Y-80949500D01*
X173823763Y-80949500D01*
X173823761Y-80949500D01*
X173473356Y-80987608D01*
X173129119Y-81063381D01*
X172795093Y-81175928D01*
X172795088Y-81175929D01*
X172475210Y-81323921D01*
X172475197Y-81323928D01*
X172173184Y-81505644D01*
X171892589Y-81718946D01*
X171892580Y-81718954D01*
X171636685Y-81961350D01*
X171408505Y-82229983D01*
X171408498Y-82229993D01*
X171210695Y-82521730D01*
X171045597Y-82833137D01*
X171045588Y-82833155D01*
X170915127Y-83160589D01*
X170915126Y-83160591D01*
X170820834Y-83500203D01*
X170820833Y-83500206D01*
X170763808Y-83848045D01*
X170748318Y-84133749D01*
X170725033Y-84199625D01*
X170720871Y-84202853D01*
X170523729Y-84202853D01*
X170528429Y-84198780D01*
X170503806Y-84155478D01*
X170500500Y-84127036D01*
X170500500Y-83003750D01*
X170500726Y-82996263D01*
X170516641Y-82733155D01*
X170518271Y-82706201D01*
X170520076Y-82691340D01*
X170571780Y-82409201D01*
X170575364Y-82394663D01*
X170660696Y-82120822D01*
X170665998Y-82106841D01*
X170783731Y-81845249D01*
X170790676Y-81832016D01*
X170939080Y-81586526D01*
X170947567Y-81574230D01*
X171124480Y-81348417D01*
X171134395Y-81337226D01*
X171337226Y-81134395D01*
X171348417Y-81124480D01*
X171574230Y-80947567D01*
X171586526Y-80939080D01*
X171832016Y-80790676D01*
X171845249Y-80783731D01*
X172106841Y-80665998D01*
X172120822Y-80660696D01*
X172394668Y-80575362D01*
X172409197Y-80571780D01*
X172691344Y-80520075D01*
X172706201Y-80518271D01*
X172996264Y-80500726D01*
X173003751Y-80500500D01*
X173065892Y-80500500D01*
X202934108Y-80500500D01*
X202996249Y-80500500D01*
X203003736Y-80500726D01*
G37*
%TD.AperFunction*%
%TD*%
M02*
