%TF.GenerationSoftware,KiCad,Pcbnew,8.0.7*%
%TF.CreationDate,2025-01-13T12:12:40+05:30*%
%TF.ProjectId,STHDAQ_BX,53544844-4151-45f4-9258-2e6b69636164,rev?*%
%TF.SameCoordinates,Original*%
%TF.FileFunction,Soldermask,Top*%
%TF.FilePolarity,Negative*%
%FSLAX46Y46*%
G04 Gerber Fmt 4.6, Leading zero omitted, Abs format (unit mm)*
G04 Created by KiCad (PCBNEW 8.0.7) date 2025-01-13 12:12:40*
%MOMM*%
%LPD*%
G01*
G04 APERTURE LIST*
G04 Aperture macros list*
%AMRoundRect*
0 Rectangle with rounded corners*
0 $1 Rounding radius*
0 $2 $3 $4 $5 $6 $7 $8 $9 X,Y pos of 4 corners*
0 Add a 4 corners polygon primitive as box body*
4,1,4,$2,$3,$4,$5,$6,$7,$8,$9,$2,$3,0*
0 Add four circle primitives for the rounded corners*
1,1,$1+$1,$2,$3*
1,1,$1+$1,$4,$5*
1,1,$1+$1,$6,$7*
1,1,$1+$1,$8,$9*
0 Add four rect primitives between the rounded corners*
20,1,$1+$1,$2,$3,$4,$5,0*
20,1,$1+$1,$4,$5,$6,$7,0*
20,1,$1+$1,$6,$7,$8,$9,0*
20,1,$1+$1,$8,$9,$2,$3,0*%
G04 Aperture macros list end*
%ADD10RoundRect,0.102000X0.990600X0.266700X-0.990600X0.266700X-0.990600X-0.266700X0.990600X-0.266700X0*%
%ADD11RoundRect,0.102000X-1.750000X0.500000X-1.750000X-0.500000X1.750000X-0.500000X1.750000X0.500000X0*%
%ADD12RoundRect,0.102000X-1.700000X0.750000X-1.700000X-0.750000X1.700000X-0.750000X1.700000X0.750000X0*%
%ADD13C,3.600000*%
%ADD14C,5.500000*%
%ADD15R,0.946899X0.508000*%
%ADD16RoundRect,0.100000X0.100000X-0.217500X0.100000X0.217500X-0.100000X0.217500X-0.100000X-0.217500X0*%
%ADD17RoundRect,0.100000X-0.217500X-0.100000X0.217500X-0.100000X0.217500X0.100000X-0.217500X0.100000X0*%
%ADD18RoundRect,0.100000X-0.100000X0.217500X-0.100000X-0.217500X0.100000X-0.217500X0.100000X0.217500X0*%
%ADD19RoundRect,0.100000X0.217500X0.100000X-0.217500X0.100000X-0.217500X-0.100000X0.217500X-0.100000X0*%
%ADD20RoundRect,0.102000X2.800000X1.050000X-2.800000X1.050000X-2.800000X-1.050000X2.800000X-1.050000X0*%
%ADD21R,0.558000X1.454899*%
%ADD22R,1.701800X0.812800*%
%ADD23R,3.098800X2.209800*%
%ADD24RoundRect,0.033060X-1.068940X1.568940X-1.068940X-1.568940X1.068940X-1.568940X1.068940X1.568940X0*%
%ADD25RoundRect,0.030080X-0.721920X1.221920X-0.721920X-1.221920X0.721920X-1.221920X0.721920X1.221920X0*%
%ADD26RoundRect,0.030080X-1.221920X0.721920X-1.221920X-0.721920X1.221920X-0.721920X1.221920X0.721920X0*%
%ADD27C,1.704000*%
%ADD28R,1.639799X0.431000*%
G04 APERTURE END LIST*
D10*
%TO.C,U6*%
X187463800Y-86105000D03*
X187463800Y-84835000D03*
X187463800Y-83565000D03*
X187463800Y-82295000D03*
X182536200Y-82295000D03*
X182536200Y-83565000D03*
X182536200Y-84835000D03*
X182536200Y-86105000D03*
%TD*%
D11*
%TO.C,P1*%
X197915000Y-114060000D03*
X197915000Y-116060000D03*
D12*
X203665000Y-111710000D03*
X203665000Y-118410000D03*
%TD*%
D13*
%TO.C,H4*%
X201900000Y-131900000D03*
D14*
X201900000Y-131900000D03*
%TD*%
D13*
%TO.C,H3*%
X174000000Y-132000000D03*
D14*
X174000000Y-132000000D03*
%TD*%
%TO.C,H2*%
X174000000Y-84200000D03*
D13*
X174000000Y-84200000D03*
%TD*%
%TO.C,H1*%
X201900000Y-84100000D03*
D14*
X201900000Y-84100000D03*
%TD*%
D15*
%TO.C,U2*%
X199746449Y-124380001D03*
X199746449Y-122479999D03*
X202293551Y-122479999D03*
X202293551Y-123430000D03*
X202293551Y-124380001D03*
%TD*%
D16*
%TO.C,R13*%
X182770000Y-111217500D03*
X182770000Y-110402500D03*
%TD*%
D17*
%TO.C,R8*%
X177982500Y-118890000D03*
X178797500Y-118890000D03*
%TD*%
D18*
%TO.C,R1*%
X177300000Y-97592500D03*
X177300000Y-98407500D03*
%TD*%
D17*
%TO.C,C9*%
X184980000Y-116290000D03*
X185795000Y-116290000D03*
%TD*%
D19*
%TO.C,C1*%
X203727500Y-121380000D03*
X202912500Y-121380000D03*
%TD*%
D20*
%TO.C,Y1*%
X192650000Y-132400000D03*
X183150000Y-132400000D03*
%TD*%
D19*
%TO.C,C7*%
X179407500Y-107600000D03*
X178592500Y-107600000D03*
%TD*%
D17*
%TO.C,C8*%
X185015000Y-115140000D03*
X185830000Y-115140000D03*
%TD*%
D18*
%TO.C,R16*%
X193260000Y-110492500D03*
X193260000Y-111307500D03*
%TD*%
D19*
%TO.C,C3*%
X179407500Y-88500000D03*
X178592500Y-88500000D03*
%TD*%
D21*
%TO.C,U3*%
X179800000Y-100557304D03*
X178530000Y-100557304D03*
X177260000Y-100557304D03*
X175990000Y-100557304D03*
X175990000Y-106000000D03*
X177260000Y-106000000D03*
X178530000Y-106000000D03*
X179800000Y-106000000D03*
%TD*%
D22*
%TO.C,J1*%
X175304500Y-112175000D03*
X175304500Y-113425000D03*
X175304500Y-114675000D03*
X175304500Y-115925000D03*
X175304500Y-117175000D03*
X175304500Y-118425000D03*
X175304500Y-119675000D03*
X175304500Y-120925000D03*
X175304500Y-122175000D03*
X175304500Y-123425000D03*
D23*
X172404501Y-125975000D03*
X172404501Y-109625000D03*
%TD*%
D19*
%TO.C,C23*%
X178207500Y-127900000D03*
X177392500Y-127900000D03*
%TD*%
D17*
%TO.C,C21*%
X180862500Y-124960000D03*
X181677500Y-124960000D03*
%TD*%
%TO.C,R7*%
X177982500Y-117690000D03*
X178797500Y-117690000D03*
%TD*%
D18*
%TO.C,R14*%
X189930000Y-111257500D03*
X189930000Y-110442500D03*
%TD*%
D19*
%TO.C,C10*%
X197240000Y-127070000D03*
X196425000Y-127070000D03*
%TD*%
D17*
%TO.C,C17*%
X180872500Y-118850000D03*
X181687500Y-118850000D03*
%TD*%
D19*
%TO.C,C11*%
X197250000Y-126110000D03*
X196435000Y-126110000D03*
%TD*%
D17*
%TO.C,R9*%
X177982500Y-120090000D03*
X178797500Y-120090000D03*
%TD*%
%TO.C,C20*%
X180842500Y-123350000D03*
X181657500Y-123350000D03*
%TD*%
D24*
%TO.C,U5*%
X202520000Y-90600000D03*
X199980000Y-90600000D03*
X197440000Y-90600000D03*
X194900000Y-90600000D03*
X197440000Y-107600000D03*
X192360000Y-90600000D03*
X189820000Y-90600000D03*
X187280000Y-90600000D03*
X187280000Y-107600000D03*
X189820000Y-107600000D03*
X192360000Y-107600000D03*
X194900000Y-107600000D03*
D25*
X197100000Y-94600000D03*
X195200000Y-94600000D03*
D24*
X199980000Y-107600000D03*
D26*
X185650000Y-102900000D03*
X185650000Y-104800000D03*
D27*
X200750000Y-100370000D03*
X200750000Y-97830000D03*
X203290000Y-100370000D03*
X203290000Y-97830000D03*
D24*
X202520000Y-107600000D03*
%TD*%
D16*
%TO.C,R2*%
X188210000Y-111237500D03*
X188210000Y-110422500D03*
%TD*%
D18*
%TO.C,R15*%
X191700000Y-110462500D03*
X191700000Y-111277500D03*
%TD*%
%TO.C,C6*%
X185190000Y-119682500D03*
X185190000Y-120497500D03*
%TD*%
%TO.C,C22*%
X189500000Y-83992500D03*
X189500000Y-84807500D03*
%TD*%
D17*
%TO.C,R3*%
X177967500Y-112890000D03*
X178782500Y-112890000D03*
%TD*%
%TO.C,C16*%
X180752500Y-117560000D03*
X181567500Y-117560000D03*
%TD*%
D19*
%TO.C,C13*%
X196707500Y-125010000D03*
X195892500Y-125010000D03*
%TD*%
D17*
%TO.C,R4*%
X177967500Y-114090000D03*
X178782500Y-114090000D03*
%TD*%
%TO.C,C18*%
X181587500Y-120400000D03*
X180772500Y-120400000D03*
%TD*%
%TO.C,R6*%
X177975000Y-116490000D03*
X178790000Y-116490000D03*
%TD*%
D16*
%TO.C,R11*%
X186530000Y-111217500D03*
X186530000Y-110402500D03*
%TD*%
D17*
%TO.C,R5*%
X177967500Y-115290000D03*
X178782500Y-115290000D03*
%TD*%
%TO.C,C14*%
X180740000Y-115000000D03*
X181555000Y-115000000D03*
%TD*%
D21*
%TO.C,U4*%
X179800000Y-90057304D03*
X178530000Y-90057304D03*
X177260000Y-90057304D03*
X175990000Y-90057304D03*
X175990000Y-95500000D03*
X177260000Y-95500000D03*
X178530000Y-95500000D03*
X179800000Y-95500000D03*
%TD*%
D18*
%TO.C,C5*%
X178600000Y-97592500D03*
X178600000Y-98407500D03*
%TD*%
D19*
%TO.C,C12*%
X196727500Y-124170000D03*
X195912500Y-124170000D03*
%TD*%
D16*
%TO.C,R12*%
X184510000Y-111217500D03*
X184510000Y-110402500D03*
%TD*%
D28*
%TO.C,U1*%
X186767800Y-118675000D03*
X186767800Y-119325001D03*
X186767800Y-119975000D03*
X186767800Y-120625001D03*
X186767800Y-121274999D03*
X186767800Y-121925001D03*
X186767800Y-122574999D03*
X186767800Y-123224998D03*
X186767800Y-123874999D03*
X186767800Y-124524998D03*
X186767800Y-125174999D03*
X186767800Y-125824998D03*
X186767800Y-126474999D03*
X186767800Y-127124998D03*
X194032200Y-127125000D03*
X194032200Y-126474999D03*
X194032200Y-125825000D03*
X194032200Y-125174999D03*
X194032200Y-124525001D03*
X194032200Y-123874999D03*
X194032200Y-123225001D03*
X194032200Y-122574999D03*
X194032200Y-121925001D03*
X194032200Y-121274999D03*
X194032200Y-120625001D03*
X194032200Y-119975000D03*
X194032200Y-119325001D03*
X194032200Y-118675000D03*
%TD*%
D19*
%TO.C,C2*%
X199317500Y-125540000D03*
X198502500Y-125540000D03*
%TD*%
D17*
%TO.C,R10*%
X177982500Y-121290000D03*
X178797500Y-121290000D03*
%TD*%
D16*
%TO.C,C4*%
X176000000Y-98407500D03*
X176000000Y-97592500D03*
%TD*%
D17*
%TO.C,C19*%
X181637500Y-121940000D03*
X180822500Y-121940000D03*
%TD*%
%TO.C,C15*%
X181555000Y-116200000D03*
X180740000Y-116200000D03*
%TD*%
M02*
